<svg width="105" height="111" viewBox="0 0 105 111" fill="none" xmlns="http://www.w3.org/2000/svg">
<path d="M27.312 99.7558C23.4681 97.6259 19.9091 95.0183 16.7199 91.995C-3.44509 72.5903 -4.5923 35.7728 13.7715 14.8257C24.4317 2.66676 42.8145 -1.98209 58.2653 2.36701C66.8381 4.79499 74.7024 10.5175 78.9998 18.42C83.6159 26.8811 89.0823 34.443 94.5895 42.34C99.6553 49.6131 104.162 57.709 104.74 66.5517C105.598 79.6698 98.4181 93.2567 88.0222 100.985C84.1773 103.841 80.3486 106.683 75.7597 108.171C71.2905 109.603 66.6409 110.396 61.9494 110.525C49.1992 110.904 38.1493 105.906 27.312 99.7558Z" fill="#FF7976"/>
<path d="M9.57487 30.0149C10.3889 27.3181 11.5224 24.7282 12.9511 22.3004C16.6435 16.0329 22.6794 9.64005 29.5164 6.80332C37.1819 3.62325 46.6458 4.02382 54.2621 7.17937C58.4924 8.95642 62.3168 11.5758 65.5024 14.8781C68.6881 18.1804 71.1683 22.0965 72.7921 26.3879C75.6834 34.165 75.2228 43.7788 69.4513 49.7411C68.4321 50.793 67.2032 51.8421 67.0151 53.2836C66.8108 54.8669 67.9089 56.6218 67.0642 57.9761C66.0505 59.6111 63.6116 58.8454 61.6987 58.7582C60.2907 58.725 58.9118 59.1616 57.7795 59.9989C56.6471 60.8362 55.8257 62.0267 55.4448 63.3825C56.2476 62.0838 57.4206 61.0549 58.8127 60.428C60.2049 59.8011 61.7528 59.6049 63.2574 59.8645C64.6526 60.137 66.1404 60.791 67.4184 60.167C68.6965 59.543 69.0943 57.9407 69.5793 56.5945C71.356 51.6677 76.4545 48.147 81.692 48.2233C96.0119 48.4413 100.165 67.4073 98.2736 78.558C96.0255 91.7961 86.3136 101.83 73.5143 105.421C63.2274 108.307 52.1175 107.078 41.986 103.688C32.4649 100.5 23.3198 95.1996 17.4992 87.0164C14.3082 82.5338 12.229 77.3536 10.5913 72.097C8.04614 63.922 6.69454 54.9704 7.18231 46.403C7.51476 40.6805 7.96712 35.255 9.57487 30.0149Z" fill="#4E5682"/>
<path opacity="0.17" d="M80.3104 59.0225C79.6706 58.417 78.9826 57.8648 78.2531 57.3711C75.7542 55.6844 71.585 55.638 69.8274 53.0111C69.2524 52.15 69.3423 51.0246 69.4268 49.9918C70.3397 38.8384 67.7291 26.9356 60.11 18.7388C52.4909 10.542 39.2692 7.18209 29.59 12.8256C22.1344 17.1856 18.1096 25.6848 16.0141 34.0588C13.6964 43.3715 13.2169 53.0469 14.6025 62.5432C15.619 69.5246 16.4501 76.7486 21.2706 82.1632C30.7509 92.8207 47.635 98.6167 61.6006 99.2162C66.7318 99.437 72.0455 98.8838 76.5717 96.4558C80.7709 94.205 84.0682 90.409 85.9784 86.0436C88.7961 79.6017 88.2756 71.9744 85.1609 65.7342C83.9476 63.2313 82.3061 60.9599 80.3104 59.0225Z" fill="white"/>
<path d="M80.2422 82.245C79.0459 83.7955 76.9886 84.3405 75.0838 84.7901C74.3399 84.9645 73.5333 85.1335 72.8411 84.8146C72.3575 84.5449 71.9512 84.1555 71.6612 83.6838C70.3178 81.8144 69.1842 79.7025 67.3012 78.3782C66.1769 77.6117 64.8637 77.1685 63.5049 77.0969C62.146 77.0253 60.7936 77.328 59.5949 77.9722C58.7736 75.9405 58.3232 73.7781 58.2651 71.5875C63.5952 69.571 70.1815 71.6774 73.3507 76.4135C74.2854 77.8087 75.1601 79.5527 76.8087 79.866C77.539 80.005 78.2911 79.8197 79.0323 79.866C79.7735 79.9124 80.5992 80.3484 80.6673 81.0868C80.6783 81.5129 80.5262 81.9272 80.2422 82.245Z" fill="#E88A80"/>
<path d="M79.8227 90.3218C79.7954 89.3054 78.5991 88.725 77.5827 88.7196C76.5663 88.7141 75.5281 89.0302 74.5444 88.7741C72.7077 88.2972 71.9529 86.1853 70.9719 84.5612C69.9484 82.9277 68.4803 81.62 66.7399 80.7913C64.9995 79.9626 63.0588 79.6473 61.1456 79.8824C61.3254 77.1846 61.4998 74.4324 60.8022 71.8137C58.6467 63.7231 49.0084 59.4531 46.5832 51.4361C48.0465 52.3326 49.9976 51.1227 50.7661 49.5886C51.5345 48.0544 51.5835 46.2559 52.2239 44.659C53.0196 42.6316 54.6519 41.0729 55.9571 39.3289C59.5896 34.4621 60.5025 27.2735 56.9927 22.3168C55.2105 19.8043 52.5264 18.0848 49.7796 16.6924C46.635 15.0928 43.1715 13.812 39.6562 14.1145C34.5142 14.5559 30.1542 18.3819 27.6853 22.9135C25.2165 27.4452 24.32 32.6418 23.4888 37.7348C21.6822 48.8283 20.0635 60.4204 23.4888 71.1215C24.2932 73.7424 25.4874 76.2272 27.0313 78.4926C32.7702 86.6513 43.8473 89.8913 53.6763 88.1964C56.2378 87.7576 58.7557 87.0246 61.3499 86.8339C64.0041 86.6458 67.1106 87.3298 68.2823 89.7196C68.7619 90.6979 68.8273 91.8206 69.138 92.8697C69.4486 93.9188 70.0972 94.9925 71.1599 95.2432C71.8221 95.3985 72.5224 95.1996 73.1655 95.0034C75.4736 94.3058 77.9533 93.4883 79.3458 91.5209C79.6299 91.1831 79.7972 90.7625 79.8227 90.3218Z" fill="#FFA192"/>
<path d="M55.6275 55.9732L57.9328 55.6353C57.9819 56.5836 56.6793 56.8261 55.7528 57.0523C53.6873 57.5564 52.3329 59.4558 50.8478 60.9927C48.9023 62.9941 46.5234 64.5224 43.8943 65.4597C41.2652 66.397 38.4561 66.7184 35.6832 66.3991C35.1873 66.374 34.7072 66.2158 34.2934 65.9413C33.9574 65.6436 33.7119 65.2573 33.5849 64.8267C33.2784 63.9632 33.156 63.045 33.2254 62.1313C33.2949 61.2176 33.5547 60.3285 33.9882 59.5212C36.3303 60.2109 38.7894 60.4104 41.212 60.107C43.6346 59.8037 45.9687 59.0041 48.0683 57.7581C48.4616 57.5405 48.8199 57.2649 49.1311 56.9406C50.1203 55.8506 50.0085 54.1774 49.8368 52.7114C50.4445 52.4825 50.9432 53.2019 51.2484 53.7741C51.5536 54.3464 52.2812 54.9513 52.7499 54.5017L53.4475 51.0655C53.551 50.5423 54.0524 49.8665 54.4448 50.2262C54.5636 51.2724 54.525 52.3306 54.3304 53.3654C54.504 52.755 54.8194 52.1942 55.2508 51.7287C55.6822 51.2632 56.2174 50.9062 56.8129 50.6867C56.6121 51.9135 56.1553 53.0843 55.4722 54.1229C56.2904 53.4905 57.2388 53.0475 58.2489 52.8258C57.7971 54.1645 56.8624 55.2867 55.6275 55.9732Z" fill="#FFA192"/>
<path d="M48.1583 57.8807C48.6053 57.5513 49.0254 57.1868 49.4146 56.7907C49.3682 56.709 49.3028 56.7117 49.262 56.6245C48.8773 57.0003 48.4586 57.3397 48.0112 57.6382C45.289 59.2641 42.1759 60.1194 39.005 60.1125C37.4277 60.1119 35.858 59.8946 34.3398 59.4667C34.3943 59.5757 34.4434 59.6874 34.4897 59.8018C35.963 60.1923 37.4809 60.3883 39.005 60.385C42.2267 60.3954 45.3907 59.5298 48.1583 57.8807Z" fill="#CE5959"/>
<path d="M51.9922 59.5675C51.8478 59.7228 51.7061 59.8809 51.5617 60.0389C51.2892 60.3332 51.0303 60.6275 50.7633 60.9082C49.0719 62.6323 47.0552 64.0037 44.8301 64.943C42.605 65.8822 40.2156 66.3707 37.8004 66.38C37.1036 66.3807 36.4075 66.3388 35.7158 66.2546C35.5523 66.2328 35.3806 66.2056 35.2117 66.1674L35.2362 66.4672C35.3861 66.4944 35.5387 66.519 35.6831 66.538C36.3857 66.6232 37.0927 66.666 37.8004 66.6661C40.2553 66.6549 42.6834 66.156 44.9438 65.1984C47.2042 64.2408 49.2518 62.8437 50.9676 61.088C51.2401 60.8155 51.5126 60.5103 51.7851 60.2133C51.9514 60.028 52.1203 59.8454 52.2892 59.6683C52.1802 59.6302 52.0849 59.592 51.9922 59.5675Z" fill="#CE5959"/>
<path d="M46.6079 51.4361C46.6079 51.4361 40.8336 50.278 38.0759 44.7626C38.0759 44.7626 38.8062 57.5537 48.3301 55.1176C47.5927 53.9737 47.0134 52.7353 46.6079 51.4361Z" fill="#E88A80"/>
<path fill-rule="evenodd" clip-rule="evenodd" d="M37.8358 31.9888C37.8359 31.9889 37.836 31.9889 37.765 32.1131L37.836 31.9889C37.9046 32.0281 37.9284 32.1155 37.8892 32.1841C37.8501 32.2525 37.763 32.2764 37.6945 32.2376M37.0047 36.108C36.9831 36.2494 36.983 36.2494 36.9829 36.2494L36.9827 36.2493L36.9821 36.2492L36.9802 36.2489L36.9739 36.2479C36.9685 36.247 36.9609 36.2457 36.9512 36.2439C36.9317 36.2403 36.904 36.2348 36.8693 36.2271C36.8001 36.2116 36.7029 36.1872 36.5896 36.1508C36.3643 36.0784 36.0693 35.9567 35.8029 35.7602C35.5357 35.563 35.2919 35.2863 35.183 34.9045C35.0738 34.522 35.1054 34.0535 35.353 33.484C35.8411 32.3609 36.4433 31.9605 36.9552 31.8658C37.2064 31.8194 37.4242 31.8491 37.5791 31.8903C37.6566 31.9109 37.719 31.9345 37.7627 31.9534C37.7846 31.9629 37.802 31.9712 37.8143 31.9774C37.8205 31.9805 37.8254 31.9831 37.829 31.9851L37.8335 31.9875L37.835 31.9884L37.8356 31.9887L37.8358 31.9888" fill="#CE5959"/>
<path fill-rule="evenodd" clip-rule="evenodd" d="M45.5858 39.018C45.7124 38.9246 45.8907 38.9516 45.984 39.0782C46.5996 39.9133 47.2279 40.1147 47.6788 40.1323C47.9112 40.1414 48.1082 40.102 48.2465 40.0605C48.3153 40.0398 48.3687 40.0188 48.4034 40.0038C48.4207 39.9963 48.4333 39.9904 48.4407 39.9867C48.4444 39.9849 48.4468 39.9837 48.4479 39.9831L48.4476 39.9833L48.4473 39.9835M48.4483 39.9829C48.4482 39.9829 48.4481 39.983 48.4479 39.9831L48.448 39.9831L48.4485 39.9828L48.4485 39.9828C48.4485 39.9828 48.4485 39.9828 48.4483 39.9829ZM48.4483 39.9829C48.5862 39.9087 48.7583 39.9597 48.8333 40.0973C48.9086 40.2353 48.8578 40.4083 48.7197 40.4836L48.5833 40.2336C48.7197 40.4836 48.7195 40.4837 48.7194 40.4838L48.719 40.484L48.7181 40.4845L48.716 40.4856L48.7101 40.4887C48.7054 40.4911 48.6992 40.4943 48.6917 40.498C48.6765 40.5054 48.6556 40.5153 48.6293 40.5266C48.5769 40.5493 48.5027 40.5781 48.4103 40.6059C48.2259 40.6613 47.9651 40.7135 47.6566 40.7014C47.0258 40.6768 46.2397 40.385 45.5255 39.4161C45.4322 39.2895 45.4592 39.1113 45.5858 39.018" fill="#333333"/>
<path d="M83.2399 31.5436C85.0182 35.2952 87.3112 38.7805 90.0524 41.8986C90.8944 42.8578 91.84 43.9641 91.6874 45.2285C91.5621 46.2014 90.7582 46.9889 89.8426 47.3404C88.927 47.6919 87.9106 47.6729 86.935 47.5611C84.191 47.2505 81.5205 46.2422 78.76 46.3376C78.0897 46.3621 77.3975 46.4494 76.7544 46.3104C76.1113 46.1714 75.4492 45.7381 75.2938 45.0868C75.2339 44.7412 75.245 44.3871 75.3265 44.0459C75.9 40.5662 76.1916 37.0459 76.1985 33.5192C76.1985 32.3175 76.1767 31.0858 76.5828 29.9549C76.9888 28.824 77.9453 27.7994 79.1361 27.6932C80.1362 27.6032 81.1035 28.1755 81.7603 28.9358C82.417 29.696 82.8094 30.6335 83.2399 31.5436Z" fill="#F99595"/>
</svg>
