<svg width="115" height="121" viewBox="0 0 115 121" fill="none" xmlns="http://www.w3.org/2000/svg">
<path d="M1.08173 48.0353C1.92777 41.6281 3.72421 35.3828 6.41182 29.5053C11.2269 19.1067 19.3856 10.1196 29.716 5.16558C35.313 2.52278 41.3973 1.06987 47.5844 0.898668C53.7716 0.727467 59.927 1.84172 65.6615 4.17096C76.3026 8.56911 84.6302 16.7877 93.9551 23.2841C98.5222 26.4696 102.294 28.8976 105.793 33.3312C109.39 37.8956 111.856 43.3129 113.235 48.9454C115.142 56.7389 115.047 64.9194 113.848 72.8546C108.793 106.353 76.12 127.513 43.3901 117.58C28.2118 112.98 15.0991 102.32 7.72255 88.2481C1.43052 76.2663 -0.776723 61.7638 1.08173 48.0353Z" fill="#FF7976"/>
<path d="M108.163 71.2986C108.181 69.171 108.05 67.0449 107.771 64.9357C106.408 54.7169 99.3043 47.4466 90.8568 42.231C84.4258 38.258 83.5893 30.816 80.5018 24.5539C77.0329 17.5125 71.1987 11.6075 64.0728 8.27207C46.3794 -0.00920486 23.3205 8.40832 13.6168 24.8319C4.31088 40.5824 3.55333 60.6384 9.80176 77.626C20.0069 105.345 54.8133 125.6 82.987 111.688C98.168 104.192 108.024 88.15 108.163 71.2986Z" fill="#4E5682"/>
<path opacity="0.17" d="M22.7455 85.0789C31.7598 101.571 48.7829 112.759 68.5009 110.408C82.2131 108.773 95.0261 99.7803 99.5114 86.4414C102.021 78.9803 101.653 70.5247 98.1707 63.4669C95.8327 58.7309 92.2329 54.7933 88.3335 51.2916C84.791 48.1088 80.2893 45.6972 78.5725 41.0129C76.4715 35.2741 75.6186 29.7696 72.1279 24.4695C65.4435 14.3134 54.3364 8.87975 42.202 10.8445C13.9356 15.3925 11.5512 52.2672 18.301 74.4868C19.414 78.1611 20.9034 81.7106 22.7455 85.0789Z" fill="white"/>
<path d="M64.0021 96.6902C64.0021 96.6902 61.7267 98.9846 62.566 100.096C63.4053 101.208 65.6806 101.884 66.926 102.93C68.1713 103.977 70.1959 106.247 71.3786 106.399C71.3786 106.399 72.316 107.195 72.6103 107.146C72.9046 107.097 72.5503 105.901 72.5503 105.901C72.5503 105.901 73.1853 106.397 73.6757 106.315C74.1662 106.233 73.485 105.189 73.485 105.189C73.485 105.189 74.733 105.734 74.9102 105.604C75.0873 105.473 74.2235 104.211 74.2235 104.211C74.2235 104.211 74.9429 104.593 75.4061 104.364C75.8694 104.135 75.1091 103.208 75.1091 103.208C75.1091 103.208 76.5942 103.661 77.1119 102.87C77.6297 102.08 75.8557 101.674 74.8856 100.69C73.9155 99.7067 64.0021 96.6902 64.0021 96.6902Z" fill="#E88A80"/>
<path d="M58.5654 49.5776C58.5654 49.5776 61.3967 48.4876 64.5277 50.9837C67.6587 53.4798 73.0679 60.4967 72.3403 63.3307C71.6127 66.1647 69.1739 68.3855 69.1739 68.3855L70.2421 72.9281C70.2421 72.9281 74.7329 70.9661 77.932 74.4459C81.1312 77.9258 73.2614 92.6162 73.2614 92.6162C73.2614 92.6162 77.9674 91.3191 79.2373 91.1066C80.0578 90.9579 80.86 90.7213 81.6298 90.4008C81.6298 90.4008 85.047 88.6187 85.5702 89.3326C86.0934 90.0466 85.6547 91.6298 83.7989 91.9431C83.7989 91.9431 85.8509 92.1993 85.7691 93.0331C85.6874 93.867 84.4883 93.9269 84.4883 93.9269C84.4883 93.9269 85.7773 94.1994 85.7473 94.6927C85.7173 95.1859 84.4965 95.5456 84.4965 95.5456C84.4965 95.5456 85.6819 95.4202 85.7364 95.75C85.7909 96.0797 84.5102 96.7473 84.5102 96.7473C84.5102 96.7473 85.6002 96.7882 85.6955 97.077C85.7909 97.3659 85.0334 97.8291 83.788 97.6602C83.788 97.6602 82.9705 97.949 81.9187 98.2052C80.8668 98.4613 79.289 99.1371 78.6241 99.6631C77.9592 100.189 75.7438 101.571 74.4004 101.432C73.057 101.293 71.4029 99.4532 69.272 98.8047C67.141 98.1561 58.6962 96.2704 55.8568 94.3357C53.9812 96.5829 51.302 98.0086 48.3903 98.3087C43.4553 98.8537 37.7274 93.4773 35.8962 89.7659C34.065 86.0544 33.7162 80.4873 33.7162 80.4873C33.7162 80.4873 30.0728 75.5823 29.397 70.9661C28.7212 66.35 29.1927 58.4311 32.7052 56.0413C36.2177 53.6515 38.5149 52.9512 38.5149 52.9512L58.5654 49.5776Z" fill="#FFA192"/>
<path fill-rule="evenodd" clip-rule="evenodd" d="M56.4309 80.2322C54.4382 78.9344 52.6027 78.1879 51.0698 78.4241C47.9577 78.9037 45.4823 81.7093 43.6806 84.6343C42.2958 86.8824 41.332 89.1596 40.7865 90.4484C40.623 90.8346 40.4971 91.1321 40.4087 91.3134C40.3728 91.3871 40.2839 91.4177 40.2102 91.3818C40.1364 91.3458 40.1058 91.2569 40.1418 91.1832C40.2237 91.0151 40.3439 90.7311 40.5016 90.3583C41.0431 89.0783 42.0274 86.7519 43.4277 84.4785C45.2339 81.5462 47.7711 78.6319 51.0246 78.1305C52.6745 77.8763 54.5924 78.6803 56.593 79.9833C58.6004 81.2907 60.7248 83.1234 62.796 84.9785C63.2198 85.3581 63.6413 85.7386 64.0593 86.1158C65.6876 87.5855 67.2612 89.0059 68.702 90.1323C69.6068 90.8397 70.4544 91.4272 71.2254 91.8365C71.9987 92.247 72.6817 92.471 73.2606 92.4677C73.3426 92.4673 73.4095 92.5334 73.4099 92.6154C73.4104 92.6974 73.3443 92.7643 73.2623 92.7648C72.6115 92.7684 71.877 92.5187 71.0862 92.0989C70.2932 91.6779 69.4301 91.0786 68.5191 90.3663C67.0691 89.2327 65.4851 87.8029 63.8558 86.3323C63.439 85.9561 63.0191 85.5771 62.5978 85.1998C60.5261 83.3441 58.417 81.5257 56.4309 80.2322Z" fill="#CE5959"/>
<path fill-rule="evenodd" clip-rule="evenodd" d="M71.7782 76.7777C71.7782 76.7777 71.7782 76.7777 71.7782 76.7777L71.7781 76.7777L71.7781 76.7777L71.7777 76.778L71.7754 76.7795L71.7654 76.7862C71.7564 76.7923 71.7426 76.8017 71.7244 76.8145C71.6881 76.84 71.634 76.8789 71.5648 76.9316C71.4262 77.0369 71.2269 77.197 70.9862 77.4147C70.5047 77.8501 69.8582 78.5155 69.2022 79.4323C67.891 81.2649 66.5402 84.1046 66.3956 88.1281C66.3926 88.21 66.3238 88.2741 66.2418 88.2711C66.1598 88.2682 66.0958 88.1994 66.0987 88.1174C66.2457 84.0286 67.6198 81.1335 68.9607 79.2594C69.6308 78.3229 70.2921 77.6419 70.7869 77.1944C71.0344 76.9706 71.2403 76.8051 71.385 76.6951C71.4574 76.6401 71.5145 76.599 71.5538 76.5714C71.5735 76.5576 71.5887 76.5471 71.5992 76.54L71.6113 76.5319L71.6146 76.5297L71.6156 76.5291L71.6159 76.5289C71.616 76.5288 71.6161 76.5288 71.6971 76.6532L71.6161 76.5288C71.6848 76.484 71.7768 76.5035 71.8216 76.5722C71.8663 76.6409 71.8469 76.7329 71.7782 76.7777Z" fill="#CE5959"/>
<path fill-rule="evenodd" clip-rule="evenodd" d="M33.6164 80.4104C33.6634 80.3431 33.756 80.3268 33.8232 80.3737L33.7381 80.4955L33.653 80.6172C33.5858 80.5702 33.5694 80.4776 33.6164 80.4104ZM33.7381 80.4955C33.653 80.6172 33.6529 80.6171 33.653 80.6172L33.6545 80.6182L33.6585 80.621L33.6736 80.6313C33.6868 80.6404 33.7062 80.6536 33.7317 80.6707C33.7827 80.7048 33.8577 80.7542 33.9546 80.8159C34.1484 80.9393 34.43 81.112 34.7822 81.31C35.4862 81.7057 36.4742 82.2035 37.6093 82.6106C39.8713 83.4218 42.7577 83.8865 45.1337 82.4036C45.2032 82.3602 45.2244 82.2686 45.181 82.199C45.1376 82.1294 45.046 82.1082 44.9764 82.1517C42.7198 83.56 39.9478 83.1337 37.7095 82.331C36.5944 81.9311 35.6218 81.4412 34.9277 81.0511C34.5809 80.8561 34.304 80.6862 34.1142 80.5654C34.0193 80.5049 33.9461 80.4568 33.8969 80.4238C33.8723 80.4074 33.8537 80.3947 33.8413 80.3862L33.8275 80.3767L33.8241 80.3744L33.8232 80.3737L33.7381 80.4955Z" fill="#CE5959"/>
<path fill-rule="evenodd" clip-rule="evenodd" d="M54.2454 56.9886C54.3734 56.8864 54.5349 56.7956 54.6979 56.8376C54.8756 56.8834 54.944 57.0487 54.9677 57.1958C54.9922 57.349 54.9807 57.5434 54.9495 57.7546C54.8866 58.1804 54.7356 58.7237 54.5651 59.2536C54.4181 59.7105 54.2548 60.1626 54.1164 60.5294C54.2869 60.3372 54.4835 60.1221 54.6893 59.9094C54.9961 59.5923 55.3272 59.2767 55.6246 59.0515C55.7729 58.9392 55.9181 58.8453 56.0516 58.7857C56.1799 58.7284 56.3243 58.6903 56.4563 58.7305C56.5505 58.7592 56.6076 58.8301 56.6348 58.9091C56.6598 58.9817 56.6617 59.0645 56.6543 59.1446C56.6393 59.3065 56.5803 59.5138 56.4972 59.7424C56.3297 60.2033 56.0477 60.7941 55.7489 61.3731C55.4494 61.9535 55.1303 62.5272 54.8862 62.9556C54.8596 63.0023 54.8338 63.0473 54.8091 63.0904C54.9878 62.9723 55.1967 62.8392 55.4152 62.7105C55.7224 62.5296 56.0534 62.3545 56.3475 62.2429C56.4945 62.1872 56.6375 62.1453 56.767 62.1279C56.8938 62.1108 57.0257 62.1148 57.1366 62.1708C57.2367 62.2213 57.2709 62.3175 57.2736 62.4019C57.276 62.4804 57.2536 62.5663 57.2225 62.6497C57.1593 62.8194 57.0385 63.0345 56.8848 63.2732C56.5753 63.7536 56.1104 64.3626 55.6308 64.9584C55.1504 65.5551 54.6522 66.1423 54.2744 66.58C54.0854 66.799 53.9264 66.9807 53.8146 67.1077C53.7587 67.1712 53.7146 67.2211 53.6844 67.2551L53.6599 67.2827C52.2136 72.0695 51.2556 74.8639 50.6583 76.4634C50.359 77.2648 50.1499 77.767 50.0152 78.0697C49.9478 78.2212 49.8988 78.323 49.8663 78.3877C49.8501 78.42 49.8379 78.4431 49.8295 78.4586C49.8254 78.4663 49.8221 78.4721 49.8198 78.4762L49.8171 78.4811L49.8162 78.4826L49.8159 78.4831C49.8158 78.4832 49.8156 78.4835 49.6877 78.4081L49.8156 78.4835C49.774 78.5542 49.683 78.5777 49.6123 78.5361C49.5417 78.4945 49.5181 78.4036 49.5596 78.333C49.5596 78.3329 49.5596 78.333 49.5596 78.333L49.5611 78.3304C49.5625 78.3278 49.5649 78.3235 49.5683 78.3173C49.5751 78.3047 49.5859 78.2842 49.6009 78.2543C49.631 78.1944 49.678 78.0969 49.7438 77.949C49.8755 77.6531 50.0822 77.1568 50.38 76.3594C50.9756 74.7645 51.9345 71.9679 53.385 67.1654C53.3913 67.1447 53.402 67.1256 53.4164 67.1095L53.5272 67.2084C53.4164 67.1095 53.4164 67.1095 53.4164 67.1095L53.4281 67.0964L53.4622 67.058C53.4922 67.0242 53.536 66.9747 53.5916 66.9115C53.7029 66.785 53.8613 66.6041 54.0495 66.3859C54.4262 65.9496 54.922 65.3652 55.3994 64.7721C55.8777 64.178 56.3345 63.579 56.6351 63.1124C56.7863 62.8776 56.8926 62.6845 56.9442 62.546C56.9654 62.489 56.974 62.4499 56.9762 62.4258C56.94 62.4156 56.8852 62.4117 56.8065 62.4222C56.7081 62.4355 56.5885 62.4692 56.4529 62.5206C56.1819 62.6234 55.8678 62.7887 55.5659 62.9665C55.2652 63.1436 54.9817 63.3301 54.773 63.4726C54.6688 63.5437 54.5835 63.6038 54.5243 63.6459C54.4947 63.667 54.4717 63.6836 54.4561 63.6949L54.4385 63.7077L54.4341 63.7109L54.433 63.7117L54.4328 63.7119C54.3759 63.7538 54.2972 63.7498 54.2449 63.7022C54.1925 63.6547 54.181 63.5769 54.2172 63.5162L54.3447 63.5923C54.2172 63.5162 54.2172 63.5162 54.2172 63.5162L54.2248 63.5034L54.2471 63.4658C54.2666 63.4328 54.2952 63.3843 54.3315 63.3224C54.4039 63.1987 54.5067 63.0216 54.6281 62.8085C54.8711 62.3822 55.188 61.8123 55.485 61.2369C55.7826 60.6602 56.0573 60.0832 56.2181 59.6409C56.2991 59.418 56.3472 59.2399 56.3585 59.1173C56.3636 59.0623 56.3602 59.0291 56.3557 59.0118C56.3241 59.008 56.2662 59.0151 56.1728 59.0569C56.0686 59.1034 55.9438 59.1823 55.8039 59.2883C55.5247 59.4997 55.206 59.8025 54.9028 60.1159C54.6004 60.4284 54.3172 60.7474 54.1094 60.9886C54.0056 61.1092 53.9207 61.21 53.8619 61.2807C53.8325 61.3161 53.8096 61.3438 53.7941 61.3627L53.7765 61.3842L53.771 61.391L53.7707 61.3913C53.7242 61.4486 53.6427 61.4632 53.5793 61.4255C53.5159 61.3877 53.4898 61.3091 53.5181 61.241L53.5314 61.2465C53.5181 61.241 53.5181 61.241 53.5181 61.241L53.5184 61.2403L53.5193 61.2382L53.5228 61.2295L53.5369 61.1952C53.5491 61.1652 53.5671 61.121 53.5897 61.0646C53.635 60.9518 53.6989 60.7903 53.7733 60.5959C53.9224 60.2069 54.1135 59.6873 54.2824 59.1626C54.4518 58.6362 54.5965 58.1119 54.6557 57.7112C54.6855 57.5092 54.6917 57.3507 54.6744 57.2429C54.6658 57.1893 54.6529 57.1579 54.642 57.1413C54.6332 57.1279 54.6277 57.1263 54.6237 57.1253C54.6096 57.1216 54.5514 57.1244 54.4307 57.2207C54.3196 57.3094 54.189 57.4508 54.0449 57.6347C53.7579 58.001 53.4371 58.5105 53.1352 59.0312C52.834 59.5507 52.5546 60.0765 52.3503 60.4727C52.2481 60.6707 52.1649 60.8361 52.1072 60.952C52.0784 61.0099 52.056 61.0555 52.0408 61.0865L52.0235 61.1218L52.0191 61.1308L52.0178 61.1335C52.0178 61.1336 52.0177 61.1337 51.884 61.069C51.7404 61.0313 51.7404 61.0313 51.7404 61.0312L51.7405 61.0306L51.7432 61.0205L51.7515 60.9886C51.7587 60.9605 51.7693 60.9193 51.7825 60.8667C51.8091 60.7616 51.8466 60.6112 51.8901 60.4302C51.977 60.068 52.0878 59.5845 52.1835 59.0974C52.2794 58.609 52.3591 58.1224 52.3854 57.7522C52.3987 57.5657 52.3976 57.4178 52.3817 57.3168C52.3786 57.2965 52.375 57.2797 52.3714 57.2658C52.3551 57.2839 52.3357 57.3084 52.3134 57.3405C52.2351 57.4533 52.1426 57.6278 52.0395 57.851C51.8342 58.2954 51.5997 58.9044 51.3653 59.5278C51.3198 59.6487 51.2743 59.7702 51.2291 59.891C51.0422 60.3902 50.8595 60.8783 50.698 61.2709C50.5978 61.5145 50.5041 61.7257 50.421 61.8821C50.3797 61.96 50.3388 62.0285 50.2989 62.0818C50.2643 62.128 50.2118 62.1892 50.1407 62.2144C50.0627 62.2421 49.9896 62.2224 49.9358 62.1939C49.8836 62.1662 49.8369 62.124 49.7961 62.0796C49.714 61.9902 49.628 61.8605 49.5412 61.7129C49.3928 61.4603 49.227 61.128 49.0585 60.7904C49.029 60.7312 48.9993 60.6718 48.9697 60.6126C48.7688 60.2116 48.5674 59.8207 48.3822 59.5411C48.2891 59.4005 48.2059 59.2971 48.1351 59.2352C48.0999 59.2045 48.0735 59.189 48.0558 59.1823C48.0526 59.1811 48.0499 59.1802 48.0476 59.1796C48.0459 59.1827 48.0438 59.1867 48.0415 59.1916C48.0268 59.223 48.0118 59.2755 48.0004 59.3536C47.9776 59.5085 47.973 59.7297 47.9845 60.0018C48.0075 60.5439 48.0927 61.2586 48.2006 61.9835C48.3084 62.7073 48.4382 63.437 48.5493 64.0073C48.6049 64.2925 48.6557 64.5373 48.6967 64.7211C48.7389 64.9108 48.7681 65.0232 48.78 65.0543C48.7981 65.1017 48.7903 65.1447 48.7844 65.1669C48.7779 65.1916 48.7676 65.2138 48.758 65.2316C48.7386 65.2675 48.7106 65.3069 48.6789 65.3473C48.6145 65.4292 48.5186 65.5351 48.3982 65.6604C48.1565 65.9119 47.8038 66.254 47.3747 66.6624C47.0807 66.9423 46.7504 67.2536 46.3943 67.5894C45.7086 68.236 44.9269 68.9731 44.1222 69.7507C42.9002 70.9315 41.6297 72.2014 40.5727 73.3788C39.512 74.5603 38.6788 75.6354 38.3179 76.4286C38.2839 76.5033 38.1959 76.5363 38.1212 76.5023C38.0466 76.4683 38.0136 76.3803 38.0475 76.3056C38.4293 75.4666 39.2913 74.3616 40.3517 73.1804C41.4157 71.9951 42.6921 70.7195 43.9158 69.5371C44.7215 68.7585 45.5063 68.0185 46.1929 67.3711C46.5485 67.0358 46.8777 66.7253 47.1699 66.4472C47.5991 66.0387 47.9475 65.7007 48.184 65.4546C48.3028 65.331 48.3904 65.2337 48.4454 65.1637C48.4637 65.1404 48.4767 65.1222 48.4856 65.1086C48.4649 65.0381 48.4377 64.9248 48.4068 64.7857C48.3651 64.5986 48.3137 64.3511 48.2578 64.0642C48.1459 63.4903 48.0153 62.7561 47.9068 62.0272C47.7984 61.2993 47.7114 60.5723 47.6878 60.0144C47.676 59.7366 47.6796 59.4932 47.7065 59.3103C47.7198 59.2195 47.7402 59.1348 47.7724 59.0658C47.8036 58.9992 47.858 58.9223 47.9528 58.8938C48.1013 58.8493 48.2353 58.9283 48.3305 59.0116C48.4315 59.0998 48.5321 59.2294 48.6299 59.3771C48.8265 59.6741 49.0356 60.0811 49.2353 60.4796C49.2655 60.5399 49.2955 60.6001 49.3253 60.6597C49.4942 60.9982 49.6546 61.3194 49.7973 61.5624C49.8818 61.7062 49.9548 61.8133 50.0149 61.8787C50.0298 61.8949 50.0423 61.9068 50.0523 61.9152C50.055 61.9118 50.0579 61.908 50.0611 61.9037C50.0879 61.8681 50.1205 61.8147 50.1587 61.7428C50.2348 61.5996 50.3241 61.3992 50.4233 61.1579C50.5828 60.7701 50.7633 60.288 50.9501 59.7891C50.9955 59.6678 51.0413 59.5454 51.0873 59.4232C51.3212 58.8013 51.5593 58.1823 51.7699 57.7265C51.8747 57.4996 51.9759 57.3058 52.0694 57.1711C52.1157 57.1045 52.1657 57.0439 52.2196 57.0014C52.2708 56.9609 52.3538 56.9152 52.4516 56.9417C52.5339 56.964 52.586 57.0234 52.617 57.0808C52.6473 57.1371 52.6646 57.2037 52.6752 57.2707C52.6963 57.4054 52.6954 57.58 52.6817 57.7732C52.6541 58.1622 52.5715 58.6634 52.475 59.1547C52.4255 59.4062 52.3722 59.6566 52.3201 59.8899C52.486 59.578 52.6772 59.229 52.8782 58.8823C53.182 58.3582 53.5111 57.8344 53.8111 57.4515C53.9606 57.2608 54.1078 57.0985 54.2454 56.9886ZM51.884 61.069L51.7404 61.0312C51.721 61.1052 51.7609 61.1818 51.8326 61.2083C51.9043 61.2347 51.9844 61.2023 52.0178 61.1335L51.884 61.069Z" fill="#CE5959"/>
<path fill-rule="evenodd" clip-rule="evenodd" d="M37.3297 65.4961C37.41 65.4795 37.4886 65.5311 37.5052 65.6114L37.3597 65.6415L37.2143 65.6716C37.1977 65.5913 37.2493 65.5127 37.3297 65.4961ZM37.3597 65.6415C37.2143 65.6716 37.2143 65.6715 37.2143 65.6716L37.2152 65.6762L37.218 65.6893C37.2204 65.7008 37.224 65.7178 37.2288 65.7401C37.2383 65.7846 37.2525 65.8499 37.2711 65.9335C37.3084 66.1007 37.3635 66.3411 37.4349 66.6345C37.5776 67.2211 37.7859 68.0203 38.0476 68.87C38.3091 69.7193 38.6249 70.6218 38.9833 71.414C39.34 72.2021 39.7457 72.897 40.1929 73.317C40.2527 73.3732 40.3467 73.3702 40.4028 73.3105C40.459 73.2507 40.456 73.1567 40.3963 73.1005C39.9933 72.7221 39.607 72.0719 39.254 71.2915C38.9027 70.5151 38.591 69.6256 38.3314 68.7826C38.072 67.9402 37.8653 67.147 37.7235 66.5642C37.6526 66.2729 37.5979 66.0344 37.561 65.8689C37.5426 65.7861 37.5286 65.7216 37.5192 65.6778C37.5145 65.6559 37.511 65.6393 37.5086 65.6281L37.506 65.6155L37.5052 65.6114C37.5052 65.6114 37.5052 65.6114 37.3597 65.6415Z" fill="#CE5959"/>
<path fill-rule="evenodd" clip-rule="evenodd" d="M69.0868 68.2654C69.1531 68.2172 69.246 68.232 69.2942 68.2983C69.3424 68.3647 69.3276 68.4576 69.2612 68.5058L69.174 68.3856C69.2612 68.5058 69.2613 68.5057 69.2612 68.5058L69.2589 68.5075L69.2524 68.5121C69.2468 68.5162 69.2383 68.5222 69.2271 68.5301C69.2047 68.546 69.171 68.5697 69.1257 68.6011C69.0349 68.6639 68.8973 68.7578 68.709 68.8824C68.3324 69.1317 67.7529 69.5043 66.9397 69.9986C65.3144 70.9865 62.7555 72.4608 59.0162 74.4097L53.2308 78.4616C53.1636 78.5087 53.071 78.4924 53.024 78.4252C52.9769 78.358 52.9932 78.2654 53.0604 78.2184L58.8537 74.1608C58.859 74.1571 58.8646 74.1538 58.8703 74.1508C62.6091 72.2024 65.165 70.7297 66.7854 69.7448C67.5955 69.2524 68.1718 68.8818 68.5451 68.6348C68.7317 68.5112 68.8676 68.4185 68.9566 68.3569C69.0011 68.3261 69.0338 68.3031 69.0554 68.2878C69.0661 68.2802 69.0741 68.2745 69.0793 68.2707L69.0851 68.2666L69.0864 68.2656L69.0868 68.2654Z" fill="#CE5959"/>
<path fill-rule="evenodd" clip-rule="evenodd" d="M63.3675 57.7926C63.4432 57.7611 63.5301 57.7971 63.5615 57.8729L65.1965 61.816C65.2247 61.8838 65.199 61.962 65.1361 62C64.5041 62.3813 63.6814 63.1176 62.7914 64.0187C61.9042 64.9169 60.9595 65.9691 60.0844 66.9735C59.5239 67.6168 58.9937 68.2386 58.5255 68.7876C58.2621 69.0965 58.0183 69.3824 57.7998 69.6361C57.4973 69.9874 57.2428 70.2776 57.0536 70.4797C56.9594 70.5803 56.8788 70.6618 56.8153 70.7185C56.7839 70.7466 56.7531 70.7718 56.7246 70.7907C56.7104 70.8001 56.6933 70.8102 56.6744 70.8182C56.6579 70.8252 56.6259 70.8366 56.5866 70.8336C56.5175 70.8282 56.2304 70.8305 55.8237 70.8381C55.4226 70.8456 54.9167 70.858 54.4204 70.8711C53.9241 70.8842 53.4376 70.8981 53.0751 70.9087C52.8939 70.914 52.7437 70.9185 52.6388 70.9216L52.4745 70.9266C52.4745 70.9266 52.4744 70.9266 52.4698 70.7782C52.4652 70.6297 52.4653 70.6297 52.4653 70.6297L52.4659 70.6297L52.6299 70.6247C52.7348 70.6216 52.8851 70.6171 53.0665 70.6118C53.4291 70.6012 53.9159 70.5873 54.4126 70.5742C54.9091 70.5611 55.4158 70.5487 55.8181 70.5411C56.1695 70.5346 56.4507 70.5314 56.5713 70.5355C56.5823 70.5272 56.5976 70.5147 56.6174 70.4971C56.6708 70.4492 56.7442 70.3755 56.8368 70.2766C57.0213 70.0796 57.2722 69.7936 57.5747 69.4423C57.7914 69.1907 58.0344 68.9058 58.2974 68.5974C58.7665 68.0473 59.2993 67.4224 59.8605 66.7784C60.7369 65.7724 61.6864 64.7148 62.5801 63.8099C63.4234 62.9562 64.2254 62.2297 64.8739 61.8134L63.2872 57.9866C63.2557 57.9109 63.2917 57.824 63.3675 57.7926ZM52.3214 70.7827C52.3188 70.7007 52.3833 70.6322 52.4653 70.6297L52.4698 70.7782L52.4745 70.9266C52.3926 70.9291 52.3239 70.8647 52.3214 70.7827Z" fill="#CE5959"/>
<path fill-rule="evenodd" clip-rule="evenodd" d="M51.611 90.0001C51.6803 89.9563 51.7721 89.977 51.8159 90.0464C52.5942 91.2791 53.6271 92.3229 54.4685 93.0601C54.8887 93.4282 55.2598 93.7188 55.5256 93.9172C55.6585 94.0163 55.765 94.0924 55.838 94.1435C55.8745 94.169 55.9027 94.1883 55.9216 94.2012C55.931 94.2076 55.9382 94.2124 55.9429 94.2155L55.9481 94.219L55.9493 94.2198L55.9496 94.22L55.9496 94.22C56.018 94.2653 56.0368 94.3574 55.9915 94.4258C55.9463 94.4942 55.8542 94.513 55.7857 94.4678L55.8677 94.3439C55.7857 94.4678 55.7857 94.4677 55.7857 94.4677L55.7855 94.4676L55.7851 94.4673L55.7835 94.4663L55.7775 94.4623C55.7723 94.4587 55.7646 94.4536 55.7546 94.4468C55.7347 94.4332 55.7054 94.4132 55.6677 94.3868C55.5924 94.3341 55.4835 94.2563 55.348 94.1552C55.0771 93.9531 54.6997 93.6576 54.2728 93.2835C53.4199 92.5363 52.3641 91.471 51.5647 90.2049C51.5209 90.1356 51.5416 90.0439 51.611 90.0001Z" fill="#CE5959"/>
<path d="M58.6637 49.5613L38.635 52.9403C38.1178 53.1132 37.6118 53.318 37.1199 53.5534C38.932 54.6707 46.047 58.6765 52.2273 56.6763C56.8598 55.1748 59.7728 51.6786 61.2388 49.4114C60.3808 49.2546 59.4977 49.306 58.6637 49.5613Z" fill="#E88A80"/>
<path d="M59.4321 40.1382C59.4321 40.1382 60.9827 38.5959 61.7648 38.7757C62.5469 38.9556 62.2853 43.2093 61.1516 43.6263C60.018 44.0432 59.4512 42.9341 59.4512 42.9341L59.4321 40.1382Z" fill="#E88A80"/>
<path d="M53.0691 54.5262C57.0967 53.21 60.7455 48.3568 60.631 46.7927C60.5166 45.2285 59.7045 40.8467 59.958 39.2199C60.2114 37.5931 61.612 18.2183 48.8181 16.5315C36.0242 14.8448 23.9225 23.0715 26.0208 34.1705C28.119 45.2694 37.008 54.1692 41.6269 54.7469C46.2457 55.3246 49.8782 55.5672 53.0691 54.5262Z" fill="#FFA192"/>
<path d="M31.5062 45.6782C31.5062 45.6782 28.7812 43.8769 28.2362 46.3812C27.6912 48.8855 32.7679 52.2482 33.3728 49.1335L31.5062 45.6782Z" fill="#FFA192"/>
<path fill-rule="evenodd" clip-rule="evenodd" d="M57.5841 40.6549C57.7322 40.7255 57.795 40.9028 57.7244 41.0508L57.4563 40.923C57.7244 41.0508 57.7243 41.051 57.7242 41.0512L57.7241 41.0516L57.7236 41.0526L57.7223 41.0552L57.7184 41.0631C57.7152 41.0696 57.7107 41.0782 57.7051 41.0889C57.6938 41.1103 57.6775 41.14 57.6561 41.1762C57.6134 41.2485 57.5499 41.3476 57.4642 41.46C57.2937 41.6837 57.0304 41.9663 56.6621 42.1918C56.2912 42.4189 55.8168 42.5859 55.2346 42.5777C54.6539 42.5696 53.9844 42.3876 53.2202 41.9459C53.0782 41.8638 53.0296 41.6822 53.1117 41.5401C53.1938 41.3981 53.3755 41.3495 53.5175 41.4316C54.2125 41.8333 54.7835 41.9773 55.2429 41.9837C55.7006 41.9901 56.0658 41.8603 56.3519 41.6851C56.6407 41.5083 56.852 41.2832 56.9918 41.0998C57.0614 41.0086 57.112 40.9293 57.1446 40.8741C57.1609 40.8465 57.1726 40.8251 57.1798 40.8114C57.1835 40.8045 57.186 40.7996 57.1873 40.7969L57.1886 40.7944C57.2594 40.6469 57.4363 40.5845 57.5841 40.6549Z" fill="#333333"/>
<path fill-rule="evenodd" clip-rule="evenodd" d="M44.2671 42.8503C44.4052 42.9389 44.4453 43.1226 44.3567 43.2607L44.1067 43.1003C44.3567 43.2607 44.3566 43.2608 44.3565 43.261L44.3563 43.2614L44.3557 43.2623L44.354 43.2649L44.3485 43.2731C44.344 43.2799 44.3378 43.2891 44.3297 43.3007C44.3136 43.3239 44.2903 43.3564 44.26 43.3963C44.1994 43.4761 44.1103 43.586 43.9933 43.7112C43.7599 43.9608 43.4111 44.2756 42.9508 44.5313C42.0146 45.0516 40.648 45.3082 38.9327 44.3603C38.7891 44.281 38.7371 44.1003 38.8164 43.9567C38.8957 43.8131 39.0764 43.7611 39.22 43.8404C40.7447 44.6829 41.8933 44.4394 42.6623 44.0121C43.0546 43.794 43.3559 43.5231 43.5594 43.3054C43.6608 43.197 43.7369 43.1029 43.7869 43.0371C43.8119 43.0042 43.8302 42.9785 43.8419 42.9617C43.8478 42.9533 43.8519 42.9471 43.8544 42.9434L43.8567 42.9399L43.8568 42.9397L43.8569 42.9397C43.9455 42.8018 44.1291 42.7618 44.2671 42.8503Z" fill="#333333"/>
<path fill-rule="evenodd" clip-rule="evenodd" d="M51.1713 43.9765C51.2261 43.9155 51.32 43.9106 51.381 43.9655L51.2817 44.0759C51.381 43.9655 51.3811 43.9655 51.3811 43.9656L51.3813 43.9657L51.3817 43.9661L51.3832 43.9675L51.3883 43.9721C51.3926 43.9761 51.3987 43.9818 51.4063 43.9891C51.4217 44.0037 51.4434 44.0249 51.4698 44.0517C51.5224 44.1054 51.5939 44.1823 51.6702 44.2761C51.8206 44.4611 51.9991 44.723 52.0787 45.0084C52.1604 45.301 52.1395 45.6295 51.8717 45.9088C51.6149 46.1766 51.1504 46.3774 50.4035 46.4846C50.3223 46.4962 50.2471 46.4399 50.2354 46.3587C50.2238 46.2775 50.2801 46.2022 50.3613 46.1906C51.0859 46.0866 51.4696 45.899 51.6573 45.7032C51.834 45.5189 51.854 45.3083 51.7926 45.0882C51.7292 44.861 51.5806 44.6367 51.4398 44.4636C51.3705 44.3783 51.3054 44.3083 51.2577 44.2597C51.2339 44.2355 51.2146 44.2167 51.2015 44.2041C51.1949 44.1979 51.1899 44.1932 51.1866 44.1902L51.1831 44.1869L51.1823 44.1862L51.1823 44.1862C51.1823 44.1862 51.1823 44.1862 51.1822 44.1862M51.1713 43.9765C51.1164 44.0374 51.1213 44.1313 51.1822 44.1862L51.1713 43.9765Z" fill="#CE5959"/>
<path fill-rule="evenodd" clip-rule="evenodd" d="M53.6933 49.0373C53.7509 49.1909 53.6731 49.3621 53.5195 49.4197L53.4152 49.1416C53.5195 49.4197 53.5196 49.4197 53.5195 49.4197L53.5187 49.4201L53.5169 49.4207L53.5106 49.4231C53.5052 49.4251 53.4974 49.4279 53.4872 49.4316C53.4669 49.4389 53.4374 49.4495 53.3994 49.4627C53.3233 49.4892 53.2131 49.5264 53.075 49.5701C52.7989 49.6575 52.4098 49.771 51.9567 49.8762C51.0573 50.0849 49.8775 50.2674 48.8229 50.1283C48.6603 50.1068 48.5458 49.9576 48.5673 49.7949C48.5887 49.6323 48.738 49.5179 48.9006 49.5393C49.8489 49.6645 50.9458 49.5009 51.8224 49.2975C52.2573 49.1966 52.6311 49.0875 52.8958 49.0038C53.0281 48.9619 53.1328 48.9265 53.2041 48.9017C53.2397 48.8893 53.2669 48.8796 53.285 48.873L53.3051 48.8657L53.3099 48.8639L53.3109 48.8635C53.3109 48.8635 53.3108 48.8636 53.3109 48.8635M53.6933 49.0373C53.6358 48.8838 53.4644 48.806 53.3109 48.8635L53.6933 49.0373Z" fill="#333333"/>
<path d="M59.0178 76.3072C58.921 76.5029 58.8706 76.7183 58.8706 76.9366C58.8706 77.155 58.921 77.3704 59.0178 77.5661C60.7264 77.2255 62.4867 77.5797 64.228 77.6506C65.9692 77.7214 67.8904 77.4162 69.0321 76.1001C69.6807 75.3561 69.9886 74.3833 70.3946 73.4841C70.9805 72.1788 71.828 70.9525 73.027 70.1732C74.226 69.3938 75.8119 69.1241 77.1145 69.7208C78.8776 70.5383 79.7386 72.672 81.5017 73.4759C83.8207 74.5332 86.652 72.6202 87.3877 70.1814C88.1234 67.7425 87.3141 65.1101 86.2296 62.8048C85.012 60.217 83.4441 57.8091 81.5698 55.6489C81.0521 55.0549 80.4962 54.4472 80.3027 53.6842C80.0466 52.6814 80.4935 51.6159 81.1393 50.8039C82.4064 49.2207 84.4093 48.3514 86.4203 48.0789C88.4314 47.8064 90.4751 48.1307 92.4589 48.5476C97.6037 49.6376 102.923 51.7113 105.88 56.0577C106.697 51.2426 104.416 46.3785 101.291 42.6316C98.1651 38.8847 94.2056 35.9308 90.7667 32.4592C87.2242 28.8758 84.1204 24.6412 79.6378 22.3304C81.7223 26.38 82.7602 30.8869 82.6571 35.4403C82.559 39.506 81.2783 43.9233 77.8639 46.1305C76.6512 46.918 75.1089 47.5175 74.6429 48.8855C74.3431 49.7602 74.5911 50.7221 74.9154 51.586C76.8665 56.6981 81.5181 60.3305 83.9079 65.2491C84.6273 66.7233 85.1423 68.3801 84.8644 69.9988C84.7199 70.8408 84.2785 71.7264 83.4664 71.9989C82.7089 72.2551 81.8696 71.8899 81.2701 71.3586C80.6706 70.8272 80.2373 70.1405 79.6787 69.571C77.4715 67.3201 73.3158 67.4754 71.2857 69.8871C69.9859 71.4294 69.539 73.6203 68.0157 74.9338C65.6613 76.9775 62.1025 75.9938 59.0178 76.3072Z" fill="#FF7976"/>
<path d="M106.738 42.7515C107.245 44.9506 106.975 47.7274 104.983 48.7874C102.904 49.8938 100.446 48.4468 98.4704 47.166C96.1596 45.6645 93.6308 44.2912 90.8786 44.1495C89.5569 44.0786 88.219 44.2966 86.9191 44.0568C85.6193 43.817 84.2895 42.9368 84.1233 41.6261C85.7992 37.3124 84.5975 32.4973 84.3059 27.8785C84.235 26.7748 84.265 25.5431 85.0253 24.7447C85.5703 24.1806 86.3605 23.9545 87.1317 23.8727C91.4917 23.4176 95.2195 26.8075 98.266 29.9658C101.863 33.6936 105.574 37.7048 106.738 42.7515Z" fill="#F99595"/>
</svg>
