<svg width="101" height="118" viewBox="0 0 101 118" fill="none" xmlns="http://www.w3.org/2000/svg">
<path d="M3.9061 40.1521C6.53109 31.9422 10.5079 24.228 15.6727 17.3275C20.9128 10.3596 27.8807 4.44095 36.1756 1.7541C46.4951 -1.58675 58.8939 0.391599 67.385 7.18775C77.1677 15.0112 84.5798 28.4428 90.3867 39.4436C99.8915 57.4286 106.17 80.6347 92.0217 98.0447C86.4518 104.893 78.8191 109.882 70.6087 113.119C47.6287 122.177 21.4551 115.49 8.44868 93.8046C-1.19782 77.7407 -1.72102 57.6847 3.9061 40.1521Z" fill="#FF7976"/>
<path d="M4.78628 50.7115C6.24846 42.687 9.21845 35.0123 13.539 28.094C18.9645 19.5129 26.4337 11.0818 36.072 7.06242C46.8003 2.58796 58.5396 5.32659 66.7337 13.4525C72.0611 18.7336 75.3965 25.9031 76.2712 33.3451C77.2522 41.6536 75.0777 50.33 74.3937 58.6113C74.1702 61.3363 73.4781 64.6744 70.8512 65.4401C66.4912 66.7181 63.1612 59.2407 58.7713 60.4561C57.5941 60.7831 56.6866 61.7014 55.8391 62.5843L49.4599 69.2224L51.5827 70.1789C54.2287 67.9171 55.9427 63.7206 59.4334 63.8269C62.2374 63.9114 63.9569 66.8517 66.3141 68.3695C69.7448 70.5795 74.9441 69.187 76.8244 65.5736C78.1869 62.9467 78.0397 59.4233 80.3369 57.554C85.3564 53.4665 91.5966 61.2136 93.4878 65.1649C97.1474 72.8194 96.5616 82.1471 92.7738 89.739C87.6535 99.9931 77.65 106.746 66.6547 109.318C56.1798 111.771 44.9691 109.879 34.8703 106.511C22.8503 102.5 12.9177 94.7311 7.47586 83.0763C2.69893 72.8385 2.77251 61.5951 4.78628 50.7115Z" fill="#4E5682"/>
<path opacity="0.17" d="M50.3672 73.0973C48.8957 73.0973 47.6259 71.8547 47.2362 70.435C46.8465 69.0153 47.1844 67.4865 47.7812 66.1376C50.1356 60.7421 56.8255 57.6765 62.4472 59.4178C63.4799 59.7366 64.5481 60.2026 65.6 59.9628C66.3848 59.783 67.0279 59.2352 67.592 58.663C71.0064 55.1859 72.5733 50.2155 72.7695 45.3432C72.9657 40.4709 71.9383 35.6422 70.7666 30.9007C69.4395 25.5406 67.8236 20.0252 64.1666 15.8914C58.4796 9.46857 48.6124 7.77634 40.4837 10.5177C32.355 13.259 25.9186 19.7827 21.7057 27.2574C17.4929 34.732 15.2693 43.1414 13.3972 51.5098C11.7867 58.7147 10.3997 66.1022 11.1899 73.4434C12.2227 83.019 17.3185 92.3276 25.4989 97.4234C28.2648 99.1428 31.3113 100.361 34.3851 101.435C44.4431 104.944 55.4603 106.972 65.7362 104.16C76.0122 101.347 85.2254 92.7146 86.0538 82.1034C86.3045 78.8961 85.7514 75.5171 83.8738 72.9011C81.9963 70.2851 78.6391 68.6092 75.4972 69.3096C72.9548 69.8791 70.7148 71.8792 68.1179 71.664C64.1258 71.3342 61.1473 65.906 57.3759 67.2576C54.4275 68.3204 53.5064 73.0891 50.3672 73.0973Z" fill="white"/>
<path d="M60.6733 82.8883C60.6733 82.8883 64.2703 80.4358 65.0687 79.7572C65.8671 79.0787 66.6001 77.4955 67.3332 77.6944C68.0662 77.8933 67.8645 79.4248 67.3986 79.7572C67.3986 79.7572 68.464 79.4847 68.7311 79.7572C68.9981 80.0297 68.2651 80.6238 68.2651 80.6238C68.2651 80.6238 68.8101 80.6238 68.9981 80.9562C69.1862 81.2887 68.4531 81.7574 68.4531 81.7574C68.4531 81.7574 69.1208 81.9563 69.1208 82.2234C69.1208 82.4904 68.3877 82.8883 68.3877 82.8883C68.2442 83.6242 67.8433 84.2849 67.2569 84.7521C66.3222 85.4198 63.4582 86.2182 62.1938 87.9513L59.5315 83.6213L60.6733 82.8883Z" fill="#FFA192"/>
<path d="M60.518 75.3863C60.4281 76.6289 59.4525 79.7463 59.4525 79.7463C59.4525 79.7463 62.8261 88.8942 63.2675 89.1585C63.709 89.4228 68.9519 90.2239 69.4832 90.2239C70.0146 90.2239 72.0584 89.4255 72.3254 89.9514C72.5925 90.4774 71.0828 91.4611 71.0828 91.4611C71.0828 91.4611 69.5732 92.7909 68.5949 92.8808C67.6166 92.9707 64.9543 93.4258 64.6 93.9463C64.2458 94.4668 61.4908 95.9001 59.894 94.9246C58.2971 93.949 58.5614 92.7037 57.1417 90.4828C55.722 88.262 53.948 85.15 53.948 85.15L60.518 75.3863Z" fill="#E88A80"/>
<path d="M56.8772 52.8315C56.8772 52.8315 56.6047 49.458 57.1497 49.0165C57.6947 48.5751 64.7797 44.5747 65.0522 38.0048C65.3247 31.4348 63.0085 17.4038 48.6259 18.2921C34.2434 19.1805 33.7965 32.5003 34.2407 34.8956C34.6848 37.2908 36.1046 40.757 34.2407 43.5093C32.3768 46.2615 27.4908 51.1393 25.7141 59.4941C23.9374 67.849 26.4254 84.7113 32.1097 91.7254C37.7941 98.7396 44.2687 98.1183 47.4624 96.7858C50.6561 95.4532 59.4524 79.7354 59.4524 79.7354L60.2508 81.8664C60.2508 81.8664 61.8504 76.1848 61.1391 73.6096C60.4279 71.0345 56.8772 66.2521 51.1929 69.4349C51.1929 69.4349 57.4985 61.9766 57.7656 61.7095C58.0326 61.4425 63.9813 57.8046 63.9813 57.1833C63.9813 56.562 61.7605 57.4558 61.7605 57.4558C61.7605 57.4558 63.8914 55.4148 63.8042 54.9706C63.717 54.5265 60.7849 56.2132 60.7849 56.2132C60.7849 56.2132 63.6271 53.728 63.093 53.3711C62.5589 53.0141 60.1636 54.9706 60.1636 54.9706C60.1636 54.9706 61.8504 52.6626 61.4062 52.4827C60.962 52.3029 57.7656 55.859 57.7656 55.859C57.7656 55.859 57.6757 53.9923 57.3214 53.9923C56.9672 53.9923 55.8118 58.1725 55.0924 58.8701C54.373 59.5677 48.5224 63.2301 48.5224 63.2301C48.5224 63.2301 46.9228 57.2814 46.3015 56.8372C46.3015 56.8372 51.4518 58.3469 54.0269 53.4637C54.0351 53.4528 55.8118 53.6299 56.8772 52.8315Z" fill="#FFA192"/>
<path fill-rule="evenodd" clip-rule="evenodd" d="M33.6237 66.5739C33.6837 66.5311 33.7671 66.5451 33.8099 66.6052L33.7012 66.6827L33.5924 66.7602C33.5496 66.7001 33.5636 66.6167 33.6237 66.5739ZM51.1929 69.4458L51.0962 69.3538C51.1461 69.3013 51.2288 69.2982 51.2826 69.3468C51.3363 69.3955 51.3414 69.4781 51.2941 69.533L51.1929 69.4458ZM49.6624 71.1155C49.2157 71.5243 48.7005 71.9773 48.1478 72.4292C47.268 73.1485 46.2902 73.8675 45.3401 74.401C44.3943 74.932 43.4574 75.2901 42.6647 75.2636C42.2591 75.2501 41.8154 75.099 41.3547 74.8564C40.8927 74.6131 40.4052 74.2731 39.91 73.8714C38.9196 73.0682 37.8875 72.0093 36.9531 70.9573C36.0181 69.9046 35.1781 68.8556 34.5721 68.07C34.269 67.6771 34.0243 67.3499 33.8552 67.1208C33.7707 67.0062 33.7051 66.9162 33.6606 66.8548C33.6383 66.824 33.6213 66.8005 33.6099 66.7845L33.5969 66.7664L33.5924 66.7602C33.5924 66.7601 33.5924 66.7602 33.7012 66.6827C33.8099 66.6052 33.8099 66.6051 33.8099 66.6052L33.8141 66.611L33.8268 66.6287C33.838 66.6444 33.8548 66.6677 33.8768 66.6981C33.9209 66.759 33.9861 66.8484 34.0701 66.9622C34.2382 67.19 34.4818 67.5157 34.7835 67.9069C35.3872 68.6894 36.2231 69.7333 37.1527 70.7799C38.0829 71.8272 39.1041 72.8739 40.0782 73.664C40.5653 74.059 41.0379 74.3877 41.4791 74.6201C41.9217 74.8532 42.3243 74.9851 42.6736 74.9967C43.3905 75.0207 44.2739 74.6934 45.2094 74.1681C46.1406 73.6452 47.105 72.9368 47.9788 72.2224C48.852 71.5085 49.6317 70.791 50.1932 70.2519C50.4739 69.9824 50.6999 69.7576 50.8556 69.6003C50.9335 69.5216 50.9938 69.4599 51.0345 69.4178C51.0549 69.3968 51.0704 69.3807 51.0807 69.3699L51.0924 69.3578L51.096 69.354L51.0962 69.3538C51.0962 69.3538 51.0962 69.3538 51.1929 69.4458C51.2941 69.533 51.2941 69.5329 51.2941 69.533L51.2938 69.5333L51.289 69.5388L51.2738 69.5567C51.2602 69.5725 51.24 69.5962 51.2136 69.6275C51.1607 69.6899 51.0828 69.7824 50.983 69.9026C50.7833 70.143 50.4957 70.4939 50.1447 70.9356C49.4427 71.819 48.4872 73.0652 47.4738 74.5159C45.4443 77.4208 43.1917 81.1326 42.2662 84.3908C42.246 84.4617 42.1722 84.5029 42.1013 84.4828C42.0303 84.4626 41.9892 84.3888 42.0093 84.3178C42.9477 81.0142 45.2227 77.2718 47.2548 74.3629C48.1461 73.0871 48.9925 71.9692 49.6624 71.1155Z" fill="#CE5959"/>
<path fill-rule="evenodd" clip-rule="evenodd" d="M38.0073 57.5237C38.015 57.4503 38.0807 57.3971 38.154 57.4048C38.4004 57.4306 38.6989 57.5802 39.0213 57.7978C39.3484 58.0185 39.7178 58.3217 40.1095 58.6771C40.8933 59.3881 41.7766 60.3174 42.6045 61.2385C43.433 62.1601 44.2082 63.0759 44.7762 63.7611C45.0602 64.1037 45.2925 64.3888 45.4538 64.5883C45.5298 64.6822 45.59 64.7572 45.6325 64.8102L48.4616 63.1049C48.5248 63.0668 48.6068 63.0871 48.6449 63.1503C48.683 63.2135 48.6626 63.2955 48.5995 63.3336L45.6701 65.0994C45.6126 65.134 45.5383 65.1206 45.4966 65.068L45.6012 64.985C45.4966 65.068 45.4966 65.0681 45.4966 65.068L45.4802 65.0474C45.4693 65.0337 45.453 65.0134 45.4317 64.9868C45.3892 64.9337 45.3266 64.8556 45.2462 64.7562C45.0854 64.5575 44.8538 64.2732 44.5706 63.9315C44.004 63.248 43.2312 62.3351 42.4059 61.417C41.5802 60.4984 40.7039 59.5769 39.9301 58.8749C39.543 58.5237 39.1841 58.2299 38.8719 58.0191C38.5548 57.8051 38.3029 57.6889 38.1262 57.6704C38.0529 57.6627 37.9997 57.597 38.0073 57.5237Z" fill="#CE5959"/>
<path fill-rule="evenodd" clip-rule="evenodd" d="M48.8354 39.6491C48.8354 39.6492 48.8354 39.6493 48.7079 39.6888L48.8354 39.6491C48.8572 39.7196 48.8179 39.7945 48.7474 39.8164C48.677 39.8382 48.6023 39.7988 48.5804 39.7285M48.5804 39.7285L48.5801 39.7275L48.5787 39.723C48.5773 39.7189 48.5752 39.7125 48.5722 39.704C48.5663 39.687 48.5572 39.6617 48.5447 39.6297C48.5197 39.5656 48.4812 39.475 48.4281 39.3706C48.3213 39.1608 48.1578 38.9008 47.9291 38.6876C47.7017 38.4755 47.4129 38.3125 47.0508 38.2861C46.6881 38.2597 46.2342 38.369 45.6745 38.7351C45.127 39.0932 44.8799 39.5319 44.822 39.9795C44.7635 40.4323 44.8968 40.9109 45.1429 41.3437C45.3887 41.776 45.7412 42.1519 46.1035 42.3969C46.4716 42.6458 46.822 42.7419 47.0743 42.6697C47.1452 42.6494 47.2191 42.6904 47.2394 42.7613C47.2597 42.8322 47.2187 42.9061 47.1478 42.9264C46.7816 43.0313 46.3455 42.8829 45.9539 42.6181C45.5565 42.3494 45.1762 41.9426 44.9107 41.4757C44.6455 41.0091 44.4891 40.472 44.5572 39.9452C44.626 39.4131 44.9218 38.9083 45.5283 38.5116C46.1227 38.1229 46.6341 37.988 47.0702 38.0198C47.507 38.0516 47.8506 38.2493 48.1112 38.4923C48.3707 38.7342 48.5511 39.0236 48.6661 39.2495C48.7239 39.3629 48.7658 39.4617 48.7935 39.5326C48.8073 39.568 48.8176 39.5965 48.8245 39.6165C48.828 39.6265 48.8306 39.6344 48.8324 39.6399L48.8345 39.6464L48.8351 39.6483L48.8354 39.6491" fill="#CE5959"/>
<path fill-rule="evenodd" clip-rule="evenodd" d="M53.4959 46.2763C53.6337 46.2238 53.788 46.2929 53.8406 46.4307C54.01 46.8746 54.317 47.2527 54.7167 47.5097C55.1164 47.7667 55.5878 47.8891 56.062 47.8589C56.2092 47.8495 56.3361 47.9613 56.3455 48.1085C56.3549 48.2556 56.2431 48.3826 56.096 48.3919C55.508 48.4293 54.9234 48.2776 54.4278 47.959C53.9322 47.6404 53.5516 47.1715 53.3416 46.621C53.289 46.4832 53.3581 46.3289 53.4959 46.2763Z" fill="#333333"/>
<path d="M47.7949 60.3525C47.3071 58.7584 46.7212 57.0498 46.3997 56.81C47.0566 56.9758 47.7335 57.0492 48.4107 57.028C45.7048 55.8263 40.7535 49.4334 40.1158 44.9781C40.1049 44.9944 39.8052 58.3878 47.7949 60.3525Z" fill="#E88A80"/>
<path fill-rule="evenodd" clip-rule="evenodd" d="M60.5316 76.0955C60.605 76.1029 60.6584 76.1684 60.651 76.2418C60.6042 76.7038 60.332 77.5958 60.0783 78.3572C59.9504 78.7413 59.8253 79.0974 59.7322 79.3574C59.6856 79.4874 59.6471 79.5935 59.6201 79.6671C59.6067 79.7039 59.5961 79.7326 59.5889 79.7521L59.5806 79.7743L59.5778 79.7819C59.5778 79.7819 59.5778 79.782 59.4526 79.7354L59.3275 79.6888L59.3303 79.6814L59.3384 79.6595C59.3455 79.6402 59.356 79.6118 59.3694 79.5753C59.3961 79.5022 59.4345 79.3967 59.4808 79.2674C59.5734 79.0086 59.6978 78.6545 59.825 78.2728C60.0816 77.5027 60.3421 76.6413 60.3853 76.2149C60.3927 76.1415 60.4582 76.0881 60.5316 76.0955ZM59.406 79.8606C59.3369 79.8348 59.3018 79.7579 59.3275 79.6888L59.4526 79.7354L59.5778 79.7819C59.5521 79.851 59.4751 79.8863 59.406 79.8606Z" fill="#CE5959"/>
<path d="M91.6975 46.9646C92.3997 48.5946 92.8234 50.3309 92.9509 52.1012C93.0327 53.2293 92.9074 54.5373 91.9836 55.1913C91.2969 55.6764 90.3486 55.6382 89.5474 55.4229C86.6426 54.6654 84.0102 52.0113 81.1217 52.8315C80.0562 53.134 78.7673 53.8452 77.9988 53.0467C77.6418 52.6761 77.5928 52.1121 77.5792 51.597C77.3993 45.0353 79.89 38.4435 78.5956 32.007C78.3858 30.977 78.304 29.5546 79.3123 29.2494C79.5752 29.1829 79.8505 29.1829 80.1134 29.2494C81.8411 29.6281 83.1709 31.0369 84.0293 32.5847C84.8877 34.1325 85.3754 35.8547 86.1139 37.4543C87.6535 40.8088 90.245 43.5883 91.6975 46.9646Z" fill="#F99595"/>
</svg>
