<svg width="93" height="95" viewBox="0 0 93 95" fill="none" xmlns="http://www.w3.org/2000/svg">
<path d="M45.2636 0.117364C38.481 -0.313186 31.4669 0.970288 25.8071 3.43369C3.42391 13.1728 -4.75108 41.7036 3.44571 63.5717C9.21726 78.9652 22.1419 89.9797 38.1023 93.5304C60.9923 98.6234 93.4606 84.2109 92.2344 57.0154C91.7602 46.5459 83.8468 38.2537 78.2197 30.0787C72.7506 22.1354 69.8621 12.2899 62.1259 6.06059C57.5206 2.35731 51.4902 0.512489 45.2636 0.117364Z" fill="#FF7976"/>
<path d="M31.6523 80.2542C39.92 83.9847 49.4711 85.2355 58.2647 83.1318C67.2572 80.9845 77.138 75.1203 78.585 65.1904C79.3507 59.9284 77.574 54.2904 73.7345 50.5708C69.0257 46.0146 61.5946 47.0065 57.5862 51.9333C55.8204 54.1133 55.2536 57.0045 53.4115 59.051C52.4386 60.141 50.5039 60.7268 49.651 59.5496C49.0896 58.7785 49.3539 57.6885 49.7654 56.8246C51.9618 52.2085 56.9839 50.1484 60.5237 46.7803C66.8212 40.7853 68.0365 30.4684 64.1289 22.6995C57.3164 9.15348 40.1489 6.48026 26.9027 11.0228C17.515 14.2411 10.7843 21.2062 8.07563 30.8254C3.17063 48.2409 10.9777 67.5502 26.1206 77.2458C27.8895 78.3807 29.7383 79.3861 31.6523 80.2542Z" fill="#4E5682"/>
<path opacity="0.17" d="M47.8224 20.9309C38.6446 17.8108 27.7038 21.0426 21.5834 28.5609C11.5881 40.8234 17.2234 60.9176 29.9873 68.94C40.5276 75.559 61.3003 75.0358 62.8617 59.2417C63.2105 55.6992 61.9297 51.6117 58.687 50.1375C61.2894 42.2568 61.6572 32.7738 56.2754 26.4572C54.0654 23.863 51.0461 22.04 47.8224 20.9309Z" fill="white"/>
<path d="M42.3481 41.3521C42.3481 41.3521 45.8906 46.9302 50.3433 40.9815C54.7959 35.0328 45.3238 26.6725 35.8326 30.1986C26.3415 33.7248 24.8618 45.8156 29.3253 53.8081C33.7889 61.8005 41.408 68.6811 50.703 65.1495C59.9979 61.6179 55.8805 54.9471 55.8805 54.9471C56.1775 58.4896 55.2782 63.1221 49.0979 62.4245C46.6236 62.152 45.3456 59.1545 46.9343 57.2252C47.007 57.1359 47.0843 57.0504 47.1659 56.9691C48.8391 55.2959 52.1854 51.2057 49.3977 48.0447C46.61 44.8837 41.9612 46.0009 39.1735 47.1155V44.5131C39.1735 44.5131 41.7922 43.3986 42.3481 41.3521Z" fill="#FFA192"/>
<path d="M46.9042 37.4036C46.9042 37.2656 46.8633 37.1307 46.7867 37.016C46.71 36.9013 46.6011 36.8119 46.4736 36.7591C46.3461 36.7063 46.2059 36.6924 46.0705 36.7194C45.9352 36.7463 45.8109 36.8127 45.7133 36.9103C45.6158 37.0078 45.5494 37.1321 45.5224 37.2675C45.4955 37.4028 45.5093 37.543 45.5621 37.6705C45.6149 37.798 45.7043 37.9069 45.8191 37.9836C45.9338 38.0602 46.0687 38.1012 46.2066 38.1012C46.3916 38.1012 46.5691 38.0277 46.6999 37.8968C46.8307 37.766 46.9042 37.5886 46.9042 37.4036Z" fill="#333333"/>
<path fill-rule="evenodd" clip-rule="evenodd" d="M38.5707 35.8537C38.6817 35.8204 38.7987 35.8834 38.832 35.9944C39.238 37.3472 40.1454 38.6453 40.9635 39.6133C41.3708 40.0954 41.7525 40.4915 42.0321 40.7669C42.1718 40.9045 42.2859 41.0118 42.3647 41.0845C42.4041 41.1208 42.4347 41.1484 42.4553 41.1669C42.4656 41.1761 42.4734 41.183 42.4785 41.1875L42.4842 41.1925L42.4858 41.1939M38.5707 35.8537C38.4597 35.887 38.3967 36.004 38.4301 36.115L38.5707 35.8537ZM42.3479 41.3521C42.2101 41.5103 42.21 41.5102 42.21 41.5102L42.2075 41.508L42.2008 41.5021C42.195 41.497 42.1865 41.4894 42.1755 41.4796C42.1534 41.4599 42.1213 41.4309 42.0804 41.3931C41.9984 41.3176 41.8809 41.2071 41.7376 41.0659C41.451 40.7836 41.0602 40.378 40.6429 39.8842C39.8116 38.9004 38.8606 37.5498 38.4301 36.115M42.3479 41.3521L42.21 41.5102C42.2974 41.5863 42.43 41.5773 42.5061 41.4899C42.5823 41.4026 42.5731 41.27 42.4858 41.1939" fill="#CE5959"/>
<path fill-rule="evenodd" clip-rule="evenodd" d="M34.3266 41.5545C34.4209 41.4873 34.552 41.5092 34.6192 41.6036C34.8276 41.8959 35.2128 42.2153 35.6957 42.5342C36.174 42.8501 36.7296 43.1537 37.2603 43.419C37.7905 43.6839 38.2925 43.9088 38.6621 44.0675C38.8468 44.1468 38.9982 44.2095 39.1033 44.2523C39.1558 44.2737 39.1967 44.2901 39.2244 44.3011L39.2558 44.3135L39.2637 44.3166L39.266 44.3175L39.1899 44.5131C39.1136 44.7085 39.1136 44.7085 39.1135 44.7085L39.1105 44.7073L39.102 44.704L39.0692 44.691C39.0405 44.6796 38.9986 44.6627 38.945 44.6409C38.8378 44.5973 38.6839 44.5336 38.4965 44.4531C38.1219 44.2922 37.6122 44.0639 37.0728 43.7944C36.534 43.5251 35.9621 43.2131 35.4645 42.8844C34.9715 42.5588 34.5324 42.2048 34.2775 41.8472C34.2102 41.7528 34.2322 41.6218 34.3266 41.5545ZM39.3853 44.5893C39.3432 44.6973 39.2215 44.7506 39.1135 44.7085L39.1899 44.5131L39.266 44.3175C39.374 44.3596 39.4275 44.4813 39.3853 44.5893Z" fill="#CE5959"/>
<path fill-rule="evenodd" clip-rule="evenodd" d="M39.9062 53.3435C40.0213 53.3299 40.1256 53.412 40.1393 53.5271L39.931 53.5519C40.1393 53.5271 40.1393 53.527 40.1393 53.5271L40.1394 53.5276L40.1395 53.5285L40.1398 53.5312L40.1409 53.541C40.1417 53.5493 40.1429 53.5612 40.1444 53.5765C40.1472 53.607 40.1508 53.6512 40.1543 53.7071C40.1613 53.8189 40.1676 53.9781 40.1653 54.1701C40.1607 54.5533 40.1217 55.0725 39.9825 55.6098C39.7034 56.6866 39.0076 57.8689 37.3601 58.1193C35.7041 58.371 34.6594 57.3554 34.0479 56.3361C33.7412 55.8248 33.535 55.3009 33.4056 54.9067C33.3408 54.7091 33.2948 54.5429 33.265 54.4255C33.25 54.3668 33.2391 54.3202 33.2318 54.288C33.2282 54.2718 33.2255 54.2593 33.2236 54.2505L33.2215 54.2404L33.2209 54.2375L33.2207 54.2366L33.2207 54.2363C33.2206 54.2362 33.2206 54.2361 33.4264 54.195L33.2207 54.2363C33.1979 54.1227 33.2716 54.012 33.3852 53.9892C33.4988 53.9665 33.6093 54.0402 33.6321 54.1537C33.6321 54.1538 33.6321 54.1537 33.6321 54.1537M39.7226 53.5766C39.7226 53.5765 39.7226 53.5766 39.7226 53.5766L39.7228 53.5782L39.7235 53.5852C39.7242 53.5917 39.7253 53.6017 39.7265 53.615C39.7289 53.6417 39.7323 53.6817 39.7355 53.7332C39.7419 53.8361 39.7478 53.9848 39.7456 54.1651C39.7413 54.5267 39.7044 55.01 39.5763 55.5045C39.3205 56.4912 38.7152 57.4889 37.297 57.7044C35.8874 57.9187 34.9811 57.0759 34.4078 56.1202C34.1222 55.6441 33.9276 55.1514 33.8044 54.7758C33.7429 54.5886 33.6995 54.4316 33.6717 54.3221C33.6577 54.2673 33.6477 54.2245 33.6412 54.1957C33.638 54.1814 33.6356 54.1705 33.6341 54.1634L33.6325 54.1557L33.6321 54.1537M39.9062 53.3435C39.7911 53.3572 39.709 53.4615 39.7226 53.5766L39.9062 53.3435Z" fill="#CE5959"/>
<path d="M76.8493 34.575C77.6232 36.3054 79.0075 37.6842 79.9966 39.3001C80.9858 40.9161 81.5499 43.0579 80.5416 44.6684C79.5715 46.2325 77.4706 46.7149 75.6366 46.4696C73.8027 46.2244 72.1214 45.415 70.3365 44.9709C69.0463 44.6264 67.7009 44.5393 66.3771 44.7147C65.892 44.7883 65.159 44.6902 65.2299 44.2024C65.2499 44.105 65.2888 44.0124 65.3443 43.9299C66.7558 41.5157 67.6061 38.8148 67.8322 36.0274C67.9794 34.2044 67.8649 32.3214 68.4944 30.6074C69.1239 28.8934 70.8134 27.3647 72.6119 27.6998C74.0016 27.9587 74.9881 29.2285 75.5167 30.542C76.0454 31.8554 76.2743 33.2888 76.8493 34.575Z" fill="#F99595"/>
</svg>
