<svg width="127" height="135" viewBox="0 0 127 135" fill="none" xmlns="http://www.w3.org/2000/svg">
<path d="M4.14484 43.7193C6.32259 36.9006 9.50694 30.4456 13.5924 24.568C20.8872 14.1858 31.5447 6.00261 43.7772 2.63723C56.9581 -0.987017 71.6349 1.24748 83.1371 8.63223C93.8655 15.5183 101.324 26.1131 110.202 35.0293C114.562 39.3893 118.183 42.7874 121.121 48.3055C124.146 53.9871 125.753 60.3772 126.157 66.7837C126.702 75.6509 124.985 84.548 122.118 92.9437C110.011 128.461 70.2315 145.078 36.5342 127.824C20.9063 119.818 8.72011 105.61 3.44724 88.8344C-1.03539 74.55 -0.57759 58.3144 4.14484 43.7193Z" fill="#FF7976"/>
<path d="M116.238 90.1561C116.675 87.8411 116.948 85.4981 117.055 83.1447C117.587 71.7405 111.273 62.4347 103.098 55.0772C96.8741 49.4827 97.4273 41.2069 95.2963 33.7758C92.9038 25.421 87.7072 17.84 80.6004 12.7933C62.9533 0.28558 36.1829 4.91263 22.3644 20.8975C9.12094 36.2283 4.34674 57.9302 7.81566 77.6728C13.4782 109.882 47.4126 138.808 80.8457 129.197C98.8852 124.028 112.783 108.484 116.238 90.1561Z" fill="#4E5682"/>
<path opacity="0.17" d="M20.195 85.1339C26.5497 104.209 42.3493 119.243 63.5634 120.518C78.3166 121.409 93.5384 114.368 100.784 101.171C104.847 93.7912 106.068 84.8205 103.744 76.7191C102.185 71.2854 99.141 66.454 95.7021 62.0232C92.5792 57.9984 88.2955 54.603 87.3799 49.341C86.2572 42.8964 86.4071 36.9368 83.7393 30.6884C78.6327 18.7229 67.9725 10.8858 54.8189 10.6351C24.1817 10.052 14.6524 48.4391 17.53 73.1221C18.004 77.2068 18.8971 81.232 20.195 85.1339Z" fill="white"/>
<path d="M71.665 113.866C71.665 113.866 68.5231 116.665 69.5259 118.18C70.5287 119.695 73.4308 120.75 74.9459 122.21C76.461 123.671 78.9299 126.783 80.4531 127.077C80.4531 127.077 81.6085 128.186 81.9928 128.145C82.377 128.104 82.0173 126.51 82.0173 126.51C82.0173 126.51 82.8021 127.205 83.4452 127.14C84.0883 127.074 83.2899 125.663 83.2899 125.663C83.2899 125.663 84.8649 126.48 85.1074 126.314C85.35 126.148 84.3281 124.45 84.3281 124.45C84.3281 124.45 85.2301 124.995 85.8514 124.744C86.4727 124.494 85.5598 123.218 85.5598 123.218C85.5598 123.218 87.4509 123.927 88.1894 122.946C88.9279 121.965 86.6525 121.292 85.4644 119.927C84.2763 118.561 71.665 113.866 71.665 113.866Z" fill="#E88A80"/>
<path d="M68.3922 52.205C68.3922 52.205 72.1608 51.0278 76.0222 54.5104C79.8835 57.9929 86.3499 67.5577 85.1754 71.1819C84.001 74.8062 80.6547 77.4985 80.6547 77.4985L81.6765 83.4935C81.6765 83.4935 87.6715 81.3135 91.5492 86.0822C95.4269 90.851 84.0173 109.316 84.0173 109.316C84.0173 109.316 90.233 108.01 91.9007 107.836C92.9801 107.71 94.0426 107.468 95.0699 107.114C95.0699 107.114 99.6534 105.073 100.275 106.046C100.896 107.018 100.201 109.043 97.7649 109.294C97.7649 109.294 100.411 109.792 100.234 110.88C100.057 111.967 98.498 111.94 98.498 111.94C98.498 111.94 100.152 112.398 100.073 113.03C99.994 113.662 98.3808 114.035 98.3808 114.035C98.3808 114.035 99.9286 113.97 99.9749 114.403C100.021 114.836 98.3018 115.599 98.3018 115.599C98.3018 115.599 99.7269 115.741 99.8169 116.12C99.9068 116.499 98.8931 117.046 97.3017 116.728C97.3017 116.728 96.2117 117.036 94.8328 117.273C93.454 117.51 91.3394 118.273 90.432 118.908C89.5245 119.543 86.5379 121.167 84.8021 120.864C83.0663 120.562 81.0525 118.049 78.352 117.049C75.6516 116.049 64.8224 112.904 61.2799 110.166C58.6608 112.934 55.0649 114.57 51.2574 114.727C44.8018 115.019 37.7931 107.588 35.7112 102.62C33.6293 97.6526 33.6402 90.3877 33.6402 90.3877C33.6402 90.3877 29.302 83.7115 28.7952 77.6701C28.2883 71.6288 29.5364 61.3801 34.297 58.5406C39.0575 55.7012 42.0932 54.9981 42.0932 54.9981L68.3922 52.205Z" fill="#FFA192"/>
<path fill-rule="evenodd" clip-rule="evenodd" d="M63.1525 91.8773C60.6678 90.0303 58.3431 88.9115 56.3325 89.0926C52.2507 89.4602 48.8073 92.9058 46.23 96.5626C44.2429 99.3819 42.8036 102.275 41.9932 103.904C41.7537 104.385 41.5692 104.756 41.4416 104.982C41.3891 105.076 41.2711 105.108 41.178 105.056C41.085 105.003 41.0521 104.885 41.1046 104.792C41.2231 104.582 41.3994 104.228 41.6306 103.763C42.4352 102.145 43.9043 99.1906 45.9137 96.3397C48.4975 92.6738 52.0301 89.0916 56.2977 88.7072C58.4618 88.5122 60.8888 89.7124 63.3833 91.5667C65.8862 93.4272 68.4989 95.9789 71.0408 98.5552C71.5594 99.0808 72.0749 99.6074 72.5861 100.129C74.5852 102.171 76.5172 104.144 78.3002 105.724C79.419 106.716 80.4731 107.547 81.4422 108.141C82.4141 108.736 83.2838 109.082 84.0366 109.125C84.1433 109.131 84.2248 109.222 84.2188 109.329C84.2128 109.436 84.1214 109.517 84.0147 109.511C83.1686 109.463 82.2341 109.08 81.2401 108.471C80.2434 107.86 79.1701 107.012 78.0435 106.014C76.2492 104.424 74.3045 102.438 72.3043 100.395C71.7944 99.874 71.2809 99.3495 70.7653 98.827C68.2227 96.25 65.6288 93.718 63.1525 91.8773Z" fill="#CE5959"/>
<path fill-rule="evenodd" clip-rule="evenodd" d="M83.3743 88.6158C83.4672 88.5632 83.4998 88.4452 83.4472 88.3522L83.3743 88.6158ZM83.4472 88.3522C83.3946 88.2592 83.2765 88.2265 83.1836 88.2791L83.4472 88.3522ZM83.1836 88.2791L83.2789 88.4475L83.1836 88.2791ZM83.2789 88.4475C83.1836 88.2791 83.1834 88.2792 83.1833 88.2793L83.1829 88.2795L83.1816 88.2803L83.1771 88.2829C83.1732 88.2851 83.1677 88.2883 83.1606 88.2924C83.1464 88.3008 83.1258 88.3131 83.0991 88.3295C83.0458 88.3622 82.9683 88.4111 82.8698 88.4767C82.6728 88.608 82.3918 88.8066 82.0522 89.0775C81.3729 89.6193 80.4585 90.4511 79.5124 91.6141C77.619 93.9415 75.6008 97.5927 75.083 102.893C75.0726 102.999 75.1504 103.094 75.2567 103.104C75.3631 103.115 75.4577 103.037 75.4681 102.931C75.9776 97.7151 77.961 94.1342 79.8125 91.8583C80.7388 90.7198 81.6326 89.9072 82.2935 89.38C82.6238 89.1165 82.8959 88.9244 83.0844 88.7987C83.1787 88.7358 83.2521 88.6896 83.3014 88.6593C83.3261 88.6442 83.3447 88.6331 83.357 88.6259L83.3705 88.618L83.3736 88.6162L83.3742 88.6159L83.3742 88.6159L83.3742 88.6158" fill="#CE5959"/>
<path fill-rule="evenodd" clip-rule="evenodd" d="M33.4944 90.2673C33.5609 90.1837 33.6826 90.1697 33.7662 90.2362L33.6459 90.3877L33.5255 90.5392C33.4419 90.4727 33.4279 90.351 33.4944 90.2673ZM33.6459 90.3877C33.5255 90.5392 33.5254 90.5391 33.5255 90.5392L33.5274 90.5407L33.5323 90.5445L33.5511 90.5592C33.5675 90.572 33.5918 90.5908 33.6236 90.615C33.6871 90.6634 33.7807 90.7337 33.9018 90.8217C34.144 90.9976 34.4964 91.2447 34.9386 91.5303C35.8225 92.1012 37.0677 92.8276 38.5113 93.4479C41.3884 94.684 45.1051 95.5201 48.314 93.7843C48.4079 93.7335 48.4429 93.6161 48.3921 93.5221C48.3412 93.4281 48.2238 93.3931 48.1299 93.444C45.0821 95.0926 41.5108 94.3155 38.664 93.0923C37.2457 92.4829 36.02 91.7681 35.1485 91.2052C34.713 90.924 34.3665 90.681 34.1293 90.5086C34.0107 90.4225 33.9195 90.354 33.8581 90.3072C33.8274 90.2838 33.8042 90.2659 33.7888 90.2539L33.7716 90.2404L33.7674 90.2371L33.7662 90.2362L33.6459 90.3877Z" fill="#CE5959"/>
<path fill-rule="evenodd" clip-rule="evenodd" d="M59.5627 61.3144C59.6343 61.2662 59.7488 61.2161 59.874 61.2655C59.9761 61.3058 60.0355 61.3888 60.0691 61.4657C60.1024 61.542 60.119 61.6305 60.1269 61.7197C60.1427 61.8991 60.1272 62.1284 60.0936 62.3811C60.026 62.8898 59.8785 63.5386 59.714 64.1727C59.6286 64.5022 59.538 64.8294 59.4508 65.1334C59.6922 64.7397 59.9701 64.2988 60.2608 63.8617C60.6974 63.2052 61.1668 62.5511 61.5874 62.0777C61.7968 61.8418 62.0012 61.6428 62.1889 61.5111C62.3637 61.3885 62.5809 61.2837 62.7893 61.3513C63.0167 61.4251 63.0927 61.6451 63.1118 61.8383C63.1316 62.0394 63.1012 62.2911 63.0438 62.563C62.9281 63.1111 62.6884 63.8048 62.4244 64.4794C62.1976 65.059 61.9501 65.6312 61.7414 66.0957C61.977 65.8606 62.2478 65.5982 62.5302 65.3398C62.9537 64.9523 63.4087 64.5687 63.8131 64.3001C64.0148 64.1661 64.211 64.0559 64.3895 63.9893C64.561 63.9253 64.752 63.8879 64.9205 63.9512C65.0404 63.9963 65.109 64.0928 65.1382 64.1978C65.1651 64.2942 65.161 64.4021 65.1451 64.5058C65.1128 64.7153 65.0197 64.9801 64.8934 65.2706C64.6389 65.8563 64.2251 66.6015 63.7903 67.3298C63.3544 68.0599 62.8935 68.7797 62.5418 69.3165C62.5023 69.377 62.4641 69.4351 62.4274 69.4907C62.6699 69.352 62.9534 69.1961 63.2489 69.0466C63.6625 68.8373 64.106 68.6371 64.4962 68.5152C64.6911 68.4543 64.8795 68.4106 65.0483 68.3972C65.2132 68.3841 65.3835 68.3977 65.5227 68.4765C65.6508 68.549 65.6874 68.6778 65.6836 68.7873C65.68 68.8887 65.6435 68.9979 65.5963 69.1027C65.5001 69.3163 65.3256 69.5847 65.1063 69.8814C64.6652 70.4784 64.0119 71.231 63.3409 71.9657C62.6687 72.7016 61.9743 73.4242 61.4483 73.9626C61.1852 74.2318 60.964 74.4552 60.8086 74.6112C60.7309 74.6893 60.6696 74.7505 60.6277 74.7923L60.5936 74.8262C58.3299 80.9284 56.8606 84.4817 55.9559 86.5115C55.5026 87.5287 55.1906 88.1641 54.9912 88.5467C54.8914 88.738 54.8196 88.8663 54.7722 88.9477C54.7484 88.9885 54.7308 89.0175 54.7187 89.0369C54.7126 89.0466 54.708 89.0539 54.7046 89.059L54.7006 89.0651L54.6994 89.067L54.6989 89.0677L54.6988 89.0679C54.6987 89.0681 54.6986 89.0682 54.5383 88.9598L54.6988 89.0679C54.6389 89.1565 54.5185 89.18 54.43 89.1201C54.3415 89.0604 54.3182 88.9403 54.3778 88.8518C54.3779 88.8517 54.3779 88.8516 54.378 88.8515M60.427 74.719C60.2909 74.5815 60.2909 74.5814 60.291 74.5814L60.3071 74.5654L60.3545 74.5182C60.3961 74.4768 60.4571 74.4159 60.5344 74.3382C60.6891 74.1829 60.9094 73.9604 61.1715 73.6921C61.6959 73.1555 62.387 72.4362 63.0552 71.7047C63.7244 70.972 64.3664 70.2316 64.7951 69.6514C65.0109 69.3595 65.1649 69.1182 65.2435 68.9438C65.2741 68.8758 65.2886 68.8279 65.2941 68.7973C65.2483 68.7829 65.1789 68.775 65.079 68.7829C64.9499 68.7932 64.7919 68.8281 64.6116 68.8845C64.2515 68.9971 63.83 69.1862 63.4237 69.3918C63.0187 69.5968 62.6352 69.8147 62.3525 69.9818C62.2113 70.0652 62.0956 70.1358 62.0153 70.1854C61.9752 70.2102 61.9439 70.2297 61.9227 70.243L61.8988 70.2582L61.8913 70.2629L61.891 70.2631C61.8135 70.3126 61.7118 70.3007 61.6478 70.2347C61.5838 70.1686 61.5752 70.0666 61.6272 69.9908L61.7868 70.1001C61.6272 69.9908 61.6271 69.9908 61.6272 69.9908L61.6278 69.9898L61.638 69.9748L61.6701 69.9277C61.6981 69.8864 61.7392 69.8257 61.7912 69.7483C61.8953 69.5934 62.0432 69.3716 62.2181 69.1045C62.5682 68.5701 63.0259 67.8552 63.458 67.1315C63.8911 66.406 64.2944 65.6783 64.5386 65.1164C64.6617 64.8331 64.7382 64.6055 64.7626 64.4469C64.7737 64.3751 64.7717 64.3314 64.7671 64.3087C64.7263 64.3007 64.6501 64.305 64.5248 64.3518C64.3857 64.4037 64.2174 64.4961 64.0272 64.6224C63.6478 64.8745 63.21 65.2423 62.7915 65.6253C62.3741 66.0071 61.9813 66.3991 61.6925 66.696C61.5482 66.8443 61.4301 66.9686 61.3481 67.0558C61.3072 67.0994 61.2753 67.1337 61.2537 67.157L61.2291 67.1835L61.2229 67.1902L61.2211 67.1923L61.0783 67.0617C60.9045 66.9767 60.9045 66.9767 60.9045 66.9767L60.9049 66.9758L60.9116 66.9621L60.9326 66.9188C60.9509 66.8807 60.9778 66.8248 61.0117 66.7533C61.0795 66.6104 61.1755 66.4058 61.2879 66.1593C61.5128 65.666 61.8027 65.0063 62.0641 64.3384C62.3264 63.6682 62.5563 62.9987 62.6651 62.4831C62.72 62.2231 62.7406 62.0177 62.7267 61.8763C62.7198 61.8061 62.7054 61.7643 62.6926 61.7419C62.6823 61.7237 62.6752 61.7211 62.67 61.7194C62.6516 61.7135 62.5757 61.7125 62.4112 61.8279C62.2597 61.9342 62.0786 62.1073 61.8767 62.3346C61.4743 62.7875 61.0168 63.4237 60.583 64.0759C60.1503 64.7267 59.7452 65.3873 59.4482 65.8857C59.2997 66.1348 59.1784 66.3431 59.0942 66.489C59.0521 66.5619 59.0193 66.6193 58.9971 66.6583L58.9719 66.7028L58.9655 66.7141L58.9639 66.7169L58.9635 66.7176C58.9635 66.7177 58.9634 66.7178 58.7948 66.623C58.6109 66.5628 58.6109 66.5628 58.6109 66.5628L58.6111 66.562L58.6154 66.549L58.6286 66.5081C58.6402 66.4721 58.6572 66.4192 58.6786 66.3518C58.7214 66.2169 58.7819 66.0239 58.8526 65.7914C58.9942 65.3262 59.1764 64.7042 59.3395 64.0756C59.503 63.4452 59.6456 62.8147 59.71 62.3301C59.7425 62.0862 59.7535 61.8904 59.7414 61.7538C59.7387 61.7228 59.7349 61.6973 59.7307 61.6765C59.7099 61.6972 59.685 61.7249 59.6563 61.7611C59.5468 61.8989 59.4136 62.1165 59.2624 62.3976C58.9615 62.9572 58.6089 63.7305 58.2544 64.5236C58.1908 64.6658 58.1272 64.8086 58.0639 64.9508C57.7754 65.5984 57.4923 66.2338 57.2451 66.742C57.0945 67.0516 56.9545 67.3197 56.8324 67.5171C56.7716 67.6154 56.712 67.7015 56.6546 67.7678C56.6045 67.8258 56.5299 67.9006 56.4343 67.9268C56.3317 67.9549 56.2388 67.9247 56.1702 67.8833C56.1037 67.8431 56.0457 67.7846 55.9955 67.7234C55.8945 67.6002 55.7925 67.4245 55.6914 67.2256C55.5163 66.881 55.3257 66.4292 55.1325 65.9714C55.1014 65.8977 55.0702 65.8238 55.039 65.7501C54.8115 65.2131 54.5832 64.6896 54.3664 64.3118C54.2573 64.1218 54.1581 63.9811 54.0714 63.8952C54.0284 63.8526 53.9954 63.8305 53.9731 63.8204C53.9688 63.8184 53.9651 63.8171 53.9621 63.8161C53.9595 63.82 53.9564 63.8251 53.9528 63.8316C53.9312 63.8711 53.9074 63.9379 53.8861 64.0383C53.8439 64.2375 53.82 64.5242 53.813 64.8785C53.7991 65.584 53.8522 66.5187 53.9343 67.4688C54.0163 68.4175 54.1266 69.3758 54.2255 70.1261C54.275 70.5013 54.3215 70.8237 54.3602 71.0664C54.4 71.3166 54.4291 71.466 54.4423 71.5085C54.4618 71.5709 54.4487 71.6258 54.4394 71.6544C54.429 71.6862 54.4138 71.7144 54.3999 71.7369C54.3719 71.7824 54.3324 71.8317 54.2879 71.8818C54.1976 71.9835 54.0645 72.1138 53.898 72.2672C53.5638 72.575 53.0779 72.9915 52.4876 73.4877C52.0748 73.8347 51.6106 74.221 51.1096 74.638C50.1737 75.4169 49.1095 76.3026 48.0128 77.2379C46.3299 78.6732 44.5769 80.22 43.1087 81.6639C41.6355 83.1128 40.4665 84.4417 39.9342 85.4428C39.884 85.5371 39.7668 85.5729 39.6725 85.5228C39.5782 85.4726 39.5423 85.3554 39.5925 85.2611C40.1557 84.202 41.3645 82.8366 42.8374 81.388C44.3153 79.9345 46.0765 78.3808 47.7617 76.9435C48.8598 76.007 49.9283 75.1177 50.8655 74.3378C51.3658 73.9214 51.8286 73.5362 52.2386 73.1915C52.829 72.6952 53.3088 72.2838 53.6358 71.9825C53.8 71.8313 53.9215 71.7117 53.9985 71.6249C54.0242 71.5959 54.0427 71.5731 54.0553 71.556C54.0339 71.4624 54.0074 71.312 53.978 71.1273C53.9387 70.8802 53.8917 70.5542 53.8419 70.1767C53.7423 69.4217 53.6314 68.4575 53.5488 67.5021C53.4664 66.5481 53.4118 65.5971 53.4262 64.8708C53.4333 64.5091 53.4577 64.1934 53.5076 63.958C53.5324 63.8412 53.5658 63.7327 53.6135 63.6457C53.6596 63.5614 53.7369 63.4662 53.8622 63.437C54.059 63.3912 54.2266 63.5043 54.3437 63.6203C54.4677 63.7431 54.5874 63.9196 54.702 64.1192C54.9323 64.5206 55.1694 65.0659 55.3953 65.5992C55.427 65.6741 55.4585 65.7487 55.4898 65.8228C55.6837 66.2822 55.868 66.7191 56.0364 67.0502C56.1346 67.2436 56.2214 67.3885 56.2948 67.4781C56.3153 67.5032 56.3323 67.5208 56.3456 67.5328C56.3504 67.5278 56.3558 67.5218 56.3619 67.5147C56.4 67.4707 56.4473 67.404 56.5033 67.3135C56.6149 67.1332 56.748 66.8793 56.8972 66.5728C57.1412 66.071 57.4208 65.4434 57.7092 64.7959C57.7729 64.6531 57.8369 64.5093 57.9011 64.3657C58.2547 63.5746 58.6129 62.7884 58.9216 62.2144C59.0752 61.9287 59.2216 61.6861 59.3534 61.5203C59.4184 61.4385 59.4885 61.3643 59.5627 61.3144M58.7948 66.623L58.6109 66.5628C58.5799 66.6573 58.6258 66.76 58.7169 66.8001C58.808 66.8401 58.9147 66.8044 58.9635 66.7176L58.7948 66.623ZM61.0783 67.0617L60.9045 66.9767C60.8623 67.0631 60.8899 67.1674 60.9694 67.2216C61.0488 67.2757 61.1561 67.2632 61.2211 67.1923L61.0783 67.0617ZM54.378 88.8515L54.38 88.8485C54.382 88.8453 54.3855 88.8399 54.3904 88.8321C54.4002 88.8163 54.4159 88.7906 54.4378 88.7529C54.4818 88.6775 54.5506 88.5546 54.6481 88.3677C54.843 87.994 55.1515 87.3659 55.6025 86.354C56.5046 84.3299 57.9752 80.7739 60.2456 74.6517C60.2554 74.6253 60.2709 74.6012 60.291 74.5814L60.427 74.719" fill="#CE5959"/>
<path fill-rule="evenodd" clip-rule="evenodd" d="M39.5206 71.1866C39.6264 71.1715 39.7244 71.245 39.7395 71.3507L39.548 71.3781L39.3565 71.4055C39.3414 71.2997 39.4149 71.2017 39.5206 71.1866ZM39.548 71.3781C39.3565 71.4055 39.3564 71.4054 39.3565 71.4055L39.3573 71.4115L39.3598 71.4287C39.3621 71.4439 39.3654 71.4664 39.3698 71.4957C39.3786 71.5542 39.3917 71.6403 39.4092 71.7504C39.4441 71.9707 39.4963 72.2877 39.5655 72.6748C39.7037 73.4489 39.9099 74.5047 40.1815 75.6308C40.453 76.7563 40.7907 77.9557 41.1927 79.0157C41.5927 80.0704 42.064 81.0082 42.6114 81.5928C42.6844 81.6708 42.8068 81.6748 42.8848 81.6018C42.9628 81.5287 42.9668 81.4063 42.8938 81.3283C42.4002 80.8011 41.9505 79.9227 41.5545 78.8785C41.1604 77.8395 40.8271 76.6573 40.5577 75.5401C40.2884 74.4236 40.0837 73.3757 39.9464 72.6068C39.8778 72.2224 39.826 71.908 39.7914 71.6898C39.7741 71.5808 39.7611 71.4958 39.7524 71.4382C39.7481 71.4093 39.7449 71.3874 39.7427 71.3727L39.7403 71.3561L39.7396 71.351C39.7396 71.351 39.7395 71.3507 39.548 71.3781Z" fill="#CE5959"/>
<path fill-rule="evenodd" clip-rule="evenodd" d="M80.5592 77.346C80.6495 77.2887 80.769 77.3155 80.8262 77.4057C80.8835 77.4959 80.8568 77.6155 80.7666 77.6727L80.6629 77.5094C80.7666 77.6727 80.7666 77.6727 80.7666 77.6727L80.7663 77.6729L80.7633 77.6747L80.7546 77.6802C80.7469 77.685 80.7355 77.6922 80.7203 77.7016C80.6899 77.7204 80.6443 77.7484 80.5828 77.7856C80.4598 77.8598 80.2736 77.9705 80.0189 78.1172C79.5096 78.4106 78.7268 78.8477 77.6304 79.4242C75.4395 80.5765 71.9963 82.2858 66.981 84.5179L59.1357 89.329C59.0446 89.3849 58.9255 89.3563 58.8696 89.2652C58.8138 89.1742 58.8423 89.055 58.9334 88.9992L66.7896 84.1814C66.7968 84.177 66.8043 84.173 66.8121 84.1696C71.8267 81.938 75.2659 80.2306 77.4503 79.0818C78.5425 78.5074 79.321 78.0726 79.8258 77.7819C80.0782 77.6365 80.2621 77.5272 80.3827 77.4543C80.443 77.4179 80.4874 77.3906 80.5166 77.3726C80.5313 77.3635 80.5421 77.3568 80.5491 77.3524L80.5569 77.3474L80.5588 77.3463L80.5592 77.346Z" fill="#CE5959"/>
<path fill-rule="evenodd" clip-rule="evenodd" d="M73.9586 63.2737C74.0596 63.2387 74.1698 63.2922 74.2048 63.3932L76.0251 68.647C76.0565 68.7375 76.0168 68.8374 75.9319 68.8818C75.0797 69.3274 73.9508 70.2187 72.7213 71.3182C71.4955 72.4144 70.1826 73.7057 68.9645 74.9403C68.1732 75.7423 67.4242 76.5181 66.7649 77.2009C66.4086 77.5699 66.0786 77.9117 65.7823 78.2158C65.3613 78.6479 65.0079 79.0043 64.7467 79.2515C64.6166 79.3746 64.5059 79.4739 64.4194 79.5424C64.3767 79.5763 64.335 79.6066 64.2969 79.6288C64.2779 79.6398 64.255 79.6517 64.2299 79.6607C64.2082 79.6684 64.1652 79.6812 64.1134 79.6737C64.0271 79.6612 63.6556 79.6411 63.1264 79.6182C62.6049 79.5956 61.9461 79.5709 61.2993 79.5479C60.6525 79.5249 60.018 79.5037 59.5452 79.4882C59.3088 79.4805 59.1128 79.4742 58.976 79.4699L58.7623 79.4631L58.7616 79.4631C58.7616 79.4631 58.7614 79.4631 58.7675 79.2697C58.7735 79.0763 58.7735 79.0763 58.7735 79.0763L58.9883 79.0831C59.1253 79.0875 59.3213 79.0938 59.5578 79.1015C60.0309 79.1169 60.6657 79.1382 61.313 79.1612C61.9602 79.1842 62.6201 79.209 63.1432 79.2316C63.5974 79.2513 63.9612 79.2697 64.1174 79.2848C64.1322 79.275 64.1525 79.2602 64.179 79.2392C64.252 79.1814 64.3529 79.0914 64.4808 78.9704C64.7357 78.7292 65.0842 78.3779 65.5051 77.9458C65.7991 77.6441 66.128 77.3034 66.4838 76.935C67.1441 76.2511 67.8967 75.4717 68.689 74.6686C69.9091 73.4319 71.2286 72.134 72.4633 71.0298C73.6282 69.9881 74.7293 69.1081 75.6057 68.6184L73.8392 63.5199C73.8042 63.4189 73.8577 63.3087 73.9586 63.2737ZM58.5741 79.2637C58.5774 79.1569 58.6667 79.073 58.7735 79.0763L58.7675 79.2697L58.7616 79.4631C58.6548 79.4598 58.5707 79.3705 58.5741 79.2637Z" fill="#CE5959"/>
<path fill-rule="evenodd" clip-rule="evenodd" d="M56.0992 104.178C56.1929 104.127 56.3105 104.161 56.3619 104.255C57.2734 105.915 58.5313 107.355 59.5653 108.382C60.0816 108.894 60.5405 109.303 60.87 109.582C61.0347 109.722 61.167 109.83 61.2578 109.903C61.3032 109.939 61.3382 109.966 61.3617 109.985C61.3735 109.994 61.3824 110.001 61.3882 110.005L61.3948 110.01L61.3966 110.011C61.3966 110.011 61.3966 110.011 61.3966 110.011M56.0992 104.178C56.0055 104.23 55.9713 104.347 56.0227 104.441L56.0992 104.178ZM56.0227 104.441C56.9588 106.146 58.2446 107.615 59.2926 108.656L56.0227 104.441ZM59.2926 108.656C59.8172 109.177 60.2838 109.592 60.6195 109.877L59.2926 108.656ZM60.6195 109.877C60.7874 110.02 60.9227 110.13 61.0163 110.205L60.6195 109.877ZM61.0163 110.205C61.0631 110.242 61.0995 110.271 61.1244 110.29L61.0163 110.205ZM61.1244 110.29C61.1368 110.3 61.1463 110.307 61.1528 110.312L61.1244 110.29ZM61.1528 110.312L61.1603 110.318L61.1528 110.312ZM61.1603 110.318L61.1623 110.319L61.1603 110.318ZM61.1623 110.319L61.1628 110.32L61.1623 110.319ZM61.1628 110.32C61.1629 110.32 61.1631 110.32 61.2799 110.166L61.1628 110.32Z" fill="#CE5959"/>
<path d="M68.5232 52.205L42.2269 54.9817C41.5416 55.1644 40.8681 55.3892 40.2104 55.6548C42.4722 57.2544 51.3829 63.0314 59.5852 60.9304C65.7382 59.3554 69.7931 55.0444 71.8831 52.2104C70.7798 51.9392 69.6274 51.9374 68.5232 52.205Z" fill="#E88A80"/>
<path d="M70.2724 40.0188C70.2724 40.0188 72.4089 38.1385 73.4089 38.4219C74.409 38.7054 73.7305 44.2262 72.2235 44.6759C70.7166 45.1255 70.0708 43.6403 70.0708 43.6403L70.2724 40.0188Z" fill="#E88A80"/>
<path d="M60.855 58.2C66.1932 56.8184 71.3244 50.8043 71.3026 48.7633C71.2808 46.7223 70.5778 40.9616 71.0301 38.8688C71.4825 36.776 74.8751 11.7115 58.3861 8.49325C41.8971 5.27503 25.5172 14.9815 27.3511 29.5875C29.185 44.1935 40.0142 56.4587 45.9683 57.5814C51.9224 58.7041 56.6258 59.29 60.855 58.2Z" fill="#FFA192"/>
<path d="M33.5476 44.9701C33.5476 44.9701 30.1658 42.4086 29.2393 45.6187C28.3128 48.8288 34.6566 53.6084 35.6921 49.6081L33.5476 44.9701Z" fill="#FFA192"/>
<path fill-rule="evenodd" clip-rule="evenodd" d="M67.8386 40.5413C68.0255 40.6448 68.0932 40.8803 67.9897 41.0673L67.6512 40.8799C67.9897 41.0673 67.9896 41.0675 67.9895 41.0677L67.9892 41.0682L67.9885 41.0695L67.9866 41.0728L67.9809 41.0828C67.9762 41.0909 67.9697 41.1018 67.9615 41.1153C67.9451 41.1423 67.9215 41.1796 67.8908 41.225C67.8295 41.3158 67.739 41.4398 67.6186 41.5792C67.3788 41.8569 67.0137 42.2037 66.5164 42.4676C66.0156 42.7334 65.385 42.9125 64.628 42.8544C63.8731 42.7965 63.0165 42.5047 62.0577 41.8669C61.8798 41.7486 61.8315 41.5084 61.9498 41.3305C62.0682 41.1525 62.3084 41.1042 62.4863 41.2226C63.3587 41.8028 64.0901 42.037 64.6872 42.0828C65.2821 42.1284 65.7674 41.989 66.1536 41.7841C66.5433 41.5772 66.8362 41.3011 67.0328 41.0734C67.1306 40.9603 67.2028 40.861 67.2497 40.7917C67.273 40.7571 67.29 40.7301 67.3005 40.7129C67.3057 40.7042 67.3094 40.698 67.3114 40.6946L67.313 40.6918L67.3128 40.6921C67.313 40.6919 67.3131 40.6916 67.3132 40.6914C67.417 40.5052 67.652 40.438 67.8386 40.5413Z" fill="#333333"/>
<path fill-rule="evenodd" clip-rule="evenodd" d="M50.3608 42.3227C50.5331 42.4491 50.5704 42.6912 50.4441 42.8636L50.132 42.6348C50.4441 42.8636 50.444 42.8638 50.4438 42.864L50.4435 42.8644L50.4426 42.8656L50.4402 42.8688L50.4325 42.879C50.4261 42.8874 50.4172 42.899 50.4058 42.9134C50.383 42.9423 50.3501 42.9826 50.3075 43.032C50.2224 43.1307 50.0978 43.2663 49.9356 43.4195C49.6122 43.7249 49.1335 44.1056 48.5147 44.4007C47.256 45.0011 45.4592 45.2242 43.3054 43.8552C43.125 43.7405 43.0718 43.5014 43.1864 43.3211C43.3011 43.1407 43.5402 43.0874 43.7205 43.2021C45.6352 44.4191 47.1479 44.1953 48.1816 43.7022C48.709 43.4507 49.1223 43.1231 49.4042 42.8568C49.5447 42.7241 49.6512 42.6081 49.7214 42.5266C49.7565 42.4859 49.7824 42.454 49.799 42.4331C49.8072 42.4227 49.8131 42.415 49.8166 42.4104L49.8199 42.4061" fill="#333333"/>
<path fill-rule="evenodd" clip-rule="evenodd" d="M59.2369 44.3415C59.3132 44.2667 59.4357 44.2679 59.5105 44.3442L59.3724 44.4796C59.5105 44.3442 59.5106 44.3442 59.5107 44.3443L59.5109 44.3445L59.5114 44.3451L59.5132 44.3469L59.5194 44.3534C59.5247 44.3589 59.5321 44.3668 59.5415 44.3769C59.5603 44.3972 59.5868 44.4264 59.6189 44.4635C59.6829 44.5375 59.7696 44.6433 59.8611 44.7714C60.0415 45.024 60.2519 45.379 60.3315 45.7565C60.4133 46.1438 60.3581 46.5689 59.986 46.91C59.6291 47.2371 59.0073 47.4604 58.0254 47.5392C57.9189 47.5477 57.8256 47.4683 57.817 47.3618C57.8085 47.2553 57.8879 47.162 57.9944 47.1535C58.9472 47.077 59.4632 46.8643 59.7245 46.6247C59.9706 46.3992 60.0143 46.1271 59.9529 45.8364C59.8895 45.5361 59.715 45.2327 59.5462 44.9963C59.4631 44.8799 59.3842 44.7836 59.3263 44.7167C59.2973 44.6832 59.2738 44.6573 59.2577 44.6399C59.2497 44.6313 59.2435 44.6248 59.2395 44.6206L59.2352 44.616L59.2343 44.6151L59.2343 44.6151C59.2343 44.6151 59.2342 44.6151 59.2342 44.615M59.2369 44.3415C59.1607 44.4163 59.1595 44.5387 59.2342 44.615L59.2369 44.3415Z" fill="#CE5959"/>
<path fill-rule="evenodd" clip-rule="evenodd" d="M62.1103 51.1187C62.173 51.323 62.0582 51.5394 61.8539 51.6021L61.7404 51.2322C61.8539 51.6021 61.854 51.6021 61.8539 51.6021L61.8528 51.6024L61.8504 51.6032L61.842 51.6057C61.8348 51.6079 61.8244 51.611 61.811 51.6149C61.784 51.6229 61.7448 51.6342 61.6943 51.6484C61.5933 51.6768 61.4471 51.7165 61.264 51.7624C60.8981 51.8541 60.3832 51.971 59.7857 52.0722C58.5997 52.2729 57.0514 52.4182 55.6915 52.1572C55.4816 52.1169 55.3442 51.9141 55.3845 51.7042C55.4247 51.4943 55.6275 51.3569 55.8374 51.3972C57.0608 51.632 58.5004 51.5049 59.6566 51.3091C60.2302 51.2121 60.7249 51.0997 61.0758 51.0118C61.2512 50.9678 61.3902 50.9301 61.4848 50.9035C61.5322 50.8902 61.5683 50.8797 61.5923 50.8726C61.6044 50.8691 61.6133 50.8664 61.6191 50.8646L61.6254 50.8627L61.6268 50.8623C61.831 50.7997 62.0476 50.9144 62.1103 51.1187Z" fill="#333333"/>
<path d="M61.7052 85.9351C61.5635 86.1286 61.4681 86.3521 61.4265 86.5884C61.3849 86.8246 61.3982 87.0673 61.4654 87.2976C63.3947 87.2622 65.2423 87.9952 67.1253 88.4148C69.0082 88.8345 71.161 88.8808 72.6652 87.6709C73.5181 86.9869 74.044 85.9896 74.6626 85.0876C75.5591 83.7823 76.7254 82.6133 78.1833 82.0002C79.6412 81.387 81.426 81.4061 82.7231 82.3135C84.4835 83.5425 85.0012 86.0414 86.7643 87.2676C89.0806 88.8754 92.544 87.3493 93.8248 84.8369C95.1055 82.3244 94.7431 79.297 94.0155 76.572C93.1943 73.5097 91.9545 70.5754 90.3313 67.852C89.8844 67.1026 89.3939 66.3314 89.334 65.4621C89.255 64.3176 89.9526 63.244 90.8164 62.4892C92.5086 61.0122 94.8603 60.4563 97.103 60.5817C99.3456 60.707 101.509 61.4346 103.591 62.2793C108.984 64.4593 114.369 67.7865 116.734 73.103C118.571 68.0209 117.047 62.2711 114.377 57.5705C111.706 52.8699 107.973 48.8751 104.916 44.417C101.757 39.8144 99.2121 34.5906 94.784 31.1898C96.2567 36.0127 96.5003 41.1273 95.4925 46.0683C94.5851 50.4801 92.3179 55.039 88.165 56.7721C86.688 57.3907 84.895 57.7395 84.1102 59.1374C83.6142 60.0339 83.6932 61.1321 83.8813 62.1349C85.0012 68.089 89.3531 72.9613 91.0017 78.7928C91.4949 80.5423 91.7293 82.4498 91.1107 84.1584C90.7864 85.0467 90.1297 85.9242 89.2032 86.0659C88.3285 86.194 87.4837 85.6299 86.936 84.935C86.3883 84.2401 86.0504 83.4036 85.5517 82.6705C83.5924 79.7848 79.0335 79.128 76.3467 81.3652C74.6272 82.7904 73.7089 85.0876 71.7823 86.2212C68.812 87.9625 65.1251 86.1994 61.7052 85.9351Z" fill="#FF7976"/>
<path d="M119.2 59.756C119.317 62.1676 118.505 65.0425 116.202 65.781C113.802 66.5494 111.488 64.5575 109.662 62.8325C107.512 60.8133 105.112 58.884 102.24 58.2C100.877 57.8757 99.4111 57.8485 98.0867 57.3498C96.7624 56.8512 95.5334 55.6685 95.6042 54.257C98.193 50.0305 97.8442 44.7194 98.4137 39.8144C98.55 38.64 98.8143 37.3619 99.7762 36.6507C100.447 36.1602 101.332 36.073 102.161 36.1357C106.845 36.4845 110.118 40.7682 112.728 44.6704C115.78 49.2893 118.936 54.2188 119.2 59.756Z" fill="#F99595"/>
</svg>
