<svg width="127" height="152" viewBox="0 0 127 152" fill="none" xmlns="http://www.w3.org/2000/svg">
<path d="M5.959 96.9346C-0.872573 76.4617 -1.3985 52.0675 5.2941 31.6272C10.3817 16.0947 22.9249 2.64686 39.8553 0.420532C57.9684 -1.96112 76.4711 9.16233 90.2678 19.768C114.016 38.0255 130.84 62.278 125.693 93.482C120.063 127.572 91.8211 162.054 54.1915 148.799C32.1435 141.033 15.0796 121.569 7.049 100.022C6.66932 99.001 6.30599 97.9719 5.959 96.9346Z" fill="#FF7976"/>
<path d="M106.888 80.3203C109.198 82.5344 111.041 85.1902 112.305 88.1301C115.03 94.5012 115.063 101.755 113.646 108.568C111.37 119.432 106.664 130.395 98.4837 138.082C89.3196 146.693 76.3785 148.742 64.2741 146.895C50.9216 144.856 38.471 138.148 28.9771 128.596C18.2215 117.773 13.2348 104.54 9.93478 89.9014C8.91836 85.3942 7.9728 80.8598 7.56404 76.2573C5.43582 52.3046 7.21523 17.975 33.5933 7.82711C44.1281 3.77504 56.268 4.63342 66.5304 9.33132C80.357 15.6588 95.7696 31.2894 94.2218 47.7238C93.6768 53.5717 89.9518 59.9454 91.9247 65.7878C93.467 70.3522 97.4101 73.2789 101.239 75.8404C103.256 77.1566 105.147 78.6563 106.888 80.3203Z" fill="#4E5682"/>
<path opacity="0.17" d="M105.599 85.7866L98.7862 76.9522C94.8758 71.8864 90.8237 66.4909 90.0144 60.1416C89.5076 56.174 90.3224 52.1656 90.3115 48.168C90.2733 34.5784 80.8066 22.801 70.2527 14.2418C67.6939 12.1653 65.0071 10.1842 61.9524 8.94979C58.8023 7.67722 55.3824 7.24938 52.0007 6.92238C45.9566 6.33923 39.6728 6.07763 34.0157 8.25763C27.9171 10.6039 23.1157 15.6151 19.9329 21.3213C16.7501 27.0274 15.0115 33.4203 13.6054 39.8022C11.8587 47.7293 10.5643 55.7952 10.5017 63.913C10.4226 74.1427 12.3029 84.296 14.7554 94.2286C16.0525 99.477 17.5186 104.706 19.6904 109.658C26.3039 124.719 39.6782 136.657 55.3879 141.54C63.7727 144.137 72.8524 144.775 81.3789 142.682C89.9054 140.589 97.827 135.665 102.936 128.525C107.236 122.53 109.416 115.247 110.754 107.982C111.64 103.178 112.166 98.0845 110.436 93.5147C109.346 90.6534 107.463 88.1955 105.599 85.7866Z" fill="white"/>
<path d="M83.5588 128.109C83.5588 127.972 83.7441 127.626 84.0684 127.128L74.1385 122.732C73.5935 123.356 72.9613 123.994 72.6125 124.125C71.8877 124.397 69.4352 125.738 69.1627 127.684C68.8902 129.629 72.6071 132.133 73.411 133.133C74.2148 134.134 79.3433 141.052 80.7848 141.434C80.7848 141.434 81.9484 143.518 82.6078 143.044C83.2673 142.57 82.6841 141.409 82.6841 141.409C82.6841 141.409 84.3191 143.815 85.2074 143.183C86.0958 142.551 84.6624 140.665 84.6624 140.665C84.6624 140.665 86.8261 143.448 87.4637 142.824C88.0087 142.279 87.1912 140.717 86.9787 140.308C87.2239 140.734 88.2594 142.344 89.3031 141.671C90.4966 140.894 88.4693 138.766 88.4693 138.766C88.4693 138.766 92.0118 141.388 93.1018 139.856C94.1917 138.325 90.6956 137.082 90.2596 136.477C89.8236 135.872 83.5861 129.428 83.5588 128.109Z" fill="#FFA192"/>
<path d="M83.4118 127.942C83.4118 127.942 94.4071 104.382 95.6034 96.1525C96.3909 90.7298 77.2288 107.202 77.2288 107.202C77.2288 107.202 73.3974 123.798 73.9588 124.073C74.5201 124.348 83.4118 127.942 83.4118 127.942Z" fill="#FFA192"/>
<path d="M77.7083 93.8608C76.9616 100.646 79.4414 118.596 78.1824 122.8C76.9235 127.005 72.8877 126.615 74.4028 129.632C75.9179 132.648 78.8936 132.272 80.7385 133.618C82.4797 134.886 86.916 137.826 88.5183 138.406C88.6073 138.439 88.6983 138.465 88.7908 138.485C90.1042 138.782 90.2569 140.714 91.5921 139.48C92.9274 138.246 90.9763 137.692 90.9763 137.692C90.9763 137.692 92.0172 137.771 92.2679 137.439C92.5186 137.106 91.2433 136.289 91.2433 136.289C91.2433 136.289 92.4287 136.834 92.6821 136.343C92.9355 135.853 91.3196 134.485 91.3196 134.485C91.3196 134.485 92.1916 134.485 92.3578 134.155C92.524 133.826 90.6956 133.234 90.3822 132.725C90.0688 132.215 86.3328 127.381 86.1911 125.978C86.0494 124.574 93.0036 95.3841 93.0036 95.3841L77.7083 93.8608Z" fill="#E88A80"/>
<path d="M92.9137 98.218C93.1862 98.1799 93.9137 96.6839 95.6714 96.5285C95.6714 96.5285 96.012 89.5008 94.02 86.9638C92.5567 85.0972 89.0878 83.7183 85.9649 83.4458C84.8013 83.672 83.9457 83.8546 83.5397 83.9908C80.5858 84.9146 75.0404 90.5472 75.0404 90.5472C75.0404 90.5472 64.1131 80.1704 63.609 79.1022C63.1049 78.034 58.1917 68.1313 54.0116 65.0494C54.0116 65.0494 59.4616 67.5482 61.7642 66.1394C64.0668 64.7305 65.5792 60.7057 65.5792 60.7057C65.5792 60.7057 66.9662 60.1335 66.4621 59.0707C66.4621 59.0707 68.0344 58.3459 67.4431 56.7872C67.4431 56.7872 68.2769 54.9641 68.3859 54.9096C68.4949 54.8551 70.7703 55.1821 72.1519 53.0212C72.2734 52.8248 72.3315 52.5957 72.3183 52.3651C72.3051 52.1346 72.2214 51.9136 72.0783 51.7323C71.1709 50.5469 69.713 47.8356 70.0891 46.1951C70.5796 44.0669 75.6181 39.4044 75.8879 32.7581C76.1576 26.1119 74.5036 16.9531 62.2874 11.2143C50.0712 5.47542 31.1624 5.44 25.2056 18.3102C16.0387 38.7477 32.6421 48.2143 30.8818 52.122C29.1214 56.0296 22.8158 60.4223 21.2271 65.9813C19.6384 71.5403 12.6733 137.771 58.6604 137.624C70.3071 137.586 84.6378 121.274 91.0279 100.681C91.0279 100.681 92.0853 98.3379 92.9137 98.218Z" fill="#FFA192"/>
<path fill-rule="evenodd" clip-rule="evenodd" d="M74.8727 90.3916C74.9541 90.3019 75.0928 90.2952 75.1826 90.3766C75.2723 90.458 75.279 90.5968 75.1975 90.6865L75.0351 90.539L74.8727 90.3916ZM50.0878 120.135L50.2917 120.216L50.2924 120.214L50.2951 120.208C50.2975 120.202 50.3011 120.193 50.306 120.181C50.3157 120.157 50.3305 120.121 50.35 120.075C50.3891 119.982 50.4476 119.846 50.5246 119.675C50.6785 119.332 50.9063 118.849 51.2007 118.288C51.7904 117.164 52.644 115.736 53.7041 114.501C54.7766 113.252 60.1481 107.3 65.2553 101.657C67.808 98.8359 70.2936 96.0933 72.141 94.056C73.0647 93.0373 73.8288 92.1949 74.362 91.6072L75.1973 90.6867C75.1975 90.6866 75.1975 90.6865 75.0351 90.539C74.8727 90.3916 74.8726 90.3917 74.8725 90.3918L74.0371 91.3124C73.5039 91.9001 72.7397 92.7425 71.816 93.7613C69.9685 95.7987 67.4829 98.5414 64.93 101.362C59.826 107.002 54.4486 112.96 53.3712 114.215C52.2812 115.485 51.4099 116.945 50.8122 118.084C50.513 118.654 50.2814 119.145 50.1244 119.495C50.0459 119.669 49.986 119.809 49.9457 119.905C49.9255 119.952 49.9102 119.99 49.8999 120.015C49.8947 120.027 49.8908 120.037 49.8881 120.044L49.8851 120.051L49.884 120.054C49.884 120.054 49.8839 120.054 50.0878 120.135Z" fill="#CE5959"/>
<path fill-rule="evenodd" clip-rule="evenodd" d="M56.8715 110.076C56.9835 110.03 57.1117 110.084 57.1577 110.196C57.2037 110.308 57.1501 110.436 57.0381 110.482L56.9548 110.279L56.8715 110.076ZM56.8715 110.076C56.8715 110.076 56.8715 110.076 56.9548 110.279C57.0381 110.482 57.0381 110.482 57.0381 110.482L57.0122 110.493C56.995 110.5 56.9693 110.51 56.9357 110.524C56.8684 110.552 56.7694 110.594 56.6426 110.647C56.3891 110.754 56.0245 110.91 55.5812 111.105C54.6943 111.494 53.4927 112.037 52.233 112.653C50.9727 113.27 49.6576 113.958 48.5423 114.638C47.4194 115.323 46.5249 115.984 46.082 116.541C46.0067 116.636 45.8687 116.652 45.7738 116.576C45.679 116.501 45.6632 116.363 45.7386 116.268C46.2344 115.644 47.1899 114.949 48.3139 114.264C49.4454 113.574 50.774 112.878 52.0402 112.259C53.307 111.639 54.5144 111.093 55.405 110.703C55.8504 110.508 56.2167 110.351 56.4718 110.243C56.5993 110.189 56.6991 110.148 56.767 110.119C56.801 110.105 56.827 110.094 56.8446 110.087L56.8715 110.076Z" fill="#CE5959"/>
<path d="M31.4023 90.4109C31.4023 90.4109 46.1473 109.074 54.9545 104.853C63.7617 100.632 66.5521 79.2738 69.2035 77.2982C71.8549 75.3226 77.0297 72.6821 76.9316 71.6493C76.8335 70.6165 75.6781 70.9081 75.6781 70.9081C75.6781 70.9081 76.7027 68.8698 75.8552 68.1831C75.0077 67.4964 73.8332 67.976 73.8332 67.976C73.8332 67.976 74.5663 65.796 73.8687 65.6298C73.2988 65.5273 72.7176 65.5025 72.141 65.5562C72.141 65.5562 72.141 64.4335 71.5552 64.2727C70.9693 64.112 68.3451 66.7007 66.5085 69.6819C66.5085 69.6819 68.8874 63.3871 68.1816 63.3135C67.4758 63.24 65.2005 67.5046 64.4674 69.6764C63.7344 71.8482 62.7807 74.2026 61.7969 75.8403C60.8132 77.4781 51.9161 86.5796 50.3329 89.073C50.3329 89.073 41.9317 68.2976 35.6179 66.2238" fill="#FFA192"/>
<path d="M35.4354 66.42C41.5939 68.4393 49.946 88.9395 50.0278 89.1439C50.0431 89.1814 50.0686 89.214 50.1013 89.2381C50.134 89.2621 50.1726 89.2767 50.2131 89.2801C50.2528 89.2841 50.2929 89.2771 50.329 89.2598C50.365 89.2425 50.3956 89.2156 50.4174 89.182C51.2595 87.8522 54.276 84.5495 56.9384 81.6283C59.3418 78.9932 61.4183 76.7233 61.8815 75.9439C61.906 75.9058 61.9278 75.8622 61.9496 75.8241C61.8637 75.6626 61.79 75.495 61.7289 75.3226C61.6553 75.4534 61.5818 75.5951 61.5055 75.715C61.064 76.4535 58.9031 78.8243 56.6005 81.3313C54.0117 84.1707 51.3412 87.0974 50.2676 88.6016C49.0577 85.6777 41.5094 67.9569 35.5526 66.0031C35.4976 65.9867 35.4385 65.9923 35.3876 66.0188C35.3368 66.0452 35.2982 66.0904 35.2801 66.1448C35.2714 66.1731 35.2686 66.2028 35.2718 66.2322C35.275 66.2616 35.2841 66.29 35.2987 66.3158C35.3132 66.3415 35.3328 66.364 35.3563 66.382C35.3798 66.3999 35.4067 66.4128 35.4354 66.42Z" fill="#CE5959"/>
<path d="M66.5357 82.5575C66.3259 83.2061 66.1106 83.8982 65.8817 84.6285C63.5927 91.9315 60.4589 101.935 54.7582 104.66C46.2099 108.747 31.6203 90.4519 31.4731 90.2666C31.4552 90.244 31.4331 90.2252 31.4079 90.2112C31.3827 90.1972 31.3551 90.1884 31.3265 90.1851C31.2979 90.1818 31.2689 90.1841 31.2413 90.192C31.2136 90.2 31.1877 90.2132 31.1652 90.2311C31.1426 90.249 31.1238 90.2712 31.1099 90.2963C31.0959 90.3215 31.087 90.3492 31.0837 90.3778C31.0804 90.4064 31.0828 90.4353 31.0907 90.463C31.0986 90.4907 31.1119 90.5165 31.1298 90.5391C31.653 91.204 42.4821 104.774 51.1285 105.657C52.4312 105.816 53.7522 105.608 54.9435 105.058C60.8186 102.248 63.9851 92.1413 66.2986 84.7593C66.5221 84.0426 66.7401 83.345 66.9526 82.6829C66.8114 82.6489 66.6722 82.6071 66.5357 82.5575Z" fill="#CE5959"/>
<path d="M49.7469 70.1179C50.1856 70.3713 50.202 64.6461 50.9541 63.3054L54.1723 65.1066C54.9762 65.4554 59.7068 67.4283 61.8023 66.1476H61.8241C57.8347 65.5453 44.85 62.4334 39.0403 46.9853C39.0349 46.9608 37.0211 62.6895 49.7469 70.1179Z" fill="#E88A80"/>
<path fill-rule="evenodd" clip-rule="evenodd" d="M62.0271 42.5158C62.2517 42.4247 62.5075 42.5329 62.5986 42.7575C62.937 43.592 63.3788 44.0844 63.8278 44.3734C64.2795 44.664 64.7714 44.77 65.2409 44.7764C65.7128 44.7829 66.1511 44.6885 66.4756 44.5893C66.6367 44.5401 66.7666 44.4907 66.8548 44.4544C66.8988 44.4362 66.9322 44.4214 66.9536 44.4116C66.9643 44.4067 66.972 44.4031 66.9765 44.4009L66.9806 44.3989C67.1974 44.2911 67.4606 44.3793 67.5687 44.596C67.6768 44.8129 67.5886 45.0763 67.3717 45.1844L67.176 44.7917C67.3717 45.1844 67.3715 45.1845 67.3713 45.1846L67.3708 45.1848L67.3696 45.1854L67.3661 45.1872L67.3553 45.1924C67.3464 45.1966 67.3342 45.2024 67.3188 45.2094C67.288 45.2235 67.2444 45.2428 67.1894 45.2655C67.0796 45.3108 66.9234 45.37 66.732 45.4285C66.3515 45.5447 65.8192 45.6619 65.2288 45.6538C64.6359 45.6456 63.9735 45.5106 63.353 45.1112C62.7298 44.7102 62.1814 44.0635 61.7855 43.0873C61.6944 42.8627 61.8026 42.6069 62.0271 42.5158Z" fill="#333333"/>
<path fill-rule="evenodd" clip-rule="evenodd" d="M48.8916 35.752C48.8916 35.7521 48.8916 35.7522 48.6843 35.8237L48.8916 35.7522C48.9311 35.8667 48.8703 35.9916 48.7558 36.0311C48.6413 36.0706 48.5165 36.0099 48.4769 35.8954C48.4769 35.8954 48.4769 35.8954 48.4769 35.8954L48.4769 35.8953L48.4769 35.8953L48.4764 35.894L48.474 35.8873C48.4718 35.881 48.4682 35.8714 48.4634 35.8584C48.4536 35.8326 48.4385 35.7938 48.4178 35.744C48.3764 35.6444 48.3127 35.5006 48.2246 35.3277C48.0481 34.9812 47.7752 34.5202 47.3898 34.061C46.6199 33.1438 45.4112 32.2438 43.623 32.2581C42.8001 32.2647 42.1261 32.817 41.6154 33.7434C41.106 34.6675 40.7865 35.9213 40.6667 37.218C40.5471 38.5135 40.6289 39.8311 40.906 40.8767C41.1879 41.9404 41.6503 42.6469 42.23 42.8487C43.54 43.3048 44.4915 42.9989 45.1179 42.5898C45.4346 42.383 45.6712 42.1474 45.8285 41.9634C45.907 41.8716 45.9652 41.7933 46.0032 41.7388C46.0222 41.7116 46.0361 41.6904 46.045 41.6765C46.0494 41.6696 46.0526 41.6645 46.0545 41.6614L46.0564 41.6583L46.0564 41.6583L46.0565 41.6582C46.118 41.5539 46.2524 41.5192 46.3567 41.5807C46.4611 41.6422 46.4959 41.7766 46.4344 41.881L46.2454 41.7697C46.4344 41.881 46.4343 41.8811 46.4343 41.8812L46.4341 41.8815L46.4337 41.8822L46.4324 41.8843L46.4285 41.8908C46.4252 41.8961 46.4206 41.9035 46.4147 41.9128C46.4028 41.9314 46.3856 41.9576 46.3629 41.99C46.3178 42.0547 46.2509 42.1445 46.162 42.2485C45.9847 42.4559 45.7175 42.7222 45.3578 42.9572C44.6312 43.4317 43.5389 43.7689 42.0858 43.2631C41.2839 42.9839 40.7701 42.0765 40.4819 40.9891C40.1889 39.8834 40.1066 38.5125 40.2299 37.1777C40.353 35.844 40.6832 34.5258 41.2312 33.5316C41.7779 32.5398 42.5689 31.8278 43.6195 31.8194C45.5781 31.8037 46.9009 32.7962 47.7258 33.779C48.1378 34.2698 48.4281 34.7606 48.6155 35.1286C48.7094 35.3128 48.7778 35.4669 48.823 35.5757C48.8456 35.6302 48.8624 35.6733 48.8738 35.7034C48.8794 35.7184 48.8837 35.7301 48.8867 35.7383L48.8902 35.748L48.8911 35.7508L48.8914 35.7517L48.8916 35.752Z" fill="#CE5959"/>
<path fill-rule="evenodd" clip-rule="evenodd" d="M46.9376 35.6117C46.9377 35.6117 46.9377 35.6118 46.7823 35.7666L46.9376 35.6117C47.0231 35.6975 47.0229 35.8365 46.9371 35.922C46.8513 36.0075 46.7124 36.0072 46.6269 35.9214C46.6269 35.9214 46.6269 35.9214 46.6269 35.9214L46.6259 35.9204L46.6219 35.9165C46.6184 35.9129 46.6129 35.9075 46.6057 35.9004C46.5912 35.8862 46.5695 35.8652 46.5413 35.8384C46.4849 35.7848 46.4028 35.7083 46.3005 35.6176C46.0957 35.4359 45.8121 35.1991 45.4952 34.9762C45.1769 34.7523 44.8331 34.5481 44.5071 34.4256C44.1763 34.3014 43.8979 34.2738 43.6878 34.3531C43.6024 34.3853 43.4809 34.4807 43.3357 34.6649C43.1948 34.8435 43.048 35.0846 42.9055 35.3731C42.6207 35.9497 42.3635 36.6946 42.2066 37.4574C42.0492 38.2222 41.996 38.9887 42.1058 39.6135C42.2158 40.2391 42.4801 40.6832 42.9239 40.8831C43.4364 41.114 43.7029 41.0789 43.8477 40.991C44.0032 40.8967 44.108 40.6911 44.1776 40.3769C44.2242 40.1665 44.2479 39.9476 44.2716 39.7286C44.2833 39.621 44.295 39.5134 44.3093 39.4068C44.3299 39.2541 44.3569 39.1011 44.4025 38.9731C44.4462 38.8502 44.5224 38.7059 44.6719 38.6326C44.7723 38.5833 44.8769 38.5593 44.9828 38.5709C45.0891 38.5826 45.1766 38.628 45.2463 38.6839C45.3742 38.7866 45.4644 38.9459 45.5287 39.0596L45.5344 39.0697C45.6076 39.199 45.656 39.2847 45.7081 39.3355C45.7189 39.3461 45.7271 39.3521 45.7325 39.3554C45.7376 39.3585 45.74 39.359 45.74 39.359L45.7407 39.3591C45.741 39.3591 45.742 39.3591 45.7439 39.3589C45.7476 39.3585 45.7563 39.3569 45.7709 39.3505C45.8141 39.3317 45.8835 39.2603 45.9543 39.0864C46.0204 38.9238 46.0694 38.7171 46.1047 38.5062C46.1397 38.2971 46.1597 38.0933 46.1709 37.941C46.1764 37.8651 46.1798 37.8026 46.1817 37.7593C46.1827 37.7377 46.1833 37.7209 46.1837 37.7096L46.1841 37.6971L46.1842 37.6941L46.1842 37.6935C46.1842 37.6935 46.1842 37.6935 46.1842 37.6935M44.8661 39.026C44.8656 39.0265 44.8434 39.0427 44.8158 39.1202C44.7864 39.2029 44.764 39.3181 44.7441 39.4654C44.7329 39.5491 44.7225 39.6437 44.7116 39.7441C44.6864 39.9753 44.6577 40.2379 44.606 40.4718C44.5318 40.8068 44.3944 41.1725 44.0753 41.3661C43.7454 41.5663 43.3048 41.5359 42.7436 41.2831C42.1137 40.9993 41.7966 40.3881 41.6737 39.6895C41.5508 38.9901 41.6134 38.1635 41.7769 37.3689C41.9408 36.5724 42.2095 35.7915 42.5121 35.1788C42.6634 34.8726 42.8256 34.6031 42.9912 34.3932C43.1525 34.1887 43.3349 34.0174 43.5329 33.9426C43.8897 33.808 44.2912 33.8758 44.6614 34.015C45.0364 34.1559 45.4147 34.3831 45.7476 34.6174C46.0821 34.8526 46.3789 35.1007 46.5916 35.2894C46.6982 35.3839 46.7841 35.4639 46.8437 35.5205C46.8735 35.5488 46.8967 35.5714 46.9126 35.5869C46.9205 35.5947 46.9267 35.6008 46.9309 35.6049L46.9358 35.6098L46.9376 35.6117M44.8661 39.026C44.9081 39.0055 44.9288 39.0064 44.9349 39.0071C44.9407 39.0077 44.9519 39.0102 44.9716 39.026C45.0223 39.0667 45.0738 39.1466 45.1471 39.2761C45.1527 39.2859 45.1584 39.2961 45.1643 39.3067C45.2239 39.4128 45.3023 39.5525 45.4016 39.6495C45.4607 39.7071 45.5389 39.7623 45.6392 39.786C45.7426 39.8104 45.8467 39.7961 45.9461 39.7528C46.1564 39.6612 46.2817 39.4458 46.3607 39.2516C46.4443 39.046 46.4998 38.8033 46.5374 38.5786C46.5754 38.3519 46.5966 38.1338 46.6084 37.9732C46.6143 37.8926 46.6179 37.8259 46.62 37.7791C46.6211 37.7556 46.6218 37.7371 46.6222 37.7244L46.6227 37.7095L46.6228 37.7054L46.6228 37.7043L46.6228 37.7039C46.6228 37.7039 46.6228 37.7037 46.4035 37.6986L46.6228 37.7039C46.6256 37.5828 46.5298 37.4821 46.4086 37.4793C46.2875 37.4765 46.1871 37.5724 46.1842 37.6935" fill="#CE5959"/>
<path fill-rule="evenodd" clip-rule="evenodd" d="M92.2473 97.3105C92.3286 97.3352 92.3746 97.4212 92.3498 97.5026L92.2025 97.4578L92.0552 97.4131C92.0799 97.3317 92.1659 97.2858 92.2473 97.3105ZM92.2025 97.4578C92.0552 97.4131 92.0553 97.4129 92.0552 97.4131L92.0538 97.4177L92.0494 97.432C92.0455 97.4448 92.0396 97.4638 92.0318 97.4891C92.0162 97.5396 91.9927 97.6147 91.9616 97.7131C91.8994 97.91 91.8065 98.1999 91.6838 98.5717C91.4385 99.3154 91.0743 100.386 90.599 101.695C89.6484 104.314 88.2536 107.882 86.4771 111.686C84.7004 115.489 82.5433 119.524 80.0685 123.076C77.5926 126.63 74.8054 129.69 71.7716 131.555C71.6992 131.6 71.6765 131.695 71.7211 131.767C71.7656 131.84 71.8604 131.862 71.9329 131.818C75.0181 129.921 77.8341 126.822 80.3212 123.252C82.8094 119.681 84.975 115.629 86.7561 111.816C88.5375 108.002 89.9356 104.425 90.8885 101.801C91.3649 100.488 91.7301 99.4144 91.9763 98.6682C92.0993 98.2951 92.1927 98.004 92.2552 97.806C92.2865 97.7069 92.3102 97.6312 92.326 97.5802C92.3339 97.5547 92.3398 97.5353 92.3438 97.5223L92.3483 97.5076L92.3494 97.5039L92.3497 97.5029C92.3498 97.5027 92.3498 97.5026 92.2025 97.4578Z" fill="#CE5959"/>
<path d="M108.008 80.0669C106.614 78.4857 104.893 77.2276 102.963 76.3804C101.033 75.5332 98.942 75.1174 96.835 75.1619C96.2491 75.1809 95.6224 75.2491 95.1728 75.6251C94.0828 76.5407 94.8212 78.3065 95.6496 79.4674C100.149 85.7703 105.547 91.6808 107.969 99.0383C109.914 105.01 109.745 111.469 107.49 117.331C105.639 122.097 101.495 126.757 96.3908 126.324C92.2079 125.969 88.9924 122.182 87.8261 118.149C86.6598 114.116 87.074 109.824 87.2566 105.63C87.5071 99.9228 87.3112 94.2047 86.6707 88.528C86.5127 87.1383 86.311 85.6967 85.5508 84.525C83.9839 82.1133 80.4414 81.6474 77.8145 82.8164C75.1876 83.9854 73.3264 86.378 71.7977 88.8114C70.7513 90.4791 69.3016 92.4711 67.3586 92.1441C69.1626 88.3809 71.2527 84.5332 74.7161 82.2251C78.1796 79.917 83.4362 79.7453 86.1285 82.9281C87.9215 85.0427 88.1886 88.0157 88.3766 90.7816C88.6055 94.1442 88.8335 97.5051 89.0606 100.864C89.3331 104.679 89.5892 108.54 90.9463 112.107C92.3033 115.674 94.9248 118.955 98.5436 120.163C99.8843 120.607 101.418 120.737 102.661 120.067C104.351 119.157 105.007 117.086 105.293 115.187C106.367 108.042 104.282 100.684 100.661 94.4385C97.0394 88.1928 91.9246 82.939 86.5917 78.064C84.6461 76.2846 82.635 74.5215 81.2017 72.3033C79.7683 70.0852 78.9617 67.3166 79.6838 64.7796C80.8747 60.5913 85.4826 58.5912 88.7663 55.7326C91.8715 53.0081 93.9282 49.285 94.5814 45.206C95.5974 54.826 99.5095 63.911 105.8 71.2597C106.89 72.535 108.089 73.7912 108.716 75.3472C109.343 76.9032 109.253 78.9224 108.008 80.0669Z" fill="#FF7976"/>
<path d="M87.2976 69.0606C85.6626 67.0277 86.1422 63.9294 87.5401 61.7194C88.938 59.5094 91.0663 57.8717 92.8239 55.9342C94.8263 53.7219 96.3481 51.1183 97.2929 48.2879C97.5409 47.5494 97.7589 46.7755 98.2412 46.1624C98.8897 45.3449 99.947 44.917 100.991 44.7999C103.37 44.5274 105.757 45.6501 107.465 47.3287C109.174 49.0073 110.302 51.1845 111.234 53.3918C113.091 57.782 114.302 62.4182 114.828 67.1558C115.06 69.2513 115.063 71.633 113.594 73.1508C111.904 74.8921 109.019 74.6741 106.781 73.7639C104.544 72.8538 102.487 71.3768 100.102 70.9245C97.9223 70.5103 95.6579 71.0062 93.4288 71.1098C91.1998 71.2133 88.7037 70.7937 87.2976 69.0606Z" fill="#F99595"/>
</svg>
