<svg width="126" height="167" viewBox="0 0 126 167" fill="none" xmlns="http://www.w3.org/2000/svg">
<path d="M108.851 147.834C108.488 148.379 108.109 148.924 107.715 149.469C90.0678 173.236 58.5259 170.77 38.331 152.093C6.99347 123.099 -14.2425 63.743 13.1629 25.7783C35.9003 -5.72002 97.1147 -11.9194 115.95 27.4569C122.945 42.0819 120.179 59.1595 122.967 74.7438C124.515 83.3981 125.2 92.1849 125.011 100.975C124.915 105.367 124.594 109.795 123.337 114.006C121.975 118.548 119.582 122.698 117.656 127.034C114.511 134.116 113.089 141.321 108.851 147.834Z" fill="#FF7976"/>
<path d="M110.677 133.059C109.383 146.139 99.9243 157.856 87.1822 161.734C71.8296 166.407 55.3515 159.192 43.4433 149.66C25.0087 134.906 14.1523 112.959 9.27178 90.2028C4.91178 69.8852 3.54928 48.7337 16.0162 30.8386C31.7884 8.17206 65.4858 -6.87812 90.3187 10.164C106.235 21.0886 117.135 43.5017 112.067 62.7239C109.546 72.2859 105.02 81.322 103.524 91.1565C101.584 103.896 109.47 114.692 110.683 126.99C110.881 129.008 110.879 131.041 110.677 133.059Z" fill="#4E5682"/>
<path opacity="0.17" d="M104.96 68.6044C108.502 64.1436 108.759 57.9387 108.271 52.2544C107.508 43.3872 105.254 34.5119 100.581 26.9337C95.9076 19.3555 88.6454 13.1643 80.0426 10.878C76.4592 9.92426 72.7287 9.65447 69.02 9.63812C51.6099 9.56455 33.3225 15.813 22.834 29.7187C15.8144 39.0354 12.8905 50.9736 12.9068 62.6394C12.9232 74.3051 15.6836 85.8019 19.1144 96.9471C25.0821 116.341 33.5568 135.729 48.6016 149.349C51.4955 151.973 54.632 154.368 58.1391 156.096C71.5842 162.726 88.8198 158.003 99.2457 147.221C101.426 144.97 103.388 142.441 104.54 139.525C106.472 134.62 105.938 129.02 103.995 124.132C102.052 119.243 98.8178 114.989 95.3217 111.052C91.7792 107.041 87.8824 103.217 85.4 98.4704C82.9175 93.7234 82.07 87.7121 84.8004 83.1041C89.0623 75.8965 99.7443 75.1689 104.96 68.6044Z" fill="white"/>
<path d="M51.2475 30.7188C51.2475 30.7188 45.5576 30.4763 45.3124 28.0292C45.0671 25.5822 47.2199 21.9906 47.5469 19.1621C47.8739 16.3335 47.8194 10.9543 49.1574 9.35201C49.1574 9.35201 49.4299 7.20197 49.8577 6.8995C50.2855 6.59702 51.272 8.58354 51.272 8.58354C51.272 8.58354 51.5009 7.18015 52.2312 6.70327C52.9615 6.22639 53.3212 8.38462 53.3212 8.38462C53.3212 8.38462 54.2831 6.18826 54.6837 6.14466C55.0843 6.10106 55.4576 8.76612 55.4576 8.76612C55.4576 8.76612 55.9317 7.40361 56.8037 7.15563C57.6757 6.90766 57.8038 9.0032 57.8038 9.0032C57.8038 9.0032 59.1827 6.64332 60.8013 7.0439C62.42 7.44447 60.6051 10.0932 60.5288 12.5375C60.4525 14.9819 51.2475 30.7188 51.2475 30.7188Z" fill="#E88A80"/>
<path d="M50.7327 114.453C50.7327 114.453 46.3972 116.676 41.6748 115.226C36.9523 113.777 28.8918 96.1977 27.9026 91.8895C27.9026 91.8895 11.321 51.644 22.2074 40.8176C33.0937 29.9911 46.1111 32.3237 46.1111 32.3237C46.1111 32.3237 52.9999 24.7455 53.9754 23.462C54.951 22.1785 64.4476 8.48813 67.2544 9.5645C70.0611 10.6409 76.2987 17.3253 76.2987 17.3253C76.2987 17.3253 66.862 25.1324 65.1779 27.3097C65.1779 27.3097 86.9425 44.1475 86.7518 49.3822C86.561 54.6169 81.9094 56.2792 81.9094 56.2792C81.9094 56.2792 87.027 57.9932 91.2344 69.2366C95.4418 80.4799 92.3952 99.5086 86.0569 103.359C79.7185 107.209 50.7327 114.453 50.7327 114.453Z" fill="#FFA192"/>
<path d="M50.4575 114.613C50.4575 114.613 77.3668 107.88 84.9968 103.945C84.0649 101.329 80.1436 92.6579 69.7205 94.7562C58.6461 96.9825 49.828 112.469 48.2666 115.403C49.0203 115.21 49.7539 114.946 50.4575 114.613Z" fill="#E88A80"/>
<path fill-rule="evenodd" clip-rule="evenodd" d="M82.1315 56.2503C82.1445 56.3731 82.0554 56.483 81.9327 56.496C80.1337 56.6853 75.4239 57.7322 70.275 62.115C65.1279 66.4962 59.5283 74.2228 55.9655 87.7933C55.9493 87.8549 55.9076 87.9067 55.8509 87.9356L55.7494 87.7366C55.8509 87.9356 55.851 87.9356 55.8509 87.9356L55.8506 87.9358L55.8276 87.9476L55.759 87.9827C55.699 88.0136 55.6109 88.059 55.4988 88.1171C55.2747 88.2332 54.955 88.4001 54.5725 88.6026C53.8074 89.0076 52.7923 89.5551 51.7908 90.1251C50.788 90.6959 49.8042 91.2864 49.0991 91.778C48.745 92.0249 48.4706 92.2404 48.2997 92.4114C48.2197 92.4915 48.1722 92.5523 48.1481 92.5939C48.1667 92.6058 48.1966 92.6184 48.2454 92.6275C48.3394 92.6451 48.4728 92.643 48.6439 92.617C48.9841 92.5655 49.4125 92.4299 49.8415 92.266C50.2677 92.1032 50.6823 91.9172 50.9912 91.7714C51.1454 91.6986 51.2728 91.6361 51.3614 91.5919C51.4057 91.5698 51.4403 91.5522 51.4638 91.5403L51.4903 91.5267L51.4969 91.5233L51.4985 91.5225L51.4988 91.5223C51.5956 91.472 51.7146 91.4989 51.7803 91.586C51.846 91.6731 51.8392 91.7948 51.7643 91.8741L51.6019 91.7206C51.7643 91.8741 51.7643 91.8741 51.7643 91.8741L51.7635 91.8749L51.7611 91.8775L51.7512 91.8879L51.7127 91.929C51.6789 91.965 51.6292 92.0182 51.5661 92.0862C51.4399 92.2222 51.2598 92.4177 51.0448 92.6552C50.6146 93.1305 50.0455 93.7731 49.4882 94.4439C48.9299 95.116 48.3879 95.8112 48.0093 96.3926C47.8195 96.6842 47.6758 96.9395 47.5909 97.1444C47.5484 97.2469 47.5236 97.3299 47.5133 97.3939C47.5026 97.4599 47.5101 97.4885 47.5125 97.4946C47.5127 97.4952 47.5128 97.4955 47.5129 97.4958C47.513 97.4958 47.5132 97.4959 47.5134 97.496C47.5222 97.5 47.5502 97.5084 47.6098 97.5048C47.7314 97.4975 47.9127 97.4455 48.1482 97.3447C48.613 97.1459 49.2102 96.7921 49.8072 96.4017C50.4016 96.0132 50.9856 95.5952 51.4218 95.2738C51.6397 95.1132 51.8203 94.977 51.9463 94.8811C52.0093 94.8331 52.0586 94.7952 52.0921 94.7693L52.1302 94.7398L52.1429 94.73C52.1429 94.73 52.143 94.7299 52.2805 94.9061L52.4488 95.053L52.4482 95.0537L52.446 95.0562L52.4373 95.0663C52.4296 95.0752 52.418 95.0886 52.4029 95.1062C52.3727 95.1414 52.3284 95.1934 52.2723 95.2601C52.1602 95.3934 52.0012 95.5853 51.8142 95.819C51.4399 96.2869 50.9552 96.9203 50.5103 97.5854C50.0635 98.2533 49.6654 98.941 49.4556 99.5198C49.3504 99.8097 49.2983 100.057 49.3024 100.253C49.3064 100.444 49.3626 100.568 49.4577 100.649C49.6691 100.829 49.9569 100.827 50.3498 100.625C50.7403 100.424 51.1668 100.054 51.5695 99.6342C51.969 99.2179 52.3316 98.7669 52.5951 98.4186C52.7266 98.2448 52.8328 98.0973 52.9061 97.9935C52.9427 97.9416 52.971 97.9007 52.9901 97.8729C52.9996 97.859 53.0068 97.8484 53.0116 97.8413L53.0169 97.8335L53.0182 97.8316L53.0185 97.8312C53.0832 97.7344 53.2115 97.7035 53.3132 97.7603C53.4149 97.8171 53.4559 97.9425 53.4074 98.0484L53.4072 98.0489L53.4063 98.0508L53.4026 98.0589C53.3994 98.0661 53.3945 98.0769 53.3881 98.0911C53.3754 98.1196 53.3567 98.1616 53.3333 98.2155C53.2864 98.3232 53.2203 98.4781 53.144 98.6659C52.9913 99.042 52.7986 99.5477 52.637 100.07C52.4744 100.595 52.3474 101.123 52.319 101.549C52.3047 101.762 52.3163 101.936 52.3524 102.066C52.3879 102.194 52.4413 102.26 52.4996 102.294C52.501 102.295 52.5019 102.295 52.5049 102.296C52.5088 102.296 52.5193 102.296 52.5382 102.291C52.5788 102.279 52.6403 102.248 52.7239 102.182C52.8908 102.052 53.0951 101.827 53.3305 101.522C53.7977 100.918 54.3457 100.056 54.9128 99.1632L54.9173 99.1561C55.4823 98.2671 56.0653 97.3502 56.5917 96.6598C56.8546 96.3151 57.11 96.0178 57.3481 95.8067C57.5746 95.6058 57.8325 95.4396 58.0947 95.4513C58.5141 95.4701 58.8893 95.7315 59.2109 96.0426C59.5373 96.3585 59.847 96.7646 60.1293 97.1367L60.1431 97.1548C60.4268 97.5288 60.6785 97.8606 60.9092 98.0748C61.026 98.1833 61.1214 98.246 61.1968 98.2729C61.263 98.2965 61.3066 98.2911 61.3488 98.2674C61.3444 98.2699 61.3627 98.2612 61.3887 98.2037C61.4137 98.1482 61.4374 98.0662 61.4562 97.9539C61.4938 97.7297 61.5063 97.4224 61.498 97.0517C61.4814 96.3124 61.3835 95.3635 61.2691 94.4137C61.2218 94.0216 61.1716 93.6282 61.1235 93.2509C61.0558 92.7206 60.9921 92.2218 60.9464 91.8026C60.9072 91.4432 60.8801 91.1327 60.8749 90.903C60.8724 90.7894 60.8749 90.6861 60.8867 90.6031C60.8926 90.5621 60.902 90.5164 60.9191 90.4733C60.9342 90.4353 60.9685 90.3657 61.045 90.322C61.0428 90.3233 61.0445 90.3221 61.0516 90.3168C61.0616 90.3094 61.0824 90.294 61.1178 90.2667C61.1701 90.2263 61.2432 90.1687 61.336 90.0947C61.5214 89.9467 61.7832 89.7348 62.1105 89.4667C62.765 88.9306 63.6802 88.1711 64.7678 87.2519C66.9431 85.4134 69.8069 82.9372 72.6533 80.3338C75.5006 77.7295 78.3264 75.0015 80.4281 72.6587C81.4794 71.4868 82.3448 70.4164 82.9406 69.5095C83.2385 69.0561 83.4658 68.6482 83.6155 68.2926C83.7663 67.9343 83.8314 67.6447 83.8224 67.4226C83.8174 67.2993 83.9133 67.1953 84.0366 67.1903C84.1599 67.1853 84.264 67.2812 84.269 67.4045C84.2818 67.7199 84.19 68.0795 84.0274 68.466C83.8635 68.8553 83.6208 69.288 83.3141 69.7549C82.7006 70.6887 81.8185 71.778 80.7608 72.9571C78.6444 75.3163 75.8059 78.0559 72.9549 80.6636C70.103 83.272 67.2346 85.7522 65.0563 87.5932C63.9671 88.5137 63.0501 89.2748 62.3937 89.8124C62.0655 90.0812 61.8021 90.2944 61.6147 90.444C61.5211 90.5187 61.4459 90.578 61.3908 90.6205C61.3699 90.6367 61.3486 90.6529 61.329 90.6675C61.3225 90.7142 61.3194 90.7883 61.3217 90.893C61.3264 91.1021 61.3517 91.3965 61.3907 91.7542C61.4361 92.1711 61.4987 92.6612 61.5658 93.1867C61.614 93.5643 61.6646 93.9601 61.7128 94.3602C61.8272 95.3105 61.9276 96.2785 61.9447 97.0416C61.9533 97.422 61.9415 97.7622 61.897 98.0279C61.8747 98.1605 61.8428 98.284 61.7958 98.3879C61.7497 98.4898 61.6793 98.5943 61.5677 98.657C61.3953 98.7539 61.2143 98.7537 61.0466 98.6938C60.8881 98.6373 60.7402 98.5278 60.6051 98.4023C60.3453 98.161 60.0734 97.8024 59.8038 97.4471L59.7733 97.4068C59.4868 97.0291 59.1976 96.6516 58.9002 96.3638C58.5979 96.0713 58.3243 95.9089 58.0747 95.8978C58.0023 95.8945 57.8623 95.948 57.6446 96.141C57.4386 96.3237 57.2036 96.5944 56.9471 96.9308C56.4347 97.6028 55.8628 98.5017 55.2945 99.3958L55.2802 99.4183C54.7206 100.299 54.1639 101.175 53.6842 101.796C53.4434 102.107 53.2115 102.369 52.999 102.535C52.893 102.617 52.7792 102.687 52.6608 102.72C52.537 102.756 52.4001 102.754 52.2739 102.68C52.0842 102.569 51.9772 102.385 51.9218 102.185C51.8669 101.988 51.8571 101.758 51.8731 101.519C51.905 101.041 52.0443 100.473 52.2101 99.9374C52.2681 99.75 52.33 99.5649 52.3924 99.3871C52.2362 99.5712 52.0678 99.7603 51.8919 99.9436C51.4791 100.374 51.0115 100.787 50.5544 101.022C50.0996 101.257 49.5863 101.345 49.1682 100.99C48.9485 100.803 48.8614 100.541 48.8556 100.262C48.8499 99.9885 48.9214 99.682 49.0354 99.3674C49.264 98.737 49.6864 98.0134 50.1389 97.3369C50.4269 96.9062 50.7306 96.4896 51.0108 96.1218C50.7102 96.3343 50.3828 96.5593 50.0517 96.7758C49.4505 97.1689 48.8264 97.5406 48.324 97.7556C48.0759 97.8618 47.8371 97.9388 47.6367 97.9509C47.5353 97.957 47.4268 97.9477 47.328 97.9026C47.2223 97.8544 47.1411 97.7711 47.0967 97.6585C47.0535 97.5488 47.0547 97.4303 47.0721 97.3224C47.0899 97.2124 47.1279 97.0944 47.178 96.9734C47.2782 96.7315 47.4388 96.4497 47.6348 96.1488C48.0277 95.5454 48.5828 94.8345 49.1445 94.1583C49.6854 93.5072 50.2364 92.8836 50.6625 92.4117C50.455 92.5023 50.23 92.5959 50.0011 92.6834C49.5635 92.8506 49.0992 93.0001 48.7108 93.0589C48.5176 93.0882 48.3278 93.0975 48.1633 93.0668C47.9976 93.0359 47.8287 92.9576 47.7318 92.7877C47.6488 92.6422 47.6967 92.4921 47.7467 92.3966C47.7995 92.2958 47.885 92.1942 47.9835 92.0956C48.1831 91.8958 48.4838 91.6622 48.8435 91.4114C49.566 90.9077 50.5642 90.309 51.5697 89.7367C52.5766 89.1636 53.596 88.6139 54.3634 88.2076C54.7472 88.0044 55.0681 87.837 55.2932 87.7203C55.4057 87.662 55.4943 87.6163 55.5548 87.5853L55.5587 87.5833C59.142 73.9989 64.7701 66.2139 69.9853 61.7746C75.2112 57.3263 80.0089 56.2491 81.8859 56.0515C82.0086 56.0386 82.1186 56.1276 82.1315 56.2503ZM52.2805 94.9061L52.4488 95.053C52.5245 94.9663 52.5219 94.8362 52.4428 94.7525C52.3636 94.6689 52.2337 94.6592 52.1429 94.73L52.2805 94.9061ZM48.1326 92.627C48.1325 92.6271 48.1327 92.6263 48.1332 92.6246C48.1329 92.6262 48.1326 92.627 48.1326 92.627Z" fill="#CE5959"/>
<path fill-rule="evenodd" clip-rule="evenodd" d="M79.2428 74.0325C79.3648 74.0136 79.479 74.0972 79.4978 74.2192L81.0539 84.2935C81.0727 84.4154 80.9891 84.5296 80.8671 84.5484C80.7452 84.5672 80.631 84.4836 80.6122 84.3617L79.0561 74.2874C79.0373 74.1654 79.1209 74.0513 79.2428 74.0325Z" fill="#CE5959"/>
<path d="M28.2461 90.0746C28.2461 90.0746 30.0092 70.0704 39.2033 67.1111C48.3975 64.1517 61.4066 72.1686 71.2984 80.9867L78.6559 82.8016C78.6559 82.8016 84.0704 80.0439 84.5582 80.8941C85.046 81.7443 80.825 84.3194 80.825 84.3194C80.825 84.3194 86.8199 84.3194 87.2478 85.047C87.6756 85.7745 83.114 86.9136 83.114 86.9136C83.114 86.9136 87.9099 86.7801 87.8554 88.1126C87.8009 89.4451 81.8604 89.5732 81.8604 89.5732C81.8604 89.5732 85.9207 90.9956 85.7245 92.0802C85.5283 93.1647 78.3207 91.9113 77.822 92.1919C77.3233 92.4726 76.1598 91.8377 76.1598 91.8377C76.1598 91.8377 78.7294 94.9223 77.9392 95.5355C77.1489 96.1486 68.2191 88.723 67.7831 88.8157C67.3471 88.9083 50.8118 84.6764 45.3182 82.4446C45.3182 82.4446 44.1329 101.468 44.6561 102.956" fill="#FFA192"/>
<path d="M37.5898 67.5825C38.0798 67.3016 38.5976 67.0724 39.1349 66.8985C50.1793 63.3397 65.3494 75.3924 71.4071 80.796L78.6365 82.5755C80.3614 81.7035 84.2309 79.875 84.7596 80.8042C85.2201 81.6217 83.0619 83.1831 81.6041 84.1205C83.5116 84.1451 87.054 84.2786 87.4492 84.9571C87.4824 85.0156 87.5014 85.0811 87.5047 85.1483C87.508 85.2155 87.4955 85.2826 87.4683 85.3441C87.2503 85.8482 85.8605 86.3714 84.6724 86.7366C85.8333 86.802 87.2966 87.0091 87.8416 87.5541C87.9223 87.6287 87.9858 87.72 88.0277 87.8216C88.0695 87.9233 88.0888 88.0328 88.0841 88.1426C88.0378 89.3035 84.8141 89.6632 82.9584 89.7776C84.2364 90.309 86.1194 91.2519 85.9559 92.1484C85.8033 92.985 83.5933 92.8515 80.2334 92.5463C79.2442 92.4563 78.1242 92.3528 77.9389 92.4182C77.6664 92.5762 77.2549 92.5163 76.8871 92.4182C77.5056 93.2357 78.4076 94.5982 78.3259 95.3149C78.3198 95.3994 78.2963 95.4817 78.2569 95.5567C78.2175 95.6318 78.1631 95.6978 78.097 95.7509L78.0588 95.7754C77.4648 96.1133 75.4019 94.6854 70.8021 91.2355C69.4396 90.2137 68.0336 89.1564 67.7829 89.0773C66.543 89.0092 50.8551 84.8808 45.5414 82.8098C45.2035 88.3034 44.4759 101.765 44.8847 102.929C44.8977 102.982 44.8903 103.039 44.8638 103.088C44.8374 103.137 44.7938 103.174 44.7415 103.192C44.6891 103.21 44.6319 103.209 44.5808 103.187C44.5297 103.166 44.4884 103.126 44.465 103.076C43.9336 101.563 45.0672 83.254 45.1163 82.4746C45.1181 82.4394 45.1285 82.405 45.1465 82.3747C45.1646 82.3443 45.1897 82.3187 45.2198 82.3002C45.2493 82.2807 45.2833 82.269 45.3186 82.2661C45.3538 82.2633 45.3892 82.2694 45.4215 82.2839C50.9532 84.532 67.1207 88.6359 67.7829 88.6386C67.9845 88.5977 68.3878 88.8702 71.0692 90.884C73.2301 92.519 77.2522 95.5302 77.8463 95.3939C77.8653 95.3553 77.8782 95.3139 77.8844 95.2713C77.9525 94.6336 76.7699 92.9441 76.0096 92.0285C75.9791 91.9896 75.9625 91.9417 75.9625 91.8922C75.9625 91.8428 75.9791 91.7949 76.0096 91.756C76.0409 91.7157 76.0855 91.6879 76.1354 91.6774C76.1853 91.6669 76.2373 91.6745 76.2821 91.6988C76.7236 91.9386 77.4648 92.2056 77.7291 92.0558C77.9417 91.9331 78.5466 91.9767 80.2715 92.132C81.6803 92.2601 85.4245 92.598 85.5144 92.0993C85.6125 91.5543 83.6614 90.4943 81.7948 89.8403C81.7461 89.8226 81.7051 89.7885 81.6788 89.7439C81.6524 89.6992 81.6424 89.6468 81.6505 89.5957C81.6585 89.5445 81.6841 89.4976 81.7229 89.4632C81.7616 89.4288 81.8111 89.409 81.8629 89.407C84.6179 89.3471 87.6072 88.8621 87.6345 88.159C87.6354 88.1101 87.6257 88.0616 87.6059 88.0169C87.5861 87.9722 87.5568 87.9323 87.52 87.9001C86.866 87.2407 84.1247 87.1671 83.1219 87.1943C83.0678 87.1944 83.0157 87.1748 82.9749 87.1393C82.9342 87.1038 82.9077 87.0547 82.9004 87.0011C82.8931 86.9476 82.9054 86.8932 82.9351 86.8481C82.9648 86.803 83.0099 86.7701 83.0619 86.7556C85.1629 86.2324 86.9887 85.5212 87.0541 85.1997C86.8088 84.8318 83.6315 84.5974 80.8274 84.6001C80.7785 84.6006 80.7308 84.5848 80.6918 84.5552C80.6528 84.5256 80.6248 84.4839 80.6121 84.4366C80.599 84.3899 80.6015 84.3401 80.6192 84.2949C80.6369 84.2496 80.6689 84.2114 80.7102 84.186C82.863 82.8807 84.5689 81.4201 84.3672 81.0631C84.1656 80.7061 81.495 81.6571 78.7591 83.0496C78.7121 83.0736 78.6581 83.0803 78.6065 83.0687L71.249 81.2539C71.2139 81.2438 71.1813 81.2261 71.1537 81.2021C65.1832 75.8801 50.1248 63.8765 39.2712 67.3727C30.3277 70.253 28.4856 89.9439 28.4665 90.1428C28.4641 90.1718 28.456 90.2001 28.4426 90.226C28.4293 90.2518 28.4109 90.2748 28.3886 90.2936C28.3663 90.3123 28.3405 90.3264 28.3127 90.3352C28.285 90.3439 28.2557 90.3471 28.2267 90.3445C28.1679 90.3389 28.1136 90.3103 28.0758 90.2648C28.038 90.2194 28.0198 90.1608 28.0251 90.1019C28.0932 89.279 29.7009 72.0733 37.5898 67.5825Z" fill="#CE5959"/>
<path fill-rule="evenodd" clip-rule="evenodd" d="M46.2748 32.1744C46.3588 32.2648 46.3535 32.4062 46.2631 32.4902C44.9414 33.7175 42.6603 37.103 40.6057 41.5556C38.5546 46.0007 36.7447 51.4764 36.344 56.868C36.3349 56.9911 36.2277 57.0835 36.1046 57.0743C35.9815 57.0652 35.8892 56.958 35.8983 56.8349C36.3042 51.3729 38.1349 45.8436 40.1999 41.3684C42.2615 36.9007 44.572 33.4506 45.959 32.1627C46.0494 32.0787 46.1908 32.084 46.2748 32.1744Z" fill="#CE5959"/>
<path fill-rule="evenodd" clip-rule="evenodd" d="M65.3222 27.1448C65.4163 27.2246 65.4279 27.3656 65.3481 27.4597C65.2752 27.5456 65.1628 27.763 65.0148 28.1355C64.8712 28.4971 64.7044 28.9768 64.516 29.5602C64.1391 30.7266 63.6798 32.294 63.1509 34.1318C62.9837 34.7126 62.8097 35.3203 62.6291 35.9506C61.668 39.3058 60.5236 43.3007 59.2615 47.2944C57.7627 52.037 56.095 56.7871 54.3667 60.4694C53.5028 62.31 52.6199 63.8921 51.7305 65.075C50.8467 66.2505 49.9311 67.0665 48.9913 67.3161C48.872 67.3477 48.7497 67.2767 48.718 67.1575C48.6863 67.0382 48.7573 66.9158 48.8766 66.8841C49.6658 66.6745 50.5046 65.9619 51.3733 64.8065C52.2364 63.6584 53.1042 62.1073 53.9621 60.2795C55.6775 56.6249 57.3381 51.8977 58.8354 47.1597C60.0955 43.1724 61.238 39.1842 62.1991 35.8289C62.3798 35.1982 62.554 34.5899 62.7215 34.0082C63.2502 32.1711 63.7113 30.5971 64.0907 29.4228C64.2803 28.8359 64.4506 28.3455 64.5995 27.9705C64.7441 27.6064 64.8799 27.3207 65.0073 27.1706C65.0871 27.0765 65.2281 27.0649 65.3222 27.1448Z" fill="#CE5959"/>
<path fill-rule="evenodd" clip-rule="evenodd" d="M22.1092 57.4321C22.2009 57.3495 22.3422 57.3568 22.4248 57.4485C24.3815 59.619 28.1864 62.1297 31.5263 64.1073C33.1917 65.0933 34.7338 65.9424 35.8596 66.545C36.4224 66.8463 36.881 67.0859 37.1988 67.2501C37.3576 67.3321 37.4813 67.3954 37.5651 67.438C37.5851 67.4482 37.6029 67.4572 37.6183 67.4651C37.6352 67.4736 37.6493 67.4807 37.6605 67.4864L37.6847 67.4986L37.6926 67.5026C37.6926 67.5026 37.6927 67.5026 37.5924 67.7023C37.4922 67.9021 37.4921 67.902 37.492 67.902L37.4916 67.9018L37.4837 67.8978L37.4589 67.8853C37.4371 67.8743 37.4048 67.8579 37.3624 67.8363C37.2778 67.7933 37.1534 67.7296 36.9936 67.6471C36.6742 67.482 36.2136 67.2415 35.6487 66.939C34.5189 66.3343 32.971 65.482 31.2986 64.4918C27.963 62.5168 24.1011 59.9754 22.0929 57.7477C22.0103 57.6561 22.0176 57.5148 22.1092 57.4321ZM37.7921 67.8026C37.7368 67.9129 37.6023 67.9573 37.492 67.902L37.5924 67.7023L37.6926 67.5026C37.8029 67.558 37.8475 67.6923 37.7921 67.8026Z" fill="#CE5959"/>
<path fill-rule="evenodd" clip-rule="evenodd" d="M22.6292 62.9742C22.661 62.855 22.7834 62.7841 22.9026 62.8158L22.8451 63.0318L22.7875 63.2477C22.6683 63.2159 22.5974 63.0935 22.6292 62.9742ZM22.8451 63.0318C22.7875 63.2477 22.7875 63.2477 22.7875 63.2477L22.807 63.2528L22.863 63.2676C22.9122 63.2805 22.9845 63.2994 23.0771 63.3232C23.2623 63.371 23.5291 63.4389 23.8554 63.5196C24.5081 63.6808 25.3999 63.8931 26.356 64.0971C27.3115 64.301 28.334 64.4972 29.2472 64.6257C30.1532 64.7532 30.9752 64.8177 31.5178 64.7466C31.6402 64.7306 31.7264 64.6184 31.7104 64.496C31.6943 64.3737 31.5821 64.2875 31.4598 64.3035C30.9833 64.3659 30.2152 64.3106 29.3095 64.1831C28.4109 64.0567 27.3998 63.8628 26.4492 63.66C25.4991 63.4573 24.6122 63.2462 23.9626 63.0857C23.6379 63.0055 23.3727 62.938 23.1887 62.8905C23.0967 62.8668 23.0251 62.8481 22.9765 62.8353L22.9212 62.8208L22.9026 62.8158C22.9026 62.8158 22.9026 62.8158 22.8451 63.0318Z" fill="#CE5959"/>
<path fill-rule="evenodd" clip-rule="evenodd" d="M60.8088 40.9935C60.9209 40.9417 61.0536 40.9907 61.1053 41.1027C63.6891 46.7016 67.1316 49.775 69.9191 51.4494C71.3139 52.2872 72.5465 52.7758 73.4282 53.0546C73.869 53.194 74.2219 53.2809 74.4634 53.3328C74.5841 53.3587 74.6769 53.3759 74.7388 53.3865C74.7698 53.3918 74.7931 53.3955 74.8082 53.3978C74.8158 53.3989 74.8214 53.3997 74.8249 53.4002L74.8286 53.4007L74.8291 53.4008C74.9514 53.417 75.0376 53.5292 75.0215 53.6515C75.0055 53.7738 74.8932 53.86 74.7709 53.8439L74.8 53.6223C74.7709 53.8439 74.7707 53.8439 74.7705 53.8438L74.7683 53.8435L74.7625 53.8427C74.7576 53.842 74.7506 53.841 74.7416 53.8397C74.7235 53.837 74.6974 53.8328 74.6634 53.827C74.5955 53.8154 74.4965 53.797 74.3695 53.7697C74.1153 53.7151 73.7487 53.6246 73.2934 53.4807C72.383 53.1928 71.1176 52.6906 69.689 51.8325C66.8295 50.1149 63.3233 46.9753 60.6996 41.29C60.6479 41.1779 60.6968 41.0452 60.8088 40.9935Z" fill="#CE5959"/>
<path d="M75.669 17.9331C75.669 17.9331 81.089 15.9029 80.4977 14.2924C79.9064 12.682 77.8981 13.009 76.086 14.5295C74.2739 16.0501 74.5709 15.7176 74.5709 15.7176L73.9223 14.8674C73.9223 14.8674 77.3667 12.5021 76.8435 11.5811C76.3203 10.66 73.7152 12.7937 73.7152 12.7937C73.7152 12.7937 75.5219 10.5456 74.8325 10.0469C74.1431 9.54821 71.7042 11.8263 71.7042 11.8263C71.7042 11.8263 73.0231 8.72255 72.4563 8.15302C71.8895 7.5835 69.3198 10.333 69.3198 10.333C69.3198 10.333 70.6169 8.05219 69.9956 7.67342C69.3743 7.29464 68.8239 7.0412 65.8727 9.69808C62.9215 12.355 67.6194 16.3335 67.6194 16.3335L74.6117 17.0638L75.669 17.9331Z" fill="#FFA192"/>
<path d="M89.9784 114.453C89.9784 114.453 92.5099 115.69 94.1804 113.278C95.8508 110.866 89.1364 107.624 86.9673 108.735C84.7982 109.847 86.2042 111.242 86.2042 111.242L89.9784 114.453Z" fill="#E88A80"/>
<path d="M49.4463 138.517C49.0021 135.013 48.9912 131.394 48.7869 127.641C48.6588 125.252 48.3127 122.859 48.5144 120.475C49.152 113.191 55.2833 106.882 61.4472 103.542C66.8073 100.637 75.8898 98.0562 81.3398 101.825C84.7542 104.182 86.2802 108.365 88.6428 111.785C92.7303 117.698 99.115 121.396 101.262 128.628C103.17 135.045 101.873 142.4 97.9923 147.842C88.2449 161.546 64.1423 165.031 53.7464 150.335C51.0704 146.537 49.9641 142.604 49.4463 138.517Z" fill="#FFA192"/>
<path d="M50.3893 132.775C50.3893 132.775 49.7299 139.536 43.1217 136.171C40.4976 134.836 41.3723 127.195 49.1957 127.047C49.1957 127.047 51.7954 128.015 50.3893 132.775Z" fill="#FFA192"/>
<path fill-rule="evenodd" clip-rule="evenodd" d="M48.7464 129.631C48.7822 129.658 48.8769 129.741 48.8601 129.878C48.8494 129.964 48.8023 130.043 48.7693 130.094C48.7312 130.153 48.6815 130.22 48.6315 130.286C48.6269 130.292 48.6223 130.298 48.6176 130.304C48.5174 130.437 48.4051 130.586 48.3095 130.753C48.1101 131.1 48.0085 131.478 48.2388 131.875C48.3624 132.088 48.5005 132.201 48.6294 132.26C48.7602 132.321 48.8978 132.333 49.0296 132.319C49.1623 132.306 49.2833 132.266 49.3727 132.228C49.417 132.209 49.4521 132.191 49.4755 132.179C49.4872 132.172 49.4959 132.167 49.5012 132.164L49.5066 132.161C49.5066 132.161 49.5065 132.161 49.5066 132.161C49.5065 132.161 49.5066 132.161 49.6206 132.342C49.7347 132.523 49.7346 132.523 49.7345 132.523L49.7338 132.524L49.7325 132.524L49.7289 132.527C49.7261 132.528 49.7222 132.531 49.7174 132.533C49.7079 132.539 49.6946 132.547 49.678 132.556C49.6448 132.573 49.5978 132.597 49.5398 132.622C49.4818 132.646 49.4114 132.672 49.3318 132.695C49.2537 132.717 49.1668 132.735 49.074 132.745C48.8856 132.765 48.6672 132.749 48.4505 132.649C48.2321 132.549 48.0312 132.37 47.8687 132.09C47.5267 131.5 47.7058 130.945 47.9384 130.54C48.0479 130.349 48.1749 130.181 48.2731 130.051C48.2788 130.043 48.2844 130.036 48.2899 130.028C48.3195 129.989 48.3451 129.955 48.3668 129.925C48.2985 129.905 48.2083 129.884 48.0975 129.866C47.7892 129.813 47.3546 129.78 46.875 129.798C45.9021 129.832 44.815 130.072 44.1953 130.704C44.1126 130.789 43.9772 130.79 43.8928 130.707C43.8085 130.625 43.8071 130.489 43.8898 130.405C44.63 129.65 45.8618 129.406 46.8597 129.37C47.3655 129.352 47.8293 129.386 48.1689 129.444C48.3373 129.472 48.4835 129.508 48.5914 129.549C48.6437 129.569 48.7 129.595 48.7464 129.631ZM42.9867 133.693C42.9867 133.693 42.9867 133.692 42.9866 133.692C42.9679 133.576 42.8585 133.497 42.742 133.515C42.6253 133.534 42.5457 133.643 42.5642 133.76L42.7755 133.726C42.5642 133.76 42.5642 133.76 42.5642 133.76L42.5643 133.761L42.5645 133.762L42.5649 133.764L42.5664 133.773C42.5677 133.78 42.5695 133.79 42.5721 133.802C42.5771 133.826 42.5848 133.86 42.5959 133.903C42.6181 133.988 42.6543 134.106 42.7107 134.246C42.8233 134.524 43.0182 134.888 43.3477 135.231C44.0165 135.928 45.2024 136.5 47.2562 136.172C48.3205 136.003 48.9598 134.995 49.326 134.122C49.5135 133.675 49.6396 133.239 49.7189 132.916C49.7585 132.755 49.7867 132.62 49.8049 132.526C49.8141 132.479 49.8207 132.442 49.8252 132.416C49.8274 132.403 49.8291 132.393 49.8302 132.386L49.8315 132.378L49.8319 132.376L49.832 132.375C49.832 132.375 49.832 132.375 49.6206 132.342L49.832 132.375C49.8448 132.292 49.8081 132.209 49.738 132.163C49.668 132.117 49.5774 132.117 49.5066 132.161M49.3318 132.695C49.3231 132.733 49.3136 132.773 49.3034 132.814C49.2276 133.123 49.1078 133.536 48.9315 133.956C48.5701 134.818 48.0104 135.619 47.189 135.75C45.2508 136.059 44.2131 135.515 43.6563 134.935C43.373 134.64 43.2046 134.325 43.1072 134.085C43.0586 133.965 43.028 133.864 43.0097 133.794C43.0006 133.76 42.9946 133.733 42.9911 133.715C42.9893 133.707 42.9881 133.7 42.9874 133.696L42.9867 133.693" fill="#F97070"/>
<path fill-rule="evenodd" clip-rule="evenodd" d="M60.1006 126.578L60.1007 126.578L60.1033 126.57C60.1059 126.562 60.11 126.55 60.1159 126.534C60.1276 126.501 60.1461 126.45 60.1717 126.386C60.223 126.257 60.3026 126.071 60.4139 125.851C60.6374 125.409 60.9838 124.838 61.4768 124.309C62.4472 123.269 63.9895 122.381 66.377 122.999C66.6152 123.061 66.8583 122.917 66.9199 122.679C66.9816 122.441 66.8384 122.198 66.6002 122.136C63.8374 121.421 61.9735 122.471 60.8253 123.701C60.2589 124.308 59.8678 124.956 59.6187 125.449C59.4937 125.696 59.4033 125.907 59.3435 126.057C59.3136 126.132 59.2913 126.193 59.2762 126.235C59.2686 126.257 59.2629 126.273 59.2588 126.286L59.254 126.3L59.2525 126.305L59.252 126.306L59.2518 126.307C59.2518 126.307 59.2517 126.307 59.6761 126.443L59.2517 126.307C59.1769 126.542 59.3062 126.792 59.5406 126.867C59.7749 126.942 60.0255 126.813 60.1005 126.578L60.1006 126.578Z" fill="#333333"/>
<path fill-rule="evenodd" clip-rule="evenodd" d="M79.9598 116.15L79.9598 116.15L79.9623 116.143C79.9647 116.137 79.9688 116.127 79.9746 116.112C79.9861 116.083 80.0043 116.04 80.0294 115.983C80.0798 115.87 80.1577 115.707 80.2655 115.514C80.4821 115.126 80.8145 114.625 81.2793 114.163C82.1944 113.253 83.6269 112.483 85.7848 113.052C86.0228 113.115 86.2665 112.973 86.3293 112.735C86.3921 112.497 86.2501 112.253 86.0122 112.191C83.4913 111.525 81.7451 112.443 80.6512 113.531C80.1115 114.067 79.7318 114.641 79.4875 115.079C79.3648 115.299 79.2751 115.487 79.2153 115.621C79.1854 115.688 79.163 115.742 79.1477 115.78C79.14 115.799 79.1341 115.815 79.1299 115.825L79.1249 115.839L79.1234 115.843L79.1228 115.844L79.1226 115.845C79.1225 115.845 79.1225 115.845 79.5411 115.998L79.1225 115.845C79.0383 116.076 79.1575 116.332 79.3887 116.416C79.6198 116.5 79.8753 116.381 79.9596 116.15L79.9598 116.15Z" fill="#333333"/>
<path fill-rule="evenodd" clip-rule="evenodd" d="M71.5853 111.01C71.7049 111.04 71.777 111.162 71.7465 111.281C71.7359 111.323 71.7454 111.375 71.7937 111.433C71.8411 111.489 71.9128 111.533 71.984 111.549C72.2025 111.564 72.4219 111.536 72.6292 111.464C72.6334 111.463 72.6376 111.462 72.6419 111.46C73.2499 111.291 73.8976 111.337 74.4756 111.591L74.4789 111.592L74.4789 111.592C74.7787 111.73 75.033 111.95 75.2116 112.228C75.3902 112.505 75.4856 112.828 75.4867 113.157C75.4867 113.163 75.4865 113.169 75.4861 113.174C75.4638 113.484 75.3475 113.761 75.2265 114.008C75.1899 114.083 75.1536 114.153 75.1184 114.222C75.0319 114.391 74.9521 114.546 74.8912 114.714C74.7411 115.165 74.7532 115.655 74.9256 116.098C75.0983 116.542 75.4209 116.912 75.8376 117.143C75.9455 117.203 75.9845 117.339 75.9246 117.447C75.8647 117.555 75.7287 117.594 75.6208 117.534C75.1129 117.252 74.7196 116.801 74.5091 116.26C74.2986 115.719 74.2841 115.121 74.4682 114.57L74.47 114.564C74.5414 114.367 74.6413 114.172 74.7328 113.994C74.7652 113.931 74.7965 113.87 74.8252 113.811C74.9391 113.579 75.0224 113.369 75.0397 113.15C75.0374 112.909 74.9667 112.673 74.8358 112.47C74.7038 112.265 74.5159 112.101 74.2943 112C73.8131 111.789 73.2741 111.75 72.7677 111.889C72.5001 111.98 72.2168 112.016 71.9351 111.994C71.9265 111.993 71.9179 111.992 71.9095 111.99C71.7336 111.956 71.5666 111.857 71.4516 111.72C71.3351 111.581 71.2587 111.385 71.3135 111.171C71.344 111.051 71.4657 110.979 71.5853 111.01Z" fill="#CE5959"/>
<path fill-rule="evenodd" clip-rule="evenodd" d="M69.4212 129.098C69.6916 129.479 69.6019 130.007 69.2208 130.277C67.412 131.561 65.8428 131.974 64.6821 132.042C64.1061 132.076 63.6413 132.024 63.3095 131.958C63.1437 131.926 63.0112 131.89 62.9146 131.86C62.8663 131.845 62.8269 131.831 62.7968 131.82C62.7817 131.815 62.7689 131.81 62.7585 131.806C62.7533 131.804 62.7487 131.802 62.7446 131.8L62.739 131.798L62.7365 131.797L62.7354 131.796C62.7348 131.796 62.7343 131.796 63.0579 131.021L62.7343 131.796C62.3031 131.616 62.0996 131.12 62.2797 130.689C62.4584 130.261 62.9476 130.057 63.3763 130.23C63.3767 130.23 63.377 130.23 63.3775 130.231C63.3827 130.232 63.3961 130.237 63.4173 130.244C63.4598 130.257 63.5335 130.278 63.6362 130.298C63.8414 130.338 64.1628 130.377 64.5834 130.353C65.4161 130.304 66.6822 130.004 68.2416 128.897C68.6227 128.627 69.1508 128.716 69.4212 129.098Z" fill="#563136"/>
<path fill-rule="evenodd" clip-rule="evenodd" d="M88.216 116.315C88.6758 116.398 88.9811 116.838 88.8978 117.298L88.0652 117.148C88.8978 117.298 88.8977 117.299 88.8976 117.299L88.8974 117.301L88.8969 117.303L88.8958 117.309C88.8949 117.314 88.894 117.318 88.8928 117.324C88.8906 117.335 88.8878 117.348 88.8842 117.364C88.877 117.395 88.867 117.435 88.8534 117.484C88.8261 117.581 88.7843 117.712 88.7216 117.869C88.5962 118.183 88.3876 118.601 88.0467 119.066C87.3599 120.003 86.1616 121.096 84.1042 121.92C83.6704 122.093 83.1779 121.883 83.0042 121.449C82.8305 121.015 83.0414 120.522 83.4752 120.349C85.2492 119.638 86.1887 118.738 86.6818 118.065C86.9309 117.726 87.0727 117.435 87.1503 117.241C87.1892 117.143 87.2119 117.07 87.2239 117.028C87.2299 117.006 87.2332 116.992 87.2344 116.987C87.2345 116.987 87.2346 116.986 87.2347 116.986C87.3229 116.532 87.7598 116.232 88.216 116.315Z" fill="#563136"/>
<path d="M69.4561 104.847C68.6364 105.009 67.8549 105.325 67.1534 105.779C66.9977 105.878 66.8484 105.987 66.7065 106.106C66.5394 106.224 66.4121 106.391 66.3414 106.583C66.3074 106.679 66.3078 106.785 66.3425 106.881C66.3773 106.977 66.4443 107.059 66.5321 107.111C67.7516 107.075 68.9281 106.652 69.8921 105.904C70.0332 105.806 70.1528 105.68 70.2436 105.534C70.2885 105.46 70.3139 105.376 70.3172 105.289C70.3206 105.203 70.3018 105.117 70.2627 105.04C70.1128 104.784 69.7449 104.79 69.4561 104.847Z" fill="#333333"/>
<path d="M88.3405 161.843C87.3649 160.126 85.3593 159.211 83.3946 159.017C81.4299 158.824 79.4652 159.246 77.525 159.614C75.5848 159.982 73.5873 160.301 71.6526 159.908C73.0151 158.273 74.3095 156.532 75.0534 154.537C76.6884 150.177 75.3095 144.872 71.7834 141.847C73.7617 141.111 76.0044 142.629 76.8246 144.572C77.6449 146.515 77.4323 148.722 77.2007 150.82C77.0753 151.983 76.9482 153.146 76.8192 154.308C78.6631 151.457 80.1831 148.409 81.3509 145.22C82.0539 143.313 82.6344 141.267 82.3946 139.225C82.2147 137.705 81.5771 136.28 80.9612 134.865C81.7961 134.984 82.5854 135.318 83.2505 135.837C83.9156 136.355 84.4332 137.039 84.7517 137.819C85.0542 138.606 85.1784 139.45 85.1153 140.291C85.0521 141.132 84.8032 141.948 84.3865 142.681C83.8688 143.61 83.1194 144.392 82.5254 145.275C81.9313 146.158 81.479 147.221 81.6752 148.272C83.2502 146.142 84.8471 143.989 86.8935 142.302C88.94 140.615 91.526 139.424 94.1584 139.55C89.6376 141.119 86.4357 145.874 86.681 150.657L89.3269 148.387C92.0138 146.082 94.8178 143.61 95.9596 140.258C95.886 142.561 95.8043 144.891 95.1421 147.095C93.5916 152.18 89.0626 155.878 84.1794 157.995C86.3131 157.636 88.5176 159.668 88.3405 161.843Z" fill="#563136"/>
<path d="M114.511 127.007C114.239 129.696 113.792 132.729 111.555 134.258C111.744 129.704 110.88 125.168 109.031 121.002C107.182 116.836 104.396 113.154 100.892 110.24C98.9597 108.659 96.8287 107.332 94.8967 105.752C84.6398 97.3831 81.2444 83.3085 79.6367 70.1685C79.3015 67.4272 79.0481 64.5005 80.2988 62.0399C80.9147 60.8245 81.9339 59.7645 83.201 59.2958C86.3593 58.1431 89.6102 60.8545 91.376 63.7157C92.5069 65.5469 94.1173 67.8741 96.1829 67.2582C97.4909 66.8713 98.1476 65.4407 98.5673 64.1408C102.178 52.9683 99.9816 40.5341 94.7523 30.0293C93.6405 27.7948 92.2998 25.5303 90.1661 24.2441C88.2586 23.0969 85.9369 22.8816 83.7133 22.9634C81.3725 23.0615 78.8083 23.6282 77.4458 25.533C76.1459 27.3451 76.3558 29.9121 77.3886 31.8905C78.4213 33.8688 80.1408 35.3866 81.833 36.8418C83.8414 38.5721 85.9205 40.3216 87.283 42.5943C88.6455 44.8669 89.1905 47.8072 88.0242 50.1834C86.5391 53.1809 82.8713 54.3663 79.5359 54.6197C76.2005 54.8731 72.7424 54.5107 69.6059 55.6688C67.7825 56.3695 66.1793 57.5444 64.962 59.0721C63.7447 60.5998 62.9574 62.425 62.6817 64.3588C61.1966 63.3342 61.1448 61.0725 61.9269 59.4538C63.8153 55.5271 68.783 54.3717 73.1185 53.9084C77.4539 53.4452 82.3481 52.9274 85.0158 49.4803C85.6426 48.6628 86.1058 47.6764 86.035 46.6545C85.9614 45.7198 85.4437 44.8832 84.8878 44.1311C82.6151 41.0492 79.525 38.6675 77.0479 35.7491C74.5709 32.8306 72.6716 28.9911 73.5054 25.2551C74.7153 19.8378 81.4815 17.1073 86.8116 18.6551C92.1417 20.2029 96.0385 24.8137 98.6981 29.6859C104.11 39.699 105.623 51.3617 102.944 62.4241C102.328 64.9174 101.431 67.4708 99.5455 69.212C97.6598 70.9533 94.5288 71.5801 92.5123 69.9887C91.2507 68.9913 90.6729 67.389 89.8881 65.9829C89.1033 64.5768 87.8199 63.1871 86.2121 63.2579C84.866 63.3152 83.7596 64.4351 83.2909 65.7104C82.8222 66.9857 82.9039 68.3673 83.0184 69.708C83.5131 75.3346 84.7312 80.8738 86.6427 86.1888C87.5746 88.783 88.978 91.6061 91.6185 92.4018C93.9893 93.113 96.5726 91.8568 98.2593 90.0392C99.9461 88.2217 100.984 85.9163 102.238 83.7853C104.892 79.3054 108.012 76.0191 110.702 67.9095C107.999 76.0627 109.767 89.7994 111.189 98.2714C112.301 104.899 114.675 111.335 114.966 118.049C115.086 121.031 114.8 124.023 114.511 127.007Z" fill="#FF7976"/>
<path d="M118.94 106.852C118.975 101.71 120.389 96.6855 121.062 91.5925C121.735 86.4995 121.58 80.9786 118.795 76.654C118.392 76.0273 117.904 75.4087 117.215 75.128C116.108 74.6784 114.858 75.2316 113.866 75.8938C110.35 78.2264 107.95 81.9732 106.587 85.9763C105.958 87.8238 105.527 89.7422 104.729 91.5216C103.93 93.301 102.701 94.9824 100.935 95.8108C99.3632 96.552 97.363 96.6446 96.2867 98.0126C95.2103 99.3805 95.6081 101.367 96.6327 102.713C97.6573 104.059 99.1833 104.91 100.625 105.798C104.107 107.945 107.361 110.588 109.666 113.973C110.506 115.202 111.301 116.6 112.678 117.172C114.898 118.099 117.452 116.256 118.324 114.017C119.196 111.777 118.923 109.259 118.94 106.852Z" fill="#F99595"/>
</svg>
