<svg width="100" height="103" viewBox="0 0 100 103" fill="none" xmlns="http://www.w3.org/2000/svg">
<path d="M48.4644 0.920638C41.1669 0.457388 33.6159 1.84169 27.5256 4.49039C3.43657 14.9735 -5.36247 45.676 3.46108 69.2091C9.67135 85.7771 23.5798 97.6336 40.7582 101.454C65.3894 106.934 100.335 91.4233 99.0132 62.1623C98.5063 50.8917 89.9907 41.97 83.933 33.171C78.0471 24.6227 74.9405 14.0279 66.6129 7.32167C61.6562 3.33499 55.1652 1.34846 48.4644 0.920638Z" fill="#FF7976"/>
<path d="M11.4944 69.686C11.696 70.1329 11.9059 70.5771 12.1184 71.0186C15.481 77.9237 20.4514 84.164 26.9342 88.2787C33.9702 92.745 42.404 94.5108 50.7153 95.1294C66.3922 96.2929 82.6904 90.9111 88.996 75.2505C91.0997 70.0239 91.4649 63.8872 88.9306 58.8569C86.3964 53.8265 80.4613 50.066 74.8669 51.622C69.2725 53.178 64.4738 58.4699 58.3017 57.8541C70.7712 54.5023 73.2892 38.9453 70.6377 28.1679C68.9837 21.4753 65.2831 15.1806 59.7377 11.0658C42.821 -1.51549 19.2089 13.1995 11.3799 29.4623C5.38222 41.9428 5.86726 57.1865 11.4944 69.686Z" fill="#4E5682"/>
<path opacity="0.17" d="M56.964 91.8375C63.6811 91.486 70.0112 89.1371 74.8154 84.1748C79.4724 79.3625 82.3637 70.9041 79.6114 64.4186C76.8347 57.8786 68.3463 56.6305 62.076 56.0855C64.019 56.2545 66.436 45.33 66.6731 43.8612C67.3843 39.1275 67.0768 34.2965 65.7712 29.6912C62.6837 18.8484 53.8574 11.3737 42.1754 12.3493C23.8824 13.8753 16.0372 32.7132 14.7292 48.8452C14.0479 57.23 15.5467 65.931 19.9067 73.1222C26.7464 84.3765 42.7231 92.5896 56.964 91.8375Z" fill="white"/>
<path d="M59.0485 39.5148C59.9287 37.0024 60.5309 34.9259 60.5827 34.4763C60.9942 30.9202 60.3593 27.1542 58.291 24.2357C51.2469 14.3004 37.036 19.4316 31.3135 27.8573C21.9422 41.6894 23.1085 63.7074 33.3954 76.8173C35.8479 79.9538 39.1615 82.2019 43.1509 82.6734C47.1403 83.1448 51.6365 82.4962 54.9147 85.3984C55.5905 85.9951 56.1464 86.7227 56.8685 87.2623C59.3564 89.118 63.5175 87.75 64.4195 84.7825C62.9998 83.5644 60.7789 84.5809 58.9695 84.1258C56.517 83.5045 55.5142 80.4607 53.3342 79.1636C55.1573 78.4289 56.7219 77.1706 57.8304 75.5475C58.8469 74.0542 59.8143 72.0513 61.6182 72.005C63.4222 71.9587 64.4658 73.8907 65.8338 75.0297C66.7132 75.734 67.7853 76.1555 68.9089 76.2387C70.0325 76.3219 71.155 76.0629 72.1285 75.4957C73.0659 74.9262 73.8562 73.9888 73.9407 72.8933C74.0251 71.7979 73.194 70.6207 72.0958 70.6016C70.9977 70.5825 70.1475 71.5962 69.0711 71.8115C67.7495 72.084 66.5041 71.0621 65.7547 69.9449C65.0054 68.8276 64.5094 67.5142 63.5203 66.5986C61.0677 64.3259 59.3701 61.402 57.9504 58.4236C57.5443 57.5679 54.7049 49.7908 53.0671 50.4829C56.4271 49.0632 57.9694 42.5968 59.0485 39.5148Z" fill="#FFA192"/>
<path d="M55.4898 52.7992C54.6723 51.3195 53.8085 50.2023 53.1436 50.4829C53.434 50.3524 53.7083 50.1887 53.9611 49.9952L53.6886 49.9025C49.3858 49.8017 46.0858 50.502 40.5813 42.4987C40.5976 42.4987 42.2599 54.9029 55.4898 52.7992Z" fill="#E88A80"/>
<path fill-rule="evenodd" clip-rule="evenodd" d="M36.0227 49.8229C36.0922 49.778 36.185 49.798 36.2299 49.8676C37.3226 51.5616 38.7897 52.9821 40.5181 54.0196C42.2463 55.057 44.1896 55.6838 46.1982 55.8517C46.4675 55.8717 46.7446 55.8753 46.9946 55.827C47.2435 55.7789 47.4553 55.6815 47.6077 55.5075M36.0227 49.8229C35.9531 49.8678 35.9331 49.9605 35.978 50.0301L36.0227 49.8229ZM35.978 50.0301C37.0956 51.7627 38.5961 53.2155 40.3638 54.2766L35.978 50.0301ZM51.7843 53.2619C52.0411 53.1924 52.3244 53.2023 52.5648 53.3715C52.624 53.4133 52.6449 53.4915 52.6144 53.5572C52.4369 53.9393 52.2315 54.3073 52.0001 54.6585C52.1945 54.568 52.3993 54.4992 52.6108 54.4539C53.1032 54.3485 53.6147 54.3742 54.094 54.5286C54.1445 54.5449 54.1826 54.5866 54.1943 54.6383C54.2059 54.69 54.1894 54.744 54.1508 54.7804L52.7716 56.0791C53.4912 55.9645 54.2303 56.0184 54.9299 56.2397C54.9874 56.2579 55.0284 56.3088 55.0339 56.3688C55.0691 56.7514 54.8568 57.0435 54.5799 57.2433C54.3043 57.4422 53.9458 57.5659 53.6263 57.6203C53.6008 57.6247 53.5752 57.629 53.5496 57.6333C53.2643 57.6815 52.9747 57.7304 52.7222 57.8245C52.5194 57.9001 52.3539 58.0002 52.2397 58.1416L53.5941 58.4547L53.5941 58.4547C53.7154 58.4828 53.8625 58.5335 53.9788 58.6161C54.0959 58.6992 54.2075 58.8362 54.1801 59.0276C54.1619 59.1602 54.0823 59.2549 53.9975 59.3182C53.9138 59.3808 53.815 59.4211 53.7302 59.4469C53.2048 59.6142 52.668 59.6247 52.1404 59.6048C51.9957 59.5993 51.8525 59.5917 51.7103 59.5841C51.3259 59.5636 50.9484 59.5434 50.5669 59.5678C49.7866 59.6177 49.0452 59.8606 48.2831 60.1103C48.0267 60.1943 47.7679 60.2791 47.5045 60.3576L47.5025 60.3582L47.5025 60.3582C45.0305 61.0565 42.4172 61.0844 39.9309 60.4388C37.4446 59.7933 35.1749 58.4977 33.3549 56.685C33.2963 56.6266 33.2961 56.5317 33.3545 56.473C33.4129 56.4144 33.5078 56.4142 33.5664 56.4726C35.3488 58.2477 37.5714 59.5165 40.0062 60.1487C42.4407 60.7808 44.9995 60.7536 47.42 60.07C47.6651 59.997 47.9122 59.9159 48.1616 59.8341C48.9328 59.5813 49.7259 59.3212 50.5478 59.2687C50.9482 59.2431 51.352 59.2646 51.7418 59.2855C51.8805 59.2929 52.0173 59.3002 52.1517 59.3053C52.6715 59.3249 53.1658 59.3122 53.6401 59.161L53.6421 59.1604C53.7096 59.1399 53.7725 59.1121 53.818 59.0781C53.8625 59.0449 53.8794 59.0145 53.8832 58.9866L53.8834 58.9853C53.8884 58.9509 53.8762 58.9109 53.8053 58.8605C53.7336 58.8096 53.6286 58.7704 53.5265 58.7467L51.9706 58.387C51.9269 58.3769 51.89 58.3478 51.8701 58.3077C51.8501 58.2675 51.8492 58.2205 51.8676 58.1796C52.0173 57.8463 52.3068 57.6595 52.6176 57.5437C52.8984 57.439 53.2162 57.3855 53.496 57.3384C53.523 57.3338 53.5497 57.3293 53.576 57.3248C53.8642 57.2757 54.176 57.1651 54.4045 57.0002C54.6001 56.8591 54.7203 56.6905 54.7361 56.4942C53.9463 56.2654 53.1075 56.2622 52.3148 56.4859C52.2484 56.5047 52.1777 56.4756 52.1437 56.4155C52.1096 56.3555 52.1211 56.2799 52.1713 56.2326L53.7495 54.7465C53.3958 54.6711 53.0291 54.6709 52.6735 54.747C52.2324 54.8415 51.8239 55.0502 51.4888 55.3521C51.4307 55.4045 51.3421 55.4034 51.2853 55.3495C51.2286 55.2957 51.2228 55.2073 51.272 55.1465C51.6684 54.6571 52.0073 54.1241 52.2823 53.5578C52.1578 53.5097 52.0145 53.5101 51.8626 53.5512C51.6626 53.6053 51.4618 53.7272 51.3065 53.8751C51.1827 53.993 51.0737 54.1239 50.9583 54.2623C50.922 54.3059 50.8851 54.3502 50.8469 54.3951C50.6915 54.5777 50.5192 54.7641 50.3012 54.9059C50.0725 55.0547 49.7778 55.1219 49.5106 55.0906C49.2421 55.0592 48.9781 54.9236 48.8581 54.643L48.8577 54.642C48.8205 54.5533 48.802 54.4603 48.7897 54.3752C48.7835 54.3324 48.7787 54.2895 48.7742 54.2494L48.7735 54.2438C48.7692 54.205 48.7652 54.1688 48.7603 54.1336C48.7458 54.0292 48.7262 53.9573 48.6937 53.907C48.4856 54.0317 48.3845 54.2732 48.2905 54.6018C48.2758 54.653 48.2612 54.7068 48.2463 54.7619C48.2102 54.8946 48.172 55.035 48.1261 55.1665C48.06 55.3558 47.972 55.5457 47.8336 55.7044L47.8334 55.7046C47.6234 55.9447 47.342 56.0652 47.0514 56.1213C46.7621 56.1772 46.4535 56.1713 46.1753 56.1505L46.174 56.1504C44.1193 55.9788 42.1316 55.3378 40.3638 54.2766M51.7843 53.2619C51.5285 53.3311 51.2851 53.4816 51.0998 53.658L51.7843 53.2619ZM48.6679 53.5865C48.7147 53.5678 48.7677 53.5739 48.809 53.6027C48.991 53.7293 49.0349 53.9323 49.0572 54.0924C49.0626 54.1317 49.0671 54.1716 49.0713 54.2094L49.0721 54.2161C49.0766 54.2566 49.0809 54.2949 49.0863 54.3324C49.0972 54.4075 49.1113 54.4714 49.1339 54.5256C49.1993 54.678 49.3481 54.7698 49.5454 54.7929C49.7441 54.8161 49.9685 54.7648 50.1377 54.6547C50.3176 54.5376 50.4668 54.3792 50.6186 54.2008C50.6521 54.1615 50.686 54.1208 50.7205 54.0794C50.838 53.9382 50.9623 53.789 51.0998 53.658M48.6679 53.5865C48.2513 53.7525 48.1062 54.1562 48.0023 54.5194L48.6679 53.5865ZM48.0023 54.5194C47.9853 54.579 47.9694 54.6375 47.9537 54.6951L48.0023 54.5194ZM47.9537 54.6951C47.919 54.823 47.8854 54.9465 47.8431 55.0677L47.9537 54.6951ZM47.8431 55.0677C47.7829 55.2401 47.7105 55.3895 47.6078 55.5073L47.8431 55.0677Z" fill="#CE5959"/>
<path fill-rule="evenodd" clip-rule="evenodd" d="M46.8636 37.283C46.9796 37.2385 47.1096 37.2964 47.154 37.4124C47.7262 38.9046 48.7419 39.4045 49.6134 39.5442C50.0553 39.6151 50.4639 39.5933 50.7631 39.5532C50.9123 39.5332 51.0331 39.5088 51.1156 39.4896C51.1569 39.4801 51.1885 39.4718 51.2093 39.4662C51.2197 39.4633 51.2273 39.4612 51.2321 39.4598L51.2371 39.4583L51.2376 39.4581C51.2377 39.4581 51.2377 39.4581 51.2378 39.4581M51.2378 39.4581C51.3563 39.4215 51.4822 39.4878 51.5189 39.6064C51.5556 39.725 51.4892 39.8509 51.3706 39.8876L51.3079 39.6849C51.3706 39.8876 51.3705 39.8877 51.3704 39.8877L51.37 39.8878L51.3692 39.8881L51.3666 39.8889L51.358 39.8914C51.3508 39.8935 51.3406 39.8964 51.3276 39.9C51.3016 39.907 51.2644 39.9167 51.2172 39.9276C51.1227 39.9495 50.988 39.9767 50.8229 39.9988C50.4937 40.043 50.0391 40.0679 49.5422 39.9882C48.5362 39.8268 47.3719 39.2367 46.7342 37.5733C46.6897 37.4574 46.7477 37.3274 46.8636 37.283" fill="#CE5959"/>
<path d="M65.7956 55.5841L65.8856 55.7858C64.4359 56.8634 62.7575 57.5925 60.9806 57.9167C60.1631 58.0639 59.3456 58.1266 58.588 58.4372C57.359 58.9386 56.4625 60.0368 55.863 61.2222C55.4812 60.3251 55.0482 59.4508 54.5659 58.6035C57.3306 57.9992 60.0553 57.2247 62.7245 56.2845C63.7192 55.9275 64.7383 55.5569 65.7956 55.5841Z" fill="#FF7976"/>
<path d="M81.9193 34.8987C82.7367 37.1577 83.1918 39.6211 84.6115 41.564C85.5544 42.8584 86.8815 43.8421 87.7725 45.1719C88.6636 46.5017 89.0097 48.4419 87.9197 49.6137C87.1676 50.4312 85.9332 50.6192 84.8459 50.4312C83.7586 50.2431 82.764 49.7063 81.7558 49.2485C79.8646 48.3901 77.7119 47.7607 75.7254 48.3683C74.7253 48.6735 73.8451 49.273 72.8832 49.6845C71.9213 50.096 70.7795 50.3004 69.8557 49.8126C71.9294 44.0901 74.0358 38.136 73.499 32.0728C73.3464 30.3697 73.2265 28.1788 74.7852 27.4567C76.1886 26.8027 77.7391 28.0017 78.7065 29.2007C80.0815 30.9118 81.1668 32.8366 81.9193 34.8987Z" fill="#F99595"/>
</svg>
