<svg width="123" height="126" viewBox="0 0 123 126" fill="none" xmlns="http://www.w3.org/2000/svg">
<path d="M0.838001 55.8175C0.956296 48.9575 2.09792 42.1536 4.22516 35.6307C8.04016 24.0931 15.5693 13.6372 25.8644 7.1708C36.9551 0.205696 51.0379 -1.79717 63.6329 1.79983C75.3776 5.15431 85.1604 12.8143 95.7552 18.5422C100.955 21.349 105.222 23.4472 109.443 27.7091C113.787 32.0855 117.035 37.5028 119.166 43.2716C122.117 51.2559 122.997 59.8941 122.692 68.4016C121.395 104.333 89.485 130.567 53.8011 124.041C37.2495 121.013 22.1448 111.342 12.6727 97.4065C4.60393 85.5391 0.532801 70.5325 0.838001 55.8175Z" fill="#FF7976"/>
<path d="M116.511 67.4641C116.275 65.2192 115.881 62.9937 115.331 60.8042C112.669 50.1931 104.303 43.3861 94.7714 38.9034C87.5147 35.489 85.738 27.7446 81.7323 21.5152C77.2278 14.512 70.3663 8.98022 62.4529 6.33152C42.8056 -0.268429 19.5124 11.3755 11.2611 29.8564C3.34494 47.5689 4.95812 68.8103 13.5964 85.9642C27.6873 113.955 66.8129 131.117 94.8368 113.064C109.933 103.336 118.392 85.2475 116.511 67.4641Z" fill="#4E5682"/>
<path opacity="0.17" d="M88.7137 46.667C90.6857 47.8739 92.8413 48.7511 95.0957 49.2639C103.143 51.1523 109.74 54.1689 112.582 62.4393C115.936 72.1975 113.593 83.9668 108.222 92.5996C95.2619 113.429 64.7365 117.637 43.7295 108.045C33.4126 103.336 23.8506 96.45 17.5014 87.0624C8.55792 73.8243 6.64497 56.3271 11.5064 41.2251C15.2968 29.4613 24.0414 16.6701 35.3365 10.9013C46.4599 5.21969 61.3111 7.68583 69.151 17.6185C76.5793 27.0061 78.6885 40.4812 88.7137 46.667Z" fill="white"/>
<path d="M76.9719 78.5767C79.8686 82.8631 90.1064 92.0191 91.4416 95.0656C92.7769 98.1122 90.2508 99.8643 92.6079 100.867C94.9651 101.87 96.4992 100.191 98.2269 100.05C99.8619 99.9297 103.859 99.4529 105.072 99.0032C105.136 98.98 105.199 98.9527 105.26 98.9215C106.162 98.4473 107.2 99.4883 107.366 98.1203C107.533 96.7524 106.135 97.39 106.135 97.39C106.135 97.39 106.772 96.9241 106.753 96.6107C106.734 96.2973 105.598 96.4472 105.598 96.4472C105.598 96.4472 106.549 96.1747 106.456 95.7741C106.364 95.3735 104.764 95.3626 104.764 95.3626C104.764 95.3626 105.266 94.9266 105.203 94.6623C105.14 94.398 103.791 94.9348 103.361 94.804C102.93 94.6732 98.3985 93.714 97.6383 92.9619C96.878 92.2098 86.5612 71.9413 86.5612 71.9413L76.9719 78.5767Z" fill="#E88A80"/>
<path d="M67.3661 43.9311C67.4423 43.7719 67.4682 43.5933 67.4405 43.4191C67.4128 43.2448 67.3326 43.0831 67.2108 42.9555C66.426 42.1217 65.1043 40.1678 65.2651 38.8898C65.4722 37.2303 68.9493 33.2872 68.6359 28.2023C68.3226 23.1175 66.3524 16.2668 56.5996 12.8442C46.8469 9.42164 32.4207 10.8713 28.8918 21.1446C23.4963 37.4374 36.8815 43.3534 35.8433 46.4653C34.8051 49.5773 30.3443 53.4195 29.5758 57.7768C28.8074 62.1341 28.6384 113.143 63.6655 109.456C72.5381 108.522 82.1955 94.9812 85.4655 78.792C85.4655 78.792 86.0869 76.9226 86.7109 76.7673C87.3349 76.612 93.8694 77.236 103.211 67.7394C103.211 67.7394 105.492 67.0663 106.064 67.2216C106.636 67.377 108.762 67.6358 109.8 66.5458C110.838 65.4558 109.644 62.2403 109.593 61.2539C109.541 60.2674 109.437 53.6784 108.71 52.8064C108.71 52.8064 108.917 50.9915 108.296 50.9915C107.674 50.9915 107.516 51.978 107.516 51.978C107.516 51.978 107.568 49.7462 106.737 49.7462C105.906 49.7462 105.96 51.5611 105.96 51.5611C105.96 51.5611 105.857 48.8633 105.181 48.9669C104.505 49.0704 104.363 50.8362 104.363 50.8362C104.363 50.8362 104.636 48.9287 103.546 48.8633C102.456 48.7979 102.767 51.0433 102.767 51.0433C102.767 51.0433 101.728 47.8251 100.379 48.2938C99.0306 48.7625 100.652 51.0951 100.652 51.6646C100.652 52.2341 101.636 59.0221 101.066 59.8641C100.497 60.7062 80.675 65.7256 78.495 66.6603C76.315 67.595 72.5273 72.3174 72.5273 72.3174C72.5273 72.3174 63.3958 65.2596 62.9298 64.4803C62.4638 63.7009 57.9485 56.5424 54.5232 54.5204C54.5232 54.5204 58.8832 55.9974 60.5182 54.752C62.1532 53.5067 63.0088 50.3157 63.0088 50.3157C63.0088 50.3157 64.0225 49.7707 63.5538 48.9941C63.5538 48.9941 64.6956 48.3183 64.1261 47.1765C64.1261 47.1765 64.6193 45.7241 64.6956 45.6723C64.7719 45.6206 66.4805 45.6969 67.3661 43.9311Z" fill="#FFA192"/>
<path fill-rule="evenodd" clip-rule="evenodd" d="M72.3405 72.207C72.3954 72.1325 72.5003 72.1167 72.5748 72.1716C72.6493 72.2265 72.6652 72.3314 72.6103 72.4059L72.4754 72.3065L72.3405 72.207ZM58.0872 92.2195C57.1456 93.6472 56.4185 95.2053 55.929 96.844C55.9025 96.9327 55.8092 96.9831 55.7205 96.9566C55.6318 96.9301 55.5814 96.8367 55.6079 96.7481C56.107 95.0773 56.8484 93.4887 57.8086 92.0331L57.811 92.0295C58.536 90.9904 62.1697 86.0332 65.6195 81.339C67.345 78.9912 69.0252 76.7082 70.2741 75.0122C70.8985 74.1642 71.4151 73.4629 71.7756 72.9736L72.3405 72.207C72.3406 72.2069 72.3405 72.207 72.4754 72.3065C72.6103 72.4059 72.6104 72.4058 72.6103 72.4059L72.0455 73.1724C71.685 73.6617 71.1684 74.3629 70.544 75.2109C69.2952 76.9069 67.615 79.1898 65.8896 81.5375C62.4397 86.2317 58.8121 91.1809 58.0872 92.2195Z" fill="#CE5959"/>
<path fill-rule="evenodd" clip-rule="evenodd" d="M60.1532 88.6068C60.2348 88.5631 60.3364 88.5939 60.38 88.6755C60.4237 88.7572 60.3929 88.8587 60.3113 88.9024L60.2323 88.7546L60.1532 88.6068ZM60.1532 88.6068C60.1533 88.6068 60.1532 88.6068 60.2323 88.7546C60.3113 88.9024 60.3113 88.9023 60.3113 88.9024L60.2924 88.9125C60.2798 88.9193 60.2611 88.9294 60.2365 88.9427C60.1874 88.9692 60.1152 89.0085 60.0227 89.0592C59.8378 89.1606 59.572 89.3077 59.2492 89.4903C58.6034 89.8557 57.7297 90.3628 56.8175 90.9304C55.9048 91.4983 54.956 92.1252 54.159 92.7301C53.3566 93.3391 52.7265 93.9123 52.4328 94.3713C52.3829 94.4492 52.2792 94.472 52.2013 94.4221C52.1233 94.3722 52.1006 94.2685 52.1505 94.1906C52.4794 93.6767 53.1532 93.0727 53.9564 92.4631C54.765 91.8494 55.7235 91.2163 56.6404 90.6458C57.5577 90.075 58.4357 89.5654 59.0841 89.1986C59.4084 89.0151 59.6755 88.8673 59.8616 88.7653C59.9546 88.7143 60.0274 88.6747 60.077 88.6479C60.1018 88.6345 60.1208 88.6242 60.1336 88.6173L60.1532 88.6068Z" fill="#CE5959"/>
<path d="M39.2168 75.601C39.2168 75.601 51.9044 88.681 58.2918 84.7843C64.6791 80.8875 65.1397 64.3931 67.0117 62.6818C68.8838 60.9705 72.6143 58.5561 72.4617 57.7768C72.3091 56.9974 71.4508 57.3108 71.4508 57.3108C71.4508 57.3108 72.0721 55.6758 71.3717 55.2098C70.6714 54.7439 69.8158 55.2098 69.8158 55.2098C69.8158 55.2098 70.2054 53.4958 69.6604 53.4195C69.2176 53.3842 68.772 53.4098 68.3361 53.4958C68.3361 53.4958 68.2571 52.6401 67.7911 52.5638C67.3251 52.4875 65.5348 54.6648 64.3658 57.0764C64.3658 57.0764 65.6901 52.0952 65.1451 52.0952C64.6001 52.0952 63.1995 55.5205 62.8098 57.2318C62.4541 58.9141 61.9329 60.5571 61.2538 62.1368C60.6189 63.4475 54.5449 71.0775 53.5367 73.1104C53.5367 73.1104 45.5224 57.9321 40.5411 56.8421" fill="#FFA192"/>
<path d="M40.4266 57.0083C45.2743 58.0683 53.234 73.0368 53.3103 73.1894C53.3249 73.2163 53.3466 73.2387 53.373 73.2541C53.3995 73.2695 53.4296 73.2772 53.4602 73.2766C53.4915 73.2771 53.5222 73.2686 53.5487 73.2522C53.5753 73.2357 53.5966 73.2121 53.6101 73.1839C54.1551 72.0939 56.1907 69.3526 57.9919 66.9164C59.6269 64.7201 61.0221 62.8289 61.3164 62.1994L61.3573 62.1041C61.2798 61.9878 61.2115 61.8657 61.1529 61.7389C61.1066 61.8452 61.0602 61.9542 61.0139 62.055C60.7414 62.6518 59.2699 64.6247 57.7221 66.7148C55.97 69.0801 54.1606 71.5189 53.4602 72.7452C52.313 70.6142 45.1844 57.695 40.4974 56.6677C40.4759 56.6629 40.4537 56.6624 40.432 56.6663C40.4104 56.6701 40.3897 56.6782 40.3712 56.6902C40.3527 56.7021 40.3367 56.7175 40.3243 56.7357C40.3118 56.7538 40.303 56.7742 40.2985 56.7958C40.2924 56.8181 40.2909 56.8415 40.2941 56.8645C40.2973 56.8875 40.3051 56.9095 40.3171 56.9294C40.3291 56.9493 40.3449 56.9665 40.3637 56.9801C40.3826 56.9936 40.4039 57.0032 40.4266 57.0083Z" fill="#CE5959"/>
<path d="M65.3769 66.8837C65.2679 67.3933 65.1562 67.9383 65.039 68.5187C63.8645 74.2603 62.254 82.1274 58.1202 84.6453C51.9235 88.4194 39.3858 75.6174 39.2605 75.4893C39.2287 75.4603 39.1871 75.4444 39.1442 75.445C39.1012 75.4456 39.06 75.4626 39.0291 75.4925C38.9982 75.5224 38.9798 75.5629 38.9777 75.6059C38.9757 75.6488 38.99 75.6909 39.018 75.7236C39.4703 76.1896 48.7734 85.6862 55.4333 85.6862C56.4384 85.7058 57.4291 85.4454 58.2946 84.9341C62.5538 82.3372 64.1806 74.3884 65.3796 68.5841C65.4941 68.0201 65.6058 67.4723 65.7175 66.9491C65.6027 66.9344 65.489 66.9125 65.3769 66.8837Z" fill="#CE5959"/>
<path d="M51.6185 58.7115C51.9728 58.8723 51.5395 54.5095 52.0082 53.4195L54.5997 54.5422C55.2373 54.7466 58.9978 55.8802 60.4911 54.7412C57.4037 54.594 47.2695 53.2315 41.6423 41.9118C41.656 41.9009 41.3453 54.0408 51.6185 58.7115Z" fill="#E88A80"/>
<path fill-rule="evenodd" clip-rule="evenodd" d="M58.8293 36.7258C58.9936 36.6388 59.1972 36.7015 59.2842 36.8657C59.6069 37.4754 59.9817 37.8163 60.3463 38.0017C60.713 38.1881 61.0959 38.2307 61.4541 38.1993C61.8142 38.1677 62.1407 38.0617 62.3803 37.961C62.4992 37.911 62.5943 37.8634 62.6587 37.8288C62.6908 37.8116 62.7151 37.7977 62.7306 37.7886C62.7384 37.784 62.744 37.7806 62.7472 37.7786L62.7502 37.7768C62.9073 37.6777 63.115 37.7245 63.2143 37.8815C63.3136 38.0386 63.2668 38.2465 63.1097 38.3458L62.9329 38.0662C63.1097 38.3458 63.1096 38.3459 63.1094 38.346L63.1091 38.3462L63.1082 38.3468L63.1056 38.3484L63.0978 38.3532C63.0914 38.3571 63.0825 38.3625 63.0713 38.369C63.0489 38.3822 63.0172 38.4003 62.9771 38.4218C62.8969 38.4648 62.7825 38.5221 62.6411 38.5815C62.3602 38.6996 61.9636 38.8302 61.513 38.8698C61.0605 38.9095 60.5452 38.8579 60.0412 38.6016C59.5352 38.3443 59.0669 37.8939 58.6893 37.1806C58.6024 37.0164 58.665 36.8127 58.8293 36.7258Z" fill="#333333"/>
<path fill-rule="evenodd" clip-rule="evenodd" d="M48.2933 32.5844C48.2934 32.5845 48.2934 32.5846 48.1413 32.655L48.2934 32.5846C48.3323 32.6686 48.2957 32.7682 48.2117 32.8071C48.1278 32.846 48.0282 32.8094 47.9893 32.7255L47.9893 32.7254L47.9893 32.7254L47.9888 32.7244L47.9865 32.7195C47.9843 32.715 47.9808 32.7079 47.9761 32.6984C47.9667 32.6795 47.9522 32.6512 47.9326 32.6149C47.8933 32.5422 47.8337 32.4378 47.7532 32.313C47.592 32.0629 47.3485 31.7331 47.0194 31.4134C46.3619 30.7747 45.3713 30.1827 44.0093 30.331C43.3825 30.3992 42.9109 30.8723 42.5925 31.6181C42.2749 32.362 42.1271 33.3426 42.135 34.3404C42.1429 35.3373 42.306 36.3356 42.5972 37.1111C42.8934 37.9002 43.3 38.4028 43.7573 38.5115C43.76 38.5121 43.7626 38.5128 43.7653 38.5135C44.3004 38.6686 44.8728 38.6324 45.384 38.4111C45.8953 38.1899 46.3136 37.7974 46.5669 37.3012C46.609 37.2188 46.7099 37.1861 46.7923 37.2281C46.8748 37.2702 46.9075 37.3712 46.8654 37.4536C46.5767 38.0192 46.1 38.4665 45.5172 38.7187C44.9356 38.9704 44.2847 39.012 43.6758 38.8366C43.0453 38.6845 42.5856 38.0338 42.2834 37.229C41.9755 36.4089 41.808 35.3702 41.7999 34.3431C41.7918 33.3169 41.9426 32.2865 42.2842 31.4865C42.625 30.6884 43.1732 30.0848 43.973 29.9978C45.4641 29.8354 46.5486 30.4887 47.2529 31.173C47.6047 31.5147 47.8637 31.8658 48.0349 32.1313C48.1206 32.2643 48.1846 32.3763 48.2275 32.4556C48.2489 32.4953 48.2651 32.5268 48.276 32.5488C48.2815 32.5598 48.2857 32.5684 48.2886 32.5744L48.292 32.5815L48.2929 32.5835L48.2932 32.5842L48.2933 32.5844Z" fill="#CE5959"/>
<path fill-rule="evenodd" clip-rule="evenodd" d="M46.795 32.637C46.7951 32.637 46.7951 32.637 46.6889 32.7667L46.795 32.637C46.8666 32.6956 46.8773 32.8012 46.8186 32.8729C46.76 32.9445 46.6544 32.955 46.5828 32.8964C46.5828 32.8964 46.5828 32.8964 46.5828 32.8964L46.5819 32.8957L46.5787 32.893L46.565 32.8821C46.5529 32.8724 46.5347 32.8581 46.5112 32.8399C46.4641 32.8034 46.3956 32.7515 46.3107 32.6904C46.1405 32.568 45.9061 32.4097 45.6474 32.2647C45.3876 32.119 45.1098 31.9905 44.8519 31.9229C44.5903 31.8544 44.3758 31.8554 44.2216 31.9328C44.1586 31.9644 44.0732 32.047 43.9769 32.1987C43.8834 32.346 43.7902 32.5411 43.7041 32.7719C43.532 33.2333 43.3941 33.8205 43.3339 34.4135C43.2736 35.0081 43.2928 35.5959 43.4252 36.0633C43.5578 36.5312 43.7939 36.8494 44.1479 36.9678C44.5565 37.1044 44.7568 37.0571 44.8601 36.9791C44.9711 36.8953 45.0348 36.7305 45.0632 36.4854C45.0822 36.3215 45.0831 36.1527 45.084 35.9837C45.0845 35.9007 45.085 35.8176 45.0876 35.735C45.0913 35.6168 45.0999 35.4979 45.1245 35.3966C45.1482 35.2994 45.1948 35.1836 45.3023 35.1157C45.3748 35.0699 45.4526 35.0429 45.5345 35.0433C45.6165 35.0437 45.687 35.0715 45.7445 35.1088C45.8502 35.1775 45.9311 35.2927 45.9889 35.375C45.9913 35.3785 45.9937 35.3818 45.996 35.3852C46.0604 35.477 46.1034 35.5383 46.1464 35.5732C46.1625 35.5862 46.1705 35.5884 46.1717 35.5886C46.174 35.5884 46.1804 35.5869 46.1921 35.5803C46.2222 35.5632 46.2688 35.5041 46.308 35.366C46.3445 35.2372 46.3645 35.0761 46.3738 34.9127C46.3829 34.7509 46.3812 34.5942 46.377 34.4774C46.3749 34.4192 46.3723 34.3713 46.3702 34.3382C46.3691 34.3216 46.3682 34.3088 46.3676 34.3002L46.3668 34.2906L46.3667 34.2884L46.3666 34.2879C46.3666 34.2879 46.3666 34.2879 46.3666 34.2879C46.3666 34.2879 46.3666 34.2879 46.5336 34.2736L46.7006 34.2594C46.6927 34.1672 46.6116 34.0988 46.5193 34.1067C46.4271 34.1145 46.3588 34.1957 46.3666 34.2879M45.4819 35.3987C45.482 35.3988 45.4656 35.4125 45.4502 35.4759C45.4342 35.5417 45.4262 35.6315 45.4226 35.7456C45.4205 35.8105 45.4201 35.8835 45.4196 35.9612C45.4185 36.1395 45.4173 36.3418 45.3962 36.524C45.3659 36.7851 45.29 37.0744 45.0621 37.2465C44.8265 37.4245 44.4886 37.4351 44.0416 37.2856C43.5399 37.1179 43.2507 36.6771 43.1027 36.1546C42.9545 35.6316 42.9378 34.9974 43.0004 34.3797C43.0633 33.7604 43.2072 33.145 43.3901 32.6548C43.4815 32.4098 43.5841 32.1919 43.694 32.019C43.801 31.8505 43.9265 31.7058 44.0713 31.6332C44.3327 31.5021 44.6438 31.5219 44.9369 31.5987C45.2336 31.6765 45.5395 31.8199 45.8113 31.9723C46.0844 32.1254 46.3298 32.2912 46.5064 32.4183C46.595 32.482 46.6666 32.5363 46.7164 32.5748C46.7413 32.5941 46.7607 32.6094 46.774 32.6201L46.7893 32.6324L46.7934 32.6357L46.7946 32.6366L46.795 32.637M46.5336 34.2736C46.7006 34.2594 46.7006 34.2594 46.7006 34.2594L46.7007 34.2607L46.7009 34.2638L46.7018 34.2751C46.7026 34.2849 46.7036 34.299 46.7047 34.3169C46.707 34.3527 46.7098 34.4037 46.712 34.4655C46.7164 34.5887 46.7183 34.7563 46.7084 34.9316C46.6986 35.1055 46.6767 35.2945 46.6305 35.4575C46.5869 35.6111 46.5098 35.7854 46.3574 35.8718C46.2852 35.9128 46.2069 35.9318 46.1261 35.9207C46.0479 35.9099 45.9845 35.8733 45.9355 35.8337C45.8536 35.7673 45.7838 35.667 45.7306 35.5905C45.725 35.5826 45.7197 35.5749 45.7145 35.5675C45.6489 35.4741 45.6035 35.4169 45.5619 35.3899C45.5457 35.3794 45.5372 35.3785 45.533 35.3785C45.5284 35.3784 45.5126 35.3794 45.4819 35.3987" fill="#CE5959"/>
<path d="M71.2166 66.1725C72.4265 64.9599 73.7536 63.8453 74.7591 62.4583C75.6147 61.2606 76.2096 59.8968 76.5054 58.4548C76.8011 57.0129 76.791 55.5249 76.4758 54.0871C76.0098 52.0216 74.9253 50.1468 74.3721 48.0921C73.8189 46.0375 73.9252 43.5904 75.4894 42.1653C77.4241 40.4022 80.6996 41.1379 82.5389 42.9964C84.3783 44.8548 85.1604 47.4844 85.9452 49.9778C86.264 50.9942 86.6101 52.0352 87.3077 52.8336C88.0053 53.632 89.158 54.1362 90.158 53.771C91.2099 53.3868 91.7576 52.1578 91.7004 51.046C91.6432 49.9342 91.1091 48.8933 90.5695 47.9123C88.2342 43.6749 85.501 39.6365 83.6671 35.162C81.329 29.4395 80.5306 23.2074 80.5197 17.038C82.37 20.9375 85.3103 24.1993 88.2451 27.3631C93.6951 33.2382 99.2723 38.9915 104.977 44.6232C102.258 43.1262 99.3468 42.0085 96.3247 41.3014C95.4445 41.097 94.4663 40.9417 93.6869 41.3968C92.7741 41.9418 92.4743 43.1544 92.6596 44.1954C92.8449 45.2363 93.4063 46.1655 93.8695 47.1166C94.8423 49.1167 95.4064 51.433 94.8014 53.5721C94.1965 55.7112 92.1691 57.5397 89.9537 57.3626C86.9562 57.12 85.3457 53.7792 84.381 50.9207C83.4164 48.0622 81.9285 44.7077 78.931 44.3316C78.3171 44.2341 77.6882 44.3495 77.1489 44.6586C76.7859 44.9019 76.4891 45.2315 76.2851 45.6178C75.4349 47.152 75.7837 49.0758 76.4431 50.6999C77.1026 52.324 78.0563 53.8501 78.4024 55.5695C79.2771 59.9459 76.0698 64.017 72.9197 67.1671C69.7696 70.3172 66.2053 73.827 66.1263 78.2878C65.4625 78.4365 64.7683 78.3627 64.1506 78.078C65.4886 73.5878 67.916 69.4979 71.2166 66.1725Z" fill="#FF7976"/>
<path d="M89.0953 17.7493C93.9458 19.5014 96.54 24.7389 100.715 27.7636C101.867 28.5975 103.14 29.2624 104.257 30.148C105.571 31.189 106.674 32.5842 107.042 34.2192C107.41 35.8542 106.928 37.7344 105.598 38.7563C104.159 39.8627 102.126 39.7537 100.366 39.3013C98.6056 38.849 96.8834 38.105 95.0658 38.105C94.1255 38.1071 93.1966 38.3096 92.3408 38.6991C91.4442 39.1051 90.4741 39.7319 89.5558 39.3803C88.7383 39.067 88.3895 38.1405 88.1034 37.3202C86.4112 32.4915 83.8224 27.8236 83.6643 22.7088C83.595 21.682 83.7398 20.6519 84.0895 19.684C84.267 19.2013 84.5444 18.7614 84.9037 18.3933C85.2629 18.0251 85.6958 17.7369 86.1741 17.5476C87.1088 17.2233 88.1579 17.4114 89.0953 17.7493Z" fill="#F99595"/>
</svg>
