<svg width="100" height="100" viewBox="0 0 100 100" fill="none" xmlns="http://www.w3.org/2000/svg">
<path d="M19.5994 51.8472C19.6544 50.7869 18.8744 50.3785 18.7038 49.0045C18.5635 47.8675 19.4459 47.8532 19.769 47.1265C20.5708 45.3176 19.3321 45.1603 19.243 43.5068C19.1483 41.7946 21.7071 42.4191 20.4353 40.2046C19.5662 38.6886 21.5726 38.1986 21.8284 37.0275C22.0673 35.9397 20.3121 34.6586 22.0066 33.6296C24.2252 32.2859 21.8171 30.1104 24.0556 28.3944C25.5321 27.2573 25.5539 27.0962 25.5274 25.1594C25.5098 24.9761 25.5374 24.7913 25.608 24.6212C26.0496 23.7684 27.3537 24.5918 27.9545 24.1048C28.9421 23.306 27.8683 22.1557 28.8075 21.211C29.4415 20.5723 30.5683 20.7666 31.3246 20.3582C32.0667 19.9621 32.2382 19.0923 32.8163 18.5579C33.529 17.8946 34.1214 17.8112 34.9715 17.3886C36.1419 16.8058 37.01 15.6659 38.2184 15.1543C39.4267 14.6426 40.6825 14.5791 41.9695 14.201C43.5399 13.7367 45.6523 13.0024 47.3099 13.1455C48.0017 13.2052 48.6443 13.7386 49.3323 13.731C50.1853 13.7206 50.7606 12.8877 51.6543 13.0128C52.4987 13.1312 53.0872 13.7709 54.0293 13.7443C54.1268 13.7462 54.2237 13.7275 54.3136 13.6894C54.8633 13.4136 54.9571 12.811 55.7778 13.0971C56.4839 13.3435 56.6184 14.2683 57.3425 14.4569C57.8116 14.5791 58.2609 14.2304 58.7243 14.2361C59.455 14.2446 59.9791 14.6577 60.4359 15.1941C60.8036 15.6261 61.2016 16.0668 61.7627 16.2259C62.3645 16.3956 62.9947 16.0288 63.5558 16.3823C63.9188 16.6125 64.1017 17.2607 64.5187 17.5421C65.0203 17.8878 65.6339 18.0317 66.2369 17.9448C66.5999 17.8851 66.9468 17.7439 67.3126 17.6975C67.6784 17.651 68.0916 17.7231 68.32 18.0111C68.5484 18.2992 68.5304 18.6867 68.6555 19.0212C69.1426 20.3203 70.3168 19.5225 71.2466 19.6608C72.7752 19.8882 72.2521 20.958 72.5525 22.0193C72.7269 22.6342 75.7293 22.3689 76.3112 22.8123C76.5614 23.006 76.7671 23.2511 76.9143 23.5312C77.0614 23.8112 77.1466 24.1197 77.1641 24.4355C77.1878 24.9178 77.0523 25.4172 77.1992 25.8777C77.7044 27.4572 80.0547 26.1686 80.9531 27.4032C81.264 27.8315 81.2583 28.4029 81.3104 28.9297C81.3626 29.4566 81.5455 30.0507 82.0326 30.2563C82.2383 30.3435 82.4676 30.3511 82.6865 30.3918C83.0546 30.4758 83.3869 30.6733 83.6366 30.9564C83.8862 31.2395 84.0406 31.5939 84.0778 31.9695C84.1176 32.4972 83.9129 33.2098 84.3375 33.6296C84.762 34.0493 85.6908 33.875 86.1988 34.2332C86.6537 34.5534 86.9674 35.1466 86.7883 35.6735C86.468 36.6163 85.6615 36.4902 86.3656 37.6207C86.9835 38.6127 87.9464 38.1532 88.6041 38.9396C88.7736 39.1481 88.8819 39.3996 88.9167 39.6659C88.9515 39.9323 88.9115 40.2031 88.8013 40.4481C88.2061 41.7216 87.8706 41.7065 89.0041 42.8407C89.3604 43.197 90.3612 43.8508 90.4058 44.4098C90.5072 45.6672 89.5907 46.2206 90.6285 47.3548C91.4123 48.2124 92.8386 48.815 92.921 50.1463C92.9959 51.3592 91.7098 52.5559 92.2756 53.6304C92.6187 54.2824 93.5475 54.5704 93.6621 55.2972C93.7635 55.9396 93.1598 56.4456 92.8253 57.0028C92.5963 57.4021 92.4925 57.8611 92.5275 58.3202C92.5625 58.7792 92.7346 59.2171 93.0215 59.5772C93.3807 60.0112 93.9294 60.3609 93.9938 60.9209C94.0753 61.6391 93.3304 62.1309 92.868 62.6871C91.5591 64.2638 93.2091 64.568 93.1466 66.0215C93.0708 67.7755 90.7697 67.8323 90.9014 69.608C90.9621 70.4305 91.6909 70.999 91.5335 71.9257C91.3497 73.0078 90.2721 73.2305 89.8769 74.1231C89.5348 74.8934 89.8817 75.7756 89.4523 76.5971C89.0657 77.3381 88.2459 77.8422 88.1322 78.7348C88.0649 79.2588 88.4658 79.7544 88.3511 80.2907C87.9511 82.1611 86.4244 81.7707 85.3923 82.958C84.7441 83.7037 84.9023 84.9251 84.1887 85.6604C83.4751 86.3957 82.623 85.9694 81.8753 86.7445C81.2166 87.4276 81.3067 88.6509 80.5238 89.2763C79.615 90.0068 78.2436 89.7501 77.2428 90.2655C76.1738 90.8179 75.6961 92.1606 74.6243 92.8429C73.8168 93.3602 72.7544 93.582 71.892 93.1641C71.0627 92.7614 70.4467 92.7301 69.6174 93.2712C69.1635 93.5658 69.2146 94.2187 68.5512 94.4082C67.4689 94.7162 67.0159 93.6919 65.7772 94.1079C64.9802 94.3751 64.3888 95.0554 63.7955 95.2629C62.1844 95.8267 60.6292 94.0235 59.1195 95.0961C58.277 95.694 58.3613 96.2389 57.1454 95.8911C56.3038 95.6495 55.6025 95.0649 54.7467 94.8488C53.7231 94.5863 52.1177 95.0308 51.1245 95.3046C50.4317 95.4941 49.6839 95.6836 49.0091 95.4363C47.9126 95.0327 47.2559 94.1277 46.0371 93.9041C44.6212 93.6445 43.8829 94.5541 42.5059 94.5096C41.4947 94.4774 41.234 93.4825 40.5564 92.912C39.7272 92.2156 38.7264 92.2393 37.7057 92.6628C37.3408 92.8145 36.9787 93.0267 36.5835 93.0087C36.0566 92.9859 35.6358 92.5662 35.3221 92.1445C34.7592 91.395 34.2493 90.2845 33.3831 89.8306C32.5387 89.3872 31.5104 89.7188 30.5882 89.5208C30.3724 89.4875 30.1662 89.4083 29.9836 89.2886C29.7817 89.136 29.6642 88.8991 29.5619 88.6689C29.2179 87.8947 28.9572 87.0704 28.4549 86.3891C27.6503 85.2975 26.0904 85.1213 24.9322 84.5177C24.6525 84.3878 24.3928 84.2187 24.1608 84.0155C23.7381 83.6061 23.5722 82.9912 23.558 82.4047C23.5315 81.2941 23.7068 80.2395 23.2614 79.1669C22.6928 77.791 21.0124 77.3201 20.2685 75.9281C19.4354 74.3675 20.7556 73.0732 20.8637 71.5808C20.9584 70.3016 20.132 69.4801 19.1417 68.7997C18.6886 68.4889 18.2745 68.0019 18.337 67.4561C18.4754 66.2556 19.9548 66.3826 19.9425 64.7717C19.932 63.3912 18.7493 62.9809 18.2915 61.8836C17.7485 60.5817 18.0357 61.0393 18.5683 59.9411C19.5672 57.8793 19.5729 57.7258 18.501 55.8667C17.7523 54.5704 18.9256 53.946 19.3539 52.8459C19.4891 52.5284 19.5719 52.1911 19.5994 51.8472Z" fill="#8FAA83"/>
<path d="M49.0986 15.327C47.2152 15.0175 45.2164 14.7161 43.4574 15.486C41.6983 16.2558 40.3989 18.5312 41.2869 20.2937C42.366 20.8118 43.5483 21.0509 44.7343 20.991C45.9202 20.931 47.075 20.5737 48.1012 19.9491C49.0197 19.3774 49.8632 18.4961 49.9885 17.3858C50.1138 16.2754 49.1934 15.0412 48.1426 15.2434" fill="#70975F"/>
<path d="M70.9265 25.5055C71.0696 24.9241 69.3473 24.7858 69.0388 25.4013C68.6379 26.2017 71.4878 26.1619 70.9265 25.5055Z" fill="#70975F"/>
<path d="M47.9198 36.5341C48.0426 34.794 46.3198 34.3443 46.0337 36.1838C45.6615 38.5756 48.5075 38.5137 47.9198 36.5341Z" fill="#70975F"/>
<path d="M80.4027 61.9805C81.0707 61.4254 81.5177 59.5444 79.8267 60.1023C78.4683 60.5491 78.8703 62.197 80.4027 61.9805Z" fill="#70975F"/>
<path d="M76.0643 74.2C76.8144 75.7577 79.1836 74.7911 78.9886 73.4235C78.6521 71.051 75.5154 71.8747 76.0643 74.2Z" fill="#70975F"/>
<path d="M48.0643 83.1998C48.8144 84.7578 51.1836 83.7911 50.9886 82.4233C50.6521 80.0515 47.5154 80.8743 48.0643 83.1998Z" fill="#70975F"/>
<path d="M28.279 66.1698C27.3762 66.7538 28.8895 68.5367 29.6283 67.8416C30.6769 66.854 29.2755 65.5253 28.279 66.1698Z" fill="#70975F"/>
<path d="M27 42.2386C27.3715 44.1006 29.1446 42.1114 28.9905 40.9049C28.8484 39.7879 28.1604 39.7194 27.4898 40.6197C27.6788 40.3661 27.2459 41.2164 27.2899 41.0681C27.1604 41.4501 27.0635 41.8416 27 42.2386Z" fill="#70975F"/>
<path d="M30.8707 54.9489C31.9981 55.498 32.7788 51.4282 30.7104 52.0686C29.6152 52.4142 29.8792 54.8509 30.8707 54.9489Z" fill="#70975F"/>
<path d="M58.8705 28.9395C59.2245 28.5375 58.8052 27.6926 58.1872 28.1155C57.6686 28.4704 58.3363 29.2169 58.8705 28.9395Z" fill="#70975F"/>
<path d="M43 28.5273C43.1165 29.0236 44.5981 29.2017 44.9147 28.7038C45.4729 27.8261 43.1136 27.7717 43 28.5273Z" fill="#70975F"/>
<path d="M38 42.5062C38.5506 43.3336 40.5992 43.0131 39.8289 42.3378C39.1472 41.7404 38.1229 42.0235 38 42.5062Z" fill="#70975F"/>
<path d="M76 32.5065C76.5495 33.3335 78.5997 33.0131 77.8288 32.3373C77.1481 31.7403 76.1197 32.024 76 32.5065Z" fill="#70975F"/>
<path d="M56.4548 77.0011C56.1251 77.2953 55.7805 78.1541 56.1795 78.7424C56.9419 79.8683 57.4329 76.9346 56.4548 77.0011Z" fill="#70975F"/>
<path d="M38.0067 89.2246C38.1211 90.9071 40.2525 89.5435 39.9751 88.0516C39.5826 85.9353 37.8798 87.3692 38.0067 89.2246Z" fill="#70975F"/>
<path d="M67.465 38.7908C69.7978 39.9211 69.1361 36.142 67.6971 35.3064C66.3655 34.5325 65.711 35.29 66.1217 36.844C66.0062 36.4066 66.5632 37.6369 66.4395 37.4605C66.7771 37.9433 67.0317 38.3434 67.465 38.7908Z" fill="#70975F"/>
<path d="M62 85.6131C62.8674 86.648 64.9868 85.3114 63.4647 85.0212C62.8279 84.8997 62.1828 85.3274 62 85.6131Z" fill="#70975F"/>
<path d="M39.8181 79.4217C40.8316 78.2581 37.2916 75.3389 37.0067 78.2581C36.8561 79.8053 39.2952 80.6281 39.8181 79.4217Z" fill="#70975F"/>
<path d="M61.9947 69.3326C61.5232 68.8236 59.721 68.8759 60.0369 69.6487C60.3021 70.2969 62.1102 69.9636 61.9947 69.3326Z" fill="#70975F"/>
<path d="M28.225 77.9863C28.6679 78.1843 29.2272 76.1814 28.9037 75.3588C28.3329 73.9102 27.6329 77.2688 28.225 77.9863Z" fill="#70975F"/>
<path d="M56.2247 20.9909C56.6677 21.1228 57.2273 19.7877 56.9037 19.2392C56.3325 18.2735 55.6333 20.5117 56.2247 20.9909Z" fill="#70975F"/>
<path d="M23.6321 56.9956C25.3138 57.0806 25.4639 55.9142 23.9769 56.005C22.661 56.0879 22.8073 56.7238 23.6321 56.9956Z" fill="#70975F"/>
<path d="M56.316 38.9956C57.1569 39.0806 57.232 37.9135 56.4884 38.0051C55.8305 38.0858 55.9037 38.7236 56.316 38.9956Z" fill="#70975F"/>
<path d="M87.3485 46.0193C86.7812 46.1725 86.94 47.0543 87.5823 46.9974C88.2972 46.9348 88.0115 45.8427 87.3485 46.0193Z" fill="#70975F"/>
<path d="M51.3488 46.0195C50.781 46.1717 50.94 47.0535 51.5829 46.9974C52.2984 46.9349 52.0093 45.842 51.3488 46.0195Z" fill="#70975F"/>
<path d="M52.3484 90.0197C51.7809 90.1719 51.9406 91.0535 52.5822 90.9974C53.2973 90.9339 53.0116 89.8413 52.3484 90.0197Z" fill="#70975F"/>
<path d="M83 39.9842C83.1364 41.0613 84.5984 41.4731 84.9143 40.2606C85.4178 38.3301 83.5627 38.9303 83 39.9842Z" fill="#70975F"/>
<path d="M90.324 56.0041C89.3233 55.9353 88.4519 56.7557 89.423 56.6044C89.2519 57.616 92.3169 56.4168 90.324 56.0041Z" fill="#70975F"/>
<path d="M71.0073 86.0001C71.3007 86.7977 72.9443 87.7368 72.9994 86.092C73.0404 84.926 70.8585 84.4096 71.0073 86.0001Z" fill="#70975F"/>
<path d="M83.7511 76.8918C85.3825 77.4278 87.0546 75.8749 85.1554 74.3877C83.4823 73.0767 82.082 75.3887 83.7511 76.8918Z" fill="#70975F"/>
<path d="M70.9892 69.4959C70.8433 68.3874 68.7239 69.3473 69.0302 70.3256C69.4638 71.7137 71.1504 70.7193 70.9892 69.4959Z" fill="#70975F"/>
<path d="M36 24.1681C35.8877 21.5361 33.0469 23.9399 33.0014 25.6303C32.9586 27.1946 33.883 27.4181 34.9883 26.3055C34.6772 26.6197 35.4482 25.53 35.3564 25.7248C35.606 25.1919 35.8235 24.7717 36 24.1681Z" fill="#70975F"/>
<path d="M79.17 47.6174C78.187 48.8252 81.7788 51.6512 81.9959 48.6976C82.114 47.1314 79.6644 46.3831 79.17 47.6174Z" fill="#70975F"/>
<path d="M36.5754 7.23257C38.5737 8.17905 40.2672 9.6028 41.6297 11.3328C42.3226 12.2037 42.9193 13.1463 43.4094 14.1445C43.5347 14.3964 43.6546 14.6504 43.7692 14.9065C43.8357 15.0569 43.9002 15.2083 43.9625 15.3605C43.9814 15.4053 44.1424 15.8252 44.0659 15.613C44.3061 16.2496 44.4526 16.9311 44.7341 17.5498C44.9203 17.9572 45.3313 18.1981 45.655 17.7862C46.0382 17.2964 46.0391 16.4878 45.9554 15.9058C45.754 14.5152 45.1208 13.1013 44.4994 11.8503C43.9178 10.6731 43.2169 9.5582 42.4076 8.52291C40.9381 6.65233 39.0603 5.05129 36.892 4.04571C35.892 3.58187 35.6572 6.79111 36.5772 7.22719L36.5754 7.23257Z" fill="#926E57"/>
<path d="M73.7828 51.3103C74.9919 49.5777 74.5676 47.193 72.835 45.9838C71.1024 44.7747 68.7176 45.1991 67.5085 46.9317C66.2994 48.6643 66.7237 51.049 68.4563 52.2582C70.1889 53.4673 72.5737 53.0429 73.7828 51.3103Z" fill="#242424"/>
<path d="M43.5333 58.6563C44.4698 56.7623 43.6936 54.4678 41.7996 53.5314C39.9057 52.5949 37.6112 53.3711 36.6748 55.2651C35.7383 57.159 36.5145 59.4535 38.4084 60.3899C40.3024 61.3264 42.5969 60.5502 43.5333 58.6563Z" fill="#242424"/>
<path d="M40.8155 67.4635C43.6064 66.9669 45.6628 65.4065 45.4087 63.9784C45.1545 62.5502 42.6861 61.7951 39.8952 62.2917C37.1044 62.7883 35.048 64.3487 35.3021 65.7768C35.5562 67.205 38.0247 67.9602 40.8155 67.4635Z" fill="#F7877E"/>
<path d="M73.0875 59.6484C75.827 58.9199 77.7456 57.193 77.3729 55.7911C77.0001 54.3893 74.4772 53.8433 71.7376 54.5717C68.9981 55.3001 67.0795 57.0271 67.4523 58.4289C67.825 59.8308 70.348 60.3768 73.0875 59.6484Z" fill="#F7877E"/>
<path fill-rule="evenodd" clip-rule="evenodd" d="M70.9769 48.2378C71.0287 48.5298 70.9928 48.8307 70.8737 49.1023C70.7546 49.374 70.5576 49.6042 70.3077 49.7639C70.0578 49.9237 69.7661 50.0057 69.4696 49.9997C69.173 49.9937 68.885 49.8999 68.6418 49.7302C68.3985 49.5604 68.211 49.3224 68.103 49.0461C67.995 48.7699 67.9713 48.4678 68.0349 48.1781C68.0985 47.8884 68.2466 47.624 68.4603 47.4184C68.6741 47.2128 68.9441 47.0752 69.236 47.023C69.6279 46.9536 70.0312 47.0426 70.3576 47.2703C70.684 47.498 70.9068 47.846 70.9769 48.2378Z" fill="white"/>
<path fill-rule="evenodd" clip-rule="evenodd" d="M39.9846 56.2378C40.0192 56.5299 39.9952 56.8308 39.9158 57.1024C39.8364 57.3741 39.705 57.6043 39.5384 57.764C39.3717 57.9237 39.1772 58.0058 38.9795 57.9997C38.7818 57.9936 38.5897 57.8997 38.4276 57.7299C38.2654 57.5601 38.1404 57.3219 38.0685 57.0456C37.9966 56.7693 37.9809 56.4672 38.0234 56.1775C38.0659 55.8878 38.1647 55.6235 38.3074 55.4181C38.45 55.2126 38.6301 55.0752 38.8248 55.0232C38.9541 54.9887 39.0867 54.9927 39.215 55.0351C39.3433 55.0774 39.4647 55.1573 39.5724 55.2701C39.6801 55.3829 39.772 55.5264 39.8427 55.6924C39.9134 55.8585 39.9616 56.0438 39.9846 56.2378Z" fill="white"/>
<path d="M62.5107 54.0332C62.4313 54.0069 62.3468 53.9961 62.2625 54.0013C62.1783 54.0064 62.0961 54.0275 62.0211 54.0633C61.9461 54.0991 61.8798 54.1488 61.8265 54.2092C61.7731 54.2696 61.7339 54.3395 61.711 54.4145C61.6386 54.63 61.5633 54.8245 61.4824 55.0087C61.4278 55.1309 61.3695 55.2519 61.3074 55.3718L61.2359 55.5046C61.2359 55.5107 61.2293 55.5168 61.2265 55.522V55.5281C61.1917 55.5872 61.1559 55.6462 61.1192 55.7018C60.7362 56.3269 60.2211 56.8745 59.6045 57.3123C57.942 58.5118 55.3707 59.0261 52.9066 58.6569C51.4979 58.4525 50.1726 57.9081 49.0652 57.0786C48.999 57.0296 48.9225 56.9939 48.8405 56.9737C48.7586 56.9535 48.6729 56.9493 48.5891 56.9613C48.4567 56.9754 48.332 57.0259 48.2311 57.1061C48.1301 57.1864 48.0576 57.2929 48.0229 57.4116C47.9882 57.5304 47.993 57.6561 48.0366 57.7723C48.0802 57.8886 48.1606 57.9901 48.2674 58.0636C50.3786 59.6628 53.4138 60.3281 56.3887 59.8461C58.8866 59.4395 60.9047 58.2947 62.0657 56.6226C62.4533 56.0602 62.7571 55.4522 62.9689 54.815C62.996 54.7359 63.0055 54.6526 62.997 54.57C62.9884 54.4875 62.962 54.4074 62.9193 54.3344C62.8765 54.2615 62.8183 54.1973 62.7482 54.1455C62.678 54.0938 62.5972 54.0556 62.5107 54.0332Z" fill="#242424"/>
<path d="M91.7769 17.5517C89.7483 16.3994 88.3654 14.8794 87.2481 12.6844C86.3234 10.8764 85.8116 9.65054 85.2049 6.36112C85.1922 6.28752 85.1606 6.21842 85.113 6.16046C85.0655 6.1025 85.0036 6.05766 84.9334 6.03027C84.8632 6.00288 84.7871 5.99386 84.7123 6.0041C84.6376 6.01434 84.5668 6.04348 84.5067 6.0887C84.3994 6.18427 84.3313 6.31555 84.3155 6.45755C84.1936 7.13135 83.5929 11.2055 81.3438 13.8271C80.3094 15.0325 78.7571 16.1764 77.2427 16.9394C77.1558 16.9829 77.0859 17.0537 77.0441 17.1407C76.9987 17.2319 76.9879 17.3363 77.0136 17.4348C77.0495 17.5465 77.1142 17.647 77.2013 17.7265C77.7057 18.2375 80.6895 20.7483 82.1333 23.8461C83.2969 26.3388 83.7647 28.2951 83.9329 28.6759C83.9621 28.7566 84.0118 28.8285 84.077 28.8848C84.1423 28.9411 84.221 28.98 84.3057 28.9978C84.4201 29.0086 84.5347 28.9799 84.6302 28.9166C84.7257 28.8533 84.7961 28.7594 84.8296 28.6506C84.9868 28.2324 85.5606 26.029 86.2527 24.6862C87.8549 21.5523 88.8491 20.9749 91.8573 18.2484C91.9082 18.202 91.9474 18.1445 91.9717 18.0804C91.996 18.0164 92.0048 17.9476 91.9974 17.8795C91.9896 17.8115 91.9655 17.7463 91.9272 17.6893C91.8888 17.6323 91.8373 17.5851 91.7769 17.5517Z" fill="#FFD79B"/>
<path d="M13.7022 47.2417C12.6722 46.7724 11.6193 46.1021 10.9371 45.4212C9.47911 43.9701 9.16668 41.8348 9.10523 41.4814C9.09478 41.4012 9.06793 41.3242 9.02645 41.2555C8.98498 41.1868 8.92983 41.128 8.86466 41.0829C8.80259 41.041 8.73212 41.0141 8.65854 41.0042C8.58495 40.9944 8.51015 41.0018 8.43975 41.026C8.3592 41.0489 8.28595 41.0933 8.22742 41.1548C8.1689 41.2163 8.12717 41.2927 8.10649 41.3762C7.6118 43.0657 7.23271 43.6811 6.55577 44.5866C5.73511 45.6811 4.75303 46.4125 3.33874 46.9227C3.25225 46.9543 3.17565 47.0094 3.11707 47.0822C3.0585 47.155 3.02013 47.2429 3.00603 47.3364C2.99194 47.4298 3.00265 47.5255 3.03702 47.6133C3.07139 47.701 3.12815 47.7775 3.20127 47.8346C5.22064 49.4092 5.90174 49.7519 6.9359 51.4801C7.37955 52.2223 7.72323 53.4134 7.82217 53.6443C7.85586 53.7412 7.9158 53.826 7.99487 53.8887C8.07394 53.9514 8.16881 53.9894 8.2682 53.9981C8.36759 54.0068 8.46732 53.9859 8.55552 53.9378C8.64371 53.8898 8.71667 53.8166 8.76572 53.727C8.89382 53.5294 9.27186 52.4983 10.155 51.2105C11.2308 49.6391 13.3616 48.4533 13.723 48.203C13.8308 48.1388 13.9145 48.0391 13.9606 47.9198C14.0067 47.8006 14.0125 47.6688 13.9771 47.5457C13.9552 47.4776 13.9193 47.4152 13.8718 47.3627C13.8244 47.3103 13.7665 47.269 13.7022 47.2417Z" fill="#FFD79B"/>
<path d="M25.5939 75.0822C24.1881 74.3239 22.7539 73.2412 21.8238 72.1411C19.8357 69.7986 19.4097 66.3474 19.3245 65.7765C19.3113 65.6468 19.275 65.5222 19.2184 65.4113C19.1617 65.3005 19.086 65.206 18.9965 65.1345C18.9123 65.0664 18.8164 65.0227 18.7162 65.0068C18.6161 64.9908 18.5143 65.0031 18.4186 65.0425C18.3086 65.0789 18.2084 65.1503 18.1284 65.2494C18.0483 65.3484 17.9911 65.4716 17.9627 65.6065C17.2882 68.3359 16.7713 69.3301 15.8483 70.7929C14.7293 72.561 13.3917 73.7426 11.4619 74.5668C11.3439 74.6178 11.2395 74.7068 11.1596 74.8245C11.0798 74.9421 11.0274 75.084 11.0082 75.235C10.989 75.3861 11.0036 75.5406 11.0505 75.6823C11.0973 75.8241 11.1747 75.9476 11.2744 76.04C14.0293 78.5837 14.9565 79.1372 16.368 81.9308C16.973 83.1281 17.4416 85.0541 17.5765 85.4254C17.6224 85.5818 17.7041 85.7189 17.812 85.8202C17.9198 85.9215 18.0491 85.9828 18.1847 85.9969C18.3202 86.011 18.4561 85.9772 18.5764 85.8996C18.6967 85.8219 18.7961 85.7037 18.863 85.559C19.0377 85.2398 19.5532 83.574 20.7573 81.4936C22.2242 78.955 25.1282 77.0394 25.6223 76.6351C25.7693 76.5314 25.8834 76.3702 25.9463 76.1776C26.0091 75.9849 26.0171 75.772 25.9688 75.5732C25.9383 75.4636 25.8891 75.3632 25.8244 75.2786C25.7598 75.1939 25.6813 75.127 25.5939 75.0822Z" fill="#FFD79B"/>
</svg>
