<svg width="100" height="100" viewBox="0 0 100 100" fill="none" xmlns="http://www.w3.org/2000/svg">
<path d="M48.7667 35.1632C48.7667 35.1254 44.4122 11.6482 57.2084 2L58.874 4.68883C47.668 13.1682 50.3568 35.012 50.3568 35.0498L48.7667 35.1632Z" fill="#70995F"/>
<path fill-rule="evenodd" clip-rule="evenodd" d="M52.9588 33.016C52.9336 33.023 53.9848 29.9367 54.4705 29.0968C56.0102 26.4528 57.7514 24.832 60.1995 23.0613C61.3529 22.2215 62.5328 21.5832 63.1991 22.0913C63.5252 22.3377 62.8603 23.3203 62.7428 23.5316C61.9169 25.0139 61.0337 26.387 60.4626 28.0107C59.9238 29.535 59.3429 31.293 59.3009 32.9293C59.3009 33.1588 59.4409 34.7811 59.3009 34.8748C59.1609 34.9686 52.9546 33.0202 52.9546 33.0202L52.9588 33.016Z" fill="#D6EFCA"/>
<path fill-rule="evenodd" clip-rule="evenodd" d="M58.0439 34.5977C58.0439 34.5977 58.8236 33.1588 60.0889 32.2854C63.1235 30.1928 64.1481 30.2194 65.6345 29.9059C68.4466 29.3124 71.4405 29.7533 73.792 31.412C75.4969 32.6143 76.3115 33.7733 76.548 34.3233C76.744 34.7853 76.9484 35.7412 76.646 35.8546C76.3437 35.968 75.3863 35.2794 74.7326 35.0008C73.3077 34.3905 71.3915 33.6613 69.8183 33.8264C68.1918 33.9972 66.3652 34.3751 65.3392 35.793C64.5932 36.8162 64.344 37.7638 64.2852 37.726C63.9269 37.4979 59.3345 34.8398 58.0509 34.5977H58.0439Z" fill="#70995F"/>
<path fill-rule="evenodd" clip-rule="evenodd" d="M41.5667 25.5919C41.5667 25.5919 41.8466 22.3278 42.002 21.4782C42.8096 17.1013 44.0931 14.3019 44.779 12.1954C45.1527 11.049 45.3207 8.80808 46.1143 8.83608C47.0129 8.87387 47.1473 11.8748 47.3461 13.735C47.6568 16.6352 48.1467 19.8448 48.0599 22.7729C48.0333 24.257 47.875 25.7358 47.5868 27.1918C47.3558 28.2696 46.3187 31.3294 45.8918 30.7667C45.3851 30.1004 41.4323 26.2176 41.5667 25.5878V25.5919Z" fill="#A7C69B"/>
<path fill-rule="evenodd" clip-rule="evenodd" d="M18.8788 26.9778C18.8354 25.9714 21.7272 26.278 22.8666 26.0932C28.0287 25.2744 31.6035 25.245 35.6809 27.6903C39.4979 29.9774 40.1221 32.8202 39.4909 33.2289C39.0318 33.5242 34.1958 34.4102 33.2062 35.0863C32.8941 35.2991 32.6631 32.2351 27.3722 30.2559C24.3167 29.1138 18.9208 27.9632 18.8788 26.9778Z" fill="#70995F"/>
<path fill-rule="evenodd" clip-rule="evenodd" d="M45.5894 32.6984C45.5894 32.6284 46.1492 30.5862 46.2234 30.1999C46.4721 28.9344 46.8031 27.6865 47.2144 26.4641C48.3776 22.9649 50.6577 18.8175 53.4375 16.1595C54.4467 15.1937 55.5371 13.9913 56.8346 13.3209C57.0151 13.2285 58.0551 12.7358 58.2091 12.8492C58.5898 13.1291 57.4966 14.9907 57.3847 15.2147C56.2649 17.4668 55.2319 19.8771 54.6343 22.3532C52.7614 30.1201 54.2675 33.3773 54.3053 34.0925C54.3053 34.2171 52.4087 33.6614 51.9762 33.6124C50.4295 33.4416 45.5894 32.6942 45.5894 32.6942V32.6984Z" fill="#A7C69B"/>
<path fill-rule="evenodd" clip-rule="evenodd" d="M40.7464 13.7421C40.0857 13.6091 38.7196 16.3862 38.4649 17.0818C37.723 19.1016 37.5047 21.2445 37.3731 23.3693C37.3269 24.1097 36.9532 32.0475 37.9008 33.4472C38.1807 33.8671 45.6496 33.5032 46.5664 33.2428C46.9471 33.1336 46.229 30.9417 45.3066 29.1095C44.548 27.595 43.2407 26.0665 42.6766 24.4667C42.1069 22.8458 41.3021 20.6874 41.1691 16.4001C41.1537 15.8781 41.3357 13.8639 40.7492 13.7407L40.7464 13.7421Z" fill="#D6EFCA"/>
<path fill-rule="evenodd" clip-rule="evenodd" d="M32.9612 31.4751C34.2826 31.473 35.5899 31.7469 36.7993 32.279C38.0088 32.8112 39.0938 33.5901 39.985 34.5657C40.9526 33.2971 42.1954 32.2645 43.6199 31.5458C45.0444 30.8271 46.6134 30.4409 48.2087 30.4164C49.804 30.3919 51.3841 30.7296 52.83 31.4042C54.2759 32.0788 55.5499 33.0726 56.5561 34.3109C57.875 32.9666 59.5643 32.0455 61.4088 31.665C63.2532 31.2844 65.1691 31.4616 66.9124 32.1741C68.6557 32.8865 70.1474 34.1018 71.1974 35.6652C72.2474 37.2286 72.8081 39.0692 72.8081 40.9525C72.816 42.2372 72.5547 43.5094 72.041 44.6869C74.011 45.0031 75.8311 45.9322 77.2427 47.3422C78.6542 48.7522 79.5853 50.5714 79.9036 52.541C80.2218 54.5106 79.911 56.5304 79.0154 58.3133C78.1197 60.0961 76.6848 61.5512 74.9146 62.4716C76.2203 63.7873 77.1107 65.4575 77.4753 67.2748C77.8399 69.0922 77.6626 70.9766 76.9654 72.6941C76.2682 74.4116 75.0819 75.8864 73.5537 76.9355C72.0255 77.9845 70.2229 78.5615 68.3696 78.5948C68.4439 79.0706 68.4864 79.5508 68.497 80.0323C68.4966 82.5472 67.4974 84.959 65.719 86.7374C63.9407 88.5157 61.5289 89.5149 59.014 89.5153C58.6318 89.5153 58.2161 89.4831 57.8326 89.4509C57.729 91.8587 56.711 94.1364 54.9861 95.8197C53.2612 97.5029 50.9594 98.4649 48.5498 98.5097C46.1401 98.5545 43.8041 97.6786 42.0179 96.0607C40.2316 94.4428 39.1297 92.2045 38.9366 89.8022C38.4728 89.8668 38.0051 89.8987 37.5369 89.8974C35.0221 89.8974 32.6103 88.8985 30.8319 87.1204C29.0535 85.3423 28.0543 82.9306 28.0539 80.4158C28.0547 79.8042 28.119 79.1945 28.2456 78.5962C28.233 78.6084 28.2177 78.6177 28.201 78.6233C28.1843 78.6289 28.1665 78.6306 28.1491 78.6284C26.243 78.6269 24.3816 78.0514 22.8074 76.9769C21.2331 75.9024 20.0189 74.3786 19.323 72.6042C18.6271 70.8297 18.4817 68.8868 18.9058 67.0286C19.3299 65.1703 20.3038 63.4829 21.7006 62.1861C20.2523 61.1479 19.1257 59.7226 18.4499 58.0737C17.7741 56.4248 17.5764 54.6189 17.8795 52.8629C18.1826 51.1068 18.9743 49.4717 20.1638 48.1448C21.3532 46.8178 22.8924 45.8528 24.605 45.3602C23.8851 44.0036 23.5124 42.4897 23.5202 40.9539C23.5187 38.444 24.513 36.036 26.2847 34.2581C28.0565 32.4803 30.4611 31.4779 32.971 31.4709L32.9612 31.4751Z" fill="#DD6057"/>
<path d="M51.6179 86.853C50.6451 87.3527 49.6261 88.8126 50.8047 89.8092C53.0652 91.7212 54.5083 86.7396 51.6179 86.853Z" fill="#F9897D"/>
<path d="M67.8167 38.573C66.6186 37.0823 63.6708 38.4134 65.0173 39.9895C66.0363 41.196 67.8433 40.2134 67.8167 38.573Z" fill="#F9897D"/>
<path d="M70.1836 53.9598C70.4804 56.8474 76.0092 54.5071 75.2912 51.947C74.2708 48.3134 69.8561 50.7755 70.1836 53.9598Z" fill="#F9897D"/>
<path d="M24.9759 67.7217C25.0753 73.2071 31.5545 68.3781 31.7477 64.8635C31.9311 61.6106 29.8833 61.0843 27.354 63.335C28.0665 62.7023 26.2846 64.9222 26.5002 64.5205C25.9123 65.6165 25.4042 66.4787 24.9759 67.7217Z" fill="#F9897D"/>
<path d="M30.4656 44.5803C31.7519 46.5189 33.1698 48.9754 35.0622 45.5769C35.972 43.942 35.3002 41.0097 33.7381 40.0453C29.3402 37.3284 27.5948 45.3208 30.4656 44.5803Z" fill="#F9897D"/>
<path d="M37.3549 68.8471C38.7448 71.946 42.1391 67.9443 39.7008 67.0765C38.6818 66.7126 37.6489 67.9933 37.3549 68.8471Z" fill="#F9897D"/>
<path d="M63.2761 81.8952C65.6724 79.6081 57.3035 73.8721 56.6303 79.6081C56.2733 82.6482 62.0359 84.2649 63.2761 81.8952Z" fill="#F9897D"/>
<path d="M70.5531 66.7181C69.7959 65.247 66.8607 65.3996 67.3744 67.6322C67.8055 69.5036 70.7407 68.5391 70.5531 66.7181Z" fill="#F9897D"/>
<path d="M36.2575 82.4689C36.0266 80.2182 33.2748 81.4093 33.342 82.69C33.4567 84.8596 36.4829 84.6539 36.2575 82.4689Z" fill="#F9897D"/>
<path d="M54.6343 42.4165C56.104 42.7217 57.9614 39.6171 56.8864 38.3574C54.9912 36.1053 52.6649 41.3038 54.6343 42.4165Z" fill="#F9897D"/>
<path d="M43.8355 79.8684C50.298 80.4282 50.8747 72.7774 45.1597 73.3765C40.1053 73.907 40.668 78.0865 43.8355 79.8684Z" fill="#F9897D"/>
<path d="M67.3887 57.1973C69.3214 54.9637 69.0776 51.5861 66.8439 49.6534C64.6103 47.7206 61.2328 47.9645 59.3 50.1981C57.3672 52.4317 57.6111 55.8093 59.8447 57.742C62.0783 59.6748 65.4559 59.4309 67.3887 57.1973Z" fill="#242424"/>
<path d="M39.0848 60.0654C41.8438 59.0107 43.2255 55.9191 42.1708 53.16C41.1161 50.4009 38.0245 49.0193 35.2654 50.074C32.5063 51.1287 31.1247 54.2203 32.1794 56.9794C33.234 59.7384 36.3257 61.1201 39.0848 60.0654Z" fill="#242424"/>
<path fill-rule="evenodd" clip-rule="evenodd" d="M63.5812 52.5026C63.5626 52.8207 63.4499 53.1262 63.2574 53.3803C63.065 53.6343 62.8015 53.8255 62.5003 53.9297C62.1991 54.0338 61.8738 54.0462 61.5655 53.9652C61.2572 53.8843 60.98 53.7137 60.7688 53.475C60.5576 53.2363 60.422 52.9403 60.3792 52.6245C60.3364 52.3087 60.3884 51.9872 60.5284 51.701C60.6685 51.4147 60.8904 51.1764 61.166 51.0164C61.4416 50.8563 61.7585 50.7817 62.0765 50.802C62.5013 50.8286 62.8982 51.0226 63.1803 51.3414C63.4623 51.6601 63.6065 52.0777 63.5812 52.5026Z" fill="white"/>
<path d="M36.8144 53.9816C36.93 53.1015 36.3102 52.2943 35.4301 52.1787C34.55 52.0632 33.7428 52.683 33.6273 53.5631C33.5117 54.4432 34.1315 55.2503 35.0116 55.3659C35.8917 55.4814 36.6988 54.8617 36.8144 53.9816Z" fill="white"/>
<path d="M56.9508 59.7518C56.9508 59.2437 56.6527 58.772 56.111 58.7202C55.6435 58.6727 55.0808 59.0492 55.0794 59.5601C55.0794 60.0024 55.0276 60.3999 54.7799 60.6672C54.4999 60.964 54.017 61.1445 53.5929 61.2131C52.6131 61.3727 51.4766 60.9947 51.1448 59.9771C50.8817 59.1695 49.6919 59.3375 49.412 60.0261C49.0747 60.8562 48.4322 61.5938 47.5042 61.7352C46.5762 61.8766 45.8917 61.3741 45.6272 60.5301C45.476 60.0458 44.8042 59.8708 44.3814 60.0626C43.8734 60.2949 43.7628 60.8226 43.9153 61.3083C44.4164 62.9096 46.0499 63.7732 47.668 63.6094C48.7457 63.5002 49.6611 62.9096 50.3274 62.1034C51.2694 62.9362 52.6845 63.2679 53.9022 63.0691C55.6323 62.7864 56.9508 61.5504 56.9508 59.7518Z" fill="#242424"/>
<path d="M78.7769 13.5517C76.7483 12.3994 75.3654 10.8794 74.2482 8.68444C73.3234 6.8764 72.8117 5.65054 72.2049 2.36112C72.1922 2.28752 72.1606 2.21842 72.1131 2.16046C72.0655 2.1025 72.0036 2.05766 71.9334 2.03027C71.8632 2.00288 71.7871 1.99386 71.7124 2.0041C71.6376 2.01434 71.5668 2.04348 71.5068 2.0887C71.3994 2.18427 71.3313 2.31555 71.3155 2.45755C71.1936 3.13135 70.593 7.20546 68.3438 9.82712C67.3094 11.0325 65.7572 12.1764 64.2427 12.9394C64.1558 12.9829 64.086 13.0537 64.0441 13.1407C63.9988 13.2319 63.988 13.3363 64.0137 13.4348C64.0495 13.5465 64.1142 13.647 64.2013 13.7265C64.7057 14.2375 67.6895 16.7483 69.1333 19.8461C70.2969 22.3388 70.7648 24.2951 70.9329 24.6759C70.9622 24.7566 71.0118 24.8285 71.077 24.8848C71.1423 24.9411 71.221 24.98 71.3057 24.9978C71.4201 25.0086 71.5348 24.9799 71.6302 24.9166C71.7257 24.8533 71.7962 24.7594 71.8296 24.6506C71.9868 24.2324 72.5607 22.029 73.2527 20.6862C74.8549 17.5523 75.8491 16.9749 78.8573 14.2484C78.9082 14.202 78.9474 14.1445 78.9717 14.0804C78.9961 14.0164 79.0049 13.9476 78.9974 13.8795C78.9896 13.8115 78.9655 13.7463 78.9272 13.6893C78.8888 13.6323 78.8373 13.5851 78.7769 13.5517Z" fill="#FFD79B"/>
<path d="M14.648 47.202C13.4308 46.6604 12.1864 45.8871 11.3803 45.1013C9.65713 43.427 9.28789 40.9632 9.21528 40.5555C9.20292 40.463 9.17119 40.3741 9.12217 40.2948C9.07316 40.2156 9.00798 40.1477 8.93096 40.0957C8.85761 40.0473 8.77433 40.0163 8.68736 40.0049C8.60039 39.9935 8.51199 40.0021 8.42879 40.03C8.3336 40.0564 8.24703 40.1077 8.17786 40.1787C8.10869 40.2496 8.05939 40.3377 8.03494 40.434C7.45031 42.3835 7.00229 43.0936 6.20227 44.1384C5.2324 45.4013 4.07176 46.2452 2.40033 46.8339C2.29811 46.8703 2.20759 46.9339 2.13836 47.0179C2.06913 47.102 2.02379 47.2033 2.00713 47.3112C1.99047 47.4191 2.00313 47.5295 2.04375 47.6307C2.08437 47.7319 2.15145 47.8202 2.23786 47.8861C4.62439 49.703 5.42933 50.0983 6.65152 52.0924C7.17584 52.9488 7.582 54.3232 7.69893 54.5896C7.73874 54.7013 7.80958 54.7992 7.90303 54.8716C7.99648 54.9439 8.1086 54.9877 8.22606 54.9978C8.34352 55.0078 8.46137 54.9837 8.56561 54.9283C8.66984 54.8728 8.75607 54.7884 8.81403 54.685C8.96542 54.457 9.4122 53.2673 10.4559 51.7813C11.7273 49.9682 14.2456 48.6 14.6726 48.3112C14.8 48.2371 14.899 48.122 14.9534 47.9844C15.0079 47.8468 15.0148 47.6947 14.973 47.5527C14.9471 47.4742 14.9046 47.4021 14.8485 47.3416C14.7925 47.2811 14.7241 47.2335 14.648 47.202Z" fill="#FFD79B"/>
<path d="M86.6481 86.2015C85.4297 85.6599 84.1867 84.8865 83.3806 84.1008C81.6576 82.4276 81.2884 79.9624 81.2146 79.5546C81.2031 79.462 81.1717 79.373 81.1226 79.2938C81.0735 79.2146 81.0079 79.1472 80.9303 79.0961C80.8573 79.0474 80.7742 79.0162 80.6874 79.0048C80.6006 78.9935 80.5124 79.0022 80.4294 79.0304C80.3341 79.0564 80.2473 79.1074 80.1779 79.1781C80.1085 79.2489 80.059 79.3369 80.0344 79.4332C79.4498 81.3828 79.0018 82.0929 78.2019 83.1378C77.2321 84.4007 76.0728 85.2447 74.4003 85.8334C74.2981 85.8699 74.2076 85.9334 74.1383 86.0175C74.0691 86.1015 74.0238 86.2028 74.0071 86.3107C73.9905 86.4186 74.0031 86.529 74.0437 86.6302C74.0844 86.7315 74.1514 86.8197 74.2378 86.8857C76.6254 88.7026 77.429 89.098 78.6523 91.0934C79.1766 91.9486 79.5827 93.3244 79.6996 93.5896C79.7394 93.7013 79.8103 93.7992 79.9037 93.8715C79.9971 93.9439 80.1093 93.9877 80.2267 93.9978C80.3441 94.0078 80.462 93.9837 80.5662 93.9283C80.6704 93.8728 80.7567 93.7884 80.8146 93.685C80.966 93.457 81.4127 92.2672 82.4564 90.7811C83.7276 88.9679 86.2444 87.5996 86.6727 87.3108C86.8001 87.2367 86.899 87.1216 86.9534 86.984C87.0079 86.8464 87.0148 86.6943 86.973 86.5523C86.9465 86.474 86.9039 86.4023 86.8479 86.3418C86.7918 86.2814 86.7238 86.2336 86.6481 86.2015Z" fill="#FFD79B"/>
</svg>
