<svg width="100" height="100" viewBox="0 0 100 100" fill="none" xmlns="http://www.w3.org/2000/svg">
<path fill-rule="evenodd" clip-rule="evenodd" d="M48.3856 14.8903C48.2153 15.0453 48.3753 14.429 48.3753 14.1993C48.3753 13.7538 48.365 13.286 48.3257 12.8471C48.19 11.3531 48.2518 10.2857 47.7735 8.69266C47.3374 7.23687 47.0529 6.5496 45.4994 6.51878C45.0605 6.50945 44.0451 6.9502 43.9159 6.65792C43.7868 6.36564 44.1854 6.21623 44.4128 6.1406C48.424 4.8062 49.2709 6.90258 49.9812 10.4454C50.0748 10.9338 50.6364 14.287 50.4323 14.6998C50.1712 15.2208 48.3856 14.8865 48.3856 14.8865V14.8903Z" fill="#242424"/>
<path fill-rule="evenodd" clip-rule="evenodd" d="M21.9334 31.9725C26.1448 21.8203 34.7033 14.9093 49.4685 14.7402C49.4685 14.7402 75.1223 8.31851 80.7909 36.6116C83.3102 49.1861 83.737 85.1766 63.075 91.1454C27.5664 101.41 21.2418 71.1182 20.4369 68.6558C18.9751 64.1895 15.0641 48.526 21.9343 31.9688L21.9334 31.9725Z" fill="#A7C69B"/>
<path fill-rule="evenodd" clip-rule="evenodd" d="M47.1259 15.1422C47.4366 14.8098 45.8709 15.442 45.8007 15.4728C45.0848 15.7791 44.2584 16.1059 43.623 16.5597C43.1607 16.8884 42.5935 17.0621 42.1078 17.3628C40.587 18.3106 39.5876 19.7963 38.5094 21.1419C35.889 24.4102 37.48 28.5441 36.3785 32.1962C35.5895 34.8201 33.4436 36.7718 32.7801 39.4247C32.1792 41.8227 33.9967 43.7827 35.1001 45.7073C35.8151 46.9558 36.0228 48.6441 35.9049 50.0541C35.7009 52.4941 33.8788 54.1553 32.6378 56.1004C31.7141 57.5497 31.1835 59.2641 31.0281 60.9665C30.6407 65.219 34.4805 66.7681 35.9049 70.0841C36.4552 71.3643 35.7383 72.7921 35.9985 74.0994C36.2362 75.2844 37.5942 76.3181 37.9872 77.6898C38.4177 79.1942 37.4641 80.5603 37.7504 81.9853C38.0452 83.456 39.4584 84.374 40.1444 85.7429C40.7274 86.9055 40.8313 89.056 41.6043 90.0832C42.2014 90.8788 43.8289 92.7548 44.1312 92.4849C44.3062 92.3271 42.3876 90.0477 42.1855 89.3408C41.9281 88.4444 41.6933 87.2949 41.8514 86.3471C42.0096 85.3993 42.2024 84.628 41.7307 83.6867C41.1963 82.6315 40.5009 82.0525 40.2614 80.8573C39.946 79.2838 41.4948 77.5152 41.113 75.6131C40.5515 72.793 38.2483 71.0552 38.6985 67.913C38.9793 65.952 40.9445 63.1562 40.6395 61.3465C40.4523 60.2353 40.2005 58.3051 39.5033 57.3779C38.8819 56.5515 37.9535 55.3777 38.1772 54.2599C38.4626 52.8368 40.1687 52.8406 40.9708 52.0394C41.2983 51.7135 41.8898 51.1336 41.6343 50.6228C41.4611 50.2763 41.2122 49.8524 40.8294 49.7245C40.0686 49.4724 38.8884 49.9635 38.6507 48.7804C38.3148 47.0996 39.9404 46.2246 39.5978 44.8585C39.026 42.5735 37.5914 39.7058 38.0827 37.2517C38.3981 35.6802 39.2188 34.3971 39.2188 32.7639C39.2188 29.4331 38.5281 25.8295 40.1191 22.6546C40.9052 21.0849 42.4522 21.0746 43.1962 19.9616C43.6174 19.3322 43.6052 17.8054 43.9066 17.5057C44.8172 16.5962 46.8077 15.4821 47.1259 15.1432V15.1422Z" fill="#70995F"/>
<path fill-rule="evenodd" clip-rule="evenodd" d="M49.9448 14.908C49.8578 15.0948 51.1118 15.4832 51.663 16.065C53.6283 18.1399 53.9465 20.0803 53.9465 21.6145C53.9465 25.135 52.4492 27.2846 51.4001 30.4324C51.0463 31.4895 50.5578 33.4009 51.4749 34.3189C53.3972 36.2369 54.9329 38.6293 55.5927 41.2682C55.9671 42.7548 54.1889 44.1788 54.6185 45.4535C55.048 46.7281 56.303 47.4527 56.6409 48.8151C57.0396 50.4026 55.1117 51.7846 55.6676 53.4486C56.2047 55.0585 57.9455 56.8346 57.4644 58.7545C56.6109 62.1638 52.7599 64.305 51.9223 67.6479C51.313 70.0805 51.9718 72.2236 52.4463 74.5973C52.9255 76.9897 52.0813 78.96 51.6228 81.2487C51.2484 83.1256 52.2966 85.4769 52.2966 87.4519C52.2966 88.7658 51.9597 90.0591 51.4431 91.2628C51.0968 92.0724 50.788 92.599 50.9752 92.6112C51.7884 92.6625 54.0121 89.1673 54.5071 86.7002C54.7776 85.349 53.9596 82.7783 54.3957 81.471C54.8253 80.1851 55.9933 79.4035 56.2675 78.0336C56.9535 74.6113 55.4963 70.6473 56.3423 67.2726C57.6862 61.907 63.2518 63.1433 64.2813 58.0056C65.2723 53.0564 61.1246 54.9829 60.2365 52.3262C59.543 50.2485 61.324 49.5248 61.061 48.591C60.6867 47.2697 59.2726 46.9839 58.8889 45.4525C58.5145 43.9454 59.2904 41.7986 58.8889 40.5968C58.6081 39.747 57.748 39.0392 57.2408 38.28C56.318 36.8989 55.5441 35.0201 55.1435 33.4243C54.7392 31.8088 55.9727 30.7956 56.4173 29.464C56.7158 28.5713 55.8931 27.97 55.8931 27.0726C55.8931 25.3451 56.8084 23.8174 56.2675 22.1403C55.5422 19.8926 54.5212 17.7514 52.8422 16.0706C52.4819 15.7101 51.8989 15.2218 51.2513 15.1097C50.9031 15.05 50.015 14.7633 49.9476 14.9071L49.9448 14.908Z" fill="#70995F"/>
<path fill-rule="evenodd" clip-rule="evenodd" d="M59.6478 14.954C59.5542 15.1977 62.3497 16.2762 63.2621 16.9607C63.9986 17.5126 64.7202 18.6359 65.366 19.2803C66.606 20.5185 66.0753 22.6345 66.9709 23.9763C67.7093 25.081 69.7701 25.3929 70.1828 26.6274C70.6957 28.1635 70.4945 30.4699 69.6288 31.7633C69.086 32.5757 67.4866 33.1938 67.9125 34.4713C68.1315 35.1249 70.2137 34.1482 70.4037 34.5264C70.8884 35.4938 69.3593 36.0839 69.7944 36.7357C70.3007 37.494 72.1473 37.2241 72.9502 38.5585C73.4313 39.3588 73.8449 41.217 73.231 42.0388C72.8332 42.5682 71.7701 43.7962 72.0144 44.5245C72.1454 44.9177 72.6207 45.0717 72.7892 45.4088C73.04 45.9094 72.2427 46.4416 72.6227 47.0103C72.9699 47.5295 74.1201 47.5706 74.2838 48.2242C74.9286 50.7959 74.8387 52.9605 74.5056 55.6255C74.1612 58.3718 72.369 60.6484 71.8478 63.249C71.5866 64.5507 71.9245 65.379 72.2352 66.6182C72.4738 67.5706 72.2848 69.1394 72.1248 70.0984C71.7326 72.446 70.3007 73.8999 69.7991 75.8992C69.5333 76.9609 69.4557 78.1926 69.3013 79.2683C69.0018 81.36 66.8118 83.7505 65.6579 85.4706C65.0402 86.3895 61.1256 91.1593 61.2182 91.2237C61.8069 91.6374 69.0898 84.2697 69.8553 82.362C70.239 81.4039 70.516 79.1619 71.0176 78.4951C71.8084 77.4428 72.9165 76.4781 73.5641 75.4015C73.9581 74.7478 73.5557 73.8719 73.8963 73.1921C74.9417 71.106 76.5542 68.99 76.8855 66.6742C77.0849 65.2866 77.3347 63.3321 77.052 61.923C76.8181 60.7558 76.5842 59.4307 76.8303 58.2224C77.1111 56.8152 78.3202 56.1326 78.9341 54.9074C79.4357 53.9083 77.7175 52.9689 78.104 52.1994C79.1699 50.0713 80.1171 49.7771 79.6538 47.0066C79.4526 45.7992 79.126 44.5787 78.4915 43.5263C77.9973 42.7055 77.1813 42.3973 76.9941 41.3169C76.7386 39.792 77.3684 38.2419 76.9941 36.732C76.7919 35.928 74.1499 33.9988 73.7831 32.5346C73.5856 31.7493 73.2619 31.0638 73.0635 30.2692C72.7331 28.9516 73.4377 27.6966 73.0082 26.4023C72.7499 25.631 70.7003 24.743 70.2942 23.53C70.1706 23.1621 70.1566 21.9976 69.7953 21.8183C69.421 21.6316 68.5207 21.8118 68.356 21.3206C68.1061 20.5736 68.1361 19.8321 67.803 19.1663C67.1394 17.8422 63.3791 16.0381 61.9894 15.5759C61.1471 15.2957 59.7648 14.6598 59.6497 14.9502L59.6478 14.954Z" fill="#70995F"/>
<path fill-rule="evenodd" clip-rule="evenodd" d="M37.1805 17.2405C37.4116 17.473 34.867 19.2948 30.3898 25.7109C29.6777 26.7316 28.7989 28.5198 28.5939 29.7617C28.4002 30.9197 28.7137 31.9188 27.9613 32.9189C27.3193 33.7733 27.7357 34.8668 27.1106 35.6988C26.6548 36.3058 25.7751 36.754 25.426 37.3797C24.3591 39.293 23.9174 39.1296 23.6713 40.3585C23.441 41.5052 24.872 42.3456 25.1481 43.4456C25.4885 44.75 25.5837 46.1061 25.4289 47.4451C25.121 49.9038 21.7387 54.0825 22.4753 56.2872C22.7392 57.0781 24.9759 56.8942 25.1995 57.7813C25.4513 58.787 23.0274 60.1158 23.3896 61.1962C23.6142 61.8694 24.9094 61.862 25.0742 62.5296C25.3961 63.8127 25.5954 65.1723 25.9164 66.459C26.1972 67.588 26.9243 68.4564 27.2528 69.5471C28.1597 72.5633 26.5977 75.0892 28.6566 77.8271C29.1517 78.4864 29.9435 79.0158 30.4142 79.7218C30.8737 80.409 31.0132 81.4614 31.3285 82.243C31.7109 83.1673 32.1985 84.0446 32.7819 84.8577C34.6799 87.4517 37.4407 90.0869 37.2675 90.3969C37.0944 90.707 33.8048 88.1353 31.9752 86.2313C31.1863 85.4114 28.1325 80.8498 27.6702 79.93C27.3895 79.3697 27.8228 78.5788 27.4596 78.0353C26.9318 77.2453 25.5701 76.6682 25.3502 75.7895C24.9684 74.2684 25.5748 72.9816 24.9282 71.369C24.5538 70.4352 24.1102 69.3548 23.5917 68.4919C22.9703 67.4591 21.8641 66.7999 21.5525 65.5561C21.194 64.1246 22.2123 62.1944 21.8651 60.8124C21.6667 60.0196 20.6316 59.1315 20.8403 58.3033C21.0771 57.3555 21.5993 56.6803 21.341 55.6503C20.845 53.6688 19.5104 51.382 19.9372 49.265C20.2685 47.6122 21.8005 46.7783 22.0475 45.0545C22.2759 43.4587 21.3166 41.8666 21.6957 40.3538C21.9437 39.3621 23.2146 38.6832 23.5244 37.7569C23.7658 37.0323 23.5141 36.1209 23.6647 35.3711C23.967 33.8621 26.2262 32.184 27.2519 31.1606C28.1298 30.2847 27.2931 28.7943 27.7442 27.7924C29.7095 23.4231 36.8586 16.9192 37.174 17.2405H37.1805Z" fill="#70995F"/>
<path d="M62.1991 39.8213C62.6651 39.9554 63.1484 40.0159 63.6319 40.0008C64.1921 40.0048 64.7488 39.9156 65.2803 39.7368C66.3201 39.3492 66.9606 38.5069 67.315 37.8653C67.5907 37.3694 68.0348 36.4055 67.9257 35.509C67.912 35.3565 67.8416 35.2149 67.7289 35.1133C67.6162 35.0117 67.4698 34.9577 67.3197 34.9625C67.2391 34.9682 67.1605 34.9905 67.0886 35.0281C67.0168 35.0657 66.9533 35.1179 66.9019 35.1813C66.8534 35.2376 66.8172 35.3038 66.7957 35.3755C66.7742 35.4472 66.7678 35.5227 66.777 35.5972C66.7808 35.6378 66.7846 35.6796 66.788 35.7166L66.7875 35.7889L66.7905 35.8211L66.7927 35.845C66.7934 35.8533 66.7942 35.8617 66.795 35.8701L66.7819 35.9724C66.7717 36.0419 66.758 36.1118 66.7432 36.1818C66.6823 36.4773 66.5843 36.7634 66.4516 37.0331C66.217 37.5264 65.7947 38.1874 65.1072 38.5296C64.7359 38.7153 64.2769 38.7693 63.9182 38.7961C63.5216 38.8328 63.1217 38.8093 62.7315 38.7265C62.1749 38.6128 61.6705 38.3138 61.2976 37.8766L61.2696 37.8406C61.2458 37.8127 61.2242 37.7834 61.2027 37.7552C61.1609 37.6977 61.1203 37.6424 61.0817 37.5809C61.0046 37.4616 60.9411 37.3338 60.8803 37.2249L60.8792 37.213L60.8784 37.2035L60.8397 37.1155C60.8157 37.0599 60.7924 36.9994 60.7724 36.9483C60.7321 36.8437 60.6964 36.7374 60.6653 36.6295C60.6402 36.5351 60.5909 36.4493 60.5223 36.3808C60.4538 36.3123 60.3686 36.2638 60.2756 36.2402C60.1628 36.2137 60.045 36.2211 59.9365 36.2616C59.8446 36.2943 59.7618 36.349 59.6949 36.4209C59.626 36.4942 59.5778 36.5852 59.5557 36.6843C59.5336 36.7835 59.5383 36.8869 59.5694 36.9837C59.9515 38.4126 60.9222 39.4373 62.1991 39.8213Z" fill="#242424"/>
<path d="M37.835 42.1018C38.2886 42.2032 38.7587 42.2471 39.2307 42.2321C39.7813 42.2312 40.3309 42.1581 40.8605 42.0154C41.687 41.7745 42.432 41.2347 42.9656 40.4909C43.2013 40.1626 43.3836 39.8089 43.5073 39.44C43.6183 39.1527 43.6608 38.8505 43.6323 38.552C43.6197 38.4307 43.5539 38.3193 43.4481 38.2403C43.3424 38.1614 43.2046 38.1207 43.0626 38.1266C42.9855 38.1324 42.9101 38.1515 42.8409 38.1827C42.7717 38.214 42.7102 38.2567 42.6601 38.3084C42.6137 38.3546 42.5788 38.4084 42.5575 38.4662C42.5362 38.5241 42.529 38.5848 42.5364 38.6445C42.5416 38.6762 42.5445 38.7082 42.5452 38.7403C42.5471 38.7614 42.549 38.7816 42.5443 38.8042L42.5387 38.854C42.5241 38.9446 42.5037 39.0345 42.4777 39.1235C42.4096 39.3669 42.303 39.6021 42.1608 39.8222C41.8128 40.3915 41.3227 40.8229 40.781 41.0358C40.3749 41.1784 39.9448 41.2589 39.5104 41.2738C39.1231 41.3047 38.7341 41.2896 38.3546 41.2288C38.0529 41.1824 37.7643 41.0911 37.5017 40.9589C37.3996 40.9121 37.3038 40.8561 37.216 40.7917C37.1123 40.7182 37.0147 40.6386 36.9238 40.5536L36.9003 40.5316L36.8429 40.4702C36.8015 40.4247 36.7615 40.381 36.7174 40.3299C36.6475 40.2408 36.5837 40.1482 36.5263 40.0526L36.4807 39.9717C36.4574 39.9265 36.435 39.8793 36.414 39.8338C36.3761 39.7522 36.3425 39.6683 36.3133 39.583C36.2894 39.5071 36.2419 39.4387 36.1759 39.3851C36.1099 39.3314 36.0279 39.2945 35.9383 39.2781C35.8391 39.2615 35.7359 39.2672 35.6385 39.2947C35.5412 39.3223 35.453 39.3707 35.3825 39.4353C35.3174 39.4956 35.2719 39.5695 35.2508 39.6492C35.2298 39.7288 35.2339 39.8113 35.2628 39.8879C35.6553 41.0012 36.5912 41.8086 37.835 42.1018Z" fill="#242424"/>
<path d="M56.082 44.6694C55.818 44.6441 55.4803 44.8004 55.4543 45.0206C55.4343 45.2114 55.3884 45.3822 55.2348 45.4945C55.0341 45.6201 54.79 45.6978 54.5359 45.7168C53.9682 45.7754 53.3397 45.601 53.1949 45.1596C53.0814 44.8086 52.3984 44.8686 52.2052 45.1619C51.9756 45.5129 51.5765 45.8275 51.0434 45.8788C50.5103 45.93 50.1412 45.7063 50.0274 45.3405C49.963 45.1294 49.5874 45.0507 49.3391 45.1262C49.0387 45.2206 48.9526 45.4463 49.0181 45.6573C49.2335 46.3521 50.1258 46.7408 51.0547 46.6871C51.6594 46.6415 52.2283 46.4184 52.6377 46.0662C53.1376 46.4331 53.9287 46.5925 54.6302 46.5193C55.626 46.4158 56.4287 45.8976 56.5107 45.1228C56.5369 44.9042 56.3883 44.6992 56.082 44.6694Z" fill="#242424"/>
<path d="M35.9665 47.0685C35.8984 45.7472 33.745 44.7847 31.1569 44.9186C28.5687 45.0526 26.5258 46.2322 26.5939 47.5535C26.6621 48.8747 28.8154 49.8372 31.4036 49.7033C33.9918 49.5694 36.0347 48.3897 35.9665 47.0685Z" fill="#DD6057"/>
<path d="M77.1207 43.9483C77.0526 42.6271 74.8992 41.6646 72.311 41.7985C69.7229 41.9324 67.68 43.1121 67.7481 44.4333C67.8163 45.7546 69.9696 46.7171 72.5578 46.5832C75.146 46.4492 77.1889 45.2696 77.1207 43.9483Z" fill="#DD6057"/>
<path d="M94.7769 19.5517C92.7483 18.3994 91.3654 16.8794 90.2482 14.6844C89.3234 12.8764 88.8117 11.6505 88.2049 8.36112C88.1922 8.28752 88.1606 8.21842 88.1131 8.16046C88.0655 8.1025 88.0036 8.05766 87.9334 8.03027C87.8632 8.00288 87.7871 7.99386 87.7124 8.0041C87.6376 8.01434 87.5668 8.04348 87.5068 8.0887C87.3994 8.18427 87.3313 8.31555 87.3155 8.45755C87.1936 9.13135 86.593 13.2055 84.3438 15.8271C83.3094 17.0325 81.7572 18.1764 80.2427 18.9394C80.1558 18.9829 80.086 19.0537 80.0441 19.1407C79.9988 19.2319 79.988 19.3363 80.0137 19.4348C80.0495 19.5465 80.1142 19.647 80.2013 19.7265C80.7057 20.2375 83.6895 22.7483 85.1333 25.8461C86.2969 28.3388 86.7648 30.2951 86.9329 30.6759C86.9622 30.7566 87.0118 30.8285 87.077 30.8848C87.1423 30.9411 87.221 30.98 87.3057 30.9978C87.4201 31.0086 87.5348 30.9799 87.6302 30.9166C87.7257 30.8533 87.7962 30.7594 87.8296 30.6506C87.9868 30.2324 88.5607 28.029 89.2527 26.6862C90.8549 23.5523 91.8491 22.9749 94.8573 20.2484C94.9082 20.202 94.9474 20.1445 94.9717 20.0804C94.9961 20.0164 95.0049 19.9476 94.9974 19.8795C94.9896 19.8115 94.9655 19.7463 94.9272 19.6893C94.8888 19.6323 94.8373 19.5851 94.7769 19.5517Z" fill="#FFD79B"/>
<path d="M15.7022 51.2417C14.6722 50.7724 13.6193 50.1021 12.9371 49.4212C11.4791 47.9701 11.1667 45.8348 11.1052 45.4814C11.0948 45.4012 11.0679 45.3242 11.0265 45.2555C10.985 45.1868 10.9298 45.128 10.8647 45.0829C10.8026 45.041 10.7321 45.0141 10.6585 45.0042C10.5849 44.9944 10.5101 45.0018 10.4397 45.026C10.3592 45.0489 10.2859 45.0933 10.2274 45.1548C10.1689 45.2163 10.1272 45.2927 10.1065 45.3762C9.6118 47.0657 9.23271 47.6811 8.55577 48.5866C7.73511 49.6811 6.75303 50.4125 5.33874 50.9227C5.25225 50.9543 5.17565 51.0094 5.11707 51.0822C5.0585 51.155 5.02013 51.2429 5.00603 51.3364C4.99194 51.4298 5.00265 51.5255 5.03702 51.6133C5.07139 51.701 5.12815 51.7775 5.20127 51.8346C7.22064 53.4092 7.90174 53.7519 8.9359 55.4801C9.37955 56.2223 9.72323 57.4134 9.82217 57.6443C9.85586 57.7412 9.9158 57.826 9.99487 57.8887C10.0739 57.9514 10.1688 57.9894 10.2682 57.9981C10.3676 58.0068 10.4673 57.9859 10.5555 57.9378C10.6437 57.8898 10.7167 57.8166 10.7657 57.727C10.8938 57.5294 11.2719 56.4983 12.155 55.2105C13.2308 53.6391 15.3616 52.4533 15.723 52.203C15.8308 52.1388 15.9145 52.0391 15.9606 51.9198C16.0067 51.8006 16.0125 51.6688 15.9771 51.5457C15.9552 51.4776 15.9193 51.4152 15.8718 51.3627C15.8244 51.3103 15.7665 51.269 15.7022 51.2417Z" fill="#FFD79B"/>
<path d="M28.5939 73.0822C27.1881 72.3239 25.7539 71.2412 24.8238 70.1411C22.8357 67.7986 22.4097 64.3474 22.3245 63.7765C22.3113 63.6468 22.275 63.5222 22.2184 63.4113C22.1617 63.3005 22.086 63.206 21.9965 63.1345C21.9123 63.0664 21.8164 63.0227 21.7162 63.0068C21.6161 62.9908 21.5143 63.0031 21.4186 63.0425C21.3086 63.0789 21.2084 63.1503 21.1284 63.2494C21.0483 63.3484 20.9911 63.4716 20.9627 63.6065C20.2882 66.3359 19.7713 67.3301 18.8483 68.7929C17.7293 70.561 16.3917 71.7426 14.4619 72.5668C14.3439 72.6178 14.2395 72.7068 14.1596 72.8245C14.0798 72.9421 14.0274 73.084 14.0082 73.235C13.989 73.3861 14.0036 73.5406 14.0505 73.6823C14.0973 73.8241 14.1747 73.9476 14.2744 74.04C17.0293 76.5837 17.9565 77.1372 19.368 79.9308C19.973 81.1281 20.4416 83.0541 20.5765 83.4254C20.6224 83.5818 20.7041 83.7189 20.812 83.8202C20.9198 83.9215 21.0491 83.9828 21.1847 83.9969C21.3202 84.011 21.4561 83.9772 21.5764 83.8996C21.6967 83.8219 21.7961 83.7037 21.863 83.559C22.0377 83.2398 22.5532 81.574 23.7573 79.4936C25.2242 76.955 28.1282 75.0394 28.6223 74.6351C28.7693 74.5314 28.8834 74.3702 28.9463 74.1776C29.0091 73.9849 29.0171 73.772 28.9688 73.5732C28.9383 73.4636 28.8891 73.3632 28.8244 73.2786C28.7598 73.1939 28.6813 73.127 28.5939 73.0822Z" fill="#FFD79B"/>
</svg>
