<svg width="100" height="100" viewBox="0 0 100 100" fill="none" xmlns="http://www.w3.org/2000/svg">
<path fill-rule="evenodd" clip-rule="evenodd" d="M51.3421 4.67098C51.3421 4.67098 49.4487 4.16248 49.7154 3.53089C49.8986 3.09127 50.5097 2.7982 51.956 3.16894C52.6887 3.36237 53.8962 4.13611 53.1093 4.56841C52.6433 4.82485 51.6527 4.71494 51.3421 4.67098Z" fill="#B29686"/>
<path fill-rule="evenodd" clip-rule="evenodd" d="M50.2767 24.2136C50.2767 24.2136 49.4883 19.1609 49.2905 14.4833C49.1058 10.1296 48.9622 7.53294 49.6935 3.72144C50.1829 4.14782 50.7783 4.43416 51.4169 4.55023C52.0555 4.6663 52.7136 4.60779 53.3218 4.38087C53.3218 4.38087 52.2286 8.07513 51.7992 13.3857C51.3699 18.6963 52.148 24.2678 52.148 24.2678L50.2767 24.2136Z" fill="#926E57"/>
<path fill-rule="evenodd" clip-rule="evenodd" d="M17.8489 66.6457C16.6296 62.9485 7.54563 33.006 25.2682 24.0026C37.5878 17.7395 42.6976 22.8303 51.9516 22.9768C59.5717 23.1058 59.7182 18.2069 68.5253 19.262C80.8522 20.7377 93.7052 33.0441 81.3519 71.0976C73.6791 94.7374 58.9577 88.6516 55.492 88.3116C52.0264 87.9717 50.1316 89.7507 39.5866 89.8606C27.9513 89.9822 19.3802 71.2925 17.8489 66.6472V66.6457Z" fill="#F9897D"/>
<path d="M50.7939 64.1047C50.0612 64.4828 49.2905 65.5847 50.18 66.338C51.8871 67.7814 52.9774 64.0197 50.7939 64.1047Z" fill="#FF9898"/>
<path d="M29.5896 68.1038C28.6855 66.9783 26.4595 67.9821 27.4721 69.172C28.2532 70.0835 29.6101 69.342 29.5896 68.1038Z" fill="#FF9898"/>
<path d="M67.5992 79.5044C67.8234 81.6849 71.9954 79.9177 71.4546 77.9848C70.6853 75.2416 67.3515 77.1011 67.5992 79.5044Z" fill="#FF9898"/>
<path d="M59.7593 29.744C59.834 33.8852 64.7211 30.2393 64.8721 27.5869C65.0113 25.1309 63.4653 24.7352 61.5544 26.4322C62.0937 25.9545 60.7484 27.6294 60.9096 27.3276C60.4671 28.154 60.0831 28.8076 59.7593 29.744Z" fill="#FF9898"/>
<path d="M32.434 35.7754C33.4055 37.2408 34.4767 39.0931 35.904 36.5272C36.5913 35.2933 36.0843 33.0791 34.9061 32.3508C31.584 30.3007 30.2666 36.3338 32.434 35.7754Z" fill="#FF9898"/>
<path d="M77.473 44.1386C78.5208 46.4832 81.0838 43.4557 79.2432 42.8007C78.4724 42.5266 77.6928 43.4938 77.473 44.1386Z" fill="#FF9898"/>
<path d="M63.6734 76.1532C65.4831 74.427 59.1658 70.0967 58.6573 74.427C58.3877 76.7218 62.7384 77.941 63.6734 76.1532Z" fill="#FF9898"/>
<path d="M65.0904 48.904C64.5189 47.7932 62.3061 47.909 62.6901 49.5942C63.0154 51.0069 65.2325 50.2786 65.0904 48.904Z" fill="#FF9898"/>
<path d="M39.1968 60.7957C39.0224 59.0958 36.9459 59.9956 36.9987 60.9627C37.0822 62.6011 39.3668 62.4457 39.1968 60.7957Z" fill="#FF9898"/>
<path d="M53.0712 30.5558C54.182 30.7874 55.5829 28.4471 54.7725 27.4873C53.3423 25.7947 51.5853 29.7161 53.0712 30.5558Z" fill="#FF9898"/>
<path d="M52.0058 45.5468C53.9651 45.7168 54.1395 43.397 52.4074 43.5788C50.8746 43.74 51.0445 45.006 52.0058 45.5468Z" fill="#FF9898"/>
<path d="M31.3723 52.3255C34.0597 52.0264 35.9957 49.6055 35.6967 46.9182C35.3976 44.2308 32.9767 42.2947 30.2893 42.5938C27.602 42.8928 25.6659 45.3138 25.965 48.0011C26.264 50.6885 28.685 52.6246 31.3723 52.3255Z" fill="#242424"/>
<path d="M72.1439 57.6428C73.9426 57.5419 75.324 56.0904 75.2292 54.4008C75.1345 52.7112 73.5995 51.4233 71.8008 51.5241C70.0021 51.625 68.6207 53.0765 68.7155 54.7661C68.8103 56.4557 70.3452 57.7437 72.1439 57.6428Z" fill="#DD6057"/>
<path d="M30.1126 60.4783C31.9113 60.3774 33.2927 58.9259 33.1979 57.2363C33.1031 55.5467 31.5682 54.2587 29.7695 54.3596C27.9708 54.4605 26.5894 55.912 26.6842 57.6016C26.7789 59.2912 28.3139 60.5792 30.1126 60.4783Z" fill="#DD6057"/>
<path d="M74.36 48.4226C76.2719 46.5107 76.2719 43.4107 74.36 41.4988C72.448 39.5868 69.3481 39.5868 67.4361 41.4988C65.5241 43.4107 65.5241 46.5106 67.4361 48.4226C69.3481 50.3346 72.448 50.3346 74.36 48.4226Z" fill="#242424"/>
<path d="M59.2405 49.5312C59.2962 51.9931 58.9475 54.5824 57.6462 56.7219C56.6369 58.3929 55.1015 59.6814 53.2808 60.3854C51.4124 61.1181 49.1776 61.3453 47.2521 60.7532C45.2299 60.1348 43.6121 58.6885 42.5907 56.8538C41.4693 54.805 40.9444 52.483 41.0755 50.1511C41.093 49.8141 41.2997 49.5107 41.6616 49.4902C41.9693 49.4726 42.3416 49.7393 42.3225 50.0764C42.132 53.6182 43.4948 57.7888 46.9092 59.301C47.8143 59.6832 48.7924 59.8614 49.7741 59.8227C50.6246 59.8006 51.4679 59.6605 52.2799 59.4066C53.0585 59.1781 53.7941 58.8232 54.4575 58.3559C55.1467 57.8819 55.7469 57.29 56.2306 56.6076C56.8343 55.7376 57.2807 54.7685 57.5495 53.7442C57.891 52.3935 58.0391 51.0012 57.9891 49.6089C57.97 48.8044 59.22 48.7296 59.2391 49.5356L59.2405 49.5312Z" fill="#242424"/>
<path fill-rule="evenodd" clip-rule="evenodd" d="M70.3746 43.6654C70.3893 43.9087 70.3314 44.1508 70.2084 44.3613C70.0854 44.5717 69.9028 44.7409 69.6836 44.8476C69.4644 44.9542 69.2185 44.9934 68.977 44.9603C68.7356 44.9272 68.5093 44.8232 68.3269 44.6615C68.1445 44.4998 68.0142 44.2877 67.9523 44.0519C67.8905 43.8161 67.9 43.5673 67.9796 43.3369C68.0592 43.1066 68.2053 42.905 68.3995 42.7576C68.5936 42.6103 68.8271 42.5238 69.0704 42.5091C69.232 42.4992 69.394 42.5213 69.547 42.5741C69.7001 42.6269 69.8412 42.7093 69.9624 42.8167C70.0835 42.9241 70.1823 43.0543 70.2531 43.2C70.3238 43.3456 70.3651 43.5037 70.3746 43.6654Z" fill="white"/>
<path d="M29.7524 47.1528C30.2036 46.6432 30.1562 45.8643 29.6466 45.4131C29.137 44.9619 28.3581 45.0093 27.9069 45.5189C27.4558 46.0285 27.5031 46.8074 28.0127 47.2586C28.5223 47.7098 29.3012 47.6624 29.7524 47.1528Z" fill="white"/>
<path d="M84.7769 25.5514C82.7483 24.3991 81.3654 22.8792 80.2482 20.6842C79.3234 18.8762 78.8117 17.6503 78.2049 14.3609C78.1922 14.2873 78.1606 14.2182 78.1131 14.1602C78.0655 14.1023 78.0036 14.0574 77.9334 14.03C77.8632 14.0026 77.7871 13.9936 77.7124 14.0039C77.6376 14.0141 77.5668 14.0432 77.5068 14.0885C77.3994 14.184 77.3313 14.3153 77.3155 14.4573C77.1936 15.1311 76.593 19.2052 74.3438 21.8269C73.3094 23.0322 71.7572 24.1761 70.2427 24.9391C70.1558 24.9826 70.086 25.0534 70.0441 25.1404C69.9988 25.2317 69.988 25.336 70.0137 25.4345C70.0495 25.5462 70.1142 25.6467 70.2013 25.7262C70.7057 26.2373 73.6895 28.7481 75.1333 31.8458C76.2969 34.3385 76.7648 36.2948 76.9329 36.6757C76.9622 36.7563 77.0118 36.8282 77.077 36.8846C77.1423 36.9409 77.221 36.9798 77.3057 36.9975C77.4201 37.0083 77.5348 36.9796 77.6302 36.9164C77.7257 36.8531 77.7962 36.7591 77.8296 36.6504C77.9868 36.2321 78.5607 34.0287 79.2527 32.686C80.8549 29.552 81.8491 28.9747 84.8573 26.2481C84.9082 26.2018 84.9474 26.1443 84.9717 26.0802C84.9961 26.0161 85.0049 25.9473 84.9974 25.8793C84.9896 25.8113 84.9655 25.746 84.9272 25.689C84.8888 25.632 84.8373 25.5849 84.7769 25.5514Z" fill="#FFD79B"/>
<path d="M12.7022 48.2415C11.6722 47.7721 10.6193 47.1019 9.93714 46.4209C8.47911 44.9698 8.16668 42.8346 8.10523 42.4812C8.09478 42.401 8.06793 42.324 8.02645 42.2553C7.98498 42.1866 7.92983 42.1278 7.86466 42.0827C7.80259 42.0408 7.73212 42.0138 7.65854 42.004C7.58495 41.9941 7.51015 42.0016 7.43975 42.0258C7.3592 42.0487 7.28595 42.0931 7.22742 42.1546C7.1689 42.2161 7.12717 42.2924 7.10649 42.3759C6.6118 44.0655 6.23271 44.6809 5.55577 45.5864C4.73511 46.6808 3.75303 47.4123 2.33874 47.9225C2.25225 47.954 2.17565 48.0091 2.11707 48.082C2.0585 48.1548 2.02013 48.2426 2.00603 48.3361C1.99194 48.4296 2.00265 48.5253 2.03702 48.613C2.07139 48.7007 2.12815 48.7772 2.20127 48.8344C4.22064 50.409 4.90174 50.7516 5.9359 52.4798C6.37955 53.222 6.72323 54.4132 6.82217 54.6441C6.85586 54.7409 6.9158 54.8257 6.99487 54.8884C7.07394 54.9511 7.16881 54.9891 7.2682 54.9978C7.36759 55.0065 7.46732 54.9856 7.55552 54.9376C7.64371 54.8895 7.71667 54.8164 7.76572 54.7268C7.89382 54.5292 8.27186 53.498 9.15501 52.2102C10.2308 50.6388 12.3616 49.4531 12.723 49.2028C12.8308 49.1386 12.9145 49.0388 12.9606 48.9196C13.0067 48.8003 13.0125 48.6685 12.9771 48.5455C12.9552 48.4774 12.9193 48.4149 12.8718 48.3625C12.8244 48.31 12.7665 48.2688 12.7022 48.2415Z" fill="#FFD79B"/>
<path d="M31.5939 80.0819C30.1881 79.3236 28.7539 78.2409 27.8238 77.1408C25.8357 74.7984 25.4097 71.3471 25.3245 70.7763C25.3113 70.6466 25.275 70.522 25.2184 70.4111C25.1617 70.3002 25.086 70.2058 24.9965 70.1343C24.9123 70.0662 24.8164 70.0225 24.7162 70.0065C24.6161 69.9906 24.5143 70.0028 24.4186 70.0423C24.3086 70.0787 24.2084 70.15 24.1284 70.2491C24.0483 70.3482 23.9911 70.4714 23.9627 70.6062C23.2882 73.3356 22.7713 74.3299 21.8483 75.7926C20.7293 77.5607 19.3917 78.7424 17.4619 79.5666C17.3439 79.6175 17.2395 79.7066 17.1596 79.8242C17.0798 79.9419 17.0274 80.0837 17.0082 80.2348C16.989 80.3858 17.0036 80.5404 17.0505 80.6821C17.0973 80.8238 17.1747 80.9474 17.2744 81.0397C20.0293 83.5835 20.9565 84.137 22.368 86.9306C22.973 88.1278 23.4416 90.0539 23.5765 90.4252C23.6224 90.5816 23.7041 90.7186 23.812 90.8199C23.9198 90.9212 24.0491 90.9826 24.1847 90.9966C24.3202 91.0107 24.4561 90.9769 24.5764 90.8993C24.6967 90.8217 24.7961 90.7035 24.863 90.5588C25.0377 90.2395 25.5532 88.5738 26.7573 86.4933C28.2242 83.9548 31.1282 82.0392 31.6223 81.6349C31.7693 81.5312 31.8834 81.37 31.9463 81.1774C32.0091 80.9847 32.0171 80.7718 31.9688 80.573C31.9383 80.4634 31.8891 80.363 31.8244 80.2783C31.7598 80.1937 31.6813 80.1267 31.5939 80.0819Z" fill="#FFD79B"/>
</svg>
