<svg width="100" height="100" viewBox="0 0 100 100" fill="none" xmlns="http://www.w3.org/2000/svg">
<path fill-rule="evenodd" clip-rule="evenodd" d="M36.3354 26.7373C35.8031 26.9515 35.2847 27.1986 34.7832 27.4773C32.486 28.6377 30.427 30.2191 28.7135 32.1394C24.0554 37.2571 21.4293 46.1115 22.5665 52.7297C23.6576 59.0807 26.913 65.2647 30.6546 68.2555C41.5805 76.9871 55.0085 78.597 65.3069 71.4693C70.9604 67.5591 74.0206 62.5261 75.8399 56.9033C77.6262 51.3679 76.82 46.6732 75.8894 42.3536C74.5634 36.1959 69.8219 30.6396 64.3555 27.7399C60.6617 25.7773 55.6797 24.8108 51.594 24.6151C46.6674 24.3709 39.3329 25.5631 36.3317 26.7488L36.3354 26.7373Z" fill="#90A6DD"/>
<path fill-rule="evenodd" clip-rule="evenodd" d="M31.8844 26.4112C32.1371 25.2393 37.7368 26.1098 38.5436 23.4197C38.9629 22.0241 38.4026 20.5767 38.8266 19.1671C38.8892 18.941 39.0388 18.1421 39.2914 18.0369C39.8141 17.8199 40.5245 19.4319 40.722 19.746C41.5025 20.9936 43.5783 23.3618 45.2179 23.3803C47.2899 23.4043 48.479 20.4683 48.9309 18.8157C49.0109 18.498 49.0558 17.0746 49.4056 16.928C49.6168 16.8469 50.7017 18.0927 50.815 18.2613C51.6766 19.5465 52.1124 21.0378 52.8352 22.4087C53.0018 22.7265 53.2331 23.7912 53.7562 23.7538C55.5884 23.6215 57.4726 22.0003 58.5435 20.6493C58.9733 20.1063 59.2609 19.4038 59.5235 18.7675C59.5677 18.6616 59.6467 18.1261 59.7926 18.1166C60.2305 18.0837 60.7551 19.0862 60.8666 19.3343C63.6295 25.5035 59.575 27.597 59.6152 28.1695C59.6554 28.742 60.5599 30.1441 60.7228 30.5259C61.9059 33.1786 60.738 35.46 59.0249 36.9588C58.4758 37.4385 58.4241 36.531 58.1367 36.0515C56.9552 34.0811 55.682 33.7804 55.4119 33.8923C55.035 34.0473 55.1129 34.9912 54.658 36.1681C53.7384 38.554 52.2196 40.0327 51.5577 40.0244C51.0306 40.025 50.5396 39.357 50.3759 38.8259C49.8208 37.0188 48.1742 35.6414 48.064 35.6857C47.7981 35.7879 45.8163 37.986 45.3429 38.8307C44.5439 40.253 44.8059 42.0494 44.2814 42.1197C43.6347 42.2086 42.6903 40.0824 42.4295 39.6088C41.8255 38.5156 41.6262 36.7455 41.564 34.9329C41.5558 34.6855 39.9535 35.2952 39.3207 35.7829C38.5753 36.3563 37.5741 38.4301 37.0957 38.3735C36.8286 38.3408 36.1083 36.0092 35.8672 35.0715C35.5428 33.8122 35.5951 32.4445 36.4448 30.2026C36.6323 29.7022 31.6345 27.6064 31.8871 26.4183L31.8844 26.4112Z" fill="#5977B2"/>
<path fill-rule="evenodd" clip-rule="evenodd" d="M38.7839 30.3644C38.1226 28.875 39.6679 25.499 46.9683 24.7018C53.001 24.0441 56.2443 25.8647 56.7425 27.14C57.3608 28.749 55.5712 30.2591 54.1943 30.8609C51.1121 32.2091 40.6614 34.5929 38.7839 30.3644Z" fill="#90A6DD"/>
<path fill-rule="evenodd" clip-rule="evenodd" d="M49.0565 27.738C47.282 27.8522 46.2129 28.2247 46.3819 28.6224C46.5068 28.9158 47.0426 28.9746 47.3739 28.9483C48.0374 28.9125 48.6927 28.7845 49.3208 28.5678C49.9193 28.3378 49.5535 27.7066 49.0565 27.738Z" fill="#5977B2"/>
<path d="M63.0598 59.3922C64.442 57.8367 63.6879 55.2434 61.1765 56.647C58.9706 57.8887 60.6529 60.5314 63.0598 59.3922Z" fill="#C4D5F7"/>
<path d="M31.0647 55.5432C31.0008 56.3759 31.296 57.0706 32.1411 56.9721C34.3165 56.7078 31.928 53.3789 31.0647 55.5432Z" fill="#C4D5F7"/>
<path d="M37.3429 63.5314C36.762 63.597 35.6113 64.3827 36.2748 65.1157C37.0856 66.0163 38.7523 64.4283 37.3429 63.5314Z" fill="#C4D5F7"/>
<path d="M42.069 45.7419C40.3816 45.2205 40.376 48.8756 41.9812 49.083C44.2593 49.3753 43.9307 46.3174 42.069 45.7419Z" fill="#C4D5F7"/>
<path d="M52.791 68.5472C52.6645 69.7373 53.9569 70.1195 54.2943 69.0786C54.7219 67.7465 52.9129 67.1769 52.791 68.5472Z" fill="#C4D5F7"/>
<path d="M56.0045 58.1619C53.9372 58.2027 55.3712 61.056 56.4394 59.8979C56.8855 59.4133 56.4128 58.5303 56.0045 58.1619Z" fill="#C4D5F7"/>
<path d="M73.7053 47.6375C74.3991 44.8102 72.6696 41.9558 69.8423 41.262C67.0151 40.5682 64.1606 42.2977 63.4668 45.125C62.773 47.9522 64.5025 50.8067 67.3298 51.5005C70.1571 52.1943 73.0115 50.4648 73.7053 47.6375Z" fill="#242424"/>
<path d="M47.277 51.4384C48.8807 49.0088 48.2112 45.7391 45.7816 44.1354C43.352 42.5317 40.0824 43.2012 38.4786 45.6308C36.8749 48.0604 37.5444 51.3301 39.974 52.9338C42.4036 54.5375 45.6733 53.868 47.277 51.4384Z" fill="#242424"/>
<path d="M48.5245 59.6907C48.3798 57.6732 46.1351 56.1902 43.5108 56.3784C40.8866 56.5666 38.8765 58.3547 39.0212 60.3723C39.1659 62.3898 41.4106 63.8728 44.0348 63.6846C46.6591 63.4964 48.6691 61.7083 48.5245 59.6907Z" fill="#DD6057"/>
<path d="M74.6591 57.5972C74.4398 55.5863 72.1418 54.1874 69.5263 54.4726C66.9108 54.7577 64.9683 56.619 65.1875 58.6298C65.4067 60.6406 67.7047 62.0395 70.3202 61.7543C72.9357 61.4692 74.8783 59.608 74.6591 57.5972Z" fill="#DD6057"/>
<path fill-rule="evenodd" clip-rule="evenodd" d="M68.795 45.1588C68.7857 45.4725 68.6836 45.7763 68.5017 46.0319C68.3197 46.2876 68.066 46.4835 67.7726 46.5949C67.4792 46.7062 67.1594 46.7281 66.8536 46.6577C66.5479 46.5873 66.2698 46.4277 66.0547 46.1993C65.8397 45.9708 65.6972 45.6836 65.6453 45.3742C65.5935 45.0647 65.6346 44.7468 65.7635 44.4607C65.8924 44.1746 66.1032 43.9331 66.3694 43.7669C66.6355 43.6007 66.945 43.5171 67.2586 43.5268C67.4667 43.5327 67.6717 43.5797 67.8616 43.665C68.0516 43.7503 68.2229 43.8722 68.3656 44.0239C68.5083 44.1755 68.6197 44.3538 68.6934 44.5485C68.7671 44.7433 68.8016 44.9507 68.795 45.1588Z" fill="white"/>
<path fill-rule="evenodd" clip-rule="evenodd" d="M42.602 47.5232C42.6652 47.8305 42.6358 48.1497 42.5175 48.4404C42.3992 48.731 42.1973 48.98 41.9374 49.1559C41.6776 49.3318 41.3714 49.4266 41.0576 49.4284C40.7438 49.4302 40.4366 49.3389 40.1747 49.1661C39.9128 48.9932 39.7081 48.7465 39.5864 48.4573C39.4648 48.168 39.4316 47.8492 39.4912 47.5411C39.5508 47.2331 39.7005 46.9496 39.9213 46.7266C40.142 46.5036 40.4239 46.3511 40.7314 46.2883C41.1432 46.2043 41.5715 46.2872 41.9222 46.5187C42.2729 46.7502 42.5175 47.1115 42.602 47.5232Z" fill="white"/>
<path d="M52.5185 53.307C55.1697 55.1167 58.8274 54.6667 61.0158 52.3386C61.8321 51.4713 60.5091 50.1736 59.6888 51.0464C58.9004 51.8923 57.8324 52.424 56.6822 52.5433C55.532 52.6625 54.3776 52.3612 53.4324 51.695C53.0191 51.4134 52.3993 51.6355 52.1682 52.0435C52.0513 52.2584 52.0225 52.5103 52.0878 52.7461C52.1532 52.9818 52.3076 53.183 52.5185 53.307Z" fill="#242424"/>
<path d="M86.7769 23.5517C84.7483 22.3994 83.3654 20.8794 82.2482 18.6844C81.3234 16.8764 80.8117 15.6505 80.2049 12.3611C80.1922 12.2875 80.1606 12.2184 80.1131 12.1605C80.0655 12.1025 80.0036 12.0577 79.9334 12.0303C79.8632 12.0029 79.7871 11.9939 79.7124 12.0041C79.6376 12.0143 79.5668 12.0435 79.5068 12.0887C79.3994 12.1843 79.3313 12.3155 79.3155 12.4575C79.1936 13.1313 78.593 17.2055 76.3438 19.8271C75.3094 21.0325 73.7572 22.1764 72.2427 22.9394C72.1558 22.9829 72.086 23.0537 72.0441 23.1407C71.9988 23.2319 71.988 23.3363 72.0137 23.4348C72.0495 23.5465 72.1142 23.647 72.2013 23.7265C72.7057 24.2375 75.6895 26.7483 77.1333 29.8461C78.2969 32.3388 78.7648 34.2951 78.9329 34.6759C78.9622 34.7566 79.0118 34.8285 79.077 34.8848C79.1423 34.9411 79.221 34.98 79.3057 34.9978C79.4201 35.0086 79.5348 34.9799 79.6302 34.9166C79.7257 34.8533 79.7962 34.7594 79.8296 34.6506C79.9868 34.2324 80.5607 32.029 81.2527 30.6862C82.8549 27.5523 83.8491 26.9749 86.8573 24.2484C86.9082 24.202 86.9474 24.1445 86.9717 24.0804C86.9961 24.0164 87.0049 23.9476 86.9974 23.8795C86.9896 23.8115 86.9655 23.7463 86.9272 23.6893C86.8888 23.6323 86.8373 23.5851 86.7769 23.5517Z" fill="#FFD79B"/>
<path d="M23.648 47.202C22.4308 46.6604 21.1864 45.8871 20.3803 45.1013C18.6571 43.427 18.2879 40.9632 18.2153 40.5555C18.2029 40.463 18.1712 40.3741 18.1222 40.2948C18.0732 40.2156 18.008 40.1477 17.931 40.0957C17.8576 40.0473 17.7743 40.0163 17.6874 40.0049C17.6004 39.9935 17.512 40.0021 17.4288 40.03C17.3336 40.0564 17.247 40.1077 17.1779 40.1787C17.1087 40.2496 17.0594 40.3377 17.0349 40.434C16.4503 42.3835 16.0023 43.0936 15.2023 44.1384C14.2324 45.4013 13.0718 46.2452 11.4003 46.8339C11.2981 46.8703 11.2076 46.9339 11.1384 47.0179C11.0691 47.102 11.0238 47.2033 11.0071 47.3112C10.9905 47.4191 11.0031 47.5295 11.0438 47.6307C11.0844 47.7319 11.1515 47.8202 11.2379 47.8861C13.6244 49.703 14.4293 50.0983 15.6515 52.0924C16.1758 52.9488 16.582 54.3232 16.6989 54.5896C16.7387 54.7013 16.8096 54.7992 16.903 54.8716C16.9965 54.9439 17.1086 54.9877 17.2261 54.9978C17.3435 55.0078 17.4614 54.9837 17.5656 54.9283C17.6698 54.8728 17.7561 54.7884 17.814 54.685C17.9654 54.457 18.4122 53.2673 19.4559 51.7813C20.7273 49.9682 23.2456 48.6 23.6726 48.3112C23.8 48.2371 23.899 48.122 23.9534 47.9844C24.0079 47.8468 24.0148 47.6947 23.973 47.5527C23.9471 47.4742 23.9046 47.4021 23.8485 47.3416C23.7925 47.2811 23.7241 47.2335 23.648 47.202Z" fill="#FFD79B"/>
<path d="M44.6481 79.2015C43.4297 78.6599 42.1867 77.8865 41.3806 77.1008C39.6576 75.4276 39.2884 72.9624 39.2146 72.5546C39.2031 72.462 39.1717 72.373 39.1226 72.2938C39.0735 72.2146 39.0079 72.1472 38.9303 72.0961C38.8573 72.0474 38.7742 72.0162 38.6874 72.0048C38.6006 71.9935 38.5124 72.0022 38.4294 72.0304C38.3341 72.0564 38.2473 72.1074 38.1779 72.1781C38.1085 72.2489 38.059 72.3369 38.0344 72.4332C37.4498 74.3828 37.0018 75.0929 36.2019 76.1378C35.2321 77.4007 34.0728 78.2447 32.4003 78.8334C32.2981 78.8699 32.2076 78.9334 32.1383 79.0175C32.0691 79.1015 32.0238 79.2028 32.0071 79.3107C31.9905 79.4186 32.0031 79.529 32.0437 79.6302C32.0844 79.7315 32.1514 79.8197 32.2378 79.8857C34.6254 81.7026 35.429 82.098 36.6523 84.0934C37.1766 84.9486 37.5827 86.3244 37.6996 86.5896C37.7394 86.7013 37.8103 86.7992 37.9037 86.8715C37.9971 86.9439 38.1093 86.9877 38.2267 86.9978C38.3441 87.0078 38.462 86.9837 38.5662 86.9283C38.6704 86.8728 38.7567 86.7884 38.8146 86.685C38.966 86.457 39.4127 85.2672 40.4564 83.7811C41.7276 81.9679 44.2444 80.5996 44.6727 80.3108C44.8001 80.2367 44.899 80.1216 44.9534 79.984C45.0079 79.8464 45.0148 79.6943 44.973 79.5523C44.9465 79.474 44.9039 79.4023 44.8479 79.3418C44.7918 79.2814 44.7238 79.2336 44.6481 79.2015Z" fill="#FFD79B"/>
</svg>
