<svg width="100" height="100" viewBox="0 0 100 100" fill="none" xmlns="http://www.w3.org/2000/svg">
<path d="M59.1022 50.869C57.3351 51.3031 54.4508 53.2577 54.3506 55.1917C54.2325 57.3389 54.0282 59.5182 53.4606 61.5871C53.3142 62.1188 49.649 54.7962 49.4474 54.4481C48.1144 52.1366 45.7129 48.8349 42.5872 50.0266C38.9605 51.411 40.5992 56.2332 41.0088 59.0996C41.4455 62.1509 43.2125 64.3815 43.1342 67.497C39.9802 66.4196 35.6499 61.7348 32.135 63.9937C29.0169 65.9971 33.0518 67.8463 34.6635 68.8198C38.3248 71.0389 40.8599 73.0577 42.8825 76.9668L47.3568 85.6353C48.0888 87.0479 48.971 88.6005 50.4953 89.0718C51.0437 89.2413 51.6255 89.2503 52.1996 89.2465C56.9293 89.2182 60.9052 88.8715 64.8709 86.0886C65.427 85.7033 65.9907 85.2526 66.2424 84.622C67.9388 80.3623 65.129 76.2554 64.3533 72.1652C63.4467 67.3892 62.7057 62.4565 62.549 57.5906C62.4643 55.4075 62.8534 49.9508 59.1022 50.869Z" fill="#70975F"/>
<path d="M50.277 37.2269C46.7056 38.2286 44.1757 42.0722 44.6676 45.7489C45.1594 49.4256 48.6101 52.4692 52.3202 52.4988C52.7966 55.6335 55.2084 58.3907 58.252 59.2807C61.2956 60.1706 64.8117 59.1523 66.9024 56.7636C69.8111 58.6167 73.7512 58.7118 76.7459 56.9986C79.7407 55.2855 81.6554 51.8412 81.5322 48.3944C81.5155 47.9462 81.4693 47.4865 81.6054 47.0588C81.8121 46.4167 82.3888 45.9698 82.8896 45.5036C85.3771 43.1612 86.1348 39.0338 84.2868 36.1584C82.4388 33.2831 77.9941 32.3546 75.3628 34.5403C76.9231 31.507 74.0299 27.9061 70.8322 26.7195C68.3357 25.7935 65.4616 25.6998 63.0588 26.8479C60.656 27.996 58.8504 30.4937 58.8927 33.1546C57.8544 32.7037 56.7126 32.5453 55.5908 32.6968C54.4689 32.8482 53.4098 33.3036 52.5282 34.0138C52.5282 34.0138 50.7239 34.3566 50.277 37.2269Z" fill="#A5C499"/>
<path d="M39.4666 47.7432C40.4939 48.1285 41.3505 48.8489 42.1223 49.6259C43.6877 51.2016 45.0503 53.2217 44.9669 55.4408C44.8667 58.112 42.6874 60.2861 40.3026 61.492C40.26 62.8075 39.9013 64.0933 39.2568 65.2408C38.6122 66.3884 37.7008 67.3638 36.5995 68.0846C35.4983 68.8054 34.2397 69.2504 32.9301 69.3819C31.6206 69.5134 30.2986 69.3277 29.076 68.8403C28.3517 72.2075 25.0474 74.8273 21.6032 74.7631C18.1589 74.6988 14.9548 71.9583 14.3564 68.5667C10.889 69.8869 6.55861 68.2547 4.82492 64.9709C3.09123 61.6872 4.18284 57.1937 7.23156 55.0735C5.97817 54.493 5.16655 53.1844 4.91998 51.8245C4.67341 50.4645 4.93153 49.0595 5.3566 47.7445C6.1785 45.2018 7.7324 42.7823 10.0838 41.5109C12.4352 40.2396 15.647 40.3885 17.5065 42.3084C18.3605 40.0932 19.7835 38.0371 21.7945 36.7735C23.8056 35.5098 26.4447 35.1412 28.6009 36.1468C30.7571 37.1523 32.2057 39.654 31.683 41.9707C32.4682 41.6959 33.3127 41.6362 34.1288 41.7978C34.9449 41.9594 35.703 42.3364 36.3243 42.8897C36.9456 43.443 37.4075 44.1524 37.6622 44.9444C37.9169 45.7365 37.955 46.5822 37.7726 47.3939L38.7076 47.8357" fill="#A5C499"/>
<path d="M23.0466 28.1089C21.8844 23.2289 25.1013 17.7222 29.9261 16.3404C34.7509 14.9586 40.395 17.9251 41.9977 22.6805C46.4231 18.4426 53.8934 17.8738 58.9108 21.3861C63.9283 24.8984 65.9496 32.1118 63.4865 37.72C65.7788 40.6441 64.8632 44.9501 63.1526 48.2505C61.8903 50.6828 60.1423 53.0175 57.6407 54.1361C55.139 55.2546 51.777 54.7782 50.2694 52.4846C48.0387 56.7854 44.6574 60.954 39.9353 62.0379C35.2133 63.1217 29.4047 59.5054 29.9043 54.6857C26.2944 57.9746 20.3279 58.2815 16.4008 55.3792C12.4737 52.4769 11.0161 46.6838 13.0991 42.2687C11.4643 39.0812 11.707 35.0129 13.7103 32.0425C15.7137 29.0721 19.3943 27.3217 22.9567 27.644" fill="#D5EDC8"/>
<path d="M68.3285 70.9476C69.4172 68.6255 68.4174 65.8605 66.0953 64.7717C63.7732 63.683 61.0082 64.6828 59.9195 67.0049C58.8307 69.327 59.8305 72.0921 62.1526 73.1808C64.4747 74.2695 67.2398 73.2697 68.3285 70.9476Z" fill="#242424"/>
<path d="M45.3092 79.8947C47.366 78.3627 47.7915 75.4534 46.2595 73.3966C44.7275 71.3398 41.8182 70.9143 39.7614 72.4463C37.7046 73.9783 37.2791 76.8876 38.8111 78.9444C40.3431 81.0012 43.2524 81.4267 45.3092 79.8947Z" fill="#242424"/>
<path d="M46.7205 88.9656C48.9252 88.2501 50.2665 86.2957 49.7163 84.6004C49.1661 82.9051 46.9328 82.1109 44.7281 82.8263C42.5235 83.5418 41.1823 85.4961 41.7325 87.1914C42.2827 88.8867 44.5159 89.6811 46.7205 88.9656Z" fill="#DA6057"/>
<path d="M68.7872 81.7887C70.9639 80.9922 72.2318 78.9896 71.6193 77.3158C71.0068 75.642 68.7457 74.9308 66.5691 75.7274C64.3924 76.5239 63.1243 78.5265 63.7368 80.2003C64.3494 81.8741 66.6105 82.5853 68.7872 81.7887Z" fill="#DA6057"/>
<path fill-rule="evenodd" clip-rule="evenodd" d="M63.9951 67.8298C64.0534 68.0999 64.0302 68.3813 63.9286 68.6382C63.827 68.8952 63.6516 69.1163 63.4243 69.2736C63.1971 69.4308 62.9282 69.5171 62.6519 69.5216C62.3756 69.5261 62.1042 69.4485 61.872 69.2987C61.6398 69.1489 61.4571 68.9336 61.3473 68.6801C61.2374 68.4265 61.2052 68.146 61.2547 67.8742C61.3042 67.6023 61.4332 67.3512 61.6254 67.1527C61.8176 66.9541 62.0645 66.817 62.3346 66.7587C62.6968 66.6809 63.075 66.75 63.3863 66.9508C63.6976 67.1516 63.9166 67.4677 63.9951 67.8298Z" fill="white"/>
<path d="M41.0903 76.8802C41.8543 76.7722 42.386 76.0653 42.2779 75.3013C42.1699 74.5374 41.463 74.0057 40.6991 74.1137C39.9351 74.2218 39.4034 74.9286 39.5115 75.6926C39.6195 76.4565 40.3264 76.9882 41.0903 76.8802Z" fill="white"/>
<path d="M60.1654 75.449C60.0473 75.0252 59.6865 74.7041 59.2216 74.785C58.8196 74.8556 58.4382 75.2987 58.5577 75.7302C58.6604 76.1 58.7131 76.4455 58.5679 76.7255C58.4061 77.0401 58.0426 77.3046 57.7049 77.4613C56.9202 77.8273 55.8852 77.7785 55.369 77.0067C54.958 76.3941 54.0038 76.8141 53.9319 77.4549C53.8458 78.2254 53.4799 78.996 52.7415 79.3337C52.003 79.6715 51.3083 79.412 50.8896 78.7686C50.6482 78.4001 50.0446 78.4129 49.7338 78.6723C49.364 78.9857 49.3961 79.4531 49.6375 79.8281C50.4337 81.0468 52.003 81.3833 53.3155 80.8645C54.1913 80.519 54.8168 79.8114 55.1853 78.978C56.1691 79.4531 57.4302 79.3953 58.3959 78.942C59.779 78.2961 60.5867 76.9541 60.1654 75.449Z" fill="#242424"/>
<path d="M76.6587 42.4907C76.7871 41.3683 75.2743 41.1012 75.0046 42.2904C74.654 43.8353 77.1557 43.7582 76.6587 42.4907Z" fill="#70975F"/>
<path d="M69.5339 45.1209C70.2415 44.4788 70.7141 42.2726 68.9265 42.925C67.4933 43.4476 67.9145 45.3739 69.5339 45.1209Z" fill="#70975F"/>
<path d="M65.0943 33.0917C65.8854 34.8009 68.3832 33.7415 68.1764 32.2389C67.822 29.6346 64.5164 30.5386 65.0943 33.0917Z" fill="#70975F"/>
<path d="M22.0205 50.0921C20.8403 50.7342 22.818 52.6759 23.7825 51.917C25.154 50.8395 23.3227 49.3896 22.0205 50.0921Z" fill="#A5C499"/>
<path d="M43.0072 28.4763C40.6841 29.4883 43.8895 31.3966 45.4254 30.8611C46.8458 30.3641 46.7096 29.3984 45.297 28.7152C45.6925 28.9078 44.4301 28.5392 44.6395 28.5598C44.0988 28.4846 43.5527 28.4567 43.0072 28.4763Z" fill="#A5C499"/>
<path d="M26.1737 36.3383C27.5735 36.956 28.5418 32.3713 25.9746 33.0969C24.6146 33.4796 24.9434 36.2252 26.1737 36.3383Z" fill="#A5C499"/>
<path d="M48.0399 39.5308C48.5331 38.9478 47.9488 37.7226 47.0871 38.3365C46.364 38.8514 47.3002 39.934 48.0399 39.5308Z" fill="#A5C499"/>
<path d="M33.816 22.3877C33.9444 23.0684 35.596 23.3137 35.9491 22.6305C36.5668 21.4246 33.9444 21.3501 33.816 22.3877Z" fill="#A5C499"/>
<path d="M27.7802 25.1385C28.1424 26.2866 29.4947 25.8423 28.9861 24.9048C28.5366 24.0765 27.8598 24.4694 27.7802 25.1385Z" fill="#A5C499"/>
<path d="M16.42 58.6949C15.8704 58.9787 15.2938 59.8032 15.9603 60.3644C17.2381 61.447 18.0548 58.632 16.42 58.6949Z" fill="#70975F"/>
<path d="M25.0037 61.9658C25.172 63.598 28.2964 62.2753 27.8906 60.828C27.314 58.7732 24.8188 60.1653 25.0037 61.9658Z" fill="#70975F"/>
<path d="M53.4414 41.0242C53.4799 43.3692 55.9495 41.3055 56.0253 39.8029C56.0946 38.4121 55.3137 38.1899 54.3493 39.1493C54.6202 38.8796 53.9409 39.8273 54.0231 39.6629C53.7924 40.1001 53.5979 40.5554 53.4414 41.0242Z" fill="#A5C499"/>
<path d="M35.9504 65.1327C36.7363 66.8831 38.6549 64.619 37.277 64.131C36.7004 63.9256 36.116 64.6499 35.9504 65.1327Z" fill="#70975F"/>
<path d="M22.9734 39.3342C24.3269 38.041 19.5972 34.7983 19.217 38.041C19.0141 39.7593 22.2722 40.6736 22.9734 39.3342Z" fill="#A5C499"/>
<path d="M10.749 50.0022C10.3213 49.1713 8.66214 49.2573 8.95108 50.5158C9.19509 51.5766 10.8556 51.0321 10.749 50.0022Z" fill="#70975F"/>
<path d="M36.0891 42.0017C36.92 42.1751 37.9705 40.4234 37.363 39.7042C36.292 38.438 34.9718 41.3737 36.0891 42.0017Z" fill="#A5C499"/>
<path d="M17.3267 44.801C18.7946 44.9294 18.9255 43.1906 17.6272 43.3267C16.4791 43.4474 16.6075 44.3964 17.3267 44.801Z" fill="#A5C499"/>
<path d="M55.8197 48.5895C57.2863 48.718 57.4173 46.9791 56.1202 47.1153C54.9721 47.236 55.1006 48.185 55.8197 48.5895Z" fill="#A5C499"/>
<path d="M59.3628 32.8259C60.8306 32.9543 60.9616 31.2155 59.6633 31.3516C58.5165 31.4723 58.6436 32.4213 59.3628 32.8259Z" fill="#A5C499"/>
<path d="M43.9613 44.5573C45.4278 44.6857 45.5588 42.9469 44.2617 43.083C43.1188 43.2038 43.2472 44.1528 43.9613 44.5573Z" fill="#A5C499"/>
<path d="M27.7135 45.5344C29.1813 45.6628 29.3123 43.924 28.0139 44.0601C26.8671 44.1808 26.9943 45.1299 27.7135 45.5344Z" fill="#A5C499"/>
<path d="M52.1532 22.8051C53.6211 22.9335 53.7508 21.1959 52.4537 21.3321C51.3069 21.4515 51.4341 22.4006 52.1532 22.8051Z" fill="#A5C499"/>
<path d="M65.8392 51.3995C67.307 51.528 67.438 49.7904 66.1396 49.9266C64.9928 50.046 65.12 50.995 65.8392 51.3995Z" fill="#70975F"/>
<path d="M73.2414 51.2891C72.4709 51.4663 72.6879 52.4873 73.5573 52.4218C74.5256 52.3499 74.1314 51.0836 73.2414 51.2891Z" fill="#70975F"/>
<path d="M78.7507 39.0426C78.9163 40.1008 80.677 40.504 81.0623 39.3136C81.6646 37.4181 79.4287 38.0075 78.7507 39.0426Z" fill="#70975F"/>
<path d="M78.9176 46.2369C78.0379 46.1355 77.2712 47.3606 78.1252 47.1359C77.9762 48.6448 80.6692 46.8482 78.9176 46.2369Z" fill="#70975F"/>
<path d="M53.7958 27.964C54.1811 28.9041 56.3013 30.0097 56.3745 28.0719C56.4259 26.7067 53.6032 26.0929 53.7958 27.964Z" fill="#A5C499"/>
<path d="M21.1344 68.929C22.913 69.4748 24.7366 67.8926 22.6652 66.3773C20.8454 65.043 19.3134 67.3982 21.1344 68.929Z" fill="#70975F"/>
<path d="M41.7691 51.3403C41.5649 49.7735 38.5933 51.1297 39.0222 52.5115C39.6309 54.4712 41.9951 53.0663 41.7691 51.3403Z" fill="#A5C499"/>
<path d="M37.8471 46.5925C37.7187 43.6119 34.2642 46.3357 34.2089 48.2491C34.1563 50.0201 35.2774 50.2731 36.6207 49.0132C36.2355 49.369 37.178 48.1349 37.0663 48.3557C37.3694 47.7522 37.6327 47.2744 37.8471 46.5925Z" fill="#A5C499"/>
<path d="M9.05378 61.8375C7.78626 63.1217 12.4222 66.1114 12.7022 62.9817C12.8512 61.3238 9.69332 60.5302 9.05378 61.8375Z" fill="#70975F"/>
<path d="M77.7769 20.5517C75.7483 19.3994 74.3654 17.8794 73.2482 15.6844C72.3234 13.8764 71.8117 12.6505 71.2049 9.36112C71.1922 9.28752 71.1606 9.21842 71.1131 9.16046C71.0655 9.1025 71.0036 9.05766 70.9334 9.03027C70.8632 9.00288 70.7871 8.99386 70.7124 9.0041C70.6376 9.01434 70.5668 9.04348 70.5068 9.0887C70.3994 9.18427 70.3313 9.31555 70.3155 9.45755C70.1936 10.1313 69.593 14.2055 67.3438 16.8271C66.3094 18.0325 64.7572 19.1764 63.2427 19.9394C63.1558 19.9829 63.086 20.0537 63.0441 20.1407C62.9988 20.2319 62.988 20.3363 63.0137 20.4348C63.0495 20.5465 63.1142 20.647 63.2013 20.7265C63.7057 21.2375 66.6895 23.7483 68.1333 26.8461C69.2969 29.3388 69.7648 31.2951 69.9329 31.6759C69.9622 31.7566 70.0118 31.8285 70.077 31.8848C70.1423 31.9411 70.221 31.98 70.3057 31.9978C70.4201 32.0086 70.5348 31.9799 70.6302 31.9166C70.7257 31.8533 70.7962 31.7594 70.8296 31.6506C70.9868 31.2324 71.5607 29.029 72.2527 27.6862C73.8549 24.5523 74.8491 23.9749 77.8573 21.2484C77.9082 21.202 77.9474 21.1445 77.9717 21.0804C77.9961 21.0164 78.0049 20.9476 77.9974 20.8795C77.9896 20.8115 77.9655 20.7463 77.9272 20.6893C77.8888 20.6323 77.8373 20.5851 77.7769 20.5517Z" fill="#FFD79B"/>
<path d="M25.7022 14.2417C24.6722 13.7724 23.6193 13.1021 22.9371 12.4212C21.4791 10.9701 21.1667 8.8348 21.1052 8.48143C21.0948 8.40122 21.0679 8.32423 21.0265 8.25553C20.985 8.18683 20.9298 8.12801 20.8647 8.08295C20.8026 8.04099 20.7321 8.01408 20.6585 8.00423C20.5849 7.99437 20.5101 8.00181 20.4397 8.02602C20.3592 8.0489 20.2859 8.09334 20.2274 8.15484C20.1689 8.21633 20.1272 8.29268 20.1065 8.37617C19.6118 10.0657 19.2327 10.6811 18.5558 11.5866C17.7351 12.6811 16.753 13.4125 15.3387 13.9227C15.2523 13.9543 15.1757 14.0094 15.1171 14.0822C15.0585 14.155 15.0201 14.2429 15.006 14.3364C14.9919 14.4298 15.0026 14.5255 15.037 14.6133C15.0714 14.701 15.1282 14.7775 15.2013 14.8346C17.2206 16.4092 17.9017 16.7519 18.9359 18.4801C19.3796 19.2223 19.7232 20.4134 19.8222 20.6443C19.8559 20.7412 19.9158 20.826 19.9949 20.8887C20.0739 20.9514 20.1688 20.9894 20.2682 20.9981C20.3676 21.0068 20.4673 20.9859 20.5555 20.9378C20.6437 20.8898 20.7167 20.8166 20.7657 20.727C20.8938 20.5294 21.2719 19.4983 22.155 18.2105C23.2308 16.6391 25.3616 15.4533 25.723 15.203C25.8308 15.1388 25.9145 15.0391 25.9606 14.9198C26.0067 14.8006 26.0125 14.6688 25.9771 14.5457C25.9552 14.4776 25.9193 14.4152 25.8718 14.3627C25.8244 14.3103 25.7665 14.269 25.7022 14.2417Z" fill="#FFD79B"/>
<path d="M25.5939 75.0822C24.1881 74.3239 22.7539 73.2412 21.8238 72.1411C19.8357 69.7986 19.4097 66.3474 19.3245 65.7765C19.3113 65.6468 19.275 65.5222 19.2184 65.4113C19.1617 65.3005 19.086 65.206 18.9965 65.1345C18.9123 65.0664 18.8164 65.0227 18.7162 65.0068C18.6161 64.9908 18.5143 65.0031 18.4186 65.0425C18.3086 65.0789 18.2084 65.1503 18.1284 65.2494C18.0483 65.3484 17.9911 65.4716 17.9627 65.6065C17.2882 68.3359 16.7713 69.3301 15.8483 70.7929C14.7293 72.561 13.3917 73.7426 11.4619 74.5668C11.3439 74.6178 11.2395 74.7068 11.1596 74.8245C11.0798 74.9421 11.0274 75.084 11.0082 75.235C10.989 75.3861 11.0036 75.5406 11.0505 75.6823C11.0973 75.8241 11.1747 75.9476 11.2744 76.04C14.0293 78.5837 14.9565 79.1372 16.368 81.9308C16.973 83.1281 17.4416 85.0541 17.5765 85.4254C17.6224 85.5818 17.7041 85.7189 17.812 85.8202C17.9198 85.9215 18.0491 85.9828 18.1847 85.9969C18.3202 86.011 18.4561 85.9772 18.5764 85.8996C18.6967 85.8219 18.7961 85.7037 18.863 85.559C19.0377 85.2398 19.5532 83.574 20.7573 81.4936C22.2242 78.955 25.1282 77.0394 25.6223 76.6351C25.7693 76.5314 25.8834 76.3702 25.9463 76.1776C26.0091 75.9849 26.0171 75.772 25.9688 75.5732C25.9383 75.4636 25.8891 75.3632 25.8244 75.2786C25.7598 75.1939 25.6813 75.127 25.5939 75.0822Z" fill="#FFD79B"/>
</svg>
