<svg width="100" height="100" viewBox="0 0 100 100" fill="none" xmlns="http://www.w3.org/2000/svg">
<g clip-path="url(#clip0_50_867)">
<path fill-rule="evenodd" clip-rule="evenodd" d="M20.2593 30.8329C20.2593 30.8329 24.2663 9.85837 50.737 10.0036C77.2077 10.1489 80.9395 28.1616 81.8587 41.6129C82.7779 55.0643 79.5265 77.4784 61.8655 82.5772C44.2045 87.6759 20.481 79.2056 18.4968 56.8815C16.7254 36.9805 20.2593 30.8431 20.2593 30.8431V30.8329Z" fill="#926E57"/>
<path fill-rule="evenodd" clip-rule="evenodd" d="M22.535 31.8331C22.535 31.8331 26.2162 12.2559 50.5377 12.3838C74.8591 12.5116 78.2845 29.3345 79.1309 41.8925C79.9772 54.4506 76.9876 75.3728 60.7604 80.1273C44.5332 84.8817 22.7388 76.9809 20.9153 56.14C19.2896 37.5565 22.535 31.8331 22.535 31.8331Z" fill="#A7C69B"/>
<path fill-rule="evenodd" clip-rule="evenodd" d="M41.9511 37.0349C40.0874 39.5974 39.9446 44.2458 39.9446 46.1357C39.9446 51.8605 42.6784 61.9795 51.0999 60.3715C61.739 58.3378 61.7316 45.9221 58.7286 38.7403C58.2437 37.5782 57.9031 35.9425 56.1599 34.7543C51.2516 31.403 45.3512 32.356 41.9437 37.0393L41.9511 37.0349Z" fill="#D6EFCA"/>
<path fill-rule="evenodd" clip-rule="evenodd" d="M46.6512 27.6684C46.7181 27.6694 46.7845 27.6811 46.8475 27.7032C47.4023 27.8848 47.3666 28.6228 47.6165 29.2735C48.0017 30.2759 48.8703 31.4321 48.0374 31.865C47.6462 32.0684 47.1762 31.8026 46.9963 31.3697C46.6095 30.4356 46.1038 29.5365 45.9328 28.5124C45.8629 28.0867 46.1143 27.6597 46.6467 27.6684H46.6512Z" fill="#70995F"/>
<path fill-rule="evenodd" clip-rule="evenodd" d="M53.9051 28.2974C54.0141 28.3037 54.1202 28.3339 54.2155 28.3859C54.3108 28.4379 54.3928 28.5102 54.4554 28.5976C54.5181 28.6849 54.5597 28.7849 54.5772 28.8901C54.5947 28.9953 54.5877 29.1031 54.5565 29.2053C54.4762 29.4217 54.4658 29.4391 54.4271 29.5423L54.2888 29.9083C53.8947 30.9615 53.6567 32.4272 52.7494 32.2093C52.3121 32.1047 52.1441 31.5905 52.324 31.146C52.6304 30.3746 52.9026 29.5902 53.2045 28.813C53.2045 28.813 53.3741 28.2974 53.9051 28.2974Z" fill="#70995F"/>
<path fill-rule="evenodd" clip-rule="evenodd" d="M60.6771 31.4525C60.8106 31.4664 60.9376 31.5162 61.0439 31.5964C61.1502 31.6766 61.2316 31.784 61.2791 31.9068C61.3266 32.0295 61.3383 32.1627 61.3129 32.2915C61.2875 32.4203 61.2259 32.5397 61.1352 32.6364C60.5016 33.3961 59.6597 33.9699 59.0529 34.7325C59.0529 34.7325 58.7108 35.0608 58.3419 34.978C57.86 34.8705 57.6399 34.2517 58.0073 33.8086C58.6394 33.0489 59.4842 32.4737 60.0896 31.7139C60.1636 31.6311 60.2551 31.5649 60.3578 31.5198C60.4605 31.4746 60.5719 31.4517 60.6845 31.4525H60.6771Z" fill="#70995F"/>
<path fill-rule="evenodd" clip-rule="evenodd" d="M64.8908 38.0518C65.572 38.0823 65.8799 39.1587 64.9503 39.4333C63.9166 39.7456 63.0286 40.4123 62.0053 40.7566C62.0053 40.7566 61.5457 40.8699 61.2616 40.6113C60.8957 40.2685 61.0534 39.6308 61.623 39.4289C62.6642 39.0527 63.573 38.383 64.6528 38.0852C64.7271 38.0592 64.806 38.0478 64.8848 38.0518H64.8908Z" fill="#70995F"/>
<path fill-rule="evenodd" clip-rule="evenodd" d="M63.5834 46.7124C63.6146 46.6877 63.5834 46.7124 63.5834 46.7124V46.7124ZM63.695 46.5816C63.6072 46.7109 63.75 46.4959 63.695 46.5816V46.5816Z" fill="#70995F"/>
<path fill-rule="evenodd" clip-rule="evenodd" d="M63.3327 51.7574L63.3067 51.809L63.3327 51.7574Z" fill="#70995F"/>
<path fill-rule="evenodd" clip-rule="evenodd" d="M60.9329 55.463C61.1471 55.463 61.278 55.5313 61.6379 55.7652C62.4468 56.2881 63.2917 56.756 64.1664 57.1655C64.1664 57.1655 64.6127 57.4677 64.5636 57.8599C64.5471 57.9646 64.5069 58.0643 64.4459 58.1519C64.3849 58.2395 64.3046 58.3127 64.211 58.3661C64.1174 58.4195 64.0127 58.4519 63.9047 58.4608C63.7966 58.4698 63.6878 58.455 63.5864 58.4177L63.5016 58.3785C62.4846 57.8955 61.5048 57.3411 60.57 56.7196C60.57 56.7196 60.0018 55.9598 60.57 55.5822C60.675 55.5029 60.8046 55.4608 60.9374 55.463H60.9329Z" fill="#70995F"/>
<path fill-rule="evenodd" clip-rule="evenodd" d="M57.9626 59.3939C58.4267 59.4142 58.7405 59.9124 59.1198 60.2887C59.6001 60.788 60.107 61.2622 60.6384 61.7094C60.6384 61.7094 61.1203 62.5984 60.4525 62.8715C59.9855 63.0588 59.508 62.581 59.0559 62.1655C58.51 61.6542 57.9745 61.1327 57.4614 60.5879C57.0821 60.1797 57.2294 59.391 57.9626 59.3968V59.3939Z" fill="#70995F"/>
<path fill-rule="evenodd" clip-rule="evenodd" d="M54.1356 62.2294C54.503 62.2541 54.741 62.4938 55.0756 63.2608C55.3597 63.9232 55.6067 64.6015 55.8684 65.2741C55.8684 65.2741 55.8774 66.2343 55.1783 66.2038C54.5923 66.1776 54.3929 65.3453 54.1282 64.6596C53.9364 64.1709 53.7174 63.6928 53.4722 63.2273C53.4167 63.1198 53.391 63 53.3977 62.8798C53.4044 62.7596 53.4432 62.6432 53.5103 62.5422C53.5775 62.4412 53.6705 62.3592 53.7802 62.3043C53.8899 62.2494 54.0125 62.2236 54.1356 62.2294Z" fill="#70995F"/>
<path fill-rule="evenodd" clip-rule="evenodd" d="M49.3002 62.3558C49.6616 62.4255 49.5977 62.4749 49.6438 62.5141C49.7626 62.6105 49.8447 62.7433 49.8768 62.8909C49.909 63.0385 49.8892 63.1923 49.8208 63.3276C49.7226 64.3444 49.797 65.386 49.7107 66.4203C49.7107 66.4203 49.5307 67.0885 49.0087 67.0899C48.5803 67.0899 48.2769 66.6948 48.317 66.1966C48.3914 65.1565 48.2917 64.1004 48.433 63.0806C48.4733 62.9052 48.5426 62.7374 48.6383 62.5838C48.7579 62.4799 48.8989 62.4021 49.0518 62.3558C49.2675 62.3224 49.144 62.3325 49.3002 62.3558ZM48.8198 63.6268C48.8198 63.6268 48.9031 63.6806 48.7737 63.5934L48.8198 63.6268Z" fill="#70995F"/>
<path fill-rule="evenodd" clip-rule="evenodd" d="M43.733 61.0368C44.2818 61.0586 44.615 61.7195 44.206 62.228C43.6214 62.9659 43.3522 63.9246 42.8286 64.6974C42.546 65.1143 41.7667 65.0562 41.5807 64.5522C41.4186 64.1164 41.8039 63.6341 42.0359 63.1751C42.3899 62.4778 42.6695 61.673 43.2778 61.1966C43.339 61.1422 43.411 61.1006 43.4893 61.0744C43.5675 61.0482 43.6505 61.0378 43.733 61.0441V61.0368Z" fill="#70995F"/>
<path fill-rule="evenodd" clip-rule="evenodd" d="M40.4027 57.2861C40.9441 57.3268 41.2669 58.0487 40.8638 58.4482C40.0874 59.2282 38.9972 59.8717 38.1196 60.293C37.8326 60.4383 37.4949 60.508 37.2079 60.3671C36.7022 60.1187 36.7319 59.1048 37.492 59.0597C38.3458 58.6349 39.1405 58.1053 39.8569 57.4837C40.1216 57.2512 40.1231 57.2657 40.4027 57.2759V57.2861ZM37.9664 59.221C37.9426 59.2021 37.9664 59.221 37.9664 59.221V59.221Z" fill="#70995F"/>
<path fill-rule="evenodd" clip-rule="evenodd" d="M38.1166 53.0023C38.7785 53.0342 39.1147 54.0946 38.2148 54.3721C37.4027 54.6292 36.6204 54.9749 35.8231 55.2727C35.8231 55.2727 35.2877 55.3744 35.0274 55.0664C34.712 54.6902 34.9441 54.1339 35.5256 53.9116C35.5197 53.9102 37.8742 52.966 38.1166 53.0023Z" fill="#70995F"/>
<path fill-rule="evenodd" clip-rule="evenodd" d="M35.4617 40.7856C35.5151 40.7871 35.5681 40.7954 35.6194 40.8103C35.8053 40.8597 35.9287 41.0355 36.0953 41.0907C36.758 41.32 37.434 41.5111 38.1196 41.663C38.2393 41.6954 38.3514 41.7502 38.4498 41.8243C38.8811 42.2019 38.5852 43.1171 37.8653 43.0154C37.6273 42.9718 37.5678 42.9544 37.4339 42.921C37.1439 42.8513 36.8554 42.7757 36.5698 42.6842C35.9748 42.5026 35.2862 42.4169 34.9337 41.9579C34.6362 41.557 34.7031 40.7725 35.4676 40.7856H35.4617ZM36.1429 41.5032C36.1429 41.4698 36.1429 41.4945 36.1429 41.5032V41.5032ZM36.0968 41.2461C36.0879 41.2229 36.0968 41.2461 36.0968 41.2461V41.2461Z" fill="#70995F"/>
<path fill-rule="evenodd" clip-rule="evenodd" d="M37.3893 34.6367C37.8355 34.6686 38.1672 35.1247 38.6238 35.363C39.2337 35.6724 39.8836 35.9193 40.4236 36.3261C40.4236 36.3261 40.9352 36.9754 40.4593 37.385C40.196 37.6116 39.8018 37.5797 39.488 37.3589C38.67 36.788 37.6362 36.5614 36.8732 35.8351C36.8732 35.8351 36.3125 34.6047 37.3893 34.6425V34.6367Z" fill="#70995F"/>
<path fill-rule="evenodd" clip-rule="evenodd" d="M41.1717 30.5823C41.5451 30.6085 41.7771 30.9557 42.0344 31.2767C42.5133 31.8732 42.9962 32.4674 43.4831 33.0591C43.4831 33.0591 43.7285 33.4484 43.5753 33.7752C43.3686 34.2197 42.7007 34.3011 42.3274 33.8493C41.7751 33.1782 41.2297 32.5037 40.6913 31.8258L40.5827 31.6907C40.5016 31.5861 40.4526 31.4611 40.4415 31.3303C40.4304 31.1995 40.4576 31.0683 40.52 30.9521C40.5824 30.8359 40.6774 30.7394 40.7938 30.6739C40.9103 30.6084 41.0434 30.5767 41.1777 30.5823H41.1717Z" fill="#70995F"/>
<path fill-rule="evenodd" clip-rule="evenodd" d="M39.2233 50.2002C39.0745 51.6601 37.6942 52.7205 36.1444 52.5694C34.5946 52.4183 33.4582 51.1095 33.6159 49.6496C33.7735 48.1897 35.1434 47.1279 36.6947 47.2804C38.2461 47.4329 39.3735 48.7388 39.2233 50.2002Z" fill="#DD6057"/>
<path d="M66.5072 50.5543C66.6573 49.0935 65.522 47.7861 63.9715 47.6342C62.421 47.4822 61.0424 48.5432 60.8923 50.0041C60.7422 51.4649 61.8775 52.7723 63.428 52.9242C64.9785 53.0761 66.3571 52.0151 66.5072 50.5543Z" fill="#DD6057"/>
<path d="M46.6214 46.772C48.5937 48.3219 51.4985 48.1999 53.3637 46.5453C54.0583 45.928 53.0989 44.8516 52.3999 45.4704C51.7277 46.0723 50.855 46.4161 49.9433 46.438C49.0316 46.4599 48.1426 46.1585 47.441 45.5895C47.1331 45.3469 46.6333 45.4791 46.4251 45.7798C46.3195 45.9377 46.281 46.1295 46.3177 46.3147C46.3543 46.4998 46.4632 46.6638 46.6214 46.772Z" fill="#242424"/>
<path fill-rule="evenodd" clip-rule="evenodd" d="M41.3755 41.3594C41.2741 40.6153 40.9814 39.9084 40.5247 39.3046C40.068 38.7008 39.4621 38.2199 38.7637 37.9065C38.7919 37.2165 38.8276 36.5251 38.8648 35.8351C38.8871 35.4283 38.9466 35.0172 38.6834 34.7586C38.5859 34.6695 38.4645 34.6091 38.3334 34.5844C38.2023 34.5598 38.0667 34.5718 37.9422 34.6192C37.8178 34.6666 37.7096 34.7474 37.6302 34.8523C37.5508 34.9571 37.5034 35.0818 37.4935 35.2119L37.483 35.3833C37.4429 36.098 37.4087 36.8127 37.3759 37.5288C37.007 37.4838 36.6338 37.4838 36.2649 37.5288C36.1504 37.5433 36.0388 37.5666 35.9287 37.5884C35.7473 37.048 35.5658 36.5076 35.3888 35.9658C35.2624 35.5765 35.1687 35.1726 34.8296 35.0201C34.7058 34.9694 34.5698 34.9541 34.4374 34.976C34.3051 34.9979 34.1818 35.0561 34.082 35.1438C33.9823 35.2315 33.9101 35.3451 33.8739 35.4713C33.8377 35.5976 33.839 35.7313 33.8777 35.8568L33.9297 36.021C34.1528 36.7066 34.3794 37.3908 34.6094 38.0736C34.2282 38.2859 33.8805 38.5511 33.5772 38.8609C33.1726 38.367 32.7701 37.8716 32.3695 37.3748C32.1121 37.0538 31.8816 36.7066 31.5083 36.6805C31.374 36.6748 31.2409 36.7066 31.1244 36.772C31.008 36.8375 30.913 36.934 30.8506 37.0503C30.7882 37.1665 30.761 37.2977 30.7721 37.4285C30.7832 37.5592 30.8322 37.6842 30.9133 37.7888L31.0219 37.9239C31.5633 38.6018 32.1087 39.2763 32.658 39.9474C32.685 39.9772 32.7144 40.0049 32.7458 40.0303C32.4412 40.6553 32.2902 41.3412 32.3048 42.0333C32.3194 42.7254 32.4992 43.4046 32.8299 44.0169C33.1606 44.6292 33.6331 45.1576 34.2097 45.5602C34.7864 45.9627 35.4513 46.2283 36.1515 46.3357C36.8517 46.4431 37.5679 46.3895 38.2432 46.1789C38.9184 45.9684 39.534 45.6069 40.041 45.1231C40.548 44.6393 40.9323 44.0466 41.1635 43.3922C41.3946 42.7378 41.4662 42.0398 41.3725 41.3536L41.3755 41.3594Z" fill="#242424"/>
<path fill-rule="evenodd" clip-rule="evenodd" d="M69.3113 37.0989C69.2889 36.9696 69.2295 36.8493 69.1399 36.7517C69.0504 36.6541 68.9343 36.5834 68.8052 36.5477C68.6761 36.5119 68.5393 36.5126 68.4106 36.5498C68.2819 36.5869 68.1667 36.6589 68.0782 36.7575L67.9652 36.8882C67.4863 37.4402 67.0118 37.9946 66.5418 38.5515C66.1973 38.2156 65.8002 37.9356 65.3653 37.722C65.5517 37.1884 65.7401 36.6558 65.9305 36.1241C66.0688 35.7406 66.2443 35.363 66.0673 35.0419C65.9999 34.9285 65.9008 34.8362 65.7816 34.7757C65.6624 34.7153 65.5281 34.6891 65.3943 34.7004C65.2605 34.7117 65.1328 34.7599 65.026 34.8394C64.9192 34.9189 64.8378 35.0264 64.7912 35.1494L64.7332 35.3107C64.4922 35.9731 64.2562 36.6369 64.0252 37.3022C63.5857 37.2324 63.138 37.227 62.6969 37.2862C62.6791 36.682 62.6627 36.0762 62.6523 35.4719C62.6449 35.0652 62.6746 34.6512 62.392 34.41C62.2882 34.3273 62.1625 34.275 62.0295 34.2593C61.8965 34.2435 61.7617 34.2649 61.6406 34.3211C61.5196 34.3772 61.4174 34.4657 61.3458 34.5764C61.2742 34.687 61.2363 34.8152 61.2364 34.946V35.1174C61.2512 35.9774 61.2711 36.8374 61.2959 37.6973C61.2966 37.6997 61.2966 37.7022 61.2959 37.7046C60.4859 38.0936 59.8125 38.7087 59.3609 39.472C58.9094 40.2352 58.7001 41.1123 58.7595 41.9918C58.819 42.8714 59.1445 43.714 59.6949 44.4126C60.2453 45.1113 60.9956 45.6346 61.8509 45.9163C62.7062 46.1979 63.6278 46.2251 64.499 45.9946C65.3701 45.764 66.1516 45.286 66.7442 44.6211C67.3368 43.9562 67.714 43.1345 67.8278 42.26C67.9417 41.3856 67.7871 40.4978 67.3836 39.7092C67.8477 39.1572 68.3157 38.6091 68.7877 38.0648C69.0599 37.7496 69.3603 37.4591 69.3113 37.0989Z" fill="#242424"/>
<path fill-rule="evenodd" clip-rule="evenodd" d="M63.6697 40.7043C63.6171 40.9642 63.4868 41.203 63.2952 41.3906C63.1036 41.5782 62.8593 41.7061 62.5933 41.7581C62.3273 41.8101 62.0515 41.7838 61.8008 41.6826C61.55 41.5815 61.3356 41.41 61.1847 41.1898C61.0338 40.9697 60.9531 40.7107 60.9529 40.4457C60.9527 40.1808 61.033 39.9218 61.1836 39.7014C61.3342 39.481 61.5483 39.3092 61.7989 39.2076C62.0494 39.1061 62.3252 39.0795 62.5913 39.1311C62.7679 39.1651 62.936 39.2328 63.0858 39.3304C63.2356 39.4279 63.3642 39.5532 63.4644 39.6994C63.5645 39.8455 63.6342 40.0094 63.6694 40.1819C63.7047 40.3543 63.7047 40.5318 63.6697 40.7043Z" fill="white"/>
<path fill-rule="evenodd" clip-rule="evenodd" d="M36.6828 41.0761C36.7181 41.3384 36.673 41.6051 36.5532 41.8424C36.4333 42.0796 36.2442 42.2769 36.0096 42.4092C35.775 42.5414 35.5055 42.6028 35.2352 42.5856C34.9649 42.5683 34.7059 42.4731 34.491 42.3121C34.276 42.1511 34.1148 41.9315 34.0276 41.681C33.9405 41.4305 33.9313 41.1605 34.0013 40.9049C34.0713 40.6493 34.2173 40.4197 34.4208 40.2452C34.6244 40.0706 34.8763 39.9589 35.1449 39.9242C35.3233 39.9012 35.5047 39.9127 35.6785 39.9581C35.8524 40.0035 36.0155 40.082 36.1583 40.1889C36.3011 40.2959 36.421 40.4293 36.511 40.5816C36.601 40.7338 36.6594 40.9019 36.6828 41.0761Z" fill="white"/>
</g>
<path d="M79.7769 70.5517C77.7483 69.3994 76.3654 67.8794 75.2482 65.6844C74.3234 63.8764 73.8117 62.6505 73.2049 59.3611C73.1922 59.2875 73.1606 59.2184 73.1131 59.1605C73.0655 59.1025 73.0036 59.0577 72.9334 59.0303C72.8632 59.0029 72.7871 58.9939 72.7124 59.0041C72.6376 59.0143 72.5668 59.0435 72.5068 59.0887C72.3994 59.1843 72.3313 59.3155 72.3155 59.4575C72.1936 60.1313 71.593 64.2055 69.3438 66.8271C68.3094 68.0325 66.7572 69.1764 65.2427 69.9394C65.1558 69.9829 65.086 70.0537 65.0441 70.1407C64.9988 70.2319 64.988 70.3363 65.0137 70.4348C65.0495 70.5465 65.1142 70.647 65.2013 70.7265C65.7057 71.2375 68.6895 73.7483 70.1333 76.8461C71.2969 79.3388 71.7648 81.2951 71.9329 81.6759C71.9622 81.7566 72.0118 81.8285 72.077 81.8848C72.1423 81.9411 72.221 81.98 72.3057 81.9978C72.4201 82.0086 72.5348 81.9799 72.6302 81.9166C72.7257 81.8533 72.7962 81.7594 72.8296 81.6506C72.9868 81.2324 73.5607 79.029 74.2527 77.6862C75.8549 74.5523 76.8491 73.9749 79.8573 71.2484C79.9082 71.202 79.9474 71.1445 79.9717 71.0804C79.9961 71.0164 80.0049 70.9476 79.9974 70.8795C79.9896 70.8115 79.9655 70.7463 79.9272 70.6893C79.8888 70.6323 79.8373 70.5851 79.7769 70.5517Z" fill="#FFD79B"/>
<path d="M33.648 17.202C32.4308 16.6604 31.1864 15.8871 30.3803 15.1013C28.6571 13.427 28.2879 10.9632 28.2153 10.5555C28.2029 10.463 28.1712 10.3741 28.1222 10.2948C28.0732 10.2156 28.008 10.1477 27.931 10.0957C27.8576 10.0473 27.7743 10.0163 27.6874 10.0049C27.6004 9.9935 27.512 10.0021 27.4288 10.03C27.3336 10.0564 27.247 10.1077 27.1779 10.1787C27.1087 10.2496 27.0594 10.3377 27.0349 10.434C26.4503 12.3835 26.0023 13.0936 25.2023 14.1384C24.2324 15.4013 23.0718 16.2452 21.4003 16.8339C21.2981 16.8703 21.2076 16.9339 21.1384 17.0179C21.0691 17.102 21.0238 17.2033 21.0071 17.3112C20.9905 17.4191 21.0031 17.5295 21.0438 17.6307C21.0844 17.7319 21.1515 17.8202 21.2379 17.8861C23.6244 19.703 24.4293 20.0983 25.6515 22.0924C26.1758 22.9488 26.582 24.3232 26.6989 24.5896C26.7387 24.7013 26.8096 24.7992 26.903 24.8716C26.9965 24.9439 27.1086 24.9877 27.2261 24.9978C27.3435 25.0078 27.4614 24.9837 27.5656 24.9283C27.6698 24.8728 27.7561 24.7884 27.814 24.685C27.9654 24.457 28.4122 23.2673 29.4559 21.7813C30.7273 19.9682 33.2456 18.6 33.6726 18.3112C33.8 18.2371 33.899 18.122 33.9534 17.9844C34.0079 17.8468 34.0148 17.6947 33.973 17.5527C33.9471 17.4742 33.9046 17.4021 33.8485 17.3416C33.7925 17.2811 33.7241 17.2335 33.648 17.202Z" fill="#FFD79B"/>
<path d="M45.6481 81.2015C44.4297 80.6599 43.1867 79.8865 42.3806 79.1008C40.6576 77.4276 40.2884 74.9624 40.2146 74.5546C40.2031 74.462 40.1717 74.373 40.1226 74.2938C40.0735 74.2146 40.0079 74.1472 39.9303 74.0961C39.8573 74.0474 39.7742 74.0162 39.6874 74.0048C39.6006 73.9935 39.5124 74.0022 39.4294 74.0304C39.3341 74.0564 39.2473 74.1074 39.1779 74.1781C39.1085 74.2489 39.059 74.3369 39.0344 74.4332C38.4498 76.3828 38.0018 77.0929 37.2019 78.1378C36.2321 79.4007 35.0728 80.2447 33.4003 80.8334C33.2981 80.8699 33.2076 80.9334 33.1383 81.0175C33.0691 81.1015 33.0238 81.2028 33.0071 81.3107C32.9905 81.4186 33.0031 81.529 33.0437 81.6302C33.0844 81.7315 33.1514 81.8197 33.2378 81.8857C35.6254 83.7026 36.429 84.098 37.6523 86.0934C38.1766 86.9486 38.5827 88.3244 38.6996 88.5896C38.7394 88.7013 38.8103 88.7992 38.9037 88.8715C38.9971 88.9439 39.1093 88.9877 39.2267 88.9978C39.3441 89.0078 39.462 88.9837 39.5662 88.9283C39.6704 88.8728 39.7567 88.7884 39.8146 88.685C39.966 88.457 40.4127 87.2672 41.4564 85.7811C42.7276 83.9679 45.2444 82.5996 45.6727 82.3108C45.8001 82.2367 45.899 82.1216 45.9534 81.984C46.0079 81.8464 46.0148 81.6943 45.973 81.5523C45.9465 81.474 45.9039 81.4023 45.8479 81.3418C45.7918 81.2814 45.7238 81.2336 45.6481 81.2015Z" fill="#FFD79B"/>
<defs>
<clipPath id="clip0_50_867">
<rect width="64" height="74" fill="white" transform="translate(18 10)"/>
</clipPath>
</defs>
</svg>
