<svg width="100" height="100" viewBox="0 0 100 100" fill="none" xmlns="http://www.w3.org/2000/svg">
<path fill-rule="evenodd" clip-rule="evenodd" d="M41.9798 14.3668C32.319 17.9804 22.2039 25.262 19.0432 38.7614C15.8826 52.2608 21.7014 88.2699 53.7118 88.3253C94.0397 88.3869 91.7925 52.2607 90.7381 45.0581C89.8706 39.1657 80.521 -0.0431317 41.9866 14.3708L41.9798 14.3668Z" fill="#F9897D"/>
<path fill-rule="evenodd" clip-rule="evenodd" d="M9.3645 60.7564C9.98342 61.1927 13.6711 59.7356 14.8096 59.3021C18.2666 57.9741 21.5373 56.2044 24.5402 54.0372C33.5273 47.5661 42.3067 38.8839 44.0893 27.5344C44.4682 25.1207 45.4616 17.8816 43.7333 16.6669C40.3659 14.2972 33.0813 17.0378 29.9491 18.6372C19.8852 23.8004 13.4999 29.6482 12.3486 47.5526C11.8164 55.8336 8.12056 59.8826 9.36584 60.7561L9.3645 60.7564Z" fill="#A7C69B"/>
<path fill-rule="evenodd" clip-rule="evenodd" d="M49.3277 21.5769C49.3277 21.5769 47.9007 19.8422 48.2353 18.2891C48.2353 18.2891 50.2546 17.5738 51.3498 19.0279C51.3498 19.0279 53.3042 17.1041 54.9782 16.9276C54.9782 16.9276 55.9193 18.3102 55.3336 19.8549C55.3336 19.8549 57.0765 21.7995 56.8422 23.2096C56.8422 23.2096 54.0484 24.38 53.0029 23.1846C53.0029 23.1846 51.6681 24.9922 49.9108 25.1533C49.9108 25.1533 48.7409 24.1894 49.3273 21.5755L49.3277 21.5769Z" fill="#242424"/>
<path fill-rule="evenodd" clip-rule="evenodd" d="M50.6391 5.25733C50.1589 7.36974 49.9851 10.5046 50.0612 13.4857C48.8258 13.5419 47.5676 13.8818 46.3607 14.2743L46.1807 14.3334C42.7051 15.5043 39.4019 17.3331 36.6427 19.7661C36.19 20.165 35.7563 20.576 35.3332 21.0001C32.9828 20.0879 30.1929 20.5495 27.7223 21.3481L27.5819 21.3938C26.1976 21.8606 25.0427 22.6293 23.8232 23.3388C23.7057 23.4069 23.6126 23.5105 23.5573 23.6346C23.5021 23.7588 23.4874 23.8972 23.5154 24.0302C23.5853 24.3325 23.9231 24.4835 23.9231 24.4835C24.2147 24.5689 24.047 24.6637 24.4978 24.3991C25.4005 23.8626 26.2767 23.2425 27.2319 22.856C29.4411 21.9611 32.0963 21.387 34.348 22.0188C32.9192 23.5849 31.6045 25.2515 30.4139 27.0056C28.6959 26.5966 26.8634 26.8107 25.1633 27.3509L25.0175 27.3981C22.5222 28.2392 20.4695 29.851 18.3094 31.2797C17.92 31.5265 17.781 32.0021 18.0494 32.3095C18.3177 32.617 18.8441 32.426 18.8441 32.426C19.8402 31.8403 20.7625 31.0842 21.734 30.4273C23.9565 28.9189 26.9158 27.7162 29.644 28.1472C28.2891 30.1945 27.0245 32.3057 25.7337 34.3994C24.9092 34.3392 24.081 34.4438 23.2973 34.7071C22.728 34.8973 22.1741 35.1313 21.6408 35.407C19.4984 36.5209 17.4146 37.7442 15.3977 39.0721C15.3264 39.1239 15.2663 39.1896 15.2209 39.2651C15.1755 39.3407 15.1457 39.4246 15.1334 39.5118C15.121 39.5991 15.1263 39.688 15.149 39.7732C15.1717 39.8584 15.2112 39.9381 15.2653 40.0077C15.5563 40.3466 16.0833 40.1252 16.0833 40.1252C17.5951 39.1499 19.1208 38.1839 20.7039 37.3208C22.0471 36.5843 23.4811 35.7231 24.9935 35.621C23.8325 37.6013 22.835 39.6836 21.8321 41.7615C21.5059 42.4377 21.1661 43.1059 20.8188 43.7675C19.952 43.5852 18.9759 43.7297 18.124 44.001L17.9826 44.0485C16.5895 44.5435 15.3107 45.3147 14.2229 46.3159C14.1511 46.3871 14.0969 46.474 14.0646 46.5697C14.0323 46.6655 14.0228 46.7674 14.0368 46.8675C14.0508 46.9676 14.088 47.063 14.1454 47.1462C14.2028 47.2294 14.2788 47.298 14.3674 47.3467C14.5562 47.4406 14.6523 47.5591 15.0284 47.2784C15.0284 47.2784 15.369 46.9725 15.6122 46.7657C16.7796 45.778 18.5358 44.8129 20.1721 44.9672C19.1398 46.8631 18.0455 48.7206 16.943 50.5904C15.2995 53.3745 13.6404 56.2734 11.1428 58.1668L10.9807 58.3536L10.8981 58.5855L10.9126 58.8305L11.0181 59.0501L11.2049 59.2122C11.3533 59.2806 11.5186 59.304 11.6801 59.2793L11.9775 59.1144C12.5543 58.6612 13.0917 58.16 13.584 57.6163C16.0849 54.8918 17.8089 51.5527 19.7132 48.3515C20.2862 47.39 20.8162 46.4126 21.3237 45.4266C21.5438 45.6608 21.7173 45.9347 21.835 46.2338C22.4128 47.5485 22.6624 49.1888 22.3526 50.6505C22.2702 51.0406 22.0148 51.4131 22.1848 51.735C22.4279 52.1973 23.1061 52.1072 23.3178 51.6944C24.1609 50.0457 23.9772 46.5708 22.3283 44.6445C22.2053 44.5006 22.0667 44.3708 21.9152 44.2573C23.2963 41.4823 24.565 38.6794 26.186 36.0553L26.3402 35.8059C27.159 36.1332 27.7957 36.8597 28.1311 37.6817C28.1719 37.7817 28.2097 37.8811 28.2451 37.9825C29.301 41.0123 28.4294 44.1202 27.6132 47.0999C27.5901 47.2125 27.5974 47.3293 27.6342 47.4382C27.671 47.5471 27.7361 47.6443 27.8228 47.7199C27.9095 47.7954 28.0147 47.8466 28.1276 47.8682C28.2406 47.8898 28.3572 47.881 28.4657 47.8427C28.6233 47.7751 28.7637 47.6531 28.8717 47.2562C29.2914 45.7693 29.6033 44.2539 29.8049 42.7221C30.0809 40.4579 30.0643 37.5115 28.3042 35.6217C27.9411 35.2311 27.4976 34.9238 27.0043 34.721C28.2883 32.6291 29.5514 30.5283 30.9107 28.5086C31.7228 28.885 32.3889 29.5175 32.8068 30.3091C33.83 32.1492 34.0615 34.423 34.2278 36.6133C34.3201 37.8435 34.1006 39.054 33.8779 40.2682C33.8666 40.3561 33.8731 40.4454 33.8971 40.5307C33.9212 40.6161 33.9621 40.6957 34.0176 40.7648C34.0731 40.834 34.1419 40.8912 34.2201 40.9331C34.2982 40.975 34.3839 41.0008 34.4722 41.0088C34.9171 41.0264 35.1134 40.4954 35.1134 40.4954C35.3295 39.3103 35.5879 38.1169 35.5092 36.9378C35.4066 35.4615 35.2708 33.9795 34.9367 32.5313C34.507 30.6667 33.5214 28.3649 31.6368 27.4461C32.681 25.9365 33.8189 24.4938 35.0439 23.1268C35.2236 22.9287 35.4061 22.7337 35.5913 22.5418C37.1578 23.4224 37.9409 25.1432 38.4674 26.8297C39.0293 28.6335 38.8367 30.5548 38.8227 32.4389C38.8198 32.5319 38.838 32.6244 38.8759 32.7094C38.9139 32.7945 38.9706 32.8698 39.0419 32.9297C39.1131 32.9896 39.197 33.0327 39.2872 33.0555C39.3775 33.0784 39.4717 33.0805 39.5629 33.0618C39.957 32.9906 40.0796 32.4475 40.0796 32.4475C40.0903 30.921 40.1232 29.3916 39.9672 27.8819C39.958 27.5354 39.8982 27.192 39.7897 26.8628C39.2687 25.11 38.5785 23.3704 37.2599 22.1926C37.0264 21.9853 36.7773 21.7963 36.5148 21.6271C39.222 19.0475 42.4296 17.0505 45.9392 15.7597C47.3008 15.2558 48.7048 14.7925 50.0978 14.7449C50.2482 17.751 50.6575 20.4195 51.2664 21.4655C51.5278 21.91 53.5412 21.5316 53.481 21.1677C52.6248 16.0636 54.1393 5.10434 54.1393 5.10434C52.8901 4.21607 50.6391 5.25733 50.6391 5.25733ZM23.9346 23.2921C23.9824 23.2761 24.032 23.2663 24.0823 23.2631L23.9346 23.2921Z" fill="#70995F"/>
<path d="M85.2998 46.6632C84.8014 48.7013 87.2615 48.0968 87.6715 47.9064C89.6665 46.2667 86.3645 44.966 85.2998 46.6632Z" fill="#F9ADA7"/>
<path d="M34.3395 52.0848C32.1797 52.9869 34.5231 54.8303 35.7778 54.0309C37.9329 52.6596 36.0277 51.3852 34.3395 52.0848Z" fill="#F9ADA7"/>
<path d="M79.3484 28.0473C82.9313 25.0022 74.509 23.5822 76.6166 26.7209C76.344 26.9743 76.2686 26.5856 76.4461 27.1645C75.5806 25.2353 73.1293 27.1079 74.4543 28.2394C75.1066 28.7963 76.9892 28.5762 76.5215 27.3518C76.9831 28.3519 78.4669 29.1206 79.3484 28.0473Z" fill="#F9ADA7"/>
<path d="M54.6297 45.1581C55.2431 43.5715 53.4182 41.3766 52.1157 43.0778C51.1072 44.3947 52.9326 47.3203 54.6297 45.1581Z" fill="#F9ADA7"/>
<path d="M63.6802 17.5772C65.1304 15.624 61.5696 15.3413 61.032 16.8718C60.4349 18.5691 62.927 18.6137 63.6802 17.5772Z" fill="#F9ADA7"/>
<path d="M82.2379 69.1814C83.3618 68.3878 82.7142 66.9779 81.5573 67.4781C80.0879 68.1127 80.9607 70.1076 82.2379 69.1814Z" fill="#F9ADA7"/>
<path d="M49.5354 71.6772C50.802 75.303 54.0497 70.6748 53.4129 68.2937C52.8297 66.0884 51.3473 66.1898 50.1568 68.2383C50.4921 67.6619 49.7927 69.5273 49.8482 69.2148C49.6978 70.0717 49.5482 70.7573 49.5354 71.6772Z" fill="#F9ADA7"/>
<path d="M27.6651 68.4987C28.9395 69.5098 30.4267 70.83 30.9411 68.1561C31.1892 66.869 30.1017 65.069 28.8503 64.7654C25.3281 63.9157 25.9167 69.6128 27.6651 68.4987Z" fill="#F9ADA7"/>
<path d="M67.9511 79.7245C69.5525 81.4821 70.9328 78.0728 69.1225 78.0336C68.367 78.0219 67.9581 79.0925 67.9511 79.7245Z" fill="#F9ADA7"/>
<path d="M43.8781 74.3314C44.923 74.2134 45.4814 71.7494 44.4873 71.1346C42.7366 70.0582 42.326 74.0225 43.8781 74.3314Z" fill="#F9ADA7"/>
<path d="M47.0958 86.2823C48.8715 85.8645 48.3523 83.7704 46.8785 84.432C45.5747 85.0185 46.0925 86.0843 47.0958 86.2823Z" fill="#F9ADA7"/>
<path d="M48.2595 51.3162C48.702 48.7882 47.0113 46.38 44.4832 45.9376C41.9552 45.4951 39.5471 47.1857 39.1046 49.7138C38.6621 52.2419 40.3528 54.65 42.8808 55.0925C45.4089 55.535 47.817 53.8443 48.2595 51.3162Z" fill="#242424"/>
<path d="M84.101 51.4885C85.7477 51.0278 86.7318 49.4003 86.2989 47.8534C85.8661 46.3066 84.1803 45.4261 82.5336 45.8869C80.8869 46.3477 79.9028 47.9752 80.3356 49.522C80.7684 51.0689 82.4543 51.9493 84.101 51.4885Z" fill="#DD6057"/>
<path d="M45.7163 62.701C47.363 62.2402 48.347 60.6127 47.9142 59.0658C47.4814 57.519 45.7956 56.6385 44.1489 57.0993C42.5022 57.5601 41.5181 59.1876 41.9509 60.7344C42.3837 62.2813 44.0695 63.1617 45.7163 62.701Z" fill="#DD6057"/>
<path d="M81.72 44.4555C84.1676 43.6832 85.5257 41.0731 84.7534 38.6255C83.9811 36.178 81.3709 34.8199 78.9234 35.5922C76.4759 36.3644 75.1178 38.9746 75.89 41.4222C76.6623 43.8697 79.2725 45.2278 81.72 44.4555Z" fill="#242424"/>
<path d="M70.4614 46.6274C71.0161 48.8993 71.2189 51.3691 70.4515 53.6194C69.8557 55.3721 68.6954 56.8776 67.1522 57.9002C65.5616 58.9581 63.5498 59.6254 61.6388 59.4717C59.637 59.3119 57.843 58.3002 56.5209 56.8096C55.0641 55.1383 54.1036 53.093 53.748 50.9046C53.6975 50.5885 53.825 50.2656 54.1598 50.1713C54.4421 50.0967 54.8401 50.2633 54.8927 50.5818C55.4387 53.9033 57.5544 57.4917 61.0281 58.196C61.9444 58.3656 62.8868 58.3315 63.7885 58.0962C64.2146 57.9867 64.6327 57.8482 65.04 57.6818C65.3782 57.5401 65.7078 57.3784 66.027 57.1978C66.702 56.8269 67.3116 56.3478 67.8317 55.7797C68.3729 55.1986 68.8084 54.5274 69.1185 53.7963C69.4993 52.8665 69.7143 51.8771 69.7541 50.8731C69.7954 49.5509 69.6484 48.2295 69.3177 46.9486C69.1363 46.2082 70.2799 45.8813 70.461 46.6261L70.4614 46.6274Z" fill="#242424"/>
<path d="M79.618 39.0605C79.5196 38.422 78.9222 37.9842 78.2837 38.0826C77.6452 38.181 77.2074 38.7784 77.3058 39.4169C77.4042 40.0554 78.0016 40.4932 78.6401 40.3948C79.2786 40.2964 79.7164 39.699 79.618 39.0605Z" fill="white"/>
<path d="M42.7861 49.7966C42.7253 49.1534 42.1546 48.6813 41.5114 48.7421C40.8683 48.803 40.3962 49.3737 40.457 50.0168C40.5178 50.66 41.0885 51.1321 41.7317 51.0713C42.3748 51.0105 42.8469 50.4398 42.7861 49.7966Z" fill="white"/>
<path d="M85.7769 17.5514C83.7483 16.3991 82.3654 14.8792 81.2481 12.6842C80.3234 10.8762 79.8116 9.6503 79.2049 6.36087C79.1922 6.28728 79.1606 6.21818 79.113 6.16022C79.0655 6.10226 79.0036 6.05742 78.9334 6.03003C78.8632 6.00264 78.7871 5.99362 78.7123 6.00385C78.6376 6.01409 78.5668 6.04323 78.5067 6.08846C78.3994 6.18402 78.3313 6.3153 78.3155 6.45731C78.1936 7.1311 77.5929 11.2052 75.3438 13.8269C74.3094 15.0322 72.7571 16.1761 71.2427 16.9391C71.1558 16.9826 71.0859 17.0534 71.0441 17.1404C70.9987 17.2317 70.9879 17.336 71.0136 17.4345C71.0495 17.5462 71.1142 17.6467 71.2013 17.7262C71.7057 18.2373 74.6895 20.7481 76.1333 23.8458C77.2969 26.3385 77.7647 28.2948 77.9329 28.6757C77.9621 28.7563 78.0118 28.8282 78.077 28.8846C78.1423 28.9409 78.221 28.9798 78.3057 28.9975C78.4201 29.0083 78.5347 28.9796 78.6302 28.9164C78.7257 28.8531 78.7961 28.7591 78.8296 28.6504C78.9868 28.2321 79.5606 26.0287 80.2527 24.686C81.8549 21.552 82.8491 20.9747 85.8573 18.2481C85.9082 18.2018 85.9474 18.1443 85.9717 18.0802C85.996 18.0161 86.0048 17.9473 85.9974 17.8793C85.9896 17.8113 85.9655 17.746 85.9272 17.689C85.8888 17.632 85.8373 17.5849 85.7769 17.5514Z" fill="#FFD79B"/>
<path d="M16.7022 52.2415C15.6722 51.7721 14.6193 51.1019 13.9371 50.4209C12.4791 48.9698 12.1667 46.8346 12.1052 46.4812C12.0948 46.401 12.0679 46.324 12.0265 46.2553C11.985 46.1866 11.9298 46.1278 11.8647 46.0827C11.8026 46.0408 11.7321 46.0138 11.6585 46.004C11.5849 45.9941 11.5101 46.0016 11.4397 46.0258C11.3592 46.0487 11.2859 46.0931 11.2274 46.1546C11.1689 46.2161 11.1272 46.2924 11.1065 46.3759C10.6118 48.0655 10.2327 48.6809 9.55577 49.5864C8.73511 50.6808 7.75303 51.4123 6.33874 51.9225C6.25225 51.954 6.17565 52.0091 6.11707 52.082C6.0585 52.1548 6.02013 52.2426 6.00603 52.3361C5.99194 52.4296 6.00265 52.5253 6.03702 52.613C6.07139 52.7007 6.12815 52.7772 6.20127 52.8344C8.22064 54.409 8.90174 54.7516 9.9359 56.4798C10.3796 57.222 10.7232 58.4132 10.8222 58.6441C10.8559 58.7409 10.9158 58.8257 10.9949 58.8884C11.0739 58.9511 11.1688 58.9891 11.2682 58.9978C11.3676 59.0065 11.4673 58.9856 11.5555 58.9376C11.6437 58.8895 11.7167 58.8164 11.7657 58.7268C11.8938 58.5292 12.2719 57.498 13.155 56.2102C14.2308 54.6388 16.3616 53.4531 16.723 53.2028C16.8308 53.1386 16.9145 53.0388 16.9606 52.9196C17.0067 52.8003 17.0125 52.6685 16.9771 52.5455C16.9552 52.4774 16.9193 52.4149 16.8718 52.3625C16.8244 52.31 16.7665 52.2688 16.7022 52.2415Z" fill="#FFD79B"/>
<path d="M28.5939 80.0819C27.1881 79.3236 25.7538 78.2409 24.8237 77.1408C22.8357 74.7984 22.4097 71.3471 22.3245 70.7763C22.3112 70.6466 22.275 70.522 22.2184 70.4111C22.1617 70.3002 22.086 70.2058 21.9965 70.1343C21.9122 70.0662 21.8164 70.0225 21.7162 70.0065C21.616 69.9906 21.5142 70.0028 21.4185 70.0423C21.3085 70.0787 21.2084 70.15 21.1283 70.2491C21.0483 70.3482 20.9911 70.4714 20.9627 70.6062C20.2882 73.3356 19.7713 74.3299 18.8483 75.7926C17.7293 77.5607 16.3917 78.7424 14.4618 79.5666C14.3439 79.6175 14.2395 79.7066 14.1596 79.8242C14.0797 79.9419 14.0274 80.0837 14.0082 80.2348C13.989 80.3858 14.0036 80.5404 14.0504 80.6821C14.0973 80.8238 14.1747 80.9474 14.2744 81.0397C17.0292 83.5835 17.9565 84.137 19.368 86.9306C19.9729 88.1278 20.4416 90.0539 20.5765 90.4252C20.6224 90.5816 20.7041 90.7186 20.8119 90.8199C20.9197 90.9212 21.0491 90.9826 21.1846 90.9966C21.3201 91.0107 21.4561 90.9769 21.5764 90.8993C21.6966 90.8217 21.7961 90.7035 21.863 90.5588C22.0377 90.2395 22.5531 88.5738 23.7573 86.4933C25.2242 83.9548 28.1281 82.0392 28.6223 81.6349C28.7693 81.5312 28.8834 81.37 28.9463 81.1774C29.0091 80.9847 29.017 80.7718 28.9688 80.573C28.9382 80.4634 28.889 80.363 28.8244 80.2783C28.7598 80.1937 28.6812 80.1267 28.5939 80.0819Z" fill="#FFD79B"/>
</svg>
