<svg width="100" height="101" viewBox="0 0 100 101" fill="none" xmlns="http://www.w3.org/2000/svg">
<path fill-rule="evenodd" clip-rule="evenodd" d="M45.034 24.2621C45.0119 24.2755 45.0919 21.2067 45.2914 20.3168C45.9287 17.512 47.0425 15.5662 48.7436 13.2899C49.545 12.2164 50.4276 11.3075 51.1724 11.5856C51.5341 11.7149 51.2053 12.79 51.1661 13.009C50.8394 14.5707 50.4313 16.0517 50.3741 17.6708C50.3196 19.1908 50.284 20.9339 50.7121 22.4146C50.7675 22.6133 51.3576 24.0353 51.2607 24.1591C51.1638 24.2829 45.034 24.2621 45.034 24.2621Z" fill="#D6EFCA"/>
<path fill-rule="evenodd" clip-rule="evenodd" d="M50.048 24.2436C50.2565 23.2895 50.6597 22.3887 51.2323 21.5975C53.3706 18.8658 54.2969 18.6041 55.546 17.9051C57.9043 16.5827 60.7182 16.1388 63.2946 16.9704C65.1621 17.5717 66.2231 18.383 66.5862 18.8135C66.8917 19.172 67.3461 19.9792 67.104 20.1585C66.8618 20.3378 65.8054 19.9977 65.1454 19.9284C63.6945 19.7808 61.7691 19.6629 60.4002 20.2486C58.9878 20.8584 57.4524 21.7099 56.9227 23.2739C56.5393 24.4008 56.5805 25.3237 56.5252 25.3014C56.1295 25.2044 51.2618 24.1074 50.048 24.2436Z" fill="#70995F"/>
<path fill-rule="evenodd" clip-rule="evenodd" d="M32.7155 20.7806C32.7155 20.7806 32.0523 17.7697 31.953 16.9656C31.4496 12.8077 31.8191 9.93287 31.8429 7.84841C31.8532 6.71538 31.3755 4.64679 32.1106 4.45679C32.9281 4.2378 33.8896 6.89373 34.5895 8.50473C35.6806 11.0217 37.022 13.768 37.7624 16.4232C38.1549 17.7635 38.4277 19.136 38.5776 20.5246C38.6715 21.5573 38.5988 24.596 38.0566 24.2114C37.415 23.7546 32.7744 21.3723 32.7223 20.7765L32.7155 20.7806Z" fill="#70995F"/>
<path fill-rule="evenodd" clip-rule="evenodd" d="M12.7288 28.3868C12.4076 27.4965 15.0889 26.9564 16.0616 26.4761C20.4646 24.2839 23.6699 23.2706 28.0197 24.3143C32.0977 25.2929 33.4481 27.6782 32.994 28.2207C32.6652 28.6174 28.5718 30.7684 27.8718 31.6526C27.6502 31.931 26.5836 29.2435 21.2759 28.9499C18.2114 28.7812 13.0424 29.2608 12.7288 28.3868Z" fill="#70995F"/>
<path fill-rule="evenodd" clip-rule="evenodd" d="M38.321 26.0352C38.3061 25.9723 38.228 23.9844 38.1899 23.6148C38.0593 22.4083 38.0067 21.1947 38.0324 19.9814C38.097 16.5154 38.9806 12.1465 40.7322 8.98002C41.3687 7.8299 42.0049 6.44534 42.9871 5.47836C43.1224 5.3452 43.9175 4.61009 44.0882 4.6693C44.511 4.81496 44.0448 6.78655 44.0124 7.02453C43.6374 9.36134 43.388 11.8172 43.5456 14.2123C44.0403 21.714 46.3068 24.2156 46.541 24.8473C46.582 24.9572 44.7163 24.9914 44.3152 25.0695C42.8778 25.3505 38.321 26.0352 38.321 26.0352Z" fill="#A7C69B"/>
<path fill-rule="evenodd" clip-rule="evenodd" d="M28.6559 10.3678C28.0248 10.4343 27.5769 13.3102 27.5418 14.0075C27.4435 16.0303 27.8476 18.0157 28.3251 19.9613C28.49 20.6397 30.3826 27.8796 31.6277 28.8605C32.0021 29.1563 38.6039 26.7397 39.3537 26.2481C39.6659 26.0426 38.401 24.2698 37.0663 22.8879C35.9592 21.7398 34.3641 20.7294 33.4037 19.4552C32.4433 18.181 31.1073 16.4327 29.787 12.6328C29.6244 12.1691 29.2243 10.309 28.6593 10.3657L28.6559 10.3678Z" fill="#D6EFCA"/>
<path fill-rule="evenodd" clip-rule="evenodd" d="M22.9078 35.1769C17.7848 40.8002 17.1091 48.3143 19.1756 54.7868C21.9314 63.4203 24.536 66.9971 29.4708 73.3761C42.7871 90.5944 48.9671 94.5506 55.478 93.1416C57.1236 92.7901 60.1804 91.8691 61.5836 90.949C68.1644 86.6423 71.3923 65.3493 72.1218 62.7465C74.7004 53.5843 73.8189 40.5762 70.7457 35.218C62.0032 19.9764 45.2254 22.025 31.3862 28.5004C27.6702 30.2391 25.3275 32.5185 22.9027 35.18L22.9078 35.1769Z" fill="#DD6057"/>
<path fill-rule="evenodd" clip-rule="evenodd" d="M24.1685 39.5263C24.8815 39.4799 25.1069 40.3771 25.3634 40.9651C25.5252 41.3317 25.7919 41.8485 25.7919 41.8485C26.051 41.9656 26.0339 42.0062 26.0952 42.0805C26.175 42.1878 26.2306 42.3112 26.2581 42.4421C26.2856 42.5729 26.2843 42.7082 26.2544 42.8386C26.2245 42.9689 26.1666 43.0912 26.0848 43.197C26.003 43.3028 25.8992 43.3896 25.7806 43.4514C25.084 43.8085 24.4438 42.9629 24.0926 42.2417C23.7165 41.4754 23.2118 40.6196 23.4552 40.04C23.5106 39.8955 23.6069 39.7703 23.7324 39.6798C23.8579 39.5893 24.0071 39.5374 24.1617 39.5305L24.1685 39.5263Z" fill="#F9897D"/>
<path fill-rule="evenodd" clip-rule="evenodd" d="M29.2972 66.063C29.9363 66.0288 30.2312 66.7608 30.5823 67.2403C30.8188 67.5616 31.1939 68.0081 31.1939 68.0081C31.2502 68.0204 31.1744 67.9758 31.3615 68.0622C31.4889 68.1293 31.5988 68.2254 31.6825 68.3426C31.7662 68.4598 31.8213 68.595 31.8435 68.7373C31.8656 68.8797 31.8542 69.0252 31.8101 69.1623C31.766 69.2994 31.6905 69.4243 31.5895 69.527C31.5435 69.5708 31.4928 69.6093 31.4384 69.6419C30.497 70.2124 29.422 68.615 28.7618 67.5793C28.3984 67.0027 28.4556 66.1386 29.2972 66.063ZM30.1433 66.6119C30.133 66.5949 30.1433 66.6119 30.1433 66.6119V66.6119Z" fill="#F9897D"/>
<path fill-rule="evenodd" clip-rule="evenodd" d="M32.9884 42.8397C33.9453 42.7779 34.0783 44.1703 34.771 44.7076C34.771 44.7076 35.5036 46.0084 34.3889 46.2008C33.2319 46.4001 32.1303 44.2682 32.2134 43.5697C32.2339 43.3755 32.3226 43.1948 32.4637 43.0599C32.6049 42.925 32.7894 42.8446 32.9843 42.8329L32.9884 42.8397Z" fill="#F9897D"/>
<path fill-rule="evenodd" clip-rule="evenodd" d="M60.0645 74.0826C60.1925 74.0808 60.3195 74.1065 60.4367 74.1582C60.5539 74.2099 60.6586 74.2862 60.7436 74.382C60.8285 74.4779 60.8918 74.5909 60.9291 74.7134C60.9664 74.836 60.9769 74.9651 60.9597 75.092C60.8917 75.8326 60.9303 76.5791 61.0742 77.3088C61.0927 77.4437 61.0861 77.5808 61.0545 77.7133C60.8379 78.437 59.5716 78.4982 59.3852 77.489C59.2418 76.6619 59.2038 75.82 59.2722 74.9833C59.3056 74.5402 59.5171 74.1379 60.0645 74.0826Z" fill="#F9897D"/>
<path fill-rule="evenodd" clip-rule="evenodd" d="M38.4437 71.855C39.0528 71.825 39.302 72.5313 39.533 73.0696C39.7361 73.6031 40.0107 74.1065 40.3493 74.566C40.4748 74.749 40.5345 74.9691 40.5187 75.1905C40.4328 75.8652 39.4525 76.1875 38.937 75.5056C38.3235 74.6925 37.7549 73.7314 37.659 72.7836C37.6457 72.6704 37.6558 72.5556 37.6886 72.4465C37.7215 72.3374 37.7764 72.2361 37.85 72.1491C37.9235 72.062 38.0142 71.991 38.1163 71.9404C38.2185 71.8898 38.3299 71.8607 38.4437 71.855Z" fill="#F9897D"/>
<path fill-rule="evenodd" clip-rule="evenodd" d="M22.9381 51.1775C24.0227 51.108 24.3509 52.7956 25.373 53.7652C25.373 53.7652 25.8774 54.7931 25.1351 55.1361C24.4649 55.4447 23.7913 54.617 23.2137 53.8519C22.5745 53.0079 21.7155 51.8744 22.5298 51.3204C22.6476 51.2312 22.7904 51.1812 22.9381 51.1775Z" fill="#F9897D"/>
<path fill-rule="evenodd" clip-rule="evenodd" d="M34.5654 32.412C35.451 32.3399 35.9288 33.7416 36.2278 34.6872C36.3826 35.1765 36.2432 35.8627 35.6478 35.9959C35.5292 36.0175 35.4074 36.0142 35.2901 35.9862C35.1728 35.9583 35.0626 35.9062 34.9665 35.8334C34.8703 35.7606 34.7904 35.6686 34.7317 35.5633C34.673 35.4579 34.6369 35.3416 34.6256 35.2215C34.4691 34.7315 34.2609 34.2595 34.0046 33.8136C34.0046 33.8136 33.6924 33.3291 33.8722 32.9204C33.9281 32.7787 34.0236 32.6562 34.1472 32.5672C34.2708 32.4783 34.4174 32.4268 34.5695 32.4188L34.5654 32.412Z" fill="#F9897D"/>
<path fill-rule="evenodd" clip-rule="evenodd" d="M40.1441 61.2129C40.3758 61.2212 40.6 61.2968 40.7894 61.4305C41.3187 61.9206 41.5741 62.7253 41.8058 63.4909C41.9606 63.9802 41.8213 64.6664 41.2259 64.7996C41.1062 64.822 40.9832 64.8191 40.8648 64.791C40.7463 64.7628 40.6351 64.7102 40.5382 64.6364C40.4414 64.5626 40.3611 64.4693 40.3026 64.3626C40.2441 64.2559 40.2086 64.138 40.1985 64.0167C40.042 63.5267 39.8338 63.0547 39.5775 62.6088C39.4393 62.4137 39.3708 62.1778 39.383 61.939C39.4055 61.7483 39.4938 61.5714 39.6327 61.4389C39.7717 61.3063 39.9525 61.2264 40.1441 61.2129Z" fill="#F9897D"/>
<path fill-rule="evenodd" clip-rule="evenodd" d="M51.2386 84.0039C52.2319 83.9293 52.548 85.6544 52.9538 86.9488C53.1646 87.6226 52.5308 88.5318 51.7724 88.097C51.3829 87.8684 51.3128 87.3579 51.1537 86.8921C50.9597 86.3266 50.7731 85.7543 50.5488 85.2003C50.4923 85.0774 50.4661 84.9428 50.4723 84.8077C50.4785 84.6726 50.517 84.541 50.5846 84.4238C50.6521 84.3067 50.7467 84.2074 50.8605 84.1343C50.9743 84.0613 51.104 84.0166 51.2386 84.0039Z" fill="#F9897D"/>
<path fill-rule="evenodd" clip-rule="evenodd" d="M54.8172 37.9855C55.7338 37.9109 55.8033 39.279 55.7095 40.7995C55.7035 41.0131 55.6222 41.2177 55.4802 41.3774C55.3381 41.537 55.1443 41.6414 54.9328 41.6722C54.399 41.7192 53.9988 41.2044 54.0258 40.6165C54.0528 40.0286 54.0677 39.4666 54.0583 38.8915C54.0401 38.671 54.1095 38.4522 54.2516 38.2826C54.3937 38.113 54.5969 38.0062 54.8172 37.9855Z" fill="#F9897D"/>
<path fill-rule="evenodd" clip-rule="evenodd" d="M57.9356 83.3045C58.8529 83.2272 58.9217 84.598 58.828 86.1185C58.7801 86.8445 57.7577 87.3387 57.273 86.6195C57.1919 86.4973 57.1433 86.3564 57.1318 86.2102C57.0871 85.5845 57.1877 84.9148 57.174 84.2098C57.1552 83.9892 57.2246 83.7701 57.3671 83.6006C57.5095 83.4311 57.7134 83.325 57.9339 83.3055L57.9356 83.3045Z" fill="#F9897D"/>
<path fill-rule="evenodd" clip-rule="evenodd" d="M68.4773 58.8683C69.1565 58.8121 69.5565 59.499 69.2589 60.5413C69.0133 61.4011 68.8283 62.5448 67.9007 62.6051C67.2436 62.6479 66.6977 61.7358 67.2445 61.1698C67.4623 60.709 67.621 60.2225 67.7168 59.7219C67.7168 59.7219 67.8097 58.936 68.4793 58.8601L68.4773 58.8683Z" fill="#F9897D"/>
<path fill-rule="evenodd" clip-rule="evenodd" d="M61.1481 29.9085C61.6428 29.8852 62.0341 30.3009 62.0598 30.8569C62.1096 31.7978 61.9227 32.7428 61.7862 33.6944C61.7862 33.6944 61.3645 34.647 60.6367 34.3586C59.6861 33.9822 60.4905 32.1239 60.3545 30.8263C60.3545 30.8263 60.3824 29.9753 61.143 29.9116L61.1481 29.9085Z" fill="#F9897D"/>
<path fill-rule="evenodd" clip-rule="evenodd" d="M58.9765 57.8471C59.4712 57.8237 59.8625 58.2394 59.8888 58.7927C59.938 59.7363 59.7527 60.6803 59.6145 61.633C59.6145 61.633 59.2437 62.4664 58.6121 62.3404C57.5392 62.1264 58.3183 60.0233 58.1897 58.7607C58.1897 58.7607 58.2309 57.9086 58.9765 57.8471Z" fill="#F9897D"/>
<path fill-rule="evenodd" clip-rule="evenodd" d="M41.0576 46.2713C41.8641 46.1147 42.285 47.2769 42.5771 48.2034C42.7167 48.6485 42.8441 49.0963 42.9732 49.5432C43.0037 49.6842 43.0068 49.8299 42.9822 49.9721C42.8113 50.6983 41.604 50.9027 41.2966 49.8321C41.0699 49.0402 40.9043 48.188 40.5115 47.5362C40.4219 47.3621 40.3837 47.1661 40.4013 46.9711C40.4221 46.7998 40.4971 46.6397 40.6154 46.5141C40.7336 46.3885 40.8889 46.304 41.0586 46.273L41.0576 46.2713Z" fill="#F9897D"/>
<path fill-rule="evenodd" clip-rule="evenodd" d="M63.503 65.5074C64.5208 65.4272 64.459 67.1653 64.2712 68.5268C64.2266 68.8558 64.1548 69.3315 64.1548 69.3315C63.9817 70.1728 62.2941 70.3592 62.5151 68.8685C62.6342 68.0529 62.8219 67.2166 62.7458 66.424C62.7458 66.424 62.7654 65.6013 63.5071 65.5142L63.503 65.5074Z" fill="#F9897D"/>
<path fill-rule="evenodd" clip-rule="evenodd" d="M47.0043 28.9621C47.2235 28.9487 47.4397 29.0184 47.6099 29.1571C47.7801 29.2959 47.8918 29.4936 47.9229 29.711C47.9405 29.9164 47.9409 29.9324 47.9495 30.0271C47.9581 30.1218 47.9671 30.2325 47.9781 30.335C48.0905 31.4634 48.4625 32.8898 47.4612 33.0855C46.9427 33.1883 46.4818 32.7497 46.4452 32.1144C46.3987 31.3899 46.3039 30.6737 46.2454 29.9447C46.2454 29.9447 46.2322 29.049 47.0026 28.9631L47.0043 28.9621Z" fill="#F9897D"/>
<path fill-rule="evenodd" clip-rule="evenodd" d="M49.9894 59.1724C50.2088 59.1582 50.4255 59.2274 50.5959 59.3664C50.7663 59.5053 50.8778 59.7036 50.908 59.9214C50.9283 60.1275 50.9277 60.1418 50.9363 60.2365C50.9449 60.3312 50.9539 60.4419 50.9649 60.5444C51.0749 61.665 51.4403 63.0652 50.4769 63.2889C49.9521 63.4118 49.4703 62.9696 49.4286 62.3258C49.3814 61.604 49.2873 60.8851 49.2288 60.1562C49.2288 60.1562 49.2184 59.2611 49.986 59.1745L49.9894 59.1724Z" fill="#F9897D"/>
<path fill-rule="evenodd" clip-rule="evenodd" d="M43.95 38.5661C44.885 38.4989 45.1613 40.0089 45.3871 41.1289C45.4488 41.4377 45.5237 41.8872 45.5237 41.8872C45.6149 42.7008 44.1188 43.345 43.857 42.1655C43.7051 41.3398 43.5787 40.5104 43.2413 39.7275C43.2413 39.7275 43.0468 38.6628 43.95 38.5661Z" fill="#F9897D"/>
<path fill-rule="evenodd" clip-rule="evenodd" d="M46.7034 67.704C47.6439 67.6382 47.9157 69.1485 48.1404 70.2669C48.2032 70.5774 48.2798 71.0258 48.2798 71.0258C48.3003 71.2346 48.2452 71.4438 48.1245 71.6154C48.0039 71.787 47.8256 71.9096 47.6222 71.961C47.1143 72.0737 46.6757 71.6681 46.5662 71.0351C46.4587 70.2932 46.2673 69.5659 45.9957 68.8671C45.9343 68.6879 45.9244 68.495 45.9673 68.3104C46.0079 68.1433 46.1016 67.9939 46.2343 67.8846C46.367 67.7752 46.5316 67.7119 46.7034 67.704Z" fill="#F9897D"/>
<path fill-rule="evenodd" clip-rule="evenodd" d="M31.9567 54.2706C32.9378 54.2103 33.1656 55.7822 33.9914 56.8918C33.9914 56.8918 34.3231 58.3705 33.212 58.2354C32.8086 58.1871 32.5606 57.8123 32.3689 57.5266C31.9283 56.8689 31.5518 56.1706 31.2443 55.4412C31.2443 55.4412 31.0368 54.3588 31.9567 54.2706Z" fill="#F9897D"/>
<path fill-rule="evenodd" clip-rule="evenodd" d="M67.0316 38.5772C67.1716 38.5528 67.3155 38.5629 67.4508 38.6064C67.5861 38.6499 67.7089 38.7256 67.8085 38.827C67.9081 38.9284 67.9816 39.0525 68.0227 39.1885C68.0638 39.3246 68.0712 39.4686 68.0444 39.6082C68.009 39.776 68.0061 39.8057 67.9826 39.8896C67.8514 40.6429 67.7597 41.4001 67.6793 42.1644C67.6793 42.1644 67.5014 42.7833 67.0317 42.8938C66.4673 43.0244 65.9389 42.5129 66.0182 41.8004C66.0926 40.9231 66.2214 40.0513 66.4039 39.1899C66.4368 39.0375 66.5139 38.8981 66.6255 38.7891C66.7371 38.6802 66.8784 38.6065 67.0316 38.5772Z" fill="#F9897D"/>
<path fill-rule="evenodd" clip-rule="evenodd" d="M45.3107 77.351C45.7849 77.3284 46.135 77.7412 46.2209 78.2165C46.3571 78.9472 46.7173 79.6373 47.0862 80.3035C47.0862 80.3035 47.3128 81.444 46.4477 81.5501C45.4856 81.6685 44.9986 80.0446 44.7048 79.1075C44.4767 78.3745 44.3614 77.4291 45.3087 77.3476L45.3107 77.351Z" fill="#F9897D"/>
<path fill-rule="evenodd" clip-rule="evenodd" d="M59.718 48.6017C60.618 48.3769 60.8154 49.7953 60.9961 51.3469C60.9961 51.3469 60.8201 52.3829 60.0462 52.2827C59.2071 52.1709 59.2246 50.7315 59.0937 49.5075C59.0937 49.5075 59.1123 48.7714 59.718 48.6017Z" fill="#F9897D"/>
<path fill-rule="evenodd" clip-rule="evenodd" d="M50.8326 47.2656C50.9452 47.2319 51.0634 47.2213 51.1802 47.2343C51.297 47.2473 51.4099 47.2837 51.5123 47.3414C51.6147 47.399 51.7044 47.4767 51.7761 47.5698C51.8478 47.663 51.8999 47.7696 51.9295 47.8833L52.5495 50.6811C52.7156 51.4958 51.1871 52.2666 50.908 51.0394L50.2873 48.2443C50.234 48.0387 50.2629 47.8204 50.3679 47.6358C50.4729 47.4512 50.6457 47.3147 50.8496 47.2553L50.8326 47.2656Z" fill="#F9897D"/>
<path fill-rule="evenodd" clip-rule="evenodd" d="M52.3241 75.4677C52.5258 75.4588 52.7244 75.5201 52.8859 75.6413C53.0475 75.7624 53.162 75.9358 53.2099 76.132C53.3591 76.8803 53.5754 77.632 53.6166 78.3784C53.6577 79.1248 52.2102 79.7303 51.9455 78.6036C51.7681 77.8733 51.6302 77.134 51.5326 76.3889C51.5211 76.2768 51.5325 76.1635 51.5661 76.056C51.5997 75.9484 51.6547 75.8488 51.7279 75.7632C51.8011 75.6776 51.891 75.6077 51.992 75.5578C52.093 75.5079 52.2031 75.479 52.3156 75.4729L52.3241 75.4677Z" fill="#F9897D"/>
<path fill-rule="evenodd" clip-rule="evenodd" d="M55.0382 65.9887C55.1559 65.9841 55.2732 66.0033 55.3832 66.0452C55.4932 66.0872 55.5935 66.1509 55.6782 66.2326C55.7629 66.3144 55.8302 66.4124 55.876 66.5208C55.9218 66.6292 55.9452 66.7458 55.9448 66.8635L55.84 69.7266C55.7925 70.5568 54.1262 70.9163 54.1499 69.6636L54.2547 66.8005C54.2558 66.5904 54.3379 66.3887 54.4838 66.2376C54.6297 66.0864 54.8283 65.9973 55.0382 65.9887Z" fill="#F9897D"/>
<path d="M38.5474 50.9615C37.7395 50.8521 36.9198 50.8656 36.116 51.0016C35.1771 51.1279 34.2649 51.4054 33.4148 51.8233C31.7634 52.7057 30.8798 54.2378 30.4289 55.3684C30.0805 56.2463 29.552 57.9351 29.9425 59.3805C30.0021 59.6251 30.1523 59.8379 30.3627 59.976C30.5732 60.1141 30.8283 60.1671 31.0764 60.1244C31.2105 60.0966 31.3375 60.0419 31.4497 59.9635C31.562 59.885 31.6571 59.7846 31.7293 59.6683C31.7965 59.5638 31.8414 59.4466 31.861 59.3239C31.8807 59.2012 31.8746 59.0758 31.8433 58.9556C31.8263 58.8892 31.811 58.8219 31.7981 58.7507C31.7852 58.6795 31.7865 58.6741 31.7822 58.6325L31.7769 58.5777C31.7767 58.5643 31.7756 58.551 31.7737 58.5378L31.7738 58.4959L31.7724 58.3249C31.7741 58.2076 31.7803 58.0901 31.7909 57.9721C31.8276 57.4723 31.9277 56.9792 32.0887 56.5046C32.3693 55.6375 32.9351 54.4512 33.9964 53.7221C34.577 53.3307 35.3364 53.1423 35.9321 53.0136C36.5881 52.8603 37.2631 52.805 37.9353 52.8496C38.893 52.9039 39.8051 53.2768 40.5266 53.909L40.5824 53.9589C40.6258 53.9999 40.6703 54.0427 40.7121 54.0847C40.7956 54.1689 40.8757 54.255 40.9541 54.3423C41.1086 54.5205 41.2519 54.7147 41.3705 54.8798L41.3901 54.9121L41.4735 55.0497C41.525 55.1347 41.5765 55.2197 41.628 55.3046C41.7248 55.4643 41.8019 55.6337 41.8789 55.803C41.9417 55.9528 42.0439 56.0827 42.1747 56.1789C42.3054 56.2752 42.4599 56.3342 42.6215 56.3497C42.8009 56.364 42.981 56.3317 43.1443 56.2559C43.3076 56.1801 43.4486 56.0635 43.5535 55.9172C43.652 55.7803 43.7117 55.6195 43.7265 55.4515C43.7412 55.2835 43.7104 55.1147 43.6372 54.9628C42.6204 52.7446 40.7667 51.2846 38.5474 50.9615Z" fill="#242424"/>
<path d="M71.0466 41.3455C70.2163 41.2423 69.3755 41.2597 68.5502 41.3972C67.5819 41.5246 66.6387 41.7985 65.7528 42.2097C64.3772 42.8878 63.2413 44.157 62.5368 45.7852C62.2283 46.5076 62.0215 47.2694 61.9223 48.0487C61.8188 48.6593 61.8412 49.2845 61.988 49.8861C62.0496 50.1306 62.2019 50.3425 62.414 50.4788C62.6261 50.6152 62.882 50.6658 63.1301 50.6204C63.264 50.5915 63.3906 50.5355 63.5022 50.4559C63.6137 50.3763 63.7079 50.2748 63.7788 50.1575C63.8461 50.0532 63.8906 49.9358 63.9095 49.8131C63.9284 49.6903 63.9212 49.565 63.8884 49.4452C63.8708 49.3816 63.8565 49.3159 63.845 49.2509C63.8335 49.1858 63.8327 49.1654 63.8263 49.1204L63.8198 49.0176C63.8166 48.8295 63.8236 48.6415 63.8408 48.4542C63.8829 47.943 63.9946 47.4399 64.1728 46.9589C64.6024 45.7204 65.3269 44.7307 66.2046 44.1779C66.8733 43.7957 67.6039 43.5338 68.3632 43.404C69.0341 43.2525 69.7229 43.1956 70.4096 43.2347C70.9553 43.2589 71.4923 43.3793 71.996 43.5906C72.1919 43.6633 72.3795 43.7568 72.5554 43.8695C72.7616 43.9952 72.9588 44.1349 73.1457 44.2877L73.1926 44.3267C73.234 44.3644 73.2744 44.4003 73.3141 44.439C73.402 44.5227 73.4876 44.6103 73.5698 44.6999C73.7218 44.8647 73.8637 45.0386 73.9946 45.2207L74.1016 45.3742C74.1551 45.4626 74.2046 45.5441 74.2622 45.6393C74.358 45.7973 74.4409 45.9608 74.5213 46.1281C74.5874 46.2774 74.6926 46.4061 74.8258 46.5004C74.9591 46.5947 75.1154 46.6512 75.2781 46.6638C75.4701 46.6777 75.6621 46.637 75.832 46.5465C75.9811 46.4691 76.109 46.3565 76.2047 46.2184C76.3002 46.0806 76.3568 45.9196 76.3682 45.7523C76.3797 45.585 76.3458 45.4177 76.27 45.2681C75.2343 43.0916 73.3276 41.6591 71.0466 41.3455Z" fill="#242424"/>
<path d="M55.8879 52.9234L49.9904 54.5624C49.83 54.6033 49.6836 54.6865 49.5664 54.8033C49.4492 54.9201 49.3655 55.0662 49.3241 55.2264C49.2811 55.4019 49.284 55.5855 49.3326 55.7596C49.3811 55.9336 49.4736 56.0922 49.6011 56.2202C49.7192 56.3352 49.8659 56.4164 50.026 56.4554C50.1862 56.4944 50.3538 56.4898 50.5115 56.4421L56.408 54.8014C56.6569 54.7322 56.8681 54.5669 56.9952 54.342C57.1222 54.1171 57.1547 53.8509 57.0855 53.602C57.0163 53.3531 56.8511 53.1419 56.6262 53.0148C56.4012 52.8878 56.1351 52.8553 55.8862 52.9245L55.8879 52.9234Z" fill="#242424"/>
<path d="M43.0677 63.0795C42.5394 61.1798 40.2309 60.1625 37.9114 60.8074C35.5919 61.4524 34.1397 63.5153 34.668 65.4151C35.1962 67.3149 37.5048 68.3322 39.8243 67.6872C42.1438 67.0423 43.5959 64.9793 43.0677 63.0795Z" fill="#F9ADA7"/>
<path d="M75.5497 53.2569C75.0215 51.3571 72.7129 50.3399 70.3934 50.9848C68.0739 51.6297 66.6218 53.6927 67.15 55.5925C67.6783 57.4923 69.9868 58.5095 72.3063 57.8646C74.6259 57.2196 76.078 55.1567 75.5497 53.2569Z" fill="#F9ADA7"/>
<path d="M80.7769 14.5517C78.7483 13.3994 77.3654 11.8794 76.2482 9.68444C75.3234 7.8764 74.8117 6.65054 74.2049 3.36112C74.1922 3.28752 74.1606 3.21842 74.1131 3.16046C74.0655 3.1025 74.0036 3.05766 73.9334 3.03027C73.8632 3.00288 73.7871 2.99386 73.7124 3.0041C73.6376 3.01434 73.5668 3.04348 73.5068 3.0887C73.3994 3.18427 73.3313 3.31555 73.3155 3.45755C73.1936 4.13135 72.593 8.20547 70.3438 10.8271C69.3094 12.0325 67.7572 13.1764 66.2427 13.9394C66.1558 13.9829 66.086 14.0537 66.0441 14.1407C65.9988 14.2319 65.988 14.3363 66.0137 14.4348C66.0495 14.5465 66.1142 14.647 66.2013 14.7265C66.7057 15.2375 69.6895 17.7483 71.1333 20.8461C72.2969 23.3388 72.7648 25.2951 72.9329 25.6759C72.9622 25.7566 73.0118 25.8285 73.077 25.8848C73.1423 25.9411 73.221 25.98 73.3057 25.9978C73.4201 26.0086 73.5348 25.9799 73.6302 25.9166C73.7257 25.8533 73.7962 25.7594 73.8296 25.6506C73.9868 25.2324 74.5607 23.029 75.2527 21.6862C76.8549 18.5523 77.8491 17.9749 80.8573 15.2484C80.9082 15.202 80.9474 15.1445 80.9717 15.0804C80.9961 15.0164 81.0049 14.9476 80.9974 14.8795C80.9896 14.8115 80.9655 14.7463 80.9272 14.6893C80.8888 14.6323 80.8373 14.5851 80.7769 14.5517Z" fill="#FFD79B"/>
<path d="M29.648 68.202C28.4308 67.6604 27.1864 66.8871 26.3803 66.1013C24.6571 64.427 24.2879 61.9632 24.2153 61.5555C24.2029 61.463 24.1712 61.3741 24.1222 61.2948C24.0732 61.2156 24.008 61.1477 23.931 61.0957C23.8576 61.0473 23.7743 61.0163 23.6874 61.0049C23.6004 60.9935 23.512 61.0021 23.4288 61.03C23.3336 61.0564 23.247 61.1077 23.1779 61.1787C23.1087 61.2496 23.0594 61.3377 23.0349 61.434C22.4503 63.3835 22.0023 64.0936 21.2023 65.1384C20.2324 66.4013 19.0718 67.2452 17.4003 67.8339C17.2981 67.8703 17.2076 67.9339 17.1384 68.0179C17.0691 68.102 17.0238 68.2033 17.0071 68.3112C16.9905 68.4191 17.0031 68.5295 17.0438 68.6307C17.0844 68.7319 17.1515 68.8202 17.2379 68.8861C19.6244 70.703 20.4293 71.0983 21.6515 73.0924C22.1758 73.9488 22.582 75.3232 22.6989 75.5896C22.7387 75.7013 22.8096 75.7992 22.903 75.8716C22.9965 75.9439 23.1086 75.9877 23.2261 75.9978C23.3435 76.0078 23.4614 75.9837 23.5656 75.9283C23.6698 75.8728 23.7561 75.7884 23.814 75.685C23.9654 75.457 24.4122 74.2673 25.4559 72.7813C26.7273 70.9682 29.2456 69.6 29.6726 69.3112C29.8 69.2371 29.899 69.122 29.9534 68.9844C30.0079 68.8468 30.0148 68.6947 29.973 68.5527C29.9471 68.4742 29.9046 68.4021 29.8485 68.3416C29.7925 68.2811 29.7241 68.2335 29.648 68.202Z" fill="#FFD79B"/>
<path d="M84.6481 79.2015C83.4297 78.6599 82.1867 77.8865 81.3806 77.1008C79.6576 75.4276 79.2884 72.9624 79.2146 72.5546C79.2031 72.462 79.1717 72.373 79.1226 72.2938C79.0735 72.2146 79.0079 72.1472 78.9303 72.0961C78.8573 72.0474 78.7742 72.0162 78.6874 72.0048C78.6006 71.9935 78.5124 72.0022 78.4294 72.0304C78.3341 72.0564 78.2473 72.1074 78.1779 72.1781C78.1085 72.2489 78.059 72.3369 78.0344 72.4332C77.4498 74.3828 77.0018 75.0929 76.2019 76.1378C75.2321 77.4007 74.0728 78.2447 72.4003 78.8334C72.2981 78.8699 72.2076 78.9334 72.1383 79.0175C72.0691 79.1015 72.0238 79.2028 72.0071 79.3107C71.9905 79.4186 72.0031 79.529 72.0437 79.6302C72.0844 79.7315 72.1514 79.8197 72.2378 79.8857C74.6254 81.7026 75.429 82.098 76.6523 84.0934C77.1766 84.9486 77.5827 86.3244 77.6996 86.5896C77.7394 86.7013 77.8103 86.7992 77.9037 86.8715C77.9971 86.9439 78.1093 86.9877 78.2267 86.9978C78.3441 87.0078 78.462 86.9837 78.5662 86.9283C78.6704 86.8728 78.7567 86.7884 78.8146 86.685C78.966 86.457 79.4127 85.2672 80.4564 83.7811C81.7276 81.9679 84.2444 80.5996 84.6727 80.3108C84.8001 80.2367 84.899 80.1216 84.9534 79.984C85.0079 79.8464 85.0148 79.6943 84.973 79.5523C84.9465 79.474 84.9039 79.4023 84.8479 79.3418C84.7918 79.2814 84.7238 79.2336 84.6481 79.2015Z" fill="#FFD79B"/>
</svg>
