<svg width="100" height="100" viewBox="0 0 100 100" fill="none" xmlns="http://www.w3.org/2000/svg">
<path fill-rule="evenodd" clip-rule="evenodd" d="M37.2943 26.4309C36.7922 26.4104 40.4019 24.3547 41.3302 24.1653C45.2937 23.3595 47.2843 23.789 51.0733 23.789C53.5067 23.789 57.6079 21.7044 60.2597 21.3364C67.8234 20.2893 68.011 21.9927 70.8242 22.3015C74.2666 22.6803 76.5517 23.1315 78.3583 23.789C80.4831 24.561 82.1473 27.1282 83.5551 27.8435C85.8473 29.0089 88.1098 29.0776 90.2357 31.2382C97.733 38.8576 100.81 56.5718 97.9371 66.7896C96.6836 71.2531 94.2574 75.1919 91.4418 78.7663C89.1603 81.6616 85.3214 84.926 82.0702 86.0274C80.0166 86.7235 78.2633 87.0094 76.3166 88.1988C74.5681 89.2665 72.8648 90.7973 70.8421 91.3112C70.2094 91.4717 67.9932 91.8457 67.5955 92.2546C65.9337 93.9435 64.2208 96.0715 61.2853 96.4974C55.9686 97.2694 50.1949 97.4166 45.4183 94.9894C45.0539 94.8036 43.7398 95.5359 41.799 95.9316C39.0309 96.4962 34.9309 95.5854 32.3348 94.706C27.8799 93.1968 25.3444 90.3968 21.07 89.0107C20.112 88.7007 19.0413 88.3267 17.3024 87.7272C14.9687 86.9225 11.9168 84.9176 10.4911 83.5688C6.76269 80.0439 4.1999 77.1957 1.92674 65.1248C-0.71558 51.0985 2.0146 39.5319 13.7246 31.0319C14.7407 30.2937 17.2335 28.5927 18.4158 28.1282C26.0662 25.1292 29.0765 25.3536 32.1485 25.5623C34.3564 25.7095 37.2978 26.4333 37.2978 26.4333L37.2943 26.4309Z" fill="#FD9C5F"/>
<path fill-rule="evenodd" clip-rule="evenodd" d="M63.4888 4.00785C63.0528 4.00785 61.0453 3.82149 60.3317 5.26445C58.8559 8.24737 62.7373 9.56936 63.5148 9.8876C64.0004 10.087 65.911 9.99659 66.458 9.80695C67.1528 9.57372 68.0543 9.32306 68.5045 8.69966C68.7809 8.31821 69.087 7.82779 68.9771 7.1924C68.7608 5.89112 67.7813 4.85904 65.4324 4.3043C64.8558 4.16807 64.3502 4.01657 63.4864 4.00785H63.4888Z" fill="#70975F"/>
<path fill-rule="evenodd" clip-rule="evenodd" d="M41.0081 37.8891C41.6964 37.22 45.232 32.0541 46.0365 30.0208C49.1503 22.1442 49.2884 14.535 55.4378 7.99537C56.9611 6.3756 57.8976 5.80993 59.6691 4.90558C60.4466 4.50747 62.0616 3.99528 62.278 4.00003C62.3709 4.00003 61.7449 4.05946 61.2449 5.22764C60.9002 6.03336 61.0493 6.76183 61.6117 7.49268C62.7315 8.9437 63.613 9.66386 65.3527 10.056C66.3185 10.2735 67.1107 10.1511 67.9934 9.86944C68.1352 9.82428 65.9738 11.0768 63.4516 12.6194C60.6557 14.3306 58.9942 15.6367 56.9037 20.3058C55.3327 23.8151 54.9476 28.4533 55.6029 32.2918C56.0919 35.1974 57.0174 37.2462 56.8731 37.1927C56.0589 36.8932 54.9904 36.8362 52.4817 36.9467C50.6284 37.0287 49.4254 37.2675 47.462 38.0602C46.3213 38.5201 45.0462 39.5088 44.073 39.9818C43.584 40.2195 40.8444 38.0531 41.0069 37.895L41.0081 37.8891Z" fill="#D5EDC8"/>
<path fill-rule="evenodd" clip-rule="evenodd" d="M35.3702 36C36.9753 36.0007 38.5707 36.2405 40.1013 36.7109C40.8026 36.9324 41.3979 37.4087 42.031 37.821C43.0221 38.4667 44.0691 39.1029 44.8532 39.9181L44.9749 40.1005C45.0128 40.2395 45.0077 40.3862 44.9603 40.5223L44.8324 40.6965L44.6437 40.8149L44.4258 40.8505C44.1933 40.7972 44.1823 40.8256 43.9826 40.6266C42.8492 39.5212 41.4259 38.661 39.9905 37.8684C39.7733 37.7538 39.5386 37.6738 39.2953 37.6314C35.0341 36.455 30.37 37.3874 26.3279 39.2901C21.9925 41.3351 18.4581 44.8219 16.3044 49.0894C13.9498 53.7563 13.2351 59.0416 13.1158 64.116C13.0062 68.7366 13.5127 73.3916 14.763 77.844C15.5215 80.543 16.8547 83.0725 18.3279 85.4882C18.4691 85.7252 18.6651 86.0143 18.6651 86.0143L18.8027 86.1707L18.8757 86.3993C18.883 86.5652 18.7698 86.8401 18.6322 86.91C18.5593 86.9511 18.4805 86.9814 18.3985 87L18.1136 86.9716C18.0394 86.9512 17.9707 86.9154 17.912 86.8668C17.8534 86.8181 17.8062 86.7576 17.7739 86.6896C17.0288 85.6813 16.4627 84.5238 15.8746 83.3841C14.8714 81.4339 13.9851 79.4281 13.4616 77.3002C11.8983 70.9534 11.6074 64.2534 12.501 57.8236C13.2814 52.2102 15.5191 46.6701 19.6038 42.6288C23.6215 38.6539 29.323 36.141 34.8625 36.0095C35.0354 36.0095 35.2071 36.0036 35.3799 36.0036L35.3702 36ZM17.7398 86.3614C17.7342 86.4094 17.7342 86.4579 17.7398 86.506C17.7398 86.506 17.7836 86.1908 17.7398 86.3614ZM17.8056 86.1766L17.7593 86.2832C17.7593 86.2832 17.8981 86.0463 17.8056 86.1766ZM17.9358 86.0249L17.8932 86.0664C17.8932 86.0664 18.0295 85.9633 17.9358 86.0249Z" fill="#F9741F"/>
<path fill-rule="evenodd" clip-rule="evenodd" d="M53.3903 36.0024C55.6711 36.0238 57.9581 36.5974 59.834 37.9194C61.5572 39.132 63.0232 40.6968 63.9488 42.452C64.3379 43.2041 64.6671 43.9838 64.9335 44.7843L64.9729 44.9033L65 45.1187L64.9385 45.3258L64.8006 45.4959C64.6781 45.5778 64.5335 45.6233 64.3846 45.6268L64.1692 45.5673C63.8602 45.3293 63.7506 44.8391 63.5832 44.4035C62.8533 42.5079 61.5892 40.8336 59.9435 39.4235C57.6972 37.5053 54.5585 36.8175 51.4579 37.2542C48.7327 37.6386 45.9485 38.5084 44.288 40.4921C42.182 43.0077 41.4951 46.3741 40.8477 49.5168C39.2648 57.1909 38.6235 65.034 39.6599 72.8663C40.2113 77.0312 41.0077 81.1723 42.4343 85.1444L42.4786 85.2634L42.5106 85.4764C42.4991 85.5478 42.4806 85.6179 42.4552 85.6858C42.3678 85.8655 42.2964 85.8739 42.1302 85.9691L41.9087 86L41.6933 85.9476L41.5136 85.8179C41.4029 85.6635 41.3242 85.4897 41.2821 85.3062C39.1835 79.3267 38.1988 72.8997 38.024 66.8082C37.832 59.9159 38.8056 53.0046 40.3836 46.3111C40.9646 43.849 41.8915 41.4429 43.6418 39.5104C45.5078 37.4506 48.4693 36.5438 51.3606 36.1476C52.0326 36.0508 52.7109 36.0015 53.3903 36V36.0024Z" fill="#F9741F"/>
<path fill-rule="evenodd" clip-rule="evenodd" d="M43.4164 88.0013C43.455 88.0028 43.4931 88.0134 43.5293 88.0326C43.6866 88.1122 43.7645 88.3304 43.8132 88.6016C44.1023 90.1939 44.4016 91.8683 44.9584 93.1725C44.9584 93.1725 45.0704 93.5619 44.9268 93.8138C44.748 94.1236 44.3897 94.0392 44.2212 93.6173C43.6225 92.1274 43.3129 90.4001 43.0238 88.78C43.0021 88.6789 42.9952 88.5728 43.0033 88.4678C43.0164 88.3363 43.0633 88.2161 43.135 88.13C43.2067 88.0438 43.2982 87.9976 43.3924 88.0001L43.4164 88.0013Z" fill="#F9741F"/>
<path fill-rule="evenodd" clip-rule="evenodd" d="M68.5975 57L68.7518 57.0434C68.8307 57.082 68.7781 57.0084 68.9289 57.1724C69.2786 57.5534 69.3929 58.1551 69.5906 58.7206C70.8236 62.2352 71.5332 65.9549 71.828 69.6685C72.2211 74.6433 71.8909 79.6133 71.3355 84.6303C71.1653 86.0663 70.7516 87.4963 70.3505 88.919C70.1951 89.4664 70.0294 90.0102 69.8397 90.5455C69.7967 90.6861 69.7176 90.8113 69.6112 90.9073C69.5503 90.9488 69.4823 90.9771 69.411 90.9907C69.3397 91.0043 69.2666 91.0029 69.1959 90.9866C69.1251 90.9702 69.0581 90.9392 68.9988 90.8954C68.9394 90.8516 68.8889 90.7958 68.8501 90.7312C68.7267 90.5106 68.8135 90.2489 68.9255 89.9186C69.4795 88.2611 69.9139 86.5618 70.2248 84.8352C70.3859 83.9551 70.4294 83.0471 70.5128 82.1453C71.1904 74.7482 71.1596 67.2161 68.913 60.0806C68.6844 59.3475 68.4558 58.6036 68.1244 57.9188C68.0651 57.8526 68.0274 57.7681 68.017 57.6776C67.9827 57.4968 67.9828 57.3677 68.1873 57.1459C68.1873 57.1459 68.2033 57.1061 68.3759 57.0326C68.4473 57.01 68.5221 57.0018 68.5964 57.0084L68.5975 57Z" fill="#F9741F"/>
<path fill-rule="evenodd" clip-rule="evenodd" d="M68.777 37.0054C74.1829 37.0203 79.6286 38.7279 83.5989 41.9931C83.8068 42.1644 84.0169 42.3378 83.9989 42.5776C83.9677 42.9844 83.3647 43.1632 82.949 42.8142C78.7624 39.3295 72.8579 37.7034 67.2009 38.0524C64.6646 38.2255 62.1542 38.6243 59.707 39.2428C59.707 39.2428 58.9754 39.2214 59.0006 38.7397C59.0151 38.4506 59.3611 38.2954 59.7106 38.2044C62.5938 37.5149 65.5575 37.0268 68.568 37L68.777 37.0054Z" fill="#F9741F"/>
<path fill-rule="evenodd" clip-rule="evenodd" d="M87.4686 70.0012C87.8196 70.0435 88.012 70.375 87.9994 70.6871C87.9994 70.8014 87.9881 70.9157 87.9819 71.03C87.6686 76.004 85.5212 80.9758 82.2504 84.5859C82.1573 84.6888 82.0202 84.8317 82.0202 84.8317C81.9757 84.8789 81.9214 84.9177 81.8604 84.946C81.5095 85.1164 81.0214 84.8626 81 84.4773C81.0217 84.3366 81.0842 84.2036 81.1811 84.0921C81.1811 84.0921 81.1006 84.1767 81.2239 84.0452C84.038 81.0295 85.7691 77.2261 86.5163 73.2787C86.6926 72.3651 86.7989 71.4415 86.8345 70.5145C86.8407 70.4429 86.8594 70.3726 86.8899 70.3064C86.9421 70.2091 87.025 70.1281 87.1281 70.0737C87.2312 70.0193 87.3497 69.9941 87.4686 70.0012ZM81.2214 84.0623L81.1837 84.0944C81.1837 84.0944 81.327 83.9983 81.2214 84.0623Z" fill="#F9741F"/>
<path fill-rule="evenodd" clip-rule="evenodd" d="M69.5136 23.001C69.9997 23.0782 70.2468 23.8494 69.6489 24.1223C67.4529 24.9944 65.324 26.0347 63.5388 27.5734C62.6396 28.3483 61.8029 29.2055 60.985 30.0652C59.7541 31.3721 58.8078 32.9818 58.0323 34.6376C58.0323 34.6376 57.6675 35.1559 57.2768 34.9528C56.979 34.7983 56.9237 34.3946 57.1002 34.0209C57.9899 32.152 59.1397 30.3604 60.5013 28.9426C61.9677 27.4201 63.5188 25.9525 65.3029 24.9022C66.5113 24.2086 67.767 23.6114 69.0594 23.1156C69.1959 23.0608 69.2583 22.991 69.5125 23.001H69.5136Z" fill="#F9741F"/>
<path fill-rule="evenodd" clip-rule="evenodd" d="M81.5326 28.0022C81.9406 28.0596 82.163 28.5714 81.8581 28.8609C81.6908 29.0181 81.4157 29.0083 81.2002 29.0094C78.3612 29.0289 75.5268 29.3618 72.8517 30.3039C72.234 30.5283 71.6827 30.9132 71.1325 31.2797C70.3509 31.7969 69.5898 32.3411 68.8574 32.9168C68.8574 32.9168 68.3635 33.1423 68.1079 32.8507C67.8993 32.6133 68.0082 32.2717 68.3061 32.0397C69.5967 31.0423 70.87 29.9722 72.4208 29.3824C73.9279 28.811 76.0735 28.3415 78.14 28.1464C79.2277 28.0379 80.3176 28.0022 81.4133 28H81.5371L81.5326 28.0022Z" fill="#F9741F"/>
<path fill-rule="evenodd" clip-rule="evenodd" d="M36.5849 27C37.038 27.0281 37.4017 27.3182 37.8027 27.5486C40.2854 28.9798 42.5297 30.8697 43.8728 33.1609C44.0802 33.515 43.997 33.6409 43.884 33.7905C43.6357 34.1131 43.1007 34.0704 42.8289 33.6117C41.4398 31.2868 39.1408 29.3879 36.6221 28.1231C36.2497 27.9354 36.3403 28.0107 36.2919 27.9848C35.8711 27.7847 35.8798 27.0944 36.4856 27.0034C36.5206 26.9999 36.556 26.9999 36.5911 27.0034L36.5849 27ZM36.5899 28.0444H36.5588C36.5588 28.0444 36.6929 28.0343 36.5899 28.0444Z" fill="#F9741F"/>
<path fill-rule="evenodd" clip-rule="evenodd" d="M59.5777 6.00695C60.0585 6.12553 60.1847 6.7718 59.6606 7.08841C56.6556 8.92642 54.6243 12.1412 53.3585 15.3512C51.5279 19.9924 50.6997 25.0049 48.964 29.454C47.7981 32.4435 45.9254 35.1127 44.0142 37.7476C43.9431 37.8404 43.8514 37.9158 43.7461 37.9682C43.3206 38.1366 42.7941 37.6041 43.0826 37.1381C45.1032 34.3325 47.0877 31.477 48.2224 28.2267C49.9052 23.4206 50.7838 18.3086 52.8561 13.6531C54.1783 10.6791 56.2217 7.9173 58.9935 6.20024C59.1305 6.11605 59.1714 5.96308 59.5777 6.00814V6.00695Z" fill="#A5C499"/>
<path fill-rule="evenodd" clip-rule="evenodd" d="M58.5265 10C58.9964 10.0751 59.178 10.6937 58.7857 10.9769L58.7118 11.0324C57.2586 12.1377 56.2171 13.7493 55.4082 15.3991C54.7542 16.7286 54.3098 18.1645 53.8339 19.5762C53.071 21.819 52.5793 24.1533 52.1385 26.4458C52.1094 26.6008 51.889 27.0459 51.4906 26.9961C51.3596 26.9768 51.2394 26.9152 51.1502 26.8216C51.0609 26.728 51.008 26.608 51.0002 26.4817C50.9981 26.3664 51.0157 26.2517 51.0522 26.1418C51.7393 22.5138 52.7729 18.9535 54.1402 15.5055C54.7934 13.9281 55.734 12.4736 56.9183 11.2093C57.2761 10.8122 57.674 10.4497 58.1063 10.1272C58.2365 10.0574 58.3812 10.0156 58.5301 10.0046L58.5265 10Z" fill="#A5C499"/>
<path fill-rule="evenodd" clip-rule="evenodd" d="M54.0817 25.0058C54.4362 25.0566 54.5949 25.4113 54.4992 25.856C53.9365 28.4853 53.905 31.266 54.5116 33.8109C54.6215 34.2994 54.7826 34.7743 54.9921 35.2272C54.9921 35.2272 55.0889 35.9204 54.605 35.9943C54.0974 36.0763 53.824 35.2538 53.6203 34.5445C52.7965 31.683 52.8449 28.6309 53.4616 25.6931C53.5325 25.357 53.6766 25.0139 54.0378 25H54.0817V25.0058Z" fill="#A5C499"/>
<path fill-rule="evenodd" clip-rule="evenodd" d="M63.4888 10.0066C63.934 10.072 63.9465 10.2179 63.9904 10.4316C64.1159 11.0164 62.9808 11.2807 62.143 11.7426C59.1605 13.389 57.273 16.3934 55.8972 19.4759C55.5835 20.1678 55.3212 20.8783 55.112 21.6026C55.112 21.6026 54.816 22.1035 54.3771 21.9806C54.0272 21.8829 53.9193 21.5348 54.0597 21.0706C55.2512 17.1321 57.6016 13.2752 60.9453 11.1773C61.6614 10.7292 62.4051 10.2926 63.2279 10.0284L63.278 10.0146C63.3463 10.0004 63.4166 9.99653 63.4863 10.0031L63.4888 10.0066Z" fill="#A5C499"/>
<path fill-rule="evenodd" clip-rule="evenodd" d="M51.4072 28.0084C51.7048 28.0277 51.7239 28.0854 51.8167 28.1527C52.0761 28.3607 52.0052 28.713 51.9342 28.9944C51.3526 31.3127 50.6728 33.6238 49.2406 35.6307C48.9935 35.977 48.8556 35.9914 48.6454 35.9998C48.2044 36.0106 47.8453 35.5393 48.0679 35.1749C48.3532 34.7084 48.7136 34.2419 48.9799 33.732C49.8577 32.0666 50.3273 30.2449 50.7696 28.4413C50.7696 28.4413 50.9799 27.9988 51.4141 28L51.4072 28.0084Z" fill="#A5C499"/>
<path fill-rule="evenodd" clip-rule="evenodd" d="M84.6215 46.0121C84.9252 46.0632 85.0901 46.3121 85.2069 46.519C87.4135 50.4026 88.4518 54.7233 88.8723 59.0591C89.1073 61.4683 88.9684 63.9007 88.849 66.3111L88.8334 66.5657C88.7283 66.9785 88.0845 67.1657 87.7691 66.818C87.5653 66.5925 87.6458 66.2111 87.6627 65.8878C87.7548 64.0949 87.8651 62.2973 87.7717 60.5067C87.5303 55.843 86.4893 51.0804 84.0076 46.7865C84.0076 46.7865 83.8856 45.9586 84.6202 46.0016L84.6215 46.0121Z" fill="#F9741F"/>
<path fill-rule="evenodd" clip-rule="evenodd" d="M10.6087 57.0166C11.0674 57.0846 11.2738 57.4323 11.1729 57.8951C10.2234 62.2693 10.3105 66.761 10.9466 71.1995C11.1008 72.3716 11.3562 73.5334 11.7111 74.6766C11.7549 74.8166 11.8223 74.9511 11.9114 75.0763C12.2493 75.5291 11.5658 76.3904 10.7952 75.8001C10.2555 75.3881 10.2325 74.6692 10.0674 73.9812C8.76627 68.5725 8.63636 62.9103 9.7785 57.6934C9.95433 56.8904 10.2264 56.9943 10.6148 57.0166H10.6087ZM11.468 74.8362C11.3426 74.8164 11.4343 74.8362 11.468 74.8362V74.8362Z" fill="#F9741F"/>
<path fill-rule="evenodd" clip-rule="evenodd" d="M64.5639 41.001C64.8054 41.044 64.7495 41.0612 64.8099 41.1055C64.8099 41.1055 65.199 41.6138 65.4808 42.0715C66.5298 43.7943 67.3595 45.6549 68.1311 47.5683C68.8714 49.4055 69.5379 51.287 69.9953 53.2288C69.9953 53.2288 70.0612 53.7998 69.7012 53.9671C69.632 53.9934 69.5589 54.0041 69.4859 53.9986C69.413 53.9932 69.3418 53.9717 69.2765 53.9354C69.2113 53.8992 69.1532 53.8489 69.1059 53.7876C69.0586 53.7262 69.023 53.655 69.0011 53.5783C68.0528 49.4978 66.475 45.533 64.3101 42.2204C64.0115 41.7651 64.0797 41.8968 64.0663 41.8734C64.0202 41.7812 63.9974 41.677 64.0002 41.5718C64.0031 41.4666 64.0315 41.3641 64.0825 41.2751C64.1335 41.186 64.2053 41.1136 64.2903 41.0654C64.3754 41.0172 64.4706 40.995 64.5661 41.001H64.5639ZM64.2351 42.0604L64.2687 42.0789C64.2687 42.0789 64.1211 41.9694 64.2351 42.0604Z" fill="#F9741F"/>
<path d="M89.9629 36.6691C89.5475 35.4237 86.6835 36.0857 87.0288 37.2769C87.4192 38.6317 90.362 37.8828 89.9629 36.6691Z" fill="#FDAD80"/>
<path d="M91.1273 37.0158C89.291 36.7727 89.9424 39.4216 91.3424 38.9417C92.3005 38.6158 92.1971 37.2121 91.1273 37.0158Z" fill="#FDAD80"/>
<path d="M82.9241 53.0108C83.067 51.849 81.3467 51.5711 81.0386 52.8024C80.6381 54.4035 83.4959 54.324 82.9241 53.0108Z" fill="#FDAD80"/>
<path d="M75.1032 55.9809C76.1061 55.4257 76.7773 53.5442 74.2386 54.1023C72.2052 54.5493 72.8026 56.1947 75.1032 55.9809Z" fill="#FDAD80"/>
<path d="M73.0643 47.9334C73.8144 50.0102 76.1836 48.7215 75.9886 46.8969C75.6521 43.735 72.5154 44.8332 73.0643 47.9334Z" fill="#FDAD80"/>
<path d="M10.4191 49.169C9.06391 49.7542 11.3333 51.5374 12.4413 50.8412C14.0164 49.8543 11.9135 48.5263 10.4191 49.169Z" fill="#FDAD80"/>
<path d="M26.9662 33.0084C24.2234 33.8233 28.007 35.3591 29.819 34.9238C31.4969 34.5242 31.3321 33.7467 29.6721 33.1973C30.1407 33.3523 28.6506 33.0554 28.897 33.0719C28.2228 33.031 27.6801 32.9796 26.9662 33.0084Z" fill="#FDAD80"/>
<path d="M12.3056 45.9321C13.997 46.663 15.1682 41.2366 12.0664 42.0917C10.422 42.5525 10.8194 45.8015 12.3056 45.9321Z" fill="#FDAD80"/>
<path d="M16.7407 40.8787C17.4488 40.0735 16.6119 38.3794 15.3744 39.2354C14.3372 39.9405 15.6725 41.4344 16.7407 40.8787Z" fill="#FDAD80"/>
<path d="M25 28.527C25.1156 29.0235 26.5979 29.2016 26.9146 28.7043C27.4731 27.8265 25.1137 27.7713 25 28.527Z" fill="#FDAD80"/>
<path d="M15 32.0124C15.5494 33.6671 17.5996 33.0261 16.8288 31.6755C16.1481 30.4809 15.1214 31.047 15 32.0124Z" fill="#FDAD80"/>
<path d="M18.9078 76.0011C18.2496 76.2964 17.5618 77.1552 18.3582 77.7424C19.8878 78.8683 20.864 75.9346 18.9078 76.0011Z" fill="#FDAD80"/>
<path d="M31.0133 83.2243C31.242 84.9079 35.5037 83.5423 34.9505 82.0506C34.1642 79.9374 30.7611 81.3666 31.0133 83.2243Z" fill="#FDAD80"/>
<path d="M26 47.4953C26.0733 50.8247 30.8442 47.8938 30.9909 45.7598C31.1319 43.785 29.6173 43.4679 27.7473 44.8305C28.2733 44.446 26.959 45.7935 27.1184 45.5507C26.6953 46.2175 26.3159 46.7449 26 47.4953Z" fill="#FDAD80"/>
<path d="M36 85.2257C36.8676 87.2968 38.9876 84.6219 37.4639 84.0424C36.827 83.7994 36.1816 84.6552 36 85.2257Z" fill="#FDAD80"/>
<path d="M34.6969 71.2297C36.3861 69.673 30.4861 65.7903 30.0111 69.673C29.7602 71.7408 33.8226 72.837 34.6969 71.2297Z" fill="#FDAD80"/>
<path d="M30.9945 63.6645C30.5231 62.6467 28.7201 62.7527 29.0371 64.298C29.2988 65.5942 31.1123 64.9262 30.9945 63.6645Z" fill="#FDAD80"/>
<path d="M20.4506 47.9865C21.3368 48.1832 22.4547 46.1806 21.807 45.3594C20.6673 43.9097 19.2647 47.2666 20.4506 47.9865Z" fill="#FDAD80"/>
<path d="M19.6314 60.991C21.3141 61.1626 21.4641 58.827 19.9762 59.0103C18.6606 59.1717 18.8081 60.4471 19.6314 60.991Z" fill="#FDAD80"/>
<path d="M90.3496 44.0389C89.7806 44.3453 89.9399 46.1087 90.5833 45.9947C91.2972 45.8696 91.0107 43.684 90.3496 44.0389Z" fill="#FDAD80"/>
<path d="M82 32.9842C82.206 34.0612 84.3976 34.4731 84.8714 33.2606C85.6266 31.3301 82.8441 31.9303 82 32.9842Z" fill="#FDAD80"/>
<path d="M92.3238 50.0041C91.3233 49.9353 90.4519 50.7563 91.423 50.6048C91.2544 51.6172 94.3163 50.4128 92.3238 50.0041Z" fill="#FDAD80"/>
<path d="M51.0109 88.4995C51.4521 89.697 53.9152 91.1053 53.9992 88.6373C54.0593 86.8899 50.7878 86.1141 51.0109 88.4995Z" fill="#FDAD80"/>
<path d="M46.7511 85.8933C48.3825 86.4244 50.0546 84.8757 48.1554 83.3875C46.4823 82.0768 45.082 84.3892 46.7511 85.8933Z" fill="#FDAD80"/>
<path d="M46.9838 65.7439C46.765 64.0812 43.5859 65.521 44.0453 66.9884C44.6946 69.0706 47.2256 67.579 46.9838 65.7439Z" fill="#FDAD80"/>
<path d="M58 90.4603C57.8503 87.17 54.0636 90.175 54.0018 92.287C53.946 94.2425 55.177 94.5231 56.6515 93.1322C56.2356 93.5238 57.2634 92.1628 57.1422 92.4063C57.4749 91.739 57.7636 91.2125 58 90.4603Z" fill="#FDAD80"/>
<path d="M50.2263 67.8222C48.9169 69.4331 53.7043 73.2023 53.9948 69.2629C54.1478 67.1768 50.8866 66.1773 50.2263 67.8222Z" fill="#FDAD80"/>
<path d="M53.0084 75.3677C53.4992 76.3701 55.3089 76.2092 54.9543 74.6803C54.6623 73.3906 52.8624 74.1124 53.0084 75.3677Z" fill="#FDAD80"/>
<path d="M35.8238 57.6193C36.7036 55.723 35.8796 53.4724 33.9833 52.5926C32.087 51.7128 29.8365 52.5368 28.9566 54.4331C28.0768 56.3294 28.9008 58.5799 30.7971 59.4598C32.6934 60.3396 34.944 59.5156 35.8238 57.6193Z" fill="#242424"/>
<path d="M78 63C78 61.8955 76.8807 61 75.5 61C74.1193 61 73 61.8955 73 63C73 64.1046 74.1193 65 75.5 65C76.8807 65 78 64.1046 78 63Z" fill="#DA6057"/>
<path d="M33.7765 63.6219C33.7794 62.3137 32.6526 61.2507 31.2596 61.2476C29.8666 61.2444 28.7349 62.3023 28.732 63.6104C28.729 64.9185 29.8558 65.9816 31.2488 65.9847C32.6418 65.9879 33.7735 64.93 33.7765 63.6219Z" fill="#DA6057"/>
<path d="M78.7902 58.8372C80.2684 57.359 80.2684 54.9623 78.7902 53.4841C77.312 52.0059 74.9153 52.0059 73.4371 53.4841C71.9589 54.9623 71.9589 57.359 73.4371 58.8372C74.9153 60.3154 77.312 60.3154 78.7902 58.8372Z" fill="#242424"/>
<path d="M61.9996 58.8007C61.9274 60.6416 61.5145 62.5514 60.3467 64.0931C59.4363 65.2903 58.1156 66.1802 56.5902 66.6242C55.0222 67.0844 53.1831 67.1603 51.6265 66.6357C49.9965 66.0869 48.7388 64.9376 47.9877 63.5293C47.1674 61.9529 46.8484 60.1995 47.0669 58.4671C47.0986 58.2163 47.2809 58 47.5811 58C47.8344 58 48.127 58.2151 48.0953 58.4671C47.7698 61.0983 48.6881 64.2657 51.4175 65.5416C52.1415 65.8653 52.9349 66.0408 53.7417 66.0559C54.1223 66.0641 54.5032 66.0487 54.8816 66.0098C55.1971 65.9746 55.5101 65.9224 55.8188 65.8534C56.4687 65.7168 57.0892 65.4836 57.6553 65.1631C58.2427 64.8389 58.7631 64.4238 59.1929 63.9366C59.7288 63.3161 60.1411 62.6152 60.4114 61.8657C60.7569 60.8737 60.945 59.8421 60.9699 58.8019C60.994 58.2025 62.0224 58.199 61.9996 58.8019V58.8007Z" fill="#242424"/>
<path fill-rule="evenodd" clip-rule="evenodd" d="M76 55C76 55.1978 75.9413 55.3911 75.8314 55.5556C75.7215 55.72 75.5654 55.8482 75.3827 55.9239C75.2 55.9996 74.9989 56.0194 74.8049 55.9808C74.6109 55.9422 74.4327 55.847 74.2929 55.7071C74.153 55.5673 74.0578 55.3891 74.0192 55.1951C73.9806 55.0011 74.0005 54.8 74.0761 54.6173C74.1518 54.4346 74.28 54.2784 74.4444 54.1685C74.6089 54.0587 74.8022 54 75 54C75.2652 54 75.5196 54.1054 75.7071 54.2929C75.8946 54.4804 76 54.7348 76 55Z" fill="white"/>
<path fill-rule="evenodd" clip-rule="evenodd" d="M32 55C32 55.1978 31.9414 55.3911 31.8315 55.5556C31.7216 55.72 31.5654 55.8482 31.3827 55.9239C31.2 55.9996 30.9989 56.0194 30.8049 55.9808C30.6109 55.9422 30.4328 55.847 30.2929 55.7071C30.1531 55.5673 30.0578 55.3891 30.0192 55.1951C29.9806 55.0011 30.0004 54.8 30.0761 54.6173C30.1518 54.4346 30.28 54.2784 30.4445 54.1685C30.6089 54.0587 30.8022 54 31 54C31.2652 54 31.5196 54.1054 31.7071 54.2929C31.8946 54.4804 32 54.7348 32 55Z" fill="white"/>
<path d="M87.7769 19.5517C85.7483 18.3994 84.3654 16.8794 83.2482 14.6844C82.3234 12.8764 81.8117 11.6505 81.2049 8.36112C81.1922 8.28752 81.1606 8.21842 81.1131 8.16046C81.0655 8.1025 81.0036 8.05766 80.9334 8.03027C80.8632 8.00288 80.7871 7.99386 80.7124 8.0041C80.6376 8.01434 80.5668 8.04348 80.5068 8.0887C80.3994 8.18427 80.3313 8.31555 80.3155 8.45755C80.1936 9.13135 79.593 13.2055 77.3438 15.8271C76.3094 17.0325 74.7572 18.1764 73.2427 18.9394C73.1558 18.9829 73.086 19.0537 73.0441 19.1407C72.9988 19.2319 72.988 19.3363 73.0137 19.4348C73.0495 19.5465 73.1142 19.647 73.2013 19.7265C73.7057 20.2375 76.6895 22.7483 78.1333 25.8461C79.2969 28.3388 79.7648 30.2951 79.9329 30.6759C79.9622 30.7566 80.0118 30.8285 80.077 30.8848C80.1423 30.9411 80.221 30.98 80.3057 30.9978C80.4201 31.0086 80.5348 30.9799 80.6302 30.9166C80.7257 30.8533 80.7962 30.7594 80.8296 30.6506C80.9868 30.2324 81.5607 28.029 82.2527 26.6862C83.8549 23.5523 84.8491 22.9749 87.8573 20.2484C87.9082 20.202 87.9474 20.1445 87.9717 20.0804C87.9961 20.0164 88.0049 19.9476 87.9974 19.8795C87.9896 19.8115 87.9655 19.7463 87.9272 19.6893C87.8888 19.6323 87.8373 19.5851 87.7769 19.5517Z" fill="#FFD79B"/>
<path d="M16.7022 52.2417C15.6722 51.7724 14.6193 51.1021 13.9371 50.4212C12.4791 48.9701 12.1667 46.8348 12.1052 46.4814C12.0948 46.4012 12.0679 46.3242 12.0265 46.2555C11.985 46.1868 11.9298 46.128 11.8647 46.0829C11.8026 46.041 11.7321 46.0141 11.6585 46.0042C11.5849 45.9944 11.5101 46.0018 11.4397 46.026C11.3592 46.0489 11.2859 46.0933 11.2274 46.1548C11.1689 46.2163 11.1272 46.2927 11.1065 46.3762C10.6118 48.0657 10.2327 48.6811 9.55577 49.5866C8.73511 50.6811 7.75303 51.4125 6.33874 51.9227C6.25225 51.9543 6.17565 52.0094 6.11707 52.0822C6.0585 52.155 6.02013 52.2429 6.00603 52.3364C5.99194 52.4298 6.00265 52.5255 6.03702 52.6133C6.07139 52.701 6.12815 52.7775 6.20127 52.8346C8.22064 54.4092 8.90174 54.7519 9.9359 56.4801C10.3796 57.2223 10.7232 58.4134 10.8222 58.6443C10.8559 58.7412 10.9158 58.826 10.9949 58.8887C11.0739 58.9514 11.1688 58.9894 11.2682 58.9981C11.3676 59.0068 11.4673 58.9859 11.5555 58.9378C11.6437 58.8898 11.7167 58.8166 11.7657 58.727C11.8938 58.5294 12.2719 57.4983 13.155 56.2105C14.2308 54.6391 16.3616 53.4533 16.723 53.203C16.8308 53.1388 16.9145 53.0391 16.9606 52.9198C17.0067 52.8006 17.0125 52.6688 16.9771 52.5457C16.9552 52.4776 16.9193 52.4152 16.8718 52.3627C16.8244 52.3103 16.7665 52.269 16.7022 52.2417Z" fill="#FFD79B"/>
<path d="M28.5939 80.0822C27.1881 79.3239 25.7539 78.2412 24.8238 77.1411C22.8357 74.7986 22.4097 71.3474 22.3245 70.7765C22.3113 70.6468 22.275 70.5222 22.2184 70.4113C22.1617 70.3005 22.086 70.206 21.9965 70.1345C21.9123 70.0664 21.8164 70.0227 21.7162 70.0068C21.6161 69.9908 21.5143 70.0031 21.4186 70.0425C21.3086 70.0789 21.2084 70.1503 21.1284 70.2494C21.0483 70.3484 20.9911 70.4716 20.9627 70.6065C20.2882 73.3359 19.7713 74.3301 18.8483 75.7929C17.7293 77.561 16.3917 78.7426 14.4619 79.5668C14.3439 79.6178 14.2395 79.7068 14.1596 79.8245C14.0798 79.9421 14.0274 80.084 14.0082 80.235C13.989 80.3861 14.0036 80.5406 14.0505 80.6823C14.0973 80.8241 14.1747 80.9476 14.2744 81.04C17.0293 83.5837 17.9565 84.1372 19.368 86.9308C19.973 88.1281 20.4416 90.0541 20.5765 90.4254C20.6224 90.5818 20.7041 90.7189 20.812 90.8202C20.9198 90.9215 21.0491 90.9828 21.1847 90.9969C21.3202 91.011 21.4561 90.9772 21.5764 90.8996C21.6967 90.8219 21.7961 90.7037 21.863 90.559C22.0377 90.2398 22.5532 88.574 23.7573 86.4936C25.2242 83.955 28.1282 82.0394 28.6223 81.6351C28.7693 81.5314 28.8834 81.3702 28.9463 81.1776C29.0091 80.9849 29.0171 80.772 28.9688 80.5732C28.9383 80.4636 28.8891 80.3632 28.8244 80.2786C28.7598 80.1939 28.6813 80.127 28.5939 80.0822Z" fill="#FFD79B"/>
</svg>
