<svg width="100" height="100" viewBox="0 0 100 100" fill="none" xmlns="http://www.w3.org/2000/svg">
<path fill-rule="evenodd" clip-rule="evenodd" d="M85.1077 63.2344C85.1077 63.2344 87.0507 78.6073 76.3712 87.5163C65.6918 96.4254 53.3975 91.0094 48.2342 90.6858C43.0709 90.3622 36.9261 93.7212 30.3791 91.1388C23.8322 88.5564 14.0109 81.5965 14.7213 65.5811C15.4316 49.5658 23.8121 41.5442 26.7181 38.7708C29.6241 35.9973 30.8352 32.6075 35.5008 22.1422C39.698 12.7262 46.3667 14.2501 49.6549 14.2501C50.5794 14.2501 52.2589 14.3918 53.4746 14.4534C57.4114 14.6568 66.5716 12.7478 68.5747 28.7831C69.0708 32.7538 69.3096 35.2469 77.0276 43.5334C84.7456 51.82 85.1154 63.2406 85.1154 63.2406L85.1077 63.2344Z" fill="#A7C69B"/>
<path fill-rule="evenodd" clip-rule="evenodd" d="M53.319 8.20995C53.5162 8.02043 53.4345 7.84786 53.0616 7.54432C52.6888 7.24077 51.9599 7.03584 51.5932 7.00811C51.0324 6.96343 50.5901 7.10364 50.7073 7.42259C50.8244 7.74154 51.2881 8.20071 51.9815 8.3363C52.6749 8.47189 53.1587 8.36558 53.319 8.20995Z" fill="#B29686"/>
<path fill-rule="evenodd" clip-rule="evenodd" d="M52.98 16.2484C52.98 16.2484 52.7889 11.9772 53.4098 8.10975C53.4098 8.10975 51.5855 8.68294 50.698 7.26538C50.698 7.26538 49.9168 13.5134 50.1186 16.3778C50.1186 16.3778 51.3898 17.404 52.98 16.2484Z" fill="#926E57"/>
<path d="M64.7688 82.8599C64.1201 82.4408 63.7673 81.8245 64.3173 81.2605C65.7426 79.7952 66.8535 83.4331 64.7688 82.8599Z" fill="#D6EFCA"/>
<path d="M53.1032 76.8507C52.7242 77.2467 51.5008 77.6519 51.3328 76.7505C51.1264 75.6396 53.228 75.3098 53.1032 76.8507Z" fill="#D6EFCA"/>
<path d="M60.0986 41.2961C60.6148 42.9093 58.5963 42.5595 58.2588 42.4363C56.5624 41.2236 59.1479 39.991 60.0986 41.2961Z" fill="#D6EFCA"/>
<path d="M39.1603 23.0234C37.1418 22.0403 39.6302 20.803 40.4515 20.7568C41.4823 20.6983 42.7812 20.971 42.1649 22.3223C41.6811 23.3839 39.9399 23.1127 39.1603 23.0234Z" fill="#D6EFCA"/>
<path d="M37.4839 40.0711C38.4007 40.4563 36.8475 42.8816 35.5794 42.2945C34.7489 41.9093 34.8491 40.1281 35.4731 39.6875C35.7967 39.4594 37.0802 39.8508 37.4839 40.0711Z" fill="#D6EFCA"/>
<path d="M41.2882 82.7798C40.0032 84.0772 37.9754 83.6319 39.0247 81.5656C39.8707 79.9139 42.4654 80.937 41.2882 82.7798Z" fill="#D6EFCA"/>
<path d="M67.3667 59.5009C66.4175 58.9246 66.8597 57.7551 67.8197 58.091C69.0369 58.5148 68.4452 60.1742 67.3667 59.5009Z" fill="#D6EFCA"/>
<path d="M47.7828 53.8923C47.1079 52.0341 48.4931 51.4517 49.3359 51.7598C51.4823 53.0896 49.3236 55.6412 47.7828 53.8923Z" fill="#D6EFCA"/>
<path d="M49.0293 49.538C49.0617 48.4501 50.9445 47.3592 51.4253 48.7321C51.8891 50.0403 49.5455 50.8523 49.0293 49.538Z" fill="#D6EFCA"/>
<path d="M64.2033 69.1466C62.8336 68.7583 63.399 66.9602 64.4083 66.8184C66.5654 66.5103 65.2681 68.8385 64.2033 69.1466Z" fill="#D6EFCA"/>
<path d="M36.7104 61.3038C36.1179 61.0776 35.4944 60.9431 34.8614 60.9047C34.13 60.8353 33.3921 60.8847 32.6765 61.0511C31.2728 61.4255 30.336 62.4271 29.7983 63.2083C29.3792 63.8092 28.6827 64.9925 28.7197 66.1528C28.7217 66.348 28.7977 66.5352 28.9325 66.6765C29.0672 66.8178 29.2505 66.9026 29.4454 66.914C29.5514 66.9171 29.6568 66.8983 29.7552 66.8588C29.8535 66.8193 29.9427 66.7599 30.0171 66.6844C30.0864 66.6175 30.1411 66.5369 30.1777 66.4478C30.2143 66.3587 30.232 66.263 30.2297 66.1667C30.2297 66.1127 30.2297 66.0603 30.2297 66.0126C30.2297 65.9648 30.2297 65.9509 30.2389 65.9201V65.877C30.2389 65.8662 30.2389 65.8569 30.2389 65.8462C30.2389 65.8354 30.2389 65.8261 30.2466 65.8153L30.2759 65.6859C30.2975 65.5976 30.3221 65.5097 30.3499 65.4224C30.4655 65.0514 30.6281 64.6968 30.8337 64.367C31.2204 63.7537 31.8583 62.9556 32.7828 62.5981C33.2898 62.404 33.8953 62.3885 34.3668 62.3963C34.8889 62.3955 35.4082 62.4723 35.9076 62.6243C36.6213 62.8346 37.2447 63.2764 37.6796 63.8801L37.7119 63.9278L37.7874 64.0465C37.8367 64.1235 37.8814 64.2006 37.9246 64.2838C38.0109 64.4456 38.0787 64.6166 38.1464 64.763V64.7784C38.1458 64.7819 38.1458 64.7856 38.1464 64.7892L38.188 64.9078C38.2127 64.9818 38.2343 65.0619 38.2558 65.1297C38.2959 65.2684 38.3283 65.4086 38.3575 65.5503C38.3784 65.674 38.4325 65.7898 38.5138 65.8853C38.5952 65.9808 38.701 66.0524 38.8198 66.0927C38.9633 66.1396 39.1173 66.1444 39.2635 66.1066C39.3878 66.0754 39.5029 66.0152 39.5994 65.9309C39.6981 65.8448 39.7716 65.7336 39.8123 65.6091C39.853 65.4846 39.8593 65.3514 39.8306 65.2237C39.4762 63.3747 38.3298 61.9448 36.7104 61.3038Z" fill="#242424"/>
<path d="M67.664 62.5456C67.0571 62.3176 66.4202 62.179 65.7734 62.1342C65.0203 62.055 64.2596 62.0919 63.5177 62.2436C62.3559 62.5071 61.2711 63.2575 60.4468 64.3653C60.0845 64.8548 59.7916 65.392 59.5762 65.9616C59.3889 66.4037 59.293 66.8791 59.2943 67.3592C59.2963 67.5541 59.3721 67.7411 59.5065 67.8823C59.6409 68.0236 59.8238 68.1086 60.0185 68.1203C60.1249 68.1226 60.2307 68.1033 60.3294 68.0635C60.4282 68.0238 60.5179 67.9645 60.5932 67.8892C60.6626 67.8225 60.7173 67.7419 60.7536 67.6527C60.79 67.5636 60.8072 67.4677 60.8043 67.3715C60.8013 67.3202 60.8013 67.2687 60.8043 67.2174C60.8043 67.1835 60.8043 67.1512 60.8135 67.1173L60.8274 67.0371C60.8583 66.8949 60.8969 66.7545 60.9429 66.6165C61.0678 66.2388 61.243 65.8796 61.4637 65.5487C62.0123 64.692 62.7365 64.0757 63.5038 63.8153C64.0771 63.648 64.6752 63.5823 65.2711 63.6211C65.8041 63.6283 66.3335 63.7091 66.8443 63.8615C67.2516 63.9787 67.635 64.167 67.9768 64.4177C68.1117 64.5062 68.2363 64.6096 68.3482 64.7259C68.481 64.8579 68.6046 64.999 68.718 65.1481L68.7472 65.1851L68.8181 65.2914C68.869 65.37 68.9183 65.4455 68.9645 65.5348C69.0492 65.6869 69.1248 65.8438 69.191 66.0048L69.2434 66.1388C69.2696 66.2143 69.2942 66.2929 69.3173 66.3684C69.3589 66.5055 69.3928 66.6427 69.4236 66.7829C69.4463 66.9076 69.5025 67.0237 69.5861 67.119C69.6697 67.2143 69.7776 67.285 69.8982 67.3237C70.0406 67.3686 70.1927 67.3729 70.3374 67.336C70.4638 67.3036 70.5806 67.2413 70.6779 67.1542C70.7746 67.0676 70.846 66.9564 70.8846 66.8324C70.9231 66.7084 70.9273 66.5763 70.8967 66.4501C70.5084 64.618 69.3281 63.1943 67.664 62.5456Z" fill="#242424"/>
<path d="M54.3421 67.2714C53.9753 67.179 53.4823 67.4132 53.4176 67.82C53.3652 68.1728 53.2789 68.484 53.0493 68.6674C52.7519 68.8675 52.4 68.9708 52.0416 68.9632C51.2388 68.9756 50.3806 68.5426 50.2358 67.6936C50.1202 67.0187 49.1572 67.0141 48.849 67.5287C48.4823 68.1451 47.8829 68.6628 47.1294 68.6674C46.376 68.672 45.8875 68.1913 45.7766 67.4887C45.7119 67.085 45.1957 66.8723 44.8382 66.971C44.4053 67.0973 44.2558 67.5041 44.3205 67.9093C44.5332 69.2437 45.7335 70.1219 47.0416 70.1805C47.8947 70.1986 48.7204 69.8791 49.339 69.2914C49.9923 70.0619 51.0801 70.4948 52.074 70.4779C53.4807 70.4548 54.6718 69.6243 54.886 68.1913C54.9507 67.786 54.7673 67.3793 54.3421 67.2714Z" fill="#242424"/>
<path d="M41.2858 72.6322C41.3586 70.7972 38.51 69.1944 34.9234 69.0523C31.3368 68.9101 28.3704 70.2824 28.2976 72.1173C28.2249 73.9523 31.0734 75.5551 34.66 75.6972C38.2466 75.8394 41.2131 74.4671 41.2858 72.6322Z" fill="#DD6057"/>
<path d="M71.463 73.9148C71.5358 72.0798 68.6872 70.477 65.1006 70.3349C61.5141 70.1927 58.5476 71.565 58.4748 73.3999C58.4021 75.2349 61.2506 76.8377 64.8372 76.9798C68.4238 77.122 71.3903 75.7497 71.463 73.9148Z" fill="#DD6057"/>
<path d="M85.7769 17.5517C83.7483 16.3994 82.3654 14.8794 81.2481 12.6844C80.3234 10.8764 79.8116 9.65054 79.2049 6.36112C79.1922 6.28752 79.1606 6.21842 79.113 6.16046C79.0655 6.1025 79.0036 6.05766 78.9334 6.03027C78.8632 6.00288 78.7871 5.99386 78.7123 6.0041C78.6376 6.01434 78.5668 6.04348 78.5067 6.0887C78.3994 6.18427 78.3313 6.31555 78.3155 6.45755C78.1936 7.13135 77.5929 11.2055 75.3438 13.8271C74.3094 15.0325 72.7571 16.1764 71.2427 16.9394C71.1558 16.9829 71.0859 17.0537 71.0441 17.1407C70.9987 17.2319 70.9879 17.3363 71.0136 17.4348C71.0495 17.5465 71.1142 17.647 71.2013 17.7265C71.7057 18.2375 74.6895 20.7483 76.1333 23.8461C77.2969 26.3388 77.7647 28.2951 77.9329 28.6759C77.9621 28.7566 78.0118 28.8285 78.077 28.8848C78.1423 28.9411 78.221 28.98 78.3057 28.9978C78.4201 29.0086 78.5347 28.9799 78.6302 28.9166C78.7257 28.8533 78.7961 28.7594 78.8296 28.6506C78.9868 28.2324 79.5606 26.029 80.2527 24.6862C81.8549 21.5523 82.8491 20.9749 85.8573 18.2484C85.9082 18.202 85.9474 18.1445 85.9717 18.0804C85.996 18.0164 86.0048 17.9476 85.9974 17.8795C85.9896 17.8115 85.9655 17.7463 85.9272 17.6893C85.8888 17.6323 85.8373 17.5851 85.7769 17.5517Z" fill="#FFD79B"/>
<path d="M16.7022 37.2417C15.6722 36.7724 14.6193 36.1021 13.9371 35.4212C12.4791 33.9701 12.1667 31.8348 12.1052 31.4814C12.0948 31.4012 12.0679 31.3242 12.0265 31.2555C11.985 31.1868 11.9298 31.128 11.8647 31.0829C11.8026 31.041 11.7321 31.0141 11.6585 31.0042C11.5849 30.9944 11.5101 31.0018 11.4397 31.026C11.3592 31.0489 11.2859 31.0933 11.2274 31.1548C11.1689 31.2163 11.1272 31.2927 11.1065 31.3762C10.6118 33.0657 10.2327 33.6811 9.55577 34.5866C8.73511 35.6811 7.75303 36.4125 6.33874 36.9227C6.25225 36.9543 6.17565 37.0094 6.11707 37.0822C6.0585 37.155 6.02013 37.2429 6.00603 37.3364C5.99194 37.4298 6.00265 37.5255 6.03702 37.6133C6.07139 37.701 6.12815 37.7775 6.20127 37.8346C8.22064 39.4092 8.90174 39.7519 9.9359 41.4801C10.3796 42.2223 10.7232 43.4134 10.8222 43.6443C10.8559 43.7412 10.9158 43.826 10.9949 43.8887C11.0739 43.9514 11.1688 43.9894 11.2682 43.9981C11.3676 44.0068 11.4673 43.9859 11.5555 43.9378C11.6437 43.8898 11.7167 43.8166 11.7657 43.727C11.8938 43.5294 12.2719 42.4983 13.155 41.2105C14.2308 39.6391 16.3616 38.4533 16.723 38.203C16.8308 38.1388 16.9145 38.0391 16.9606 37.9198C17.0067 37.8006 17.0125 37.6688 16.9771 37.5457C16.9552 37.4776 16.9193 37.4152 16.8718 37.3627C16.8244 37.3103 16.7665 37.269 16.7022 37.2417Z" fill="#FFD79B"/>
<path d="M28.5939 80.0822C27.1881 79.3239 25.7539 78.2412 24.8238 77.1411C22.8357 74.7986 22.4097 71.3474 22.3245 70.7765C22.3113 70.6468 22.275 70.5222 22.2184 70.4113C22.1617 70.3005 22.086 70.206 21.9965 70.1345C21.9123 70.0664 21.8164 70.0227 21.7162 70.0068C21.6161 69.9908 21.5143 70.0031 21.4186 70.0425C21.3086 70.0789 21.2084 70.1503 21.1284 70.2494C21.0483 70.3484 20.9911 70.4716 20.9627 70.6065C20.2882 73.3359 19.7713 74.3301 18.8483 75.7929C17.7293 77.561 16.3917 78.7426 14.4619 79.5668C14.3439 79.6178 14.2395 79.7068 14.1596 79.8245C14.0798 79.9421 14.0274 80.084 14.0082 80.235C13.989 80.3861 14.0036 80.5406 14.0505 80.6823C14.0973 80.8241 14.1747 80.9476 14.2744 81.04C17.0293 83.5837 17.9565 84.1372 19.368 86.9308C19.973 88.1281 20.4416 90.0541 20.5765 90.4254C20.6224 90.5818 20.7041 90.7189 20.812 90.8202C20.9198 90.9215 21.0491 90.9828 21.1847 90.9969C21.3202 91.011 21.4561 90.9772 21.5764 90.8996C21.6967 90.8219 21.7961 90.7037 21.863 90.559C22.0377 90.2398 22.5532 88.574 23.7573 86.4936C25.2242 83.955 28.1282 82.0394 28.6223 81.6351C28.7693 81.5314 28.8834 81.3702 28.9463 81.1776C29.0091 80.9849 29.0171 80.772 28.9688 80.5732C28.9383 80.4636 28.8891 80.3632 28.8244 80.2786C28.7598 80.1939 28.6813 80.127 28.5939 80.0822Z" fill="#FFD79B"/>
</svg>
