<svg width="100" height="100" viewBox="0 0 100 100" fill="none" xmlns="http://www.w3.org/2000/svg">
<path fill-rule="evenodd" clip-rule="evenodd" d="M21.4805 48.9227C19.6397 56.7398 19.2083 64.7453 22.2451 73.3802C28.5469 91.2946 49.3037 99.6854 64.2182 86.3791C81.2976 71.1375 72.6055 47.318 66.6323 27.9912C64.694 21.7173 64.0145 14.3454 59.4981 9.45381C57.3567 7.13312 54.2842 5.46134 51.139 5.7445C48.3734 5.99229 46.1827 6.22399 43.5269 6.13084C41.168 6.0506 39.0767 6.78297 37.1594 8.14971C33.7918 10.5443 32.3417 14.1147 31.392 17.9931C28.7806 28.6452 23.9065 38.6198 21.4805 48.9227Z" fill="#FDC175"/>
<path fill-rule="evenodd" clip-rule="evenodd" d="M45.3538 20.1949C45.2287 20.608 45.1303 21.046 45.0375 21.4699C43.1293 29.9947 41.6071 38.5244 39.2566 46.7959C37.2889 53.7291 37.2756 61.1085 38.9523 68.1893C40.0153 72.6777 42.2879 78.7446 45.5625 80.4515C51.1554 83.3677 54.3403 71.968 54.9068 65.9274C55.5675 58.9301 54.6649 50.6504 53.4113 43.8818C52.1838 37.2526 51.1636 30.5502 50.2012 23.7474C49.9886 22.2417 49.7301 20.6789 49.0352 19.523C48.3403 18.3671 47.0779 17.7826 46.1868 18.6337C45.7991 19.0063 45.5446 19.5714 45.3538 20.1949Z" fill="#926E57"/>
<path d="M44.3064 70.082C44.1953 70.7732 45.6786 71.5736 46.2487 71.047C47.2535 70.1108 44.7844 69.1358 44.3064 70.082Z" fill="#B29686"/>
<path d="M43.3261 37.3921C43.4942 38.3104 44.7576 38.1618 44.6838 37.156C44.5939 35.8478 42.6294 36.5062 43.3261 37.3921Z" fill="#B29686"/>
<path d="M50.6987 45.9071C50.6481 47.1216 52.0841 47.166 51.9246 46.1011C51.783 45.1587 51.0053 45.2992 50.6987 45.9071Z" fill="#B29686"/>
<path d="M45.8877 43.1715C45.5794 42.9552 44.9936 42.4695 44.5861 42.6354C44.3297 42.7388 43.8355 43.7927 43.8841 44.0772C44.1916 45.8823 47.4586 45.3757 45.8877 43.1715Z" fill="#B29686"/>
<path d="M46.424 24.2466C46.0176 24.9275 46.1689 26.7834 47.4293 25.8407C48.4396 25.0879 47.6511 23.6625 46.424 24.2466Z" fill="#B29686"/>
<path d="M50.6631 30.6974C49.628 29.5312 47.9036 30.9678 48.4242 32.1093C49.3275 34.0859 51.7311 32.5802 50.6631 30.6974Z" fill="#B29686"/>
<path d="M49.6462 63.1164C46.6401 63.0219 49.1095 66.6921 51.0272 66.8964C52.8005 67.0849 53.1415 65.9793 51.9821 64.5353C52.3087 64.9421 51.1423 63.9075 51.3555 64.0355C50.7737 63.6857 50.3133 63.3836 49.6462 63.1164Z" fill="#B29686"/>
<path d="M45.5666 75.5554C43.8354 76.231 45.9312 78.1947 46.472 76.8859C46.698 76.3356 46.0257 75.7364 45.5666 75.5554Z" fill="#B29686"/>
<path d="M46.4874 51.0968C44.7548 51.7726 46.8519 53.7361 47.3928 52.4273C47.6188 51.8784 46.9465 51.2792 46.4874 51.0968Z" fill="#B29686"/>
<path d="M41.3591 61.762C42.1825 61.3871 42.179 59.7809 40.945 59.9991C39.9099 60.1873 40.3573 61.819 41.3591 61.762Z" fill="#B29686"/>
<path d="M49.8101 74.5417C49.6165 75.9543 51.2908 76.164 51.2214 74.9031C51.1596 73.7872 50.2413 73.864 49.8101 74.5417Z" fill="#B29686"/>
<path d="M41.2168 48.0839C41.0233 49.4978 42.6976 49.7075 42.6281 48.4452C42.5663 47.3294 41.6427 47.408 41.2168 48.0839Z" fill="#B29686"/>
<path d="M35.1509 51.9941C34.5899 51.7716 33.9984 51.6353 33.3965 51.5899C32.6995 51.513 31.9946 51.55 31.3094 51.6992C29.965 52.039 29.0576 52.9828 28.5336 53.7192C28.1254 54.2886 27.4463 55.4081 27.4692 56.5152C27.4676 56.7018 27.5373 56.882 27.664 57.019C27.7907 57.1561 27.965 57.2396 28.1512 57.2526C28.2532 57.2563 28.3549 57.2391 28.45 57.202C28.5451 57.1649 28.6316 57.1086 28.7041 57.0368C28.7712 56.9738 28.8246 56.8976 28.8609 56.8129C28.8971 56.7283 28.9155 56.6371 28.9149 56.545C28.9134 56.4945 28.9148 56.4439 28.919 56.3935C28.9164 56.3651 28.9247 56.3357 28.9288 56.3053L28.9361 56.2652C28.9351 56.2544 28.9343 56.2449 28.9334 56.2355C28.9364 56.2259 28.9387 56.2161 28.9404 56.2062L28.9703 56.0837C28.9926 55.9986 29.0179 55.9159 29.0459 55.833C29.1613 55.4818 29.3213 55.1469 29.5221 54.8365C29.8792 54.2595 30.4935 53.5123 31.3906 53.184C31.8759 53.0042 32.4546 53 32.9041 53.0129C33.4032 53.0186 33.8987 53.0991 34.3739 53.2519C35.0521 53.4609 35.6414 53.8899 36.0487 54.4712L36.0787 54.5175C36.1039 54.5548 36.1264 54.5937 36.1502 54.631C36.1951 54.7061 36.2374 54.7826 36.277 54.8595C36.3576 55.0144 36.4256 55.1799 36.4817 55.3194L36.483 55.3343L36.4841 55.3464L36.5214 55.4589C36.5428 55.5306 36.5641 55.6009 36.5827 55.6714C36.6191 55.8044 36.6488 55.938 36.6731 56.0721C36.6931 56.1905 36.7442 56.3015 36.8212 56.3937C36.8982 56.4859 36.9982 56.556 37.1112 56.5969C37.2478 56.6439 37.3951 56.6501 37.5352 56.6148C37.6541 56.5863 37.7644 56.5297 37.8569 56.4497C37.952 56.3687 38.0236 56.2635 38.0641 56.1453C38.1045 56.0271 38.1124 55.9002 38.087 55.7778C37.7622 54.0084 36.6902 52.6287 35.1509 51.9941Z" fill="#242424"/>
<path d="M64.679 53.593C64.1022 53.3673 63.4957 53.2266 62.8784 53.1752C62.1607 53.0899 61.4342 53.1146 60.724 53.2483C59.6128 53.4841 58.5668 54.1883 57.768 55.2341C57.4158 55.6962 57.1289 56.2048 56.9155 56.7452C56.7305 57.165 56.632 57.6178 56.626 58.0765C56.6255 58.2626 56.6955 58.4419 56.822 58.5782C56.9486 58.7146 57.1222 58.7978 57.3077 58.8112C57.4094 58.8149 57.5107 58.7979 57.6055 58.7613C57.7004 58.7247 57.7868 58.6692 57.8596 58.5982C57.9264 58.5354 57.9795 58.4595 58.0153 58.3751C58.0512 58.2907 58.069 58.1998 58.0677 58.1081C58.0665 58.0589 58.068 58.0096 58.0722 57.9605C58.0694 57.9294 58.0788 57.8973 58.084 57.8641L58.0978 57.7893C58.1284 57.6537 58.1674 57.52 58.2145 57.3892C58.3372 57.03 58.5089 56.6895 58.7248 56.3774C59.2598 55.5664 59.9627 54.987 60.6936 54.7499C61.2546 54.5633 61.8626 54.5661 62.3836 54.5875C62.8928 54.6007 63.3975 54.6853 63.8832 54.8388C64.2702 54.9557 64.6335 55.14 64.9566 55.3831C65.0837 55.4707 65.2006 55.5721 65.3052 55.6856C65.4308 55.8131 65.5473 55.9493 65.6538 56.0931L65.6803 56.1303C65.7037 56.1636 65.7258 56.1971 65.7466 56.232C65.7956 56.308 65.8408 56.3856 65.8834 56.4663C65.9618 56.6127 66.0322 56.7634 66.0942 56.9175L66.1414 57.0496C66.1656 57.1223 66.1885 57.1952 66.2102 57.2696C66.248 57.4025 66.279 57.5359 66.306 57.6698C66.3269 57.789 66.3792 57.9004 66.4577 57.9926C66.5361 58.0847 66.6378 58.1542 66.7522 58.1939C66.879 58.2346 67.0143 58.2421 67.1448 58.2154C67.2754 58.1886 67.3968 58.1286 67.4974 58.0413C67.5909 57.96 67.6606 57.855 67.6992 57.7374C67.7378 57.6197 67.7439 57.4939 67.7169 57.3731C67.3653 55.6087 66.2584 54.2336 64.679 53.593Z" fill="#242424"/>
<path d="M49.7123 57.9831L45.1941 57.7407C45.0718 57.7307 44.9491 57.7541 44.839 57.8084C44.7289 57.8626 44.6357 57.9457 44.5691 58.0488C44.4978 58.1614 44.4567 58.2904 44.4495 58.4234C44.4423 58.5565 44.4694 58.6891 44.5281 58.8087C44.5834 58.9181 44.6672 59.0105 44.7707 59.0761C44.8742 59.1416 44.9936 59.1779 45.1161 59.1811L49.6343 59.4249C49.7056 59.4281 49.777 59.4217 49.8465 59.4059C50.0105 59.3601 50.1531 59.2581 50.2495 59.1178C50.3459 58.9776 50.39 58.8078 50.374 58.6384C50.358 58.4689 50.2829 58.3105 50.162 58.1907C50.0411 58.071 49.8819 57.9975 49.7123 57.9831Z" fill="#242424"/>
<path d="M36.2274 61.2017C36.3057 59.7437 34.9263 58.4844 33.1465 58.389C31.3667 58.2935 29.8605 59.398 29.7823 60.856C29.7041 62.3139 31.0835 63.5732 32.8633 63.6687C34.6431 63.7642 36.1492 62.6596 36.2274 61.2017Z" fill="#F9897D"/>
<path d="M65.0016 62.1128C65.0798 60.6549 63.7003 59.3956 61.9205 59.3001C60.1407 59.2046 58.6346 60.3091 58.5564 61.7671C58.4782 63.2251 59.8575 64.4844 61.6373 64.5798C63.4171 64.6753 64.9234 63.5708 65.0016 62.1128Z" fill="#F9897D"/>
<path d="M85.7769 17.5517C83.7482 16.3994 82.3654 14.8794 81.2481 12.6844C80.3233 10.8764 79.8116 9.65054 79.2048 6.36112C79.1922 6.28752 79.1605 6.21842 79.113 6.16046C79.0654 6.1025 79.0036 6.05766 78.9334 6.03027C78.8632 6.00288 78.787 5.99386 78.7123 6.0041C78.6376 6.01434 78.5667 6.04348 78.5067 6.0887C78.3994 6.18427 78.3313 6.31555 78.3154 6.45755C78.1936 7.13135 77.5929 11.2055 75.3438 13.8271C74.3093 15.0325 72.7571 16.1764 71.2427 16.9394C71.1558 16.9829 71.0859 17.0537 71.0441 17.1407C70.9987 17.2319 70.9879 17.3363 71.0136 17.4348C71.0495 17.5465 71.1141 17.647 71.2012 17.7265C71.7056 18.2375 74.6895 20.7483 76.1333 23.8461C77.2968 26.3388 77.7647 28.2951 77.9328 28.6759C77.9621 28.7566 78.0117 28.8285 78.077 28.8848C78.1422 28.9411 78.221 28.98 78.3057 28.9978C78.4201 29.0086 78.5347 28.9799 78.6302 28.9166C78.7257 28.8533 78.7961 28.7594 78.8296 28.6506C78.9868 28.2324 79.5606 26.029 80.2527 24.6862C81.8548 21.5523 82.8491 20.9749 85.8573 18.2484C85.9081 18.202 85.9473 18.1445 85.9717 18.0804C85.996 18.0164 86.0048 17.9476 85.9974 17.8795C85.9896 17.8115 85.9655 17.7463 85.9271 17.6893C85.8888 17.6323 85.8373 17.5851 85.7769 17.5517Z" fill="#FFD79B"/>
<path d="M12.7022 45.2417C11.6722 44.7724 10.6193 44.1021 9.93714 43.4212C8.47911 41.9701 8.16668 39.8348 8.10523 39.4814C8.09478 39.4012 8.06793 39.3242 8.02645 39.2555C7.98498 39.1868 7.92983 39.128 7.86466 39.0829C7.80259 39.041 7.73212 39.0141 7.65854 39.0042C7.58495 38.9944 7.51015 39.0018 7.43975 39.026C7.3592 39.0489 7.28595 39.0933 7.22742 39.1548C7.1689 39.2163 7.12717 39.2927 7.10649 39.3762C6.6118 41.0657 6.23271 41.6811 5.55577 42.5866C4.73511 43.6811 3.75303 44.4125 2.33874 44.9227C2.25225 44.9543 2.17565 45.0094 2.11707 45.0822C2.0585 45.155 2.02013 45.2429 2.00603 45.3364C1.99194 45.4298 2.00265 45.5255 2.03702 45.6133C2.07139 45.701 2.12815 45.7775 2.20127 45.8346C4.22064 47.4092 4.90174 47.7519 5.9359 49.4801C6.37955 50.2223 6.72323 51.4134 6.82217 51.6443C6.85586 51.7412 6.9158 51.826 6.99487 51.8887C7.07394 51.9514 7.16881 51.9894 7.2682 51.9981C7.36759 52.0068 7.46732 51.9859 7.55552 51.9378C7.64371 51.8898 7.71667 51.8166 7.76572 51.727C7.89382 51.5294 8.27186 50.4983 9.15501 49.2105C10.2308 47.6391 12.3616 46.4533 12.723 46.203C12.8308 46.1388 12.9145 46.0391 12.9606 45.9198C13.0067 45.8006 13.0125 45.6688 12.9771 45.5457C12.9552 45.4776 12.9193 45.4152 12.8718 45.3627C12.8244 45.3103 12.7665 45.269 12.7022 45.2417Z" fill="#FFD79B"/>
<path d="M17.594 73.0822C16.1882 72.3239 14.7539 71.2412 13.8238 70.1411C11.8358 67.7986 11.4098 64.3474 11.3246 63.7765C11.3113 63.6468 11.2751 63.5222 11.2185 63.4113C11.1618 63.3005 11.0861 63.206 10.9966 63.1345C10.9123 63.0664 10.8165 63.0227 10.7163 63.0068C10.6161 62.9908 10.5143 63.0031 10.4186 63.0425C10.3086 63.0789 10.2085 63.1503 10.1284 63.2494C10.0484 63.3484 9.99121 63.4716 9.96279 63.6065C9.28828 66.3359 8.77139 67.3301 7.84838 68.7929C6.7294 70.561 5.39174 71.7426 3.46193 72.5668C3.344 72.6178 3.23956 72.7068 3.15969 72.8245C3.07983 72.9421 3.02751 73.084 3.00829 73.235C2.98907 73.3861 3.00367 73.5406 3.05054 73.6823C3.0974 73.8241 3.17479 73.9476 3.27449 74.04C6.02933 76.5837 6.95661 77.1372 8.36811 79.9308C8.97304 81.1281 9.44164 83.0541 9.57654 83.4254C9.62248 83.5818 9.70421 83.7189 9.81202 83.8202C9.91984 83.9215 10.0492 83.9828 10.1847 83.9969C10.3202 84.011 10.4562 83.9772 10.5765 83.8996C10.6967 83.8219 10.7962 83.7037 10.8631 83.559C11.0377 83.2398 11.5532 81.574 12.7574 79.4936C14.2243 76.955 17.1282 75.0394 17.6224 74.6351C17.7694 74.5314 17.8835 74.3702 17.9463 74.1776C18.0092 73.9849 18.0171 73.772 17.9689 73.5732C17.9383 73.4636 17.8891 73.3632 17.8245 73.2786C17.7599 73.1939 17.6813 73.127 17.594 73.0822Z" fill="#FFD79B"/>
</svg>
