<svg width="100" height="100" viewBox="0 0 100 100" fill="none" xmlns="http://www.w3.org/2000/svg">
<path fill-rule="evenodd" clip-rule="evenodd" d="M52.4033 52.4574C54.1985 51.9321 67.0894 47.6261 67.2934 47.5428C69.5492 46.6215 71.6351 45.423 73.7532 44.182C77.3894 42.0536 80.9067 37.2002 81.296 32.9384C81.6139 29.4858 81.7822 27.3285 81.0835 25.7629C77.1447 16.923 67.5347 16.5372 59.0842 17.6829C48.2843 19.1483 40.5716 20.6188 30.4534 24.7497C24.6837 27.1058 18.9259 30.4752 16.4491 36.3707C15.8847 37.7153 14.6947 40.0358 16.3675 45.3244C17.8498 50.0129 22.1474 53.4842 26.9328 54.732C34.1304 56.6138 45.2737 54.5416 52.4016 52.4574H52.4033Z" fill="#A7C69B"/>
<path fill-rule="evenodd" clip-rule="evenodd" d="M51.7658 41.9635C51.5797 42.084 51.4442 42.2685 51.385 42.4822C51.3258 42.6959 51.347 42.9238 51.4446 43.1229C51.4446 43.1229 51.5584 44.4132 51.4446 45.0541C51.4446 45.0541 51.4225 45.6338 51.7845 45.9041C52.3064 46.2883 53.1292 45.9687 53.2057 45.1C53.306 43.944 53.4471 42.5925 52.796 42.04C52.6573 41.9138 52.4807 41.837 52.2937 41.8216C52.1068 41.8063 51.9199 41.8532 51.7624 41.955L51.7658 41.9635ZM51.4514 45.0082C51.4514 44.9946 51.4514 45.0082 51.4514 45.0082V45.0082Z" fill="#242424"/>
<path fill-rule="evenodd" clip-rule="evenodd" d="M46.7 43.3881C46.5305 43.4974 46.4021 43.6598 46.335 43.85C46.2679 44.0402 46.2659 44.2473 46.3294 44.4387C46.2275 44.7361 46.1007 45.0245 45.9503 45.3006C45.9089 45.3475 45.8756 45.4009 45.8517 45.4587C45.4692 46.2594 46.8071 47.5479 47.635 45.8786C48.0718 44.998 48.4033 43.8386 47.6196 43.3881C47.4799 43.3071 47.3213 43.2644 47.1598 43.2644C46.9983 43.2644 46.8397 43.3071 46.7 43.3881ZM45.9622 45.2853C45.9724 45.2717 45.9622 45.2853 45.9622 45.2853V45.2853Z" fill="#242424"/>
<path fill-rule="evenodd" clip-rule="evenodd" d="M42.2444 42.9257C42.1204 43.0203 42.0135 43.1352 41.9282 43.2657C41.4838 43.6112 41.0151 43.9243 40.5257 44.2024C40.5257 44.2024 40.0276 44.6512 40.1398 45.1425C40.1791 45.279 40.2497 45.4044 40.3458 45.509C40.4419 45.6136 40.5611 45.6944 40.6938 45.745C40.8265 45.7956 40.9692 45.8147 41.1105 45.8007C41.2519 45.7867 41.3881 45.74 41.5083 45.6644C42.0424 45.3563 42.5537 45.0103 43.0383 44.6291C43.2873 44.4592 43.4713 44.2099 43.5601 43.9219C43.7301 43.2963 43.0263 42.4684 42.2461 42.9308L42.2444 42.9257Z" fill="#242424"/>
<path fill-rule="evenodd" clip-rule="evenodd" d="M36.8044 41.1017C36.1652 41.5147 36.4339 42.7455 37.306 42.7234C37.923 42.6928 38.5758 42.5976 39.0178 42.1675C39.0674 42.1522 39.1149 42.1305 39.1589 42.1029C39.2773 42.027 39.3769 41.925 39.4501 41.8049C39.5233 41.6847 39.5681 41.5494 39.5812 41.4094C39.5943 41.2693 39.5754 41.128 39.5257 40.9964C39.4761 40.8647 39.3972 40.7461 39.2949 40.6495C38.9141 40.3095 38.2749 40.4132 37.8074 40.8926C37.4912 41.0184 37.158 40.8926 36.8044 41.1017Z" fill="#242424"/>
<path fill-rule="evenodd" clip-rule="evenodd" d="M35.3476 37.5827C34.7016 37.9975 34.8546 39.1416 35.9902 39.2334C37.2821 39.3371 38.7594 39.2861 38.7883 38.3341C38.8053 37.8105 38.3174 37.4025 37.7088 37.4365L37.0186 37.479H36.835C36.3811 37.4943 35.9714 37.2631 35.4138 37.5368L35.3476 37.5742V37.5827Z" fill="#242424"/>
<path fill-rule="evenodd" clip-rule="evenodd" d="M35.9749 32.3128C35.3867 32.6868 35.4649 33.6371 36.2894 33.9448L36.5818 34.0553C37.2312 34.3103 37.7854 34.7982 38.2818 34.7013C39.0246 34.5585 39.3017 33.4807 38.2818 32.901C37.4692 32.4454 36.5359 31.9745 35.9715 32.3128H35.9749Z" fill="#242424"/>
<path fill-rule="evenodd" clip-rule="evenodd" d="M43.2082 26.572C42.7407 26.8763 42.6982 27.5716 43.1198 28C43.5516 28.4624 43.4343 29.4229 44.252 29.6881C44.8623 29.8853 45.5949 29.2342 45.3467 28.5423C45.0663 27.8249 44.8011 27.0378 44.1857 26.6009C44.0456 26.4961 43.8765 26.437 43.7015 26.4318C43.5266 26.4267 43.3543 26.4756 43.2082 26.572Z" fill="#242424"/>
<path fill-rule="evenodd" clip-rule="evenodd" d="M46.649 24.901C45.9962 25.3107 46.479 26.2423 46.8071 27.2146C46.8558 27.4473 46.9787 27.6579 47.1573 27.8147C47.7862 28.2856 48.8572 27.6702 48.4254 26.5176C47.9562 25.2461 47.5584 24.4505 46.7101 24.867L46.649 24.901ZM46.8088 27.1959C46.8088 27.1755 46.8088 27.1959 46.8088 27.1959V27.1959Z" fill="#242424"/>
<path fill-rule="evenodd" clip-rule="evenodd" d="M38.7101 28.8942C38.2681 29.5249 39.079 30.1947 39.7539 30.9631C39.8889 31.1591 40.084 31.3059 40.3098 31.3813C41.0714 31.5717 41.8159 30.5891 40.9744 29.6932C40.0463 28.7038 39.3714 28.1258 38.7526 28.8432C38.7375 28.8606 38.7233 28.8787 38.7101 28.8976V28.8942Z" fill="#242424"/>
<path fill-rule="evenodd" clip-rule="evenodd" d="M52.0464 25.0421C51.8833 25.145 51.7575 25.2973 51.6871 25.4769C51.6168 25.6564 51.6057 25.8537 51.6554 26.04C51.6265 26.5873 51.1352 27.2163 51.6282 27.6855C52.1484 28.1785 52.9712 27.8045 53.2891 26.7777C53.4676 26.2015 53.5661 25.4382 52.978 25.0574C52.8389 24.97 52.6785 24.9224 52.5143 24.9197C52.3501 24.917 52.1882 24.9593 52.0464 25.0421Z" fill="#242424"/>
<path fill-rule="evenodd" clip-rule="evenodd" d="M57.4148 25.8224C56.6838 26.295 55.4905 26.6452 55.6877 27.6685C55.8135 28.3145 56.7944 28.6052 57.238 28.051C57.6817 27.4968 59.278 27.1262 58.6269 26.0995C58.5665 26.0006 58.4869 25.9148 58.3929 25.8472C58.2988 25.7795 58.1922 25.7314 58.0792 25.7056C57.9663 25.6797 57.8493 25.6768 57.7352 25.6968C57.6211 25.7169 57.5122 25.7596 57.4148 25.8224Z" fill="#242424"/>
<path fill-rule="evenodd" clip-rule="evenodd" d="M59.499 29.5742C58.819 30.006 59.1199 31.2963 60.1892 31.1858C60.5292 31.1501 61.0171 31.0736 61.0171 31.0736C62.0099 30.9444 62.887 30.2049 62.3056 29.4348C61.9911 29.0183 61.4013 29.1135 60.7944 29.326C60.7944 29.326 59.7659 29.4144 59.499 29.5742ZM61.0154 29.3158C61.0341 29.3005 61.0154 29.3158 61.0154 29.3158V29.3158Z" fill="#242424"/>
<path fill-rule="evenodd" clip-rule="evenodd" d="M60.9609 34.3001C60.2606 34.7489 60.553 35.9797 61.9384 36.0001C62.7884 36.0001 63.5194 36.4233 64.0226 36.0443C64.5547 35.6431 64.4085 34.7404 63.6554 34.4548C63.0604 34.2287 62.4008 34.3256 61.7718 34.2304C61.6256 34.21 61.2618 34.1131 60.9609 34.2984V34.3001Z" fill="#242424"/>
<path fill-rule="evenodd" clip-rule="evenodd" d="M58.4994 38.3409C58.3856 38.4209 58.2917 38.526 58.225 38.6481C58.1583 38.7702 58.1205 38.9059 58.1146 39.0449C58.1086 39.1839 58.1348 39.3224 58.1909 39.4497C58.247 39.577 58.3316 39.6897 58.4382 39.7791C59.2593 40.4098 60.0022 41.581 60.8182 41.0098C60.9289 40.9246 61.0186 40.815 61.0803 40.6896C61.142 40.5642 61.1742 40.4263 61.1742 40.2865C61.1742 40.1467 61.142 40.0088 61.0803 39.8834C61.0186 39.758 60.9289 39.6485 60.8182 39.5632C60.0481 38.8968 59.3052 37.8428 58.5045 38.3409H58.4994Z" fill="#242424"/>
<path fill-rule="evenodd" clip-rule="evenodd" d="M56.0362 40.9283C55.2933 41.4195 55.9563 42.6775 56.4798 43.6703C56.8198 44.2755 57.9078 44.2109 58.1016 43.4714C58.139 43.3276 58.139 43.1766 58.1016 43.0328C57.9196 42.3778 57.6325 41.7566 57.2516 41.1934C57.1899 41.0954 57.1094 41.0107 57.0146 40.9442C56.9198 40.8777 56.8127 40.8307 56.6995 40.806C56.5864 40.7813 56.4694 40.7794 56.3555 40.8004C56.2416 40.8214 56.1331 40.8649 56.0362 40.9283Z" fill="#242424"/>
<path fill-rule="evenodd" clip-rule="evenodd" d="M58.3668 32.8704C57.2737 29.3362 52.626 29.7527 50.8563 29.6405C48.8725 29.5147 44.6378 30.8815 42.7135 31.7994C39.2609 33.445 39.0858 35.7366 39.5295 37.0404C40.4389 39.723 42.3361 40.9877 45.2294 41.0744C48.9337 41.1849 52.4815 40.4081 56.4849 37.9737C57.7684 37.1934 59.0808 35.1824 58.3668 32.8738V32.8704Z" fill="#D6EFCA"/>
<path fill-rule="evenodd" clip-rule="evenodd" d="M83.9819 39.0022C83.9496 38.3222 83.8578 37.6422 83.7966 36.9622C83.6266 34.9478 83.3818 32.9554 83.1047 30.9325C82.7902 28.7225 81.8552 26.6163 80.786 24.6987C78.8021 21.1424 75.3172 18.4207 71.3256 17.6047C65.9741 16.5117 60.3132 17.0947 55.0348 17.8291C47.4802 18.8882 40.1296 20.9537 32.8503 23.2384C30.1227 24.1204 27.503 25.3065 25.0407 26.7744C21.8668 28.6443 18.9429 31.1246 17.0508 34.2355C16.6241 34.9376 16.3504 35.7264 16.0802 36.5118C15.3169 38.7438 15.0024 41.1561 15.4308 43.4816C15.6008 44.4149 15.8524 45.3312 16.0377 46.2662C16.0564 46.3529 16.6972 48.318 17.0032 49.5539C17.2531 50.5637 17.5965 51.4545 17.8532 52.2636C19.0551 56.1005 20.9624 60.2195 23.8031 65.5234C26.285 70.1422 35.4665 78.0266 43.2643 78.3836C54.8122 78.914 67.0842 74.5502 76.1586 65.8311C77.8705 64.1872 84.1281 57.6831 84.1383 42.3137C84.1495 41.2131 84.0927 40.1128 83.9683 39.0192L83.9819 39.0022ZM23.8881 53.1119C21.3058 51.995 19.1656 48.9589 17.6968 45.5641C17.0729 44.1225 16.8791 42.2372 16.9998 40.5203C17.1205 38.8033 17.6475 37.1203 18.3343 35.5615C19.7997 32.3315 23.3424 29.7816 26.1542 28.1615C31.8218 24.8857 38.3565 23.3404 44.8028 21.7017C50.0235 20.3689 55.34 19.4448 60.7042 18.9375C64.1501 18.6128 67.6928 18.6502 71.0179 19.3421C75.0145 20.1751 78.746 23.4645 79.9869 27.0685C82.7069 34.992 79.1693 38.5398 77.9708 39.9219C72.4493 46.2883 59.4123 50.1387 47.8168 53.2972C39.0824 55.6772 29.8754 55.7061 23.8847 53.1153L23.8881 53.1119Z" fill="#926E57"/>
<path d="M68.7876 50.5025C69.3577 50.1008 69.9853 49.7879 70.6491 49.5743C71.4133 49.2995 72.2171 49.1508 73.029 49.134C74.6321 49.1527 75.9071 49.9687 76.6942 50.6504C77.3044 51.1791 78.372 52.2551 78.644 53.5063C78.6865 53.6673 78.6797 53.8374 78.6245 53.9945C78.5694 54.1516 78.4685 54.2886 78.3347 54.3878C78.2009 54.487 78.0405 54.5438 77.8741 54.5509C77.7078 54.558 77.5431 54.5151 77.4013 54.4277C77.3091 54.3751 77.2287 54.304 77.1652 54.2189C77.1017 54.1338 77.0565 54.0364 77.0324 53.933C77.0208 53.8754 77.0054 53.8186 76.9865 53.763C76.9763 53.7307 76.9645 53.7001 76.9509 53.6678L76.9338 53.6236C76.9338 53.6117 76.9338 53.6015 76.9219 53.5913C76.9153 53.5811 76.9096 53.5703 76.905 53.559L76.8386 53.4298C76.791 53.3414 76.74 53.2598 76.6874 53.168C76.4626 52.8032 76.1924 52.4685 75.8833 52.1718C75.3291 51.6245 74.4366 50.9445 73.3333 50.8119C72.74 50.7422 72.0872 50.8901 71.5858 51.0278C71.0266 51.1691 70.4915 51.3925 69.998 51.6907C69.2926 52.11 68.7471 52.7525 68.4476 53.5165L68.4255 53.576C68.4085 53.6253 68.3915 53.6746 68.3762 53.7222C68.3456 53.8191 68.3184 53.9177 68.2946 54.0146C68.247 54.2101 68.2147 54.4141 68.1892 54.5858V54.6045C68.1901 54.609 68.1901 54.6136 68.1892 54.6181L68.179 54.7558C68.179 54.8408 68.1688 54.9258 68.1654 55.0108C68.1654 55.1706 68.1654 55.3287 68.1654 55.4885C68.1762 55.6268 68.1496 55.7655 68.0883 55.8899C68.027 56.0144 67.9332 56.12 67.8169 56.1957C67.6757 56.2853 67.5116 56.3325 67.3443 56.3317C67.2032 56.3319 67.0639 56.2987 66.938 56.2348C66.8094 56.1696 66.7008 56.0709 66.6236 55.9491C66.5464 55.8274 66.5035 55.687 66.4995 55.5429C66.3941 53.474 67.2287 51.6346 68.7876 50.5025Z" fill="#242424"/>
<path d="M36.0327 60.2671C36.6199 59.8586 37.2628 59.5369 37.9417 59.3117C38.726 59.0224 39.5497 58.8545 40.3846 58.8136C41.6969 58.7796 43.062 59.2879 44.2435 60.2467C44.7621 60.6715 45.2197 61.1657 45.6035 61.7154C45.9238 62.1371 46.1551 62.6195 46.2834 63.1332C46.3369 63.3436 46.3079 63.5665 46.2023 63.7561C46.0968 63.9458 45.9227 64.0878 45.7157 64.1532C45.6021 64.185 45.4832 64.1932 45.3662 64.1774C45.2493 64.1616 45.1368 64.1222 45.0357 64.0614C44.9434 64.0091 44.8631 63.938 44.7998 63.8529C44.7366 63.7677 44.6919 63.6702 44.6685 63.5667C44.6571 63.5092 44.6424 63.4525 44.6243 63.3967C44.6124 63.3627 44.6005 63.327 44.5852 63.2913L44.5495 63.2114C44.4778 63.0678 44.3984 62.9282 44.3115 62.7932C44.075 62.4229 43.789 62.0866 43.4615 61.7937C42.6421 61.027 41.7003 60.5646 40.8096 60.4949C40.1509 60.4719 39.4932 60.5645 38.8665 60.7686C38.2988 60.9195 37.7547 61.1483 37.2498 61.4486C36.8469 61.6853 36.4884 61.9908 36.1908 62.3512C36.0712 62.4837 35.9669 62.6291 35.8797 62.7847C35.772 62.9614 35.6782 63.1461 35.5992 63.3372L35.5771 63.3848L35.5312 63.5174C35.4972 63.616 35.4666 63.7163 35.4411 63.8166C35.3918 64.0024 35.3532 64.1908 35.3255 64.381L35.3068 64.5391C35.3068 64.6275 35.2932 64.7091 35.2898 64.806C35.2898 64.9624 35.2898 65.1205 35.2898 65.2769C35.299 65.4165 35.2703 65.5561 35.2069 65.6808C35.1435 65.8056 35.0476 65.9109 34.9294 65.9858C34.7978 66.0658 34.6479 66.1107 34.494 66.1161C34.34 66.1214 34.1873 66.0871 34.0505 66.0164C33.9235 65.9499 33.8168 65.8504 33.7417 65.7283C33.6666 65.6062 33.6259 65.4661 33.6238 65.3228C33.5558 63.2522 34.4296 61.4128 36.0327 60.2671Z" fill="#242424"/>
<path d="M54.0336 61.1663L59.0519 59.6738C59.186 59.6288 59.3297 59.6208 59.4679 59.6507C59.6062 59.6806 59.7338 59.7473 59.8372 59.8438C59.9489 59.9517 60.0306 60.0868 60.0744 60.2358C60.1182 60.3848 60.1226 60.5426 60.0872 60.6937C60.0545 60.8315 59.9853 60.9579 59.8869 61.0596C59.7885 61.1613 59.6645 61.2346 59.5279 61.2717L54.5096 62.7643C54.43 62.7876 54.3477 62.7996 54.2648 62.8C54.0683 62.7928 53.8805 62.7168 53.7344 62.5851C53.5883 62.4535 53.4931 62.2746 53.4656 62.0799C53.438 61.8852 53.4798 61.687 53.5836 61.52C53.6875 61.353 53.8468 61.2278 54.0336 61.1663Z" fill="#242424"/>
<path d="M68.8662 60.862C68.5657 59.8514 69.9227 58.5562 71.8971 57.9691C73.8715 57.382 75.7157 57.7253 76.0162 58.7359C76.3167 59.7465 74.9598 61.0417 72.9853 61.6288C71.0109 62.2159 69.1667 61.8726 68.8662 60.862Z" fill="#F9897D"/>
<path fill-rule="evenodd" clip-rule="evenodd" d="M38.2732 69.9773C38.5741 70.9973 40.4186 71.3372 42.3922 70.7439C44.3659 70.1507 45.7225 68.8621 45.4233 67.854C45.1241 66.8459 43.2779 66.494 41.3043 67.089C39.3306 67.684 37.9723 68.9675 38.2732 69.9773Z" fill="#F9897D"/>
<path d="M22.7769 38.5517C20.7483 37.3994 19.3654 35.8794 18.2482 33.6844C17.3234 31.8764 16.8117 30.6505 16.2049 27.3611C16.1922 27.2875 16.1606 27.2184 16.1131 27.1605C16.0655 27.1025 16.0036 27.0577 15.9334 27.0303C15.8632 27.0029 15.7871 26.9939 15.7124 27.0041C15.6376 27.0143 15.5668 27.0435 15.5068 27.0887C15.3994 27.1843 15.3313 27.3155 15.3155 27.4575C15.1936 28.1313 14.593 32.2055 12.3438 34.8271C11.3094 36.0325 9.75718 37.1764 8.24272 37.9394C8.15582 37.9829 8.08597 38.0537 8.04412 38.1407C7.99876 38.2319 7.98795 38.3363 8.01366 38.4348C8.04955 38.5465 8.11421 38.647 8.20129 38.7265C8.70571 39.2375 11.6895 41.7483 13.1333 44.8461C14.2969 47.3388 14.7648 49.2951 14.9329 49.6759C14.9622 49.7566 15.0118 49.8285 15.077 49.8848C15.1423 49.9411 15.221 49.98 15.3057 49.9978C15.4201 50.0086 15.5348 49.9799 15.6302 49.9166C15.7257 49.8533 15.7962 49.7594 15.8296 49.6506C15.9868 49.2324 16.5607 47.029 17.2527 45.6862C18.8549 42.5523 19.8491 41.9749 22.8573 39.2484C22.9082 39.202 22.9474 39.1445 22.9717 39.0804C22.9961 39.0164 23.0049 38.9476 22.9974 38.8795C22.9896 38.8115 22.9655 38.7463 22.9272 38.6893C22.8888 38.6323 22.8373 38.5851 22.7769 38.5517Z" fill="#FFD79B"/>
<path d="M73.648 17.202C72.4308 16.6604 71.1864 15.8871 70.3803 15.1013C68.6571 13.427 68.2879 10.9632 68.2153 10.5555C68.2029 10.463 68.1712 10.3741 68.1222 10.2948C68.0732 10.2156 68.008 10.1477 67.931 10.0957C67.8576 10.0473 67.7743 10.0163 67.6874 10.0049C67.6004 9.9935 67.512 10.0021 67.4288 10.03C67.3336 10.0564 67.247 10.1077 67.1779 10.1787C67.1087 10.2496 67.0594 10.3377 67.0349 10.434C66.4503 12.3835 66.0023 13.0936 65.2023 14.1384C64.2324 15.4013 63.0718 16.2452 61.4003 16.8339C61.2981 16.8703 61.2076 16.9339 61.1384 17.0179C61.0691 17.102 61.0238 17.2033 61.0071 17.3112C60.9905 17.4191 61.0031 17.5295 61.0438 17.6307C61.0844 17.7319 61.1515 17.8202 61.2379 17.8861C63.6244 19.703 64.4293 20.0983 65.6515 22.0924C66.1758 22.9488 66.582 24.3232 66.6989 24.5896C66.7387 24.7013 66.8096 24.7992 66.903 24.8716C66.9965 24.9439 67.1086 24.9877 67.2261 24.9978C67.3435 25.0078 67.4614 24.9837 67.5656 24.9283C67.6698 24.8728 67.7561 24.7884 67.814 24.685C67.9654 24.457 68.4122 23.2673 69.4559 21.7813C70.7273 19.9682 73.2456 18.6 73.6726 18.3112C73.8 18.2371 73.899 18.122 73.9534 17.9844C74.0079 17.8468 74.0148 17.6947 73.973 17.5527C73.9471 17.4742 73.9046 17.4021 73.8485 17.3416C73.7925 17.2811 73.7241 17.2335 73.648 17.202Z" fill="#FFD79B"/>
<path d="M33.6481 77.2015C32.4297 76.6599 31.1867 75.8865 30.3806 75.1008C28.6576 73.4276 28.2884 70.9624 28.2146 70.5546C28.2031 70.462 28.1717 70.373 28.1226 70.2938C28.0735 70.2146 28.0079 70.1472 27.9303 70.0961C27.8573 70.0474 27.7742 70.0162 27.6874 70.0048C27.6006 69.9935 27.5124 70.0022 27.4294 70.0304C27.3341 70.0564 27.2473 70.1074 27.1779 70.1781C27.1085 70.2489 27.059 70.3369 27.0344 70.4332C26.4498 72.3828 26.0018 73.0929 25.2019 74.1378C24.2321 75.4007 23.0728 76.2447 21.4003 76.8334C21.2981 76.8699 21.2076 76.9334 21.1383 77.0175C21.0691 77.1015 21.0238 77.2028 21.0071 77.3107C20.9905 77.4186 21.0031 77.529 21.0437 77.6302C21.0844 77.7315 21.1514 77.8197 21.2378 77.8857C23.6254 79.7026 24.429 80.098 25.6523 82.0934C26.1766 82.9486 26.5827 84.3244 26.6996 84.5896C26.7394 84.7013 26.8103 84.7992 26.9037 84.8715C26.9971 84.9439 27.1093 84.9877 27.2267 84.9978C27.3441 85.0078 27.462 84.9837 27.5662 84.9283C27.6704 84.8728 27.7567 84.7884 27.8146 84.685C27.966 84.457 28.4127 83.2672 29.4564 81.7811C30.7276 79.9679 33.2444 78.5996 33.6727 78.3108C33.8001 78.2367 33.899 78.1216 33.9534 77.984C34.0079 77.8464 34.0148 77.6943 33.973 77.5523C33.9465 77.474 33.9039 77.4023 33.8479 77.3418C33.7918 77.2814 33.7238 77.2336 33.6481 77.2015Z" fill="#FFD79B"/>
</svg>
