<svg width="100" height="100" viewBox="0 0 100 100" fill="none" xmlns="http://www.w3.org/2000/svg">
<path fill-rule="evenodd" clip-rule="evenodd" d="M27.8018 46.8882C27.8062 49.8172 28.0946 52.7388 28.6631 55.6121C30.0906 62.615 33.5627 69.2023 39.7916 72.9948C53.101 81.0968 72.8105 72.0288 75.1993 57.046C81.6264 16.7481 28.1111 14.564 27.8018 46.8819V46.8882Z" fill="#A5C499"/>
<path d="M73.6755 48.3504C75.5219 45.8138 74.9625 42.2608 72.4259 40.4144C69.8894 38.568 66.3363 39.1275 64.4899 41.664C62.6435 44.2006 63.203 47.7536 65.7395 49.6C68.2761 51.4464 71.8292 50.8869 73.6755 48.3504Z" fill="#242424"/>
<path d="M43.9796 53.7863C46.8055 52.4233 47.9914 49.0276 46.6285 46.2017C45.2655 43.3758 41.8698 42.1899 39.0439 43.5528C36.218 44.9158 35.0321 48.3115 36.395 51.1374C37.758 53.9633 41.1537 55.1492 43.9796 53.7863Z" fill="#242424"/>
<path d="M43.5544 64.9751C46.3682 64.6271 48.4323 62.5906 48.1647 60.4262C47.8971 58.2619 45.3991 56.7893 42.5853 57.1373C39.7715 57.4852 37.7075 59.5218 37.9751 61.6861C38.2427 63.8505 40.7406 65.323 43.5544 64.9751Z" fill="#DA6057"/>
<path d="M72.0165 59.2307C74.8124 58.7733 76.7938 56.659 76.442 54.5084C76.0901 52.3578 73.5383 50.9852 70.7424 51.4427C67.9464 51.9001 65.9651 54.0143 66.317 56.1649C66.6688 58.3155 69.2205 59.6881 72.0165 59.2307Z" fill="#DA6057"/>
<path fill-rule="evenodd" clip-rule="evenodd" d="M69.3333 43.5002C69.3172 43.8897 69.2117 44.2797 69.0301 44.6209C68.8485 44.9621 68.599 45.2392 68.3132 45.4171C68.0274 45.5949 67.7181 45.6657 67.4244 45.6202C67.1307 45.5748 66.8659 45.4153 66.6633 45.1619C66.4608 44.9085 66.3297 44.5726 66.2866 44.1967C66.2434 43.8207 66.2902 43.4216 66.421 43.0498C66.5518 42.678 66.7608 42.3503 67.0215 42.108C67.2821 41.8658 67.5829 41.7199 67.8855 41.6888C68.2911 41.6476 68.6713 41.8152 68.9427 42.1548C69.2141 42.4944 69.3546 42.9782 69.3333 43.5002Z" fill="white"/>
<path d="M39.4543 49.6973C40.3974 49.7431 41.1991 49.0157 41.245 48.0726C41.2908 47.1294 40.5634 46.3277 39.6202 46.2819C38.6771 46.2361 37.8754 46.9635 37.8295 47.9066C37.7837 48.8498 38.5111 49.6515 39.4543 49.6973Z" fill="white"/>
<path d="M63.0973 51.6324C63.0652 51.0437 62.7168 50.5385 62.1422 50.5422C61.6415 50.5435 61.0666 51.0503 61.0987 51.639C61.1263 52.1523 61.098 52.6199 60.8519 52.9602C60.5752 53.3386 60.0688 53.6138 59.6245 53.7404C58.5873 54.0468 57.3583 53.7494 56.9413 52.6111C56.6092 51.7062 55.3526 52.0555 55.0999 52.8805C54.7943 53.8851 54.1544 54.8218 53.1863 55.1012C52.2182 55.3805 51.4484 54.8825 51.1124 53.9378C50.9201 53.3928 50.1936 53.2751 49.7573 53.5505C49.2312 53.8817 49.1478 54.5065 49.3397 55.053C49.9715 56.8447 51.769 57.6454 53.4798 57.2546C54.6113 56.9931 55.5545 56.1961 56.216 55.1768C57.2724 56.0266 58.7988 56.2361 60.0803 55.854C61.886 55.3176 63.2072 53.7193 63.0973 51.6324Z" fill="#242424"/>
<path d="M77.7769 18.5517C75.7483 17.3994 74.3654 15.8794 73.2482 13.6844C72.3234 11.8764 71.8117 10.6505 71.2049 7.36112C71.1922 7.28752 71.1606 7.21842 71.1131 7.16046C71.0655 7.1025 71.0036 7.05766 70.9334 7.03027C70.8632 7.00288 70.7871 6.99386 70.7124 7.0041C70.6376 7.01434 70.5668 7.04348 70.5068 7.0887C70.3994 7.18427 70.3313 7.31555 70.3155 7.45755C70.1936 8.13135 69.593 12.2055 67.3438 14.8271C66.3094 16.0325 64.7572 17.1764 63.2427 17.9394C63.1558 17.9829 63.086 18.0537 63.0441 18.1407C62.9988 18.2319 62.988 18.3363 63.0137 18.4348C63.0495 18.5465 63.1142 18.647 63.2013 18.7265C63.7057 19.2375 66.6895 21.7483 68.1333 24.8461C69.2969 27.3388 69.7648 29.2951 69.9329 29.6759C69.9622 29.7566 70.0118 29.8285 70.077 29.8848C70.1423 29.9411 70.221 29.98 70.3057 29.9978C70.4201 30.0086 70.5348 29.9799 70.6302 29.9166C70.7257 29.8533 70.7962 29.7594 70.8296 29.6506C70.9868 29.2324 71.5607 27.029 72.2527 25.6862C73.8549 22.5523 74.8491 21.9749 77.8573 19.2484C77.9082 19.202 77.9474 19.1445 77.9717 19.0804C77.9961 19.0164 78.0049 18.9476 77.9974 18.8795C77.9896 18.8115 77.9655 18.7463 77.9272 18.6893C77.8888 18.6323 77.8373 18.5851 77.7769 18.5517Z" fill="#FFD79B"/>
<path d="M28.648 37.202C27.4308 36.6604 26.1864 35.8871 25.3803 35.1013C23.6571 33.427 23.2879 30.9632 23.2153 30.5555C23.2029 30.463 23.1712 30.3741 23.1222 30.2948C23.0732 30.2156 23.008 30.1477 22.931 30.0957C22.8576 30.0473 22.7743 30.0163 22.6874 30.0049C22.6004 29.9935 22.512 30.0021 22.4288 30.03C22.3336 30.0564 22.247 30.1077 22.1779 30.1787C22.1087 30.2496 22.0594 30.3377 22.0349 30.434C21.4503 32.3835 21.0023 33.0936 20.2023 34.1384C19.2324 35.4013 18.0718 36.2452 16.4003 36.8339C16.2981 36.8703 16.2076 36.9339 16.1384 37.0179C16.0691 37.102 16.0238 37.2033 16.0071 37.3112C15.9905 37.4191 16.0031 37.5295 16.0438 37.6307C16.0844 37.7319 16.1515 37.8202 16.2379 37.8861C18.6244 39.703 19.4293 40.0983 20.6515 42.0924C21.1758 42.9488 21.582 44.3232 21.6989 44.5896C21.7387 44.7013 21.8096 44.7992 21.903 44.8716C21.9965 44.9439 22.1086 44.9877 22.2261 44.9978C22.3435 45.0078 22.4614 44.9837 22.5656 44.9283C22.6698 44.8728 22.7561 44.7884 22.814 44.685C22.9654 44.457 23.4122 43.2673 24.4559 41.7813C25.7273 39.9682 28.2456 38.6 28.6726 38.3112C28.8 38.2371 28.899 38.122 28.9534 37.9844C29.0079 37.8468 29.0148 37.6947 28.973 37.5527C28.9471 37.4742 28.9046 37.4021 28.8485 37.3416C28.7925 37.2811 28.7241 37.2335 28.648 37.202Z" fill="#FFD79B"/>
<path d="M51.6481 78.2015C50.4297 77.6599 49.1867 76.8865 48.3806 76.1008C46.6576 74.4276 46.2884 71.9624 46.2146 71.5546C46.2031 71.462 46.1717 71.373 46.1226 71.2938C46.0735 71.2146 46.0079 71.1472 45.9303 71.0961C45.8573 71.0474 45.7742 71.0162 45.6874 71.0048C45.6006 70.9935 45.5124 71.0022 45.4294 71.0304C45.3341 71.0564 45.2473 71.1074 45.1779 71.1781C45.1085 71.2489 45.059 71.3369 45.0344 71.4332C44.4498 73.3828 44.0018 74.0929 43.2019 75.1378C42.2321 76.4007 41.0728 77.2447 39.4003 77.8334C39.2981 77.8699 39.2076 77.9334 39.1383 78.0175C39.0691 78.1015 39.0238 78.2028 39.0071 78.3107C38.9905 78.4186 39.0031 78.529 39.0437 78.6302C39.0844 78.7315 39.1514 78.8197 39.2378 78.8857C41.6254 80.7026 42.429 81.098 43.6523 83.0934C44.1766 83.9486 44.5827 85.3244 44.6996 85.5896C44.7394 85.7013 44.8103 85.7992 44.9037 85.8715C44.9971 85.9439 45.1093 85.9877 45.2267 85.9978C45.3441 86.0078 45.462 85.9837 45.5662 85.9283C45.6704 85.8728 45.7567 85.7884 45.8146 85.685C45.966 85.457 46.4127 84.2672 47.4564 82.7811C48.7276 80.9679 51.2444 79.5996 51.6727 79.3108C51.8001 79.2367 51.899 79.1216 51.9534 78.984C52.0079 78.8464 52.0148 78.6943 51.973 78.5523C51.9465 78.474 51.9039 78.4023 51.8479 78.3418C51.7918 78.2814 51.7238 78.2336 51.6481 78.2015Z" fill="#FFD79B"/>
</svg>
