<svg width="100" height="101" viewBox="0 0 100 101" fill="none" xmlns="http://www.w3.org/2000/svg">
<path fill-rule="evenodd" clip-rule="evenodd" d="M49.7082 15.0135C49.5371 15.192 49.6627 14.5221 49.6455 14.2755C49.6121 13.7994 49.5661 13.3 49.4904 12.8348C49.2348 11.2476 49.2198 10.101 48.5914 8.43451C48.0162 6.90981 47.6619 6.19225 46.0017 6.27941C45.5339 6.30314 44.4827 6.84925 44.323 6.54643C44.1634 6.24361 44.5775 6.0541 44.8144 5.95625C48.9933 4.23008 50.0537 6.408 51.0766 10.1425C51.213 10.6576 52.0629 14.2006 51.8762 14.6571C51.6366 15.2336 49.7079 15.0095 49.7079 15.0095L49.7082 15.0135Z" fill="#242424"/>
<path fill-rule="evenodd" clip-rule="evenodd" d="M17.8023 33.951C22.3287 23.6643 32.464 16.171 50.7561 14.7217C50.7561 14.7217 82.1165 6.21869 91.0796 33.3756C95.0627 45.445 98.0544 80.5781 72.8488 88.2087C29.536 101.321 19.6245 72.2679 18.4568 69.9319C16.3383 65.6943 10.4191 50.7318 17.8013 33.9511L17.8023 33.951Z" fill="#A7C69B"/>
<path fill-rule="evenodd" clip-rule="evenodd" d="M47.8796 15.3182C48.2412 14.9658 46.3447 15.7196 46.259 15.7557C45.3925 16.1173 44.3906 16.5085 43.6379 17.0066C43.0884 17.3681 42.3916 17.5875 41.8151 17.9228C39.9952 18.9812 38.858 20.5204 37.6133 21.9288C34.5875 25.3509 36.8399 29.2511 35.7282 32.9164C34.9304 35.5484 32.4037 37.6455 31.7624 40.2917C31.1818 42.6878 33.57 44.4447 35.0683 46.2298C36.0393 47.3877 36.4134 49.0198 36.3641 50.4077C36.2794 52.8092 34.1331 54.5917 32.7288 56.6001C31.7231 58.0419 31.1463 59.7389 31.0651 61.4948C30.8759 65.6844 35.7418 66.8645 37.7337 69.9814C38.5031 71.1845 37.7125 72.6454 38.1262 73.8975C38.5067 75.0336 40.2557 75.9273 40.8367 77.2329C41.4738 78.666 40.3852 80.0835 40.8374 81.4553C41.3034 82.8663 43.1183 83.6411 44.0625 84.9193C44.8638 86.0048 45.1407 88.0971 46.1684 89.0344C46.9635 89.7592 49.1085 91.4519 49.4614 91.1613C49.6682 90.9923 47.1343 88.9316 46.8353 88.2583C46.4555 87.4041 46.0856 86.3045 46.2162 85.3613C46.3468 84.4182 46.5328 83.6508 45.8844 82.7712C45.1519 81.7802 44.2501 81.2806 43.8705 80.1294C43.3725 78.6193 45.1713 76.7569 44.5679 74.9312C43.6761 72.2238 40.7061 70.7253 41.0461 67.6157C41.2596 65.6796 43.502 62.7729 43.0027 61.0301C42.6971 59.9611 42.2505 58.0963 41.3226 57.2514C40.4963 56.4967 39.2649 55.4302 39.466 54.3186C39.723 52.9032 41.8366 52.7592 42.7771 51.9068C43.1601 51.56 43.8542 50.9416 43.5018 50.4647C43.2635 50.1413 42.926 49.7486 42.4421 49.6571C41.4813 49.4755 40.0526 50.0591 39.677 48.9227C39.146 47.3137 41.0995 46.3151 40.5827 45.009C39.7166 42.8265 37.7424 40.1478 38.1845 37.7082C38.4673 36.1445 39.3977 34.8193 39.286 33.224C39.0581 29.9686 37.9539 26.5066 39.7091 23.2628C40.576 21.6611 42.4961 21.5167 43.3393 20.3641C43.8184 19.7126 43.699 18.2222 44.0521 17.9066C45.1189 16.939 47.5135 15.6769 47.8837 15.3189L47.8796 15.3182Z" fill="#70995F"/>
<path fill-rule="evenodd" clip-rule="evenodd" d="M51.3575 14.8437C51.2615 15.034 52.8434 15.3045 53.5671 15.8256C56.1497 17.6793 56.6719 19.5488 56.7767 21.0462C57.0176 24.4864 55.3118 26.7165 54.2235 29.8846C53.8576 30.9485 53.3794 32.859 54.5819 33.6716C57.0961 35.3786 59.1636 37.5833 60.1636 40.1025C60.7265 41.5217 58.6276 43.0682 59.2432 44.2801C59.8587 45.492 61.4635 46.0888 61.9801 47.3909C62.5882 48.9123 60.2865 50.4258 61.0902 52.0037C61.8672 53.5294 64.1461 55.1144 63.6815 57.0329C62.8556 60.4384 58.2292 62.865 57.4193 66.1992C56.8301 68.629 57.7935 70.6693 58.5445 72.9421C59.3072 75.2372 58.3908 77.2365 57.9785 79.5136C57.6407 81.3801 59.1033 83.586 59.2384 85.5157C59.3284 86.8005 58.9985 88.0937 58.441 89.3145C58.0661 90.1353 57.7158 90.6774 57.9503 90.673C58.963 90.6523 61.4802 87.0441 61.9243 84.5893C62.1673 83.2461 60.9772 80.8054 61.4289 79.4916C61.873 78.1975 63.2681 77.3324 63.5148 75.9698C64.1311 72.566 62.054 68.819 62.8712 65.4472C64.1703 60.0875 71.1531 60.8124 72.0784 55.7026C72.9689 50.7837 67.9582 53.0226 66.6762 50.5031C65.6736 48.5338 67.8322 47.6704 67.4419 46.7808C66.8892 45.5213 65.1146 45.3647 64.5317 43.9017C63.9604 42.462 64.7808 40.2959 64.1994 39.1558C63.7887 38.3489 62.6792 37.7324 61.9983 37.0347C60.7597 35.7651 59.6718 33.9954 59.0703 32.4695C58.4606 30.9252 59.9176 29.828 60.3776 28.4886C60.6859 27.5902 59.6257 27.0776 59.5641 26.1971C59.4459 24.509 60.4764 22.936 59.6908 21.3448C58.6386 19.2114 57.2249 17.2037 55.03 15.7142C54.5581 15.3931 53.8019 14.9665 52.9867 14.9142C52.5513 14.8855 51.4314 14.682 51.3574 14.8277L51.3575 14.8437Z" fill="#70995F"/>
<path fill-rule="evenodd" clip-rule="evenodd" d="M63.3892 14.0465C63.2851 14.2926 66.828 15.1039 68.0059 15.6936C68.9572 16.1697 69.9284 17.2042 70.7732 17.778C72.3953 18.8803 71.8812 20.994 73.0843 22.2309C74.0754 23.247 76.6505 23.3736 77.2463 24.5478C77.9871 26.0007 77.8955 28.2753 76.912 29.6163C76.2946 30.456 74.3534 31.1999 74.9698 32.4097C75.2862 33.0316 77.7998 31.8936 78.0613 32.2474C78.7265 33.1509 76.8702 33.8607 77.4578 34.4596C78.1376 35.1564 80.4072 34.7316 81.4939 35.9667C82.1476 36.7064 82.7847 38.4846 82.0754 39.3439C81.6184 39.8955 80.3848 41.1877 80.7361 41.8784C80.9257 42.2514 81.5252 42.3609 81.7568 42.6747C82.1026 43.1421 81.1507 43.7314 81.6608 44.2544C82.1256 44.7315 83.5528 44.6687 83.8025 45.2983C84.7771 47.7551 84.8155 49.8791 84.5836 52.5127C84.3451 55.225 82.2797 57.6057 81.8108 60.1927C81.5764 61.4872 82.0563 62.2672 82.5216 63.4535C82.8863 64.3629 82.7552 65.915 82.622 66.8643C82.2966 69.1945 80.621 70.7374 80.1367 72.7335C79.88 73.7948 79.8675 75.0055 79.7495 76.0712C79.5223 78.1406 76.9706 80.6698 75.6576 82.4481C74.9558 83.4001 70.4294 88.401 70.5476 88.4559C71.3054 88.8041 79.8301 80.9762 80.648 79.0459C81.0586 78.0762 81.2486 75.8619 81.8249 75.1664C82.7323 74.0696 84.0409 73.0299 84.7698 71.9215C85.2132 71.2474 84.654 70.4249 85.03 69.7344C86.1851 67.605 88.037 65.3997 88.2897 63.1048C88.4413 61.7318 88.6171 59.8004 88.1703 58.4483C87.8009 57.3275 87.4257 56.0526 87.6435 54.8506C87.8966 53.4505 89.3464 52.6798 90.0243 51.4295C90.5768 50.4087 88.385 49.6382 88.8098 48.8561C89.9859 46.6841 91.1399 46.3154 90.3752 43.6472C90.043 42.4847 89.5545 41.3241 88.6966 40.3479C88.0277 39.5922 86.99 39.3579 86.6925 38.3183C86.2717 36.85 86.9503 35.2807 86.3788 33.8379C86.0742 33.0698 82.6658 31.4144 82.1113 30.0146C81.813 29.2641 81.3648 28.6223 81.0639 27.8639C80.5645 26.6047 81.355 25.3165 80.7304 24.0891C80.3581 23.3578 77.7567 22.6682 77.1716 21.5184C76.9937 21.1687 76.897 20.0328 76.4365 19.8885C75.9564 19.7375 74.8547 19.9932 74.6185 19.5272C74.2568 18.8172 74.2441 18.0918 73.7842 17.4699C72.8707 16.2297 68.0865 14.7971 66.3328 14.4654C65.2725 14.2658 63.5116 13.7601 63.389 14.0576L63.3892 14.0465Z" fill="#70995F"/>
<path fill-rule="evenodd" clip-rule="evenodd" d="M35.6942 18.232C35.9965 18.4385 32.9668 20.4424 27.8571 27.0982C27.0425 28.1584 26.0796 29.9815 25.907 31.2124C25.7467 32.3613 26.2024 33.3105 25.3394 34.353C24.5992 35.2435 25.1932 36.2764 24.4744 37.1433C23.9509 37.7759 22.8914 38.2904 22.5019 38.9307C21.3101 40.8941 20.7508 40.7718 20.5304 41.994C20.3234 43.1351 22.1548 43.8315 22.5725 44.8827C23.0602 46.1166 23.3116 47.4292 23.1947 48.7676C22.9805 51.1963 19.0749 55.5769 20.1379 57.6643C20.5195 58.4141 23.2802 58.0402 23.6176 58.8904C23.9989 59.8508 21.0817 61.3572 21.6081 62.3848C21.9327 63.0231 23.5385 62.9037 23.7958 63.5407C24.2829 64.7666 24.6235 66.078 25.1109 67.3079C25.5385 68.3865 26.4973 69.1711 26.9783 70.2088C28.3098 73.078 26.5509 75.6821 29.2885 78.173C29.9476 78.7749 30.9671 79.2231 31.5974 79.8722C32.2135 80.5042 32.4591 81.5173 32.9034 82.2617C33.4577 83.1512 34.1233 83.9663 34.884 84.6871C37.4145 87.0571 41.0168 89.3891 40.8226 89.7106C40.6284 90.0322 36.3752 87.802 33.9778 86.0999C32.9435 85.3698 28.8456 81.1744 28.2117 80.3159C27.826 79.7932 28.3079 78.982 27.8204 78.4824C27.1115 77.7566 25.385 77.3107 25.0522 76.4692C24.4749 75.0159 25.1375 73.7055 24.2266 72.1862C23.6985 71.3063 23.0754 70.2885 22.3725 69.491C21.5321 68.5346 20.1153 67.9858 19.6439 66.7979C19.1018 65.4314 20.2328 63.4602 19.7067 62.1357C19.4068 61.3772 18.0634 60.6025 18.2652 59.7728C18.4938 58.8258 19.0945 58.1206 18.7043 57.1337C17.9528 55.2401 16.1431 53.1207 16.5234 51.0155C16.8216 49.3714 18.6632 48.4238 18.8508 46.7183C19.0251 45.1391 17.7272 43.666 18.094 42.1566C18.3337 41.1667 19.8625 40.3936 20.1824 39.4603C20.4323 38.7315 20.0586 37.8638 20.1939 37.117C20.465 35.6163 23.1504 33.78 24.3513 32.6917C25.3805 31.7589 24.2422 30.375 24.7316 29.3546C26.8664 24.9134 35.2863 17.9375 35.6984 18.2206L35.6942 18.232Z" fill="#70995F"/>
<path d="M45.5702 40.1633C45.7199 38.2968 44.3281 36.6623 42.4615 36.5127C40.595 36.363 38.9605 37.7548 38.8108 39.6213C38.6612 41.4879 40.053 43.1223 41.9195 43.272C43.786 43.4217 45.4205 42.0299 45.5702 40.1633Z" fill="#242424"/>
<path d="M42.9735 47.9403C42.8904 46.7134 40.8391 45.8531 38.3918 46.0189C35.9446 46.1847 34.0281 47.3137 34.1112 48.5406C34.1943 49.7676 36.2456 50.6278 38.6928 50.462C41.1401 50.2963 43.0566 49.1672 42.9735 47.9403Z" fill="#DD6057"/>
<path d="M76.9169 45.5648C76.8338 44.3379 74.7825 43.4776 72.3353 43.6434C69.888 43.8092 67.9715 44.9382 68.0546 46.1652C68.1377 47.3921 70.189 48.2523 72.6363 48.0865C75.0835 47.9208 77 46.7917 76.9169 45.5648Z" fill="#DD6057"/>
<path d="M70.771 39.9761C71.9993 38.5627 71.8494 36.4212 70.4361 35.1929C69.0227 33.9645 66.8812 34.1144 65.6528 35.5278C64.4245 36.9411 64.5744 39.0827 65.9877 40.3111C67.4011 41.5394 69.5426 41.3894 70.771 39.9761Z" fill="#242424"/>
<path d="M59.6988 46.5298C60.128 46.9281 60.1067 47.5556 59.6205 48.3772C59.0862 49.2822 58.2672 49.9848 57.2915 50.3751C56.2894 50.7783 55.0903 50.9165 54.0456 50.6104C53.131 50.3424 50.9488 48.864 51.1068 47.7394C51.2688 46.5854 53.5517 46.251 54.4451 46.0871C55.7554 45.8459 58.6233 45.5257 59.6988 46.5298Z" fill="#242424"/>
<path fill-rule="evenodd" clip-rule="evenodd" d="M67.8397 36.8597C67.8519 37.0281 67.8139 37.1964 67.7304 37.3432C67.6469 37.49 67.5218 37.6088 67.3708 37.6844C67.2199 37.7601 67.0498 37.7893 66.8823 37.7683C66.7147 37.7474 66.5571 37.6772 66.4294 37.5666C66.3018 37.4561 66.2098 37.3101 66.1651 37.1473C66.1204 36.9844 66.125 36.812 66.1784 36.6517C66.2317 36.4915 66.3313 36.3507 66.4647 36.2471C66.5981 36.1435 66.7592 36.0818 66.9276 36.0698C67.0394 36.0618 67.1517 36.0758 67.258 36.1111C67.3644 36.1464 67.4627 36.2024 67.5474 36.2757C67.6321 36.3491 67.7015 36.4384 67.7516 36.5386C67.8018 36.6388 67.8317 36.7479 67.8397 36.8597Z" fill="white"/>
<path d="M41.4994 39.7013C41.8086 39.3455 41.7709 38.8063 41.4151 38.497C41.0592 38.1877 40.52 38.2255 40.2108 38.5813C39.9015 38.9372 39.9393 39.4763 40.2951 39.7856C40.651 40.0948 41.1901 40.0571 41.4994 39.7013Z" fill="white"/>
<path d="M94.7769 19.5575C92.7483 18.4052 91.3654 16.8853 90.2482 14.6903C89.3234 12.8823 88.8117 11.6564 88.2049 8.36697C88.1922 8.29338 88.1606 8.22428 88.1131 8.16632C88.0655 8.10836 88.0036 8.06352 87.9334 8.03613C87.8632 8.00874 87.7871 7.99972 87.7124 8.00996C87.6376 8.02019 87.5668 8.04934 87.5068 8.09456C87.3994 8.19012 87.3313 8.32141 87.3155 8.46341C87.1936 9.13721 86.593 13.2113 84.3438 15.833C83.3094 17.0383 81.7572 18.1822 80.2427 18.9452C80.1558 18.9887 80.086 19.0595 80.0441 19.1465C79.9988 19.2378 79.988 19.3421 80.0137 19.4406C80.0495 19.5523 80.1142 19.6529 80.2013 19.7323C80.7057 20.2434 83.6895 22.7542 85.1333 25.8519C86.2969 28.3446 86.7648 30.3009 86.9329 30.6818C86.9622 30.7624 87.0118 30.8343 87.077 30.8907C87.1423 30.947 87.221 30.9859 87.3057 31.0036C87.4201 31.0144 87.5348 30.9857 87.6302 30.9225C87.7257 30.8592 87.7962 30.7652 87.8296 30.6565C87.9868 30.2382 88.5607 28.0348 89.2527 26.6921C90.8549 23.5581 91.8491 22.9808 94.8573 20.2542C94.9082 20.2079 94.9474 20.1504 94.9717 20.0863C94.9961 20.0222 95.0049 19.9534 94.9974 19.8854C94.9896 19.8174 94.9655 19.7521 94.9272 19.6951C94.8888 19.6381 94.8373 19.591 94.7769 19.5575Z" fill="#FFD79B"/>
<path d="M15.7022 51.2476C14.6722 50.7782 13.6193 50.108 12.9371 49.427C11.4791 47.9759 11.1667 45.8407 11.1052 45.4873C11.0948 45.4071 11.0679 45.3301 11.0265 45.2614C10.985 45.1927 10.9298 45.1339 10.8647 45.0888C10.8026 45.0469 10.7321 45.0199 10.6585 45.0101C10.5849 45.0002 10.5101 45.0077 10.4397 45.0319C10.3592 45.0548 10.2859 45.0992 10.2274 45.1607C10.1689 45.2222 10.1272 45.2985 10.1065 45.382C9.6118 47.0716 9.23271 47.687 8.55577 48.5925C7.73511 49.6869 6.75303 50.4184 5.33874 50.9286C5.25225 50.9601 5.17565 51.0153 5.11707 51.0881C5.0585 51.1609 5.02013 51.2487 5.00603 51.3422C4.99194 51.4357 5.00265 51.5314 5.03702 51.6191C5.07139 51.7068 5.12815 51.7833 5.20127 51.8405C7.22064 53.4151 7.90174 53.7577 8.9359 55.4859C9.37955 56.2281 9.72323 57.4193 9.82217 57.6502C9.85586 57.747 9.9158 57.8318 9.99487 57.8945C10.0739 57.9573 10.1688 57.9952 10.2682 58.0039C10.3676 58.0126 10.4673 57.9917 10.5555 57.9437C10.6437 57.8956 10.7167 57.8225 10.7657 57.7329C10.8938 57.5353 11.2719 56.5041 12.155 55.2163C13.2308 53.6449 15.3616 52.4592 15.723 52.2089C15.8308 52.1447 15.9145 52.0449 15.9606 51.9257C16.0067 51.8064 16.0125 51.6746 15.9771 51.5516C15.9552 51.4835 15.9193 51.4211 15.8718 51.3686C15.8244 51.3161 15.7665 51.2749 15.7022 51.2476Z" fill="#FFD79B"/>
<path d="M28.5939 73.088C27.1881 72.3297 25.7539 71.247 24.8238 70.1469C22.8357 67.8045 22.4097 64.3532 22.3245 63.7824C22.3113 63.6527 22.275 63.5281 22.2184 63.4172C22.1617 63.3063 22.086 63.2119 21.9965 63.1404C21.9123 63.0723 21.8164 63.0286 21.7162 63.0126C21.6161 62.9967 21.5143 63.0089 21.4186 63.0484C21.3086 63.0848 21.2084 63.1562 21.1284 63.2552C21.0483 63.3543 20.9911 63.4775 20.9627 63.6123C20.2882 66.3417 19.7713 67.336 18.8483 68.7987C17.7293 70.5668 16.3917 71.7485 14.4619 72.5727C14.3439 72.6237 14.2395 72.7127 14.1596 72.8303C14.0798 72.948 14.0274 73.0898 14.0082 73.2409C13.989 73.3919 14.0036 73.5465 14.0505 73.6882C14.0973 73.8299 14.1747 73.9535 14.2744 74.0458C17.0293 76.5896 17.9565 77.1431 19.368 79.9367C19.973 81.1339 20.4416 83.06 20.5765 83.4313C20.6224 83.5877 20.7041 83.7247 20.812 83.826C20.9198 83.9273 21.0491 83.9887 21.1847 84.0027C21.3202 84.0168 21.4561 83.983 21.5764 83.9054C21.6967 83.8278 21.7961 83.7096 21.863 83.5649C22.0377 83.2456 22.5532 81.5799 23.7573 79.4994C25.2242 76.9609 28.1282 75.0453 28.6223 74.641C28.7693 74.5373 28.8834 74.3761 28.9463 74.1835C29.0091 73.9908 29.0171 73.7779 28.9688 73.5791C28.9383 73.4695 28.8891 73.3691 28.8244 73.2844C28.7598 73.1998 28.6813 73.1328 28.5939 73.088Z" fill="#FFD79B"/>
</svg>
