<svg width="100" height="106" viewBox="0 0 100 106" fill="none" xmlns="http://www.w3.org/2000/svg">
<path fill-rule="evenodd" clip-rule="evenodd" d="M33.3554 25.701L33.0238 25.1067L32.8276 24.7488L32.5679 24.2718L32.1613 23.5077C32.2012 23.3769 32.2188 23.2403 32.2132 23.1037L32.2149 22.7809C32.2286 21.7188 32.5683 20.6784 32.8978 19.6565C33.0189 19.3111 33.1615 18.9737 33.3248 18.6462C33.6092 18.5958 33.901 18.5674 34.1906 18.5297C35.0764 18.4107 35.922 18.0864 36.6602 17.5825C36.9355 17.7435 37.2473 17.8319 37.5662 17.8395C37.8851 17.8471 38.2007 17.7736 38.4834 17.6259C39.062 17.3378 39.4048 16.7679 39.7476 16.2304C39.7756 16.1875 39.7946 16.1393 39.8034 16.0889C39.8122 16.0384 39.8106 15.9867 39.7988 15.9368C39.787 15.8869 39.7653 15.84 39.7348 15.7988C39.7043 15.7576 39.6658 15.723 39.6215 15.6972C39.3297 15.523 39.0561 15.8941 39.0561 15.8941C38.8738 16.1811 38.7082 16.4805 38.4668 16.7139C38.3162 16.8584 38.1333 16.9647 37.9332 17.0241C37.7332 17.0834 37.5219 17.094 37.3169 17.055C37.391 16.9861 37.4634 16.916 37.5332 16.8433C38.1119 16.2386 38.495 15.5086 38.8963 14.7921C38.9237 14.7465 38.941 14.6955 38.9471 14.6426C38.9531 14.5897 38.9477 14.5362 38.9312 14.4856C38.9148 14.4349 38.8876 14.3884 38.8517 14.3492C38.8157 14.3099 38.7717 14.2789 38.7227 14.2581C38.646 14.223 38.6103 14.1809 38.416 14.2534C38.3428 14.2944 38.2795 14.3509 38.2305 14.419C38.0489 14.7433 37.8636 15.0665 37.6715 15.3853C37.4105 15.8205 37.0895 16.2168 36.7181 16.5627C36.7113 16.529 36.7039 16.4946 36.6962 16.4614C36.5611 15.9125 36.7785 15.3931 37.0933 14.9251C37.2824 14.6445 37.6 14.3891 37.4736 14.1142C37.3547 13.8558 36.9578 13.9302 36.9578 13.9302C36.9045 13.9604 36.856 13.9986 36.8142 14.0435C36.2573 14.6315 35.7986 15.4657 35.8888 16.3206C35.9062 16.5771 35.9736 16.8279 36.0871 17.0586C35.8595 17.208 35.6186 17.3359 35.3674 17.4407C34.8326 17.6618 34.2532 17.7351 33.6776 17.8166C34.1969 16.3925 34.7623 14.9648 35.0089 13.461C35.0256 13.3469 35.0421 13.2381 35.0557 13.1258C35.864 12.8555 36.4299 11.9699 36.6173 11.0874C36.7421 10.4982 36.6451 9.71308 36.6451 9.71308C36.5775 9.62673 36.6508 9.67951 36.5186 9.60434L36.39 9.56259C36.2973 9.54676 36.202 9.56672 36.1234 9.61848C36.0449 9.67023 35.9889 9.74991 35.9669 9.84136C35.9544 9.90163 35.9531 9.96366 35.9629 10.0244C35.9557 10.7683 35.7711 11.7662 35.1132 12.2463C35.125 11.6805 35.0986 11.1117 35.0706 10.5438C35.0641 10.4826 35.0435 10.4238 35.0105 10.372C34.9774 10.3201 34.9327 10.2767 34.88 10.245C34.8273 10.2134 34.768 10.1944 34.7067 10.1896C34.6454 10.1848 34.5838 10.1942 34.5268 10.2172C34.4918 10.2317 34.46 10.2529 34.4332 10.2796C34.2706 10.4268 34.3161 10.7391 34.3161 10.7391C34.3296 10.9977 34.3456 11.257 34.3567 11.517C34.3681 11.8078 34.3639 12.099 34.3442 12.3893C34.2616 12.3659 34.1845 12.3261 34.1176 12.2723C34.0506 12.2186 33.9952 12.1519 33.9545 12.0763C33.669 11.5003 33.6298 10.8208 33.5492 10.1454C33.5145 9.85194 33.3495 9.69643 33.1299 9.71245C33.0837 9.71438 33.0384 9.72594 32.997 9.74638C32.945 9.7718 32.8991 9.80823 32.8626 9.85312C32.8261 9.89801 32.7998 9.95029 32.7856 10.0064C32.7756 10.0424 32.7718 10.08 32.7744 10.1173L32.8329 10.6133C32.8414 10.7139 32.8553 10.814 32.8744 10.9132C33.0728 11.8539 33.3552 13.0272 34.2424 13.1848L34.2611 13.1865C34.117 14.0864 33.8893 14.971 33.581 15.8287C33.388 16.3831 33.2057 16.9523 32.9882 17.5021C32.6597 16.6563 32.3143 15.7576 31.9189 14.8501C31.9684 14.8153 32.017 14.7788 32.0648 14.7408C32.5617 14.3348 32.636 13.6545 32.5313 13.0641C32.5191 12.9959 32.5061 12.9282 32.491 12.8606C32.476 12.793 32.4535 12.7015 32.4338 12.622C32.3574 12.3286 32.2898 11.9184 31.9991 11.7299C31.7929 11.5971 31.8225 11.6229 31.6296 11.705L31.6123 11.715C31.5475 11.7468 31.4937 11.7972 31.4578 11.8598C31.4219 11.9225 31.4056 11.9944 31.4109 12.0664C31.4185 12.1558 31.453 12.2408 31.5098 12.3102C31.7332 12.7151 31.8826 13.2672 31.8077 13.7545C31.781 13.9028 31.7097 14.0394 31.6034 14.1462C31.3453 13.5942 31.0696 13.0407 30.7584 12.5016C30.6258 12.272 30.4575 12.0819 30.3503 11.8564C30.3067 11.7695 30.2328 11.7015 30.1424 11.6655C30.0521 11.6294 29.9517 11.6278 29.8602 11.6608C29.8126 11.6762 29.7692 11.7023 29.7333 11.7372C29.6975 11.772 29.6701 11.8146 29.6534 11.8617L29.6233 11.969C29.6131 12.0888 29.6105 12.0192 29.6296 12.1011C29.6922 12.367 29.9265 12.5901 30.0743 12.8443C30.3585 13.3364 30.6237 13.8374 30.8755 14.346C30.4778 14.1891 30.1047 13.7347 29.8175 13.3206C29.7922 13.2725 29.7572 13.23 29.7147 13.1959C29.6722 13.1619 29.6232 13.1369 29.5706 13.1227C29.5181 13.1084 29.4631 13.1051 29.4093 13.113C29.3554 13.1209 29.3037 13.1398 29.2575 13.1686C28.9771 13.3597 29.1128 13.6564 29.2387 13.822C29.6551 14.3621 30.1736 15.0104 30.8628 15.1401C30.9917 15.1628 31.1236 15.1621 31.2522 15.1378C31.3096 15.2625 31.3668 15.3851 31.4235 15.5123C31.8348 16.4346 32.1382 17.4234 32.5162 18.3785C32.5288 18.4137 32.5436 18.4501 32.5605 18.4877C32.0907 19.5387 31.7527 20.6438 31.5543 21.7779C31.5281 21.9278 31.5122 22.0759 31.5002 22.227L31.262 21.7565L31.0231 21.2758L30.7308 20.6736L30.1647 19.4686L29.6888 18.4092L29.5678 18.1363L29.1379 17.1672L28.805 16.4097L28.4388 15.5836L28.0474 14.701L27.8443 14.2426L27.4258 13.3024L26.9185 12.1431C26.9381 12.1315 26.9566 12.118 26.9736 12.1029C27.8388 11.292 28.564 10.3437 29.1199 9.29642C29.2647 9.02665 29.3787 8.74144 29.4597 8.44618C29.8984 8.38066 30.2995 8.16132 30.5913 7.82733C30.8736 7.47164 31.0067 7.02017 30.9625 6.56821C30.9305 6.10392 30.421 6.02302 30.2482 6.3046C30.2117 6.37909 30.1935 6.46121 30.1952 6.54413C30.2265 6.75811 30.1877 6.97644 30.0847 7.16659C29.9817 7.35674 29.82 7.50849 29.6237 7.5992C29.6777 7.06884 29.6748 6.53424 29.6152 6.00449C29.6062 5.92922 29.5972 5.85394 29.5895 5.77901C29.5857 5.72992 29.5721 5.68209 29.5496 5.63831C29.527 5.59452 29.496 5.55569 29.4583 5.52405C29.4206 5.49241 29.3769 5.4686 29.3299 5.45404C29.2828 5.43949 29.2334 5.43447 29.1844 5.43928C29.1375 5.44076 29.0915 5.45266 29.0498 5.47412C28.8261 5.5897 28.8392 5.9092 28.8392 5.9092C28.912 6.50216 28.9071 7.10209 28.8247 7.6938C28.7216 7.67235 28.6219 7.63714 28.5281 7.58915C28.1466 7.39152 27.9535 6.87611 27.9864 6.41928C28.0057 6.19921 27.913 5.97166 27.7058 5.9241C27.6404 5.90856 27.6002 5.88059 27.4447 5.95682C27.3543 6.02298 27.2853 6.11405 27.2459 6.21887C27.1778 6.52984 27.2429 6.86322 27.3302 7.17743C27.4136 7.48805 27.5816 7.7694 27.8157 7.99001C28.0497 8.21063 28.3404 8.36186 28.6554 8.42677C28.5751 8.67836 28.467 8.9202 28.3331 9.14784C28.004 9.72567 27.6289 10.276 27.2112 10.7934C27.0456 10.9934 26.7853 11.1887 26.5861 11.381L26.1247 10.3267L25.7847 9.59835L25.1293 8.17545C25.3178 8.0458 25.4886 7.89202 25.6373 7.71806C25.9587 7.11461 25.9724 6.44529 25.8599 5.79247C25.7763 5.31832 25.3582 4.60155 25.3582 4.60155C25.3193 4.54351 25.2641 4.49821 25.1995 4.47137C25.135 4.44453 25.0639 4.43734 24.9953 4.45065C24.9571 4.45505 24.9202 4.46648 24.8862 4.48436C24.8001 4.54583 24.7307 4.6279 24.6845 4.72308C24.671 4.82372 24.6838 4.92614 24.7214 5.02045C24.836 5.23035 24.9393 5.4462 25.031 5.6671C25.2445 6.18535 25.311 7.03716 24.8923 7.43566C24.8685 7.45776 24.8441 7.47706 24.8221 7.495L24.4957 6.78487L24.1094 5.95473L23.7257 5.14181L23.6043 4.88805L23.5566 4.78915L23.5421 4.76407L23.5124 4.72167L23.435 4.64728L23.3396 4.59786L23.1794 4.57746L23.0254 4.62564L22.9046 4.73301L22.837 4.87652L22.8382 5.0378L22.9307 5.26333L23.331 6.13765L23.7999 7.14691L23.9766 7.52546L24.0557 7.69504C23.7133 7.63339 23.3932 7.48272 23.1275 7.25819C23.041 7.19134 22.9593 7.11836 22.8833 7.03977C22.7416 6.90245 22.6081 6.75697 22.4834 6.60406C22.3284 6.39891 22.1145 6.32701 21.9296 6.44108C21.7099 6.57629 21.7268 6.87161 21.874 7.06871C21.9743 7.19599 22.0817 7.31746 22.1958 7.4325C22.7122 7.965 23.4888 8.54269 24.332 8.48113C24.3598 8.47865 24.3854 8.4743 24.4124 8.47025L24.8149 9.34848L25.4385 10.7344L25.7588 11.4501L25.8903 11.7431L25.718 11.7631C24.8591 11.8609 24.0657 11.6158 23.3316 11.2602C23.3936 11.127 23.4377 10.9863 23.463 10.8416C23.5794 10.1475 23.3608 9.50467 22.6861 8.79924C22.4932 8.59718 22.2369 8.3596 21.9839 8.4733L21.9627 8.48551C21.8973 8.51992 21.844 8.57352 21.81 8.63912C21.7759 8.70472 21.7628 8.77918 21.7723 8.85247C21.7859 8.94602 21.829 9.03277 21.8954 9.10007C22.4107 9.56737 22.7979 10.3249 22.6272 10.8906C22.1335 10.6134 21.656 10.3124 21.1946 9.98738C20.9492 9.81564 20.7722 9.596 20.5327 9.61727C20.4889 9.61967 20.4459 9.63093 20.4066 9.65037L20.3847 9.66303C19.9834 9.89468 20.2401 10.2397 20.4772 10.4152C20.9571 10.765 21.4972 11.1522 22.0724 11.4951C21.6068 11.7346 21.0702 11.6756 20.6086 11.4155C20.0668 11.1014 19.8325 11.7831 20.1213 12.0103C20.4102 12.2374 20.7985 12.3507 21.1741 12.4149C21.4715 12.4575 21.7746 12.4347 22.0621 12.3479C22.3497 12.2611 22.6148 12.1125 22.8389 11.9124C23.6508 12.3088 24.5188 12.5798 25.4043 12.5554C25.6721 12.5416 25.9383 12.5057 26.2002 12.4481L26.293 12.6578L26.6781 13.5492L26.9176 14.1685L27.1449 14.7613L27.3613 15.3333L27.6755 16.1653L28.0385 17.1197L28.36 17.9372L28.8467 19.1566L29.1294 19.8417L29.5442 20.8153L29.9691 21.783L30.2419 22.3893L30.4002 22.7305C29.4488 22.0761 28.39 21.5851 27.3319 21.1585C27.1308 21.0781 26.9303 21.0058 26.7228 20.9397C26.7141 20.9154 26.7079 20.9012 26.7079 20.9012C26.317 20.3678 25.9806 19.7966 25.7036 19.196C25.6891 19.171 25.6891 19.171 25.6801 19.1427C25.5818 18.9163 25.481 18.6893 25.3818 18.4613C26.1064 18.0242 26.3718 17.0633 26.2816 16.3317C26.2711 16.272 26.2471 16.2155 26.2113 16.1666C26.1755 16.1176 26.129 16.0776 26.0753 16.0494C26.0216 16.0213 25.9622 16.0058 25.9016 16.0042C25.841 16.0027 25.7809 16.015 25.7258 16.0403C25.5395 16.1375 25.5191 16.4062 25.5191 16.4062C25.5495 16.6944 25.5187 16.9856 25.4285 17.261C25.3613 17.4501 25.236 17.6131 25.0706 17.7268C24.9837 17.5021 24.9 17.2757 24.8298 17.0456C24.6149 16.3494 24.4012 15.2608 24.2208 15.0244C24.1813 14.9777 24.1317 14.9406 24.0758 14.9158C24.0199 14.8911 23.9592 14.8794 23.8981 14.8816C23.7442 14.892 23.8145 14.8943 23.7552 14.9201C23.5043 15.0556 23.571 15.41 23.571 15.41C23.7054 15.8401 23.8155 16.275 23.9371 16.7063C24.052 17.1154 24.18 17.5127 24.3188 17.8996C24.1278 17.8747 23.9473 17.7984 23.7964 17.6788C23.5085 17.448 23.3439 16.8952 22.9866 16.9458C22.9446 16.95 22.9039 16.9625 22.8668 16.9826L22.848 16.9935C22.6199 17.1324 22.6267 17.3866 22.7505 17.592C23.169 18.2824 23.9073 18.716 24.625 18.6851C24.9037 19.3511 25.2308 19.9958 25.6038 20.614C25.093 20.4784 24.5807 20.3511 24.0741 20.1995C23.3407 19.9736 22.645 19.6396 22.01 19.2086C22.3996 18.4717 22.241 17.5528 21.8016 16.8369C21.7364 16.7241 21.6888 16.6054 21.5061 16.5478C21.4142 16.5351 21.3207 16.5431 21.2323 16.5711C21.1843 16.5958 21.1418 16.63 21.1074 16.6715C21.0731 16.7131 21.0475 16.7612 21.0323 16.813C21.0216 16.8476 21.017 16.8838 21.0189 16.92L21.0806 17.1247C21.3263 17.5178 21.4971 17.904 21.4721 18.3311C21.4626 18.4741 21.4269 18.6141 21.3667 18.7441C20.8108 18.3045 20.2797 17.8343 19.7761 17.3355C19.6213 17.2013 19.5865 17.188 19.3787 17.2516C18.942 17.4399 19.2715 17.9111 19.3236 17.9615C19.8011 18.4266 20.2867 18.8912 20.8038 19.3146C20.704 19.3641 20.5954 19.3931 20.4842 19.4001C20.373 19.4071 20.2616 19.3918 20.1564 19.3551C19.9234 19.2546 19.6981 19.137 19.4822 19.0035C19.245 18.8678 18.9637 18.9288 18.8706 19.1477C18.7665 19.398 19.0385 19.6285 19.0385 19.6285C19.2612 19.7518 19.4818 19.895 19.7157 19.9961C20.0007 20.1137 20.3103 20.159 20.617 20.1278C20.9237 20.0965 21.2179 19.9898 21.4733 19.8172C22.5921 20.5714 23.8949 20.9476 25.1869 21.2726C24.6572 21.6964 24.057 22.0235 23.4138 22.2389C23.3997 22.1944 23.3826 22.1508 23.3626 22.1086C22.9492 21.2878 22.1607 21.0838 21.3983 20.9795C20.9961 20.9234 20.5809 20.8559 20.2395 21.0029C20.2154 21.0147 20.1921 21.0282 20.1698 21.0431C20.0504 21.135 20.0946 21.0939 20.0488 21.1955L20.0206 21.2933C19.9645 21.73 20.5213 21.7137 20.5213 21.7137C20.703 21.7018 20.8852 21.7013 21.0669 21.7121C21.619 21.7382 22.52 21.9504 22.68 22.4212C22.6098 22.4335 22.5387 22.4443 22.4674 22.453C21.5916 22.5648 20.7115 22.5442 19.8252 22.522C19.7437 22.5115 19.6608 22.5197 19.5829 22.5459C19.2368 22.7029 19.392 23.0856 19.392 23.0856C19.4712 23.2227 19.4907 23.271 19.7245 23.2833C20.2807 23.3038 20.8386 23.3109 21.3939 23.2954C21.7568 23.2834 22.1939 23.2441 22.4614 23.2171C22.2521 23.4687 21.9809 23.6613 21.6744 23.776C21.3468 23.8962 20.9428 23.8661 20.6362 23.9575C20.3956 24.0295 20.3592 24.341 20.3592 24.341C20.36 24.4073 20.3789 24.472 20.4139 24.5282C20.449 24.5845 20.4988 24.63 20.5579 24.6599C20.6352 24.6969 20.7214 24.7113 20.8065 24.7013C21.0854 24.6614 21.3685 24.6286 21.6464 24.5726C22.4282 24.4138 23.1749 23.7362 23.4047 23.0267C24.1817 22.8096 24.9106 22.4473 25.5528 21.9589C25.7409 21.8226 25.9205 21.675 26.0906 21.5168C27.7214 22.0087 29.3536 22.7674 30.6831 23.9046C30.8416 24.0398 31.0115 24.2092 31.1812 24.3692L31.3151 24.6409L31.4307 24.872L31.6235 25.2528L31.6998 25.4031L31.8535 25.702L32.2377 26.4362L32.7738 27.439L33.0783 28.0008L33.8374 29.3806L34.6648 30.8808L34.7426 31.0155L34.8204 31.1503L34.9272 31.3353L34.9878 31.4403L35.1905 31.7913L35.3421 32.0538L35.6001 32.4827L35.7414 32.7146L36.0934 33.2845L36.1431 33.3707L36.3067 33.6305L36.3583 33.7198L36.5853 34.0787L36.7026 34.2618L36.7573 34.3567L36.9374 34.6361L36.9982 34.7306L37.1823 35.015L37.4329 35.4001L37.7514 35.8849L37.8161 35.9824L38.1397 36.4705L38.4652 36.9565L38.5956 37.1497L38.7255 37.3422L39.0495 37.8165L39.1139 37.91L39.2414 38.0965L39.3692 38.2798L39.5586 38.5517L39.806 38.9042L39.8675 38.9909L39.9888 39.1612L40.0486 39.2448L40.1672 39.4103L40.3418 39.6512L40.4561 39.8077L40.51 39.8811L40.6185 40.0274L40.6732 40.1003L41.1821 40.7646L41.2969 40.9073L41.3192 40.9352L41.3415 40.9631L41.3866 41.0175L41.408 41.0438L41.5355 41.1958L41.5564 41.2193L41.5961 41.2664L41.657 41.3357L41.6757 41.3573L41.6953 41.3784L41.714 41.4L41.769 41.4591L41.8956 41.548L42.0471 41.5807L42.1993 41.5492L42.3265 41.4601L43.1846 40.5467L43.2595 40.4304L43.2863 40.2958L43.2651 40.1596L43.1959 40.0397L42.4735 39.1811L42.0034 38.6166L41.8429 38.4219L41.2716 37.7237L40.2865 36.488L40.2061 36.385L40.1253 36.2812L39.6155 35.6153L39.5772 35.5653L39.464 35.4144L39.4265 35.364L39.0628 34.8697L38.8233 34.5346L38.7905 34.4868L38.505 34.0738L38.4783 34.0275L38.2876 33.7406L37.9243 33.1856L37.634 32.7388L37.3443 32.2896L36.9828 31.7251L35.7651 29.7805L35.5521 29.4333L35.4842 29.3158L35.4164 29.1983L35.2759 28.9659L35.2081 28.8483L34.9974 28.4998L34.9291 28.3814L34.2387 27.2128L33.7623 26.3876L33.3554 25.701ZM37.3037 14.6125L37.2778 14.6274C37.3474 14.5924 37.3064 14.6119 37.3064 14.6119L37.3037 14.6125ZM36.1082 10.2508C36.1023 10.2407 36.0914 10.2344 36.0836 10.2264C36.1625 10.2978 36.1087 10.2516 36.1087 10.2516L36.1082 10.2508ZM29.833 13.3692C29.8294 13.3629 29.824 13.3409 29.833 13.3692V13.3692ZM30.3813 12.0151L30.3803 12.0459C30.3803 12.0459 30.3807 11.9977 30.3818 12.0159L30.3813 12.0151ZM20.7362 21.5447C20.6841 21.6354 20.767 21.484 20.7362 21.5447V21.5447ZM20.7739 21.4435C20.7747 21.4357 20.7767 21.4283 20.7779 21.4214C20.7555 21.5962 20.7713 21.468 20.7737 21.4467L20.7739 21.4435ZM20.8328 24.707C20.7839 24.7164 20.8902 24.6906 20.8328 24.707V24.707ZM23.6194 15.4938L23.609 15.4758C23.5764 15.4194 23.6223 15.4953 23.6223 15.4953L23.6194 15.4938Z" fill="#A5C499"/>
<path fill-rule="evenodd" clip-rule="evenodd" d="M35.7698 38.8896C35.0454 38.5771 34.3219 38.2662 33.5993 37.9569C33.5604 37.8895 33.5206 37.8206 33.4863 37.7484C33.361 37.3506 33.1602 36.9828 32.9917 36.6004C32.6787 35.8774 32.3317 35.1677 31.9599 34.4712C31.9729 34.4471 31.9843 34.422 31.9939 34.3962C32.1405 33.7761 32.2528 33.1483 32.3302 32.5157C32.9188 32.321 33.4076 31.9034 33.6918 31.3524C33.7168 31.3035 33.7224 31.295 33.7677 31.1926C33.9041 30.8641 33.5334 30.5641 33.2498 30.6954C33.1749 30.7421 33.1127 30.8067 33.0689 30.8834C32.9391 31.1946 32.7124 31.4556 32.4224 31.6276C32.432 31.5103 32.4404 31.3926 32.4487 31.275C32.4879 30.8618 32.4926 30.446 32.4625 30.032C32.4196 29.6085 32.3124 29.126 31.9749 29.135C31.9258 29.1341 31.8773 29.145 31.8332 29.1666L31.8121 29.1788C31.577 29.3145 31.6168 29.6133 31.6168 29.6133C31.6892 29.9067 31.7255 30.2079 31.725 30.5101C31.7252 30.5956 31.7267 30.6198 31.7181 30.7805C31.7035 31.0243 31.6858 31.2675 31.665 31.5101C31.5155 31.2978 31.4064 31.0597 31.3431 30.8078L31.3047 30.6545C31.2924 30.6041 31.2911 30.5965 31.2592 30.4906C31.2377 30.4241 31.1989 30.3646 31.1467 30.3181C31.0945 30.2716 31.0309 30.2399 30.9624 30.2262C30.8976 30.2135 30.8682 30.1897 30.7197 30.2619L30.7056 30.2701C30.6457 30.3012 30.5957 30.3485 30.5613 30.4066C30.5269 30.4647 30.5094 30.5312 30.5109 30.5987C30.5101 30.6317 30.5139 30.6647 30.5224 30.6966C30.5224 30.6966 30.575 30.8981 30.6146 31.0372C30.7573 31.5703 31.165 32.2439 31.5647 32.4802C31.5221 32.8154 31.4708 33.1488 31.4107 33.4802C31.3089 33.3039 31.2076 33.1283 31.1003 32.9552C30.7134 32.3249 30.2813 31.7176 29.8362 31.1168C29.9352 30.936 30.0083 30.7422 30.0534 30.5411C30.1551 30.0947 30.0538 29.5555 29.9193 29.0565C29.8504 28.8016 29.7797 28.4799 29.5483 28.3741C29.457 28.3318 29.4302 28.2835 29.2237 28.3766L29.2081 28.3857C28.9314 28.5454 29.0613 28.9187 29.0613 28.9187C29.2436 29.2219 29.2818 29.6209 29.3198 29.9908C29.3352 30.1306 29.3259 30.2721 29.2926 30.4088C28.87 29.8723 28.4357 29.3425 28.0007 28.8153C27.8749 28.6789 27.7866 28.6254 27.5663 28.7035C27.21 28.8664 27.412 29.3014 27.412 29.3014C27.8291 29.8066 28.2453 30.3123 28.6558 30.8224C28.6733 30.8436 28.6888 30.865 28.7055 30.8867C28.3315 30.8017 27.9973 30.5287 27.7092 30.2614C27.6762 30.2314 27.673 30.2258 27.5932 30.1528C27.5493 30.1116 27.4958 30.0821 27.4375 30.0668C27.3792 30.0516 27.3181 30.0511 27.2596 30.0654C27.2294 30.0714 27.2001 30.0817 27.1727 30.0958C26.7992 30.2905 27.078 30.7136 27.078 30.7136C27.6582 31.2698 28.53 31.8604 29.2819 31.6353C29.7702 32.3 30.232 32.9895 30.659 33.7021C30.1428 33.4634 29.6089 33.2648 29.0622 33.1079C29.0073 32.9693 28.9677 32.8229 28.9115 32.684C28.7043 32.1767 27.9358 31.2945 27.3893 31.5641C27.3035 31.6053 27.2369 31.6782 27.2035 31.7673C27.1701 31.8565 27.1724 31.9552 27.21 32.0426C27.2528 32.1315 27.3224 32.2046 27.4091 32.2516C27.7093 32.3832 27.966 32.5973 28.1491 32.8692C27.6415 32.7537 27.127 32.6569 26.6064 32.5678C26.4895 32.5464 26.4356 32.4982 26.2486 32.5852C26.1882 32.6117 26.1377 32.6566 26.1043 32.7135C25.8813 33.0512 26.3835 33.3056 26.3835 33.3056C26.8487 33.364 27.3078 33.4751 27.7703 33.5613C27.8563 33.5764 27.9426 33.5955 28.028 33.6131C27.8089 33.7686 27.5491 33.8565 27.2806 33.8659C27.1764 33.8665 27.202 33.8475 27.0794 33.9048C26.7833 34.0579 26.7023 34.6323 27.2588 34.6298C27.5745 34.6231 27.8852 34.5494 28.1702 34.4134C28.4553 34.2775 28.7081 34.0825 28.912 33.8414C29.5479 34.0386 30.165 34.2917 30.7562 34.5978C30.9633 34.705 31.1586 34.8315 31.3395 34.9078C31.618 35.4324 31.8792 35.965 32.1229 36.5054C32.2764 36.8473 32.4436 37.1802 32.5881 37.521C31.6059 37.1101 30.6194 36.71 29.6228 36.3357C28.1564 35.7864 26.6175 35.233 25.0596 34.6864C25.0625 34.6543 25.0614 34.6219 25.0563 34.5901C25.0089 34.2946 24.9903 33.9908 24.9324 33.6951C24.8232 33.1953 24.6201 32.7209 24.3341 32.2967C24.5495 31.9323 24.6319 31.5044 24.5671 31.086C24.485 30.611 24.1308 29.849 23.7079 29.9291C23.6715 29.9349 23.6364 29.9471 23.6043 29.965C23.2667 30.1494 23.4856 30.5485 23.4856 30.5485C23.6509 30.7388 23.7641 30.9686 23.8143 31.2155C23.8367 31.3363 23.8374 31.4601 23.8164 31.5811C23.7472 31.4956 23.6768 31.4099 23.6057 31.3266C23.2762 30.9369 22.8683 30.2592 22.4263 30.4402L22.4036 30.4533C22.3378 30.4857 22.2834 30.5373 22.2475 30.6013C22.2117 30.6653 22.1962 30.7386 22.203 30.8116C22.2129 30.9043 22.2519 30.9915 22.3144 31.0607C22.6844 31.4153 23.0311 31.7935 23.3524 32.1927C23.2368 32.2383 23.1088 32.2416 22.991 32.2018C22.6667 32.0871 22.2669 31.4455 21.919 31.6934C21.463 32.0183 22.0986 32.6993 22.7395 32.9227C22.9103 32.9883 23.0934 33.0153 23.2758 33.0017C23.4582 32.9882 23.6353 32.9345 23.7945 32.8444C23.9134 33.049 24.0139 33.2637 24.0949 33.4859C24.188 33.7848 24.2469 34.0932 24.2705 34.4054C23.542 34.151 22.8138 33.8989 22.0858 33.6491C22.1096 33.0315 21.7063 32.4054 21.1512 32.005C20.9191 31.8381 20.7074 31.6343 20.4561 31.6895C20.4277 31.6953 20.4001 31.7048 20.3743 31.718C20.2909 31.7596 20.2251 31.8295 20.1886 31.9153C20.1521 32.0011 20.1475 32.097 20.1754 32.186C20.2137 32.2787 20.2813 32.3564 20.3678 32.4071C20.8048 32.6772 21.2067 32.9969 21.3063 33.3793C20.8695 33.2271 20.4326 33.0802 19.9892 32.9674C19.8328 32.9281 19.8736 32.9391 19.7561 32.9672C19.6989 32.987 19.647 33.0198 19.6047 33.063C19.5623 33.1063 19.5306 33.1588 19.5121 33.2165C19.4936 33.2741 19.4887 33.3353 19.4979 33.3951C19.5071 33.4549 19.5301 33.5118 19.5651 33.5612C19.6229 33.6258 19.6963 33.6745 19.7783 33.7025C20.2186 33.8118 20.6562 33.9563 21.0882 34.1091C21.0107 34.1884 20.9108 34.2421 20.8019 34.2629C20.7779 34.2684 20.753 34.2723 20.7281 34.2762C20.2229 34.3495 19.8686 34.085 19.5648 34.2322C19.4797 34.2796 19.415 34.3567 19.383 34.4488C19.351 34.5408 19.3539 34.6415 19.3913 34.7315C19.4588 34.8774 19.6235 34.9401 19.7844 34.9726C19.9039 34.9987 20.0279 35.018 20.15 35.0321C20.7573 35.0995 21.5511 34.9253 21.8358 34.3723C22.6264 34.6451 23.4175 34.9198 24.2089 35.1963L24.1995 35.2018L24.1901 35.2072L24.1807 35.2126L24.1639 35.2307L24.1488 35.2478L24.1323 35.2646L24.1151 35.2818L24.0987 35.2986L24.0823 35.3154L24.0646 35.3319L24.0474 35.3491L24.0298 35.3656L24.0121 35.382L23.9917 35.3938L23.9733 35.4107L23.9544 35.4269L23.9363 35.4426L23.9151 35.4548L23.894 35.467L23.8728 35.4792L23.8509 35.4919L23.8297 35.5041L23.8078 35.5168L23.7866 35.529L23.7647 35.5416L23.7427 35.5543L23.7208 35.567L23.6988 35.5797L23.6769 35.5923L23.6542 35.6054L23.6322 35.6181L23.6095 35.6312L23.55 35.6656L23.5272 35.6787L23.3439 35.7846C23.2587 35.6712 23.1568 35.5715 23.0415 35.489C22.4858 35.1255 21.6616 34.9086 21.0743 35.1798C20.995 35.2142 20.9308 35.2759 20.893 35.3536C20.8553 35.4314 20.8467 35.52 20.8686 35.6036C20.9266 35.8741 21.322 35.8966 21.322 35.8966C21.6846 35.8189 22.0746 35.7923 22.3796 35.9641C22.4388 35.9978 22.4384 36.0043 22.5956 36.11L22.5783 36.12L22.5529 36.1284L22.5267 36.1373L22.5008 36.1449L22.4753 36.1533L22.4494 36.161L22.424 36.1694L22.3981 36.177L22.3722 36.1847L22.3459 36.1915L22.3208 36.1987L22.2949 36.2063L22.2693 36.2127L22.243 36.2196L22.2179 36.2268L22.1923 36.2332L22.166 36.24L22.1407 36.2452L22.1152 36.2516L22.0896 36.258L22.0636 36.2636L22.0388 36.2695L22.0128 36.2751L21.9876 36.2803L21.9623 36.2855L21.9371 36.2906L21.9119 36.2958L21.8866 36.301L21.8618 36.3049L21.8365 36.3101L21.8116 36.314L21.7872 36.3187L21.7623 36.3226L21.7374 36.3265L21.7133 36.33L21.6884 36.3339L21.6643 36.3374L21.6402 36.3409L21.616 36.3444L21.5919 36.3478L21.5686 36.3509L21.544 36.3536L21.5207 36.3566L21.4566 36.3633L21.3809 36.3715L21.2959 36.3798L21.2044 36.3898L21.1061 36.4005L21.0074 36.4105L20.9083 36.4197L20.8595 36.4238L20.8111 36.4288L20.7635 36.4333L20.718 36.4376L20.6732 36.4415L20.6305 36.4453L20.5901 36.4477L20.5514 36.4513L20.5163 36.4538L20.484 36.4557L20.4549 36.4579L20.4299 36.4598L20.4206 36.4599L20.4127 36.4644L20.401 36.4639L20.3749 36.4622L20.3494 36.4634L20.3236 36.4657L20.2975 36.4693L20.2719 36.4757L20.2473 36.4837L20.223 36.4924L20.2003 36.5056L20.1549 36.5318L20.1329 36.5445L20.1129 36.5623L20.0949 36.58L20.0771 36.5997L20.0609 36.6205L20.0472 36.642L20.0339 36.6643L20.0223 36.6877L20.0125 36.7122L20.0046 36.7366L19.9972 36.7618L19.993 36.7872L19.9906 36.8137L19.9889 36.8397L19.9893 36.8656L19.9916 36.8915L19.996 36.9171L20.0024 36.9427L20.0096 36.9678L20.02 36.9858L20.0308 37.0046L20.0412 37.0227L20.0521 37.0415L20.063 37.0603L20.0756 37.0822L20.0918 37.1011L20.1095 37.1191L20.1283 37.1354L20.1479 37.1513L20.1652 37.1632L20.1829 37.1739L20.2013 37.1841L20.2201 37.1931L20.2375 37.1998L20.255 37.2064L20.2727 37.2119L20.2846 37.2144L20.3097 37.2198L20.3326 37.2233L20.3546 37.2252L20.3741 37.2265L20.39 37.2267L20.4053 37.2262L20.4187 37.2258L20.4321 37.2254L20.4467 37.2253L20.4608 37.2245L20.4757 37.2232L20.5064 37.2222L20.5403 37.2193L20.5767 37.2171L20.6146 37.214L20.6558 37.2112L20.6985 37.2074L20.7433 37.2035L20.7893 37.1999L20.8369 37.1954L20.8857 37.1913L20.9352 37.1867L20.9856 37.1816L21.0848 37.1724L21.184 37.1633L21.2827 37.1533L21.3761 37.1432L21.462 37.1344L21.5397 37.1261L21.6066 37.1188L21.6339 37.1156L21.6621 37.1119L21.6895 37.1086L21.7176 37.1049L21.7458 37.1012L21.7739 37.0974L21.8021 37.0937L21.8306 37.0888L21.8587 37.085L21.8872 37.0801L21.9157 37.0752L21.9442 37.0702L21.9727 37.0652L22.0019 37.0598L22.0304 37.0549L22.0592 37.0487L22.0885 37.0433L22.1173 37.0371L22.1461 37.0309L22.175 37.0247L22.2042 37.0193L22.2334 37.0119L22.2622 37.0057L22.2918 36.9991L22.3209 36.9916L22.3505 36.985L22.3797 36.9776L22.4088 36.9701L22.4388 36.9623L22.4675 36.9541L22.4974 36.9462L22.5273 36.9383L22.556 36.9301L22.5855 36.9214L22.615 36.9128L22.6445 36.9041L22.6739 36.8955L22.7038 36.8856L22.7332 36.8769L22.763 36.867L22.7921 36.8575L22.8219 36.8476L22.8509 36.8382C22.8397 36.9708 22.7911 37.0974 22.7107 37.2034C22.5261 37.4374 22.1584 37.5045 21.8426 37.6C21.4691 37.706 21.411 38.1303 21.6593 38.3014C21.7544 38.3562 21.8659 38.3755 21.9739 38.3559C22.182 38.2991 22.3868 38.231 22.5876 38.1521C23.3978 37.8379 23.654 37.1759 23.6092 36.5174L23.6343 36.5029L23.9626 36.3134L23.99 36.2975L24.0174 36.2817L24.0441 36.2663L24.0715 36.2505L24.0989 36.2347L24.1264 36.2188L24.1538 36.203L24.1804 36.1876L24.2079 36.1718L24.2345 36.1564L24.2619 36.1406L24.2863 36.1213L24.3137 36.1054L24.3377 36.0853L24.3628 36.0656L24.3868 36.0455L24.4107 36.0254L24.4346 36.0053L24.4589 35.984L24.482 35.9644L24.5051 35.9427L24.5286 35.9218L24.5516 35.9002L24.5746 35.8786L24.5964 35.8566L24.6189 35.8342L24.6407 35.8122L24.6633 35.7897L24.6846 35.767L24.706 35.7442L24.7265 35.7219L24.7372 35.7095L24.7477 35.6971L24.758 35.6859L24.7686 35.6735L24.7789 35.6624L24.7887 35.6504L24.7993 35.638L24.8092 35.6261L24.819 35.6142L24.8288 35.6022L24.8382 35.5895L24.8488 35.5771L24.8582 35.5644L24.868 35.5524L24.8773 35.5397L24.8872 35.5278L24.8966 35.515L24.9059 35.5023L24.9153 35.4896L24.9247 35.4769L24.934 35.4642L24.9421 35.4511C27.4318 36.3249 29.9105 37.2374 32.3541 38.2558C31.3461 38.9423 30.2841 39.4917 29.1527 39.7688L28.7946 39.8543C28.4563 39.1575 27.9266 38.5715 27.2674 38.1647C27.3783 37.6002 27.0943 36.9889 26.6484 36.6058C26.4646 36.4466 26.2635 36.2774 26.0549 36.3216C26.02 36.328 25.9864 36.34 25.9553 36.3571L25.9396 36.3662C25.887 36.4 25.8431 36.4458 25.8118 36.5C25.7804 36.5541 25.7624 36.615 25.7594 36.6775C25.7563 36.74 25.7682 36.8023 25.7941 36.8593C25.82 36.9162 25.8591 36.9662 25.9082 37.005C25.9082 37.005 26.0307 37.0868 26.1117 37.1529C26.3122 37.3089 26.4567 37.5256 26.5238 37.7707C26.3135 37.6792 26.0981 37.5998 25.8787 37.5329C25.4286 37.3958 24.9824 37.2292 24.6312 37.3755C24.6015 37.389 24.5731 37.4054 24.5466 37.4244C24.5088 37.4556 24.4773 37.4937 24.4536 37.5366C24.2501 37.908 24.7802 38.1024 24.7802 38.1024C25.2453 38.1196 25.7028 38.2253 26.1282 38.4138C25.887 38.521 25.6243 38.5708 25.3606 38.5593C25.0594 38.4991 24.62 38.8636 25.0408 39.2287C25.1291 39.278 25.2259 39.31 25.3262 39.3231C25.7927 39.3348 26.4599 39.2254 26.8871 38.8325C27.1074 38.9845 27.3124 39.1577 27.4991 39.3495C27.6893 39.5598 27.8529 39.7928 27.9862 40.0431C27.2915 40.2007 26.6 40.344 25.9041 40.4616C25.6986 39.9157 25.1518 39.5512 24.6024 39.4484C24.3785 39.4063 24.1404 39.3504 23.9399 39.4411L23.9227 39.4511C23.5309 39.6773 23.8139 40.2056 24.1624 40.1632C24.4153 40.1216 24.7143 40.2249 24.9438 40.3745C25.0211 40.4276 25.0848 40.4982 25.1297 40.5806C24.9517 40.6054 24.7732 40.628 24.5941 40.6485C23.9852 40.7158 23.2899 40.7746 23.2899 40.7746C23.2243 40.7593 23.1554 40.7689 23.0965 40.8016C23.0136 40.8385 22.946 40.9028 22.9048 40.9836C22.8636 41.0644 22.8514 41.1569 22.8702 41.2457C22.9181 41.45 22.898 41.3446 22.9646 41.42L23.0291 41.4757C23.0563 41.4962 23.087 41.5114 23.1198 41.5206C23.2087 41.535 23.2988 41.5414 23.3889 41.5397C23.9541 41.507 24.5215 41.451 25.0883 41.3777C24.8209 41.8194 24.3332 41.9066 24.2149 42.2466C24.2094 42.2623 24.1968 42.4179 24.1968 42.4179C24.2107 42.5144 24.147 42.5125 24.3382 42.6717L24.4964 42.7486C24.5801 42.765 24.5481 42.7584 24.5983 42.7566C24.678 42.7402 24.7554 42.7135 24.8282 42.6772C25.3373 42.3645 25.8089 41.8801 25.948 41.2867C25.9505 41.2748 25.951 41.2631 25.9543 41.2507C26.655 41.1373 27.357 40.9988 28.0601 40.8353C28.0088 41.082 27.9221 41.32 27.8025 41.5419C27.7646 41.6119 27.7253 41.6795 27.6843 41.746C27.5761 41.6876 27.4601 41.6451 27.3398 41.62C26.8671 41.5251 26.3634 41.7386 25.913 41.9736L25.8965 41.9831C25.5603 42.1897 25.7586 42.6781 26.0697 42.6939C26.1371 42.6926 26.2036 42.678 26.2654 42.6509C26.5948 42.4795 26.931 42.3795 27.1964 42.4122C27.0059 42.6413 26.803 42.8619 26.5994 43.0829C26.4285 43.2682 26.1969 43.448 26.2589 43.6838C26.282 43.7436 26.3168 43.7981 26.3614 43.8442C26.4059 43.8903 26.4593 43.9269 26.5182 43.952C26.6418 43.9852 26.5449 43.9983 26.7237 43.9588C26.8018 43.9272 26.8752 43.8848 26.9416 43.833C27.2198 43.5798 27.4831 43.3106 27.7299 43.0268C27.7584 43.2346 27.7305 43.4463 27.6491 43.6397C27.5471 43.8648 27.6263 44.1178 27.83 44.2009C28.0801 44.303 28.3217 44.0047 28.3217 44.0047C28.4915 43.6528 28.5019 43.2654 28.4593 42.8857C28.4367 42.6793 28.3701 42.48 28.2641 42.3015C28.5598 41.8353 28.7598 41.3149 28.8524 40.7707C28.8589 40.7289 28.8607 40.6865 28.8578 40.6443C29.1773 40.5643 29.4968 40.4843 29.8133 40.3936C30.9239 40.0877 31.9464 39.5151 32.8815 38.8311C32.9856 38.7543 33.088 38.6638 33.1817 38.6034C35.9056 39.7672 38.5613 40.9955 41.086 42.3986L41.151 42.4352C41.4381 42.5996 41.7998 42.3229 41.7327 42.0294C41.6954 41.9145 41.6155 41.8181 41.5094 41.7602C39.6479 40.7033 37.7321 39.745 35.7698 38.8896ZM20.5319 36.5315L20.5191 36.5274L20.529 36.53L20.5385 36.5339L20.5319 36.5315ZM20.6028 36.5657L20.5798 36.5529L20.5652 36.5457L20.5918 36.5575L20.619 36.5773L20.6028 36.5657ZM20.7625 36.7661L20.7493 36.7434L20.7362 36.7207L20.7113 36.6776L20.7397 36.7176L20.7625 36.7661ZM21.4263 34.3852L21.3815 34.3619C21.5227 34.4308 21.4263 34.3852 21.4263 34.3852ZM21.524 34.4061L21.4809 34.3965C21.6339 34.4262 21.524 34.4061 21.524 34.4061ZM21.7059 34.3773L21.676 34.3852C21.7701 34.3527 21.7059 34.3773 21.7059 34.3773ZM25.5553 38.6684C25.5767 38.6883 25.5961 38.7104 25.6131 38.7342C25.6131 38.7342 25.5514 38.6654 25.5553 38.6684ZM23.415 40.8194C23.4076 40.8174 23.3891 40.8071 23.415 40.8194V40.8194ZM23.4522 40.8386L23.4805 40.8568C23.4805 40.8568 23.4062 40.815 23.4522 40.8386ZM23.5149 40.8839L23.5416 40.9103C23.5416 40.9103 23.437 40.8213 23.5149 40.8839ZM23.567 40.9416L23.586 40.9745C23.586 40.9745 23.5027 40.8627 23.5663 40.942L23.567 40.9416ZM26.6364 43.2193C26.7332 43.2188 26.5944 43.2226 26.6364 43.2193V43.2193ZM26.701 43.2227C26.7222 43.2257 26.7431 43.2304 26.7635 43.2368C26.7635 43.2368 26.6462 43.2147 26.6992 43.2196L26.701 43.2227Z" fill="#A5C499"/>
<path fill-rule="evenodd" clip-rule="evenodd" d="M50.5018 21.5577C50.4595 21.575 50.4212 21.601 50.3895 21.6339C50.3577 21.6668 50.3332 21.7059 50.3174 21.7488C50.3174 21.7488 50.2465 21.8848 50.1619 22.0225C49.368 23.2994 48.4885 24.521 47.5295 25.679C47.5263 25.6735 47.5231 25.668 47.52 25.6625C47.2234 25.1851 47.0308 24.6504 46.9547 24.0935C46.983 24.0845 47.0103 24.074 47.0364 24.0631C47.4507 23.8866 48.0969 23.3464 48.1538 22.7681C48.1558 22.7481 48.1098 22.549 48.1098 22.549C47.8336 22.0596 47.4018 22.6328 47.4018 22.6328C47.2827 22.8673 47.12 23.0768 46.9223 23.2502C46.9474 22.8279 47.0424 22.4126 47.2033 22.0213C47.3308 21.7209 47.2302 21.3945 46.9546 21.3624C46.8889 21.352 46.8215 21.3614 46.7612 21.3894C46.7119 21.4093 46.6675 21.4398 46.6313 21.4788C46.5951 21.5177 46.568 21.5642 46.5518 21.6148C46.3143 22.1444 46.1825 22.7153 46.1637 23.2954C45.9573 23.1188 45.828 22.808 45.7832 22.5005C45.7386 22.1752 45.4675 22.0225 45.2239 22.138L45.2082 22.1471C45.1523 22.1766 45.105 22.2202 45.0711 22.2737C45.0373 22.3271 45.018 22.3885 45.0153 22.4518C44.9829 22.8988 45.1845 23.3655 45.4756 23.7104C45.6629 23.9288 45.9177 24.0784 46.1996 24.1356C46.2422 24.4808 46.3208 24.8207 46.4339 25.1496C46.5694 25.5535 46.7786 25.9287 47.0509 26.2562C46.8802 26.4565 46.7072 26.6545 46.532 26.8505C45.826 27.6436 44.9396 28.2546 43.9912 28.751L43.9926 28.7209C44.1706 26.0886 44.4867 23.4726 44.825 20.8554C45.3018 20.7755 45.7565 20.5962 46.1596 20.3294C47.081 19.741 47.7368 18.8264 48.3157 17.8819C48.3976 17.7438 48.4652 17.5976 48.5174 17.4458C48.5211 17.2984 48.5466 17.4059 48.4802 17.2583L48.4158 17.1648C48.3606 17.1092 48.2903 17.071 48.2136 17.055C48.137 17.0389 48.0572 17.0456 47.9843 17.0744L47.9616 17.0875C47.8782 17.1339 47.8138 17.2081 47.7796 17.2971C47.2189 18.2968 46.2577 19.7283 44.9309 20.0597L45.1578 18.3155C45.2773 17.3877 45.3807 16.4556 45.5598 15.5424L45.5709 15.4858C45.5907 15.4174 45.5918 15.345 45.574 15.2762C45.5563 15.2073 45.5203 15.1444 45.4699 15.0942C45.4196 15.0439 45.3566 15.0081 45.2877 14.9905C45.2188 14.9729 45.1464 14.9741 45.0781 14.994C44.8629 15.0901 44.8315 15.2764 44.7977 15.4694C44.7249 15.8572 44.6595 16.2471 44.5971 16.6384C44.5793 16.6221 44.563 16.6042 44.5484 16.585C44.2771 16.2255 44.1992 15.7846 44.1579 15.3477C44.1499 15.2862 44.1274 15.2275 44.0923 15.1764C44.0573 15.1253 44.0106 15.0832 43.9562 15.0535C43.9018 15.0238 43.8412 15.0074 43.7792 15.0055C43.7173 15.0037 43.6558 15.0166 43.5997 15.043L43.5848 15.0516C43.3788 15.1779 43.4003 15.456 43.4003 15.456C43.4465 15.9684 43.5565 16.4503 43.8182 16.8676C43.9783 17.1231 44.2162 17.3849 44.4672 17.4939C44.3616 18.2413 44.2694 18.9935 44.1825 19.7479C44.0616 19.6725 43.9335 19.5971 43.8173 19.5116C43.501 19.2729 43.2313 18.9781 43.0216 18.642C43.1112 18.5796 43.1922 18.5058 43.2626 18.4224C43.5686 18.0566 43.5917 17.5448 43.4886 17.0767C43.2443 16.011 42.5231 16.4901 42.6363 16.8907C42.643 16.915 42.649 16.9126 42.6674 16.9699C42.7468 17.1853 42.8254 17.4063 42.8015 17.6238C42.7909 17.75 42.7373 17.8686 42.6498 17.9601C42.562 17.7736 42.4805 17.5835 42.3997 17.393C42.1971 16.9081 42.1046 16.2521 41.715 16.2576C41.6636 16.2564 41.6127 16.2675 41.5665 16.2901C41.293 16.4208 41.3566 16.7571 41.3566 16.7571C41.5016 17.2111 41.6717 17.6567 41.866 18.0919C41.7494 18.0559 41.6398 18.0005 41.5416 17.9281C41.2406 17.7017 41.0765 17.0682 40.7045 17.1116C40.6608 17.1154 40.6182 17.1279 40.5794 17.1483C40.1176 17.3909 40.5406 18.0474 40.9758 18.4502C41.1516 18.6115 41.3589 18.7346 41.5846 18.812C41.8103 18.8894 42.0496 18.9192 42.2874 18.8997C42.3327 18.978 42.3811 19.0619 42.4355 19.1381C42.8383 19.7487 43.4284 20.2188 44.0462 20.5904C44.0586 20.5964 44.0713 20.6016 44.0844 20.6059C43.991 21.4341 43.8996 22.2621 43.7979 23.0867C43.5633 24.9806 43.3757 26.7784 43.2419 28.6006C43.0974 28.4228 42.9593 28.2413 42.8132 28.0644C42.3354 27.4919 41.8805 26.8978 41.4486 26.2872C41.4535 26.1998 41.4514 26.1111 41.453 26.0235C41.4386 25.2327 41.4926 24.4423 41.6145 23.6609C41.9068 23.5886 42.1815 23.4579 42.422 23.2767C42.6625 23.0955 42.8638 22.8674 43.0138 22.6063C43.2208 22.2319 42.849 21.8719 42.5388 22.0207C42.4671 22.0555 42.4088 22.113 42.3731 22.1843C42.2456 22.4345 42.045 22.6399 41.798 22.7734C41.8311 22.6498 41.8571 22.5302 41.8935 22.4141C42.005 22.028 42.1127 21.6409 42.2287 21.2573C42.3067 21.0033 42.2444 20.7415 42.023 20.6676C41.9568 20.6453 41.92 20.6122 41.7489 20.6796L41.727 20.6923C41.6736 20.7201 41.6271 20.7597 41.5911 20.8079C41.5551 20.8562 41.5305 20.912 41.5191 20.9711C41.3561 21.4832 41.2008 22.0033 41.0672 22.5266C40.9158 22.2592 40.8418 21.955 40.8535 21.648C40.8592 21.5804 40.8475 21.5125 40.8195 21.4507C40.7914 21.389 40.748 21.3355 40.6934 21.2953C40.6387 21.2552 40.5747 21.2297 40.5074 21.2214C40.4401 21.213 40.3718 21.2221 40.309 21.2477C40.2397 21.2749 40.1812 21.3239 40.1424 21.3875C40.1037 21.451 40.0867 21.5254 40.0941 21.5995C40.0731 22.1748 40.2464 22.7988 40.6334 23.2138C40.7113 23.2963 40.7848 23.3876 40.8632 23.4635C40.7776 23.9145 40.723 24.3709 40.6999 24.8294C40.6934 24.9376 40.6949 25.0506 40.6963 25.1616C40.6077 25.0226 40.5155 24.8846 40.4293 24.7443C40.0774 24.1711 39.761 23.5869 39.4648 22.9941C39.5041 22.9567 39.5388 22.9146 39.5679 22.8687C39.9427 22.2511 39.8774 21.452 39.6689 20.7417C39.5766 20.4334 39.3289 20.2776 39.0941 20.3902C39.0163 20.4337 38.9552 20.5018 38.9202 20.5838C38.8853 20.6658 38.8786 20.7571 38.9011 20.8433C39.0372 21.2871 39.1302 21.7631 39.0522 22.1384C38.8705 21.7512 38.6942 21.3608 38.5206 20.9679C38.4196 20.7399 38.3189 20.5117 38.2185 20.2834C38.1737 20.1943 38.0973 20.125 38.0043 20.089C37.9113 20.0529 37.8082 20.0527 37.715 20.0883C37.4321 20.2317 37.5198 20.5917 37.5198 20.5917C37.785 21.194 38.0503 21.7963 38.323 22.3954L38.3415 22.4275C37.9793 22.3231 37.6573 22.0911 37.3673 21.826C37.1804 21.656 37.0183 21.3682 36.7546 21.4108C36.7149 21.4164 36.6765 21.429 36.6413 21.448L36.6264 21.4566C36.2281 21.697 36.529 22.0843 36.7861 22.3287C37.3983 22.9094 38.0593 23.2508 38.7368 23.2462C39.168 24.1034 39.645 24.9368 40.1657 25.7428C39.8364 25.6539 39.5103 25.5559 39.1895 25.4381C39.1176 24.8684 38.7831 24.3343 38.3495 23.9379C38.1807 23.7867 37.9726 23.5547 37.7379 23.6025C37.705 23.6083 37.6732 23.6193 37.6437 23.6349C37.5597 23.679 37.4945 23.7521 37.4603 23.8406C37.4261 23.9292 37.4252 24.0271 37.4578 24.1163C37.4803 24.1669 37.5113 24.2133 37.5495 24.2535C37.816 24.5071 38.0882 24.7595 38.2635 25.0721C38.1807 25.0373 38.0964 25.0035 38.0132 24.9679C37.5498 24.7716 37.0893 24.5693 36.7019 24.2622C36.5225 24.1161 36.3683 24.0463 36.1896 24.1276L36.1692 24.1393C35.8946 24.3062 35.975 24.6464 36.1251 24.776C36.488 25.0817 36.8954 25.3302 37.3332 25.5131C37.5756 25.6155 37.8184 25.7153 38.0618 25.8123C37.7881 25.9815 37.4707 26.0667 37.149 26.0572C36.9799 26.0503 37.0255 26.0334 36.8953 26.0992L36.8812 26.1073C36.5718 26.2954 36.6603 26.8106 37.1288 26.8222C37.4524 26.8283 37.7739 26.7698 38.0745 26.65C38.3752 26.5303 38.6489 26.3517 38.8796 26.1248C39.4895 26.3459 40.1115 26.5321 40.7426 26.6823C40.7611 26.6854 40.7798 26.6875 40.7985 26.6887C41.1654 27.2082 41.5514 27.723 41.9532 28.2162C42.3491 28.7012 43.0392 29.5127 43.0392 29.5127C43.0849 29.5793 43.1284 29.6472 43.1759 29.7097C42.9638 33.0523 42.7955 36.4543 43.6476 39.6694C43.7545 40.0716 43.8411 40.5294 44.1625 40.5612C44.3359 40.5792 44.6311 40.5947 44.5775 40.1126L44.5436 40.0016C44.4371 39.6751 44.3471 39.3435 44.274 39.0079C43.6178 36.0328 43.7364 32.881 43.9445 29.6546L43.997 29.6243C45.2473 28.9776 46.4539 28.1504 47.3787 27.0648C47.4829 26.943 47.5857 26.8188 47.6882 26.6959C47.7372 26.7183 47.7875 26.7378 47.8389 26.7542C48.6804 27.0101 49.6014 26.9622 50.4541 26.7071L50.4998 26.6921C50.9566 26.5423 51.55 26.3992 51.6567 26.2384L51.7114 26.0961C51.7273 26.0202 51.7184 25.9411 51.686 25.8707C51.6536 25.8002 51.5994 25.7421 51.5314 25.7047C51.4339 25.6461 51.3877 25.5788 51.1559 25.6948C51.1559 25.6948 51.0234 25.7441 50.8979 25.78C50.7273 25.8284 50.5548 25.8736 50.3865 25.9259L50.3265 25.9449C49.6555 26.1672 48.8531 26.2595 48.2053 26.0714C49.1475 24.9266 50.0167 23.7237 50.8078 22.4697C50.9114 22.2951 50.9982 22.111 51.0671 21.9199C51.0705 21.8783 51.0642 21.8365 51.0488 21.7977L51.0004 21.6993C50.9472 21.6208 50.8681 21.5635 50.7769 21.5376C50.6856 21.5117 50.5882 21.5188 50.5018 21.5577ZM47.4114 22.8666L47.4022 22.829C47.4352 22.9458 47.4104 22.865 47.4104 22.865L47.4114 22.8666ZM47.7454 17.4495C47.7468 17.4267 47.7412 17.3861 47.7503 17.478L47.7454 17.4495ZM50.9476 25.9133C50.972 25.8542 50.9401 25.9563 50.9401 25.9563L50.9476 25.9133ZM50.2855 21.9271L50.2929 21.9761C50.2929 21.9761 50.309 22.089 50.2861 21.9299C50.2803 21.8945 50.2836 21.9146 50.2842 21.9247L50.2855 21.9271Z" fill="#A5C499"/>
<path fill-rule="evenodd" clip-rule="evenodd" d="M41.3124 44.1719C41.1455 44.1524 41.1644 43.8395 41.1365 43.6644C41.0204 42.9332 41.0465 42.4625 41.3089 41.8022C41.7606 40.6554 43.1918 39.5658 44.4507 39.7845C45.0397 39.8854 45.2133 40.0756 45.7035 40.454C45.8374 40.5575 46.231 40.8809 46.3183 41.0394L41.3134 44.1735L41.3124 44.1719Z" fill="#70975F"/>
<path fill-rule="evenodd" clip-rule="evenodd" d="M43.9227 41.4827C37.4847 44.8748 41.701 52.8073 44.3263 56.1167C47.5594 60.191 51.3688 64.1938 54.5023 68.3382C56.0246 70.3504 57.1043 72.8448 58.694 74.8473C59.9746 76.461 61.9109 77.3554 63.215 78.8938C65.7944 81.9392 67.6746 85.5052 70.247 88.5401C71.2762 89.7545 72.5378 90.794 73.5618 92.003C75.4248 94.2019 76.7441 96.8725 78.5235 98.9682C78.986 99.5141 79.5146 100.446 80.1307 101.593C80.2063 101.724 80.3555 101.852 80.2838 101.523C80.1827 101.053 80.0229 100.403 79.9883 100.287C79.5554 98.7611 78.4652 96.605 77.4838 94.8311C76.1275 92.3805 74.6261 89.5538 73.6946 86.9215C72.9684 84.8729 71.4565 83.094 70.7966 81.0207C70.3045 79.4753 70.2168 77.7361 69.6716 76.1983C68.9867 74.2628 66.4574 70.0882 65.6797 68.153C63.5183 62.7807 62.4093 60.136 59.6537 55.1821C57.249 50.8541 54.2552 44.3169 50.4156 41.6804C49.1743 40.8298 47.4657 40.2992 46.0597 40.6345C45.2855 40.8192 43.9201 41.48 43.9201 41.48L43.9227 41.4827Z" fill="#FD9C5F"/>
<path fill-rule="evenodd" clip-rule="evenodd" d="M45.3207 48.6458C45.635 48.4695 45.9633 48.3198 46.3025 48.1982C46.3639 48.181 46.4281 48.1763 46.4914 48.1842C46.5547 48.1922 46.6157 48.2127 46.6709 48.2445C46.9279 48.4326 46.7974 48.8256 46.4304 48.9644C45.2439 49.4195 44.1541 50.2065 43.4858 51.1231C43.3203 51.3503 43.3007 51.3344 43.205 51.3604C43.1288 51.3733 43.0505 51.3634 42.9799 51.3321C42.9093 51.3008 42.8494 51.2494 42.8078 51.1843C42.7662 51.1192 42.7447 51.0432 42.746 50.966C42.7472 50.8887 42.7711 50.8136 42.8148 50.7498C43.4055 49.8383 44.3677 49.1741 45.3181 48.6484L45.3207 48.6458Z" fill="#F9731F"/>
<path fill-rule="evenodd" clip-rule="evenodd" d="M48.7845 42.7247C49.2248 42.483 49.689 42.3007 50.1563 42.102C50.2585 42.0565 50.1763 42.0716 50.2944 42.0536C50.3573 42.0473 50.4208 42.0562 50.4795 42.0794C50.5382 42.1026 50.5906 42.1395 50.6321 42.1871C50.6737 42.2347 50.7033 42.2915 50.7185 42.3528C50.7336 42.4141 50.7339 42.4782 50.7193 42.5397C50.6326 42.8384 50.2036 42.8896 49.833 43.0513C48.9822 43.4184 48.1929 43.9142 47.493 44.5215C47.3221 44.6744 47.1495 44.8316 46.984 44.9846C46.984 44.9846 46.7286 45.1467 46.5346 45.0351C46.4855 45.0027 46.4442 44.9599 46.4137 44.9097C46.3831 44.8594 46.3641 44.8031 46.3579 44.7446C46.3517 44.6862 46.3586 44.627 46.3779 44.5715C46.3973 44.516 46.4287 44.4655 46.47 44.4236C47.171 43.7671 47.9482 43.1971 48.7849 42.7255L48.7845 42.7247Z" fill="#F9731F"/>
<path fill-rule="evenodd" clip-rule="evenodd" d="M51.647 49.5247C52.7108 48.944 53.8803 48.579 55.0394 48.1292C55.0394 48.1292 55.3376 48.072 55.4781 48.25C55.5087 48.2928 55.5304 48.3412 55.5422 48.3925C55.5539 48.4438 55.5553 48.4969 55.5463 48.5487C55.5374 48.6006 55.5182 48.6501 55.49 48.6944C55.4617 48.7388 55.425 48.7771 55.3818 48.8071C55.3223 48.8453 55.2568 48.8732 55.1881 48.8897C54.2 49.2648 53.1835 49.58 52.2497 50.0637C51.3001 50.5598 50.4329 51.1932 49.5796 51.8488C48.8848 52.3847 48.2079 52.973 47.6672 53.6164C47.6672 53.6164 47.4111 53.8552 47.1762 53.7306C46.9413 53.6061 46.9364 53.2881 47.1441 53.0543C48.4532 51.5755 50.1043 50.3725 51.6452 49.5215L51.647 49.5247Z" fill="#F9731F"/>
<path fill-rule="evenodd" clip-rule="evenodd" d="M52.798 51.3179C53.638 50.8124 54.5519 50.4413 55.5065 50.218C55.6416 50.1818 55.7743 50.1372 55.9039 50.0847C56.1198 50.0154 56.1949 50.0839 56.2719 50.1449C56.4925 50.3206 56.4334 50.6943 56.0948 50.8334C55.5931 51.0394 55.0477 51.0847 54.506 51.2992C53.1628 51.8303 51.9373 52.6882 50.8425 53.6097C50.8425 53.6097 50.4541 53.8256 50.2636 53.5626C50.0276 53.2371 50.558 52.8473 50.9963 52.5242C51.5834 52.0933 52.1822 51.6828 52.8004 51.3165L52.798 51.3179Z" fill="#F9731F"/>
<path fill-rule="evenodd" clip-rule="evenodd" d="M51.7806 57.661C52.2206 57.4206 52.8586 57.1755 52.9267 57.6879C52.9636 57.9654 52.6199 58.0959 52.3824 58.2111C51.4328 58.6689 50.578 59.3017 49.863 60.0763C49.7103 60.2407 49.5333 60.3795 49.3702 60.5385C49.3422 60.587 49.307 60.6309 49.2657 60.6688C49.212 60.7107 49.1484 60.7381 49.0811 60.7483C49.0137 60.7584 48.9449 60.751 48.8812 60.7267L48.7503 60.6393C48.6571 60.5395 48.6929 60.5815 48.6602 60.4959L48.6422 60.4196C48.6325 60.3322 48.6329 60.3926 48.6429 60.3085C48.6904 60.1873 48.7602 60.0762 48.8486 59.9807C49.3076 59.536 49.7561 59.019 50.4435 58.5229C50.8715 58.2091 51.3182 57.9215 51.7811 57.6618L51.7806 57.661ZM49.3671 60.2038C49.3621 60.1952 49.3671 60.2038 49.3671 60.2038V60.2038ZM49.2583 60.066C49.2583 60.066 49.3324 60.0984 49.241 60.0541C49.2378 60.0486 49.252 60.0623 49.2583 60.066ZM49.193 60.0253C49.3078 60.0865 49.113 59.99 49.193 60.0253V60.0253Z" fill="#F9731F"/>
<path fill-rule="evenodd" clip-rule="evenodd" d="M58.2728 61.6854C58.9181 61.3318 59.6072 61.065 60.3223 60.8919C60.3223 60.8919 60.6329 60.8327 60.7734 61.0253C60.8065 61.0752 60.8278 61.1319 60.8357 61.1912C60.8436 61.2505 60.8379 61.3109 60.819 61.3677C60.8002 61.4245 60.7687 61.4762 60.7269 61.519C60.6851 61.5618 60.6341 61.5946 60.5777 61.6147C60.0301 61.7846 59.4274 61.955 58.878 62.2304C57.906 62.7185 57.0355 63.3987 56.4067 64.2841C56.4067 64.2841 56.0217 64.5691 55.8021 64.3082C55.5655 64.0269 55.9401 63.5953 56.2903 63.2155C56.8657 62.6003 57.5369 62.0822 58.2779 61.6814L58.2728 61.6854Z" fill="#F9731F"/>
<path fill-rule="evenodd" clip-rule="evenodd" d="M59.5045 65.4872C60.2181 65.0901 60.9965 64.8226 61.8035 64.6969C62.0415 64.664 62.4496 64.9675 62.2022 65.3026C62.1546 65.3649 62.0893 65.4113 62.0148 65.4358C61.8442 65.4915 61.6344 65.5008 61.4385 65.547C59.8631 65.9185 58.5155 66.9829 57.2995 68.0527C56.8666 68.4515 56.4835 68.9011 56.1584 69.3917C56.1584 69.3917 55.9432 69.7573 55.6318 69.6288L55.515 69.5458C55.4874 69.5106 55.4624 69.4733 55.4402 69.4344C55.4246 69.404 55.415 69.3708 55.412 69.3368C55.4744 69.1012 55.5837 68.8806 55.7335 68.6883C56.0927 68.2374 56.4489 67.7811 56.8835 67.3974C57.7007 66.6864 58.563 66.0046 59.5049 65.488L59.5045 65.4872ZM56.1262 69.0989C56.1176 69.084 56.124 69.095 56.1262 69.0989V69.0989ZM56.0351 68.9864L56.0553 69.0051C56.0553 69.0051 55.9735 68.9394 56.0351 68.9864ZM55.981 68.9487L56.0071 68.965C56.0071 68.965 55.9019 68.9077 55.981 68.9487Z" fill="#F9731F"/>
<path fill-rule="evenodd" clip-rule="evenodd" d="M63.1302 69.2009C63.7803 68.8465 64.4673 68.5669 65.2109 68.474C65.511 68.4365 65.8026 68.7948 65.5862 69.0806C65.4387 69.2703 65.1154 69.2479 64.839 69.3156C63.9789 69.5217 63.1842 69.9983 62.454 70.4836C62.2145 70.6407 61.9738 70.8246 61.8497 71.0655C61.8042 71.1373 61.7414 71.1966 61.667 71.2378C61.3414 71.3851 60.9253 70.9974 61.319 70.4848C61.766 69.9018 62.4677 69.5698 63.1333 69.2044L63.1302 69.2009Z" fill="#F9731F"/>
<path fill-rule="evenodd" clip-rule="evenodd" d="M63.0522 73.1558C63.5645 72.8875 64.1063 72.6799 64.6666 72.5371C64.7521 72.5249 64.839 72.5258 64.9242 72.5399C65.0528 72.5816 64.9758 72.5478 65.0559 72.6123L65.1531 72.739C65.2027 72.8503 65.1901 72.8033 65.1908 72.8948C65.1908 72.8948 65.1516 73.2685 64.8191 73.2881C64.8191 73.2881 64.4141 73.4227 64.0667 73.5574C63.8456 73.6433 63.6227 73.726 63.411 73.8315C63.0714 74.037 62.7453 74.2641 62.4346 74.5112C62.2313 74.6646 62.049 74.844 61.8923 75.0448C61.5938 75.4888 60.8996 75.061 61.3227 74.5378C61.7718 73.9765 62.3937 73.5516 63.0192 73.18L63.0522 73.1558ZM64.4489 73.0359L64.4602 73.0554C64.4602 73.0554 64.4292 72.9511 64.4489 73.0359ZM64.4288 72.9576L64.4363 72.9888C64.4363 72.9888 64.4295 72.8882 64.4288 72.9576Z" fill="#F9731F"/>
<path fill-rule="evenodd" clip-rule="evenodd" d="M64.8674 74.0249C65.7129 73.5639 66.6157 73.1984 67.6017 73.1254C67.866 73.1055 68.1682 73.2163 68.1569 73.5133C68.1478 73.7275 67.9487 73.8676 67.7014 73.8808C66.6541 73.9526 65.6781 74.4429 64.7773 74.9421C64.5829 75.0535 64.3985 75.1816 64.2263 75.325C64.2263 75.325 63.9786 75.468 63.7908 75.358C63.7417 75.326 63.7004 75.2834 63.6697 75.2335C63.6391 75.1835 63.6199 75.1273 63.6137 75.069C63.6074 75.0107 63.6142 74.9518 63.6336 74.8964C63.6529 74.8411 63.6843 74.7907 63.7255 74.749C64.0289 74.4693 64.4644 74.2409 64.8651 74.021L64.8674 74.0249Z" fill="#F9731F"/>
<path fill-rule="evenodd" clip-rule="evenodd" d="M67.159 80.1427C68.0086 79.6814 68.9494 79.2334 69.8568 79.303C70.2274 79.3314 70.376 80.0574 69.774 80.0644C68.7561 80.0858 67.6838 80.592 66.9466 81.19C66.8722 81.2565 66.8032 81.3288 66.7403 81.4063C66.6471 81.5019 66.7125 81.4558 66.5976 81.5065L66.3288 81.5133C66.2401 81.4827 66.1658 81.4205 66.1201 81.3386C66.0743 81.2567 66.0603 81.1608 66.0808 81.0693C66.1024 80.9837 66.013 81.0677 66.2866 80.7707C66.5432 80.5157 66.8388 80.3031 67.1622 80.1409L67.159 80.1427Z" fill="#F9731F"/>
<path fill-rule="evenodd" clip-rule="evenodd" d="M69.6393 83.6095C70.1664 83.3208 70.7247 83.0445 71.3233 83.0551C71.6403 83.0613 71.89 83.4739 71.6264 83.716C71.4402 83.8893 71.1286 83.8038 70.8228 83.9021C70.2774 84.0714 69.7714 84.3479 69.3344 84.7154C69.3344 84.7154 68.9866 84.8985 68.7958 84.6784C68.6516 84.512 68.6985 84.2529 68.8833 84.0971C69.1184 83.9098 69.3706 83.7449 69.6366 83.6048L69.6393 83.6095Z" fill="#F9731F"/>
<path fill-rule="evenodd" clip-rule="evenodd" d="M70.4109 85.3133C70.7015 85.156 71.0794 85.0088 71.2649 85.2904C71.4072 85.506 71.2476 85.7925 70.9825 85.8871C70.5249 86.063 70.1189 86.3513 69.802 86.7253C69.4819 87.0993 69.3557 87.0018 69.2212 86.9155C68.7427 86.6097 69.5749 85.7709 70.4086 85.3146L70.4109 85.3133Z" fill="#F9731F"/>
<path fill-rule="evenodd" clip-rule="evenodd" d="M72.8458 89.0168C73.2148 88.8163 73.6706 88.6357 74.042 88.812C74.2905 88.9277 74.3284 89.3425 74.0697 89.4898C73.8941 89.5911 73.6761 89.4976 73.4511 89.5784C73.192 89.6726 72.9267 89.8248 72.804 90.0105C72.7639 90.0627 72.7142 90.1067 72.6574 90.1401C72.3454 90.2983 71.9025 89.8895 72.2481 89.48C72.4176 89.2907 72.6201 89.1338 72.8458 89.0168Z" fill="#F9731F"/>
<path d="M62.2029 54.5929C63.0563 53.1876 62.6089 51.3565 61.2036 50.5031C59.7983 49.6497 57.9673 50.0971 57.1138 51.5024C56.2604 52.9077 56.7078 54.7387 58.1131 55.5921C59.5184 56.4456 61.3494 55.9982 62.2029 54.5929Z" fill="#242424"/>
<path d="M50.2663 60.1762C49.8126 58.5959 48.1637 57.6826 46.5834 58.1364C45.0031 58.5901 44.0898 60.239 44.5436 61.8193C44.9973 63.3996 46.6462 64.3128 48.2265 63.8591C49.8068 63.4054 50.7201 61.7565 50.2663 60.1762Z" fill="#242424"/>
<path d="M51.7711 67.4232C52.9114 66.4708 53.2418 64.9876 52.5092 64.1104C51.7765 63.2333 50.2582 63.2943 49.1179 64.2467C47.9776 65.1991 47.6471 66.6823 48.3798 67.5595C49.1125 68.4366 50.6308 68.3756 51.7711 67.4232Z" fill="#DA6057"/>
<path d="M63.939 59.4416C65.1985 58.6537 65.7282 57.2294 65.1221 56.2605C64.5159 55.2916 63.0035 55.1449 61.7439 55.9329C60.4844 56.7208 59.9547 58.1451 60.5608 59.114C61.167 60.0829 62.6794 60.2296 63.939 59.4416Z" fill="#DA6057"/>
<path d="M59.2751 53.4282C59.6253 53.0788 59.626 52.5116 59.2766 52.1614C58.9272 51.8111 58.36 51.8104 58.0097 52.1598C57.6595 52.5092 57.6588 53.0764 58.0082 53.4267C58.3576 53.777 58.9248 53.7776 59.2751 53.4282Z" fill="white"/>
<path fill-rule="evenodd" clip-rule="evenodd" d="M47.0454 60.5749C47.1599 60.7103 47.2316 60.8767 47.2514 61.053C47.2712 61.2292 47.2382 61.4074 47.1566 61.5649C47.0751 61.7223 46.9486 61.8521 46.7933 61.9376C46.6379 62.0232 46.4606 62.0607 46.2839 62.0454C46.1073 62.0302 45.9391 61.9628 45.8007 61.8518C45.6624 61.7409 45.5601 61.5914 45.5067 61.4222C45.4534 61.2531 45.4515 61.0719 45.5013 60.9017C45.551 60.7314 45.6502 60.5798 45.7862 60.466C45.9678 60.3137 46.2023 60.2397 46.4383 60.2601C46.6744 60.2805 46.8927 60.3937 47.0454 60.5749Z" fill="white"/>
<path d="M58.2789 57.7273C58.1373 57.482 57.8617 57.3413 57.5858 57.4661C57.3478 57.5732 57.1802 57.9092 57.3241 58.1584C57.4472 58.3715 57.535 58.5779 57.4901 58.7751C57.4397 58.9955 57.256 59.2185 57.0717 59.3698C56.6429 59.7219 55.9942 59.8561 55.5484 59.4604C55.1945 59.1424 54.6662 59.5612 54.7275 59.9678C54.7978 60.4622 54.6949 60.997 54.2885 61.3247C53.8821 61.6523 53.4112 61.6023 53.0479 61.2698C52.8385 61.0772 52.4689 61.1862 52.3179 61.3935C52.1378 61.6479 52.2319 61.9322 52.442 62.1243C53.1313 62.7534 54.159 62.7128 54.8916 62.1811C55.3795 61.8263 55.6552 61.2868 55.7512 60.7111C56.438 60.8474 57.2119 60.6117 57.7407 60.1757C58.4929 59.5566 58.7793 58.594 58.2789 57.7273Z" fill="#242424"/>
<path d="M77.7769 29.5517C75.7483 28.3994 74.3654 26.8794 73.2482 24.6844C72.3234 22.8764 71.8117 21.6505 71.2049 18.3611C71.1922 18.2875 71.1606 18.2184 71.1131 18.1605C71.0655 18.1025 71.0036 18.0577 70.9334 18.0303C70.8632 18.0029 70.7871 17.9939 70.7124 18.0041C70.6376 18.0143 70.5668 18.0435 70.5068 18.0887C70.3994 18.1843 70.3313 18.3155 70.3155 18.4575C70.1936 19.1313 69.593 23.2055 67.3438 25.8271C66.3094 27.0325 64.7572 28.1764 63.2427 28.9394C63.1558 28.9829 63.086 29.0537 63.0441 29.1407C62.9988 29.2319 62.988 29.3363 63.0137 29.4348C63.0495 29.5465 63.1142 29.647 63.2013 29.7265C63.7057 30.2375 66.6895 32.7483 68.1333 35.8461C69.2969 38.3388 69.7648 40.2951 69.9329 40.6759C69.9622 40.7566 70.0118 40.8285 70.077 40.8848C70.1423 40.9411 70.221 40.98 70.3057 40.9978C70.4201 41.0086 70.5348 40.9799 70.6302 40.9166C70.7257 40.8533 70.7962 40.7594 70.8296 40.6506C70.9868 40.2324 71.5607 38.029 72.2527 36.6862C73.8549 33.5523 74.8491 32.9749 77.8573 30.2484C77.9082 30.202 77.9474 30.1445 77.9717 30.0804C77.9961 30.0164 78.0049 29.9476 77.9974 29.8795C77.9896 29.8115 77.9655 29.7463 77.9272 29.6893C77.8888 29.6323 77.8373 29.5851 77.7769 29.5517Z" fill="#FFD79B"/>
<path d="M24.7022 60.2417C23.6722 59.7724 22.6193 59.1021 21.9371 58.4212C20.4791 56.9701 20.1667 54.8348 20.1052 54.4814C20.0948 54.4012 20.0679 54.3242 20.0265 54.2555C19.985 54.1868 19.9298 54.128 19.8647 54.0829C19.8026 54.041 19.7321 54.0141 19.6585 54.0042C19.5849 53.9944 19.5101 54.0018 19.4397 54.026C19.3592 54.0489 19.2859 54.0933 19.2274 54.1548C19.1689 54.2163 19.1272 54.2927 19.1065 54.3762C18.6118 56.0657 18.2327 56.6811 17.5558 57.5866C16.7351 58.6811 15.753 59.4125 14.3387 59.9227C14.2523 59.9543 14.1757 60.0094 14.1171 60.0822C14.0585 60.155 14.0201 60.2429 14.006 60.3364C13.9919 60.4298 14.0026 60.5255 14.037 60.6133C14.0714 60.701 14.1282 60.7775 14.2013 60.8346C16.2206 62.4092 16.9017 62.7519 17.9359 64.4801C18.3796 65.2223 18.7232 66.4134 18.8222 66.6443C18.8559 66.7412 18.9158 66.826 18.9949 66.8887C19.0739 66.9514 19.1688 66.9894 19.2682 66.9981C19.3676 67.0068 19.4673 66.9859 19.5555 66.9378C19.6437 66.8898 19.7167 66.8166 19.7657 66.727C19.8938 66.5294 20.2719 65.4983 21.155 64.2105C22.2308 62.6391 24.3616 61.4533 24.723 61.203C24.8308 61.1388 24.9145 61.0391 24.9606 60.9198C25.0067 60.8006 25.0125 60.6688 24.9771 60.5457C24.9552 60.4776 24.9193 60.4152 24.8718 60.3627C24.8244 60.3103 24.7665 60.269 24.7022 60.2417Z" fill="#FFD79B"/>
<path d="M42.5939 85.0822C41.1881 84.3239 39.7539 83.2412 38.8238 82.1411C36.8357 79.7986 36.4097 76.3474 36.3245 75.7765C36.3113 75.6468 36.275 75.5222 36.2184 75.4113C36.1617 75.3005 36.086 75.206 35.9965 75.1345C35.9123 75.0664 35.8164 75.0227 35.7162 75.0068C35.6161 74.9908 35.5143 75.0031 35.4186 75.0425C35.3086 75.0789 35.2084 75.1503 35.1284 75.2494C35.0483 75.3484 34.9911 75.4716 34.9627 75.6065C34.2882 78.3359 33.7713 79.3301 32.8483 80.7929C31.7293 82.561 30.3917 83.7426 28.4619 84.5668C28.3439 84.6178 28.2395 84.7068 28.1596 84.8245C28.0798 84.9421 28.0274 85.084 28.0082 85.235C27.989 85.3861 28.0036 85.5406 28.0505 85.6823C28.0973 85.8241 28.1747 85.9476 28.2744 86.04C31.0293 88.5837 31.9565 89.1372 33.368 91.9308C33.973 93.1281 34.4416 95.0541 34.5765 95.4254C34.6224 95.5818 34.7041 95.7189 34.812 95.8202C34.9198 95.9215 35.0491 95.9828 35.1847 95.9969C35.3202 96.011 35.4561 95.9772 35.5764 95.8996C35.6967 95.8219 35.7961 95.7037 35.863 95.559C36.0377 95.2398 36.5532 93.574 37.7573 91.4936C39.2242 88.955 42.1282 87.0394 42.6223 86.6351C42.7693 86.5314 42.8834 86.3702 42.9463 86.1776C43.0091 85.9849 43.0171 85.772 42.9688 85.5732C42.9383 85.4636 42.8891 85.3632 42.8244 85.2786C42.7598 85.1939 42.6813 85.127 42.5939 85.0822Z" fill="#FFD79B"/>
</svg>
