<svg width="100" height="100" viewBox="0 0 100 100" fill="none" xmlns="http://www.w3.org/2000/svg">
<path fill-rule="evenodd" clip-rule="evenodd" d="M56.1646 60.5798C48.2532 69.8156 35.8066 58.4166 41.2161 49.1933C41.9255 48.0227 42.9245 47.0516 44.1182 46.3717C47.9414 44.1317 53.3346 45.0459 56.1953 48.4186C59.0559 51.7912 59.0397 57.2196 56.1646 60.5798Z" fill="#926E57"/>
<path d="M62.2967 53.006C63.5774 51.1459 63.1078 48.5998 61.2478 47.319C59.3877 46.0383 56.8416 46.5079 55.5608 48.3679C54.2801 50.2279 54.7496 52.7741 56.6097 54.0549C58.4697 55.3356 61.0159 54.866 62.2967 53.006Z" fill="#242424"/>
<path d="M40.6354 57.6242C42.7345 56.791 43.7606 54.414 42.9275 52.315C42.0943 50.2159 39.7172 49.1898 37.6182 50.0229C35.5192 50.8561 34.493 53.2331 35.3262 55.3322C36.1594 57.4312 38.5364 58.4574 40.6354 57.6242Z" fill="#242424"/>
<path d="M58.7144 50.9153C59.0813 50.3445 58.9161 49.5842 58.3453 49.2173C57.7745 48.8503 57.0143 49.0156 56.6473 49.5864C56.2804 50.1572 56.4457 50.9174 57.0165 51.2843C57.5873 51.6513 58.3475 51.4861 58.7144 50.9153Z" fill="white"/>
<path d="M37.6983 54.5834C38.3779 54.5834 38.9287 54.0325 38.9287 53.353C38.9287 52.6735 38.3779 52.1226 37.6983 52.1226C37.0188 52.1226 36.468 52.6735 36.468 53.353C36.468 54.0325 37.0188 54.5834 37.6983 54.5834Z" fill="white"/>
<path d="M54.5507 55.8138C54.5126 55.4276 54.2479 55.094 53.8324 55.094C53.4739 55.094 53.0745 55.4246 53.1126 55.8138C53.1462 56.1503 53.1404 56.4575 52.9663 56.6784C52.7388 56.9324 52.4383 57.1097 52.106 57.1861C51.3745 57.3836 50.4792 57.1861 50.1485 56.437C49.8852 55.8518 48.9928 56.064 48.8318 56.6097C48.6387 57.2665 48.2057 57.8781 47.5151 58.058C46.8246 58.238 46.2613 57.9117 45.995 57.2885C45.8414 56.9315 45.3162 56.8496 45.0104 57.031C44.6418 57.246 44.5993 57.6557 44.7529 58.0141C45.2591 59.1845 46.5685 59.7214 47.7858 59.4771C48.5731 59.2938 49.2564 58.8076 49.6877 58.1238C50.4689 58.6842 51.572 58.8246 52.482 58.5789C53.7914 58.2233 54.6882 57.1817 54.5507 55.8138Z" fill="#242424"/>
<path d="M28.648 51.202C27.4308 50.6604 26.1864 49.8871 25.3803 49.1013C23.6571 47.427 23.2879 44.9632 23.2153 44.5555C23.2029 44.463 23.1712 44.3741 23.1222 44.2948C23.0732 44.2156 23.008 44.1477 22.931 44.0957C22.8576 44.0473 22.7743 44.0163 22.6874 44.0049C22.6004 43.9935 22.512 44.0021 22.4288 44.03C22.3336 44.0564 22.247 44.1077 22.1779 44.1787C22.1087 44.2496 22.0594 44.3377 22.0349 44.434C21.4503 46.3835 21.0023 47.0936 20.2023 48.1384C19.2324 49.4013 18.0718 50.2452 16.4003 50.8339C16.2981 50.8703 16.2076 50.9339 16.1384 51.0179C16.0691 51.102 16.0238 51.2033 16.0071 51.3112C15.9905 51.4191 16.0031 51.5295 16.0438 51.6307C16.0844 51.7319 16.1515 51.8202 16.2379 51.8861C18.6244 53.703 19.4293 54.0983 20.6515 56.0924C21.1758 56.9488 21.582 58.3232 21.6989 58.5896C21.7387 58.7013 21.8096 58.7992 21.903 58.8716C21.9965 58.9439 22.1086 58.9877 22.2261 58.9978C22.3435 59.0078 22.4614 58.9837 22.5656 58.9283C22.6698 58.8728 22.7561 58.7884 22.814 58.685C22.9654 58.457 23.4122 57.2673 24.4559 55.7813C25.7273 53.9682 28.2456 52.6 28.6726 52.3112C28.8 52.2371 28.899 52.122 28.9534 51.9844C29.0079 51.8468 29.0148 51.6947 28.973 51.5527C28.9471 51.4742 28.9046 51.4021 28.8485 51.3416C28.7925 51.2811 28.7241 51.2335 28.648 51.202Z" fill="#FFD79B"/>
<path d="M70.6481 76.2015C69.4297 75.6599 68.1867 74.8865 67.3806 74.1008C65.6576 72.4276 65.2884 69.9624 65.2146 69.5546C65.2031 69.462 65.1717 69.373 65.1226 69.2938C65.0735 69.2146 65.0079 69.1472 64.9303 69.0961C64.8573 69.0474 64.7742 69.0162 64.6874 69.0048C64.6006 68.9935 64.5124 69.0022 64.4294 69.0304C64.3341 69.0564 64.2473 69.1074 64.1779 69.1781C64.1085 69.2489 64.059 69.3369 64.0344 69.4332C63.4498 71.3828 63.0018 72.0929 62.2019 73.1378C61.2321 74.4007 60.0728 75.2447 58.4003 75.8334C58.2981 75.8699 58.2076 75.9334 58.1383 76.0175C58.0691 76.1015 58.0238 76.2028 58.0071 76.3107C57.9905 76.4186 58.0031 76.529 58.0437 76.6302C58.0844 76.7315 58.1514 76.8197 58.2378 76.8857C60.6254 78.7026 61.429 79.098 62.6523 81.0934C63.1766 81.9486 63.5827 83.3244 63.6996 83.5896C63.7394 83.7013 63.8103 83.7992 63.9037 83.8715C63.9971 83.9439 64.1093 83.9877 64.2267 83.9978C64.3441 84.0078 64.462 83.9837 64.5662 83.9283C64.6704 83.8728 64.7567 83.7884 64.8146 83.685C64.966 83.457 65.4127 82.2672 66.4564 80.7811C67.7276 78.9679 70.2444 77.5996 70.6727 77.3108C70.8001 77.2367 70.899 77.1216 70.9534 76.984C71.0079 76.8464 71.0148 76.6943 70.973 76.5523C70.9465 76.474 70.9039 76.4023 70.8479 76.3418C70.7918 76.2814 70.7238 76.2336 70.6481 76.2015Z" fill="#FFD79B"/>
<path d="M65.6481 26.2015C64.4297 25.6599 63.1867 24.8865 62.3806 24.1008C60.6576 22.4276 60.2884 19.9624 60.2146 19.5546C60.2031 19.462 60.1717 19.373 60.1226 19.2938C60.0735 19.2146 60.0079 19.1472 59.9303 19.0961C59.8573 19.0474 59.7742 19.0162 59.6874 19.0048C59.6006 18.9935 59.5124 19.0022 59.4294 19.0304C59.3341 19.0564 59.2473 19.1074 59.1779 19.1781C59.1085 19.2489 59.059 19.3369 59.0344 19.4332C58.4498 21.3828 58.0018 22.0929 57.2019 23.1378C56.2321 24.4007 55.0728 25.2447 53.4003 25.8334C53.2981 25.8699 53.2076 25.9334 53.1383 26.0175C53.0691 26.1015 53.0238 26.2028 53.0071 26.3107C52.9905 26.4186 53.0031 26.529 53.0437 26.6302C53.0844 26.7315 53.1514 26.8197 53.2378 26.8857C55.6254 28.7026 56.429 29.098 57.6523 31.0934C58.1766 31.9486 58.5827 33.3244 58.6996 33.5896C58.7394 33.7013 58.8103 33.7992 58.9037 33.8715C58.9971 33.9439 59.1093 33.9877 59.2267 33.9978C59.3441 34.0078 59.462 33.9837 59.5662 33.9283C59.6704 33.8728 59.7567 33.7884 59.8146 33.685C59.966 33.457 60.4127 32.2672 61.4564 30.7811C62.7276 28.9679 65.2444 27.5996 65.6727 27.3108C65.8001 27.2367 65.899 27.1216 65.9534 26.984C66.0079 26.8464 66.0148 26.6943 65.973 26.5523C65.9465 26.474 65.9039 26.4023 65.8479 26.3418C65.7918 26.2814 65.7238 26.2336 65.6481 26.2015Z" fill="#FFD79B"/>
</svg>
