<svg width="101" height="100" viewBox="0 0 101 100" fill="none" xmlns="http://www.w3.org/2000/svg">
<path fill-rule="evenodd" clip-rule="evenodd" d="M16.1377 64.7056C14.4906 64.327 11.697 57.0291 11.3308 55.6828C8.65222 45.8694 9.81179 35.4043 14.5737 26.4153C18.0024 19.9472 23.0197 15.5119 29.249 11.8249C51.5849 -1.39966 78.7576 8.99425 89.194 31.9069C101.43 58.77 71.4014 101.193 40.9557 88.9539C32.6122 85.5925 24.3466 80.216 19.4089 72.5979C18.9188 71.8407 16.1359 64.7056 16.1359 64.7056H16.1377Z" fill="#FF9E5E"/>
<path fill-rule="evenodd" clip-rule="evenodd" d="M59.709 23.9261C59.3551 22.7549 58.2122 22.0013 57.0782 21.704C54.9056 21.1379 52.4783 21.8809 50.8861 23.3794C49.4247 24.7594 48.9294 25.7484 48.7631 26.2437C47.0555 26.0487 45.3352 25.9895 43.6183 26.0668C35.657 26.472 28.3468 30.7339 23.6142 37.0516C18.1298 44.3849 15.6883 53.7703 15.8299 63.0886L16.097 63.7025L16.7197 63.9537L17.3389 63.6848L17.5884 63.0603C17.484 55.7218 19.0675 48.1992 22.6713 41.7488C26.5794 34.7588 33.0846 29.4813 40.6691 28.1615C44.2074 27.5476 47.79 27.7511 51.638 28.4322C51.6946 28.4534 51.753 28.4817 51.8149 28.4977C53.7751 29.0903 55.3692 28.8816 57.0994 28.1916C58.5272 27.6148 60.2468 25.6811 59.709 23.9261Z" fill="#ED7525"/>
<path fill-rule="evenodd" clip-rule="evenodd" d="M50.1006 18.7671C49.8139 18.99 50.3518 19.8057 50.6313 20.5982C50.9958 21.6598 51.2806 22.7584 51.5371 23.8535C51.8007 24.969 51.9577 26.1069 52.006 27.2521C52.006 27.5104 51.7813 28.4074 52.0378 28.5542C52.243 28.6745 52.9118 28.7665 53.1311 28.7913C53.8193 28.8953 54.5204 28.8786 55.2028 28.7418C55.753 28.6409 56.7951 28.4693 57.2498 28.1102C57.4055 27.9899 57.1489 27.0362 57.0286 26.7125C56.5608 25.443 56.2195 24.1304 56.0096 22.7938C55.7865 21.3939 55.6682 19.9794 55.6557 18.5619C55.6557 18.408 55.8044 17.2562 55.6557 17.1554C55.5071 17.0546 54.1537 16.936 52.4553 17.5092C51.6096 17.794 50.8164 18.216 50.1076 18.7583L50.1006 18.7671Z" fill="#926E57"/>
<path d="M68.4932 58.1092C70.042 55.8599 69.4741 52.7809 67.2248 51.2321C64.9755 49.6833 61.8965 50.2512 60.3477 52.5005C58.7989 54.7498 59.3668 57.8288 61.6161 59.3776C63.8654 60.9264 66.9444 60.3585 68.4932 58.1092Z" fill="#242424"/>
<path d="M42.3141 63.6826C44.8524 62.6751 46.0934 59.8006 45.0858 57.2623C44.0783 54.724 41.2038 53.483 38.6655 54.4906C36.1272 55.4981 34.8862 58.3726 35.8938 60.9109C36.9013 63.4493 39.7758 64.6902 42.3141 63.6826Z" fill="#242424"/>
<path d="M42.5617 73.1612C45.0053 72.8143 46.7701 71.0101 46.5034 69.1314C46.2367 67.2528 44.0395 66.011 41.5959 66.3579C39.1522 66.7049 37.3875 68.509 37.6542 70.3877C37.9209 72.2664 40.1181 73.5081 42.5617 73.1612Z" fill="#DD6057"/>
<path d="M67.0118 69.6585C69.4409 69.2215 71.1377 67.3532 70.8017 65.4857C70.4657 63.6182 68.2241 62.4586 65.795 62.8956C63.3659 63.3327 61.6691 65.2009 62.0051 67.0684C62.3411 68.936 64.5827 70.0956 67.0118 69.6585Z" fill="#DD6057"/>
<path d="M63.7935 58.4225C64.2373 57.7322 64.0374 56.813 63.3472 56.3693C62.6569 55.9255 61.7376 56.1253 61.2939 56.8156C60.8502 57.5058 61.05 58.4252 61.7403 58.8689C62.4305 59.3126 63.3498 59.1128 63.7935 58.4225Z" fill="white"/>
<path d="M38.7548 60.0085C39.5765 60.0085 40.2427 59.3423 40.2427 58.5206C40.2427 57.6989 39.5765 57.0327 38.7548 57.0327C37.9331 57.0327 37.2669 57.6989 37.2669 58.5206C37.2669 59.3423 37.9331 60.0085 38.7548 60.0085Z" fill="white"/>
<path d="M59.134 61.4944C59.088 61.0274 58.7677 60.624 58.2653 60.624C57.8318 60.624 57.3489 61.0238 57.3949 61.4944C57.4356 61.9014 57.4285 62.2729 57.218 62.54C56.9433 62.8477 56.5797 63.0622 56.1777 63.1539C55.2931 63.3945 54.2104 63.1539 53.8105 62.2499C53.4921 61.5316 52.4129 61.7987 52.2183 62.4569C51.9847 63.253 51.4611 63.9925 50.626 64.2084C49.791 64.4242 49.1098 64.0315 48.7878 63.2778C48.602 62.8461 47.9669 62.747 47.5972 62.9664C47.1513 63.2265 47.1 63.7218 47.2858 64.1553C47.8979 65.5795 49.4813 66.2217 50.9533 65.9245C51.9054 65.7028 52.7317 65.1148 53.2532 64.288C54.1979 64.9656 55.5319 65.1372 56.6323 64.8382C58.2069 64.4083 59.3003 63.1486 59.134 61.4944Z" fill="#242424"/>
<path d="M86.7769 34.5517C84.7483 33.3994 83.3654 31.8794 82.2482 29.6844C81.3234 27.8764 80.8117 26.6505 80.2049 23.3611C80.1922 23.2875 80.1606 23.2184 80.1131 23.1605C80.0655 23.1025 80.0036 23.0577 79.9334 23.0303C79.8632 23.0029 79.7871 22.9939 79.7124 23.0041C79.6376 23.0143 79.5668 23.0435 79.5068 23.0887C79.3994 23.1843 79.3313 23.3155 79.3155 23.4575C79.1936 24.1313 78.593 28.2055 76.3438 30.8271C75.3094 32.0325 73.7572 33.1764 72.2427 33.9394C72.1558 33.9829 72.086 34.0537 72.0441 34.1407C71.9988 34.2319 71.988 34.3363 72.0137 34.4348C72.0495 34.5465 72.1142 34.647 72.2013 34.7265C72.7057 35.2375 75.6895 37.7483 77.1333 40.8461C78.2969 43.3388 78.7648 45.2951 78.9329 45.6759C78.9622 45.7566 79.0118 45.8285 79.077 45.8848C79.1423 45.9411 79.221 45.98 79.3057 45.9978C79.4201 46.0086 79.5348 45.9799 79.6302 45.9166C79.7257 45.8533 79.7962 45.7594 79.8296 45.6506C79.9868 45.2324 80.5607 43.029 81.2527 41.6862C82.8549 38.5523 83.8491 37.9749 86.8573 35.2484C86.9082 35.202 86.9474 35.1445 86.9717 35.0804C86.9961 35.0164 87.0049 34.9476 86.9974 34.8795C86.9896 34.8115 86.9655 34.7463 86.9272 34.6893C86.8888 34.6323 86.8373 34.5851 86.7769 34.5517Z" fill="#FFD79B"/>
<path d="M10.7022 64.2417C9.67219 63.7724 8.61929 63.1021 7.93714 62.4212C6.47911 60.9701 6.16668 58.8348 6.10523 58.4814C6.09478 58.4012 6.06793 58.3242 6.02645 58.2555C5.98498 58.1868 5.92983 58.128 5.86466 58.0829C5.80259 58.041 5.73212 58.0141 5.65854 58.0042C5.58495 57.9944 5.51015 58.0018 5.43975 58.026C5.3592 58.0489 5.28595 58.0933 5.22742 58.1548C5.1689 58.2163 5.12717 58.2927 5.10649 58.3762C4.6118 60.0657 4.23271 60.6811 3.55577 61.5866C2.73511 62.6811 1.75303 63.4125 0.338741 63.9227C0.25225 63.9543 0.175651 64.0094 0.117075 64.0822C0.0584987 64.155 0.0201278 64.2429 0.00603322 64.3364C-0.00806141 64.4298 0.0026482 64.5255 0.0370211 64.6133C0.071394 64.701 0.12815 64.7775 0.20127 64.8346C2.22064 66.4092 2.90174 66.7519 3.9359 68.4801C4.37955 69.2223 4.72323 70.4134 4.82217 70.6443C4.85586 70.7412 4.9158 70.826 4.99487 70.8887C5.07394 70.9514 5.16881 70.9894 5.2682 70.9981C5.36759 71.0068 5.46732 70.9859 5.55552 70.9378C5.64371 70.8898 5.71667 70.8166 5.76572 70.727C5.89382 70.5294 6.27186 69.4983 7.15501 68.2105C8.23083 66.6391 10.3616 65.4533 10.723 65.203C10.8308 65.1388 10.9145 65.0391 10.9606 64.9198C11.0067 64.8006 11.0125 64.6688 10.9771 64.5457C10.9552 64.4776 10.9193 64.4152 10.8718 64.3627C10.8244 64.3103 10.7665 64.269 10.7022 64.2417Z" fill="#FFD79B"/>
<path d="M36.5939 81.0822C35.1881 80.3239 33.7539 79.2412 32.8238 78.1411C30.8357 75.7986 30.4097 72.3474 30.3245 71.7765C30.3113 71.6468 30.275 71.5222 30.2184 71.4113C30.1617 71.3005 30.086 71.206 29.9965 71.1345C29.9123 71.0664 29.8164 71.0227 29.7162 71.0068C29.6161 70.9908 29.5143 71.0031 29.4186 71.0425C29.3086 71.0789 29.2084 71.1503 29.1284 71.2494C29.0483 71.3484 28.9911 71.4716 28.9627 71.6065C28.2882 74.3359 27.7713 75.3301 26.8483 76.7929C25.7293 78.561 24.3917 79.7426 22.4619 80.5668C22.3439 80.6178 22.2395 80.7068 22.1596 80.8245C22.0798 80.9421 22.0274 81.084 22.0082 81.235C21.989 81.3861 22.0036 81.5406 22.0505 81.6823C22.0973 81.8241 22.1747 81.9476 22.2744 82.04C25.0293 84.5837 25.9565 85.1372 27.368 87.9308C27.973 89.1281 28.4416 91.0541 28.5765 91.4254C28.6224 91.5818 28.7041 91.7189 28.812 91.8202C28.9198 91.9215 29.0491 91.9828 29.1847 91.9969C29.3202 92.011 29.4561 91.9772 29.5764 91.8996C29.6967 91.8219 29.7961 91.7037 29.863 91.559C30.0377 91.2398 30.5532 89.574 31.7573 87.4936C33.2242 84.955 36.1282 83.0394 36.6223 82.6351C36.7693 82.5314 36.8834 82.3702 36.9463 82.1776C37.0091 81.9849 37.0171 81.772 36.9688 81.5732C36.9383 81.4636 36.8891 81.3632 36.8244 81.2786C36.7598 81.1939 36.6813 81.127 36.5939 81.0822Z" fill="#FFD79B"/>
</svg>
