<svg width="101" height="100" viewBox="0 0 101 100" fill="none" xmlns="http://www.w3.org/2000/svg">
<path d="M63.3591 15.3683C59.916 15.864 58.3704 19.515 57.6111 22.5468C56.8954 24.7867 56.4972 27.1029 56.331 29.4282L56.396 29.3716C55.9318 33.1896 53.6306 34.6452 50.8429 36.7877C46.4122 40.1416 46.4994 42.2359 47.5261 47.4389C46.6572 47.1075 45.6797 46.5868 44.7171 46.221C43.4518 45.7764 42.2803 45.1887 41.2666 44.3087C39.7368 43.3498 39.1548 41.3076 38.8874 39.6617C38.9256 38.5768 39.0388 37.4958 39.2263 36.4266L39.1659 36.4702C39.7656 32.9214 40.8369 29.4152 40.8898 25.7949C40.9204 23.6979 40.046 19.9095 38.1522 18.6851C36.1304 17.3781 34.4697 18.8475 32.7942 19.825C30.8977 20.9325 29.2527 22.233 28.3161 24.2873C26.9236 27.3377 27.4806 33.5703 22.5355 32.5231C16.2622 31.192 13.2685 33.6965 14.7974 40.1472C15.527 41.9109 16.5667 43.7675 17.572 45.4181C18.3397 46.7799 19.3357 48.1574 19.5724 49.7708C19.7516 51.6469 19.0703 53.4701 19.0833 55.3489C19.1037 59.0491 23.0926 60.5362 25.1877 62.9609C27.3766 65.8813 24.3235 70.235 26.3425 73.316C27.4268 75.75 30.0881 76.9057 32.2511 78.2359C33.4059 78.8681 34.349 79.3591 35.1288 80.5613C38.7278 84.9131 39.2049 91.0139 42.8846 95.2887C44.3875 97.0274 46.6117 97.5797 48.7979 97.7375C50.9988 99.1541 53.65 98.7205 56.085 98.2945C60.6215 97.096 64.2122 93.7041 66.0511 89.4061L65.9908 89.4515C68.2651 85.5481 67.3554 80.4137 70.1402 76.773C72.6355 74.1802 76.9093 72.371 76.9102 68.2076C77.0857 64.1111 73.2268 61.4933 72.901 57.5137C72.7933 55.438 73.8293 53.5889 74.7436 51.8223C80.7367 43.8752 72.4471 41.3391 75.503 33.7448L75.4343 33.78C76.4452 31.6932 76.8917 28.6902 74.9126 27.0165C73.0662 25.5935 70.545 25.5573 68.6132 24.2317C65.1479 22.4326 68.3412 15.0462 63.3572 15.3655" fill="#8FAA83"/>
<path d="M51.4426 96.5678L51.4231 96.5576L51.4426 96.5678Z" fill="#A7C69B"/>
<path d="M64.81 15.5986C66.4002 19.1623 64.1379 24.1008 66.4429 27.6998C69.2454 30.7539 71.153 31.8001 71.4826 36.4118C72.4554 41.8646 69.2676 46.6639 67.7118 51.6358C63.9457 64.9717 76.8611 64.4509 67.9439 76.4165C65.8896 79.1578 65.4004 82.5238 65.0226 85.8062C65.0226 85.8331 65.0151 85.8601 65.0123 85.8861L65.0318 85.8099C64.6429 87.7853 64.5881 89.8666 63.6784 91.6953C63.1947 93.1184 61.8803 94.1089 61.4236 95.5217C62.5626 95.893 63.5493 95.1207 64.2855 94.3001C65.3567 93.1054 65.8302 91.7055 66.48 90.2704C67.2152 88.6477 67.7045 86.9286 68.0999 85.1917C68.3626 84.0425 68.589 82.9063 68.6874 81.7431C68.7803 80.6756 69.0383 79.5328 69.5842 78.6055C70.0892 77.7477 71.0918 76.9578 71.8604 76.3284C72.9131 75.4679 74.1059 74.7818 75.1038 73.8591C78.9933 70.2611 77.2389 64.6867 74.7957 60.7814C74.2628 59.9283 73.6817 59.0807 73.4264 58.106C72.7209 55.3722 74.7733 54.3 75.7183 52.1297C76.4962 50.3446 77.4143 48.306 77.2222 46.3065C77.03 44.307 76.2224 42.2824 75.5745 40.3859L75.606 40.4787C73.1628 35.9366 77.3521 32.746 75.8762 28.6606C74.441 23.9133 66.6545 26.2739 66.6981 20.0711C66.3519 18.4401 66.1254 16.5315 64.8118 15.5884" fill="#A7C69B"/>
<path d="M49.4514 95.3389L49.4598 95.3509L49.4514 95.3389Z" fill="#A7C69B"/>
<path d="M62.454 15.6647C62.4234 15.6585 62.3924 15.6548 62.3612 15.6535C61.5536 15.6015 60.6541 16.3274 60.2642 17.0079C58.6184 15.1596 56.0163 14.1302 56.4804 11.0817C56.8118 8.90482 55.6014 7.01852 53.3837 6.65555L53.4551 6.66208C51.1344 6.33811 49.4636 9.08211 47.1632 8.60682C45.1396 8.1761 43.5076 6.84308 42.1207 5.3244C40.6893 3.83913 38.8495 1.12389 36.4303 2.01876C34.0112 2.91364 32.3069 5.02921 31.5178 7.4437C31.1465 8.58735 30.9107 9.76996 30.6331 10.9396C30.3946 11.9487 30.2099 13.446 29.5953 14.3047L29.637 14.2462C28.5583 16.8333 25.8626 17.6465 23.7888 19.1782C22.5245 20.1148 21.482 21.9928 21.5331 23.5709C21.5609 24.4064 21.7828 25.2297 22.0028 26.0392C22.5115 27.9088 22.9998 29.5509 23.8594 31.259C24.8193 33.1574 23.1288 32.3563 21.6129 32.1947C20.7487 32.1325 19.8882 31.9552 19.0202 31.9562C15.4175 32.1418 13.8273 34.5647 14.0148 38.0625C14.0956 39.5626 14.7009 40.8771 15.5289 42.0978C16.2817 43.2071 16.7895 44.4927 17.5572 45.6132C18.776 47.2711 19.6867 49.202 19.5994 51.3426H19.605C19.2968 52.8548 18.7696 54.3586 18.7937 55.9265C18.8689 60.1493 24.6225 61.0832 25.3215 65.0238C25.4319 65.6504 25.3214 66.2918 25.2722 66.9258C25.1265 68.6701 25.3391 72.7193 26.7947 73.9929C27.6079 75.3557 29.003 76.2366 30.2748 77.1491C31.3117 77.8917 32.6373 78.484 33.6761 79.3399C34.752 80.2255 35.3209 81.3524 35.8993 82.6344C37.0689 85.2243 38.0576 87.9006 39.3934 90.4135C40.5714 92.6302 42.2924 95.624 44.512 96.9115C45.1089 97.2151 45.7736 97.4017 46.4095 97.6161C46.881 97.8482 48.0869 98.1202 48.2512 97.4936C49.5369 98.8981 51.2217 99.1404 53.7281 98.9788C54.2034 99.1134 59.8715 97.6848 58.5682 97.0953C57.7086 97.1965 56.8583 97.4945 55.969 97.4991L56.046 97.4926C54.3616 97.6346 52.6691 97.3378 51.1335 96.6312L51.1521 96.6414C50.4791 96.3341 49.807 96.0241 49.4385 95.3418C49.3586 95.2276 49.2816 95.1134 49.2027 95.0001C47.2765 91.8932 48.7385 87.1886 49.9917 83.9971C51.477 80.3768 54.8096 76.7695 53.5424 72.5996C52.6671 69.6142 48.8388 68.7351 50.3621 65.0888C51.3378 62.9537 53.147 61.3932 54.4317 59.4819C56.7655 56.2848 56.2197 51.6508 54.8606 48.1567C54.2869 46.5851 53.2825 45.1992 52.7626 43.6081C51.89 41.2874 53.3197 39.544 55.2125 38.392C59.4445 36.0323 60.1129 31.9023 59.1503 27.5124C58.9228 25.4702 58.8643 23.3639 59.2885 21.3411C59.7174 19.2989 60.5816 18.1738 62.1662 16.8723C62.3347 16.7483 62.4794 16.5948 62.5933 16.4193C62.649 16.3308 62.6819 16.2299 62.6888 16.1255C62.6958 16.0211 62.6766 15.9167 62.6332 15.8215C62.6036 15.7633 62.5565 15.7159 62.4986 15.686C62.4843 15.6777 62.4694 15.6706 62.454 15.6647ZM45.5814 92.7565C45.1531 92.2865 44.8031 91.7509 44.5445 91.17C43.0695 87.96 43.5048 84.5012 42.6703 81.1565C41.9184 78.1303 40.6373 74.8182 37.9044 73.0275C37.056 72.426 35.8817 72.2292 35.1502 71.4327L35.2115 71.5209C33.3549 69.241 32.9325 66.2769 32.8249 63.4187C32.6643 59.4976 32.1694 55.2312 29.3817 52.2301C26.5941 49.2289 24.6744 52.7016 23.3061 51.3157C22.104 49.7274 22.3649 47.5153 22.4438 45.5844C22.7278 42.5981 23.7434 39.1662 26.234 37.1964L26.1727 37.2381C27.1873 36.4194 28.1871 35.5672 29.0458 34.5776C31.5132 31.5765 30.6238 27.3203 31.1882 23.7593C31.3265 22.6872 31.632 21.7849 32.2539 20.8612C32.33 20.7053 32.6327 20.4565 32.6318 20.2848C32.8332 20.1845 33.0476 20.0889 33.2769 19.9979C34.6609 19.4502 36.99 18.9861 38.2581 20.0907C39.4509 21.1304 39.0008 23.376 38.9785 24.8139C38.9349 29.2205 37.1321 33.2168 36.4349 37.4851L36.46 37.4117C35.9373 40.5345 35.7619 44.2226 38.0139 46.7569C38.881 47.8606 40.2892 48.049 41.548 48.4798C43.2681 49.0015 45.2611 49.6643 46.0437 51.3575C46.7529 53.6782 45.7652 55.9312 44.9956 58.1674C44.5788 59.5311 44.0674 60.9142 43.8186 62.3178C43.3238 64.9551 43.4213 67.7242 44.7469 70.1275C45.7466 71.7102 48.0683 72.4965 48.1973 74.6204C48.5686 78.4868 46.2535 81.876 45.3437 85.4991C44.8362 88.0354 45.0347 90.6622 45.9175 93.0934C45.7922 92.9952 45.6793 92.882 45.5814 92.7565Z" fill="#A7C69B"/>
<path d="M52.7265 97.3478C55.7898 96.6562 57.9397 94.1805 59.2365 91.4355C59.9792 89.8658 60.4304 88.1865 60.7748 86.4952C61.1888 84.4303 61.4764 82.3421 61.6361 80.2422C61.8014 78.1442 61.8654 76.0389 61.8831 73.9344C61.8998 71.8588 61.8246 69.7803 61.8719 67.7056C61.9648 63.6499 62.8235 59.6452 63.8 55.7241C65.4069 49.2753 67.5058 42.8367 67.606 36.1316C67.6775 31.3797 66.6861 25.8433 62.5088 22.9452C61.4588 22.2354 60.2911 21.7178 59.0601 21.4163C58.3277 21.2307 57.5545 21.175 56.8648 20.8454C56.2346 20.5287 55.6818 20.0771 55.2458 19.5226C54.7436 18.9137 54.3407 18.2341 53.9527 17.5491C53.7671 17.2269 53.5814 16.9076 53.4124 16.5772C53.198 16.152 53.0644 15.6925 52.8267 15.2776C52.0757 13.9668 50.6684 13.5138 49.2296 13.4674C48.4869 13.4451 47.7443 13.549 47.0221 13.6697C46.4595 13.7626 46.5394 15.4622 47.0648 15.401C48.3978 15.246 49.975 15.0974 51.2245 15.6943C51.8975 16.0165 52.2771 16.5131 52.5584 17.1917C52.8773 17.9283 53.2474 18.6417 53.6659 19.3267C54.3955 20.5716 55.2523 21.8758 56.5742 22.5544C57.224 22.8904 57.9332 22.9721 58.6406 23.1281C59.2754 23.268 59.8966 23.4634 60.4972 23.712C62.5696 24.567 64.2641 26.1408 65.2695 28.1446C66.2851 30.1553 66.6518 32.3961 66.7399 34.5433C66.9832 40.5011 65.2296 46.3901 63.7127 52.1864C62.7065 56.0351 61.7393 59.9116 61.277 63.869C60.8128 67.869 61.0848 71.9052 60.9854 75.9219C60.8926 79.8476 60.5909 83.8736 59.5354 87.6722C58.7612 90.4571 57.2574 93.3589 54.7083 94.9036C54.0806 95.2867 53.3978 95.5709 52.6838 95.7465C52.1361 95.8802 52.2567 97.4527 52.7227 97.3478H52.7265Z" fill="#D5EDC8"/>
<path d="M47.593 94.2389C43.9458 88.8159 42.209 82.381 42.4605 75.8699C42.5292 74.0421 42.6462 72.2162 42.4791 70.393C42.3324 68.7833 41.9156 67.2368 41.3234 65.7385C40.2762 63.0901 38.6777 60.697 36.979 58.4264C33.4515 53.7181 29.3289 49.3579 27.5781 43.6053C26.7111 40.7545 26.454 37.6781 27.6227 34.8747C28.0869 33.7607 28.7042 32.7164 29.1312 31.5857C29.6241 30.2806 29.8469 28.9327 29.9982 27.5523C30.1374 26.2787 30.2664 25.0051 30.4447 23.737C30.5273 23.1457 30.6155 22.5897 30.7371 22.0058C30.8261 21.532 30.9537 21.0663 31.1186 20.6134C32.1128 18.0977 34.5366 16.2188 37.1664 15.686C37.8264 15.5568 38.4964 15.4856 39.1688 15.4734C39.801 15.4585 39.762 13.5333 39.1196 13.4637C36.305 13.1555 33.431 14.7168 31.7053 16.876C29.9796 19.0352 29.6556 21.7904 29.3353 24.4407C29.1887 25.6558 29.0894 26.8784 28.9204 28.0907C28.7348 29.4052 28.2326 30.6018 27.6505 31.7825C27.0462 33.0097 26.4911 34.2434 26.1949 35.5885C25.8088 37.3356 25.7698 39.1309 25.9638 40.9049C26.3268 44.2337 27.5679 47.5106 29.2593 50.3874C30.7622 52.9429 32.6197 55.2628 34.4521 57.5853C36.2845 59.9079 38.1143 62.2268 39.5243 64.814C40.2097 66.0448 40.7552 67.3485 41.1507 68.7007C41.6213 70.3716 41.6279 72.1047 41.5703 73.8286C41.5118 75.6109 41.4069 77.3858 41.5108 79.169C41.8061 84.3002 43.2896 89.2926 45.8442 93.7525C46.2628 94.4747 46.712 95.1774 47.1818 95.8662C47.4277 96.2273 47.7257 95.7418 47.7851 95.5153C47.8432 95.301 47.8562 95.077 47.8231 94.8574C47.79 94.6379 47.7117 94.4275 47.593 94.2398V94.2389Z" fill="#D5EDC8"/>
<path d="M39.6783 62.3374C37.1636 58.7755 38.5644 53.8342 42.0678 51.4764C42.5589 51.145 42.3593 49.2754 41.7838 49.6198C38.1235 51.8078 36.8638 56.7927 37.8423 60.7389C38.1213 61.866 38.6155 62.9286 39.2978 63.8682C39.5364 64.1977 39.8 63.7586 39.8548 63.5395C39.955 63.1487 39.9123 62.6744 39.6765 62.3411L39.6783 62.3374Z" fill="#D5EDC8"/>
<path d="M42.298 77.7109C42.4406 76.9865 42.3688 76.2362 42.0915 75.552C41.8142 74.8677 41.3433 74.2792 40.7366 73.8585C39.5178 72.9887 37.9518 72.7974 36.6234 72.1393C34.3647 70.999 32.6286 69.0367 31.7721 66.6559C31.3237 65.389 31.1713 64.0363 31.3265 62.7013C31.3599 62.4052 31.3386 61.8529 31.0583 61.6607C30.7928 61.4751 30.5941 61.7787 30.5458 62.0367C30.0828 64.7541 30.6251 67.547 32.071 69.8937C33.4709 72.1653 35.5391 73.8019 38.1049 74.5519C38.9237 74.7905 39.7758 75.0105 40.5045 75.4747C41.0272 75.8079 41.7039 76.428 41.586 77.1085C41.5415 77.3702 41.586 77.8836 41.8311 78.0516C42.0761 78.2196 42.2562 77.9457 42.2952 77.7109H42.298Z" fill="#D5EDC8"/>
<path d="M53.9007 96.9773C56.3013 95.7566 57.7995 93.1982 58.0474 90.5553C58.1737 89.1463 57.9554 87.7276 57.4115 86.4217C56.8795 85.1174 56.0998 83.9384 55.4045 82.7196C54.7287 81.536 54.012 80.2281 54.1977 78.8208C54.2367 78.5181 54.2089 77.8693 53.8701 77.7198C53.5155 77.5639 53.3855 78.1385 53.3567 78.3622C52.9854 81.174 54.5486 83.4539 55.8955 85.7598C56.5119 86.8143 57.132 87.9459 57.2564 89.1833C57.3715 90.3168 57.0866 91.4641 56.5816 92.475C55.9449 93.7481 54.9225 94.7877 53.6602 95.4456C53.2072 95.6823 53.3818 97.239 53.9016 96.9754L53.9007 96.9773Z" fill="#D5EDC8"/>
<path d="M61.6446 80.5492C65.8061 76.5297 67.4844 70.2962 66.1996 64.693C66.1449 64.4507 65.9333 64.1778 65.6873 64.3625C65.4413 64.5473 65.4227 65.0931 65.4775 65.3586C66.5135 70.3473 64.8508 75.5596 61.1989 79.102C60.8276 79.4584 61.0987 81.0764 61.6446 80.5492Z" fill="#D5EDC8"/>
<path d="M53.6157 64.7414C55.4723 64.5028 57.3289 65.1554 58.7269 66.3845C59.9921 67.4984 61.0374 69.1694 60.9548 70.9099C60.9427 71.1745 60.9325 71.7129 61.2333 71.8456C61.534 71.9784 61.6603 71.4957 61.6733 71.2998C61.752 70.1819 61.5863 69.0602 61.1877 68.0128C60.7892 66.9653 60.1674 66.0172 59.3655 65.2343C57.8329 63.7491 55.7192 62.8653 53.5711 63.1577C53.0337 63.2311 53.1181 64.8045 53.6101 64.7414H53.6157Z" fill="#D5EDC8"/>
<path d="M64.1073 53.7327C65.2556 51.1734 67.1094 49.0736 68.7005 46.7928C70.2294 44.6002 71.3749 42.1513 71.7639 39.4862C71.9765 38.0223 71.9338 36.4628 71.4195 35.0638C71.3323 34.8262 71.1484 34.5264 70.9015 34.7854C70.6713 35.0286 70.6982 35.6022 70.7938 35.89C71.7342 38.7018 70.4504 41.949 68.9642 44.3375C67.2153 47.1493 64.9121 49.573 63.5578 52.629C63.4157 52.9501 63.4102 53.431 63.5856 53.7429C63.736 54.0121 63.9746 54.0307 64.1101 53.7299L64.1073 53.7327Z" fill="#D5EDC8"/>
<path d="M62.3398 61.2728C62.583 55.9462 60.7487 50.5974 57.0754 46.6986C56.0401 45.5789 54.8567 44.6057 53.5582 43.806C53.2045 43.5925 53.0421 44.285 53.0189 44.4939C52.9799 44.8652 53.0188 45.4417 53.3642 45.6747C57.289 48.3129 60.2177 52.3175 61.2212 56.9794C61.5018 58.2512 61.62 59.5535 61.573 60.855C61.561 61.1382 61.547 61.7211 61.871 61.865C62.195 62.0089 62.3296 61.4844 62.3352 61.2755L62.3398 61.2728Z" fill="#D5EDC8"/>
<path d="M20.2241 38.8281C19.048 44.5269 23.0303 49.8033 27.8565 52.3886C29.1546 53.0916 30.5471 53.6043 31.9911 53.911C32.4432 54.0038 32.5036 52.4258 31.9513 52.293C29.6027 51.736 27.3887 50.4995 25.5126 49.0003C23.6616 47.5216 21.9851 45.5656 21.21 43.2941C20.8127 42.1208 20.6799 40.8917 20.9315 39.6738C21.0011 39.3322 21.0327 38.7836 20.7616 38.5107C20.4906 38.2377 20.2826 38.5645 20.2279 38.83L20.2241 38.8281Z" fill="#D5EDC8"/>
<path d="M63.5686 37.8C64.8178 36.5508 64.8178 34.5254 63.5686 33.2761C62.3193 32.0269 60.2939 32.0269 59.0447 33.2761C57.7954 34.5254 57.7954 36.5508 59.0447 37.8C60.2939 39.0493 62.3193 39.0493 63.5686 37.8Z" fill="#242424"/>
<path d="M37.5277 39.0235C38.598 37.618 38.3263 35.6108 36.9208 34.5405C35.5152 33.4701 33.5081 33.7419 32.4377 35.1474C31.3674 36.553 31.6391 38.5601 33.0447 39.6304C34.4502 40.7008 36.4573 40.4291 37.5277 39.0235Z" fill="#242424"/>
<path d="M38.1798 43.6843C38.1987 42.4714 36.2928 41.4585 33.923 41.4216C31.5531 41.3848 29.6167 42.3381 29.5979 43.551C29.579 44.7638 31.4849 45.7769 33.8547 45.8137C36.2246 45.8505 38.161 44.8972 38.1798 43.6843Z" fill="#F7877E"/>
<path d="M61.6281 44.5673C63.9927 44.4057 65.8425 43.2937 65.7598 42.0835C65.6771 40.8733 63.6932 40.0233 61.3286 40.1849C58.964 40.3465 57.1141 41.4586 57.1968 42.6688C57.2795 43.879 59.2635 44.729 61.6281 44.5673Z" fill="#F7877E"/>
<path fill-rule="evenodd" clip-rule="evenodd" d="M61.4255 34.796C61.4225 34.9864 61.3631 35.1716 61.2549 35.3282C61.1466 35.4849 60.9943 35.6059 60.8173 35.676C60.6402 35.7461 60.4464 35.7621 60.2602 35.722C60.0741 35.6819 59.904 35.5875 59.7715 35.4507C59.639 35.314 59.5501 35.141 59.516 34.9536C59.4818 34.7663 59.5039 34.573 59.5796 34.3983C59.6553 34.2236 59.7811 34.0752 59.9411 33.972C60.1011 33.8688 60.2882 33.8154 60.4786 33.8185C60.7338 33.8226 60.9769 33.9279 61.1544 34.1112C61.332 34.2945 61.4295 34.5408 61.4255 34.796Z" fill="white"/>
<path fill-rule="evenodd" clip-rule="evenodd" d="M34.9617 36.4723C34.9589 36.6627 34.8997 36.848 34.7916 37.0047C34.6835 37.1615 34.5314 37.2827 34.3544 37.3529C34.1774 37.4232 33.9835 37.4394 33.7974 37.3995C33.6112 37.3596 33.441 37.2653 33.3084 37.1287C33.1758 36.992 33.0866 36.8191 33.0523 36.6318C33.0179 36.4445 33.0399 36.2512 33.1155 36.0764C33.191 35.9016 33.3167 35.7532 33.4766 35.6498C33.6365 35.5464 33.8235 35.4928 34.0139 35.4957C34.2691 35.4996 34.5122 35.6047 34.6899 35.7878C34.8677 35.9709 34.9654 36.2171 34.9617 36.4723Z" fill="white"/>
<path d="M53.7411 38.0904C53.6799 38.0544 53.612 38.0312 53.5415 38.0225C53.4711 38.0138 53.3995 38.0196 53.3314 38.0396C53.2633 38.0596 53.1999 38.0934 53.1454 38.1389C53.0908 38.1843 53.0462 38.2405 53.0142 38.3039C52.9167 38.485 52.8202 38.6474 52.7209 38.7996C52.655 38.9008 52.5863 38.9992 52.5139 39.0967L52.4313 39.2044L52.4202 39.2183C52.3812 39.2666 52.3422 39.3111 52.3013 39.3594C51.8756 39.8574 51.3545 40.2652 50.7687 40.5588C49.1851 41.3664 46.9729 41.4156 44.9956 40.6887C43.8666 40.2796 42.8655 39.5796 42.0938 38.6595C42.0483 38.6043 41.9918 38.5592 41.9278 38.5273C41.8639 38.4953 41.7939 38.4771 41.7225 38.4738C41.6099 38.4634 41.4969 38.4874 41.3983 38.5428C41.2998 38.5981 41.2204 38.6821 41.1707 38.7837C41.121 38.8852 41.1034 38.9995 41.1202 39.1113C41.137 39.2231 41.1875 39.3271 41.2649 39.4095C42.7325 41.1798 45.1266 42.2631 47.6701 42.3086C49.8052 42.3457 51.6728 41.6439 52.9251 40.3323C53.3432 39.8906 53.7001 39.3948 53.9862 38.8581C54.0213 38.7918 54.0427 38.7191 54.0493 38.6444C54.0559 38.5696 54.0476 38.4943 54.0248 38.4228C54.002 38.3513 53.9651 38.2851 53.9164 38.2281C53.8677 38.171 53.8081 38.1242 53.7411 38.0904Z" fill="#242424"/>
<path d="M94.7769 19.5517C92.7483 18.3994 91.3654 16.8794 90.2482 14.6844C89.3234 12.8764 88.8117 11.6505 88.2049 8.36112C88.1922 8.28752 88.1606 8.21842 88.1131 8.16046C88.0655 8.1025 88.0036 8.05766 87.9334 8.03027C87.8632 8.00288 87.7871 7.99386 87.7124 8.0041C87.6376 8.01434 87.5668 8.04348 87.5068 8.0887C87.3994 8.18427 87.3313 8.31555 87.3155 8.45755C87.1936 9.13135 86.593 13.2055 84.3438 15.8271C83.3094 17.0325 81.7572 18.1764 80.2427 18.9394C80.1558 18.9829 80.086 19.0537 80.0441 19.1407C79.9988 19.2319 79.988 19.3363 80.0137 19.4348C80.0495 19.5465 80.1142 19.647 80.2013 19.7265C80.7057 20.2375 83.6895 22.7483 85.1333 25.8461C86.2969 28.3388 86.7648 30.2951 86.9329 30.6759C86.9622 30.7566 87.0118 30.8285 87.077 30.8848C87.1423 30.9411 87.221 30.98 87.3057 30.9978C87.4201 31.0086 87.5348 30.9799 87.6302 30.9166C87.7257 30.8533 87.7962 30.7594 87.8296 30.6506C87.9868 30.2324 88.5607 28.029 89.2527 26.6862C90.8549 23.5523 91.8491 22.9749 94.8573 20.2484C94.9082 20.202 94.9474 20.1445 94.9717 20.0804C94.9961 20.0164 95.0049 19.9476 94.9974 19.8795C94.9896 19.8115 94.9655 19.7463 94.9272 19.6893C94.8888 19.6323 94.8373 19.5851 94.7769 19.5517Z" fill="#FFD79B"/>
<path d="M10.7022 52.2417C9.67219 51.7724 8.61929 51.1021 7.93714 50.4212C6.47911 48.9701 6.16668 46.8348 6.10523 46.4814C6.09478 46.4012 6.06793 46.3242 6.02645 46.2555C5.98498 46.1868 5.92983 46.128 5.86466 46.0829C5.80259 46.041 5.73212 46.0141 5.65854 46.0042C5.58495 45.9944 5.51015 46.0018 5.43975 46.026C5.3592 46.0489 5.28595 46.0933 5.22742 46.1548C5.1689 46.2163 5.12717 46.2927 5.10649 46.3762C4.6118 48.0657 4.23271 48.6811 3.55577 49.5866C2.73511 50.6811 1.75303 51.4125 0.338741 51.9227C0.25225 51.9543 0.175651 52.0094 0.117075 52.0822C0.0584987 52.155 0.0201278 52.2429 0.00603322 52.3364C-0.00806141 52.4298 0.0026482 52.5255 0.0370211 52.6133C0.071394 52.701 0.12815 52.7775 0.20127 52.8346C2.22064 54.4092 2.90174 54.7519 3.9359 56.4801C4.37955 57.2223 4.72323 58.4134 4.82217 58.6443C4.85586 58.7412 4.9158 58.826 4.99487 58.8887C5.07394 58.9514 5.16881 58.9894 5.2682 58.9981C5.36759 59.0068 5.46732 58.9859 5.55552 58.9378C5.64371 58.8898 5.71667 58.8166 5.76572 58.727C5.89382 58.5294 6.27186 57.4983 7.15501 56.2105C8.23083 54.6391 10.3616 53.4533 10.723 53.203C10.8308 53.1388 10.9145 53.0391 10.9606 52.9198C11.0067 52.8006 11.0125 52.6688 10.9771 52.5457C10.9552 52.4776 10.9193 52.4152 10.8718 52.3627C10.8244 52.3103 10.7665 52.269 10.7022 52.2417Z" fill="#FFD79B"/>
<path d="M24.5939 85.0822C23.1881 84.3239 21.7539 83.2412 20.8238 82.1411C18.8357 79.7986 18.4097 76.3474 18.3245 75.7765C18.3113 75.6468 18.275 75.5222 18.2184 75.4113C18.1617 75.3005 18.086 75.206 17.9965 75.1345C17.9123 75.0664 17.8164 75.0227 17.7162 75.0068C17.6161 74.9908 17.5143 75.0031 17.4186 75.0425C17.3086 75.0789 17.2084 75.1503 17.1284 75.2494C17.0483 75.3484 16.9911 75.4716 16.9627 75.6065C16.2882 78.3359 15.7713 79.3301 14.8483 80.7929C13.7293 82.561 12.3917 83.7426 10.4619 84.5668C10.3439 84.6178 10.2395 84.7068 10.1596 84.8245C10.0798 84.9421 10.0274 85.084 10.0082 85.235C9.98901 85.3861 10.0036 85.5406 10.0505 85.6823C10.0973 85.8241 10.1747 85.9476 10.2744 86.04C13.0293 88.5837 13.9565 89.1372 15.368 91.9308C15.973 93.1281 16.4416 95.0541 16.5765 95.4254C16.6224 95.5818 16.7041 95.7189 16.812 95.8202C16.9198 95.9215 17.0491 95.9828 17.1847 95.9969C17.3202 96.011 17.4561 95.9772 17.5764 95.8996C17.6967 95.8219 17.7961 95.7037 17.863 95.559C18.0377 95.2398 18.5532 93.574 19.7573 91.4936C21.2242 88.955 24.1282 87.0394 24.6223 86.6351C24.7693 86.5314 24.8834 86.3702 24.9463 86.1776C25.0091 85.9849 25.0171 85.772 24.9688 85.5732C24.9383 85.4636 24.8891 85.3632 24.8244 85.2786C24.7598 85.1939 24.6813 85.127 24.5939 85.0822Z" fill="#FFD79B"/>
</svg>
