<svg width="100" height="100" viewBox="0 0 100 100" fill="none" xmlns="http://www.w3.org/2000/svg">
<path fill-rule="evenodd" clip-rule="evenodd" d="M51.9196 15.9893C52.0961 16.1144 51.8626 15.5444 51.8295 15.3226C51.7656 14.8951 51.7085 14.4437 51.6809 14.0164C51.5886 12.5614 51.3795 11.5424 51.5818 9.94701C51.7657 8.48836 51.9234 7.78915 53.3192 7.55033C53.7134 7.48226 54.6919 7.76937 54.7662 7.47002C54.8365 7.18412 54.46 7.08247 54.244 7.03946C50.4372 6.29725 49.9749 8.42633 49.8436 11.9288C49.8296 12.412 49.805 15.7113 50.0482 16.0807C50.3584 16.5466 51.9189 15.9848 51.9189 15.9848L51.9196 15.9893Z" fill="#242424"/>
<path fill-rule="evenodd" clip-rule="evenodd" d="M79.3606 28.5447C73.8663 19.3791 64.6727 13.9534 50.5018 15.9051C50.5018 15.9051 24.9991 13.3972 23.6352 41.433C23.0287 53.8919 27.7934 88.5838 48.448 91.3695C83.9448 96.1633 85.6502 66.1117 86.0673 63.6262C86.826 59.1204 88.3216 43.4892 79.3592 28.5413L79.3606 28.5447Z" fill="#A7C69B"/>
<path fill-rule="evenodd" clip-rule="evenodd" d="M53.0713 16.0125C52.7188 15.7344 54.3432 16.1198 54.4164 16.1394C55.1615 16.331 56.0179 16.5282 56.7056 16.8747C57.2059 17.1269 57.7908 17.2119 58.3051 17.4324C59.9313 18.1305 61.1251 19.4259 62.3755 20.5739C65.4143 23.362 64.4562 27.6058 66.0638 30.9884C67.2164 33.4191 69.5999 34.999 70.6339 37.4752C71.5697 39.7151 70.0748 41.8827 69.2737 43.9115C68.7547 45.2265 68.7962 46.896 69.1158 48.246C69.6685 50.5848 71.6938 51.9301 73.1905 53.636C74.3046 54.9062 75.0728 56.4931 75.4716 58.1221C76.4673 62.1918 72.9331 64.2565 72.0195 67.6822C71.6664 69.0049 72.5751 70.2855 72.5099 71.592C72.449 72.7766 71.2696 73.9782 71.0837 75.3667C70.8803 76.8893 72.0118 78.0755 71.9381 79.5C71.8627 80.9702 70.6125 82.0675 70.1394 83.4961C69.7372 84.7095 69.9473 86.8114 69.3395 87.9211C68.8702 88.7795 67.5492 90.8387 67.2141 90.621C67.02 90.4935 68.5675 88.0012 68.6629 87.2857C68.7848 86.3774 68.8482 85.2285 68.556 84.332C68.2638 83.4355 67.9631 82.7143 68.2884 81.732C68.6558 80.624 69.253 79.9641 69.314 78.7675C69.3947 77.1947 67.6222 75.705 67.7202 73.8035C67.8611 70.9851 69.8637 68.9621 68.9675 65.979C68.4091 64.1218 66.0794 61.6919 66.1157 59.8913C66.1378 58.7857 66.1045 56.876 66.6526 55.8743C67.1409 54.9807 67.8797 53.7069 67.4978 52.6552C67.0167 51.3154 65.3435 51.569 64.4423 50.9089C64.0744 50.6406 63.4114 50.1644 63.5874 49.6314C63.7067 49.2699 63.8889 48.8222 64.2451 48.6421C64.9532 48.2853 66.1797 48.5902 66.2409 47.4074C66.3261 45.7274 64.608 45.1161 64.7453 43.7404C64.9738 41.4396 65.9625 38.4473 65.1258 36.138C64.5893 34.6592 63.5989 33.5344 63.3622 31.9496C62.8794 28.7177 63.034 25.12 61.0164 22.272C60.0193 20.8639 58.5036 21.0801 57.6139 20.1089C57.1103 19.5589 56.901 18.0766 56.5625 17.8289C55.5394 17.0804 53.4292 16.2897 53.0688 16.0082L53.0713 16.0125Z" fill="#70995F"/>
<path fill-rule="evenodd" clip-rule="evenodd" d="M50.0523 16.409C50.1624 16.5772 49.0204 17.1317 48.5778 17.7728C46.9997 20.0585 46.9761 21.9808 47.1976 23.4632C47.7062 26.8677 49.4471 28.7314 50.9042 31.6259C51.3948 32.5974 52.1376 34.3758 51.394 35.3941C49.8344 37.5219 48.7128 40.055 48.4636 42.7005C48.3206 44.1903 50.2252 45.3142 49.9989 46.6079C49.7726 47.9015 48.6783 48.7812 48.5523 50.1467C48.4007 51.7383 50.4422 52.7993 50.1514 54.4875C49.8707 56.1206 48.4642 58.0862 49.201 59.8737C50.5089 63.048 54.4974 64.5685 55.7804 67.6801C56.7139 69.9459 56.3938 72.111 56.2835 74.4746C56.1702 76.8552 57.2622 78.6395 58.031 80.7877C58.6598 82.549 57.9978 84.9709 58.2831 86.8804C58.473 88.1515 58.9817 89.3538 59.6491 90.4438C60.0967 91.1762 60.4679 91.6422 60.2909 91.6807C59.5212 91.8455 56.8921 88.7846 56.0626 86.4691C55.6092 85.2022 56.0192 82.5992 55.4137 81.3975C54.8176 80.2156 53.5887 79.6258 53.1289 78.3405C51.9792 75.1296 52.7989 71.0901 51.5031 67.9472C49.4442 62.9514 44.3055 64.9411 42.5801 60.1217C40.9175 55.4784 45.1593 56.7488 45.624 54.0526C45.9864 51.9449 44.1804 51.4994 44.2968 50.559C44.4636 49.2281 45.7733 48.75 45.9187 47.2147C46.0585 45.7032 45.0072 43.7384 45.2173 42.5201C45.3627 41.6575 46.0823 40.8513 46.4573 40.045C47.1394 38.578 47.6073 36.6502 47.7596 35.051C47.9125 33.4315 46.5876 32.627 45.9706 31.4031C45.5566 30.5835 46.2555 29.8838 46.1259 29.0162C45.8765 27.3469 44.7813 25.9996 45.056 24.3019C45.4243 22.0253 46.0905 19.8094 47.4518 17.9447C47.7441 17.5457 48.2305 16.9904 48.8331 16.7896C49.1571 16.6821 49.964 16.2773 50.0493 16.4076L50.0523 16.409Z" fill="#70995F"/>
<path fill-rule="evenodd" clip-rule="evenodd" d="M41.1586 17.7767C41.2853 17.9957 38.6928 19.4406 37.8941 20.2305C37.2493 20.8675 36.7011 22.05 36.1588 22.7623C35.1166 24.1311 35.9419 26.0809 35.2529 27.4976C34.6865 28.6655 32.706 29.2669 32.4772 30.5106C32.1931 32.058 32.7209 34.2379 33.7569 35.3512C34.4066 36.0501 36.0668 36.4077 35.8313 37.6944C35.7097 38.353 33.5234 37.7218 33.391 38.113C33.053 39.1104 34.6404 39.4523 34.306 40.1409C33.9169 40.941 32.0638 40.9534 31.4659 42.351C31.1077 43.1886 30.9673 45.0301 31.6882 45.7275C32.1549 46.1766 33.3755 47.1973 33.2397 47.9312C33.1672 48.3272 32.7221 48.5446 32.6048 48.8924C32.4299 49.408 33.289 49.7966 32.9978 50.4027C32.7308 50.9503 31.6065 51.1595 31.5392 51.8099C31.2736 54.3683 31.6719 56.4304 32.3809 58.9355C33.1124 61.516 35.1996 63.4356 36.0842 65.8513C36.5271 67.0605 36.3137 67.9039 36.1858 69.137C36.0877 70.0849 36.498 71.5605 36.7926 72.4561C37.514 74.6483 39.1293 75.8315 39.9083 77.673C40.3217 78.6523 40.5743 79.8213 40.8801 80.8296C41.4738 82.7902 43.9681 84.7597 45.3482 86.2378C46.0869 87.0286 50.6167 91.025 50.5349 91.1004C50.0157 91.5832 41.804 85.5916 40.7786 83.8757C40.2642 83.013 39.6711 80.9059 39.0827 80.3406C38.1549 79.4481 36.9279 78.6863 36.1374 77.7496C35.6557 77.1811 35.9265 76.2816 35.4946 75.681C34.1687 73.8353 32.2811 72.0441 31.6239 69.8725C31.2295 68.5728 30.704 66.7356 30.7801 65.3446C30.8429 64.1916 30.8831 62.8874 30.4682 61.7655C29.9907 60.4572 28.7049 59.9815 27.9262 58.8975C27.2901 58.0127 28.8442 56.861 28.3543 56.1804C27.0021 54.2974 26.0293 54.1545 26.0878 51.4313C26.1126 50.2438 26.2589 49.0271 26.7318 47.9254C27.0997 47.0653 27.8577 46.6511 27.8869 45.5882C27.9195 44.0884 27.0788 42.6963 27.2305 41.1942C27.314 40.3941 29.6341 38.1573 29.7843 36.6958C29.8659 35.9142 30.086 35.2098 30.1673 34.42C30.3033 33.1088 29.4311 32.0095 29.6679 30.7061C29.8112 29.9281 31.6981 28.7761 31.9237 27.5549C31.9925 27.1842 31.8395 26.0662 32.1687 25.8404C32.5098 25.6065 33.4205 25.6479 33.512 25.153C33.6506 24.4004 33.5141 23.6944 33.7471 23.0073C34.2095 21.64 37.6465 19.3599 38.9451 18.7131C39.7327 18.3209 41.0008 17.5075 41.1547 17.77L41.1586 17.7767Z" fill="#70995F"/>
<path fill-rule="evenodd" clip-rule="evenodd" d="M62.3058 16.5612C62.1161 16.8176 64.8325 18.1988 70.0709 23.7085C70.9054 24.5858 72.0087 26.175 72.3853 27.336C72.7383 28.4199 72.5789 29.4228 73.4483 30.2748C74.1902 31.002 73.9452 32.1112 74.6676 32.8193C75.1944 33.336 76.1074 33.6392 76.5339 34.1892C77.8375 35.8711 78.2403 35.6507 78.6538 36.7933C79.0404 37.8612 77.7801 38.8729 77.6715 39.969C77.53 41.2695 77.6326 42.5843 77.9739 43.8467C78.6234 46.1613 82.4857 49.683 82.091 51.9044C81.9498 52.7013 79.7653 52.8472 79.6766 53.7306C79.5779 54.7318 82.107 55.6573 81.9124 56.746C81.7922 57.4244 80.5414 57.6039 80.4782 58.2682C80.3515 59.5456 80.354 60.8788 80.2287 62.1597C80.1197 63.2833 79.5425 64.2213 79.3818 65.3142C78.9392 68.3396 80.8083 70.538 79.2142 73.4616C78.831 74.1654 78.143 74.7876 77.7898 75.5318C77.4451 76.2584 77.4614 77.2882 77.2698 78.088C77.0334 79.0299 76.6886 79.9419 76.2422 80.8061C74.7827 83.5676 72.4961 86.4902 72.7082 86.7672C72.9204 87.0442 75.7251 84.0982 77.2175 82.0077C77.8612 81.1073 80.1537 76.2897 80.468 75.3415C80.6586 74.7635 80.1272 74.0671 80.3996 73.4933C80.7957 72.6593 82.0268 71.9093 82.1137 71.039C82.2641 69.5245 81.4946 68.3774 81.8874 66.7369C82.1147 65.787 82.3879 64.6865 82.7645 63.784C83.216 62.7035 84.1887 61.9106 84.3113 60.6732C84.4519 59.2481 83.1928 57.543 83.3297 56.167C83.4074 55.3769 84.2789 54.3766 83.9634 53.6113C83.5991 52.7361 82.9984 52.1636 83.1 51.1382C83.2944 49.1646 84.2545 46.7791 83.5393 44.8095C82.9817 43.2707 81.3849 42.6914 80.8995 41.074C80.4505 39.5758 81.1478 37.91 80.5652 36.5124C80.1839 35.5975 78.8603 35.1294 78.4287 34.2853C78.0909 33.625 78.2032 32.7143 77.9513 32.0164C77.4433 30.6122 75.023 29.3279 73.8866 28.4938C72.9141 27.78 73.5068 26.2296 72.9289 25.3332C70.4064 21.4245 62.5763 16.2149 62.318 16.5685L62.3058 16.5612Z" fill="#70995F"/>
<path d="M71.3241 41.6653C70.8314 40.0626 71.7313 38.3641 73.334 37.8714C74.9366 37.3788 76.6352 38.2786 77.1278 39.8813C77.6205 41.484 76.7206 43.1826 75.118 43.6752C73.5153 44.1678 71.8167 43.268 71.3241 41.6653Z" fill="#242424"/>
<path d="M38.0862 52.363C37.9288 51.3255 38.6966 50.3487 39.8011 50.1811C40.9055 50.0135 41.9285 50.7187 42.0859 51.7562C42.2433 52.7937 41.4755 53.7706 40.3711 53.9382C39.2666 54.1057 38.2436 53.4005 38.0862 52.363Z" fill="#DD6057"/>
<path d="M73.9926 46.9988C73.8352 45.9613 74.603 44.9844 75.7075 44.8168C76.8119 44.6493 77.8349 45.3545 77.9923 46.392C78.1497 47.4295 77.3819 48.4063 76.2775 48.5739C75.173 48.7415 74.15 48.0363 73.9926 46.9988Z" fill="#DD6057"/>
<path d="M37.7171 48.5351C36.3693 47.5377 36.0853 45.6366 37.0827 44.2888C38.0801 42.9411 39.9812 42.6571 41.329 43.6545C42.6767 44.6519 42.9607 46.553 41.9633 47.9008C40.9659 49.2485 39.0648 49.5325 37.7171 48.5351Z" fill="#242424"/>
<path d="M51.4735 46.1967C51.7672 47.8041 52.3154 49.4413 53.3665 50.6672C54.1833 51.6231 55.2588 52.2637 56.4246 52.4887C57.6206 52.7238 58.9652 52.5908 60.0256 51.9605C61.1356 51.3033 61.899 50.1552 62.2562 48.8339C62.6452 47.3602 62.6465 45.7848 62.2599 44.2865C62.2042 44.0687 62.043 43.8982 61.8255 43.9307C61.6412 43.9582 61.4577 44.1822 61.5131 44.398C62.0954 46.67 61.8446 49.5579 60.0337 50.9745C59.5508 51.3377 58.9981 51.5779 58.4145 51.6783C58.1397 51.7272 57.8616 51.755 57.5822 51.7614C57.3489 51.7654 57.1151 51.7537 56.8823 51.7264C56.3932 51.6769 55.9127 51.5398 55.4599 51.3206C54.9913 51.0999 54.5593 50.7918 54.1836 50.4104C53.7124 49.9215 53.3211 49.3478 53.0276 48.7156C52.6466 47.8816 52.3744 46.9955 52.2193 46.0843C52.124 45.5599 51.3769 45.6695 51.4733 46.1957L51.4735 46.1967Z" fill="#242424"/>
<path fill-rule="evenodd" clip-rule="evenodd" d="M39.2039 45.2856C39.2327 45.4813 39.3188 45.664 39.4514 45.8108C39.584 45.9575 39.7572 46.0616 39.949 46.1099C40.1408 46.1582 40.3426 46.1486 40.5289 46.0822C40.7152 46.0158 40.8776 45.8957 40.9957 45.737C41.1137 45.5783 41.182 45.3881 41.192 45.1906C41.202 44.9931 41.1531 44.797 41.0517 44.6273C40.9502 44.4575 40.8007 44.3216 40.622 44.2368C40.4434 44.152 40.2435 44.1221 40.0479 44.1508C39.9179 44.1698 39.7929 44.2142 39.6801 44.2815C39.5673 44.3488 39.4689 44.4377 39.3905 44.5431C39.3121 44.6485 39.2553 44.7684 39.2232 44.8958C39.1912 45.0232 39.1846 45.1557 39.2039 45.2856Z" fill="white"/>
<path d="M74.8187 40.4654C74.4794 40.2143 74.4079 39.7358 74.659 39.3965C74.9101 39.0572 75.3886 38.9857 75.7279 39.2368C76.0671 39.4879 76.1386 39.9664 75.8875 40.3057C75.6365 40.6449 75.1579 40.7164 74.8187 40.4654Z" fill="white"/>
<path d="M94.7769 19.5517C92.7483 18.3994 91.3654 16.8794 90.2482 14.6844C89.3234 12.8764 88.8117 11.6505 88.2049 8.36112C88.1922 8.28752 88.1606 8.21842 88.1131 8.16046C88.0655 8.1025 88.0036 8.05766 87.9334 8.03027C87.8632 8.00288 87.7871 7.99386 87.7124 8.0041C87.6376 8.01434 87.5668 8.04348 87.5068 8.0887C87.3994 8.18427 87.3313 8.31555 87.3155 8.45755C87.1936 9.13135 86.593 13.2055 84.3438 15.8271C83.3094 17.0325 81.7572 18.1764 80.2427 18.9394C80.1558 18.9829 80.086 19.0537 80.0441 19.1407C79.9988 19.2319 79.988 19.3363 80.0137 19.4348C80.0495 19.5465 80.1142 19.647 80.2013 19.7265C80.7057 20.2375 83.6895 22.7483 85.1333 25.8461C86.2969 28.3388 86.7648 30.2951 86.9329 30.6759C86.9622 30.7566 87.0118 30.8285 87.077 30.8848C87.1423 30.9411 87.221 30.98 87.3057 30.9978C87.4201 31.0086 87.5348 30.9799 87.6302 30.9166C87.7257 30.8533 87.7962 30.7594 87.8296 30.6506C87.9868 30.2324 88.5607 28.029 89.2527 26.6862C90.8549 23.5523 91.8491 22.9749 94.8573 20.2484C94.9082 20.202 94.9474 20.1445 94.9717 20.0804C94.9961 20.0164 95.0049 19.9476 94.9974 19.8795C94.9896 19.8115 94.9655 19.7463 94.9272 19.6893C94.8888 19.6323 94.8373 19.5851 94.7769 19.5517Z" fill="#FFD79B"/>
<path d="M15.7022 51.2417C14.6722 50.7724 13.6193 50.1021 12.9371 49.4212C11.4791 47.9701 11.1667 45.8348 11.1052 45.4814C11.0948 45.4012 11.0679 45.3242 11.0265 45.2555C10.985 45.1868 10.9298 45.128 10.8647 45.0829C10.8026 45.041 10.7321 45.0141 10.6585 45.0042C10.5849 44.9944 10.5101 45.0018 10.4397 45.026C10.3592 45.0489 10.2859 45.0933 10.2274 45.1548C10.1689 45.2163 10.1272 45.2927 10.1065 45.3762C9.6118 47.0657 9.23271 47.6811 8.55577 48.5866C7.73511 49.6811 6.75303 50.4125 5.33874 50.9227C5.25225 50.9543 5.17565 51.0094 5.11707 51.0822C5.0585 51.155 5.02013 51.2429 5.00603 51.3364C4.99194 51.4298 5.00265 51.5255 5.03702 51.6133C5.07139 51.701 5.12815 51.7775 5.20127 51.8346C7.22064 53.4092 7.90174 53.7519 8.9359 55.4801C9.37955 56.2223 9.72323 57.4134 9.82217 57.6443C9.85586 57.7412 9.9158 57.826 9.99487 57.8887C10.0739 57.9514 10.1688 57.9894 10.2682 57.9981C10.3676 58.0068 10.4673 57.9859 10.5555 57.9378C10.6437 57.8898 10.7167 57.8166 10.7657 57.727C10.8938 57.5294 11.2719 56.4983 12.155 55.2105C13.2308 53.6391 15.3616 52.4533 15.723 52.203C15.8308 52.1388 15.9145 52.0391 15.9606 51.9198C16.0067 51.8006 16.0125 51.6688 15.9771 51.5457C15.9552 51.4776 15.9193 51.4152 15.8718 51.3627C15.8244 51.3103 15.7665 51.269 15.7022 51.2417Z" fill="#FFD79B"/>
<path d="M28.5939 73.0822C27.1881 72.3239 25.7539 71.2412 24.8238 70.1411C22.8357 67.7986 22.4097 64.3474 22.3245 63.7765C22.3113 63.6468 22.275 63.5222 22.2184 63.4113C22.1617 63.3005 22.086 63.206 21.9965 63.1345C21.9123 63.0664 21.8164 63.0227 21.7162 63.0068C21.6161 62.9908 21.5143 63.0031 21.4186 63.0425C21.3086 63.0789 21.2084 63.1503 21.1284 63.2494C21.0483 63.3484 20.9911 63.4716 20.9627 63.6065C20.2882 66.3359 19.7713 67.3301 18.8483 68.7929C17.7293 70.561 16.3917 71.7426 14.4619 72.5668C14.3439 72.6178 14.2395 72.7068 14.1596 72.8245C14.0798 72.9421 14.0274 73.084 14.0082 73.235C13.989 73.3861 14.0036 73.5406 14.0505 73.6823C14.0973 73.8241 14.1747 73.9476 14.2744 74.04C17.0293 76.5837 17.9565 77.1372 19.368 79.9308C19.973 81.1281 20.4416 83.0541 20.5765 83.4254C20.6224 83.5818 20.7041 83.7189 20.812 83.8202C20.9198 83.9215 21.0491 83.9828 21.1847 83.9969C21.3202 84.011 21.4561 83.9772 21.5764 83.8996C21.6967 83.8219 21.7961 83.7037 21.863 83.559C22.0377 83.2398 22.5532 81.574 23.7573 79.4936C25.2242 76.955 28.1282 75.0394 28.6223 74.6351C28.7693 74.5314 28.8834 74.3702 28.9463 74.1776C29.0091 73.9849 29.0171 73.772 28.9688 73.5732C28.9383 73.4636 28.8891 73.3632 28.8244 73.2786C28.7598 73.1939 28.6813 73.127 28.5939 73.0822Z" fill="#FFD79B"/>
</svg>
