<svg width="100" height="100" viewBox="0 0 100 100" fill="none" xmlns="http://www.w3.org/2000/svg">
<path fill-rule="evenodd" clip-rule="evenodd" d="M21.0589 92.1225C21.0589 92.1225 20.5427 88.8939 19.3439 89.0262C18.145 89.1585 17.9145 91.06 18.3315 92.5986C18.7484 94.1372 19.6706 95.2408 20.5126 95.1175C21.3546 94.9942 21.1471 92.7219 21.0589 92.1225Z" fill="#70995F"/>
<path fill-rule="evenodd" clip-rule="evenodd" d="M20.677 95.0454C20.677 95.0454 24.7165 93.9949 26.9537 93.6521C26.9537 93.6521 25.7078 88.5111 26.1037 87.8064C26.1037 87.8064 21.9039 88.8418 19.4501 89.0182C19.4501 89.0182 21.4448 91.4239 20.677 95.0454Z" fill="#A7C69B"/>
<path fill-rule="evenodd" clip-rule="evenodd" d="M28.1996 50.4085C28.1996 50.4085 30.1091 40.3078 38.4236 37.8791C46.7382 35.4504 48.5795 38.2349 48.5795 38.2349L49.1138 45.2664L42.9202 45.9901C42.9202 45.9901 36.3628 43.1835 32.3333 49.9274C30.5131 52.9725 30.1131 53.5559 29.3173 53.4567C27.7746 53.2652 28.2006 50.4085 28.2006 50.4085H28.1996Z" fill="#EDA24F"/>
<path fill-rule="evenodd" clip-rule="evenodd" d="M28.1405 50.4055C28.4412 47.4075 29.3273 40.2406 38.2302 37.6235C45.6727 35.4363 48.6698 38.0124 48.6698 38.0124L48.778 44.8615C48.778 44.8615 47.2113 42.1301 44.2333 41.2049C40.8614 40.1584 35.8055 41.2049 31.4483 47.1188C29.3433 49.9735 29.7543 52.6748 29.0426 52.8172C28.752 52.8743 28.4793 52.8763 28.4021 52.7049C28.1575 52.1576 28.0673 51.1743 28.1445 50.4065L28.1405 50.4055Z" fill="#FFE3CE"/>
<path fill-rule="evenodd" clip-rule="evenodd" d="M46.9437 52.3891C46.643 53.0276 46.7723 54.2835 46.7623 54.494C46.632 57.2876 46.0065 60.5412 45.4742 63.3288C43.682 72.7178 36.3899 76.9388 30.5131 83.8069C29.9889 84.4193 29.3554 85.2553 28.4653 86.7669C27.9411 87.658 24.8999 87.8885 24.9009 88.0789C24.9069 89.6316 25.6547 93.1358 26.1579 93.7593C26.234 93.8535 30.1262 92.9664 30.7617 93.3804C31.4483 93.8284 31.4453 93.7703 32.2652 94.058C33.9 94.6283 34.709 94.8488 40.271 94.4319C52.2321 93.5297 61.7284 78.6899 65.2076 67.9396C66.2821 64.6208 66.9567 61.5105 66.4846 57.9872C66.4044 57.3858 66.0185 56.9257 65.804 56.3594C63.1558 49.38 58.2964 48.6553 56.5954 48.4328C54.2248 48.1231 50.5392 49.2798 48.5936 50.6029C48.2197 50.8555 47.2464 51.7356 46.9417 52.3851L46.9437 52.3891Z" fill="#FDC175"/>
<path fill-rule="evenodd" clip-rule="evenodd" d="M48.6457 45.8428C48.6457 45.8428 48.6687 42.3465 48.5905 41.4454C48.377 38.9786 47.914 36.5449 47.509 34.0871C46.2821 26.6437 43.672 19.5821 41.7094 12.3912C40.7812 8.98918 41.0077 6.63465 44.6914 5.62929C47.96 4.73719 50.7867 7.51772 52.3644 9.62969C54.9635 13.1089 57.0043 15.9816 58.2723 18.9135C60.3832 23.791 62.0672 27.6159 63.6509 32.6718C64.114 34.1523 66.2159 42.0358 65.4662 43.3489C64.0679 45.7966 60.4544 44.6099 58.4216 45.4899C57.1957 46.0212 56.4109 47.4475 55.4597 47.8585C54.7149 48.1813 53.5101 46.9854 52.9147 46.7499C51.5796 46.2206 49.9347 45.9139 48.6457 45.8478V45.8428Z" fill="#FFE3CE"/>
<path fill-rule="evenodd" clip-rule="evenodd" d="M74.2158 39.0046C74.2158 39.0558 75.7023 40.2205 76.1052 41.1717C76.7918 42.7925 76.892 43.5323 76.9161 45.0458C76.9392 46.4852 76.884 47.0064 77.0644 47.7612C77.5075 49.6196 79.2105 49.3239 79.8991 47.7833C80.7271 45.9299 80.7551 45.11 80.8904 43.5954C81.0849 41.4163 81.1811 38.2108 79.7357 36.6271C79.3538 36.2081 77.1296 37.7036 76.5863 37.8249C76.1684 37.9191 74.2158 39.0046 74.2158 39.0046Z" fill="#EDA24F"/>
<path fill-rule="evenodd" clip-rule="evenodd" d="M55.4016 48.4479C55.3955 48.464 59.3178 49.1716 60.9406 50.3173C64.0639 52.5225 65.2738 54.6846 66.4806 58.263C67.8618 62.3596 67.5481 65.7596 66.3122 70.8536C66.0315 72.0103 64.6463 75.3762 65.1905 76.2994C66.1137 77.866 69.4886 77.0592 70.7276 76.13C72.5077 74.7968 74.9886 70.0447 75.9498 67.2722C78.556 59.7545 77.4744 49.8172 71.0193 44.9778C70.3527 44.4766 67.8929 42.3917 62.4301 45.1532C61.5279 45.6083 59.7468 45.503 58.0257 45.9731C57.5336 46.1074 55.4016 48.4479 55.4016 48.4479Z" fill="#FFE3CE"/>
<path fill-rule="evenodd" clip-rule="evenodd" d="M65.0202 38.1989C65.0131 38.2069 65.9082 37.0873 66.245 36.7956C67.6293 35.5777 68.2307 35.251 69.4285 34.7328C72.6461 33.3405 78.4297 33.2793 80.0615 37.0512C80.0866 37.1093 79.0481 37.1986 78.2372 37.4602C76.8761 37.8836 75.6207 38.5919 74.5546 39.538C73.6394 40.357 72.5258 41.9116 72.1589 43.0964C71.9404 43.8031 71.4473 45.6885 71.4362 45.6695C71.321 45.469 70.0039 44.2742 69.4095 44.0657C67.5521 43.4101 65.2116 43.8472 65.2297 43.6457C65.5684 39.8728 65.0202 38.2049 65.0202 38.2049V38.1989Z" fill="#FFE3CE"/>
<path fill-rule="evenodd" clip-rule="evenodd" d="M54.5856 46.85C53.4379 46.1343 50.3056 44.2008 45.1375 44.6248C42.9373 44.8042 41.2283 46.4661 39.6415 47.8985C35.6041 51.5491 34.319 59.5258 35.8847 64.5065C36.0421 65.0077 37.1357 68.4448 37.8894 69.5183C39.2496 71.4709 40.3051 73.5818 42.7218 74.3627C43.667 74.6634 45.368 73.4245 45.3379 72.4341C45.2728 70.2931 43.9517 68.1771 43.649 65.99C43.3593 63.8911 43.5818 61.8232 43.7783 59.7363C44.1251 56.0506 47.0018 52.4321 50.2424 50.6269C53.7757 48.6583 55.9408 48.5681 55.8105 48.0769C55.7103 47.691 55.0227 47.1146 54.5886 46.845L54.5856 46.85Z" fill="#FFE3CE"/>
<path fill-rule="evenodd" clip-rule="evenodd" d="M70.074 76.0177C69.3313 76.4187 68.4392 76.55 67.5772 76.5961C66.9326 76.6311 66.2671 76.6301 65.7158 76.3495C65.5892 76.2668 65.4794 76.1611 65.392 76.0378C65.402 75.718 65.5123 75.3822 65.6035 75.0554C66.3052 72.5726 67.4078 70.179 67.7375 67.632C68.5855 61.1167 66.4345 54.7628 62.1244 50.3304C60.8794 49.0484 59.1554 48.3818 57.3932 48.2735C56.9993 48.2505 56.5402 48.2124 56.1904 48.2735C56.0905 48.2585 55.9887 48.2612 55.8897 48.2816C53.3186 48.7607 50.8689 49.6558 48.788 51.1593C45.2076 53.7474 43.3432 58.0054 43.1077 62.2574C42.9894 64.3964 43.2079 66.5896 43.8484 68.6424C44.1401 69.5696 44.4819 70.4937 44.6403 71.455C44.7646 72.2108 44.955 72.9585 44.6403 73.5599C44.116 74.5703 42.5754 74.3197 41.6543 73.57C41.2804 73.2622 40.7852 73.3915 40.71 73.7704C40.6589 74.025 40.8674 74.2506 40.8674 74.2506C41.9239 75.2529 43.6179 75.6017 44.7876 74.867C45.6226 74.3428 45.9083 73.3454 45.808 72.4162C45.6786 71.1827 45.4037 69.9687 44.9891 68.7997C43.678 65.1913 43.7331 60.813 45.2898 57.1524C47.1562 52.7641 51.3631 50.2361 55.8396 49.341C55.9308 49.323 56.029 49.309 56.1253 49.2849C56.1613 49.2969 56.1854 49.303 56.1854 49.303C57.288 49.2428 58.4156 49.336 59.448 49.743C60.4805 50.1499 61.2603 50.8927 61.973 51.6976C65.7068 55.9466 67.2243 61.1197 66.8374 66.2848C66.793 67.0709 66.6864 67.8521 66.5187 68.6213C65.9764 70.8987 65.0091 73.0397 64.4759 75.283C64.2754 76.13 64.4939 76.8036 65.0713 77.1684C66.3172 77.9553 68.2187 77.7468 69.7994 77.2396C70.2795 77.0852 70.8017 76.9048 70.8328 76.5079C70.8859 75.8553 70.074 76.0177 70.074 76.0177Z" fill="#EDA24F"/>
<path fill-rule="evenodd" clip-rule="evenodd" d="M56.1513 48.4439C56.3788 48.509 56.4039 48.5612 56.467 48.6504C56.5302 48.7396 56.5673 48.7787 56.5573 49.0152C56.1774 51.9271 56.0671 54.9201 55.3123 57.836C54.3911 61.3903 53.1803 64.8715 51.5665 68.1973C51.0553 69.2498 50.4479 70.2541 49.8485 71.2605C48.3951 73.6982 46.7903 76.0197 44.8367 78.2579C44.2353 78.9486 43.8213 78.5416 43.7622 78.2118C43.7371 78.0725 43.7301 77.9823 43.8825 77.7808L44.1461 77.4801C44.8367 76.6882 45.5223 75.8914 46.1508 75.0474C47.5842 73.1088 48.8081 71.05 50.0239 68.933C51.7891 65.8438 52.9628 62.2934 53.9481 58.9245C54.8743 55.7571 55.1018 52.4092 55.5108 49.1225C55.5479 48.8218 55.6421 48.5211 55.9298 48.4449C56.0048 48.4233 56.0843 48.4233 56.1593 48.4449L56.1513 48.4439Z" fill="#EDA24F"/>
<path fill-rule="evenodd" clip-rule="evenodd" d="M42.9423 79.3376C42.8475 79.3331 42.7531 79.352 42.6674 79.3928C42.5817 79.4335 42.5075 79.4948 42.4511 79.5711C41.3254 81.1061 39.9934 82.4785 38.4928 83.6497C35.8446 85.6614 33.1032 87.8786 29.9508 89.0023C29.8611 89.0339 29.7764 89.0781 29.6992 89.1336C29.631 88.8329 29.5679 88.5322 29.5127 88.2315C29.4676 87.9809 29.3804 87.7744 29.182 87.6872C29.1365 87.6661 29.0876 87.6532 29.0376 87.6491H29.0075C28.5064 87.632 28.3981 87.8636 28.4873 88.3638C28.763 89.9004 29.1519 91.4109 29.8606 92.7811C30.1111 93.2663 30.6925 93.2472 30.8569 92.8694C30.906 92.7561 30.9642 92.6909 30.8459 92.4333C30.8459 92.4333 30.7406 92.2389 30.6755 92.0955C30.3788 91.4363 30.1318 90.7558 29.9367 90.0597C30.0314 90.0534 30.1249 90.0342 30.2144 90.0026C33.2124 88.9772 35.6672 87.0747 38.127 85.2204C38.6281 84.8385 39.1474 84.4686 39.6165 84.0556C40.9406 82.8909 42.2126 81.6219 43.262 80.2096C43.3218 80.1371 43.3615 80.0503 43.3773 79.9578C43.3931 79.8652 43.3844 79.7701 43.352 79.682C43.3197 79.5938 43.2649 79.5156 43.193 79.4552C43.1211 79.3948 43.0347 79.3542 42.9423 79.3376Z" fill="#EDA24F"/>
<path fill-rule="evenodd" clip-rule="evenodd" d="M71.2869 45.0278C70.1722 43.9463 68.6056 43.3238 67.0259 43.2135H66.9537C66.6037 43.1969 66.253 43.21 65.9052 43.2526C65.9233 42.0097 65.8531 40.7848 65.7729 39.564C65.7418 39.0848 65.7849 38.5265 65.4321 38.3611C65.3858 38.3375 65.3355 38.3226 65.2838 38.317C64.7395 38.2589 64.7014 38.9184 64.7014 38.9184C64.7746 40.428 64.8758 41.9436 64.8658 43.4611C64.4818 43.5731 64.109 43.7204 63.7522 43.9012C63.3272 44.1187 63.0505 44.4935 62.6496 44.671C61.974 44.9717 61.128 44.5707 60.3311 44.6309C58.583 44.7702 57.1577 45.8417 55.8456 46.9854C55.0337 46.7849 54.2789 46.3589 53.4971 46.0372C52.3043 45.546 51.0313 45.1621 49.8134 44.6449C49.8184 44.1437 49.8395 43.6425 49.8385 43.1414C49.8385 41.698 49.5919 40.2686 49.3573 38.8423C49.2731 38.3281 49.233 37.7056 48.782 37.6394H48.7449C48.6264 37.6287 48.5079 37.6615 48.4117 37.7315C48.3154 37.8016 48.2479 37.9042 48.2217 38.0203C48.1991 38.091 48.1953 38.1663 48.2107 38.2389L48.2277 38.3391C48.3359 38.9896 48.4442 39.6421 48.5444 40.2937C48.784 41.8463 48.786 43.2757 48.779 44.7431C48.779 44.7642 48.779 44.7832 48.779 44.8043C48.779 44.8253 48.766 44.8363 48.7609 44.8564C48.7609 44.8564 48.7529 45.125 48.8452 45.2634C48.921 45.348 49.0117 45.4179 49.1128 45.4698C50.0174 45.8819 50.9459 46.2394 51.8933 46.5404C53.2134 46.9744 54.3571 47.675 55.609 47.9928C55.7036 48.019 55.8023 48.0265 55.8997 48.0148C56.0629 48.0083 56.223 47.9681 56.3698 47.8965C57.5255 46.8721 58.7083 45.8678 60.1236 45.6914C61.0107 45.5791 61.8928 45.9319 62.7448 45.7234C63.3111 45.5841 63.683 45.101 64.1852 44.8404C66.252 43.7698 68.8581 44.2179 70.5 45.7134C70.6704 45.8708 70.7576 45.9329 70.922 45.9399C71.4102 45.956 71.6166 45.3425 71.2869 45.0278Z" fill="#F2C09E"/>
<path d="M61.5461 24.5194C62.5446 23.3374 62.3959 21.5698 61.2139 20.5713C60.0319 19.5728 58.2643 19.7216 57.2658 20.9036C56.2674 22.0855 56.4161 23.8531 57.5981 24.8516C58.78 25.8501 60.5477 25.7014 61.5461 24.5194Z" fill="#242424"/>
<path d="M48.7946 27.4994C49.386 26.0696 48.7063 24.4311 47.2765 23.8398C45.8467 23.2484 44.2082 23.9281 43.6169 25.3579C43.0255 26.7877 43.7052 28.4262 45.135 29.0175C46.5648 29.6089 48.2033 28.9292 48.7946 27.4994Z" fill="#242424"/>
<path d="M48.287 33.3732C49.5787 32.8374 50.2918 31.598 49.8799 30.605C49.468 29.612 48.0869 29.2414 46.7953 29.7772C45.5037 30.313 44.7905 31.5523 45.2025 32.5453C45.6144 33.5383 46.9954 33.909 48.287 33.3732Z" fill="#F9ADA7"/>
<path d="M61.4574 29.6189C62.8101 29.2643 63.6856 28.1338 63.413 27.0939C63.1404 26.054 61.8228 25.4984 60.4702 25.853C59.1175 26.2077 58.242 27.3381 58.5146 28.3781C58.7872 29.418 60.1048 29.9735 61.4574 29.6189Z" fill="#F9ADA7"/>
<path d="M58.8125 23.0084C59.257 22.87 59.5051 22.3974 59.3666 21.9529C59.2282 21.5084 58.7556 21.2603 58.3111 21.3987C57.8666 21.5372 57.6185 22.0098 57.7569 22.4543C57.8954 22.8988 58.368 23.1469 58.8125 23.0084Z" fill="white"/>
<path fill-rule="evenodd" clip-rule="evenodd" d="M45.9644 25.9321C46.0281 26.0861 46.0448 26.2555 46.0122 26.419C45.9797 26.5824 45.8994 26.7325 45.7816 26.8504C45.6637 26.9683 45.5136 27.0485 45.3501 27.0811C45.1867 27.1137 45.0173 27.097 44.8632 27.0333C44.7092 26.9696 44.5776 26.8617 44.4849 26.7232C44.3922 26.5847 44.3426 26.4218 44.3425 26.2551C44.3423 26.0885 44.3916 25.9255 44.484 25.7868C44.5764 25.6481 44.7079 25.54 44.8618 25.476C44.9641 25.4334 45.0738 25.4115 45.1847 25.4114C45.2955 25.4113 45.4052 25.433 45.5077 25.4754C45.6101 25.5177 45.7031 25.5799 45.7815 25.6582C45.8599 25.7366 45.922 25.8297 45.9644 25.9321Z" fill="white"/>
<path d="M56.853 26.5243C56.7948 26.2657 56.5874 26.0612 56.3047 26.0953C56.0611 26.1253 55.8165 26.3829 55.8757 26.6446C55.9268 26.8711 55.9468 27.0796 55.8516 27.246C55.7177 27.4371 55.5285 27.5827 55.3094 27.663C54.8252 27.8634 54.2068 27.7973 53.9151 27.3161C53.6865 26.9342 53.0981 27.1588 53.036 27.5427C52.9598 28.0058 52.7162 28.4578 52.2602 28.6372C51.8041 28.8167 51.3951 28.6372 51.1626 28.2363C51.0283 28.0068 50.6614 27.9957 50.472 28.1431C50.2394 28.3205 50.2434 28.6032 50.3788 28.8337C50.8208 29.5925 51.755 29.8441 52.5629 29.5714C53.0836 29.383 53.5087 28.9964 53.7457 28.4959C54.324 28.8117 55.0858 28.8157 55.6842 28.5731C56.5312 28.2283 57.0585 27.4444 56.853 26.5243Z" fill="#242424"/>
<path d="M19.7022 38.2417C18.6722 37.7724 17.6193 37.1021 16.9371 36.4212C15.4791 34.9701 15.1667 32.8348 15.1052 32.4814C15.0948 32.4012 15.0679 32.3242 15.0265 32.2555C14.985 32.1868 14.9298 32.128 14.8647 32.0829C14.8026 32.041 14.7321 32.0141 14.6585 32.0042C14.5849 31.9944 14.5101 32.0018 14.4397 32.026C14.3592 32.0489 14.2859 32.0933 14.2274 32.1548C14.1689 32.2163 14.1272 32.2927 14.1065 32.3762C13.6118 34.0657 13.2327 34.6811 12.5558 35.5866C11.7351 36.6811 10.753 37.4125 9.33874 37.9227C9.25225 37.9543 9.17565 38.0094 9.11707 38.0822C9.0585 38.155 9.02013 38.2429 9.00603 38.3364C8.99194 38.4298 9.00265 38.5255 9.03702 38.6133C9.07139 38.701 9.12815 38.7775 9.20127 38.8346C11.2206 40.4092 11.9017 40.7519 12.9359 42.4801C13.3796 43.2223 13.7232 44.4134 13.8222 44.6443C13.8559 44.7412 13.9158 44.826 13.9949 44.8887C14.0739 44.9514 14.1688 44.9894 14.2682 44.9981C14.3676 45.0068 14.4673 44.9859 14.5555 44.9378C14.6437 44.8898 14.7167 44.8166 14.7657 44.727C14.8938 44.5294 15.2719 43.4983 16.155 42.2105C17.2308 40.6391 19.3616 39.4533 19.723 39.203C19.8308 39.1388 19.9145 39.0391 19.9606 38.9198C20.0067 38.8006 20.0125 38.6688 19.9771 38.5457C19.9552 38.4776 19.9193 38.4152 19.8718 38.3627C19.8244 38.3103 19.7665 38.269 19.7022 38.2417Z" fill="#FFD79B"/>
<path d="M85.7022 13.2417C84.6722 12.7724 83.6193 12.1021 82.9371 11.4212C81.4791 9.97008 81.1667 7.8348 81.1052 7.48143C81.0948 7.40122 81.0679 7.32423 81.0265 7.25553C80.985 7.18683 80.9298 7.12801 80.8647 7.08295C80.8026 7.04099 80.7321 7.01408 80.6585 7.00423C80.5849 6.99437 80.5101 7.00181 80.4397 7.02602C80.3592 7.0489 80.2859 7.09334 80.2274 7.15484C80.1689 7.21633 80.1272 7.29268 80.1065 7.37617C79.6118 9.0657 79.2327 9.68115 78.5558 10.5866C77.7351 11.6811 76.753 12.4125 75.3387 12.9227C75.2523 12.9543 75.1757 13.0094 75.1171 13.0822C75.0585 13.155 75.0201 13.2429 75.006 13.3364C74.9919 13.4298 75.0026 13.5255 75.037 13.6133C75.0714 13.701 75.1282 13.7775 75.2013 13.8346C77.2206 15.4092 77.9017 15.7519 78.9359 17.4801C79.3796 18.2223 79.7232 19.4134 79.8222 19.6443C79.8559 19.7412 79.9158 19.826 79.9949 19.8887C80.0739 19.9514 80.1688 19.9894 80.2682 19.9981C80.3676 20.0068 80.4673 19.9859 80.5555 19.9378C80.6437 19.8898 80.7167 19.8166 80.7657 19.727C80.8938 19.5294 81.2719 18.4983 82.155 17.2105C83.2308 15.6391 85.3616 14.4533 85.723 14.203C85.8308 14.1388 85.9145 14.0391 85.9606 13.9198C86.0067 13.8006 86.0125 13.6688 85.9771 13.5457C85.9552 13.4776 85.9193 13.4152 85.8718 13.3627C85.8244 13.3103 85.7665 13.269 85.7022 13.2417Z" fill="#FFD79B"/>
<path d="M26.5939 67.0822C25.1881 66.3239 23.7539 65.2412 22.8238 64.1411C20.8357 61.7986 20.4097 58.3474 20.3245 57.7765C20.3113 57.6468 20.275 57.5222 20.2184 57.4113C20.1617 57.3005 20.086 57.206 19.9965 57.1345C19.9123 57.0664 19.8164 57.0227 19.7162 57.0068C19.6161 56.9908 19.5143 57.0031 19.4186 57.0425C19.3086 57.0789 19.2084 57.1503 19.1284 57.2494C19.0483 57.3484 18.9911 57.4716 18.9627 57.6065C18.2882 60.3359 17.7713 61.3301 16.8483 62.7929C15.7293 64.561 14.3917 65.7426 12.4619 66.5668C12.3439 66.6178 12.2395 66.7068 12.1596 66.8245C12.0798 66.9421 12.0274 67.084 12.0082 67.235C11.989 67.3861 12.0036 67.5406 12.0505 67.6823C12.0973 67.8241 12.1747 67.9476 12.2744 68.04C15.0293 70.5837 15.9565 71.1372 17.368 73.9308C17.973 75.1281 18.4416 77.0541 18.5765 77.4254C18.6224 77.5818 18.7041 77.7189 18.812 77.8202C18.9198 77.9215 19.0491 77.9828 19.1847 77.9969C19.3202 78.011 19.4561 77.9772 19.5764 77.8996C19.6967 77.8219 19.7961 77.7037 19.863 77.559C20.0377 77.2398 20.5532 75.574 21.7573 73.4936C23.2242 70.955 26.1282 69.0394 26.6223 68.6351C26.7693 68.5314 26.8834 68.3702 26.9463 68.1776C27.0091 67.9849 27.0171 67.772 26.9688 67.5732C26.9383 67.4636 26.8891 67.3632 26.8244 67.2786C26.7598 67.1939 26.6813 67.127 26.5939 67.0822Z" fill="#FFD79B"/>
</svg>
