<svg width="100" height="100" viewBox="0 0 100 100" fill="none" xmlns="http://www.w3.org/2000/svg">
<path fill-rule="evenodd" clip-rule="evenodd" d="M45.8692 27.3326C46.4213 26.7354 46.0676 25.411 45.8294 23.6085C45.5762 21.5859 45.4431 19.55 45.4307 17.5117C45.3892 14.0835 44.3481 10.6751 43.8212 7.2938C43.6769 6.36818 43.1103 4.36357 42.9461 4.21021C42.5239 3.81325 39.1192 3.98106 39.0344 4.69196C38.9351 5.49308 41.2104 9.3399 41.7264 11.036C42.7693 14.4642 43.7671 19.2781 43.1699 22.7731C43.0887 23.2512 42.4482 27.0927 42.5167 27.1847C42.7152 27.4643 45.3134 27.9281 45.8637 27.3326H45.8692Z" fill="#926E57"/>
<path fill-rule="evenodd" clip-rule="evenodd" d="M45.5137 26.2393C45.8367 25.864 42.5961 25.1332 42.3093 25.0737C39.518 24.4945 36.6599 24.2112 33.7405 24.6587C25.0256 25.9939 19.1002 31.9788 16.1195 39.714C12.6912 48.6021 14.6128 61.77 15.7586 66.16C18.4741 76.6395 28.01 93.0444 39.2563 94.7928C40.7593 95.0256 45.391 95.5668 53.8226 92.9001C54.5876 92.6565 42.9299 81.8179 41.5262 78.285C36.5751 65.7847 34.0797 56.8442 36.3766 45.2045C37.2643 40.7082 45.5209 26.2483 45.5209 26.2483L45.5137 26.2393Z" fill="#5977B2"/>
<path fill-rule="evenodd" clip-rule="evenodd" d="M39.5648 29.7992C52.3033 15.9149 66.2688 26.1039 66.4799 26.2591C67.2017 26.7824 70.5397 29.6332 72.9304 32.9965C76.8801 38.5502 79.1842 45.6267 80.8153 52.162C83.6697 63.6014 81.4414 78.3247 73.7784 87.5701C69.4986 92.7358 60.7079 94.6989 57.0415 94.5402C49.4092 94.2082 43.3395 88.631 40.0809 81.5995C32.3565 64.9402 28.4069 41.9531 39.5576 29.7992H39.5648Z" fill="#90A6DD"/>
<path d="M77.3582 51.3699C74.573 51.3699 72.3151 49.112 72.3151 46.3268C72.3151 43.5416 74.573 41.2837 77.3582 41.2837C80.1434 41.2837 82.4013 43.5416 82.4013 46.3268C82.4013 49.112 80.1434 51.3699 77.3582 51.3699Z" fill="#242424"/>
<path d="M41.0237 57.1302C38.4321 56.1098 37.1583 53.1818 38.1787 50.5902C39.199 47.9986 42.127 46.7248 44.7186 47.7452C47.3102 48.7655 48.584 51.6936 47.5637 54.2852C46.5433 56.8767 43.6153 58.1505 41.0237 57.1302Z" fill="#242424"/>
<path d="M39.6 65.5272C38.9637 62.7798 40.9111 59.9821 43.9498 59.2784C46.9884 58.5746 49.9675 60.2313 50.6038 62.9787C51.2401 65.7261 49.2926 68.5238 46.254 69.2275C43.2154 69.9313 40.2363 68.2746 39.6 65.5272Z" fill="#DD6057"/>
<path d="M73.4263 59.7092C72.79 56.9618 74.7375 54.1641 77.7761 53.4604C80.8147 52.7566 83.7938 54.4133 84.4301 57.1607C85.0664 59.9081 83.119 62.7058 80.0804 63.4095C77.0418 64.1133 74.0626 62.4566 73.4263 59.7092Z" fill="#DD6057"/>
<path d="M74.4815 45.9863C73.8362 45.45 73.7478 44.492 74.2842 43.8467C74.8206 43.2014 75.7785 43.1131 76.4238 43.6495C77.0691 44.1858 77.1574 45.1437 76.6211 45.789C76.0847 46.4343 75.1268 46.5227 74.4815 45.9863Z" fill="white"/>
<path fill-rule="evenodd" clip-rule="evenodd" d="M42.4789 51.5556C42.5746 51.8401 42.5838 52.1466 42.5053 52.4363C42.4268 52.726 42.2642 52.9859 42.038 53.1832C41.8118 53.3804 41.5321 53.5062 41.2345 53.5445C40.9368 53.5829 40.6344 53.5321 40.3656 53.3986C40.0968 53.265 39.8736 53.0548 39.7243 52.7944C39.575 52.5341 39.5062 52.2353 39.5267 51.9358C39.5473 51.6364 39.6561 51.3497 39.8395 51.1122C40.023 50.8746 40.2727 50.6968 40.5572 50.6011C40.9386 50.473 41.3553 50.5015 41.7157 50.6805C42.076 50.8595 42.3505 51.1743 42.4789 51.5556Z" fill="white"/>
<path d="M70.675 49.5187C70.5703 49.4787 70.4585 49.4608 70.3466 49.466C70.2346 49.4711 70.125 49.4993 70.0244 49.5487C69.9238 49.5982 69.8345 49.6678 69.7621 49.7533C69.6896 49.8388 69.6355 49.9383 69.6032 50.0456C69.5004 50.3541 69.3958 50.6302 69.2821 50.8936C69.2063 51.074 69.1269 51.24 69.0403 51.4114L68.9411 51.6009C68.9358 51.6087 68.9315 51.6172 68.9284 51.6262C68.8815 51.711 68.831 51.794 68.7805 51.877C68.2541 52.7654 67.5546 53.5391 66.7235 54.1522C64.4808 55.8338 61.058 56.4978 57.7921 55.9078C55.9285 55.5767 54.1856 54.7588 52.74 53.5369C52.6535 53.4646 52.5527 53.4112 52.4443 53.3801C52.3358 53.349 52.222 53.341 52.1103 53.3565C51.9343 53.3736 51.7676 53.4431 51.6315 53.556C51.4954 53.6689 51.3963 53.82 51.347 53.9897C51.2976 54.1595 51.3003 54.3402 51.3547 54.5084C51.409 54.6767 51.5126 54.8247 51.652 54.9335C54.409 57.2881 58.4183 58.3274 62.3824 57.7139C65.7095 57.1961 68.4196 55.6047 70.0128 53.2302C70.5425 52.4315 70.9631 51.5656 71.2632 50.6554C71.3014 50.5423 71.3164 50.4225 71.3073 50.3034C71.2983 50.1843 71.2653 50.0683 71.2104 49.9622C71.1555 49.8561 71.0798 49.7622 70.9878 49.686C70.8958 49.6098 70.7895 49.5529 70.675 49.5187Z" fill="#242424"/>
<path d="M29.7769 16.5517C27.7483 15.3994 26.3654 13.8794 25.2482 11.6844C24.3234 9.8764 23.8117 8.65054 23.2049 5.36112C23.1922 5.28752 23.1606 5.21842 23.1131 5.16046C23.0655 5.1025 23.0036 5.05766 22.9334 5.03027C22.8632 5.00288 22.7871 4.99386 22.7124 5.0041C22.6376 5.01434 22.5668 5.04348 22.5068 5.0887C22.3994 5.18427 22.3313 5.31555 22.3155 5.45755C22.1936 6.13135 21.593 10.2055 19.3438 12.8271C18.3094 14.0325 16.7572 15.1764 15.2427 15.9394C15.1558 15.9829 15.086 16.0537 15.0441 16.1407C14.9988 16.2319 14.988 16.3363 15.0137 16.4348C15.0495 16.5465 15.1142 16.647 15.2013 16.7265C15.7057 17.2375 18.6895 19.7483 20.1333 22.8461C21.2969 25.3388 21.7648 27.2951 21.9329 27.6759C21.9622 27.7566 22.0118 27.8285 22.077 27.8848C22.1423 27.9411 22.221 27.98 22.3057 27.9978C22.4201 28.0086 22.5348 27.9799 22.6302 27.9166C22.7257 27.8533 22.7962 27.7594 22.8296 27.6506C22.9868 27.2324 23.5607 25.029 24.2527 23.6862C25.8549 20.5523 26.8491 19.9749 29.8573 17.2484C29.9082 17.202 29.9474 17.1445 29.9717 17.0804C29.9961 17.0164 30.0049 16.9476 29.9974 16.8795C29.9896 16.8115 29.9655 16.7463 29.9272 16.6893C29.8888 16.6323 29.8373 16.5851 29.7769 16.5517Z" fill="#FFD79B"/>
<path d="M26.648 59.202C25.4308 58.6604 24.1864 57.8871 23.3803 57.1013C21.6571 55.427 21.2879 52.9632 21.2153 52.5555C21.2029 52.463 21.1712 52.3741 21.1222 52.2948C21.0732 52.2156 21.008 52.1477 20.931 52.0957C20.8576 52.0473 20.7743 52.0163 20.6874 52.0049C20.6004 51.9935 20.512 52.0021 20.4288 52.03C20.3336 52.0564 20.247 52.1077 20.1779 52.1787C20.1087 52.2496 20.0594 52.3377 20.0349 52.434C19.4503 54.3835 19.0023 55.0936 18.2023 56.1384C17.2324 57.4013 16.0718 58.2452 14.4003 58.8339C14.2981 58.8703 14.2076 58.9339 14.1384 59.0179C14.0691 59.102 14.0238 59.2033 14.0071 59.3112C13.9905 59.4191 14.0031 59.5295 14.0438 59.6307C14.0844 59.7319 14.1515 59.8202 14.2379 59.8861C16.6244 61.703 17.4293 62.0983 18.6515 64.0924C19.1758 64.9488 19.582 66.3232 19.6989 66.5896C19.7387 66.7013 19.8096 66.7992 19.903 66.8716C19.9965 66.9439 20.1086 66.9877 20.2261 66.9978C20.3435 67.0078 20.4614 66.9837 20.5656 66.9283C20.6698 66.8728 20.7561 66.7884 20.814 66.685C20.9654 66.457 21.4122 65.2673 22.4559 63.7813C23.7273 61.9682 26.2456 60.6 26.6726 60.3112C26.8 60.2371 26.899 60.122 26.9534 59.9844C27.0079 59.8468 27.0148 59.6947 26.973 59.5527C26.9471 59.4742 26.9046 59.4021 26.8485 59.3416C26.7925 59.2811 26.7241 59.2335 26.648 59.202Z" fill="#FFD79B"/>
<path d="M80.6481 20.2015C79.4297 19.6599 78.1867 18.8865 77.3806 18.1008C75.6576 16.4276 75.2884 13.9624 75.2146 13.5546C75.2031 13.462 75.1717 13.373 75.1226 13.2938C75.0735 13.2146 75.0079 13.1472 74.9303 13.0961C74.8573 13.0474 74.7742 13.0162 74.6874 13.0048C74.6006 12.9935 74.5124 13.0022 74.4294 13.0304C74.3341 13.0564 74.2473 13.1074 74.1779 13.1781C74.1085 13.2489 74.059 13.3369 74.0344 13.4332C73.4498 15.3828 73.0018 16.0929 72.2019 17.1378C71.2321 18.4007 70.0728 19.2447 68.4003 19.8334C68.2981 19.8699 68.2076 19.9334 68.1383 20.0175C68.0691 20.1015 68.0238 20.2028 68.0071 20.3107C67.9905 20.4186 68.0031 20.529 68.0437 20.6302C68.0844 20.7315 68.1514 20.8197 68.2378 20.8857C70.6254 22.7026 71.429 23.098 72.6523 25.0934C73.1766 25.9486 73.5827 27.3244 73.6996 27.5896C73.7394 27.7013 73.8103 27.7992 73.9037 27.8715C73.9971 27.9439 74.1093 27.9877 74.2267 27.9978C74.3441 28.0078 74.462 27.9837 74.5662 27.9283C74.6704 27.8728 74.7567 27.7884 74.8146 27.685C74.966 27.457 75.4127 26.2672 76.4564 24.7811C77.7276 22.9679 80.2444 21.5996 80.6727 21.3108C80.8001 21.2367 80.899 21.1216 80.9534 20.984C81.0079 20.8464 81.0148 20.6943 80.973 20.5523C80.9465 20.474 80.9039 20.4023 80.8479 20.3418C80.7918 20.2814 80.7238 20.2336 80.6481 20.2015Z" fill="#FFD79B"/>
</svg>
