<svg width="100" height="102" viewBox="0 0 100 102" fill="none" xmlns="http://www.w3.org/2000/svg">
<path fill-rule="evenodd" clip-rule="evenodd" d="M44.5141 7.29804L38.1248 8.59258C37.5365 6.89837 37.6918 4.86981 39.2174 4.2126C40.0848 3.83798 41.0251 3.82611 41.938 3.92445C43.1023 4.0491 43.9331 4.65325 44.2849 5.7476C44.4138 6.25537 44.4901 6.77505 44.5126 7.29845L44.5141 7.29804Z" fill="#FD9C5F"/>
<path fill-rule="evenodd" clip-rule="evenodd" d="M48.2906 7.99119C47.6785 7.69687 42.7706 5.74293 37.6607 8.62718C32.3783 11.6087 30.6341 18.0201 30.3396 24.2717C30.0876 29.6474 31.2543 35.2593 31.1754 40.7263C31.0824 47.0127 27.4495 52.4846 26.8697 58.591C25.1389 76.7933 32.9442 92.7955 51.8299 94.5924C55.2881 94.9185 60.2916 95.2088 65.2844 93.6907C71.8962 91.6805 73.3657 90.1438 76.1802 87.1765C83.8405 79.0981 84.7081 64.4488 77.5293 52.0563C75.5714 48.6755 72.9591 45.9401 68.1037 41.2542C59.8724 33.3151 60.1898 26.6748 57.7247 19.8761C56.7965 17.3118 55.8379 15.0152 54.3681 12.8653C52.6627 10.3682 50.9335 9.27086 48.2932 8.00061L48.2906 7.99119Z" fill="#70975F"/>
<path fill-rule="evenodd" clip-rule="evenodd" d="M41.2891 44.8754C41.1194 44.8983 40.9587 44.9655 40.8232 45.0702C40.6877 45.1749 40.5821 45.3134 40.5171 45.4718C40.1904 46.3876 41.5417 46.8795 42.0501 46.2364C42.5245 45.6362 41.9415 44.783 41.2887 44.8738L41.2891 44.8754Z" fill="#A5C499"/>
<path fill-rule="evenodd" clip-rule="evenodd" d="M52.8107 69.2737C53.4608 69.1854 54.0546 70.066 53.5666 70.6412C53.1686 71.1128 52.3517 71.2261 52.0172 70.6999C51.9587 70.6005 51.9207 70.4903 51.9053 70.3759C51.89 70.2615 51.8978 70.1452 51.9281 70.0339C51.9584 69.9225 52.0106 69.8184 52.0818 69.7275C52.153 69.6367 52.2416 69.561 52.3425 69.5049C52.4595 69.39 52.608 69.3123 52.769 69.2816L52.8098 69.2706L52.8107 69.2737Z" fill="#A5C499"/>
<path fill-rule="evenodd" clip-rule="evenodd" d="M36.3727 73.3519C35.8736 73.4128 35.6064 73.9199 35.5827 74.1251C35.3242 75.0375 36.587 75.4388 37.0411 74.8694C37.2826 74.5665 37.1378 74.6849 37.2106 74.5304C37.4606 73.9724 36.9683 73.3238 36.3727 73.3519ZM36.457 75.0208C36.3808 75.0195 36.5004 75.0191 36.457 75.0208V75.0208ZM35.6737 73.9135C35.7224 73.8379 35.6554 73.9454 35.6737 73.9135V73.9135Z" fill="#A5C499"/>
<path fill-rule="evenodd" clip-rule="evenodd" d="M47.4042 81.0537C47.54 81.044 47.6762 81.0664 47.8018 81.1191C47.9274 81.1719 48.0387 81.2535 48.1269 81.3573C48.215 81.4611 48.2774 81.5842 48.3091 81.7167C48.3408 81.8491 48.3409 81.9872 48.3093 82.1197C48.1791 82.5913 47.5232 82.9878 47.0268 82.6605C46.463 82.2891 46.5961 81.2185 47.3054 81.0687C47.3368 81.0602 47.3666 81.0521 47.4042 81.0537Z" fill="#A5C499"/>
<path fill-rule="evenodd" clip-rule="evenodd" d="M71.053 72.6213C71.7706 72.5147 72.4273 73.6714 71.6412 74.1723C71.0395 74.5576 69.9241 73.7794 70.4833 72.9692C70.6348 72.802 70.8302 72.6808 71.0474 72.6194L71.053 72.6213Z" fill="#A5C499"/>
<path fill-rule="evenodd" clip-rule="evenodd" d="M65.6165 61.1693C66.3388 61.0614 66.9381 62.205 66.2109 62.6933C66.0362 62.8048 65.8271 62.8497 65.622 62.8199C65.4168 62.79 65.2293 62.6874 65.0936 62.5307C64.7235 62.0782 64.9984 61.2574 65.6152 61.1646L65.6165 61.1693Z" fill="#A5C499"/>
<path fill-rule="evenodd" clip-rule="evenodd" d="M57.7649 37.2014C58.4667 37.0991 59.1263 38.1725 58.3468 38.7288C57.7011 39.1883 56.3719 38.1429 57.3693 37.3708C57.4673 37.2953 57.5808 37.2427 57.7017 37.2168C57.72 37.2102 57.7389 37.2051 57.7582 37.2015L57.7649 37.2014Z" fill="#A5C499"/>
<path fill-rule="evenodd" clip-rule="evenodd" d="M54.9804 49.7799C55.7228 49.6716 56.3467 50.8372 55.5653 51.3183C54.9649 51.6897 53.9153 50.9493 54.379 50.1785C54.4433 50.073 54.5298 49.9827 54.6327 49.9141C54.7355 49.8456 54.852 49.8003 54.9742 49.7816L54.9804 49.7799Z" fill="#A5C499"/>
<path fill-rule="evenodd" clip-rule="evenodd" d="M36.4755 32.8672C37.0531 32.785 37.6093 33.3708 37.4263 33.946C37.1975 34.6819 36.0365 34.8125 35.7829 33.919C35.7829 33.919 35.7918 32.968 36.4755 32.8672Z" fill="#A5C499"/>
<path fill-rule="evenodd" clip-rule="evenodd" d="M37.5686 58.0542C38.1446 57.9725 38.7024 58.5578 38.5194 59.133C38.289 59.8694 37.1258 59.9854 36.8753 59.1096C36.8753 59.1096 36.8734 58.1564 37.5686 58.0542Z" fill="#A5C499"/>
<path fill-rule="evenodd" clip-rule="evenodd" d="M48.6882 30.3656C49.3999 30.2623 50.1243 31.4075 49.2251 31.9389C48.6119 32.3003 47.6658 31.5438 48.0726 30.7934C48.1349 30.6799 48.2226 30.5823 48.3288 30.5083C48.4351 30.4342 48.557 30.3857 48.685 30.3665L48.6882 30.3656Z" fill="#A5C499"/>
<path fill-rule="evenodd" clip-rule="evenodd" d="M43.3391 17.7425C43.2387 17.7619 43.1407 17.7924 43.047 17.8334C42.4 18.0826 42.4037 19.0673 42.962 19.356C43.1295 19.4617 43.328 19.507 43.5248 19.4844C43.7215 19.4618 43.9047 19.3726 44.0438 19.2317C44.7098 18.642 44.0243 17.6531 43.3408 17.7488L43.3391 17.7425ZM43.4313 19.4463C43.4124 19.4514 43.4627 19.4378 43.4313 19.4463V19.4463Z" fill="#A5C499"/>
<path d="M38.9683 53.9428C36.6878 52.7179 35.8322 49.8762 37.0571 47.5957C38.2821 45.3152 41.1238 44.4596 43.4042 45.6845C45.6847 46.9095 46.5404 49.7512 45.3154 52.0316C44.0905 54.3121 41.2488 55.1678 38.9683 53.9428Z" fill="#242424"/>
<path d="M67.6481 47.844C65.0711 47.8199 63.0017 45.7113 63.0258 43.1344C63.0499 40.5574 65.1584 38.4879 67.7354 38.512C70.3123 38.5361 72.3818 40.6447 72.3577 43.2216C72.3336 45.7986 70.2251 47.8681 67.6481 47.844Z" fill="#242424"/>
<path d="M67.5585 54.1565C66.8943 52.4931 68.1095 50.4446 70.2727 49.5809C72.4358 48.7173 74.7277 49.3657 75.3918 51.0291C76.0559 52.6925 74.8407 54.7411 72.6776 55.6047C70.5145 56.4683 68.2226 55.82 67.5585 54.1565Z" fill="#DA6057"/>
<path d="M45.8992 62.6C45.2971 60.9132 46.5872 58.911 48.7808 58.128C50.9744 57.345 53.2408 58.0777 53.8429 59.7645C54.4451 61.4514 53.1549 63.4536 50.9613 64.2366C48.7677 65.0196 46.5014 64.2869 45.8992 62.6Z" fill="#DA6057"/>
<path fill-rule="evenodd" clip-rule="evenodd" d="M41.404 49.4937C41.5327 49.7397 41.7315 49.942 41.9752 50.075C42.2188 50.208 42.4965 50.2658 42.773 50.241C43.0495 50.2162 43.3125 50.11 43.5286 49.9357C43.7448 49.7615 43.9043 49.5271 43.9872 49.2621C44.0701 48.9972 44.0726 48.7136 43.9943 48.4472C43.916 48.1809 43.7605 47.9437 43.5474 47.7658C43.3344 47.5878 43.0733 47.477 42.7972 47.4474C42.5212 47.4178 42.2426 47.4707 41.9967 47.5995C41.6669 47.7721 41.4193 48.0687 41.3081 48.4239C41.197 48.7791 41.2315 49.1639 41.404 49.4937Z" fill="white"/>
<path d="M68.2047 42.9839C67.5382 42.5881 67.3188 41.7269 67.7147 41.0604C68.1105 40.3939 68.9717 40.1744 69.6382 40.5703C70.3047 40.9661 70.5241 41.8273 70.1282 42.4938C69.7324 43.1603 68.8712 43.3797 68.2047 42.9839Z" fill="white"/>
<path d="M53.595 53.8684C53.4132 53.4644 53.4872 52.9844 53.8985 52.7484C54.2544 52.5442 54.8359 52.6446 55.0186 53.0518C55.1761 53.4034 55.3634 53.7032 55.6498 53.8279C56.0192 53.95 56.4171 53.9552 56.7895 53.8429C57.6294 53.6156 58.3928 52.9187 58.3015 51.9897C58.2249 51.2522 59.2337 50.9641 59.7004 51.4123C60.2632 51.9542 61.0395 52.3136 61.8272 52.0987C62.6149 51.8838 62.9828 51.2384 62.895 50.4719C62.8435 50.0326 63.3174 49.6549 63.7227 49.6581C64.2093 49.6629 64.4841 50.0435 64.5365 50.4859C64.7042 51.9401 63.7093 53.2069 62.3602 53.6512C61.4754 53.9205 60.5199 53.8284 59.7028 53.3948C59.2467 54.3927 58.2377 55.1595 57.1963 55.4329C55.7235 55.8181 54.237 55.3004 53.595 53.8684Z" fill="#242424"/>
<path d="M85.7769 18.5517C83.7483 17.3994 82.3654 15.8794 81.2481 13.6844C80.3234 11.8764 79.8116 10.6505 79.2049 7.36112C79.1922 7.28752 79.1606 7.21842 79.113 7.16046C79.0655 7.1025 79.0036 7.05766 78.9334 7.03027C78.8632 7.00288 78.7871 6.99386 78.7123 7.0041C78.6376 7.01434 78.5668 7.04348 78.5067 7.0887C78.3994 7.18427 78.3313 7.31555 78.3155 7.45755C78.1936 8.13135 77.5929 12.2055 75.3438 14.8271C74.3094 16.0325 72.7571 17.1764 71.2427 17.9394C71.1558 17.9829 71.0859 18.0537 71.0441 18.1407C70.9987 18.2319 70.9879 18.3363 71.0136 18.4348C71.0495 18.5465 71.1142 18.647 71.2013 18.7265C71.7057 19.2375 74.6895 21.7483 76.1333 24.8461C77.2969 27.3388 77.7647 29.2951 77.9329 29.6759C77.9621 29.7566 78.0118 29.8285 78.077 29.8848C78.1423 29.9411 78.221 29.98 78.3057 29.9978C78.4201 30.0086 78.5347 29.9799 78.6302 29.9166C78.7257 29.8533 78.7961 29.7594 78.8296 29.6506C78.9868 29.2324 79.5606 27.029 80.2527 25.6862C81.8549 22.5523 82.8491 21.9749 85.8573 19.2484C85.9082 19.202 85.9474 19.1445 85.9717 19.0804C85.996 19.0164 86.0048 18.9476 85.9974 18.8795C85.9896 18.8115 85.9655 18.7463 85.9272 18.6893C85.8888 18.6323 85.8373 18.5851 85.7769 18.5517Z" fill="#FFD79B"/>
<path d="M16.7022 53.2417C15.6722 52.7724 14.6193 52.1021 13.9371 51.4212C12.4791 49.9701 12.1667 47.8348 12.1052 47.4814C12.0948 47.4012 12.0679 47.3242 12.0265 47.2555C11.985 47.1868 11.9298 47.128 11.8647 47.0829C11.8026 47.041 11.7321 47.0141 11.6585 47.0042C11.5849 46.9944 11.5101 47.0018 11.4397 47.026C11.3592 47.0489 11.2859 47.0933 11.2274 47.1548C11.1689 47.2163 11.1272 47.2927 11.1065 47.3762C10.6118 49.0657 10.2327 49.6811 9.55577 50.5866C8.73511 51.6811 7.75303 52.4125 6.33874 52.9227C6.25225 52.9543 6.17565 53.0094 6.11707 53.0822C6.0585 53.155 6.02013 53.2429 6.00603 53.3364C5.99194 53.4298 6.00265 53.5255 6.03702 53.6133C6.07139 53.701 6.12815 53.7775 6.20127 53.8346C8.22064 55.4092 8.90174 55.7519 9.9359 57.4801C10.3796 58.2223 10.7232 59.4134 10.8222 59.6443C10.8559 59.7412 10.9158 59.826 10.9949 59.8887C11.0739 59.9514 11.1688 59.9894 11.2682 59.9981C11.3676 60.0068 11.4673 59.9859 11.5555 59.9378C11.6437 59.8898 11.7167 59.8166 11.7657 59.727C11.8938 59.5294 12.2719 58.4983 13.155 57.2105C14.2308 55.6391 16.3616 54.4533 16.723 54.203C16.8308 54.1388 16.9145 54.0391 16.9606 53.9198C17.0067 53.8006 17.0125 53.6688 16.9771 53.5457C16.9552 53.4776 16.9193 53.4152 16.8718 53.3627C16.8244 53.3103 16.7665 53.269 16.7022 53.2417Z" fill="#FFD79B"/>
<path d="M28.5939 81.0822C27.1881 80.3239 25.7539 79.2412 24.8238 78.1411C22.8357 75.7986 22.4097 72.3474 22.3245 71.7765C22.3113 71.6468 22.275 71.5222 22.2184 71.4113C22.1617 71.3005 22.086 71.206 21.9965 71.1345C21.9123 71.0664 21.8164 71.0227 21.7162 71.0068C21.6161 70.9908 21.5143 71.0031 21.4186 71.0425C21.3086 71.0789 21.2084 71.1503 21.1284 71.2494C21.0483 71.3484 20.9911 71.4716 20.9627 71.6065C20.2882 74.3359 19.7713 75.3301 18.8483 76.7929C17.7293 78.561 16.3917 79.7426 14.4619 80.5668C14.3439 80.6178 14.2395 80.7068 14.1596 80.8245C14.0798 80.9421 14.0274 81.084 14.0082 81.235C13.989 81.3861 14.0036 81.5406 14.0505 81.6823C14.0973 81.8241 14.1747 81.9476 14.2744 82.04C17.0293 84.5837 17.9565 85.1372 19.368 87.9308C19.973 89.1281 20.4416 91.0541 20.5765 91.4254C20.6224 91.5818 20.7041 91.7189 20.812 91.8202C20.9198 91.9215 21.0491 91.9828 21.1847 91.9969C21.3202 92.011 21.4561 91.9772 21.5764 91.8996C21.6967 91.8219 21.7961 91.7037 21.863 91.559C22.0377 91.2398 22.5532 89.574 23.7573 87.4936C25.2242 84.955 28.1282 83.0394 28.6223 82.6351C28.7693 82.5314 28.8834 82.3702 28.9463 82.1776C29.0091 81.9849 29.0171 81.772 28.9688 81.5732C28.9383 81.4636 28.8891 81.3632 28.8244 81.2786C28.7598 81.1939 28.6813 81.127 28.5939 81.0822Z" fill="#FFD79B"/>
</svg>
