<svg width="100" height="100" viewBox="0 0 100 100" fill="none" xmlns="http://www.w3.org/2000/svg">
<path fill-rule="evenodd" clip-rule="evenodd" d="M54.7991 17.2523C54.7991 17.2523 55.2215 8.7678 54.0158 3.78011C53.1912 0.368849 52.6841 -0.257845 52.3562 0.0813433C52.0283 0.420531 52.143 3.28587 52.0461 5.79747C51.8038 12.2251 49.4125 15.7308 48.7923 18.6729C48.3231 20.8954 51.2772 26.7755 51.2772 26.7755L54.7975 17.2459L54.7991 17.2523Z" fill="#A7C69B"/>
<path fill-rule="evenodd" clip-rule="evenodd" d="M29.3261 12.4246C29.108 12.8914 34.9356 17.1595 36.8464 21.2895C38.7571 25.4196 39.8038 27.7171 40.0533 28.3842C40.3029 29.0513 44.823 32.5473 44.823 32.5473L43.639 24.4399C43.639 24.4399 39.236 16.8292 34.422 14.1262C31.6592 12.5748 29.6087 11.8189 29.3261 12.4246Z" fill="#D6EFCA"/>
<path fill-rule="evenodd" clip-rule="evenodd" d="M39.8143 19.8714C39.8143 19.8714 36.6041 2.52272 37.696 1.58026C38.3509 1.01494 39.5607 4.51181 40.9263 8.57642C42.292 12.641 43.7141 15.004 45.8542 17.1038L45.1274 25.237L39.8151 19.8738L39.8143 19.8714Z" fill="#70995F"/>
<path fill-rule="evenodd" clip-rule="evenodd" d="M45.1815 22.7051C45.1815 22.7051 46.0432 6.20278 47.1197 6.23589C47.7327 6.25446 47.6899 10.5969 48.1535 13.6221C49.2841 20.9857 51.5849 25.9581 51.5849 25.9581L49.5659 31.1032L45.1831 22.7043L45.1815 22.7051Z" fill="#D6EFCA"/>
<path fill-rule="evenodd" clip-rule="evenodd" d="M53.4432 25.4146C53.4432 25.4146 53.4569 24.4334 55.2683 21.6698C57.0394 18.9684 58.3856 14.1899 59.8482 8.64497C60.3392 6.78751 60.6477 4.65305 60.9223 4.53595C61.146 4.44065 61.5635 4.73704 61.6265 8.8388C61.7371 15.9666 59.1415 26.1867 59.1415 26.1867L55.2029 33.778L53.4432 25.4146Z" fill="#A7C69B"/>
<path fill-rule="evenodd" clip-rule="evenodd" d="M55.0285 33.8355C55.0285 33.8355 57.2179 27.4975 59.664 23.9829C62.1102 20.4683 67.2554 16.0419 67.723 16.2866C68.1906 16.5313 64.1155 21.1321 62.4615 25.456C60.8076 29.7798 60.9505 36.2341 60.9505 36.2341L56.8318 39.7309L55.0301 33.8355H55.0285Z" fill="#D6EFCA"/>
<path fill-rule="evenodd" clip-rule="evenodd" d="M49.6233 31.0936C49.6233 31.0936 51.6721 23.906 53.0668 20.2283C54.2128 17.2095 55.6301 13.9291 56.0686 14.0373C56.5072 14.1455 55.8151 16.5957 55.6947 20.8671C55.5744 25.1384 55.3782 26.3926 55.7424 30.2464C56.1066 34.1003 57.0684 38.2061 57.2073 39.7623C57.3963 41.8903 54.7741 41.9646 54.7741 41.9646L49.6233 31.0936Z" fill="#70995F"/>
<path fill-rule="evenodd" clip-rule="evenodd" d="M44.5613 32.4342C44.5613 32.4342 41.7614 22.3393 41.6362 18.4863C41.5312 15.2664 41.8381 14.7213 42.1862 14.8118C42.5342 14.9022 42.9316 16.8857 43.7254 19.0306C44.5193 21.1756 47.8264 27.7098 49.0055 29.3613C50.1846 31.0128 50.5674 32.0159 50.85 32.9826L49.1856 37.8644L44.5613 32.4342Z" fill="#A7C69B"/>
<path fill-rule="evenodd" clip-rule="evenodd" d="M32.4846 24.0934C32.0977 24.6789 38.1636 29.3904 39.8482 32.4027C41.5328 35.415 42.6433 38.4952 42.6433 38.4952L47.9201 42.4201L48.7616 41.753L48.9271 37.568C48.9271 37.568 44.5847 31.5547 42.4874 29.7344C40.4555 27.9755 38.5771 26.5517 37.1185 25.7578C36.0969 25.2006 32.7915 23.6242 32.4846 24.0894V24.0934Z" fill="#70995F"/>
<path fill-rule="evenodd" clip-rule="evenodd" d="M48.2043 42.6795C48.0557 41.8921 48.109 40.9028 48.1712 40.2164C48.4135 37.5707 48.8488 35.068 50.275 32.7866C50.8104 31.9305 51.3249 31.1383 51.9265 30.3363C51.9725 30.275 52.4918 29.6466 52.6953 29.7169C53.0951 29.8542 52.6025 31.7359 52.6146 32.4175C52.6396 33.9212 52.89 36.8277 53.6992 38.6876C54.2386 39.9257 55.6778 42.2192 55.6737 42.2241C55.6253 42.2725 54.535 42.1336 53.9511 42.0626C52.6348 41.9067 51.1843 42.023 49.8777 42.1861C49.5054 42.233 48.2059 42.6787 48.2059 42.6787L48.2043 42.6795Z" fill="#D6EFCA"/>
<path fill-rule="evenodd" clip-rule="evenodd" d="M41.3737 37.7637C40.4797 37.4568 38.8791 36.9997 38.6933 37.3268C38.5835 37.5214 40.8335 39.3862 41.2889 40.3545C42.3251 42.5576 42.4196 43.4031 42.5472 44.4247C42.5779 44.667 42.6659 45.3987 42.724 45.4277C42.7822 45.4568 45.1541 44.0387 45.3842 43.9248C47.4622 42.8935 48.512 42.7344 48.4062 42.4195C48.357 42.2701 46.9841 40.8891 46.3614 40.453C45.2461 39.6721 44.1349 38.7151 42.8322 38.2814C42.3768 38.1287 41.8268 37.9188 41.3737 37.7637Z" fill="#A7C69B"/>
<path fill-rule="evenodd" clip-rule="evenodd" d="M59.9604 43.4973C58.4664 42.798 55.1545 42.1955 55.1674 42.1696C55.7063 41.1248 56.3243 40.1226 57.016 39.1719C57.8914 37.996 59.0188 37.1311 60.1575 36.246C60.995 35.5943 63.3249 34.441 63.5324 34.3788C63.9039 34.2674 65.045 33.7957 65.1839 34.038C65.3027 34.2448 64.3327 34.9118 64.1147 35.1606C63.4433 35.9125 62.9116 36.7784 62.5447 37.7174C62.1986 38.65 61.9636 39.6202 61.8446 40.6078C61.4884 43.444 61.8357 44.6909 61.7727 44.7539C61.7493 44.7782 61.0459 44.0077 59.9604 43.4973Z" fill="#A7C69B"/>
<path fill-rule="evenodd" clip-rule="evenodd" d="M36.2528 89.661C34.9566 86.4977 33.2898 79.4547 33.0491 76.8469C32.7826 73.9558 32.508 69.833 32.8997 66.3071C33.8551 57.7062 35.1949 46.6713 44.4119 42.9847C46.6877 42.0737 49.1298 41.9348 51.513 41.6384C54.7806 41.2306 59.3741 41.7192 62.4155 43.68C63.5631 44.4206 65.5554 45.5504 66.7248 47.6372C71.4832 56.1339 72.3093 71.6339 70.9655 81.0416C70.3194 85.5835 69.301 93.64 64.8795 96.511C62.1442 98.2877 59.5938 99.2463 55.9395 99.1712C55.06 99.1534 43.3976 101.378 38.5076 93.5907C37.8074 92.4755 37.0539 91.6162 36.2544 89.6602L36.2528 89.661Z" fill="#FF9E5E"/>
<path fill-rule="evenodd" clip-rule="evenodd" d="M70.9017 75.5274C70.6675 75.5056 70.514 75.7058 70.4171 75.911C69.7153 77.4066 69.2057 79.0388 68.7365 80.7186L68.6929 80.5805C68.1712 78.9394 67.4888 77.254 66.4034 75.8779C66.0036 75.3723 65.4553 74.7755 64.7446 74.6883C65.5651 73.3081 66.2289 71.8448 67.3232 70.7214C67.7456 70.2885 68.2851 69.7523 68.9562 69.808C69.2138 69.8298 69.4327 69.9865 69.6022 70.1779C69.6434 70.2255 69.6257 70.2078 69.7105 70.3079C69.9972 70.6447 70.2984 70.9645 70.5382 71.3279C70.6828 71.5516 70.9501 71.6663 71.1569 71.5363C71.5372 71.294 71.2546 70.8845 71.0188 70.5817C70.4785 69.8863 69.8292 68.994 68.9021 68.9762H68.8528C68.7166 68.9806 68.5813 68.9993 68.449 69.0319C68.5293 68.5551 68.6724 68.091 68.8746 67.6517C69.2097 66.8916 69.6238 66.1689 70.1102 65.4955C70.472 65.0004 71.0688 64.5264 70.7636 64.1751C70.7111 64.1153 70.6917 64.0628 70.493 64.0362H70.4648C70.3432 64.041 70.2278 64.0915 70.1417 64.1775C69.3826 64.9479 68.81 65.8952 68.3287 66.8716C68.1475 67.2355 67.9908 67.6111 67.8595 67.9958L67.748 67.6792C67.3055 66.4016 66.9404 64.914 65.8542 63.9772C65.401 63.5888 64.8254 63.3724 64.2285 63.3659H64.1559H64.1139C64.8455 61.6562 65.5465 59.8698 66.6982 58.4072C67.068 57.938 67.6204 57.3574 68.063 57.6804C68.659 58.1141 69.0208 58.8159 69.3212 59.5096C69.5732 60.0903 69.7339 60.8534 70.1764 60.7695C70.5673 60.6952 70.4672 60.163 70.4672 60.163C70.2729 59.6031 70.0406 59.0573 69.7718 58.5292C69.364 57.7571 68.8027 56.9536 68.0759 56.7743C67.9523 55.5629 67.3491 54.3329 66.6449 53.2548C65.9406 52.1767 64.9336 51.1107 63.7052 50.9839C64.1817 49.7636 64.6267 48.4852 65.4674 47.5347C65.725 47.2472 65.6701 46.8458 65.3454 46.7545C65.3048 46.7428 65.2622 46.7395 65.2203 46.7448C65.1118 46.7655 65.0117 46.8171 64.932 46.8934C64.1607 47.6946 63.6939 48.8446 63.236 49.9397L63.1633 50.1141L63.1504 50.0802C62.8621 49.3437 62.5851 48.6031 62.1926 47.9183C61.5086 46.715 60.5847 45.4632 59.2142 45.0626C59.139 45.0409 59.0627 45.0231 58.9857 45.0093C59.2675 44.4271 59.6786 43.9094 60.1001 43.4119C60.1447 43.3512 60.1723 43.2796 60.1801 43.2047C60.1879 43.1298 60.1756 43.0542 60.1446 42.9855C60.1135 42.9169 60.0647 42.8578 60.0033 42.8142C59.9418 42.7706 59.8699 42.7442 59.7949 42.7376C59.7278 42.7376 59.6615 42.7526 59.6009 42.7813C59.5403 42.8101 59.4868 42.852 59.4444 42.9039C59.0664 43.3336 58.6069 43.8488 58.3178 44.4125C58.2435 44.255 58.1643 44.1 58.0755 43.9489C57.8171 43.5048 57.4755 43.1155 57.154 42.7142C57.0289 42.5583 56.8988 42.3693 56.6953 42.354H56.6743C56.2334 42.3653 56.2059 42.8385 56.4103 43.1074C56.9311 43.7963 57.4141 44.4287 57.7339 45.1539C57.397 45.3091 57.089 45.5205 56.8229 45.779C55.404 47.1066 54.3275 48.973 53.7016 50.9298C53.5603 50.6875 53.4036 50.4509 53.2558 50.2118C52.6331 49.2088 52 47.8819 50.8823 47.126C50.4577 46.8408 49.968 46.6675 49.4585 46.6221C49.5065 46.4289 49.5697 46.2399 49.6475 46.0568C50.1619 44.8922 50.9566 43.8763 51.8409 42.9605C52.126 42.6681 52.0953 42.3451 51.8409 42.207C51.7872 42.1748 51.7258 42.1577 51.6632 42.1577C51.5963 42.1587 51.5303 42.1736 51.4695 42.2014C51.4086 42.2292 51.3541 42.2693 51.3095 42.3192C50.3905 43.2504 49.5328 44.318 48.9901 45.5496C48.8447 44.9132 48.634 44.2841 48.2229 43.7559C48.0101 43.5047 47.7746 43.2735 47.5195 43.0654C47.4662 43.0186 47.4565 43.0113 47.3491 42.908C47.268 42.8169 47.1573 42.7573 47.0365 42.74H47.0123C46.9042 42.7372 46.7994 42.7773 46.7208 42.8516C46.6422 42.926 46.5963 43.0284 46.5932 43.1365C46.5984 43.2569 46.6465 43.3715 46.7289 43.4596C46.8702 43.5993 47.0212 43.7285 47.1714 43.8634C48.0065 44.5902 48.1793 45.6619 48.3715 46.7061C47.2449 46.9411 46.2298 47.6089 45.4739 48.4715C44.5443 49.5326 44.0808 50.8571 43.7674 52.1912C43.6204 51.6929 43.4831 51.1914 43.3362 50.6923C43.0325 49.6643 42.2338 48.3059 41.0789 47.8133C41.1678 47.6122 41.2695 47.4167 41.3761 47.2245C41.9358 46.2199 42.615 45.2726 43.4823 44.5353C43.7246 44.3334 43.7965 44.0378 43.6148 43.848C43.5566 43.7882 43.5268 43.7341 43.3305 43.7212H43.3055C43.191 43.7258 43.0826 43.7741 43.0026 43.8561C41.851 44.8018 40.8593 46.1674 40.2568 47.6267H40.2245H40.1744C39.4767 47.6356 38.8443 47.9498 38.3291 48.3867C38.023 48.6435 37.7428 48.9568 37.8946 49.2266C38.0892 49.5698 38.5528 49.3114 38.5528 49.3114C38.9194 48.9334 39.366 48.5918 39.8797 48.4868C40.5362 48.3536 41.1718 48.7065 41.6063 49.1717C42.6465 50.295 42.7636 51.7963 43.2029 53.166C42.953 53.2631 42.7151 53.3885 42.4938 53.5399C41.2526 54.3976 40.3852 55.7761 39.7424 57.1854C39.4193 57.8977 39.2538 58.6132 39.1092 59.3319C38.3994 57.7676 37.557 56.2122 36.4991 54.8514C36.2867 54.5793 36.0703 54.278 35.765 54.2361H35.7335C35.6475 54.23 35.5619 54.2528 35.4903 54.301C35.4188 54.3491 35.3654 54.4198 35.3386 54.5018C35.2441 54.744 35.5058 55.0016 35.5058 55.0016C35.6786 55.1091 35.8199 55.3247 35.9564 55.5104C37.0822 57.0521 37.9705 58.8022 38.7474 60.5732C38.7789 60.6459 38.8056 60.7226 38.8322 60.7985C38.7515 60.8793 38.6756 60.9601 38.5996 61.0408C37.448 62.2587 36.7478 63.743 36.2092 65.296C36.1793 65.1959 36.147 65.0957 36.1098 64.9964C36.0509 64.8349 35.9895 64.6822 35.9322 64.5239C35.6681 63.7858 35.1956 63.1228 34.6836 62.505C34.5754 62.3741 34.4551 62.2457 34.2911 62.2264H34.2645C34.2033 62.2245 34.1424 62.2364 34.0864 62.2611C34.0304 62.2858 33.9806 62.3228 33.9407 62.3692C33.9008 62.4157 33.8719 62.4705 33.8559 62.5296C33.84 62.5887 33.8375 62.6507 33.8486 62.7109C33.8661 62.7807 33.8968 62.8465 33.939 62.9047C34.1886 63.2003 34.43 63.504 34.6497 63.823C34.8597 64.0925 35.0202 64.3971 35.1238 64.7226C35.3959 65.4995 35.5962 66.1763 35.5954 66.8757C34.7167 67.0186 33.9899 67.7785 33.3123 68.4739C33.2817 68.5054 33.2792 68.5094 33.2082 68.5789C33.0111 68.7662 33.003 69.0788 33.2001 69.2354C33.2828 69.2959 33.3842 69.3252 33.4864 69.3183C33.5887 69.3113 33.6852 69.2686 33.7589 69.1975C34.3687 68.6265 34.9122 67.89 35.677 67.7042C36.0808 67.6065 36.4668 67.8811 36.7729 68.1613C37.9035 69.1959 38.6013 70.6019 39.4226 71.8981C39.1077 72.0586 38.817 72.2628 38.5593 72.5046C36.747 74.2183 36.105 76.2865 35.5445 78.341C34.9978 78.4904 34.5027 78.8207 34.0909 79.2189C33.8211 79.4781 33.8946 79.8827 34.1837 79.9764C34.3929 80.0442 34.6037 79.8763 34.6037 79.8763C34.9469 79.5355 35.3507 79.2302 35.811 79.1252C36.3465 79 36.8964 79.1995 37.3245 79.5177C38.5245 80.406 39.1948 81.8678 39.6075 83.3327C39.2418 83.4312 38.8985 83.5993 38.5964 83.8278C37.7541 84.4359 37.0386 85.2653 36.382 86.1585C36.0945 86.5494 35.7739 87.0372 36.08 87.2762C36.34 87.4797 36.6824 87.1753 36.6824 87.1753C37.0594 86.5871 37.4851 86.0317 37.9552 85.5149C38.4704 84.96 39.1205 84.2162 39.916 84.1145C40.6646 84.0184 41.2946 84.7339 41.7089 85.4131C42.7248 87.08 43.4153 88.9084 44.1187 90.7157C42.6796 90.8821 41.335 91.8464 40.5152 93.1135C40.0186 93.8831 39.5316 94.8999 40.0404 95.1325C40.3392 95.2689 40.6057 94.8756 40.6057 94.8756C41.0305 93.4696 42.0804 92.2195 43.4476 91.7204C44.2932 91.4127 45.3293 91.4555 45.9883 92.0499C46.9396 92.9075 47.421 94.0737 47.8562 95.2326C48.1793 96.0911 48.5217 96.9495 48.6259 97.8508C48.6259 97.8726 48.6323 97.8928 48.6364 97.913C48.6193 98.0008 48.6304 98.0917 48.6681 98.1728C48.7058 98.2539 48.7682 98.3209 48.8464 98.3644C48.978 98.4331 49.0588 98.5146 49.3156 98.3047C49.3768 98.2334 49.4309 98.1564 49.4771 98.0745C49.7654 97.5092 49.9059 96.8857 50.1458 96.3083C50.7055 94.971 51.4241 93.7058 52.2859 92.5401C52.9659 91.617 53.7525 90.6019 54.77 90.467C56.1203 90.2845 56.9392 91.5976 57.6467 92.7234C58.4244 93.9687 59.3168 95.6307 59.6358 97.3816C59.685 97.6634 59.899 97.8936 60.1421 97.8548C60.2128 97.8743 60.2877 97.8718 60.3569 97.8476C60.4133 97.8219 60.4674 97.7913 60.5185 97.7563C60.5803 97.6726 60.6344 97.5834 60.68 97.4898C61.3115 96.024 61.8437 94.5163 62.5286 93.086C62.9897 92.1234 63.7109 91.2286 64.5548 90.4961C64.8738 90.2207 65.2251 89.8936 65.5603 89.9913C66.4115 90.2393 67.0713 91.0541 67.3475 91.8763C67.3613 91.9354 67.3875 91.991 67.4243 92.0393C67.4612 92.0875 67.5079 92.1275 67.5613 92.1564C67.6147 92.1853 67.6737 92.2026 67.7342 92.2071C67.7948 92.2115 67.8557 92.2031 67.9128 92.1823C68.1308 92.0919 68.2011 91.8221 68.1332 91.617C67.8167 90.6584 66.7256 89.1749 65.4779 89.1426C65.2921 89.1406 65.108 89.1777 64.9376 89.2516C65.0184 88.5021 65.3802 87.827 65.6798 87.1341C66.1853 85.9534 66.7192 84.7436 67.5372 83.7551C68.0816 83.101 68.9651 82.4121 69.8873 82.5591C70.3153 82.6301 70.6142 82.3055 70.4712 82.0002C70.3905 81.8314 70.1692 81.7692 70.1692 81.7692C69.9873 81.7301 69.802 81.709 69.616 81.7062C69.5096 81.7065 69.4033 81.7133 69.2978 81.7264C69.5586 81.1312 69.6289 80.448 69.8566 79.8343C70.2992 78.6447 70.6311 77.4115 71.1682 76.2663C71.212 76.1976 71.2447 76.1224 71.2651 76.0434C71.2774 75.9855 71.2776 75.9256 71.2657 75.8676C71.2538 75.8095 71.2301 75.7545 71.196 75.7061C71.1619 75.6577 71.1181 75.6168 71.0675 75.586C71.0168 75.5553 70.9604 75.5353 70.9017 75.5274ZM67.3378 91.8238C67.3378 91.8181 67.3378 91.8116 67.3378 91.8238V91.8238ZM55.0672 88.7921C54.9178 88.4472 54.7838 88.0943 54.6449 87.7422C54.0893 86.3233 53.2538 85.0308 52.1882 83.9417C51.7844 83.5338 51.3127 83.1163 50.7652 82.9483C51.1553 81.5221 51.8837 80.1718 52.6808 78.9031C53.1912 78.0915 53.7444 77.2944 54.4736 76.6879C54.7684 76.4456 55.2142 76.0814 55.656 76.2712C56.3335 76.5619 56.7244 77.2702 57.146 77.8783C57.8332 78.8748 58.6045 79.7931 59.2296 80.8211C59.3854 81.0763 59.5485 81.3331 59.6124 81.6069C58.2766 82.123 57.2905 83.2383 56.6243 84.4747C55.9039 85.8185 55.4444 87.2899 55.0672 88.7921ZM53.3608 52.2768C54.0569 52.0394 54.7926 52.2292 55.3677 52.637C56.3553 53.338 56.8956 54.4638 57.3608 55.5847C57.3842 55.6388 57.4068 55.6937 57.4294 55.7462C57.591 56.1298 57.7525 56.5126 57.914 56.8987C58.0472 57.2217 58.1563 57.5924 58.2855 57.8678C58.2491 57.8969 58.2128 57.9259 58.1765 57.9566C57.3204 58.6835 56.7979 59.6703 56.3529 60.6725C55.9192 61.6586 55.4436 62.6293 55.0882 63.6437C55.064 63.6117 55.037 63.582 55.0075 63.5548C54.3259 62.1488 53.8397 60.6346 52.9295 59.3731C52.4846 58.7553 51.8118 58.043 50.9703 58.0293C50.8472 58.0282 50.7244 58.0417 50.6045 58.0697C50.3189 58.139 50.0425 58.2414 49.7807 58.375C49.9931 57.2249 50.317 56.0951 50.8266 55.0501C50.9412 54.8143 51.0662 54.5839 51.2013 54.3588C51.723 53.4947 52.3989 52.6055 53.3608 52.2768ZM54.9622 75.1317C54.5722 74.0543 54.1191 72.994 53.5029 72.0321C52.932 71.1438 52.0339 70.1311 50.9186 70.0624C51.6414 68.7129 52.6202 67.4733 53.6249 66.295C54.1232 65.7111 54.6319 65.1224 55.2643 64.7065C55.933 64.2663 56.5249 64.6733 57.0014 65.1103C58.0779 66.0882 58.9275 67.5896 59.2627 69.1264C59.2836 69.233 59.2971 69.341 59.303 69.4494C58.619 69.5003 58.023 69.871 57.5457 70.3322C56.2302 71.5985 55.5187 73.3719 54.9622 75.1309V75.1317ZM58.7385 65.9259C58.0359 64.8478 57.133 63.7729 55.9499 63.6824C56.3069 62.7012 56.7624 61.7515 57.2041 60.8002C57.3075 60.5773 57.4179 60.3581 57.5352 60.1428C57.9923 59.3109 58.577 58.3927 59.4395 58.1844C59.8926 58.0753 60.323 58.3176 60.6267 58.6213C61.8744 59.8698 62.2532 61.8516 62.7967 63.7018C62.3627 63.9162 61.9703 64.2061 61.6378 64.5579C60.6493 65.594 60.1785 66.8191 59.8482 68.0773C59.5825 67.3271 59.1779 66.5995 58.7385 65.9251V65.9259ZM50.6537 58.9209C51.194 58.7279 51.6229 59.1002 51.962 59.4862C53.0822 60.759 53.532 62.4024 54.2483 63.8932C54.3085 64.0253 54.4074 64.1359 54.5318 64.2106C53.0935 65.3219 51.9992 66.9104 50.959 68.4553C50.6869 68.8591 50.409 69.2629 50.1765 69.682C49.3236 68.3955 48.5669 67.0331 47.5179 65.9235C47.0567 65.439 46.443 64.9205 45.7331 64.9092C45.7191 64.9084 45.7051 64.9084 45.6911 64.9092C45.6218 64.9106 45.5526 64.9173 45.4844 64.9294C45.4924 64.9059 45.5013 64.8825 45.5102 64.8591C46.3226 62.786 48.1009 59.8351 50.6537 58.9201V58.9209ZM45.5756 65.7531C46.1328 65.6425 46.6061 66.1521 47.0123 66.5987C48.0816 67.7761 48.7931 69.107 49.6338 70.3612C48.0016 71.1179 46.9526 72.8906 45.9996 74.53C45.6434 75.1446 45.2728 75.7495 44.9998 76.3955C44.5152 75.3957 44.0662 74.3967 43.446 73.4931C42.9106 72.7121 42.1054 71.9174 41.1629 71.6695C41.6677 69.9873 42.7943 68.6007 43.8934 67.2342C44.3739 66.631 44.8706 65.8912 45.5756 65.7523V65.7531ZM47.7456 73.3049C48.3973 72.3737 49.1524 71.4232 50.2144 71.0154C51.0131 70.7077 51.6681 71.1034 52.1567 71.6267C53.2235 72.767 53.792 74.278 54.3089 75.764C53.7218 76.1395 53.2033 76.7509 52.7551 77.3396C51.6632 78.7731 50.7127 80.4238 50.1377 82.1706C49.5029 80.9374 48.995 79.6752 48.1995 78.5785C47.6253 77.7886 46.7676 76.931 45.7347 76.7808C46.2023 75.5605 46.9736 74.408 47.7456 73.3041V73.3049ZM59.0721 79.1478C58.5205 78.421 58.0432 77.6901 57.5223 76.9778C57.0426 76.3212 56.4619 75.6049 55.7383 75.4337C56.1163 74.2401 56.5912 73.0755 57.2558 72.0232C57.7097 71.3061 58.2968 70.4525 59.2199 70.2893C60.3424 70.0899 61.1726 71.1841 61.8042 72.1565C62.409 73.0884 62.9606 74.0656 63.3676 75.1018C62.8314 75.4498 62.3864 75.9619 62.0077 76.4876C61.1365 77.6873 60.4555 79.0141 59.9887 80.4214C59.7181 79.9853 59.3798 79.5589 59.0721 79.1478ZM64.6889 64.2582C65.0288 64.3678 65.3299 64.5731 65.5562 64.8494C66.4906 65.9348 66.7571 67.5371 67.3329 68.9326C67.3998 69.106 67.4756 69.2758 67.5598 69.4414C66.6828 70.0204 65.9972 70.9112 65.4601 71.8383C64.9707 72.6879 64.491 73.5407 63.9741 74.3749C63.5005 73.2671 62.9017 72.2172 62.1894 71.2455C61.7315 70.6196 61.0975 69.9445 60.3376 69.6303C60.4401 69.1983 60.5354 68.7654 60.642 68.3342C60.9311 67.168 61.4205 65.9873 62.2693 65.1078C62.892 64.4521 63.8369 64.0111 64.6873 64.2582H64.6889ZM67.2522 56.8526C67.0485 56.9433 66.8594 57.0636 66.6909 57.2096C66.6481 57.2459 66.6101 57.2831 66.5657 57.321C65.1048 58.6859 64.3424 60.7129 63.5316 62.6091L63.4169 62.8765C63.0131 61.5036 62.6206 60.1306 61.897 58.9322C61.4383 58.1706 60.6509 57.3348 59.698 57.3251C59.6245 57.3249 59.5512 57.3292 59.4783 57.338C59.5824 56.8767 59.7113 56.4214 59.8643 55.974C60.4143 54.4969 61.1201 52.7703 62.5746 52.0539C63.3426 51.6752 64.0662 51.8197 64.6485 52.2502C65.9027 53.1773 67.0672 55.0259 67.2505 56.8526H67.2522ZM58.0052 45.9171C58.665 45.5641 59.4508 45.9728 60.0202 46.4695C61.3269 47.609 61.9398 49.2217 62.5423 50.8094C62.5802 50.9096 62.6231 51.0202 62.6578 51.1195L62.6085 51.1373C60.2512 52.0168 59.4145 54.463 58.7757 56.7767C58.4615 55.9314 58.1041 55.1028 57.7048 54.2942C57.6071 54.0955 57.5021 53.9009 57.3882 53.7103C56.7769 52.6822 55.7117 51.5807 54.4333 51.3683C54.7713 50.3177 55.2401 49.3138 55.8288 48.3802C56.4288 47.4103 57.066 46.4194 58.0052 45.9171ZM46.3654 48.7259C47.2691 47.8375 48.5298 47.2302 49.683 47.4878C51.11 47.806 51.9378 49.6094 52.8326 51.1042C52.9134 51.2391 52.9941 51.3853 53.0612 51.508C52.4555 51.7269 51.916 52.1315 51.4726 52.6112C50.2128 53.9736 49.5239 55.68 49.1193 57.4616C49.0297 57.2379 48.9376 57.015 48.8455 56.7921C48.3473 55.5807 47.7052 54.2627 46.5528 53.5044C45.9703 53.1175 45.2887 52.9064 44.5895 52.8962C44.5451 52.8962 44.5007 52.8963 44.4563 52.9003C44.7624 51.4062 45.2445 49.8226 46.3654 48.7259ZM43.1084 54.1165C44.47 53.2847 46.0545 53.8904 46.9493 54.9823C47.8764 56.1129 48.3222 57.5423 48.7672 58.9273C48.7769 58.958 48.7866 58.9871 48.7963 59.0154C48.5047 59.248 48.231 59.4999 47.9628 59.7592C46.6792 61.014 45.6452 62.5009 44.9158 64.1411C44.5031 63.3521 43.9281 62.6285 43.3184 61.9607C42.4518 61.0101 41.4496 60.041 40.2819 60.0224H40.235C40.0825 60.0266 39.9318 60.0564 39.7892 60.1105C39.8514 59.7874 39.9079 59.4563 39.9742 59.1317C40.336 57.3671 41.3931 55.164 43.1084 54.1165ZM37.9213 68.1638C37.5449 67.7115 37.0789 67.2237 36.5354 66.9847C36.6881 66.4735 36.852 65.9647 37.0135 65.4559C37.507 63.89 38.3921 62.0511 39.87 60.9972C40.3182 60.6742 40.9198 60.9932 41.4197 61.3453C42.5383 62.1383 43.4694 63.2585 44.1543 64.486C44.298 64.7436 44.4547 65.0061 44.4829 65.2831C44.4861 65.3198 44.4932 65.3561 44.5039 65.3913L44.4628 65.422C42.8993 66.6746 41.4908 68.6814 40.6049 70.7965C40.4908 71.0563 40.4031 71.3268 40.3432 71.6041C40.3061 71.6041 40.2697 71.6122 40.2326 71.6178C39.4743 70.4468 38.8015 69.2225 37.9213 68.1638ZM36.42 78.2699C36.592 77.6376 36.7656 77.0045 36.9853 76.3867C37.4254 75.1325 38.3331 73.5052 39.685 72.6653C40.3949 72.2235 41.3148 72.4505 41.9301 72.9883C43.1181 74.0228 43.6786 75.5726 44.3747 76.9956C44.0631 77.1361 43.7696 77.314 43.5009 77.5254C41.9366 78.7367 40.9651 80.6661 40.2439 82.5978C39.9433 81.6843 39.5078 80.8209 38.9517 80.0362C38.3574 79.2205 37.4617 78.3935 36.42 78.2699ZM42.25 84.7307C41.9213 84.2574 41.4141 83.7269 40.8149 83.4563C41.2138 82.2869 41.7032 81.1522 42.3541 80.1129C42.9614 79.1438 43.7101 78.1593 44.768 77.7264C45.7121 77.3396 46.5899 77.9267 47.2061 78.6552C48.2875 79.9304 48.8665 81.506 49.6289 82.975C48.6105 83.298 47.8482 84.322 47.1981 85.292C46.2378 86.7238 45.2598 88.1912 44.6412 89.7846C44.3182 88.977 43.9637 88.1783 43.6067 87.3828C43.1997 86.467 42.8128 85.5391 42.25 84.7307ZM52.5613 90.9176C51.0155 92.5126 49.9907 94.4977 49.1968 96.5304C48.8896 95.3855 48.4531 94.2792 47.8958 93.233C47.2707 92.0531 46.3396 91.0662 45.2106 90.7747C45.2169 90.7203 45.2267 90.6664 45.2397 90.6132C45.4125 89.9025 45.7945 89.2403 46.1547 88.5845C46.8928 87.2455 47.6439 85.9049 48.6299 84.7573C49.0337 84.2849 49.5627 83.7075 50.2661 83.7075C50.5657 83.7075 50.85 83.848 51.0818 84.0394C51.7426 84.6006 52.3219 85.2513 52.8027 85.9728C53.5336 87.0347 53.8938 88.2405 54.4179 89.3792C54.4623 89.4761 54.5076 89.5754 54.556 89.6707C53.7928 89.8104 53.125 90.3354 52.5613 90.9176ZM60.4199 97.0852V97.0796C60.5201 97.1361 60.4652 97.107 60.4199 97.0852ZM61.9988 92.2905C61.2913 93.615 60.8205 95.0275 60.2503 96.398C59.9572 95.3255 59.5348 94.2102 58.9316 93.2257C58.2403 92.1161 57.6144 90.7941 56.4458 90.0559C56.213 89.9095 55.9595 89.7987 55.6939 89.7272C55.9297 88.6913 56.2236 87.6694 56.5742 86.6665C57.213 84.8849 58.1781 83.0816 59.8441 82.4105C60.2625 82.2417 60.6372 82.2797 60.9529 82.4872C61.6547 82.95 62.0489 83.6687 62.3469 84.402C63.0139 86.0454 63.5768 87.8044 63.8934 89.577C63.9136 89.6893 63.9208 89.8056 63.9354 89.9146C63.1434 90.575 62.4859 91.3816 61.9988 92.2905ZM68.025 82.1957C66.6142 83.1042 65.8502 84.6685 65.188 86.1722C64.9368 86.7472 64.6226 87.3457 64.3997 87.9683C64.1203 86.874 63.7464 85.7878 63.3571 84.7226C63.1391 84.125 62.9437 83.5112 62.5738 83.0178C62.0593 82.3442 61.3931 81.5851 60.5548 81.4688C60.8536 80.1767 61.4706 78.9572 62.1595 77.7773C62.6965 76.8559 63.3588 75.8892 64.3263 75.5637C64.6582 75.4515 64.9521 75.6009 65.2098 75.8189C66.1248 76.5942 66.707 77.8064 67.2215 78.9685C67.6422 79.9134 67.8675 81.0771 68.2875 82.0471C68.1978 82.0874 68.1106 82.1375 68.025 82.1957Z" fill="#FDC175"/>
<path fill-rule="evenodd" clip-rule="evenodd" d="M49.4698 62.0463C49.7589 61.8541 50.0561 61.6425 50.3945 61.603C50.9598 61.5351 51.5163 62.2321 51.8595 61.9107C52.1486 61.6393 51.7618 61.2387 51.7618 61.2387C51.3515 61.032 50.9493 60.7768 50.4979 60.7695C50.1151 60.7695 49.7484 60.9109 49.4181 61.0998C49.0353 61.3195 48.726 61.6038 48.8706 61.8897C49.0152 62.1756 49.4698 62.0463 49.4698 62.0463Z" fill="#FDC175"/>
<path fill-rule="evenodd" clip-rule="evenodd" d="M53.0216 55.6791C53.041 55.6613 53.0386 55.6589 53.0757 55.6201C53.5789 55.1194 54.2379 54.7221 54.8419 54.8488C55.4589 54.9781 55.7763 55.5999 56.2221 55.5345C56.5451 55.4869 56.6639 55.058 56.4644 54.8432C56.3836 54.7624 56.4515 54.8246 56.3537 54.7544C55.8014 54.3506 55.2118 53.9985 54.5536 53.9888H54.4995C54.1481 53.9964 53.805 54.0973 53.5054 54.2811C53.0394 54.5614 52.5258 54.7972 52.3578 55.2187C52.1898 55.6403 52.764 55.9124 53.0216 55.6791Z" fill="#FDC175"/>
<path fill-rule="evenodd" clip-rule="evenodd" d="M59.5429 71.7266H59.4953C58.7216 71.7387 58.1224 72.2644 57.8123 72.9194C57.6879 73.1883 57.6548 73.4435 57.8332 73.5961C57.8816 73.6341 57.9375 73.6612 57.9972 73.6756C58.0569 73.69 58.119 73.6914 58.1793 73.6796C58.2396 73.6679 58.2966 73.6434 58.3466 73.6076C58.3966 73.5719 58.4382 73.5258 58.4688 73.4726C58.4688 73.4726 58.5625 73.2626 58.636 73.1197C59.0285 72.3613 59.8732 72.4526 60.357 72.8968C60.802 73.3159 61.2615 72.6852 61.003 72.3718C60.6606 71.9591 60.0945 71.7387 59.5429 71.7266Z" fill="#FDC175"/>
<path fill-rule="evenodd" clip-rule="evenodd" d="M44.8286 80.2089C45.2372 79.9537 45.8074 80.003 45.8074 80.003C46.0319 80.1031 46.1547 80.3842 46.2992 80.6054C46.5173 80.9382 46.9687 80.8873 47.0785 80.5844C47.144 80.4052 47.0293 80.2057 47.0293 80.2057C46.7628 79.8245 46.4704 79.2745 45.9374 79.1849C45.9374 79.1849 45.7428 79.1615 45.6055 79.1606C45.0082 79.1692 44.4354 79.3995 43.9984 79.8067C43.5688 80.1976 43.11 80.708 43.3798 81.0359C43.6221 81.3339 44.0307 81.0262 44.0307 81.0262C44.2657 80.7161 44.5056 80.4108 44.8286 80.2089Z" fill="#FDC175"/>
<path fill-rule="evenodd" clip-rule="evenodd" d="M60.3441 84.3844C59.3951 84.3763 58.3251 84.8875 57.9891 85.7888C57.8728 86.1021 58.0804 86.4227 58.3703 86.413C58.6174 86.4041 58.7531 86.1175 58.7531 86.1175C58.934 85.5102 59.8603 85.0409 60.5573 85.2428C60.9611 85.3591 61.0701 85.8566 61.3947 85.9446C61.7388 86.0367 62.0166 85.6216 61.8672 85.347C61.5676 84.793 60.9732 84.3973 60.3441 84.3844Z" fill="#FDC175"/>
<path fill-rule="evenodd" clip-rule="evenodd" d="M67.7513 59.1582H67.727C67.1003 59.1663 66.7184 59.7308 66.3961 60.2396C66.2346 60.4891 66.2919 60.792 66.5205 60.9026C67.0519 61.1594 67.1544 60.3082 67.6002 60.0393C67.9233 59.8446 68.3408 60.3518 68.3763 60.7661C68.3957 61.0439 68.6566 61.2507 68.9053 61.1812C69.2445 61.0835 69.2356 60.6232 69.0983 60.2824C68.8827 59.7445 68.3941 59.1744 67.7513 59.1582Z" fill="#FDC175"/>
<path fill-rule="evenodd" clip-rule="evenodd" d="M47.6116 50.4016C47.6449 50.347 47.6863 50.2978 47.7343 50.2555C48.0428 49.9849 48.1793 49.8622 48.4192 49.7281C48.9158 49.4511 49.6435 49.4858 49.9229 49.9704C50.2669 50.5866 50.871 49.993 50.6715 49.6142C50.5237 49.3407 50.3053 49.1117 50.039 48.9512C49.7727 48.7907 49.4682 48.7046 49.1573 48.7017C49.1347 48.7017 49.1129 48.7017 49.0903 48.7017C48.298 48.7218 47.7577 49.0958 47.1415 49.6708L47.0947 49.716C47.0462 49.765 47.0031 49.8192 46.9663 49.8775C46.6586 50.3815 47.3523 50.6835 47.6116 50.4016Z" fill="#FDC175"/>
<path fill-rule="evenodd" clip-rule="evenodd" d="M41.0669 63.2631C41.335 63.4335 41.2179 63.7759 41.3665 63.9899C41.6201 64.3493 42.1377 64.0448 42.1167 63.6588C42.0959 63.313 41.9465 62.9874 41.6978 62.7462C41.4491 62.505 41.1192 62.3656 40.7729 62.3553C40.6939 62.3527 40.6148 62.3562 40.5363 62.3658C39.656 62.4635 38.5609 63.6523 39.144 64.0181C39.421 64.1926 39.7384 63.8453 39.7384 63.8453C39.9419 63.4149 40.5912 62.9594 41.0669 63.2631Z" fill="#FDC175"/>
<path fill-rule="evenodd" clip-rule="evenodd" d="M57.2994 49.0883C57.5417 49.1125 57.7137 48.8581 57.7137 48.8581C58.0868 48.0982 59.1674 47.5991 59.593 48.1192C59.6314 48.1786 59.6634 48.2419 59.6883 48.3081C59.7263 48.3758 59.7822 48.4316 59.8498 48.4696C60.1987 48.6732 60.5621 48.2524 60.428 47.914C60.2197 47.3915 59.6657 47.1064 59.1149 47.1064H59.0503C58.2064 47.1323 57.4165 47.6653 57.0192 48.4042C56.852 48.7071 57.0071 49.0584 57.2994 49.0883Z" fill="#FDC175"/>
<path fill-rule="evenodd" clip-rule="evenodd" d="M50.4478 84.9663C50.4188 84.9663 50.3905 84.9663 50.3622 84.9663C49.6079 84.9857 49.1193 85.3168 48.8617 85.8223C48.6849 86.172 48.6412 86.5241 48.8892 86.6735C49.2122 86.869 49.4957 86.4515 49.4957 86.4515C49.5651 86.2471 49.6532 86.0412 49.8114 85.912C50.0109 85.7505 50.5779 85.6697 50.9332 85.9209C51.2062 86.1107 51.1755 86.5581 51.4702 86.6525C51.8119 86.7616 52.0646 86.3747 51.9734 86.0646C51.7666 85.3636 51.1189 84.976 50.4478 84.9663Z" fill="#FDC175"/>
<path fill-rule="evenodd" clip-rule="evenodd" d="M40.3433 86.4687C40.6929 86.7868 40.655 87.1688 40.8851 87.357C41.2082 87.6114 41.637 87.2246 41.5312 86.8805C41.3245 86.2151 40.7099 85.4786 39.95 85.4624H39.9039C39.4415 85.4835 39.0021 85.6701 38.6659 85.9881C38.1006 86.5325 38.6279 86.988 38.9889 86.8289C39.0656 86.7949 39.0899 86.7545 39.2142 86.6124C39.5284 86.245 40.0711 86.2207 40.3433 86.4687Z" fill="#FDC175"/>
<path fill-rule="evenodd" clip-rule="evenodd" d="M68.8916 71.4488C68.2455 71.4439 67.6697 71.8598 67.3144 72.4025C67.1004 72.7256 67.3281 73.1294 67.6511 73.106C67.8393 73.0922 67.9742 72.9081 67.9742 72.9081C68.1357 72.6481 68.357 72.4034 68.6429 72.3121C69.1355 72.1506 69.4504 72.5415 69.6297 72.9154C69.6641 72.987 69.7185 73.047 69.7864 73.0882C70.1224 73.2941 70.4971 72.9032 70.3872 72.5778C70.1732 71.943 69.5562 71.4633 68.8916 71.4488Z" fill="#FDC175"/>
<path fill-rule="evenodd" clip-rule="evenodd" d="M49.2146 74.5749C49.4052 74.5451 49.5248 74.3415 49.5248 74.3415C49.6633 74.0275 49.8809 73.7548 50.1563 73.5501C50.6215 73.2222 51.1868 73.4217 51.5857 73.7326C51.723 73.8392 51.8353 73.9806 51.9669 74.0758C52.0152 74.1103 52.0703 74.1343 52.1284 74.1461C52.5322 74.2269 52.7382 73.6842 52.4773 73.4241C51.9871 72.9396 51.3548 72.5358 50.6772 72.5269C49.8316 72.5212 49.1743 73.173 48.8036 73.9248C48.6235 74.2996 48.9045 74.6242 49.2146 74.5749Z" fill="#FDC175"/>
<path fill-rule="evenodd" clip-rule="evenodd" d="M35.2061 70.3023C35.5736 69.9388 36.0565 69.7079 36.2794 69.8985L36.319 69.9348L36.3578 69.9768C36.3747 69.9954 36.3909 70.0156 36.4062 70.0357C36.4516 70.098 36.4908 70.1646 36.5233 70.2344C36.6162 70.4347 36.8157 70.5639 37.0168 70.5171C37.3834 70.4323 37.2986 69.9388 37.2986 69.9388C37.0854 69.4478 36.6146 68.9778 36.0638 68.9697C35.5696 68.9697 35.1092 69.2766 34.699 69.6416C34.3848 69.9219 34.5415 70.3887 34.8758 70.4202C34.9966 70.4223 35.114 70.3804 35.2061 70.3023Z" fill="#FDC175"/>
<path fill-rule="evenodd" clip-rule="evenodd" d="M38.9106 51.3515C38.971 51.2954 39.0184 51.2267 39.0495 51.1504C39.2263 50.5915 39.9677 50.1602 40.4894 50.4518C40.7777 50.6133 40.8181 51.0171 41.0685 51.1722C41.4973 51.4379 41.7848 50.8782 41.6176 50.5568C41.3091 49.9624 40.7462 49.5449 40.0961 49.5311C39.9882 49.528 39.8802 49.5334 39.7731 49.5473C39.1932 49.6103 38.535 50.1578 38.2855 50.8176C38.1175 51.265 38.6279 51.5727 38.9106 51.3515Z" fill="#FDC175"/>
<path d="M64.6415 69.1379C66.1314 69.1161 67.3216 67.8905 67.2998 66.4005C67.2779 64.9105 66.0523 63.7203 64.5623 63.7422C63.0723 63.764 61.8822 64.9896 61.904 66.4796C61.9259 67.9696 63.1515 69.1598 64.6415 69.1379Z" fill="#242424"/>
<path d="M68.5195 72.7002C68.6906 71.5113 66.7783 70.2523 64.2482 69.8882C61.7181 69.524 59.5284 70.1926 59.3573 71.3815C59.1862 72.5704 61.0985 73.8294 63.6285 74.1935C66.1586 74.5576 68.3484 73.8891 68.5195 72.7002Z" fill="#DD6057"/>
<path d="M47.5746 73.2279C50.1245 73.0505 52.1241 71.9353 52.0408 70.7371C51.9574 69.5389 49.8226 68.7113 47.2727 68.8887C44.7227 69.0661 42.7231 70.1813 42.8065 71.3796C42.8898 72.5778 45.0246 73.4053 47.5746 73.2279Z" fill="#DD6057"/>
<path d="M49.3466 66.2824C49.7833 64.8576 48.9823 63.3487 47.5576 62.912C46.1328 62.4753 44.6239 63.2763 44.1872 64.701C43.7505 66.1258 44.5515 67.6348 45.9762 68.0714C47.401 68.5081 48.9099 67.7071 49.3466 66.2824Z" fill="#242424"/>
<path d="M47.8329 65.5289C48.2054 65.4846 48.4715 65.1468 48.4272 64.7743C48.3829 64.4018 48.0451 64.1358 47.6726 64.1801C47.3001 64.2244 47.034 64.5622 47.0783 64.9347C47.1226 65.3072 47.4605 65.5732 47.8329 65.5289Z" fill="white"/>
<path fill-rule="evenodd" clip-rule="evenodd" d="M65.0418 65.8014C65.0284 65.935 65.055 66.0697 65.1181 66.1882C65.1812 66.3068 65.2781 66.404 65.3964 66.4675C65.5148 66.531 65.6493 66.558 65.783 66.5451C65.9167 66.5322 66.0435 66.4799 66.1475 66.3949C66.2515 66.3098 66.3279 66.1959 66.3672 66.0675C66.4064 65.939 66.4067 65.8018 66.3679 65.6732C66.3292 65.5446 66.2532 65.4303 66.1495 65.3449C66.0459 65.2595 65.9192 65.2067 65.7856 65.1933C65.6064 65.1755 65.4274 65.2295 65.2879 65.3435C65.1485 65.4575 65.06 65.6222 65.0418 65.8014Z" fill="white"/>
<path d="M51.408 66.3491C51.4524 66.3258 51.5011 66.3118 51.5511 66.3081C51.6011 66.3044 51.6513 66.311 51.6986 66.3275C51.746 66.344 51.7894 66.3701 51.8262 66.4041C51.8631 66.4381 51.8925 66.4793 51.9128 66.5251C51.9758 66.656 52.0372 66.7739 52.1018 66.8845C52.1454 66.958 52.1898 67.0299 52.2374 67.101L52.2924 67.1817L52.2996 67.1922C52.3255 67.2277 52.3521 67.2617 52.3804 67.2964C52.6632 67.6623 53.0163 67.9679 53.4189 68.1952C54.5068 68.8187 56.0638 68.9301 57.4827 68.4868C58.2926 68.2373 59.0222 67.7785 59.5978 67.1567C59.6323 67.1198 59.6741 67.0905 59.7206 67.0706C59.767 67.0508 59.8171 67.0407 59.8676 67.0412C59.9468 67.0391 60.0248 67.0607 60.0915 67.1035C60.1583 67.1462 60.2107 67.2079 60.2419 67.2808C60.2731 67.3536 60.2818 67.4341 60.2667 67.5119C60.2517 67.5897 60.2136 67.6612 60.1575 67.7171C59.0616 68.914 57.3366 69.5948 55.5421 69.5383C54.0351 69.4906 52.7446 68.9318 51.9079 67.9635C51.6284 67.638 51.3942 67.2761 51.2118 66.8877C51.1882 66.8397 51.1745 66.7873 51.1717 66.7339C51.1688 66.6804 51.1768 66.6269 51.1951 66.5766C51.2134 66.5263 51.2418 66.4802 51.2783 66.4411C51.3149 66.402 51.3591 66.3707 51.408 66.3491Z" fill="#242424"/>
<path d="M86.7769 31.5517C84.7483 30.3994 83.3654 28.8794 82.2482 26.6844C81.3234 24.8764 80.8117 23.6505 80.2049 20.3611C80.1922 20.2875 80.1606 20.2184 80.1131 20.1605C80.0655 20.1025 80.0036 20.0577 79.9334 20.0303C79.8632 20.0029 79.7871 19.9939 79.7124 20.0041C79.6376 20.0143 79.5668 20.0435 79.5068 20.0887C79.3994 20.1843 79.3313 20.3155 79.3155 20.4575C79.1936 21.1313 78.593 25.2055 76.3438 27.8271C75.3094 29.0325 73.7572 30.1764 72.2427 30.9394C72.1558 30.9829 72.086 31.0537 72.0441 31.1407C71.9988 31.2319 71.988 31.3363 72.0137 31.4348C72.0495 31.5465 72.1142 31.647 72.2013 31.7265C72.7057 32.2375 75.6895 34.7483 77.1333 37.8461C78.2969 40.3388 78.7648 42.2951 78.9329 42.6759C78.9622 42.7566 79.0118 42.8285 79.077 42.8848C79.1423 42.9411 79.221 42.98 79.3057 42.9978C79.4201 43.0086 79.5348 42.9799 79.6302 42.9166C79.7257 42.8533 79.7962 42.7594 79.8296 42.6506C79.9868 42.2324 80.5607 40.029 81.2527 38.6862C82.8549 35.5523 83.8491 34.9749 86.8573 32.2484C86.9082 32.202 86.9474 32.1445 86.9717 32.0804C86.9961 32.0164 87.0049 31.9476 86.9974 31.8795C86.9896 31.8115 86.9655 31.7463 86.9272 31.6893C86.8888 31.6323 86.8373 31.5851 86.7769 31.5517Z" fill="#FFD79B"/>
<path d="M31.7022 45.2417C30.6722 44.7724 29.6193 44.1021 28.9371 43.4212C27.4791 41.9701 27.1667 39.8348 27.1052 39.4814C27.0948 39.4012 27.0679 39.3242 27.0265 39.2555C26.985 39.1868 26.9298 39.128 26.8647 39.0829C26.8026 39.041 26.7321 39.0141 26.6585 39.0042C26.5849 38.9944 26.5101 39.0018 26.4397 39.026C26.3592 39.0489 26.2859 39.0933 26.2274 39.1548C26.1689 39.2163 26.1272 39.2927 26.1065 39.3762C25.6118 41.0657 25.2327 41.6811 24.5558 42.5866C23.7351 43.6811 22.753 44.4125 21.3387 44.9227C21.2523 44.9543 21.1757 45.0094 21.1171 45.0822C21.0585 45.155 21.0201 45.2429 21.006 45.3364C20.9919 45.4298 21.0026 45.5255 21.037 45.6133C21.0714 45.701 21.1282 45.7775 21.2013 45.8346C23.2206 47.4092 23.9017 47.7519 24.9359 49.4801C25.3796 50.2223 25.7232 51.4134 25.8222 51.6443C25.8559 51.7412 25.9158 51.826 25.9949 51.8887C26.0739 51.9514 26.1688 51.9894 26.2682 51.9981C26.3676 52.0068 26.4673 51.9859 26.5555 51.9378C26.6437 51.8898 26.7167 51.8166 26.7657 51.727C26.8938 51.5294 27.2719 50.4983 28.155 49.2105C29.2308 47.6391 31.3616 46.4533 31.723 46.203C31.8308 46.1388 31.9145 46.0391 31.9606 45.9198C32.0067 45.8006 32.0125 45.6688 31.9771 45.5457C31.9552 45.4776 31.9193 45.4152 31.8718 45.3627C31.8244 45.3103 31.7665 45.269 31.7022 45.2417Z" fill="#FFD79B"/>
<path d="M28.5939 82.0822C27.1881 81.3239 25.7539 80.2412 24.8238 79.1411C22.8357 76.7986 22.4097 73.3474 22.3245 72.7765C22.3113 72.6468 22.275 72.5222 22.2184 72.4113C22.1617 72.3005 22.086 72.206 21.9965 72.1345C21.9123 72.0664 21.8164 72.0227 21.7162 72.0068C21.6161 71.9908 21.5143 72.0031 21.4186 72.0425C21.3086 72.0789 21.2084 72.1503 21.1284 72.2494C21.0483 72.3484 20.9911 72.4716 20.9627 72.6065C20.2882 75.3359 19.7713 76.3301 18.8483 77.7929C17.7293 79.561 16.3917 80.7426 14.4619 81.5668C14.3439 81.6178 14.2395 81.7068 14.1596 81.8245C14.0798 81.9421 14.0274 82.084 14.0082 82.235C13.989 82.3861 14.0036 82.5406 14.0505 82.6823C14.0973 82.8241 14.1747 82.9476 14.2744 83.04C17.0293 85.5837 17.9565 86.1372 19.368 88.9308C19.973 90.1281 20.4416 92.0541 20.5765 92.4254C20.6224 92.5818 20.7041 92.7189 20.812 92.8202C20.9198 92.9215 21.0491 92.9828 21.1847 92.9969C21.3202 93.011 21.4561 92.9772 21.5764 92.8996C21.6967 92.8219 21.7961 92.7037 21.863 92.559C22.0377 92.2398 22.5532 90.574 23.7573 88.4936C25.2242 85.955 28.1282 84.0394 28.6223 83.6351C28.7693 83.5314 28.8834 83.3702 28.9463 83.1776C29.0091 82.9849 29.0171 82.772 28.9688 82.5732C28.9383 82.4636 28.8891 82.3632 28.8244 82.2786C28.7598 82.1939 28.6813 82.127 28.5939 82.0822Z" fill="#FFD79B"/>
</svg>
