<svg width="100" height="100" viewBox="0 0 100 100" fill="none" xmlns="http://www.w3.org/2000/svg">
<path fill-rule="evenodd" clip-rule="evenodd" d="M41.0632 29.6949C42.8251 28.1184 45.8631 26.4227 44.5944 23.8589C43.5145 21.675 39.4826 21.0915 37.3591 21.3506C34.7109 21.6733 34.9914 16.6848 31.7804 17.0158C29.3358 17.2682 28.6076 19.4546 27.3646 21.0634C25.1252 23.9598 24.6692 21.2107 21.9945 21.123C17.548 20.9773 14.208 26.042 15.8292 30.3089C16.7188 32.6476 19.5606 32.9124 19.3049 35.909C19.1733 37.4558 18.2423 39.048 18.8779 40.4606C19.0848 40.8918 19.3943 41.2658 19.7791 41.5497C21.6386 42.9905 23.3112 42.129 25.1078 41.3072C26.7447 40.5575 29.3962 40.0171 30.6293 38.4753C31.0588 37.8679 31.2599 37.0544 31.8955 36.6671C32.8 36.1176 33.9197 36.7581 34.9161 37.114C36.9354 37.8356 39.7217 36.8144 39.9394 34.6818C40.1728 32.3886 39.044 31.6785 40.7488 29.9887C40.8472 29.8918 40.9532 29.7934 41.0632 29.6949Z" fill="#A7C69B"/>
<path fill-rule="evenodd" clip-rule="evenodd" d="M41.3504 24.7917C41.1559 24.7644 41.4273 24.6949 40.7214 24.9315C39.7019 25.2692 38.6459 25.4959 37.6735 25.87C35.2173 26.8076 32.7371 27.5549 30.1476 28.3825C26.647 29.5063 23.2474 31.1681 20.0274 32.7032C17.2964 34.0091 14.5373 35.2943 12.029 37.0661C11.5506 37.4037 11.0318 37.7364 10.6941 38.1858C10.4458 38.5218 10.6428 39.1201 11.0905 39.1176C11.2718 39.1176 11.3735 39.044 11.6036 38.8222C12.5487 37.9218 13.6874 37.2862 14.8179 36.6416C18.9259 34.2987 23.312 32.5368 27.5971 30.5681C29.5435 29.6735 31.634 29.1215 33.6383 28.4495C35.1834 27.9339 36.7284 27.4523 38.2652 26.8581C39.2533 26.4857 40.2977 26.2904 41.309 25.9329C41.7915 25.7616 41.928 24.9613 41.3504 24.7917Z" fill="#70975F"/>
<path fill-rule="evenodd" clip-rule="evenodd" d="M32.9333 22.3179C32.6436 22.274 32.3796 22.4901 32.2712 22.8037C32.2025 23.0023 32.1885 23.0288 32.1487 23.1306C31.7027 24.2254 31.0084 25.1995 30.314 26.1653C29.5891 27.1683 28.692 28.0008 27.8471 28.883C27.4556 29.2802 26.9367 29.5632 26.4344 29.8396L26.2573 29.9679C26.0546 30.1971 26.0818 30.2907 26.086 30.4206C26.0959 30.7243 26.2912 30.9618 26.638 30.9535C26.638 30.9535 27.2173 30.8153 27.6633 30.7508C29.4451 30.4959 31.2417 30.7947 32.7942 31.7637C33.112 31.9615 33.4339 32.1601 33.7434 32.3571C33.7848 32.3836 33.6193 32.3985 33.9644 32.4398C34.2532 32.4754 34.5329 32.2884 34.59 31.9077C34.59 31.9077 34.5826 31.5155 34.3343 31.3533C33.0027 30.505 31.6108 29.7238 30.0542 29.55C29.6299 29.5042 29.203 29.4865 28.7764 29.497H28.7698C30.2875 27.875 31.8376 26.2563 32.9076 24.0715C32.9501 23.9843 32.9915 23.8966 33.0317 23.8084C33.0698 23.7256 33.1062 23.6379 33.1418 23.551C33.3346 23.0784 33.5514 22.514 32.9705 22.3245L32.9299 22.3154L32.9333 22.3179Z" fill="#70975F"/>
<path fill-rule="evenodd" clip-rule="evenodd" d="M23.2871 25.4562C23.1731 25.4368 23.0559 25.452 22.9506 25.4998C22.8453 25.5476 22.7567 25.6258 22.6963 25.7243C22.6963 25.7243 22.5158 26.9226 22.2394 28.0109C21.9084 29.3027 21.4615 30.5308 20.6787 31.6563C20.3725 32.0974 20.0505 32.5253 19.7245 32.9498L19.6144 33.1741C19.5962 33.2837 19.5962 33.3955 19.6144 33.5051C19.7055 33.7782 19.8801 33.8361 19.8801 33.8361C19.9453 33.8623 20.0133 33.8806 20.0828 33.8907C20.322 33.8907 20.0902 33.9594 20.4262 33.7939C21.6543 33.2014 23.2251 33.8129 24.3001 34.523C24.8188 34.863 25.306 35.2488 25.7558 35.6758C25.7558 35.6758 26.3616 35.977 26.604 35.4879C26.8755 34.9401 26.1339 34.4262 25.4967 33.947C24.3092 33.0557 22.9255 32.3904 21.4723 32.4169C22.7244 30.6343 23.4014 28.3527 23.6662 26.1679C23.6848 26.0866 23.6904 26.0027 23.6827 25.9196C23.6681 25.8128 23.6226 25.7125 23.5517 25.6312C23.4808 25.5498 23.3877 25.4911 23.2838 25.462L23.2871 25.4562ZM23.6182 26.2937L23.6 26.3227C23.6 26.3227 23.6678 26.1861 23.6182 26.2937Z" fill="#70975F"/>
<path fill-rule="evenodd" clip-rule="evenodd" d="M20.082 70.3696C19.4886 72.6578 19.3728 76.1335 16.5135 76.1823C14.078 76.2237 11.7137 72.9077 10.9689 70.9017C10.0412 68.3966 5.73699 70.9356 4.55937 67.9299C3.66312 65.6417 5.27273 63.9923 6.13174 62.1502C7.68011 58.8316 5.0278 59.6873 3.72356 57.3503C1.55617 53.4649 4.52711 48.1751 9.0605 47.6612C11.5432 47.3798 13.085 49.7839 15.6305 48.1826C16.9447 47.355 17.9337 45.7992 19.4837 45.7156C19.9615 45.7017 20.4354 45.8052 20.864 46.0168C22.9967 47.0099 22.9992 48.8901 23.091 50.8639C23.1738 52.663 23.9095 55.2665 23.1051 57.0706C22.7616 57.7326 22.1302 58.2822 22.0781 59.0245C22.0044 60.0805 23.0869 60.7814 23.8598 61.5072C25.4264 62.9703 25.7963 65.9156 23.9997 67.0858C22.069 68.3445 20.9203 67.6651 20.2003 69.9566C20.1589 70.0879 20.1195 70.2256 20.082 70.3696Z" fill="#A7C69B"/>
<path fill-rule="evenodd" clip-rule="evenodd" d="M15.8556 72.8714C15.7422 72.7116 15.8043 72.9839 15.6901 72.249C15.5246 71.1881 15.2399 70.1454 15.1274 69.1093C14.8352 66.4966 14.3618 63.9494 13.9108 61.2698C13.305 57.6425 13.224 53.8597 13.1131 50.2946C13.0204 47.2674 12.8996 44.2269 13.3241 41.1856C13.4068 40.6063 13.4631 39.9922 13.7081 39.4866C13.891 39.1084 14.515 39.0124 14.7169 39.4113C14.7996 39.5727 14.7814 39.6968 14.6896 40.003C14.323 41.2551 14.2799 42.5585 14.2253 43.8586C14.0259 48.5832 14.4736 53.2929 14.6846 58.0009C14.7814 60.141 15.249 62.2512 15.5701 64.3408C15.8184 65.9504 16.1006 67.5444 16.276 69.1829C16.3985 70.2315 16.7039 71.2518 16.8495 72.3111C16.919 72.8192 16.2702 73.3042 15.8564 72.8714H15.8556Z" fill="#70975F"/>
<path fill-rule="evenodd" clip-rule="evenodd" d="M9.7995 66.5249C9.62736 66.2874 9.69852 65.9539 9.92941 65.7172C10.0751 65.5649 10.0949 65.5426 10.1644 65.459C10.9324 64.5603 11.4795 63.4969 12.0199 62.4367C12.5793 61.3328 12.9086 60.1535 13.305 58.9982C13.4788 58.4686 13.4937 57.8793 13.5078 57.305L13.5409 57.089C13.6518 56.8027 13.747 56.7845 13.8645 56.729C14.1384 56.5983 14.4397 56.6628 14.5903 56.9773C14.5903 56.9773 14.7318 57.5566 14.8807 57.982C15.4708 59.6818 16.5598 61.1424 18.133 62.0784C18.4541 62.2696 18.7786 62.4649 19.0955 62.6494C19.1377 62.6742 19.0748 62.5203 19.2718 62.8075C19.4373 63.0475 19.3976 63.3818 19.0847 63.6069C19.0847 63.6069 18.733 63.7799 18.4757 63.6342C17.111 62.8389 15.7786 61.9609 14.9114 60.655C14.6759 60.299 14.4644 59.9277 14.2783 59.5435V59.537C13.5335 61.629 12.8036 63.7493 11.3528 65.7007C11.2949 65.7784 11.2353 65.8554 11.1757 65.9315C11.1161 66.0077 11.0582 66.0764 10.9978 66.1475C10.6668 66.5348 10.2629 66.9867 9.82847 66.5571L9.80196 66.5257L9.7995 66.5249Z" fill="#70975F"/>
<path fill-rule="evenodd" clip-rule="evenodd" d="M8.16752 56.5128C8.09796 56.4205 8.05765 56.3094 8.05175 56.1939C8.04585 56.0784 8.07464 55.9638 8.13443 55.8649C8.13443 55.8649 9.11674 55.1557 9.95507 54.4108C10.9523 53.527 11.8386 52.5645 12.48 51.353C12.7283 50.8788 12.9641 50.3963 13.1917 49.9114L13.3406 49.7111C13.4304 49.646 13.5302 49.596 13.6361 49.563C13.9207 49.5183 14.0498 49.6457 14.0498 49.6457C14.1028 49.6921 14.1502 49.7442 14.1914 49.8013C14.3039 50.0123 14.2559 49.7764 14.2625 50.1505C14.2989 51.5135 15.5626 52.6332 16.6856 53.2597C17.226 53.5645 17.7923 53.8207 18.378 54.0252C18.378 54.0252 18.9234 54.4249 18.5998 54.8652C18.2373 55.3567 17.4412 54.9339 16.7229 54.5871C15.3863 53.9408 14.1574 53.0147 13.5177 51.7113C12.5081 53.6412 10.7868 55.288 8.96611 56.5253C8.90191 56.5799 8.82927 56.6238 8.75098 56.6552C8.6492 56.6911 8.53915 56.6965 8.43434 56.6708C8.32952 56.645 8.23448 56.5893 8.16089 56.5103L8.16752 56.5128ZM9.06378 56.4226L9.08115 56.3945C9.08115 56.3945 8.99012 56.5161 9.06378 56.4226Z" fill="#70975F"/>
<path d="M21.3605 44.2551C18.9523 40.7892 15.158 38.4224 11.131 37.3035C10.5137 37.1322 9.88968 36.9791 9.26405 36.8583C8.66323 36.7433 7.95153 36.5471 7.33996 36.6258C6.79708 36.6961 6.70606 37.5634 6.69116 37.9689C6.67627 38.3744 6.71599 39.4676 7.22908 39.6348C7.92175 39.8599 8.69056 39.8756 9.4064 40.0105C10.0765 40.1356 10.7395 40.2961 11.3926 40.4913C12.6685 40.8741 13.9035 41.3822 15.0793 42.0082C17.3088 43.1999 19.2768 44.8219 20.7349 46.8983C21.1322 47.4635 21.5699 46.7005 21.651 46.3306C21.7975 45.6561 21.7611 44.841 21.3564 44.2567L21.3605 44.2551Z" fill="#70995F"/>
<path d="M90.1676 74.8708C96.9776 70.675 97.4046 62.3406 89.3814 59.2861C85.0425 57.631 79.6261 58.7838 76.7528 62.4308C69.6994 71.3892 81.1603 79.7699 89.4724 75.2705C89.7107 75.1425 89.9425 75.0093 90.1676 74.8708Z" fill="#5A77B0"/>
<path d="M68.7097 58.7747L62.8654 60.3702C59.2928 61.3426 55.0656 63.0109 54.5153 66.6721C54.2389 68.5076 55.0466 70.3481 56.129 71.856C58.8211 75.6048 63.5456 77.946 68.1179 77.3245C72.6902 76.703 76.7718 72.8755 77.2319 68.2834C77.692 63.6912 74.0872 58.9319 69.4892 58.5545C63.107 58.0274 56.0669 60.28 54.2579 66.4222" fill="#5A77B0"/>
<path d="M49.5259 44.7492L44.3727 46.1519C41.2238 47.0101 37.4964 48.4806 37.0115 51.709C36.7673 53.3268 37.4799 54.9497 38.434 56.2796C40.8075 59.5841 44.9718 61.6488 49.0037 61.1001C53.0356 60.5515 56.6338 57.1783 57.0394 53.1299C57.4449 49.0814 54.2678 44.8874 50.2128 44.5522C44.5853 44.0871 38.3786 46.0733 36.7847 51.4889" fill="#5A77B0"/>
<path d="M44.0226 62.6352L38.8702 64.0379C35.7204 64.8953 31.9931 66.3659 31.5048 69.5942C31.2607 71.2129 31.9732 72.835 32.9274 74.1648C35.3009 77.4701 39.4652 79.5341 43.4971 78.9854C47.529 78.4367 51.1272 75.0636 51.5327 71.0151C51.9382 66.9667 48.7612 62.7726 44.7061 62.4374C39.0787 61.9724 32.872 63.9585 31.2781 69.3741" fill="#5A77B0"/>
<path d="M74.4306 62.445C71.919 61.5065 69.8037 59.6189 69.0308 56.8714C67.0082 49.6774 72.994 44.76 79.4994 46.1768C83.9145 47.1376 87.468 52.2668 86.5478 56.8937C85.4149 62.5841 79.2032 64.2301 74.4306 62.445Z" fill="#5A77B0"/>
<path d="M17.1052 62.9033C14.5936 61.9649 12.4775 60.0772 11.7054 57.3297C9.68199 50.1356 15.6686 45.2191 22.1733 46.6351C26.5891 47.5967 30.1427 52.7251 29.2216 57.352C28.0895 63.0423 21.8811 64.6884 17.1052 62.9033Z" fill="#5A77B0"/>
<path d="M58.5141 76.4248C48.2755 77.8184 40.2315 62.4142 50.0448 56.2919C54.248 53.6693 59.9631 55.8607 63.4248 59.4043C68.7312 64.8389 66.4636 75.3424 58.5141 76.4248Z" fill="#5A77B0"/>
<path d="M72.3286 40.6833C73.5931 43.3961 73.7247 46.9008 72.1631 50.5487C70.3267 54.8446 65.5252 55.6134 61.3385 55.4835C57.2289 55.3552 53.5851 51.8645 52.9528 47.8012C52.3206 43.7379 54.5293 39.4767 58.044 37.3416C64.2822 33.5514 70.0859 35.8743 72.3286 40.6833Z" fill="#5A77B0"/>
<path d="M72.787 56.2761C74.0516 58.988 74.184 62.4928 72.6215 66.1415C70.7843 70.4366 65.9828 71.2054 61.7962 71.0754C57.6865 70.948 54.0427 67.4573 53.4113 63.394C52.7798 59.3307 54.9878 55.0687 58.5016 52.9336C64.7406 49.1442 70.5443 51.4638 72.787 56.2761Z" fill="#5A77B0"/>
<path d="M40.685 37.9317C41.9487 40.6444 42.0811 44.1492 40.5195 47.7971C38.6831 52.093 33.8816 52.8618 29.6949 52.7319C25.5853 52.6036 21.9407 49.1129 21.3093 45.0496C20.6778 40.9862 22.8858 36.7251 26.3996 34.59C32.6386 30.7998 38.4423 33.1202 40.685 37.9317Z" fill="#5A77B0"/>
<path d="M56.2796 34.2629C57.5441 36.9757 57.6765 40.4796 56.1141 44.1283C54.2769 48.4234 49.4754 49.1922 45.2887 49.0622C41.1791 48.9348 37.5353 45.4441 36.9039 41.3808C36.2725 37.3175 38.4804 33.0555 41.9942 30.9204C48.2307 27.131 54.0353 29.4506 56.2796 34.2629Z" fill="#5A77B0"/>
<path d="M41.602 61.7771C42.8665 64.4891 42.9989 67.9938 41.4364 71.6425C39.5993 75.9376 34.7977 76.7064 30.6111 76.5765C26.5014 76.449 22.8576 72.9575 22.2262 68.895C21.5947 64.8325 23.8027 60.5697 27.3165 58.4346C33.5555 54.6477 39.3593 56.9673 41.602 61.7771Z" fill="#5A77B0"/>
<path d="M46.5309 51.8612C47.7946 54.574 47.927 58.0787 46.3654 61.7266C44.5291 66.0225 39.7275 66.7913 35.5409 66.6613C31.4312 66.5331 27.7866 63.0424 27.1552 58.9791C26.5237 54.9157 28.7317 50.6546 32.2463 48.5195C38.487 44.7292 44.2882 47.0464 46.5309 51.8612Z" fill="#5A77B0"/>
<path d="M76.4366 51.3109C76.7833 48.911 81.8754 50.0985 81.2944 52.5572C81.1041 53.3657 80.2633 53.9136 79.4324 53.9359C78.6015 53.9583 77.8087 53.5404 77.2029 52.9718C76.7412 52.5374 76.3456 51.9382 76.4366 51.3109Z" fill="#8EA4DB"/>
<path d="M62.8447 39.8291C64.5429 38.7864 66.2932 41.9949 64.8391 43.0757C63.0872 44.3774 60.9347 41.0051 62.8447 39.8291Z" fill="#8EA4DB"/>
<path d="M38.6798 53.3443C39.2947 54.7056 38.444 56.518 37.004 56.9152C35.5641 57.3125 33.9048 56.1903 33.736 54.7065C33.5671 53.2227 34.9318 51.7562 36.4239 51.8191C37.2779 51.8547 38.0906 52.333 38.5838 53.0315" fill="#8EA4DB"/>
<path d="M27.1494 41.2774C27.5168 42.3533 28.716 42.9864 29.8175 42.921C31.1763 42.8382 32.3597 42.0934 32.224 40.6742C32.1048 39.4287 31.0993 38.0135 29.7413 37.9167C28.0754 37.7976 26.6131 39.6943 27.1494 41.2774Z" fill="#8EA4DB"/>
<path d="M22.7831 56.6627C21.8314 56.1711 21.1892 55.2086 20.8723 54.1849C20.7217 53.7 20.6372 53.1654 20.8193 52.6912C21.0494 52.0887 21.8612 51.4647 22.462 51.2727C23.8374 50.8316 25.9998 51.5624 26.4277 53.047C27.0666 55.2616 25.1202 57.8684 22.7831 56.6627Z" fill="#8EA4DB"/>
<path d="M62.061 53.796C62.8885 53.3756 64.1142 53.5361 64.8921 53.9574C66.0672 54.5946 67.1075 55.9138 66.3494 57.261C65.8132 58.2152 64.5031 58.5198 63.4621 58.1821C62.1164 57.746 61.0199 56.5228 61.2219 55.0051C61.2474 54.7488 61.3378 54.5033 61.4847 54.2917C61.6315 54.0802 61.8298 53.9096 62.061 53.796Z" fill="#8EA4DB"/>
<path d="M37.825 44.6251C40.3284 41.1874 43.4524 47.4454 39.8691 47.9891C38.2173 48.239 36.8418 45.9757 37.825 44.6251Z" fill="#8EA4DB"/>
<path d="M45.7588 40.9531C47.7847 41.3297 49.53 40.6817 49.0202 38.2602C48.6594 36.5497 46.7469 35.2305 45.0785 35.2413C43.4499 35.2529 42.1746 36.6796 42.624 38.3637C42.9923 39.7449 44.3528 40.6908 45.7588 40.9531Z" fill="#8EA4DB"/>
<path d="M28.634 64.4916C28.4826 64.6629 28.3899 64.9286 28.3857 65.2687C28.3799 66.102 29.6171 67.321 30.1931 66.1451C30.287 65.9245 30.311 65.6804 30.2618 65.4458C30.2105 65.1264 30.0806 64.8077 29.8381 64.5942C29.3681 64.1771 28.9063 64.1829 28.634 64.4916Z" fill="#8EA4DB"/>
<path d="M48.7248 53.7174C48.5733 53.8895 48.4815 54.1552 48.4765 54.4945C48.4707 55.3287 49.7079 56.5468 50.2831 55.3709C50.377 55.1503 50.401 54.9062 50.3518 54.6716C50.3005 54.3521 50.1714 54.0335 49.9289 53.82C49.4588 53.4038 48.9971 53.4087 48.7248 53.7174Z" fill="#8EA4DB"/>
<path d="M52.2659 47.5207C52.0822 46.4209 53.1672 45.3061 54.272 45.4592C55.3768 45.6123 56.0794 46.9836 55.8121 48.0247C55.3842 49.6873 52.5167 49.0244 52.2659 47.5207Z" fill="#8EA4DB"/>
<path d="M86.1696 69.4733C86.1696 68.7178 87.1833 67.891 87.8429 67.7355C89.9805 67.2257 92.4649 70.07 89.623 71.0217C88.3419 71.4471 86.1688 71.2236 86.1696 69.4733Z" fill="#8EA4DB"/>
<path d="M45.2316 66.6093C47.436 65.6172 48.4188 63.026 47.4267 60.8216C46.4347 58.6172 43.8434 57.6345 41.639 58.6265C39.4346 59.6186 38.4519 62.2099 39.4439 64.4143C40.436 66.6186 43.0273 67.6014 45.2316 66.6093Z" fill="#242424"/>
<path d="M79.584 66.6093C81.7884 65.6172 82.7712 63.026 81.7791 60.8216C80.7871 58.6172 78.1958 57.6345 75.9914 58.6265C73.787 59.6186 72.8042 62.2099 73.7963 64.4143C74.7884 66.6186 77.3796 67.6014 79.584 66.6093Z" fill="#242424"/>
<path fill-rule="evenodd" clip-rule="evenodd" d="M48.2729 71.6036C48.1769 72.816 46.1784 73.6477 43.8091 73.4607C41.4397 73.2736 39.5967 72.1366 39.6927 70.9267C39.7887 69.7168 41.7865 68.8834 44.1558 69.0704C46.5251 69.2574 48.3681 70.3912 48.2729 71.6036Z" fill="#DA6057"/>
<path fill-rule="evenodd" clip-rule="evenodd" d="M78.7414 71.6904C78.7472 72.9069 76.8264 73.9025 74.4497 73.9149C72.0729 73.9273 70.1413 72.9508 70.1347 71.7351C70.1281 70.5194 72.0497 69.523 74.4265 69.5106C76.8032 69.4982 78.7348 70.4747 78.7414 71.6904Z" fill="#DA6057"/>
<path fill-rule="evenodd" clip-rule="evenodd" d="M43.4524 61.7259C43.432 61.9854 43.335 62.2332 43.1738 62.4377C43.0126 62.6422 42.7944 62.7942 42.5468 62.8747C42.2992 62.9552 42.0332 62.9605 41.7826 62.8898C41.532 62.8192 41.308 62.6758 41.1388 62.4779C40.9697 62.2799 40.863 62.0362 40.8323 61.7777C40.8016 61.5191 40.8483 61.2573 40.9664 61.0252C41.0846 60.7932 41.2689 60.6014 41.496 60.4741C41.7231 60.3467 41.9829 60.2896 42.2425 60.3099C42.5907 60.3374 42.9137 60.502 43.1405 60.7675C43.3674 61.033 43.4796 61.3777 43.4524 61.7259Z" fill="white"/>
<path fill-rule="evenodd" clip-rule="evenodd" d="M77.8048 61.7259C77.7844 61.9854 77.6874 62.2332 77.5262 62.4377C77.365 62.6422 77.1468 62.7942 76.8992 62.8747C76.6516 62.9552 76.3856 62.9605 76.135 62.8898C75.8844 62.8192 75.6604 62.6758 75.4912 62.4779C75.3221 62.2799 75.2154 62.0362 75.1847 61.7777C75.154 61.5191 75.2007 61.2573 75.3188 61.0252C75.437 60.7932 75.6212 60.6014 75.8484 60.4741C76.0755 60.3467 76.3353 60.2896 76.5949 60.3099C76.943 60.3374 77.266 60.502 77.4929 60.7675C77.7198 61.033 77.832 61.3777 77.8048 61.7259Z" fill="white"/>
<path d="M68.9579 65.5574C68.8775 65.5026 68.7867 65.4649 68.6911 65.4466C68.5954 65.4284 68.4971 65.4301 68.4022 65.4515C68.3072 65.4729 68.2177 65.5137 68.1392 65.5712C68.0607 65.6287 67.9949 65.7017 67.9458 65.7858C67.7968 66.025 67.652 66.2377 67.503 66.4371C67.4048 66.5695 67.3019 66.6986 67.1944 66.8244L67.0727 66.9643C67.0669 66.9709 67.0611 66.9767 67.0562 66.9833L67.0512 66.9891C66.9933 67.0511 66.9353 67.1116 66.8757 67.172C66.2513 67.815 65.5045 68.3265 64.6794 68.6765C62.445 69.6423 59.4227 69.5189 56.7852 68.3562C55.2784 67.7002 53.9716 66.6576 52.9975 65.334C52.939 65.2549 52.8646 65.1891 52.7791 65.1406C52.6935 65.0921 52.5988 65.0621 52.5009 65.0526C52.3485 65.0309 52.193 65.0555 52.0547 65.1234C51.9165 65.1913 51.8018 65.2993 51.7258 65.4332C51.6497 65.5671 51.6157 65.7209 51.6282 65.8744C51.6407 66.0279 51.6991 66.1741 51.7959 66.2939C53.6471 68.8379 56.8233 70.5244 60.2933 70.8058H60.2983C63.2121 71.0408 65.8214 70.2431 67.6454 68.5606C68.2531 67.9933 68.782 67.347 69.2177 66.639C69.49 66.2095 69.2848 65.761 68.9579 65.5574Z" fill="#242424"/>
<path d="M97.7769 37.5517C95.7483 36.3994 94.3654 34.8794 93.2482 32.6844C92.3234 30.8764 91.8117 29.6505 91.2049 26.3611C91.1922 26.2875 91.1606 26.2184 91.1131 26.1605C91.0655 26.1025 91.0036 26.0577 90.9334 26.0303C90.8632 26.0029 90.7871 25.9939 90.7124 26.0041C90.6376 26.0143 90.5668 26.0435 90.5068 26.0887C90.3994 26.1843 90.3313 26.3155 90.3155 26.4575C90.1936 27.1313 89.593 31.2055 87.3438 33.8271C86.3094 35.0325 84.7572 36.1764 83.2427 36.9394C83.1558 36.9829 83.086 37.0537 83.0441 37.1407C82.9988 37.2319 82.988 37.3363 83.0137 37.4348C83.0495 37.5465 83.1142 37.647 83.2013 37.7265C83.7057 38.2375 86.6895 40.7483 88.1333 43.8461C89.2969 46.3388 89.7648 48.2951 89.9329 48.6759C89.9622 48.7566 90.0118 48.8285 90.077 48.8848C90.1423 48.9411 90.221 48.98 90.3057 48.9978C90.4201 49.0086 90.5348 48.9799 90.6302 48.9166C90.7257 48.8533 90.7962 48.7594 90.8296 48.6506C90.9868 48.2324 91.5607 46.029 92.2527 44.6862C93.8549 41.5523 94.8491 40.9749 97.8573 38.2484C97.9082 38.202 97.9474 38.1445 97.9717 38.0804C97.9961 38.0164 98.0049 37.9476 97.9974 37.8795C97.9896 37.8115 97.9655 37.7463 97.9272 37.6893C97.8888 37.6323 97.8373 37.5851 97.7769 37.5517Z" fill="#FFD79B"/>
<path d="M60.7022 16.2417C59.6722 15.7724 58.6193 15.1021 57.9371 14.4212C56.4791 12.9701 56.1667 10.8348 56.1052 10.4814C56.0948 10.4012 56.0679 10.3242 56.0265 10.2555C55.985 10.1868 55.9298 10.128 55.8647 10.0829C55.8026 10.041 55.7321 10.0141 55.6585 10.0042C55.5849 9.99437 55.5101 10.0018 55.4397 10.026C55.3592 10.0489 55.2859 10.0933 55.2274 10.1548C55.1689 10.2163 55.1272 10.2927 55.1065 10.3762C54.6118 12.0657 54.2327 12.6811 53.5558 13.5866C52.7351 14.6811 51.753 15.4125 50.3387 15.9227C50.2523 15.9543 50.1757 16.0094 50.1171 16.0822C50.0585 16.155 50.0201 16.2429 50.006 16.3364C49.9919 16.4298 50.0026 16.5255 50.037 16.6133C50.0714 16.701 50.1282 16.7775 50.2013 16.8346C52.2206 18.4092 52.9017 18.7519 53.9359 20.4801C54.3796 21.2223 54.7232 22.4134 54.8222 22.6443C54.8559 22.7412 54.9158 22.826 54.9949 22.8887C55.0739 22.9514 55.1688 22.9894 55.2682 22.9981C55.3676 23.0068 55.4673 22.9859 55.5555 22.9378C55.6437 22.8898 55.7167 22.8166 55.7657 22.727C55.8938 22.5294 56.2719 21.4983 57.155 20.2105C58.2308 18.6391 60.3616 17.4533 60.723 17.203C60.8308 17.1388 60.9145 17.0391 60.9606 16.9198C61.0067 16.8006 61.0125 16.6688 60.9771 16.5457C60.9552 16.4776 60.9193 16.4152 60.8718 16.3627C60.8244 16.3103 60.7665 16.269 60.7022 16.2417Z" fill="#FFD79B"/>
<path d="M39.5939 78.0822C38.1881 77.3239 36.7539 76.2412 35.8238 75.1411C33.8357 72.7986 33.4097 69.3474 33.3245 68.7765C33.3113 68.6468 33.275 68.5222 33.2184 68.4113C33.1617 68.3005 33.086 68.206 32.9965 68.1345C32.9123 68.0664 32.8164 68.0227 32.7162 68.0068C32.6161 67.9908 32.5143 68.0031 32.4186 68.0425C32.3086 68.0789 32.2084 68.1503 32.1284 68.2494C32.0483 68.3484 31.9911 68.4716 31.9627 68.6065C31.2882 71.3359 30.7713 72.3301 29.8483 73.7929C28.7293 75.561 27.3917 76.7426 25.4619 77.5668C25.3439 77.6178 25.2395 77.7068 25.1596 77.8245C25.0798 77.9421 25.0274 78.084 25.0082 78.235C24.989 78.3861 25.0036 78.5406 25.0505 78.6823C25.0973 78.8241 25.1747 78.9476 25.2744 79.04C28.0293 81.5837 28.9565 82.1372 30.368 84.9308C30.973 86.1281 31.4416 88.0541 31.5765 88.4254C31.6224 88.5818 31.7041 88.7189 31.812 88.8202C31.9198 88.9215 32.0491 88.9828 32.1847 88.9969C32.3202 89.011 32.4561 88.9772 32.5764 88.8996C32.6967 88.8219 32.7961 88.7037 32.863 88.559C33.0377 88.2398 33.5532 86.574 34.7573 84.4936C36.2242 81.955 39.1282 80.0394 39.6223 79.6351C39.7693 79.5314 39.8834 79.3702 39.9463 79.1776C40.0091 78.9849 40.0171 78.772 39.9688 78.5732C39.9383 78.4636 39.8891 78.3632 39.8244 78.2786C39.7598 78.1939 39.6813 78.127 39.5939 78.0822Z" fill="#FFD79B"/>
</svg>
