<svg width="100" height="101" viewBox="0 0 100 101" fill="none" xmlns="http://www.w3.org/2000/svg">
<path fill-rule="evenodd" clip-rule="evenodd" d="M29.417 22.2883C20.008 27.1357 13.0384 33.7133 11.2141 48.2972C9.3898 62.8812 18.926 100.27 51.3087 96.8913C92.1107 92.6433 86.1708 54.7529 84.3691 47.2692C82.8933 41.1446 66.9346 2.95453 29.417 22.2883Z" fill="#FF9E5E"/>
<path fill-rule="evenodd" clip-rule="evenodd" d="M35.8169 16.481C35.8169 16.481 69.9821 -14.8023 92.9087 29.0611C92.9087 29.0611 85.1062 24.3566 80.0601 25.2191C75.0141 26.0816 71.0362 25.2766 66.1209 23.3286C61.2055 21.3806 60.5452 22.656 54.032 23.1004C47.5189 23.5447 39.8523 20.0058 35.8117 16.4792L35.8169 16.481Z" fill="#A7C69B"/>
<path fill-rule="evenodd" clip-rule="evenodd" d="M32.6335 33.5723C33.2138 33.6473 33.5274 34.4435 33.1475 34.8739C32.8461 35.2224 32.285 35.1422 31.7902 35.2903C29.6697 35.9246 28.1311 37.9649 27.2599 40.0158C27.0648 40.474 26.894 40.9445 26.7372 41.4219C26.6349 41.6469 26.4549 41.8276 26.2302 41.9307C25.7075 42.1049 25.075 41.5822 25.2248 40.988C25.9218 38.2821 28.4343 34.1526 32.1143 33.6089C32.2715 33.5873 32.4297 33.5739 32.5882 33.5688H32.6335V33.5723Z" fill="#FB731D"/>
<path fill-rule="evenodd" clip-rule="evenodd" d="M38.1901 34.4923C38.2799 34.493 38.3685 34.5132 38.4497 34.5515C39.0804 34.8112 38.901 35.7712 38.9724 36.6581C39.1815 39.4808 40.1311 42.3331 42.2394 44.2446C42.4093 44.4286 42.5 44.672 42.4921 44.9223C42.4189 45.5165 41.6209 45.818 41.086 45.3214C40.9884 45.2308 40.8925 45.1384 40.7985 45.0443C38.2894 42.5196 37.2161 38.7002 37.3711 35.2572C37.3711 35.2572 37.5576 34.4818 38.197 34.4923H38.1901Z" fill="#FB731D"/>
<path fill-rule="evenodd" clip-rule="evenodd" d="M46.646 28.906C48.81 28.9513 50.9794 29.6518 52.6329 31.0161C53.1295 31.4255 52.9901 32.3804 52.2548 32.4483C52.0061 32.4532 51.7654 32.3607 51.584 32.1905C51.417 32.0514 51.2425 31.9217 51.0612 31.8019C48.4807 30.0595 44.813 30.1884 42.0774 31.2949C42.0331 31.3154 41.987 31.3317 41.9397 31.3436C41.2062 31.5353 40.4552 30.2494 41.5181 29.8243C43.1505 29.1845 44.893 28.8725 46.646 28.906Z" fill="#FB731D"/>
<path fill-rule="evenodd" clip-rule="evenodd" d="M30.4869 28.6831C31.3424 28.7005 32.2293 28.7336 33.0116 29.0595C33.5343 29.2773 33.6563 30.1537 33.0953 30.4708C32.6579 30.7165 32.0777 30.422 31.4853 30.3366C28.6451 29.9342 25.582 31.0719 23.6444 33.1785C23.5507 33.2641 23.4407 33.33 23.3209 33.3722C23.2012 33.4144 23.0742 33.4321 22.9475 33.4242C22.362 33.3371 22.0658 32.553 22.5711 32.0303C24.5975 29.9394 27.4969 28.643 30.4834 28.6883L30.4869 28.6831Z" fill="#FB731D"/>
<path fill-rule="evenodd" clip-rule="evenodd" d="M42.6994 21.1018C43.3215 21.1454 43.6996 21.9817 43.1943 22.4678C41.7272 23.806 40.4726 25.4543 40.0998 27.3762C39.9482 28.1864 38.2267 28.4217 38.5995 26.8674C39.1066 24.7539 40.4604 22.8477 42.0635 21.3719C42.1465 21.2873 42.2455 21.2199 42.3546 21.1736C42.4637 21.1272 42.5809 21.1028 42.6994 21.1018Z" fill="#FB731D"/>
<path fill-rule="evenodd" clip-rule="evenodd" d="M33.4682 31.6191C33.395 32.7081 34.0101 34.0131 35.0189 34.3843C36.7108 35.0063 37.7475 34.21 38.3295 33.9156C40.4204 32.8893 40.5946 29.9185 38.7198 28.7842C37.6918 28.1604 35.6253 28.7842 34.6774 29.4811C34.4247 29.6693 33.5326 30.6137 33.4577 31.6121L33.4682 31.6191Z" fill="#242424"/>
<path fill-rule="evenodd" clip-rule="evenodd" d="M25.9584 18.6798C25.9584 18.6798 25.69 18.7164 25.8869 18.103C26.0838 17.4897 27.6659 15.7525 28.6643 16.2056C29.4258 16.554 28.3158 17.7946 27.5457 18.3383C26.9237 18.7809 25.9584 18.6868 25.9584 18.6868V18.6798Z" fill="#A7C69B"/>
<path fill-rule="evenodd" clip-rule="evenodd" d="M88.4324 23.7417C85.9196 21.2621 83.131 19.0785 80.1211 17.2338C73.7875 13.39 66.3944 11.3688 58.991 11.2242C54.0599 11.1458 49.0035 11.848 44.1805 13.1408C39.5317 14.3936 34.9945 16.1029 30.8179 18.4935C30.1976 17.7745 29.5344 17.0444 28.8281 16.3033C28.8281 16.3033 28.1033 18.551 25.8381 18.6207C25.8381 18.6207 33.8985 27.9635 35.059 33.0322C36.4981 33.0327 37.884 32.4879 38.9376 31.5076C38.9376 31.5076 37.2074 26.3134 31.839 19.7254L31.8982 19.6906C40.0876 15.1603 49.6708 12.6042 59.1007 12.8011C69.2311 13.0119 78.8178 17.0403 86.0976 23.6998C86.6465 24.2017 87.1274 24.7801 87.7267 25.1757L88.0282 25.2332L88.3279 25.1704L88.5823 24.9962L88.7565 24.7401L88.814 24.4386C88.7571 24.1742 88.6245 23.932 88.4324 23.7417Z" fill="#70995F"/>
<path d="M79.2778 60.2781C79.5078 59.555 78.776 58.6489 78.0094 58.9974C76.9343 59.4853 77.8961 61.6372 79.2778 60.2781Z" fill="#FFBA92"/>
<path d="M70.5396 60.5098C70.7487 59.8128 70.6738 58.6437 69.7451 58.8789C68.4226 59.2152 69.2624 60.9994 70.5396 60.5098Z" fill="#FFBA92"/>
<path d="M55.3842 78.542C55.5811 79.5526 56.921 79.3156 56.8739 78.1778C56.8216 76.9215 55.1542 77.3676 55.3842 78.542Z" fill="#FFBA92"/>
<path d="M41.4362 81.7673C42.8301 81.593 43.426 79.3174 41.8892 78.7703C39.4429 77.8974 40.1154 80.8386 41.4362 81.7673Z" fill="#FFBA92"/>
<path d="M61.906 76.7737C61.7318 77.9167 63.2999 78.9691 63.0421 77.847C65.0023 78.1066 62.7772 74.5172 61.906 76.7737Z" fill="#FFBA92"/>
<path d="M29.2341 68.0213C31.717 66.4532 27.4917 63.214 26.8348 66.3538C26.6152 67.3888 28.4221 69.1278 29.2341 68.0213Z" fill="#FFBA92"/>
<path d="M32.4854 53.7617C32.7869 54.1973 33.8898 54.7688 34.1878 53.9359C34.5502 52.9114 32.6004 52.2719 32.4854 53.7617Z" fill="#FFBA92"/>
<path d="M52.8542 91.9516C51.286 92.6485 53.5407 94.1087 54.2882 93.0197C54.8318 92.2269 53.4361 90.7458 52.8542 91.9516Z" fill="#FFBA92"/>
<path d="M46.1145 78.9306C44.1561 79.3349 45.083 82.5897 46.9526 82.2708C49.0749 81.8997 48.0225 78.5438 46.1145 78.9306Z" fill="#FFBA92"/>
<path d="M39.1728 65.223C40.1991 66.6553 42.1993 66.5368 41.5146 64.4093C40.9657 62.7087 38.3295 63.2889 39.1728 65.223Z" fill="#FFBA92"/>
<path d="M31.2483 80.4499C31.5585 81.0528 33.0413 81.6696 32.9733 80.3663C32.9245 79.4481 31.0079 79.2128 31.2483 80.4499Z" fill="#FFBA92"/>
<path d="M46.4526 76.9827C45.9769 79.8489 50.1604 78.9638 49.4792 76.7439C49.0122 75.2246 46.815 75.3152 46.4526 76.9827Z" fill="#FFBA92"/>
<path d="M72.3985 45.096C73.5228 42.6526 72.4535 39.7604 70.0102 38.6361C67.5668 37.5117 64.6746 38.581 63.5503 41.0244C62.4259 43.4678 63.4952 46.3599 65.9386 47.4843C68.3819 48.6086 71.2741 47.5394 72.3985 45.096Z" fill="#242424"/>
<path d="M50.3542 59.8402C52.6329 58.4114 53.3218 55.4058 51.8929 53.1271C50.464 50.8484 47.4584 50.1595 45.1797 51.5883C42.901 53.0172 42.2121 56.0228 43.641 58.3015C45.0699 60.5802 48.0754 61.2691 50.3542 59.8402Z" fill="#242424"/>
<path fill-rule="evenodd" clip-rule="evenodd" d="M56.3895 61.3968C57.5604 62.8552 57.205 65.5228 55.3092 67.0439C53.4135 68.565 50.6988 68.3664 49.5279 66.9097C48.357 65.4531 48.9442 63.0364 50.84 61.5083C52.7357 59.9802 55.2186 59.9401 56.3895 61.3968Z" fill="#DD6057"/>
<path fill-rule="evenodd" clip-rule="evenodd" d="M77.4988 49.2174C78.4589 50.8205 77.3246 52.8765 75.2337 54.1293C73.1428 55.3821 70.6807 55.0911 69.7207 53.4881C68.7606 51.8851 69.6702 49.5729 71.7541 48.3236C73.838 47.0743 76.5422 47.6074 77.4988 49.2174Z" fill="#DD6057"/>
<path d="M66.3327 44.0807C67.1419 44.07 67.7892 43.4053 67.7785 42.596C67.7678 41.7868 67.1031 41.1395 66.2938 41.1502C65.4846 41.161 64.8373 41.8257 64.8481 42.6349C64.8588 43.4441 65.5235 44.0915 66.3327 44.0807Z" fill="white"/>
<path d="M46.8922 57.0421C47.5222 56.5341 47.6211 55.6116 47.1131 54.9816C46.6051 54.3516 45.6826 54.2526 45.0526 54.7606C44.4226 55.2686 44.3237 56.1911 44.8317 56.8212C45.3397 57.4512 46.2622 57.5501 46.8922 57.0421Z" fill="white"/>
<path d="M58.7522 56.4501C61.6899 56.8735 64.5423 55.0143 65.4117 52.1934C65.7376 51.1479 64.1102 50.6025 63.7843 51.6602C63.4736 52.6822 62.8034 53.5572 61.8976 54.1235C60.9918 54.6897 59.9117 54.909 58.8568 54.7408C58.3985 54.6746 57.9856 55.1084 57.9507 55.544C57.941 55.7694 58.0191 55.9898 58.1686 56.1588C58.3181 56.3278 58.5273 56.4322 58.7522 56.4501Z" fill="#242424"/>
<path d="M94.8661 42.5292C93.649 41.8779 92.8193 41.0188 92.1489 39.7782C91.594 38.7562 91.287 38.0634 90.9229 36.2041C90.9153 36.1625 90.8964 36.1235 90.8678 36.0907C90.8393 36.0579 90.8022 36.0326 90.7601 36.0171C90.7179 36.0016 90.6723 35.9965 90.6274 36.0023C90.5826 36.0081 90.5401 36.0246 90.5041 36.0501C90.4397 36.1042 90.3988 36.1784 90.3893 36.2586C90.3162 36.6395 89.9558 38.9422 88.6063 40.424C87.9856 41.1053 87.0543 41.7519 86.1456 42.1831C86.0935 42.2077 86.0516 42.2477 86.0265 42.2969C85.9993 42.3485 85.9928 42.4075 86.0082 42.4631C86.0297 42.5263 86.0685 42.5831 86.1208 42.628C86.4234 42.9169 88.2137 44.336 89.08 46.0869C89.7781 47.4958 90.0589 48.6016 90.1597 48.8168C90.1773 48.8624 90.2071 48.903 90.2462 48.9349C90.2854 48.9667 90.3326 48.9887 90.3834 48.9987C90.4521 49.0048 90.5209 48.9886 90.5781 48.9529C90.6354 48.9171 90.6777 48.864 90.6978 48.8025C90.7921 48.5661 91.1364 47.3207 91.5516 46.5618C92.5129 44.7904 93.1095 44.4641 94.9144 42.923C94.9449 42.8968 94.9684 42.8643 94.983 42.8281C94.9976 42.7919 95.0029 42.753 94.9985 42.7145C94.9938 42.6761 94.9793 42.6392 94.9563 42.607C94.9333 42.5748 94.9024 42.5481 94.8661 42.5292Z" fill="#FFD79B"/>
<path d="M70.621 77.1623C69.3101 76.5485 67.97 75.672 67.1018 74.7815C65.2461 72.8839 64.8485 70.0917 64.7703 69.6296C64.757 69.5247 64.7228 69.424 64.67 69.3342C64.6172 69.2443 64.5471 69.1674 64.4641 69.1085C64.3851 69.0536 64.2954 69.0184 64.2018 69.0055C64.1081 68.9926 64.0129 69.0024 63.9233 69.034C63.8208 69.0639 63.7276 69.1221 63.6531 69.2025C63.5786 69.2829 63.5255 69.3827 63.4992 69.4919C62.8696 71.7013 62.3871 72.5061 61.5255 73.6902C60.481 75.1214 59.2311 76.0779 57.4311 76.7451C57.321 76.7864 57.2236 76.8584 57.149 76.9537C57.0745 77.0489 57.0256 77.1637 57.0077 77.286C56.9897 77.4083 57.0034 77.5334 57.0471 77.6481C57.0909 77.7628 57.1631 77.8629 57.2562 77.9376C59.8263 79.9967 60.6931 80.4447 62.0093 82.7047C62.574 83.6753 63.0114 85.2329 63.1373 85.5349C63.1802 85.6615 63.2565 85.7724 63.3571 85.8544C63.4577 85.9364 63.5785 85.9861 63.705 85.9975C63.8315 86.0089 63.9584 85.9815 64.0707 85.9187C64.1829 85.8559 64.2758 85.7602 64.3382 85.643C64.5012 85.3846 64.9824 84.0362 66.1064 82.3521C67.4756 80.2973 70.1875 78.7466 70.6475 78.4194C70.7847 78.3354 70.8912 78.2049 70.9499 78.049C71.0085 77.893 71.0159 77.7207 70.9709 77.5598C70.943 77.4707 70.8973 77.3891 70.8369 77.3205C70.7765 77.2519 70.7028 77.1979 70.621 77.1623Z" fill="#FFD79B"/>
<path d="M27.621 53.1219C26.3089 52.4359 24.9703 51.4563 24.1022 50.461C22.2467 48.3416 21.8491 45.2191 21.7696 44.7026C21.7572 44.5852 21.7234 44.4725 21.6705 44.3722C21.6176 44.2719 21.547 44.1864 21.4634 44.1217C21.3848 44.0601 21.2953 44.0206 21.2018 44.0061C21.1083 43.9917 21.0133 44.0028 20.924 44.0385C20.8213 44.0714 20.7279 44.136 20.6531 44.2256C20.5784 44.3152 20.5251 44.4267 20.4985 44.5487C19.869 47.0182 19.3866 47.9177 18.5251 49.2412C17.4807 50.8409 16.2322 51.91 14.4311 52.6557C14.321 52.7018 14.2235 52.7824 14.149 52.8888C14.0744 52.9952 14.0256 53.1236 14.0077 53.2603C13.9897 53.3969 14.0034 53.5368 14.0471 53.665C14.0909 53.7932 14.1631 53.905 14.2561 53.9885C16.8273 56.29 17.6928 56.7908 19.0102 59.3184C19.5748 60.4016 20.0121 62.1442 20.1381 62.4801C20.1809 62.6217 20.2572 62.7456 20.3578 62.8373C20.4585 62.929 20.5792 62.9844 20.7057 62.9972C20.8322 63.0099 20.9591 62.9794 21.0713 62.9091C21.1836 62.8389 21.2764 62.732 21.3388 62.601C21.5018 62.3122 21.9829 60.8051 23.1068 58.9228C24.4759 56.626 27.1863 54.8928 27.6475 54.527C27.7847 54.4332 27.8912 54.2874 27.9499 54.1131C28.0085 53.9388 28.0159 53.7461 27.9709 53.5662C27.9424 53.4671 27.8965 53.3762 27.8361 53.2997C27.7758 53.2231 27.7025 53.1625 27.621 53.1219Z" fill="#FFD79B"/>
</svg>
