<svg width="100" height="100" viewBox="0 0 100 100" fill="none" xmlns="http://www.w3.org/2000/svg">
<path fill-rule="evenodd" clip-rule="evenodd" d="M61.3911 68.1464C64.5279 65.5625 65.458 61.638 64.8577 58.0599C64.0558 53.2836 62.9596 51.1956 60.8241 47.4466C55.0916 37.3269 52.1257 34.7691 48.5761 35.0159C47.6768 35.0776 45.9921 35.3315 45.1759 35.7111C41.3677 37.4883 38.0458 48.5001 37.4598 49.8241C35.3931 54.4747 34.8735 61.4173 36.0931 64.4876C39.5573 73.2122 48.5832 73.4044 56.3942 71.0316C58.4917 70.3958 59.9059 69.3708 61.3888 68.1464H61.3911Z" fill="#FDE1CC"/>
<path d="M71.9425 49.8689C74.0197 46.8522 73.258 42.7228 70.2414 40.6457C67.2247 38.5685 63.0953 39.3301 61.0182 42.3468C58.941 45.3634 59.7026 49.4928 62.7192 51.57C65.7359 53.6472 69.8653 52.8856 71.9425 49.8689Z" fill="#242424"/>
<path d="M36.8275 57.3762C40.2318 56.025 41.896 52.1699 40.5448 48.7656C39.1935 45.3613 35.3384 43.6971 31.9341 45.0484C28.5299 46.3996 26.8656 50.2547 28.2169 53.659C29.5682 57.0633 33.4233 58.7275 36.8275 57.3762Z" fill="#242424"/>
<path d="M65.432 46.4234C66.0271 45.4976 65.7591 44.2647 64.8333 43.6696C63.9076 43.0745 62.6747 43.3425 62.0796 44.2683C61.4845 45.194 61.7525 46.4269 62.6782 47.022C63.604 47.6171 64.8369 47.3491 65.432 46.4234Z" fill="white"/>
<path d="M32.0594 52.4341C33.1615 52.4341 34.0549 51.5407 34.0549 50.4386C34.0549 49.3366 33.1615 48.4432 32.0594 48.4432C30.9574 48.4432 30.064 49.3366 30.064 50.4386C30.064 51.5407 30.9574 52.4341 32.0594 52.4341Z" fill="white"/>
<path d="M59.391 54.4296C59.3293 53.8032 58.8999 53.2622 58.226 53.2622C57.6447 53.2622 56.997 53.7985 57.0586 54.4296C57.1132 54.9753 57.1037 55.4736 56.8214 55.8319C56.453 56.2445 55.9654 56.5322 55.4262 56.6552C54.2398 56.9779 52.7877 56.6552 52.2515 55.4428C51.8244 54.4794 50.377 54.8353 50.116 55.7204C49.8028 56.7857 49.1005 57.7775 47.9806 58.0693C46.8606 58.3612 45.9471 57.8321 45.5153 56.8213C45.2661 56.2423 44.4143 56.1095 43.9184 56.4037C43.3205 56.7525 43.2517 57.4169 43.5008 57.9982C44.3218 59.9083 46.4454 60.7672 48.4195 60.3709C49.6964 60.0736 50.8046 59.2851 51.504 58.1762C52.7711 59.0849 54.5601 59.315 56.036 58.914C58.1572 58.3375 59.614 56.6481 59.391 54.4296Z" fill="#242424"/>
<path d="M44.6587 50.1444C43.4723 50.7566 42.2219 52.5385 43.6645 53.7581C46.4264 56.1 48.1917 50.0092 44.6587 50.1444Z" fill="#DBBCA7"/>
<path d="M54.878 63.8446C53.414 62.0223 49.8098 63.65 51.447 65.5767C52.6998 67.0502 54.9088 65.8495 54.878 63.8446Z" fill="#DBBCA7"/>
<path d="M50.0447 42.8744C49.7624 40.1244 46.4002 41.5812 46.4856 43.1449C46.6209 45.7976 50.3271 45.5461 50.0447 42.8744Z" fill="#DBBCA7"/>
<path d="M70.8067 17.5472C69.0485 16.4951 67.85 15.1073 66.8817 13.1032C66.0803 11.4524 65.6368 10.3331 65.1109 7.32971C65.0999 7.26252 65.0725 7.19943 65.0313 7.14651C64.9901 7.09359 64.9365 7.05265 64.8756 7.02764C64.8148 7.00263 64.7488 6.99439 64.684 7.00374C64.6193 7.01309 64.5579 7.0397 64.5059 7.08099C64.4128 7.16824 64.3538 7.28811 64.3401 7.41776C64.2345 8.03297 63.7139 11.7528 61.7646 14.1465C60.8682 15.2471 59.5229 16.2915 58.2104 16.9881C58.135 17.0278 58.0745 17.0925 58.0382 17.1719C57.9989 17.2552 57.9896 17.3505 58.0118 17.4404C58.0429 17.5424 58.099 17.6342 58.1745 17.7068C58.6116 18.1734 61.1976 20.4658 62.4489 23.2942C63.4573 25.5702 63.8628 27.3564 64.0085 27.7041C64.0339 27.7777 64.0769 27.8434 64.1334 27.8948C64.19 27.9462 64.2582 27.9818 64.3316 27.998C64.4308 28.0078 64.5301 27.9816 64.6129 27.9239C64.6956 27.8661 64.7567 27.7803 64.7857 27.681C64.9219 27.2991 65.4193 25.2873 66.019 24.0613C67.4076 21.1999 68.2692 20.6727 70.8763 18.1833C70.9204 18.141 70.9544 18.0885 70.9755 18.03C70.9966 17.9715 71.0042 17.9087 70.9978 17.8465C70.991 17.7844 70.9701 17.7249 70.9369 17.6728C70.9037 17.6208 70.859 17.5777 70.8067 17.5472Z" fill="#FFD79B"/>
<path d="M27.648 37.202C26.4308 36.6604 25.1864 35.8871 24.3803 35.1013C22.6571 33.427 22.2879 30.9632 22.2153 30.5555C22.2029 30.463 22.1712 30.3741 22.1222 30.2948C22.0732 30.2156 22.008 30.1477 21.931 30.0957C21.8576 30.0473 21.7743 30.0163 21.6874 30.0049C21.6004 29.9935 21.512 30.0021 21.4288 30.03C21.3336 30.0564 21.247 30.1077 21.1779 30.1787C21.1087 30.2496 21.0594 30.3377 21.0349 30.434C20.4503 32.3835 20.0023 33.0936 19.2023 34.1384C18.2324 35.4013 17.0718 36.2452 15.4003 36.8339C15.2981 36.8703 15.2076 36.9339 15.1384 37.0179C15.0691 37.102 15.0238 37.2033 15.0071 37.3112C14.9905 37.4191 15.0031 37.5295 15.0438 37.6307C15.0844 37.7319 15.1515 37.8202 15.2379 37.8861C17.6244 39.703 18.4293 40.0983 19.6515 42.0924C20.1758 42.9488 20.582 44.3232 20.6989 44.5896C20.7387 44.7013 20.8096 44.7992 20.903 44.8716C20.9965 44.9439 21.1086 44.9877 21.2261 44.9978C21.3435 45.0078 21.4614 44.9837 21.5656 44.9283C21.6698 44.8728 21.7561 44.7884 21.814 44.685C21.9654 44.457 22.4122 43.2673 23.4559 41.7813C24.7273 39.9682 27.2456 38.6 27.6726 38.3112C27.8 38.2371 27.899 38.122 27.9534 37.9844C28.0079 37.8468 28.0148 37.6947 27.973 37.5527C27.9471 37.4742 27.9046 37.4021 27.8485 37.3416C27.7925 37.2811 27.7241 37.2335 27.648 37.202Z" fill="#FFD79B"/>
<path d="M38.6481 82.2015C37.4297 81.6599 36.1867 80.8865 35.3806 80.1008C33.6576 78.4276 33.2884 75.9624 33.2146 75.5546C33.2031 75.462 33.1717 75.373 33.1226 75.2938C33.0735 75.2146 33.0079 75.1472 32.9303 75.0961C32.8573 75.0474 32.7742 75.0162 32.6874 75.0048C32.6006 74.9935 32.5124 75.0022 32.4294 75.0304C32.3341 75.0564 32.2473 75.1074 32.1779 75.1781C32.1085 75.2489 32.059 75.3369 32.0344 75.4332C31.4498 77.3828 31.0018 78.0929 30.2019 79.1378C29.2321 80.4007 28.0728 81.2447 26.4003 81.8334C26.2981 81.8699 26.2076 81.9334 26.1383 82.0175C26.0691 82.1015 26.0238 82.2028 26.0071 82.3107C25.9905 82.4186 26.0031 82.529 26.0437 82.6302C26.0844 82.7315 26.1514 82.8197 26.2378 82.8857C28.6254 84.7026 29.429 85.098 30.6523 87.0934C31.1766 87.9486 31.5827 89.3244 31.6996 89.5896C31.7394 89.7013 31.8103 89.7992 31.9037 89.8715C31.9971 89.9439 32.1093 89.9877 32.2267 89.9978C32.3441 90.0078 32.462 89.9837 32.5662 89.9283C32.6704 89.8728 32.7567 89.7884 32.8146 89.685C32.966 89.457 33.4127 88.2672 34.4564 86.7811C35.7276 84.9679 38.2444 83.5996 38.6727 83.3108C38.8001 83.2367 38.899 83.1216 38.9534 82.984C39.0079 82.8464 39.0148 82.6943 38.973 82.5523C38.9465 82.474 38.9039 82.4023 38.8479 82.3418C38.7918 82.2814 38.7238 82.2336 38.6481 82.2015Z" fill="#FFD79B"/>
</svg>
