<svg width="100" height="100" viewBox="0 0 100 100" fill="none" xmlns="http://www.w3.org/2000/svg">
<path fill-rule="evenodd" clip-rule="evenodd" d="M24.0102 61.187C15.169 49.0114 31.8318 44.4667 33.2446 44.227C34.9635 43.9366 37.1042 43.5672 38.1239 43.4033C39.7107 43.1481 41.6743 42.7716 43.4812 42.2819C47.2364 41.2653 54.2308 36.6998 59.9506 34.0711C67.4394 30.6291 77.7334 30.1654 84.2312 36.1749C89.1453 40.7176 91.0976 47.3484 90.9963 49.9886C90.5417 61.8841 84.2507 65.5491 80.5927 67.7971C75.7729 70.7661 70.0224 71.2702 64.4777 71.4123C59.6926 71.5347 56.1094 71.32 51.8495 71.1395C49.629 71.0451 47.564 70.8574 45.3722 70.4196C42.9151 69.9279 40.844 69.6001 38.8774 69.0855C37.9294 68.8376 33.1873 67.7795 29.4055 66.2535C24.7402 64.3717 24.0102 61.187 24.0102 61.187Z" fill="#5A77B0"/>
<path fill-rule="evenodd" clip-rule="evenodd" d="M17.4174 45.608C19.9722 43.0686 23.499 41.7684 27.0971 41.5674C29.0792 41.4555 31.4094 41.9 33.3671 41.2421C34.1537 40.9769 34.9042 40.3656 35.4407 39.7678C35.6398 39.5461 35.9208 38.6893 36.4052 38.7131C36.8214 38.7349 36.6255 39.7637 36.6181 39.8341C36.5532 41.0048 36.3488 41.8648 35.6451 42.8386C34.29 44.7242 32.1993 44.9864 30.3374 46.1623C28.8333 47.1123 27.4483 48.5327 25.512 48.5514C27.5814 48.3514 28.7907 50.3002 30.2097 51.3601C31.0059 51.9537 31.8916 52.4251 32.755 52.9235C33.3287 53.254 35.3928 54.1667 36.138 54.9531C36.3781 55.2194 36.5797 55.5164 36.7373 55.8358C36.7948 55.9456 36.8193 56.4273 36.6649 56.5154C36.4403 56.6439 36.0592 56.1942 35.9773 56.1424C35.4865 55.8316 35.0586 55.6172 34.4518 55.6327C32.443 55.6814 30.6632 56.7019 28.7034 56.9702C26.6216 57.2462 24.5043 56.8521 22.674 55.8482C22.1843 55.9798 22.9816 56.4698 23.0104 56.4895C24.5167 57.6633 24.5827 57.6292 25.4779 59.2868C26.3519 60.9072 26.7873 62.8902 28.1094 64.2743C28.5293 64.7003 28.9855 65.0909 29.473 65.4419C31.1997 66.7225 34.2538 67.7606 33.7311 70.4253L33.6683 70.2657C31.7873 67.8694 28.5096 67.5513 25.8143 66.5671C24.8309 66.2066 23.8763 65.7758 22.9582 65.2782C18.9247 63.0943 15.993 59.9167 14.8678 55.5612C14.639 54.6775 14.2291 53.0498 14.2802 52.1102C14.409 49.6506 16.2091 47.5972 17.4227 45.6049L17.4174 45.608Z" fill="#70975F"/>
<path fill-rule="evenodd" clip-rule="evenodd" d="M6.11449 38.7126C6.23802 39.205 8.84847 41.5217 9.60488 42.1332C11.1238 43.3522 13.0163 44.4344 14.8765 45.0356C15.9043 45.3652 17.008 45.4678 17.9922 45.9187C18.2302 46.0275 18.3811 47.1553 18.3669 47.3294C18.2292 49.0262 17.572 50.2058 16.2972 51.2683C16.2243 51.3284 15.1549 52.0405 14.9666 51.9939L14.8491 52.0115C10.017 50.8485 5.59398 46.9459 3.023 42.6961L6.11449 38.7147V38.7126Z" fill="#A5C499"/>
<path fill-rule="evenodd" clip-rule="evenodd" d="M6.01515 39.0731C6.49349 40.1833 4.61419 41.9195 3.78207 42.4701C3.51175 42.6487 2.61852 42.9662 2.24712 42.7062C1.63244 42.2737 2.18957 40.5236 3.63872 39.4323C4.69649 38.6386 5.75426 38.4769 6.014 39.0702L6.01515 39.0731Z" fill="#70975F"/>
<path fill-rule="evenodd" clip-rule="evenodd" d="M60.8971 37.6932C60.5648 37.7337 60.3111 38.1141 59.894 38.3987C57.7663 39.8481 55.3241 40.8147 52.9113 41.7483C50.5236 42.6702 48.1024 43.5835 45.6183 43.9139C45.2337 43.965 44.8406 44.0119 44.4654 43.9395C44.4654 43.9395 44.0555 43.9395 43.9622 44.2261C43.8763 44.4904 44.0807 44.759 44.3983 44.8102C45.2515 44.9391 46.1351 44.7356 47.0092 44.5395C50.5876 43.737 54.0737 42.3558 57.3554 40.7827C58.456 40.2552 59.5565 39.7053 60.5428 38.9976C60.7785 38.8333 61.0008 38.6497 61.2073 38.4488C61.2073 38.4488 61.4285 38.145 61.2849 37.9031C61.244 37.8357 61.1863 37.7804 61.1177 37.7429C61.049 37.7055 60.9718 37.6872 60.8939 37.69L60.8971 37.6932Z" fill="#8EA4DB"/>
<path d="M30.6437 60.5644C31.2257 59.8953 33.2186 60.2098 32.5565 60.9224C32.0573 61.4677 30.8172 61.2084 30.6437 60.5644Z" fill="#8EA4DB"/>
<path d="M54.9005 67.3516C54.0798 67.035 52.2906 65.7636 53.6342 64.5141C54.2239 63.9662 55.7405 64.5071 56.075 65.1214C56.5235 65.9432 55.8614 67.4518 54.9005 67.3516Z" fill="#8EA4DB"/>
<path d="M68.9528 64.9637C67.888 63.484 68.7495 61.2688 70.7939 62.708C72.5943 63.9712 70.9265 66.1615 68.9528 64.9637Z" fill="#8EA4DB"/>
<path d="M52.0605 65.687C51.4963 66.6851 49.7586 66.5515 50.1327 65.1164C50.4234 64.0052 52.5216 63.8407 52.0605 65.687Z" fill="#8EA4DB"/>
<path d="M84.5298 60.3088C85.5113 60.7933 84.085 62.7365 83.2648 62.1229C82.1003 61.2519 83.4471 59.7754 84.5298 60.3088Z" fill="#8EA4DB"/>
<path d="M63.098 64.3698C65.394 63.7588 64.2451 66.7281 62.8069 67.2174C61.4762 67.6699 60.9867 66.9723 61.5864 65.7699C61.4174 66.1089 62.1053 65.1859 61.9675 65.3133C62.3459 64.9669 62.6379 64.6753 63.098 64.3698Z" fill="#8EA4DB"/>
<path d="M75.0719 64.2874C76.3045 64.4054 75.2882 65.7787 74.716 65.1433C74.4744 64.8774 74.8057 64.4533 75.0719 64.2874Z" fill="#8EA4DB"/>
<path d="M85.1278 51.9102C84.0374 52.8136 82.9138 47.3688 85.0488 47.9655C86.1827 48.2815 86.1186 51.6425 85.1278 51.9102Z" fill="#8EA4DB"/>
<path d="M84.0113 42.7635C83.6066 42.3885 83.9558 41.4983 84.6354 41.8712C85.2053 42.1837 84.5892 42.996 84.0113 42.7635Z" fill="#8EA4DB"/>
<path d="M41.1257 55.8452C39.1373 54.7884 38.3821 52.3198 39.4389 50.3314C40.4957 48.343 42.9643 47.5878 44.9527 48.6446C46.9411 49.7014 47.6962 52.17 46.6395 54.1584C45.5827 56.1468 43.1141 56.9019 41.1257 55.8452Z" fill="#242424"/>
<path d="M73.8185 49.5447C72.9403 47.473 73.9078 45.0818 75.9794 44.2036C78.051 43.3254 80.4423 44.2928 81.3205 46.3645C82.1987 48.4361 81.2312 50.8274 79.1596 51.7056C77.088 52.5838 74.6967 51.6163 73.8185 49.5447Z" fill="#242424"/>
<path d="M73.7889 57.7008C73.5122 56.1799 75.6976 54.5087 78.6701 53.968C81.6426 53.4273 84.2765 54.2218 84.5532 55.7426C84.8298 57.2634 82.6444 58.9347 79.672 59.4754C76.6995 60.0161 74.0655 59.2216 73.7889 57.7008Z" fill="#F7877E"/>
<path d="M38.8117 61.332C38.6636 59.7933 40.9814 58.3113 43.9887 58.0217C46.9961 57.7321 49.5541 58.7447 49.7023 60.2834C49.8504 61.822 47.5326 63.3041 44.5253 63.5937C41.5179 63.8832 38.9599 62.8707 38.8117 61.332Z" fill="#F7877E"/>
<path fill-rule="evenodd" clip-rule="evenodd" d="M42.9363 51.1721C42.9726 51.3712 43.0671 51.555 43.2079 51.7003C43.3486 51.8457 43.5293 51.946 43.7271 51.9886C43.9249 52.0312 44.1309 52.0142 44.319 51.9398C44.5071 51.8653 44.669 51.7368 44.784 51.5703C44.8991 51.4039 44.9622 51.2071 44.9654 51.0048C44.9686 50.8025 44.9117 50.6037 44.802 50.4337C44.6923 50.2638 44.5346 50.1301 44.3489 50.0498C44.1633 49.9694 43.958 49.9459 43.7589 49.9822C43.6267 50.0062 43.5005 50.0561 43.3876 50.1289C43.2747 50.2017 43.1773 50.2961 43.1009 50.4066C43.0245 50.5171 42.9706 50.6416 42.9424 50.773C42.9141 50.9043 42.9121 51.04 42.9363 51.1721Z" fill="white"/>
<path fill-rule="evenodd" clip-rule="evenodd" d="M76.6946 48.1022C76.7307 48.3013 76.8252 48.4853 76.9659 48.6307C77.1066 48.7762 77.2873 48.8766 77.4851 48.9194C77.6829 48.9621 77.8889 48.9452 78.0771 48.8709C78.2653 48.7965 78.4272 48.6679 78.5424 48.5015C78.6575 48.3351 78.7207 48.1383 78.724 47.9359C78.7272 47.7336 78.6704 47.5348 78.5606 47.3647C78.4509 47.1947 78.2932 47.061 78.1075 46.9806C77.9217 46.9002 77.7164 46.8768 77.5173 46.9131C77.2506 46.9619 77.0141 47.1145 76.8599 47.3374C76.7056 47.5604 76.6462 47.8354 76.6946 48.1022Z" fill="white"/>
<path d="M53.4419 54.0101C53.5112 53.9529 53.5918 53.9103 53.6787 53.8849C53.7655 53.8595 53.8568 53.8519 53.9468 53.8626C54.0367 53.8732 54.1235 53.9019 54.2017 53.9468C54.2799 53.9917 54.3478 54.052 54.4012 54.1237C54.5613 54.3248 54.7152 54.5078 54.8711 54.6747C54.9737 54.7853 55.0825 54.8929 55.1943 54.9974L55.3205 55.113C55.3267 55.1181 55.3318 55.1241 55.3369 55.1291H55.3421C55.4016 55.1794 55.4611 55.2297 55.5216 55.2779C56.1606 55.804 56.9005 56.1995 57.6978 56.4412C59.8524 57.1129 62.6452 56.7217 64.9824 55.4227C66.3163 54.6887 67.4285 53.6221 68.2061 52.331C68.2527 52.254 68.3151 52.1874 68.3895 52.1354C68.4639 52.0835 68.5486 52.0473 68.6381 52.0294C68.7765 51.9982 68.9214 52.0079 69.0542 52.0574C69.187 52.1068 69.3018 52.1938 69.3842 52.3072C69.4666 52.4207 69.5128 52.5555 69.5169 52.6947C69.5211 52.8339 69.483 52.9711 69.4076 53.0891C67.9322 55.5685 65.1497 57.3924 61.9619 57.9675H61.9567C59.2809 58.4491 56.7897 57.9675 54.9419 56.6071C54.3237 56.1492 53.7715 55.6114 53.3003 55.0085C53.2415 54.9343 53.1985 54.8493 53.1737 54.7585C53.149 54.6678 53.1431 54.5731 53.1563 54.48C53.1695 54.387 53.2015 54.2975 53.2506 54.2168C53.2997 54.1361 53.3647 54.0658 53.4419 54.0101Z" fill="#242424"/>
<path d="M97.8215 32.5427C96.1986 31.5908 95.0923 30.3352 94.1985 28.5219C93.4587 27.0283 93.0493 26.0157 92.5639 23.2983C92.5538 23.2375 92.5285 23.1804 92.4904 23.1326C92.4524 23.0847 92.4029 23.0476 92.3468 23.025C92.2906 23.0024 92.2297 22.9949 92.1699 23.0034C92.1101 23.0118 92.0534 23.0359 92.0054 23.0733C91.9195 23.1522 91.8651 23.2607 91.8524 23.378C91.7549 23.9346 91.2744 27.3002 89.4751 29.4659C88.6475 30.4616 87.4057 31.4066 86.1942 32.0369C86.1247 32.0728 86.0688 32.1313 86.0353 32.2032C85.999 32.2786 85.9904 32.3647 86.0109 32.4461C86.0396 32.5384 86.0914 32.6214 86.161 32.6871C86.5646 33.1093 88.9516 35.1834 90.1067 37.7424C91.0375 39.8016 91.4118 41.4177 91.5463 41.7323C91.5697 41.7989 91.6094 41.8583 91.6616 41.9048C91.7138 41.9514 91.7768 41.9835 91.8446 41.9982C91.9361 42.0071 92.0278 41.9834 92.1042 41.9311C92.1806 41.8788 92.2369 41.8012 92.2637 41.7114C92.3895 41.3659 92.8485 39.5457 93.4022 38.4364C94.6839 35.8475 95.4793 35.3706 97.8859 33.1182C97.9266 33.0799 97.9579 33.0324 97.9774 32.9795C97.9969 32.9266 98.0039 32.8697 97.998 32.8135C97.9917 32.7573 97.9724 32.7035 97.9418 32.6564C97.9111 32.6093 97.8699 32.5703 97.8215 32.5427Z" fill="#FFD79B"/>
<path d="M60.7022 20.2417C59.6722 19.7724 58.6193 19.1021 57.9371 18.4212C56.4791 16.9701 56.1667 14.8348 56.1052 14.4814C56.0948 14.4012 56.0679 14.3242 56.0265 14.2555C55.985 14.1868 55.9298 14.128 55.8647 14.0829C55.8026 14.041 55.7321 14.0141 55.6585 14.0042C55.5849 13.9944 55.5101 14.0018 55.4397 14.026C55.3592 14.0489 55.2859 14.0933 55.2274 14.1548C55.1689 14.2163 55.1272 14.2927 55.1065 14.3762C54.6118 16.0657 54.2327 16.6811 53.5558 17.5866C52.7351 18.6811 51.753 19.4125 50.3387 19.9227C50.2523 19.9543 50.1757 20.0094 50.1171 20.0822C50.0585 20.155 50.0201 20.2429 50.006 20.3364C49.9919 20.4298 50.0026 20.5255 50.037 20.6133C50.0714 20.701 50.1282 20.7775 50.2013 20.8346C52.2206 22.4092 52.9017 22.7519 53.9359 24.4801C54.3796 25.2223 54.7232 26.4134 54.8222 26.6443C54.8559 26.7412 54.9158 26.826 54.9949 26.8887C55.0739 26.9514 55.1688 26.9894 55.2682 26.9981C55.3676 27.0068 55.4673 26.9859 55.5555 26.9378C55.6437 26.8898 55.7167 26.8166 55.7657 26.727C55.8938 26.5294 56.2719 25.4983 57.155 24.2105C58.2308 22.6391 60.3616 21.4533 60.723 21.203C60.8308 21.1388 60.9145 21.0391 60.9606 20.9198C61.0067 20.8006 61.0125 20.6688 60.9771 20.5457C60.9552 20.4776 60.9193 20.4152 60.8718 20.3627C60.8244 20.3103 60.7665 20.269 60.7022 20.2417Z" fill="#FFD79B"/>
<path d="M39.5939 71.0822C38.1881 70.3239 36.7539 69.2412 35.8238 68.1411C33.8357 65.7986 33.4097 62.3474 33.3245 61.7765C33.3113 61.6468 33.275 61.5222 33.2184 61.4113C33.1617 61.3005 33.086 61.206 32.9965 61.1345C32.9123 61.0664 32.8164 61.0227 32.7162 61.0068C32.6161 60.9908 32.5143 61.0031 32.4186 61.0425C32.3086 61.0789 32.2084 61.1503 32.1284 61.2494C32.0483 61.3484 31.9911 61.4716 31.9627 61.6065C31.2882 64.3359 30.7713 65.3301 29.8483 66.7929C28.7293 68.561 27.3917 69.7426 25.4619 70.5668C25.3439 70.6178 25.2395 70.7068 25.1596 70.8245C25.0798 70.9421 25.0274 71.084 25.0082 71.235C24.989 71.3861 25.0036 71.5406 25.0505 71.6823C25.0973 71.8241 25.1747 71.9476 25.2744 72.04C28.0293 74.5837 28.9565 75.1372 30.368 77.9308C30.973 79.1281 31.4416 81.0541 31.5765 81.4254C31.6224 81.5818 31.7041 81.7189 31.812 81.8202C31.9198 81.9215 32.0491 81.9828 32.1847 81.9969C32.3202 82.011 32.4561 81.9772 32.5764 81.8996C32.6967 81.8219 32.7961 81.7037 32.863 81.559C33.0377 81.2398 33.5532 79.574 34.7573 77.4936C36.2242 74.955 39.1282 73.0394 39.6223 72.6351C39.7693 72.5314 39.8834 72.3702 39.9463 72.1776C40.0091 71.9849 40.0171 71.772 39.9688 71.5732C39.9383 71.4636 39.8891 71.3632 39.8244 71.2786C39.7598 71.1939 39.6813 71.127 39.5939 71.0822Z" fill="#FFD79B"/>
</svg>
