<svg width="100" height="100" viewBox="0 0 100 100" fill="none" xmlns="http://www.w3.org/2000/svg">
<path fill-rule="evenodd" clip-rule="evenodd" d="M66.7812 11.5348C66.6499 9.68438 65.8007 10.2304 65.1647 9.49803C64.6488 8.90266 66.0912 8.11909 65.9096 7.68863C65.8547 7.5554 65.3127 7.5787 65.1647 7.51535C64.9404 7.4419 64.7092 7.39193 64.4746 7.36626C63.184 7.17526 61.7509 7.47249 60.478 7.28335C51.2527 5.91092 39.192 9.72445 31.2983 14.4017C27.2942 16.772 23.6626 18.6624 20.8625 22.4508C18.9135 25.0829 20.0384 29.0446 18.0429 31.741C14.9914 35.862 12.1531 41.7104 11.7881 46.8545C11.695 48.2055 10.9835 49.4931 11.0003 50.9028C11.0571 55.4515 12.2723 59.4355 13.5304 63.7764C14.5035 67.1371 14.5714 70.4186 16.4021 73.511C19.6129 78.9355 26.1004 81.6478 31.1149 85.0066C33.6701 86.7191 35.6116 89.0829 38.042 90.8848C43.0546 94.5996 49.0812 93.7787 54.7167 93.2635L54.8955 93.0818C49.3177 90.7712 57.7868 84.4737 60.9734 83.8429C62.8516 83.4702 64.186 82.2692 65.877 81.5676C67.9256 80.7197 69.9146 80.3042 72.0396 79.8831C73.6719 79.5598 75.6191 83.0267 75.6275 83.0071C76.0409 82.0074 76.6229 79.7629 76.7905 78.6383C77.2235 75.7248 80.0673 73.5259 81.1866 70.8221C82.2929 68.1471 82.5163 65.3109 82.8823 62.4366C83.1319 60.4679 83.6869 58.5532 83.9373 56.5844C84.2111 54.4247 84.227 52.2128 84.3797 50.0689C84.6078 46.847 85.5446 42.5863 84.5548 39.41C84.2242 38.3497 84.1245 37.0229 83.5519 36.0558C82.6831 34.5884 81.2714 33.3482 80.6484 31.8454C80.3085 31.0227 80.4678 29.9689 80.342 29.1201C79.8429 25.7724 77.6602 22.0194 75.4999 19.5234C74.5603 18.4398 71.2984 16.1924 69.9519 15.926C69.3 15.7974 69.2069 16.3481 68.7413 16.3807C68.5858 16.3918 65.7531 14.8517 65.389 14.5806C63.4317 13.1317 66.852 12.5289 66.7812 11.5348Z" fill="#A5C499"/>
<path fill-rule="evenodd" clip-rule="evenodd" d="M22.5653 66.2449C19.1097 62.0014 16.2281 57.2048 14.9415 51.8253C13.9457 47.662 14.1984 41.0384 13.9383 39.626C13.7144 38.3912 13.4673 42.0453 13.4051 43.3531C13.2611 46.3571 13.2583 48.6559 13.5909 51.6833C14.5291 60.2275 19.6958 67.7414 25.4683 73.8597C26.9889 75.4719 29.1338 77.654 30.9044 79.043C35.602 82.7299 40.596 85.9151 46.1882 88.0523C48.2319 88.8332 51.0187 89.6057 53.1088 90.2475C53.3466 90.3213 52.7251 88.7912 57.25 85.2304C55.9839 84.9269 54.6211 84.7214 53.2073 84.3487C51.3494 83.8583 49.5008 83.3071 47.6652 82.7271C43.2174 81.3194 38.8227 79.8239 34.8607 77.3093C30.2077 74.3473 26.0488 70.5222 22.5653 66.2449Z" fill="#D5EDC8"/>
<path fill-rule="evenodd" clip-rule="evenodd" d="M16.9421 69.5405C16.8957 69.5781 16.8586 69.6253 16.8338 69.6785C16.6083 70.1577 17.156 70.3643 17.5803 70.583C19.2244 71.4248 22.28 72.3112 24.5372 71.2954C24.8612 71.1496 24.9776 70.781 24.7735 70.5461C24.6608 70.4158 24.5721 70.2889 24.215 70.4141C24.0704 70.4815 23.9208 70.5388 23.7675 70.5855C22.0768 71.0665 20.1212 70.769 18.5111 69.9983C17.9069 69.7111 17.3064 69.2242 16.9421 69.5405Z" fill="#D5EDC8"/>
<path fill-rule="evenodd" clip-rule="evenodd" d="M18.4947 62.292L18.5734 62.1142V61.897C18.1818 59.801 17.9827 57.6602 17.8509 55.5248C17.6944 52.9835 18.1126 50.6556 18.6095 48.3068C19.5653 43.7849 21.1204 39.3456 23.9367 35.7045C27.6576 30.8958 32.945 27.1457 38.8317 25.1102C39.962 24.7198 41.133 24.553 42.0424 24.0526L42.1656 23.9005L42.2188 23.7172L42.1931 23.5257C42.1389 23.4075 42.0494 23.3076 41.9362 23.2388L41.7465 23.1875L41.4621 23.2397C40.9225 23.4148 40.3867 23.5972 39.8425 23.7603C37.7383 24.378 35.7015 25.2633 33.7633 26.2824C28.0312 29.2984 22.722 34.1337 20.1172 40.1209C20.0935 40.1759 20.0698 40.2318 20.0451 40.2877C18.8056 43.2476 17.8995 46.3278 17.3426 49.4752C17.043 51.1359 16.749 52.8093 16.7841 54.4791C16.8363 56.9316 17.1236 59.4014 17.5294 61.8475C17.5569 62.0143 17.5617 62.1545 17.6489 62.2846C17.7494 62.434 17.8139 62.4331 17.9732 62.5H18.1733C18.2991 62.4624 18.4109 62.3901 18.4947 62.292Z" fill="#D5EDC8"/>
<path fill-rule="evenodd" clip-rule="evenodd" d="M51.4688 39.1244L51.4385 38.9328C51.3635 38.7968 51.2482 38.6876 51.1084 38.6202C48.7729 37.5476 46.2651 36.9949 43.7399 37.0691C40.1748 37.1727 36.7528 38.5175 33.8315 40.4985C30.4837 42.7691 27.2093 45.9876 25.5662 49.8817C25.1263 50.9606 24.7806 52.0755 24.5328 53.2139C23.3564 58.3858 23.5407 63.8026 24.5383 69.0369L24.6107 69.2202L24.7464 69.3577L24.9243 69.4338C25.0531 69.4476 25.183 69.4227 25.2975 69.3623L25.4351 69.2266L25.5112 69.0488V68.8554C24.7501 64.8567 24.5026 60.7812 24.9482 56.7605C25.303 53.5521 26.1035 50.3804 27.8897 47.7687C30.6937 43.672 34.9245 40.1089 39.93 38.6715C43.4832 37.6521 47.1857 37.9757 50.4839 39.4305C51.0818 39.6936 51.3771 39.5075 51.4688 39.1244Z" fill="#D5EDC8"/>
<path fill-rule="evenodd" clip-rule="evenodd" d="M34.062 78.577C34.1589 78.4846 34.2257 78.3664 34.2541 78.2372L34.2359 78.0405L34.1993 77.9188C32.9131 73.5753 32.6047 68.9865 33.0822 64.5138C33.6076 59.6002 36.2714 55.2791 39.9476 52.1687C42.7621 49.7877 46.1973 48.049 49.9032 47.3094L50.0905 47.2326L50.2327 47.0921L50.3096 46.9096C50.3221 46.778 50.2943 46.6457 50.2298 46.5294L50.0857 46.3899C49.9661 46.3283 49.8304 46.3026 49.6957 46.316L49.6467 46.3263C42.5758 47.7494 36.183 52.6931 33.3982 59.1957C32.7824 60.6331 32.3585 62.1416 32.137 63.6843C31.5131 68.2379 31.7906 72.8659 32.9544 77.3177C33.0831 77.8111 33.16 78.3607 33.4885 78.6285L33.6806 78.6875L33.8833 78.6697L34.062 78.577Z" fill="#D5EDC8"/>
<path fill-rule="evenodd" clip-rule="evenodd" d="M40.5227 81.4738C39.7329 79.5052 39.7174 77.2113 39.9085 75.0252C40.1171 72.6429 41.1292 70.1073 42.2944 67.7567C43.8476 64.6207 45.8552 61.6631 48.8124 60.0245C49.2414 59.7874 49.2707 59.2428 48.8905 59.0718C48.6545 58.9649 48.3756 59.1033 48.3756 59.1033C44.6208 61.1361 42.3431 64.9432 40.6612 68.7866C40.6446 68.8265 40.627 68.8665 40.6095 68.9065C39.8831 70.5925 39.1908 72.3102 38.9519 74.1041C38.6536 76.3181 38.6429 78.6482 39.2142 80.839C39.3683 81.4273 39.5068 82.1031 39.9728 82.1523C40.5608 82.2165 40.5227 81.4738 40.5227 81.4738Z" fill="#D5EDC8"/>
<path fill-rule="evenodd" clip-rule="evenodd" d="M46.5899 81.6406C46.5362 79.9105 46.7765 78.1472 47.4296 76.6181C48.6088 73.8569 50.3874 71.3557 52.4204 69.2346L52.4658 69.1866C52.8787 68.7633 52.427 67.8641 51.8119 68.5042C51.2485 69.0959 50.7127 69.7195 50.2066 70.3726C48.6897 72.3093 47.2942 74.3881 46.4041 76.7315C46.3942 76.7582 46.3842 76.7859 46.3735 76.8136C45.8219 78.3196 45.6559 79.928 45.6923 81.5097C45.6834 81.5992 45.6893 81.6899 45.7096 81.7771C45.734 81.8785 45.7855 81.9692 45.8575 82.0368C45.9294 82.1044 46.0181 82.1458 46.1118 82.1552C46.4676 82.1829 46.5899 81.6406 46.5899 81.6406Z" fill="#D5EDC8"/>
<path fill-rule="evenodd" clip-rule="evenodd" d="M57.7486 47.4222C57.8263 47.4646 57.9137 47.4785 57.9987 47.4619C58.1488 47.4287 58.2227 47.4112 58.3234 47.2025C58.4605 46.9088 58.3907 47.0603 58.3704 46.895C58.3169 46.4776 58.0701 46.099 57.9305 45.6946C57.3939 44.1331 56.5042 42.7342 55.4839 41.5024C55.0261 40.9483 54.5536 40.4082 54.013 39.9705C53.5584 39.6011 53.0803 39.1837 52.7751 39.47C52.7286 39.5094 52.6913 39.561 52.6663 39.6205C52.5097 39.9899 52.849 40.2992 52.849 40.2992C53.2865 40.6141 53.7232 40.9345 54.1007 41.3343C55.2696 42.5717 56.2469 43.9937 56.9483 45.6327C57.1561 46.1184 57.2965 46.6484 57.5108 47.1388C57.6504 47.4592 57.6147 47.3151 57.661 47.3604L57.7486 47.4222Z" fill="#D5EDC8"/>
<path fill-rule="evenodd" clip-rule="evenodd" d="M66.0898 38.2523C66.6013 38.0129 66.6106 37.3268 66.2495 37.1128C66.0722 37.003 65.8049 37.1073 65.8049 37.1073C65.2519 37.3677 64.6806 37.5701 64.0977 37.7122C60.6285 38.5904 57.0089 38.1151 53.4516 37.4926C53.1452 37.4377 52.8277 37.4575 52.6783 37.755C52.622 37.8906 52.6098 38.0459 52.6441 38.1914C52.6783 38.337 52.7565 38.4625 52.8639 38.5443C52.9397 38.5911 53.0222 38.6209 53.1072 38.6321C55.0724 38.99 57.0488 39.2908 59.0373 39.3589C61.4296 39.4346 63.8971 39.2721 66.0898 38.2523Z" fill="#D5EDC8"/>
<path fill-rule="evenodd" clip-rule="evenodd" d="M65.5278 54.2685C66.5223 60.038 67.5303 66.3229 67.9954 72.1839C68.1319 73.8996 68.268 75.6154 68.4038 77.3312C68.449 77.9032 68.6489 79.8529 68.6921 79.8437C70.9407 79.3732 72.2889 79.1932 72.2812 79.0361C72.2447 78.3143 72.0727 77.1175 72.04 76.7045C71.9516 75.5953 71.1685 70.8956 70.9715 69.7728C69.8577 63.4541 69.211 58.1605 67.7043 51.925C67.2161 49.9068 65.3548 43.9636 65.3221 44.0002C65.0579 44.2925 63.0312 44.6507 63.0312 44.6507C63.1994 44.541 64.9925 51.1621 65.5278 54.2685Z" fill="#D5EDC8"/>
<path fill-rule="evenodd" clip-rule="evenodd" d="M70.5136 55.8938C72.6984 52.0317 75.262 49.8278 76.3696 48.9535C77.0874 48.3868 79.6667 47.0641 80.5919 46.8372C80.7438 46.8004 81.6033 45.1528 81.5264 45.1563C81.3856 45.165 79.0008 45.603 75.4194 47.6965C73.1245 49.035 71.2407 51.2459 69.9246 53.0995C69.581 53.5839 68.7845 54.8146 68.8133 54.925C68.9151 55.2753 69.2365 58.3 69.4106 57.8244C69.6255 57.2392 70.2617 56.3414 70.5136 55.8938Z" fill="#D5EDC8"/>
<path fill-rule="evenodd" clip-rule="evenodd" d="M66.1337 57.8342C66.4095 58.2232 66.4756 55.7115 66.5 55.3281C66.5081 55.2077 62.6235 51.9865 58.6765 51.2326C57.4557 50.9992 56.6636 50.9001 56.5216 50.9502C56.4448 50.977 54.7891 52.3153 54.9483 52.2894C55.9158 52.131 56.8689 52.382 57.7044 52.6357C58.9948 53.0303 62.0204 53.6656 65.0288 56.5117C65.4348 56.918 65.8045 57.3606 66.1337 57.8342Z" fill="#D5EDC8"/>
<path fill-rule="evenodd" clip-rule="evenodd" d="M71.078 63.3816C72.6028 60.0504 74.3482 58.0628 75.1018 57.2674C75.5897 56.7486 77.9016 54.9763 78.6945 54.8051C78.8014 54.7826 79.2334 53.3353 79.2184 53.2869C79.129 52.9964 76.2682 54.4653 74.4209 56.0933C72.9169 57.4161 71.6495 59.498 70.7396 61.1138C70.5023 61.5357 69.95 62.6043 69.9692 62.6934C70.0302 62.9778 70.3929 65.166 70.5165 64.7632C70.6745 64.2905 70.8621 63.829 71.078 63.3816Z" fill="#D5EDC8"/>
<path fill-rule="evenodd" clip-rule="evenodd" d="M66.5595 64.6739C66.918 65.0681 67.2523 65.4871 67.56 65.9282C67.8115 66.3095 67.4936 63.8847 67.4671 63.5654C67.4582 63.4644 66.5674 62.5351 66.1955 62.1748C64.7735 60.7938 62.8405 59.0496 60.9137 58.1832C58.5406 57.1157 55.4237 56.703 55.3236 56.7192C55.2696 56.7278 54.842 58.0869 54.9571 58.0736C55.808 57.9783 59.4526 59.0867 60.5896 59.6529C61.6274 60.1685 63.9836 61.7069 66.5595 64.6739Z" fill="#D5EDC8"/>
<path fill-rule="evenodd" clip-rule="evenodd" d="M64.0793 82.9094C64.0913 82.7776 64.0646 82.6451 64.0028 82.5287L63.8646 82.39C63.5526 82.1822 63.253 81.9559 62.9673 81.7122C62.4772 81.2912 61.9668 80.8402 61.836 80.2524C61.727 79.703 61.5767 79.163 61.3864 78.637C60.7286 76.8614 59.3089 75.2413 59.1468 73.2556C59.0086 71.5605 60.1473 70.1777 60.3444 68.5614C60.4145 67.9506 60.2947 67.3329 60.0017 66.7951C59.2279 65.3738 58.8105 63.7312 57.9372 62.3633C57.1569 61.1446 55.5078 60.4817 54.9385 59.0445C54.6215 58.2429 54.8675 57.4347 55.2416 56.7081C55.6826 55.8863 55.9186 54.9669 55.9288 54.0306C55.9288 53.3143 55.8275 52.3552 56.4115 51.8142C57.3807 50.9151 58.9653 50.6414 59.9631 49.6448C60.8235 48.7841 61.0252 47.6113 61.285 46.4703C61.4389 45.8 61.5255 45.0209 62.0359 44.5606C62.5463 44.1002 63.2888 44.4874 63.9936 44.6065C64.3658 44.6734 64.7483 44.6467 65.108 44.5287C65.4677 44.4107 65.7936 44.2051 66.0572 43.9296C67.2549 42.6752 67.6234 40.7561 68.0555 38.9607C68.2849 38.0025 68.5207 36.7303 69.3453 36.6684C70.1468 36.6093 70.9823 36.9993 71.8327 36.9253C72.6618 36.8531 73.3021 36.3103 73.6678 35.6127C73.7199 35.5153 73.7669 35.4151 73.8088 35.3127C74.0557 34.724 74.3173 34.1408 74.4758 33.5249C74.9245 31.7829 74.0152 30.0063 73.0635 28.4162C72.9585 28.2409 72.8479 28.0684 72.7309 27.9006C72.4075 27.4318 71.8308 26.9631 72.0215 26.6256C72.2795 26.1709 72.9161 25.9937 73.1566 25.4902C73.2745 25.2446 73.2293 24.953 73.1611 24.7542C72.6222 23.1717 71.3518 22.0035 70.5355 20.571C70.3513 20.2466 70.3467 19.9025 70.3632 19.5509C70.4111 18.605 70.377 17.6187 69.8703 16.8433C69.7331 16.6324 69.5995 16.4018 69.3904 16.2996C69.2291 16.2208 69.1757 16.2536 69.009 16.278L68.8422 16.3783C68.7982 16.4271 68.759 16.4801 68.7252 16.5368C68.6479 16.7008 68.6801 16.7552 68.7041 16.924L68.8026 17.0946C69.8031 18.2318 69.021 19.6522 69.5396 20.826C70.038 21.951 70.9473 22.821 71.6042 23.8486C71.8422 24.2456 72.048 24.6617 72.2196 25.0927C71.9985 25.3158 71.7018 25.4902 71.4669 25.7246C70.8598 26.3265 70.9501 27.19 71.4015 27.8022C72.1805 28.8291 72.8166 29.9604 73.292 31.1641C73.7425 32.3436 73.5158 33.3974 73.1031 34.4033C72.9106 34.8721 72.7493 35.3587 72.3882 35.6643C71.7663 36.1912 70.8911 35.8246 70.0767 35.7037C69.0283 35.5481 68.1025 35.9193 67.7008 36.735C66.7952 38.5782 66.9343 41.5164 65.3561 43.2039C64.7112 43.8977 63.9033 43.5058 63.1009 43.369C62.6383 43.2922 62.1638 43.3717 61.7499 43.5954C61.3359 43.819 61.0054 44.1745 60.8088 44.6074C60.174 45.98 60.3371 47.7247 59.4324 48.7391C58.4393 49.852 56.8178 50.0789 55.7547 51.0473C54.4207 52.2614 55.3245 54.2837 54.5838 55.795C54.089 56.7869 53.5934 57.8754 53.8523 58.9367C54.2779 60.6852 55.8607 61.3808 56.8538 62.5818C57.8893 63.8362 58.2071 65.5753 58.9847 67.0294C59.1705 67.3703 59.2801 67.7487 59.3055 68.1377C59.331 68.5267 59.2718 68.9166 59.1321 69.2795C59.1026 69.3601 59.0731 69.4389 59.0399 69.5177C58.9884 69.648 58.9349 69.7783 58.8824 69.9077C58.3739 71.1433 57.9989 72.4549 58.2016 73.7515C58.56 76.0298 60.3334 77.9704 60.829 80.3143C61.0796 81.5181 62.0801 82.3703 63.0834 83.0791C63.2079 83.1781 63.3469 83.2568 63.4952 83.3125H63.6896C63.8137 83.2733 63.9236 83.1976 64.0056 83.095L64.0793 82.9094Z" fill="#70975F"/>
<path fill-rule="evenodd" clip-rule="evenodd" d="M32.5935 79.2821L32.6798 79.2532C33.0811 79.1212 33.046 78.8059 32.6883 78.7169C32.5698 78.6879 32.4701 78.645 32.0556 78.7882C31.3492 79.0389 30.5464 79.1897 29.7151 79.2279C28.1925 79.2961 26.6262 79.1781 25.1519 78.933C24.6169 78.8439 23.9831 78.7072 23.764 78.9442C23.7218 78.9986 23.7087 79.0588 23.7264 79.1173C23.7441 79.1759 23.7918 79.2302 23.8636 79.2735C23.908 79.3011 23.9632 79.3224 24.0248 79.3357L24.244 79.3786C26.9895 79.9005 30.1847 80.1263 32.5935 79.2821Z" fill="#D5EDC8"/>
<path fill-rule="evenodd" clip-rule="evenodd" d="M33.4815 85.4848C34.1672 85.6168 34.8721 85.6559 35.5714 85.6007C37.3525 85.447 38.6658 84.7784 39.7135 84.1017C39.7774 84.0559 39.8281 83.9977 39.8615 83.9317C39.8948 83.8656 39.9099 83.7937 39.9055 83.7216C39.9011 83.6496 39.8773 83.5794 39.8361 83.5169C39.7949 83.4543 39.7374 83.4011 39.6683 83.3616C39.4283 83.2382 39.1035 83.3863 39.1035 83.3863C38.4266 83.7752 37.8505 84.1929 37.1464 84.3903C36.0167 84.7061 34.8729 84.8212 33.7715 84.6296C33.4128 84.5646 33.5512 84.4298 33.168 84.6888C33.1176 84.732 33.0734 84.7803 33.0362 84.8327C32.9769 84.9437 32.9355 84.9692 33.0052 85.1616C33.0223 85.2112 33.0494 85.2577 33.0852 85.299C33.2038 85.4363 33.1163 85.3557 33.2499 85.4223L33.4815 85.4848Z" fill="#D5EDC8"/>
<path fill-rule="evenodd" clip-rule="evenodd" d="M43.7314 88.4502C44.9783 87.7158 46.3134 86.822 46.7884 85.4078C47.0091 84.749 46.5237 84.3126 46.1406 84.5214C45.9688 84.6147 45.8721 84.8854 45.8721 84.8854C45.7857 85.2473 45.5745 85.5474 45.3426 85.817C43.9202 87.4745 41.6029 88.5656 39.3506 89.0996C39.1177 89.152 38.9121 89.2318 38.8088 89.4426C38.5581 90.0563 39.176 90.2913 39.4022 90.2441C40.8941 89.9326 42.3616 89.2601 43.7314 88.4502Z" fill="#D5EDC8"/>
<path fill-rule="evenodd" clip-rule="evenodd" d="M14.6031 61.4966C14.5135 61.6284 14.5554 61.5481 14.5054 61.7113C14.5054 61.7213 14.5003 61.7326 14.4974 61.7427L14.4688 62.1118C14.4856 62.2837 14.4592 62.1883 14.526 62.3779C14.5666 62.4667 14.6126 62.5479 14.6632 62.6202C15.0253 63.0874 15.4445 63.4082 15.8894 63.5587C16.3344 63.7092 16.7934 63.6853 17.2321 63.489L17.5257 63.3634L17.6498 63.3107C17.9925 63.1513 18.0241 62.3578 17.7709 62.0791C17.5037 61.7866 17.0156 62.2649 16.5554 62.3227C16.0776 62.3829 15.5653 62.0528 15.1543 61.5569C15.0831 61.4318 14.9873 61.3563 14.8855 61.3452C14.7836 61.3341 14.683 61.388 14.6031 61.4966ZM15.2585 61.9762C15.2585 62.1582 15.2541 61.882 15.2585 61.9762V61.9762ZM15.2512 61.8745V61.8594V61.8494V61.8594V61.8745Z" fill="#D5EDC8"/>
<path fill-rule="evenodd" clip-rule="evenodd" d="M81.8711 33.907L81.7682 33.7424L81.6134 33.6323L81.4234 33.5938L81.2334 33.6398L81.0778 33.7631L80.9801 33.9428C80.9657 34.0166 80.956 34.0914 80.9511 34.1666C80.903 35.5378 81.0816 36.9072 81.4788 38.2118C81.9274 39.6822 81.7092 41.2222 81.215 42.6446C80.8676 43.6503 80.3135 44.5524 79.9195 45.5383C79.4252 46.7886 79.0241 48.1179 79.0708 49.4452C79.0998 50.2524 79.4815 51.0078 79.5712 51.814C79.7471 53.3945 78.7454 54.4867 78.3074 55.8207C78.0464 56.6006 77.9928 57.4428 78.1526 58.2534C78.5695 60.276 79.7515 62.2525 79.7788 64.4256C79.7946 65.7897 79.1402 66.8546 78.8157 68.071C78.4252 69.5376 79.0796 70.8932 78.9916 72.2883C78.9459 73.0409 78.0602 73.77 78.0866 74.7154L78.1333 74.929L78.2441 75.088L78.4032 75.1896L78.587 75.2188C78.7427 75.1764 78.8017 75.1868 78.916 75.0504C78.9529 74.9971 78.9847 74.9401 79.011 74.8801L79.0373 74.6835C79.0369 74.6756 79.0369 74.6678 79.0373 74.6599C79.0479 74.1943 79.4411 73.8133 79.6574 73.3824C80.222 72.2535 79.8122 71.0127 79.6574 69.8236C79.4762 68.4548 80.1059 67.4153 80.463 66.2629C81.0109 64.4962 80.5756 62.6137 79.9898 60.8809C79.5668 59.641 78.9529 58.4274 79.0092 57.1706C79.0681 55.8423 79.9371 54.7313 80.3495 53.4725C80.6723 52.4895 80.5483 51.3437 80.2229 50.291C80.2009 50.2185 80.1992 50.2082 80.1429 50.0492C80.0808 49.8808 80.042 49.7037 80.0277 49.5233C79.9186 48.0642 80.4296 46.5393 81.1165 45.2194C82.0839 43.3981 82.9634 41.1065 82.6063 38.8327C82.3891 37.4433 81.7849 35.7452 81.9027 34.1591C81.879 34.4301 81.9027 34.1027 81.9027 34.1027L81.8711 33.907Z" fill="#70975F"/>
<path fill-rule="evenodd" clip-rule="evenodd" d="M50.79 21.946C55.7044 20.7348 60.5849 18.8469 64.9224 16.1289C65.2843 15.9005 65.4451 15.5764 65.277 15.2987C65.0786 14.9708 64.5926 15.1347 64.5926 15.1347C61.6927 16.9979 58.507 18.3049 55.2966 19.481C52.426 20.532 49.5215 21.2295 46.5774 21.8503C46.0456 21.963 45.5156 22.1005 44.9865 22.1678C44.7954 22.1924 44.721 22.2132 44.5906 22.4521C44.4987 22.6795 44.541 22.7307 44.541 22.7307C44.5393 22.8197 44.5698 22.9062 44.6264 22.9733C44.6657 23.0242 44.711 23.0697 44.7614 23.1088C44.8946 23.2036 44.8239 23.16 44.957 23.1875H45.1343C47.0413 22.9089 48.917 22.4085 50.79 21.946ZM45.1527 22.1839L45.1086 22.1753C45.308 22.2056 45.2281 22.2057 45.1527 22.1839Z" fill="#D5EDC8"/>
<path fill-rule="evenodd" clip-rule="evenodd" d="M71.8734 88.3301C76.1858 85.4283 76.9989 81.7649 73.8158 80.2619C70.6327 78.7589 64.9546 81.715 63.4533 82.7129C61.952 83.7109 60.4544 83.1918 56.0961 86.5409C51.5707 90.0196 55.0755 92.5625 55.0755 92.5625C57.8354 92.4128 66.631 91.8605 71.8734 88.3301Z" fill="#70975F"/>
<path d="M38.3884 34.3714C38.998 32.7129 38.1476 30.8743 36.4891 30.2647C34.8307 29.6552 32.992 30.5055 32.3825 32.164C31.7729 33.8225 32.6233 35.6611 34.2818 36.2707C35.9403 36.8802 37.7789 36.0299 38.3884 34.3714Z" fill="#242424"/>
<path d="M61.1096 24.2103C61.7192 22.5518 60.8688 20.7132 59.2103 20.1036C57.5518 19.4941 55.7132 20.3444 55.1037 22.0029C54.4941 23.6614 55.3445 25.5 57.003 26.1095C58.6615 26.7191 60.5001 25.8688 61.1096 24.2103Z" fill="#242424"/>
<path d="M36.8601 41.9414C39.1362 41.2793 40.7067 39.7982 40.3678 38.6333C40.0289 37.4684 37.9091 37.0608 35.6329 37.723C33.3568 38.3851 31.7863 39.8662 32.1252 41.0311C32.4641 42.196 34.584 42.6036 36.8601 41.9414Z" fill="#F7877E"/>
<path d="M63.0254 32.4545C65.238 31.6038 66.6787 29.9963 66.2434 28.8639C65.808 27.7315 63.6614 27.5031 61.4488 28.3538C59.2363 29.2044 57.7955 30.812 58.2309 31.9444C58.6662 33.0768 60.8128 33.3052 63.0254 32.4545Z" fill="#F7877E"/>
<path fill-rule="evenodd" clip-rule="evenodd" d="M35.235 32.8537C35.299 32.9635 35.2965 33.0802 35.2278 33.1893C35.1591 33.2984 35.0273 33.3948 34.849 33.4664C34.6707 33.538 34.4539 33.5815 34.2261 33.5915C33.9983 33.6015 33.7697 33.5775 33.5692 33.5226C33.3686 33.4676 33.2053 33.3841 33.0996 33.2827C32.9939 33.1813 32.9508 33.0665 32.9756 32.9529C33.0004 32.8392 33.0921 32.7318 33.239 32.6442C33.386 32.5565 33.5816 32.4927 33.8011 32.4607C33.9469 32.4394 34.0996 32.4327 34.2505 32.4409C34.4015 32.4492 34.5477 32.4722 34.6808 32.5087C34.814 32.5452 34.9315 32.5944 35.0266 32.6536C35.1216 32.7128 35.1924 32.7808 35.235 32.8537Z" fill="white"/>
<path fill-rule="evenodd" clip-rule="evenodd" d="M57.9562 22.6926C58.0202 22.8023 58.0177 22.9191 57.949 23.0282C57.8803 23.1372 57.7485 23.2337 57.5702 23.3052C57.3919 23.3768 57.1751 23.4204 56.9473 23.4304C56.7195 23.4404 56.4909 23.4164 56.2904 23.3614C56.0898 23.3065 55.9265 23.223 55.8208 23.1216C55.7151 23.0202 55.6719 22.9054 55.6968 22.7917C55.7216 22.6781 55.8133 22.5706 55.9602 22.483C56.1072 22.3954 56.3028 22.3316 56.5223 22.2995C56.6681 22.2782 56.8208 22.2715 56.9717 22.2798C57.1227 22.288 57.2689 22.3111 57.402 22.3476C57.5352 22.384 57.6527 22.4333 57.7478 22.4925C57.8428 22.5517 57.9136 22.6197 57.9562 22.6926Z" fill="white"/>
<path d="M53.3393 28.9822C53.2742 28.9667 53.2067 28.9646 53.1408 28.976C53.075 28.9875 53.0122 29.0122 52.9564 29.0487C52.9006 29.0853 52.853 29.1328 52.8165 29.1883C52.7801 29.2438 52.7555 29.3062 52.7445 29.3715C52.7069 29.5601 52.6659 29.7306 52.6187 29.8906C52.5873 29.9988 52.5523 30.1061 52.5148 30.2116L52.4702 30.3302C52.4702 30.3362 52.4659 30.3414 52.4641 30.3466V30.3518C52.4414 30.4046 52.4196 30.4573 52.3951 30.5101C52.1497 31.0706 51.7933 31.5766 51.347 31.9982C50.1461 33.1515 48.1714 33.8021 46.194 33.6975C45.0653 33.6428 43.9713 33.2936 43.0227 32.6852C42.9659 32.6493 42.9022 32.6255 42.8356 32.6152C42.769 32.605 42.701 32.6085 42.6358 32.6255C42.5316 32.647 42.4365 32.6995 42.3631 32.7759C42.2898 32.8523 42.2416 32.949 42.2251 33.0532C42.2086 33.1574 42.2245 33.2641 42.2708 33.3591C42.317 33.4541 42.3913 33.5329 42.4839 33.585C44.2944 34.759 46.7469 35.0679 49.0474 34.4104C50.9785 33.8575 52.4615 32.7207 53.2248 31.2092C53.4784 30.7011 53.662 30.1616 53.7707 29.6051C53.7848 29.5361 53.7848 29.4649 53.7706 29.3959C53.7564 29.3268 53.7283 29.2613 53.6881 29.2032C53.6479 29.1451 53.5962 29.0956 53.5363 29.0576C53.4764 29.0197 53.4094 28.994 53.3393 28.9822Z" fill="#242424"/>
<path d="M98.7769 28.5517C96.7483 27.3994 95.3654 25.8794 94.2482 23.6844C93.3234 21.8764 92.8117 20.6505 92.2049 17.3611C92.1922 17.2875 92.1606 17.2184 92.1131 17.1605C92.0655 17.1025 92.0036 17.0577 91.9334 17.0303C91.8632 17.0029 91.7871 16.9939 91.7124 17.0041C91.6376 17.0143 91.5668 17.0435 91.5068 17.0887C91.3994 17.1843 91.3313 17.3155 91.3155 17.4575C91.1936 18.1313 90.593 22.2055 88.3438 24.8271C87.3094 26.0325 85.7572 27.1764 84.2427 27.9394C84.1558 27.9829 84.086 28.0537 84.0441 28.1407C83.9988 28.2319 83.988 28.3363 84.0137 28.4348C84.0495 28.5465 84.1142 28.647 84.2013 28.7265C84.7057 29.2375 87.6895 31.7483 89.1333 34.8461C90.2969 37.3388 90.7648 39.2951 90.9329 39.6759C90.9622 39.7566 91.0118 39.8285 91.077 39.8848C91.1423 39.9411 91.221 39.98 91.3057 39.9978C91.4201 40.0086 91.5348 39.9799 91.6302 39.9166C91.7257 39.8533 91.7962 39.7594 91.8296 39.6506C91.9868 39.2324 92.5607 37.029 93.2527 35.6862C94.8549 32.5523 95.8491 31.9749 98.8573 29.2484C98.9082 29.202 98.9474 29.1445 98.9717 29.0804C98.9961 29.0164 99.0049 28.9476 98.9974 28.8795C98.9896 28.8115 98.9655 28.7463 98.9272 28.6893C98.8888 28.6323 98.8373 28.5851 98.7769 28.5517Z" fill="#FFD79B"/>
<path d="M10.7022 33.2417C9.67219 32.7724 8.61929 32.1021 7.93714 31.4212C6.47911 29.9701 6.16668 27.8348 6.10523 27.4814C6.09478 27.4012 6.06793 27.3242 6.02645 27.2555C5.98498 27.1868 5.92983 27.128 5.86466 27.0829C5.80259 27.041 5.73212 27.0141 5.65854 27.0042C5.58495 26.9944 5.51015 27.0018 5.43975 27.026C5.3592 27.0489 5.28595 27.0933 5.22742 27.1548C5.1689 27.2163 5.12717 27.2927 5.10649 27.3762C4.6118 29.0657 4.23271 29.6811 3.55577 30.5866C2.73511 31.6811 1.75303 32.4125 0.338741 32.9227C0.25225 32.9543 0.175651 33.0094 0.117075 33.0822C0.0584987 33.155 0.0201278 33.2429 0.00603322 33.3364C-0.00806141 33.4298 0.0026482 33.5255 0.0370211 33.6133C0.071394 33.701 0.12815 33.7775 0.20127 33.8346C2.22064 35.4092 2.90174 35.7519 3.9359 37.4801C4.37955 38.2223 4.72323 39.4134 4.82217 39.6443C4.85586 39.7412 4.9158 39.826 4.99487 39.8887C5.07394 39.9514 5.16881 39.9894 5.2682 39.9981C5.36759 40.0068 5.46732 39.9859 5.55552 39.9378C5.64371 39.8898 5.71667 39.8166 5.76572 39.727C5.89382 39.5294 6.27186 38.4983 7.15501 37.2105C8.23083 35.6391 10.3616 34.4533 10.723 34.203C10.8308 34.1388 10.9145 34.0391 10.9606 33.9198C11.0067 33.8006 11.0125 33.6688 10.9771 33.5457C10.9552 33.4776 10.9193 33.4152 10.8718 33.3627C10.8244 33.3103 10.7665 33.269 10.7022 33.2417Z" fill="#FFD79B"/>
<path d="M19.5939 82.0822C18.1881 81.3239 16.7539 80.2412 15.8238 79.1411C13.8357 76.7986 13.4097 73.3474 13.3245 72.7765C13.3113 72.6468 13.275 72.5222 13.2184 72.4113C13.1617 72.3005 13.086 72.206 12.9965 72.1345C12.9123 72.0664 12.8164 72.0227 12.7162 72.0068C12.6161 71.9908 12.5143 72.0031 12.4186 72.0425C12.3086 72.0789 12.2084 72.1503 12.1284 72.2494C12.0483 72.3484 11.9911 72.4716 11.9627 72.6065C11.2882 75.3359 10.7713 76.3301 9.84832 77.7929C8.72934 79.561 7.39168 80.7426 5.46187 81.5668C5.34394 81.6178 5.2395 81.7068 5.15963 81.8245C5.07976 81.9421 5.02745 82.084 5.00823 82.235C4.98901 82.3861 5.00361 82.5406 5.05048 82.6823C5.09734 82.8241 5.17473 82.9476 5.27443 83.04C8.02927 85.5837 8.95655 86.1372 10.368 88.9308C10.973 90.1281 11.4416 92.0541 11.5765 92.4254C11.6224 92.5818 11.7041 92.7189 11.812 92.8202C11.9198 92.9215 12.0491 92.9828 12.1847 92.9969C12.3202 93.011 12.4561 92.9772 12.5764 92.8996C12.6967 92.8219 12.7961 92.7037 12.863 92.559C13.0377 92.2398 13.5532 90.574 14.7573 88.4936C16.2242 85.955 19.1282 84.0394 19.6223 83.6351C19.7693 83.5314 19.8834 83.3702 19.9463 83.1776C20.0091 82.9849 20.0171 82.772 19.9688 82.5732C19.9383 82.4636 19.8891 82.3632 19.8244 82.2786C19.7598 82.1939 19.6813 82.127 19.5939 82.0822Z" fill="#FFD79B"/>
</svg>
