<svg width="100" height="102" viewBox="0 0 100 102" fill="none" xmlns="http://www.w3.org/2000/svg">
<path fill-rule="evenodd" clip-rule="evenodd" d="M81.489 53.3518C81.489 53.3518 77.1658 20.0565 46.0384 21.5652C15.9139 23.0245 13.5646 52.1993 15.8801 64.8308C17.2776 72.4551 28.6974 100.309 61.2444 89.1136C85.4027 80.804 81.4865 53.3524 81.4865 53.3524L81.489 53.3518Z" fill="#FF9E5E"/>
<path fill-rule="evenodd" clip-rule="evenodd" d="M15.7731 62.1917L15.8987 62.0361L19.1592 59.3372L15.8565 57.8241L15.6969 57.7074L15.5965 57.5379L15.5703 57.3417L15.6232 57.1537L17.1315 54.1949L15.9295 50.2944C15.8603 49.9886 15.872 49.9209 16.1488 49.7272L19.8152 47.5352C19.4536 46.9361 19.089 46.3386 18.7303 45.737L18.4488 45.2667L18.3827 45.0758L18.3879 44.9992C18.3744 44.9003 18.3835 44.7995 18.4142 44.7045L19.6301 41.1351C19.7259 40.9 19.8316 40.8474 19.9906 40.8126C20.0647 40.8006 20.1405 40.802 20.2141 40.8166L23.0126 41.5205C22.9556 40.5994 22.8992 39.6783 22.8433 38.757L20.31 37.8078C19.8016 37.6034 19.997 36.9192 20.4253 36.8564C20.5333 36.8462 20.5024 36.8308 20.6563 36.884L23.1898 37.834C23.2573 37.8191 23.3265 37.8137 23.3954 37.8178L23.5555 37.8458C24.7152 38.0521 25.8731 38.2618 27.0292 38.4748L22.1756 34.2836C22.0928 34.208 22.0372 34.1072 22.0172 33.9969C21.9973 33.8866 22.0142 33.7728 22.0654 33.673C22.1157 33.5948 22.1821 33.5283 22.2603 33.478L27.3221 30.7047L26.9779 28.878C26.9606 28.7492 26.992 28.6186 27.066 28.5118C27.14 28.405 27.2512 28.3297 27.3778 28.3006L27.4332 28.2942L32.1861 28.0158L38.1056 23.0318L38.2933 22.934L38.5054 22.9232L38.6998 23.0026L38.8447 23.157L38.9116 23.3583C38.9269 23.5018 38.9334 23.6457 38.9359 23.7906C38.9381 23.9198 38.9368 24.0489 38.9354 24.178L43.5501 22.0154C43.5874 21.9978 43.6268 21.9851 43.6672 21.9776C44.1202 21.9115 44.2515 22.4608 44.2515 22.4608L44.265 28.2897L47.0772 25.0975L46.361 22.3412L46.3495 22.1476L46.4135 21.9657L46.5427 21.8216L46.7174 21.7392L46.9105 21.7295L47.0928 21.7952C48.2999 22.5148 49.545 23.1687 50.8226 23.7541L50.771 22.3056C50.7716 22.1892 50.8115 22.0763 50.8842 21.9853C50.9569 21.8943 51.0582 21.8305 51.1717 21.8043C51.617 21.7427 51.7564 22.2708 51.7564 22.2708L51.8255 24.2102C52.7382 24.6162 53.6617 25.0047 54.5851 25.3861L55.3083 23.3156C55.4045 23.0856 55.4217 23.0587 55.682 22.9934C55.7957 22.9753 55.9121 22.9961 56.0125 23.0524C56.1129 23.1087 56.1914 23.1972 56.2352 23.3036C56.2699 23.4132 56.2714 23.5306 56.2393 23.6409L55.5244 25.6875L58.1613 26.1385L58.6657 24.0225C58.6914 23.9277 58.7435 23.8422 58.8161 23.776C58.8886 23.7097 58.9785 23.6656 59.0753 23.6487L59.1051 23.6415C59.2039 23.6298 59.3039 23.65 59.3905 23.6992C59.4771 23.7483 59.5457 23.8239 59.5862 23.9148C59.6313 24.0193 59.6442 24.1349 59.6232 24.2468L59.1338 26.3013L61.5102 26.7081L62.0413 25.1868C62.0633 25.1177 62.1012 25.0547 62.1518 25.0028C62.2024 24.9509 62.2645 24.9116 62.333 24.8879C62.3697 24.8734 62.4081 24.8642 62.4473 24.8603C62.5304 24.8507 62.6146 24.8623 62.6921 24.894C62.7695 24.9257 62.8376 24.9765 62.89 25.0417C62.9425 25.1069 62.9776 25.1843 62.992 25.2667C63.0064 25.3491 62.9997 25.4338 62.9725 25.513L62.3448 27.3099L62.6972 31.2562L65.3018 31.3731L65.3401 27.4116C65.337 27.3191 65.3618 27.2279 65.4113 27.1497C65.4608 27.0715 65.5326 27.01 65.6175 26.9732C65.6623 26.9492 65.7113 26.9341 65.7619 26.9288L65.7909 26.9219C65.8983 26.9094 66.0067 26.934 66.0981 26.9917C66.1895 27.0495 66.2584 27.1368 66.2932 27.2391C66.3166 27.2955 66.3273 27.3563 66.3247 27.4173L66.2874 31.3462L70.1267 30.9135C70.2116 30.9064 70.2968 30.9202 70.3751 30.9538C70.4533 30.9874 70.5221 31.0396 70.5754 31.106C70.6441 31.2192 70.6758 31.3509 70.6661 31.4829L69.9129 36.1222L73.8477 35.7218C74.4489 35.6962 74.3464 36.4246 74.3464 36.4246C73.7936 38.0922 73.2209 39.7575 72.5721 41.3868L72.4833 41.608L76.12 40.0095C76.2012 39.9797 76.2886 39.971 76.374 39.9842C76.4595 39.9974 76.5402 40.0321 76.6086 40.085C76.677 40.1378 76.7309 40.2072 76.7652 40.2865C76.7995 40.3659 76.8131 40.4526 76.8048 40.5387L75.9109 46.1986L77.1241 47.7469L78.4751 45.7145C78.5124 45.6548 78.5627 45.6043 78.6223 45.5669C78.6819 45.5295 78.7492 45.5061 78.8192 45.4984C78.9129 45.4865 79.0081 45.5017 79.0935 45.5422C79.1789 45.5826 79.2509 45.6467 79.301 45.7268C79.3512 45.8068 79.3773 45.8996 79.3765 45.9941C79.3756 46.0886 79.3477 46.1808 79.2961 46.26L77.7668 48.564L80.6916 52.3003C80.9014 52.7055 80.7316 52.9102 80.4796 53.0647L78.1933 53.935L80.7838 56.6107C80.9638 56.8303 80.9524 56.947 80.8985 57.1089C80.8806 57.1849 80.8386 57.2531 80.7788 57.3034L79.1876 58.8985L80.9573 62.926C81.0726 63.212 80.9428 63.4115 80.7457 63.5028C80.703 63.5433 80.6538 63.5765 80.6002 63.6009L77.2288 67.2624L79.0482 71.0046C79.0967 71.1128 79.1061 71.2344 79.0748 71.3487C79.0435 71.463 78.9734 71.5629 78.8766 71.6313C78.8174 71.6687 78.7507 71.6925 78.6813 71.7011L73.0846 73.9784L73.069 73.9935C73.1009 74.0404 73.1256 74.0917 73.1425 74.1458L74.36 79.2974C74.3823 79.4164 74.3624 79.5395 74.3038 79.6454C74.2452 79.7514 74.1514 79.8335 74.0388 79.8778C73.9018 79.9127 73.757 79.898 73.63 79.836L70.6125 78.0588L69.9732 83.7135C69.9572 83.8208 69.9079 83.9204 69.8323 83.9982C69.7567 84.076 69.6586 84.1281 69.5518 84.1471C69.4146 84.1563 69.2783 84.1183 69.1657 84.0394L65.9828 81.4151L66.1299 86.2995C66.1165 86.939 65.3548 86.7201 65.3548 86.7201L61.2987 83.9047L61.8315 86.6491C61.8645 86.8883 61.858 86.9266 61.6789 87.1074L59.0438 89.5208C58.9422 89.6057 58.8121 89.6487 58.6799 89.6409C58.5478 89.6331 58.4236 89.5752 58.3326 89.479L56.2996 87.1099L54.173 90.4306C54.1077 90.5245 54.0131 90.5941 53.904 90.6285C53.7949 90.6628 53.6775 90.66 53.5702 90.6204C53.4455 90.5557 53.3467 90.4501 53.2905 90.3214L52.5701 88.1699L44.8894 91.0803C44.7959 91.1123 44.6951 91.1168 44.5991 91.0933C44.5031 91.0698 44.4158 91.0194 44.3475 90.9479C44.2723 90.8473 44.2287 90.7267 44.222 90.6013L44.3132 88.1081L41.3474 90.5459C41.2693 90.6155 41.1701 90.657 41.0657 90.6635C40.9613 90.67 40.8577 90.6413 40.7715 90.582C40.7219 90.5533 40.6791 90.5143 40.6459 90.4676L38.4279 87.618L35.292 89.0654C34.771 89.1908 34.5699 88.8361 34.6207 88.4611L35.7836 84.9666L31.6192 86.7282C31.5046 86.7711 31.3785 86.772 31.2633 86.7308C31.1481 86.6895 31.0513 86.6087 30.99 86.5028C30.9339 86.3705 30.9275 86.2223 30.972 86.0856L32.2696 82.9689L28.2813 84.348L28.2515 84.3552C28.1444 84.3816 28.0315 84.3706 27.9315 84.3241C27.8316 84.2775 27.7505 84.1983 27.7017 84.0994C27.638 84.0306 27.6 83.9419 27.594 83.8484L27.553 80.366L26.0417 77.2735L24.1694 79.1098C23.7811 79.4662 23.2183 78.9962 23.3584 78.5952C23.3808 78.5226 23.4223 78.4572 23.4785 78.406L25.5919 76.3407L23.9473 73.907L21.9032 76.5295C21.5244 76.8599 21.1703 76.67 21.0303 76.3181L20.1916 71.8991L19.1634 72.2036L18.9721 72.2207L18.7882 72.1633L18.6403 72.0403L18.5502 71.8701L18.5331 71.6788L18.5905 71.495L18.7135 71.347L18.8831 71.258L20.1741 70.8762L19.748 66.9809L17.2536 66.9829C17.1503 66.9792 17.0505 66.9448 16.9668 66.884C16.8832 66.8233 16.8196 66.739 16.7841 66.642C16.6414 66.2022 17.2527 65.9964 17.2527 65.9964L18.8825 65.9957L15.8538 62.7524L15.7505 62.5818L15.7223 62.3844L15.7731 62.1917ZM20.2833 58.7686L22.9803 60.0989L23.817 55.6358L20.2952 57.3329L20.1006 57.3798L19.9025 57.3468L19.7342 57.2375C19.059 56.5663 18.3838 55.8961 17.7086 55.2267L16.7335 57.1388L20.2833 58.7686ZM26.552 76.0044L28.8794 75.9489L29.0587 73.5089L24.9142 73.5804L26.552 76.0044ZM28.5543 80.9285L28.5816 83.2005L31.7593 82.1015L28.5543 80.9285ZM33.0168 81.5113L35.8426 78.5761L34.9084 77.2692L32.0181 81.1453L33.0168 81.5113ZM40.7652 85.456L37.9679 81.547L37.1287 84.0705L38.7688 86.3766L40.7652 85.456ZM41.4408 84.7062L42.5973 81.5744L38.8374 81.0669L41.4408 84.7062ZM44.3942 86.2245L44.4629 84.344C44.4642 84.3108 44.4686 84.2778 44.476 84.2454C44.5239 84.0586 44.7533 83.9157 44.7533 83.9157L46.7817 83.0005L43.6334 81.6956L43.6044 81.7026L42.3131 85.199L44.3942 86.2245ZM56.4745 85.4193L59.1895 83.4398L55.5847 83.4199L56.4745 85.4193ZM63.9391 80.4831L61.3769 79.4866L60.5892 80.2187L60.965 82.1438L63.9391 80.4831ZM66.9982 75.3535C67.0128 75.2204 67.07 75.0956 67.1615 74.9978L68.9406 73.4731L65.1557 72.9822L64.5479 76.3544L65.425 78.9055L66.9982 75.3535ZM69.8061 76.5002L71.765 73.9534L70.219 73.6763L68.2689 75.3463L69.8061 76.5002ZM29.5145 34.4963C31.2176 34.5709 32.9368 34.8791 34.6251 35.2088C33.9581 33.3047 33.1353 31.4416 32.3256 29.578L29.5145 34.4963ZM23.2977 66.5496L25.1473 64.9212C24.6165 64.085 24.1055 63.244 23.6268 62.3655L23.5507 62.2243L23.5081 62.2951C23.0659 63.0351 22.6226 63.7746 22.1606 64.5019C22.4693 65.2233 22.8508 65.9113 23.2991 66.5554L23.2977 66.5496ZM38.3119 79.9946L43.0392 80.6328C43.0889 80.5984 43.1441 80.573 43.2025 80.5576L43.5873 77.9226L41.0746 76.7679C41.0066 76.8014 40.9335 76.8238 40.8583 76.834L38.32 76.6976L38.3119 79.9946ZM60.0808 79.3412L60.8198 78.6541L59.8145 75.7492L56.7781 76.1174L56.729 77.0599L60.0808 79.3412ZM63.0217 76.607L60.9744 76.086L61.6098 77.9206L63.0217 76.607ZM72.2532 73.0366L72.2233 70.4919L69.6355 69.7023L70.3107 72.6885L72.2532 73.0366ZM65.3712 38.9228C64.7543 39.4508 64.1387 39.9916 63.5478 40.551C64.331 41.7366 65.0861 42.9368 65.7763 44.1693C65.8018 44.2131 65.8258 44.2581 65.8506 44.303L68.868 40.2411L65.3712 38.9228ZM58.0472 32.4862L54.9005 37.6597C56.5889 37.8876 58.339 37.6109 59.9131 36.9602L59.9115 36.9536C59.5884 35.3589 58.9554 33.843 58.0486 32.492L58.0472 32.4862ZM53.243 32.2345L51.6805 33.4871C52.4756 34.689 53.2856 35.8839 54.0982 37.079L55.1366 35.3716C55.1354 35.3667 55.1295 35.3637 55.1264 35.3583L53.243 32.2345ZM43.8505 30.5392L43.8257 30.4908C43.529 30.7583 43.2625 31.0576 43.031 31.3832C42.7181 31.8169 42.4339 32.2705 42.1802 32.7413L45.7916 35.9188C45.4765 34.0825 44.7202 32.2551 43.8519 30.545L43.8505 30.5392ZM40.1984 37.1515C40.1618 37.1557 40.1247 37.1558 40.0881 37.1518L36.5062 36.5428L40.8258 42.2436L42.5434 37.4238C41.763 37.3324 40.9819 37.2436 40.1998 37.1573L40.1984 37.1515ZM38.4297 32.4621L36.084 35.4736L39.4777 36.0508L38.4297 32.4621ZM24.7214 54.1141L26.4709 53.3984L25.1705 49.952C24.4735 50.5658 23.7921 51.2005 23.1106 51.8281C23.0606 51.8737 23.0075 51.9158 22.9517 51.9541L24.7214 54.1141ZM27.4299 53.0063L29.6128 52.1144L29.603 52.0738C29.5207 50.5162 28.9695 48.962 28.3504 47.4968C27.517 48.0343 26.7197 48.6259 25.9636 49.2676C26.6871 51.1844 26.9658 52.0796 27.4313 53.0121L27.4299 53.0063ZM33.0148 69.4261L35.3597 67.7144L35.4632 66.2733L33.2655 66.0084L33.0148 69.4261ZM40.7852 72.5811L41.4599 68.9589L39.7737 67.3606L39.4157 69.7683C39.2669 70.1985 38.9985 70.2193 38.7167 70.1408L36.3619 69.0234L36.2723 72.1455L40.7852 72.5811ZM40.4096 75.8185C40.4204 75.8008 40.4324 75.7838 40.4456 75.7678L40.6509 73.5591L38.3363 73.3329L38.3321 75.707L40.4096 75.8185ZM44.2557 73.0733L46.3541 70.003L42.3903 69.3509L41.7655 72.7035L44.2557 73.0733ZM46.8492 69.0854L47.694 66.1408L43.3601 65.9355L42.627 68.3905L46.8492 69.0854ZM51.6953 68.4226L52.9812 64.4525L49.1007 62.3266L48.9213 65.5526L51.6953 68.4226ZM58.087 65.6183L59.6996 61.4617L54.5418 64.1863L58.087 65.6183ZM60.0063 74.7364L60.877 72.1396L56.8952 73.9501L56.8335 75.1208L60.0063 74.7364ZM56.7486 72.9337L61.0968 70.9562L58.8481 67.8695L58.8772 69.5556C58.8781 69.603 58.8721 69.6502 58.8593 69.6958C58.7791 69.978 58.3835 70.0566 58.3835 70.0566L56.5002 70.0525L56.7486 72.9337ZM67.0424 48.0955L63.6 50.3264C63.5835 50.3526 63.5667 50.3776 63.5497 50.4016L65.499 52.9942L65.56 52.9419L69.3611 50.8577C68.8045 50.2205 68.2582 49.5759 67.722 48.9238C67.4944 48.6482 67.2664 48.3745 67.0413 48.0983L67.0424 48.0955ZM65.7492 46.3167C65.4349 47.035 65.0891 47.7393 64.712 48.4295L66.4294 47.315C66.1854 46.995 65.958 46.6628 65.7481 46.3196L65.7492 46.3167ZM56.8346 50.3191L59.1677 51.4741L60.5777 48.0087C60.1889 47.4384 59.8507 46.8351 59.567 46.2058C58.721 47.6241 57.836 49.0185 56.8346 50.3191ZM54.3909 39.2266C54.0564 40.789 53.7804 42.3689 53.6987 43.9625L58.5522 44.2838L54.3909 39.2266ZM50.9068 34.1063L47.3428 36.9895C49.2966 37.2203 51.2481 37.4602 53.2274 37.5498C52.4474 36.4029 51.6678 35.2577 50.9031 34.1054L50.9068 34.1063ZM30.5061 52.6618C30.5021 52.696 30.4973 52.7305 30.4901 52.7664C30.2908 53.7582 30.0806 54.7491 29.8705 55.74L34.579 54.2944L34.5972 54.29L34.7299 53.316L34.6967 53.3091C33.4481 53.048 32.1735 52.886 30.9046 52.7113C30.7735 52.6947 30.6376 52.6801 30.5024 52.6609L30.5061 52.6618ZM35.3177 61.4429L34.3132 57.9734C32.9409 57.8244 31.5691 57.6701 30.1931 57.5386C30.4249 58.6615 30.6791 59.779 30.9481 60.8929L35.3177 61.4429ZM33.2393 65.0149L35.5381 65.2922L35.7396 62.4893L33.193 62.1691L33.2393 65.0149ZM53.5119 63.621L55.8948 62.362L53.011 62.0319L52.6324 63.1387L53.5119 63.621ZM58.0874 57.3428L58.103 57.4837L58.0554 58.9315L60.3585 59.8852L62.4417 57.0175L59.3753 52.9551L57.4503 54.904L58.0874 57.3428ZM57.9783 61.2575L59.3464 60.5337L58.0206 59.9844L57.9783 61.2575ZM64.4211 65.6067L65.9345 62.9639L62.826 61.9736L61.3656 61.3674L64.4211 65.6067ZM60.5684 61.951L59.037 65.8987L63.6025 66.1561L60.5684 61.951ZM64.8244 53.7342L62.5921 50.7662C62.5759 50.7509 62.5606 50.7347 62.5462 50.7177C62.0912 50.1577 61.6576 49.5821 61.2453 48.9908L59.9753 52.1131L63.0458 56.1815L64.8244 53.7342ZM49.2797 40.8086L49.5371 38.2376C48.6905 38.1426 47.8433 38.0381 46.9984 37.9392L46.9079 37.9277C46.7772 39.5506 46.4101 41.1743 46.0557 42.7854C45.9626 43.2065 45.8749 43.6176 45.8749 43.6176C48.0432 43.6293 50.2186 43.7943 52.3928 43.9474L49.437 41.2176C49.3831 41.165 49.341 41.1015 49.3135 41.0314C49.286 40.9612 49.2738 40.886 49.2777 40.8108L49.2797 40.8086ZM45.4359 44.6259L42.5366 48.0897L44.8164 49.9736L49.0227 50.1001L49.6296 49.1741L46.6449 48.4248C46.5579 48.4065 46.478 48.3635 46.4146 48.3011C46.3513 48.2387 46.3072 48.1594 46.2876 48.0726C46.2677 47.9898 46.2309 47.9645 46.3083 47.7583L47.5853 44.6465C47.287 44.6307 46.9907 44.6232 46.6932 44.6142C46.2508 44.6112 45.7936 44.645 45.4348 44.6323L45.4359 44.6259ZM38.4118 43.639L41.8248 47.4119L44.2934 44.4558L38.4118 43.639ZM36.9085 51.2632L35.753 53.0881L35.2247 56.9836L36.7344 56.4291C36.7492 56.4182 36.7646 56.408 36.7805 56.3987C36.8359 56.3648 36.8984 56.3441 36.9631 56.3381L36.9848 56.3373L39.062 55.5742L38.2025 53.8532C38.1906 53.8345 38.1807 53.8145 38.1733 53.7936L36.9085 51.2632ZM34.2301 56.9654L34.4495 55.358L30.5035 56.5709C31.7427 56.6949 32.9855 56.8374 34.229 56.9718L34.2301 56.9654ZM39.1886 65.7786L40.0843 62.0295L36.7287 62.4334L36.5149 65.411L39.1886 65.7786ZM43.0809 64.3245L44.7658 61.5965L44.5823 61.6135C43.4797 61.7037 42.2782 61.7984 41.4053 61.736L43.0809 64.3245ZM48.2895 60.7919L49.7009 56.7172C48.57 56.7519 47.4362 56.7743 46.2985 56.7625C45.7405 56.7566 45.0302 56.7217 45.0302 56.7217C45.0952 57.8091 45.3276 58.8799 45.7192 59.8964C45.822 60.1705 45.9731 60.4488 46.0607 60.6853L48.2895 60.7919ZM53.3301 58.036L51.5645 57.3052L52.6493 60.0236L53.3301 58.036ZM53.8179 57.1719L56.3548 54.6051L55.5548 51.5553L51.1986 56.091L53.8179 57.1719ZM49.8327 51.1022C50.0011 52.5296 50.2006 53.959 50.5396 55.3488L54.6274 51.0923L49.8327 51.1022ZM45.1845 50.9708L45.1331 52.3117L49.1073 53.1671C49.0142 52.5691 48.9343 51.9679 48.8627 51.3647L48.8312 51.0918L45.1845 50.9708ZM41.8651 52.606L39.277 53.7952L40.087 55.416L44.0268 55.7644L44.1205 53.0927L41.8651 52.606ZM41.0317 60.6613L41.0367 60.6601C42.2944 60.8393 43.6282 60.7154 44.9318 60.5899L44.919 60.5588C44.4377 59.3602 44.088 58.0571 44.0413 56.753L42.822 56.646L42.8437 59.1279C42.8487 59.228 42.8212 59.3272 42.7653 59.4104C42.7094 59.4937 42.6281 59.5566 42.5335 59.5899C42.4862 59.612 42.4349 59.6244 42.3827 59.6262L40.8227 59.724C40.8907 60.0406 40.96 60.3552 41.0306 60.6677L41.0317 60.6613ZM41.8548 58.671L41.8356 56.5601L40.2491 56.4207C40.3289 57.2033 40.461 57.9778 40.6167 58.7483L41.8548 58.671ZM39.2652 56.5454L37.592 57.1594L37.9329 58.9177L39.6128 58.8121C39.4569 58.0653 39.3405 57.3108 39.2641 56.5518L39.2652 56.5454ZM45.0172 55.7249C46.5327 55.8902 48.0842 55.7752 49.6192 55.7334L49.616 55.7202C49.4943 55.2149 49.3855 54.7083 49.2906 54.1974C49.2789 54.1975 49.2674 54.1968 49.2559 54.1953L45.1026 53.3023L45.0172 55.7249ZM36.3559 61.4856L40.1031 61.0339C40.0075 60.6187 39.9111 60.2037 39.818 59.788L37.5604 59.9293C37.4396 59.9401 37.3191 59.9047 37.2234 59.8301C37.1277 59.7555 37.0639 59.6474 37.0448 59.5276L36.6566 57.5073L35.3441 57.9889L36.3559 61.4856ZM38.836 52.9137L40.9208 51.9561L39.0531 49.8407L37.6003 50.442L38.836 52.9137ZM41.9328 51.6134L44.1582 52.0916L44.2054 50.7482L41.7551 48.724L40.0167 49.4422L41.9328 51.6134ZM41.0049 47.9669L39.4313 46.232L38.0721 47.2401L39.3265 48.661L41.0049 47.9669ZM48.5771 44.6969C48.5796 44.7411 48.5791 44.7855 48.5758 44.8296L47.434 47.6073L50.202 48.301L52.4076 44.9368C51.1287 44.8521 49.8526 44.7676 48.5758 44.7025L48.5771 44.6969ZM50.1962 50.1077L54.715 50.1055L51.9311 47.4606L50.1962 50.1077ZM56.4955 51.2473L57.1593 53.7901L58.6273 52.3053L56.4955 51.2473ZM56.6431 55.7153L54.8013 57.5801L57.0803 58.5212L57.1126 57.5162L56.6431 55.7153ZM54.2427 58.4157L53.3343 61.0707L56.984 61.4881L57.0496 59.5767L54.2427 58.4157ZM51.751 62.6516L52.1596 61.4586L50.5234 57.3561L49.1802 61.2409L51.751 62.6516ZM47.9555 65.163L48.1444 61.7725L45.8838 61.6647L43.8416 64.9686L47.9555 65.163ZM40.9152 62.7944L40.0813 66.2867L41.7514 67.873L42.5295 65.281L40.9152 62.7944ZM36.4439 66.3974L36.3365 67.913L38.5401 68.9599L38.8714 66.7322L36.4439 66.3974ZM35.3435 51.8932L36.3427 50.3145L34.0287 48.4126L35.3435 51.8932ZM37.0353 49.6167L38.363 49.0674L36.9775 47.4984C36.9111 47.4186 36.8705 47.3204 36.8613 47.217C36.852 47.1135 36.8745 47.0097 36.9257 46.9193C36.9562 46.8615 37.0007 46.8122 37.0551 46.776L38.765 45.5064L37.1315 43.7045L33.6566 46.8196L37.0353 49.6167ZM37.588 42.5394L40.0679 42.8809L36.3445 37.9716L37.588 42.5394ZM44.4682 43.4857C44.4446 43.4581 44.4227 43.4291 44.4026 43.399L43.1019 38.7792L41.5721 43.0866L44.4682 43.4857ZM45.1459 42.3989C45.4976 40.8857 45.8104 39.3566 45.9249 37.8156L45.7112 37.7908C45.0708 37.7153 44.4307 37.6407 43.7907 37.567L45.1459 42.3989ZM50.5173 38.3451L50.2876 40.6667L52.7883 42.9767C52.9283 41.6637 53.1381 40.3591 53.4169 39.0685C53.473 38.7991 53.5058 38.5458 53.5058 38.5458C52.5117 38.5187 51.5142 38.4416 50.5167 38.3427L50.5173 38.3451ZM53.5841 44.9462L52.4798 46.6309L55.8891 49.8719L55.9229 49.8813C57.0602 48.4533 58.0216 46.8776 58.957 45.3028L53.5841 44.9462ZM60.3681 45.5257C60.9463 47.0173 61.9243 48.3129 62.8967 49.5782L62.9017 49.57C63.6801 48.3462 64.3588 47.0619 64.9312 45.7293L64.9424 45.703L60.3192 45.3955C60.3344 45.4365 60.3501 45.48 60.3675 45.5232L60.3681 45.5257ZM63.891 56.6966L67.8737 57.4852L65.7245 54.1712L63.891 56.6966ZM63.2533 57.5749L61.2922 60.2764L63.1643 61.0526L66.4516 62.1015L68.0941 58.5354L63.2533 57.5749ZM66.6203 63.7522L64.9446 66.6743L68.2496 68.1825L66.6203 63.7522ZM64.9483 67.7601L65.2014 71.414L67.9127 69.1128L64.9483 67.7601ZM59.3638 66.9067L61.7101 70.1294L63.6072 67.1435L59.3638 66.9067ZM32.2512 65.1441L32.1997 62.0437L30.9527 61.8873C30.1909 63.4335 29.4111 64.948 28.4306 66.3356L32.2512 65.1441ZM27.2253 66.305L27.2512 66.2743C28.3115 64.9673 29.1132 63.3722 29.895 61.8002L27.9857 61.6666L27.8746 63.6441C27.8638 63.775 27.8045 63.8971 27.7082 63.9865L26.4362 65.106C26.6993 65.5071 26.9636 65.9062 27.2253 66.305ZM26.9022 63.3831L26.9983 61.5985L24.2272 61.4051C24.2708 61.4919 24.3195 61.5774 24.3638 61.6631C24.8272 62.5576 25.3487 63.4206 25.8916 64.2705L26.9022 63.3831ZM29.9156 60.812C29.6382 59.6598 29.3782 58.5034 29.1459 57.3385C27.6033 58.1709 26.2502 59.3502 24.8785 60.4596L29.9156 60.812ZM28.9285 55.42C29.0783 54.7074 29.2281 53.9948 29.3778 53.2822L27.917 53.8793C28.1748 54.3097 28.4954 54.8004 28.9262 55.4249L28.9285 55.42ZM30.5383 51.4157C30.5559 51.5508 30.5817 51.6726 30.5817 51.6726C31.1396 51.7474 31.6964 51.8251 32.2521 51.9058C32.9784 52.0105 33.7063 52.0893 34.416 52.227L32.5539 47.2699L29.2274 47.0192C29.8399 48.4238 30.3347 49.9005 30.535 51.4165L30.5383 51.4157ZM32.7666 46.2968L36.1217 43.285L32.1276 41.4625L29.3442 46.0411L32.7666 46.2968ZM36.522 42.3886L34.988 36.7453L32.6344 40.6157L36.522 42.3886ZM33.6347 37.0755C32.2836 37.7645 30.9437 38.4709 29.6481 39.2517L31.7362 40.201L33.6347 37.0755ZM40.8197 36.2342C42.2876 36.3979 43.754 36.5663 45.2188 36.7394L41.7229 33.6629C41.3446 34.4982 41.0107 35.3529 40.7225 36.2235L40.8197 36.2342ZM46.8198 36.1384L49.6379 33.8588L46.1003 33.2628C46.432 34.1959 46.674 35.1585 46.8231 36.1376L46.8198 36.1384ZM55.7739 38.7245C55.5877 38.7194 55.3985 38.7088 55.2248 38.6972L59.4635 43.8505C59.6343 43.5368 59.83 43.2373 60.0489 42.9551C60.1873 42.7693 60.3299 42.586 60.4749 42.4056L58.6246 40.6207C58.542 40.5454 58.4885 40.4434 58.4735 40.3326C58.4585 40.2218 58.483 40.1093 58.5427 40.0148L59.6635 38.1219C58.4153 38.5567 57.0984 38.7606 55.7772 38.7237L55.7739 38.7245ZM60.7632 38.198L59.5897 40.1816L61.1113 41.6494C61.4853 41.2264 61.8747 40.8163 62.2772 40.417C61.782 39.6739 61.2755 38.9353 60.7665 38.1972L60.7632 38.198ZM60.8406 43.5427C60.6282 43.8287 60.3919 44.1283 60.2589 44.4022L64.9494 44.7128C64.2953 43.5321 63.5799 42.3845 62.8359 41.2526C62.1185 41.9675 61.4528 42.7325 60.844 43.5419L60.8406 43.5427ZM67.2657 46.7771L67.9777 46.3165L66.8995 46.2571C67.0211 46.4323 67.1443 46.6054 67.269 46.7763L67.2657 46.7771ZM69.4211 46.557L67.8614 47.5661C68.551 48.443 69.2898 49.2842 70.0219 50.1263L70.0773 50.0253C70.4215 49.4167 70.7692 48.8127 71.1204 48.2134L69.4211 46.557ZM71.6345 47.3386C71.7915 47.0736 71.9498 46.8088 72.1093 46.5443L70.7432 46.4683L71.6345 47.3386ZM69.9385 51.6616L66.4937 53.5514L69.1123 57.5883L72.9591 55.1119L69.9385 51.6616ZM68.9967 58.921L67.4048 62.3768L71.5463 63.1481L68.9967 58.921ZM67.5351 63.4058L69.1356 67.7571L71.5728 64.1574L67.5351 63.4058ZM71.0808 66.642L69.6895 68.6964L72.0294 69.4099L71.0808 66.642ZM68.6354 69.7853L65.9198 72.0902L69.2545 72.5238L68.6354 69.7853ZM64.2687 72.3264L63.9947 68.3674L62.1725 71.2309C62.1737 71.2821 62.1705 71.3333 62.1629 71.384L60.9279 75.0666L63.6439 75.7588L64.2578 72.3501C64.2682 72.3388 64.272 72.3292 64.277 72.328L64.2687 72.3264ZM56.3762 69.0719L57.8746 69.0749L57.8322 66.5875L55.9452 65.8255L56.3762 69.0719ZM53.8415 64.9754L52.518 69.0623L55.3808 69.0689L54.9182 65.582C54.9152 65.5261 54.9194 65.47 54.9306 65.4151L53.8415 64.9754ZM55.5027 70.0552L52.3786 70.0485L51.7056 73.1682L55.7652 73.0969L55.5027 70.0552ZM51.4636 69.615L48.5747 66.6246L47.7691 69.4336L50.818 72.6483L51.4636 69.615ZM50.5604 73.8242L47.2947 70.368L45.2681 73.3325L50.5575 73.8266L50.5604 73.8242ZM41.6224 73.6853L41.4216 75.8466L43.7303 76.9076L44.1453 74.0594L41.6224 73.6853ZM37.3456 75.6571L37.3475 74.0853L35.7523 75.7401L37.3456 75.6571ZM36.8393 73.1902L35.7184 73.0807C35.5995 73.0453 35.4632 73.0291 35.3023 72.7576L35.2735 72.5761L35.3786 68.921L32.9825 70.6713L35.0105 75.0906L36.8393 73.1902ZM31.9651 70.2309L32.2621 66.172L30.4778 66.7287L30.0905 71.9267L31.9651 70.2309ZM29.057 72.5225L29.4653 67.0443L27.7602 67.5766L26.7992 70.9778L26.7 71.1629L26.5336 71.2906L26.3298 71.3397L26.1242 71.2971L25.9558 71.1729L24.0344 68.9907L24.4029 72.6072L29.057 72.5225ZM26.0964 69.8386L26.7904 67.3851C26.7556 67.3566 26.7229 67.3255 26.6926 67.2921C26.3546 66.7834 26.0188 66.2742 25.6851 65.7644L23.8904 67.3445C24.5418 68.1464 25.2726 68.8994 26.0999 69.8386L26.0964 69.8386ZM28.5156 56.5623L26.9159 54.2859L24.9159 55.104L24.0217 59.871C25.4572 58.6736 26.928 57.4738 28.5191 56.5623L28.5156 56.5623ZM22.2329 52.6415L22.1555 52.6838C21.3792 53.0995 20.6005 53.5051 19.8163 53.8876C19.3369 54.1205 18.7937 54.3503 18.3936 54.5123L20.1846 56.2913L23.803 54.5438L22.2329 52.6415ZM22.7451 50.8268C23.8229 49.8435 24.9212 48.8762 26.0618 47.961C26.5569 47.564 27.0505 47.1648 27.5739 46.8197L23.933 46.2169L21.1407 47.8865C21.7016 48.8513 22.2438 49.8258 22.749 50.8285L22.7451 50.8268ZM24.2364 45.2676L28.252 45.9308L31.2199 41.0483L28.804 39.9465L27.2043 43.1842C27.0408 43.4733 26.642 43.444 26.642 43.444L24.0822 42.8001C24.1339 43.6237 24.1866 44.4467 24.2403 45.2693L24.2364 45.2676ZM33.5667 36.0104C32.0896 35.7211 30.6118 35.4687 29.1288 35.4822L29.0916 38.4366C30.5408 37.5653 32.0541 36.7856 33.57 36.0096L33.5667 36.0104ZM35.299 34.2078C35.3544 34.354 35.4119 34.5093 35.4662 34.6619L38.0866 31.3029L37.5472 29.4557L33.1685 29.064C33.9096 30.7662 34.6396 32.4737 35.3023 34.2071L35.299 34.2078ZM40.1522 34.8447C40.7599 33.1683 41.556 31.4991 42.7428 30.1898C42.8087 30.1178 42.8255 30.0963 42.9526 29.9693L38.6133 29.5812L40.1522 34.8447ZM45.7028 32.2052L45.7314 32.2036L50.1383 32.9452C49.6046 32.1264 49.0795 31.3028 48.5709 30.4718L44.7456 30.1291C45.0895 30.8043 45.4131 31.4968 45.7018 32.2011L45.7028 32.2052ZM49.5491 30.1811C50.0686 31.0165 50.5985 31.8465 51.1388 32.671L52.7316 31.3919L51.2717 28.968C50.6813 29.3441 50.0926 29.7234 49.4996 30.0957L49.5491 30.1811ZM53.5172 30.7856L55.4682 29.025C55.2635 28.5921 55.0891 28.1453 54.9465 27.688C54.8641 27.4222 54.776 27.1472 54.72 26.8925C53.8298 27.3811 52.9627 27.9036 52.1035 28.4409L53.5172 30.7856ZM55.9483 29.9199L54.0355 31.6459L55.7148 34.428L57.3706 31.707C56.8217 31.1731 56.3433 30.5711 55.9473 29.9157L55.9483 29.9199ZM60.5466 35.4818C60.6389 35.7742 60.7357 36.0708 60.8117 36.3645L62.0706 35.2165L61.8017 32.2141L58.967 32.0877C59.647 33.1395 60.1783 34.2803 60.5456 35.4777L60.5466 35.4818ZM61.3074 37.2477L61.3735 37.3439C61.9156 38.1397 62.4573 38.9338 62.9999 39.7312C63.4953 39.2667 64.0062 38.815 64.5132 38.3731L62.5861 36.0801L61.3074 37.2477ZM64.9359 37.3442C65.1775 36.0144 65.4153 34.6873 65.5824 33.3466L63.3154 35.4146L64.9359 37.3442ZM65.8117 38.0447L67.2944 38.6009L68.7164 36.5251L66.5442 33.6505C66.357 35.1152 66.0822 36.5765 65.8115 38.0439L65.8117 38.0447ZM68.2451 38.9574L69.7445 39.5139C69.7573 39.5161 69.7688 39.5168 69.7818 39.5198C69.9856 39.5689 70.1249 39.8053 70.1249 39.8053C70.534 40.471 70.9473 41.1357 71.3527 41.804C71.6105 41.2293 71.8482 40.6445 72.0706 40.0537L69.3934 37.2805L68.2451 38.9574ZM69.673 40.964C69.6569 40.9372 69.6408 40.9104 69.6239 40.8838L66.4043 45.2231L72.3296 45.5667L72.3087 45.5235C71.5124 43.945 70.5832 42.459 69.672 40.9598L69.673 40.964ZM73.2235 46.6116C72.9334 47.0905 72.6466 47.5711 72.3631 48.0536L74.6611 50.2967L74.8136 46.7003L73.2235 46.6116ZM74.5809 51.6306C74.5566 51.6009 74.5356 51.5686 74.5183 51.5344L71.8492 48.9292C71.4501 49.616 71.0554 50.306 70.665 50.9994L73.7858 54.5632L76.4422 53.5521L74.5809 51.6306ZM73.629 55.8594L70.4189 57.9266L75.7882 59.2296L73.629 55.8594ZM70.1133 58.8669L72.693 63.1428L74.7626 61.9111C74.7836 61.8999 74.8033 61.8908 74.8207 61.8831L76.3267 60.3742L70.1133 58.8669ZM74.753 63.0579L72.7524 64.2485L72.6831 64.2845L71.7628 65.6453L75.9534 66.3619L74.753 63.0579ZM73.2109 70.6152L73.2369 72.8454L76.8781 71.3641L73.2109 70.6152ZM63.8024 77.2288L62.179 78.7379L64.6475 79.6982C64.366 78.8785 64.0847 78.0571 63.8036 77.2338L63.8024 77.2288ZM60.019 82.4549L59.5807 80.1942L56.4859 78.0886L55.3719 82.4301L60.019 82.4549ZM55.7551 76.815L55.8987 74.0734L51.6446 74.1486C51.656 74.1669 51.6668 74.1862 51.6774 74.2047L52.758 77.1317L55.7551 76.815ZM45.4107 74.3288L47.3647 77.7528L49.8151 74.7398L45.4107 74.3288ZM44.9377 75.4873L44.6695 77.3291L46.4571 78.151L44.9377 75.4873ZM44.521 78.3463L44.1569 80.8378L47.8718 82.3779L49.3658 80.5757L44.521 78.3463ZM37.3352 76.6402L35.7323 76.7238L37.3291 78.9553L37.3352 76.6402ZM34.0135 76.8134L29.9826 77.0223L31.5244 80.1503L34.0135 76.8134ZM34.2617 75.8133L32.2086 71.337L30.0626 73.2777L29.8591 76.0434L34.2617 75.8133ZM21.577 65.3978C21.4512 65.585 21.3244 65.7715 21.195 65.9551C21.039 66.1767 20.8855 66.4494 20.7023 66.6565L21.0641 69.9793L22.8033 67.481L21.577 65.3978ZM21.7296 63.3455C22.165 62.6386 22.5856 61.9212 23.007 61.2072L20.863 60.146C21.1744 61.2138 21.3971 62.3029 21.7312 63.3521L21.7296 63.3455ZM16.9861 50.366L18.002 53.6207C19.3318 53.0876 20.616 52.3902 21.8925 51.7008C21.9469 51.6719 21.9838 51.6394 22.0351 51.6086C21.5233 50.4993 20.951 49.4189 20.3208 48.3722L16.9861 50.366ZM22.595 45.8608C21.6515 45.7059 20.7033 45.5748 19.7494 45.5109L19.7759 45.5554C20.0689 46.0445 20.359 46.5347 20.6461 47.0258L22.595 45.8608ZM20.4163 41.8713L19.5208 44.4995C20.74 44.5258 21.9989 44.7643 23.2314 44.9697L23.2181 44.7617C23.1712 44.0211 23.125 43.2806 23.0794 42.5403L20.4163 41.8713ZM26.4985 42.3822L27.8648 39.6161C26.5257 39.3707 25.1858 39.1272 23.8453 38.8855L23.8673 39.2465L24.02 41.7591L26.4985 42.3822ZM27.5215 31.7074L23.3641 33.986L28.1137 38.0875L28.1525 35.0565C27.9413 33.9488 27.7306 32.8369 27.5203 31.7208L27.5215 31.7074ZM28.0572 29.2298L28.2385 30.1904L30.2203 29.0999L28.0572 29.2298ZM28.4303 31.209L28.8822 33.6066L31.0835 29.7552L28.4303 31.209ZM33.5613 28.1334C34.9006 28.2763 36.2494 28.3459 37.5923 28.4564C37.7517 27.1201 37.8942 25.7827 37.9456 24.4418L33.5613 28.1334ZM38.5733 28.5672L42.267 28.8978C41.1188 27.8597 40.0033 26.7752 38.8762 25.7119C38.8012 26.6781 38.6826 27.6304 38.5709 28.5827L38.5733 28.5672ZM39.5342 24.9724L43.2888 28.4502L43.2767 23.224L39.5342 24.9724ZM44.8369 29.1291L48.216 29.4452L47.3854 26.2502L44.8369 29.1291ZM47.6891 23.2492L47.6186 23.211L49.1577 29.1308L49.4056 28.9739C49.9303 28.6413 50.4561 28.3102 50.9832 27.9806L50.87 24.8206C49.7915 24.3415 48.7289 23.8226 47.6865 23.2639L47.6891 23.2492ZM53.905 26.1537C53.2258 25.8662 52.5484 25.5727 51.8728 25.2732L51.9485 27.3819C52.5587 27.0045 53.1767 26.6305 53.7996 26.2658L53.9531 26.1754L53.905 26.1537ZM55.7158 26.708C56.062 28.2406 56.8096 29.6537 57.8819 30.8022L57.8894 30.8004C58.5289 30.3687 59.118 29.8665 59.6453 29.3032L58.0128 28.8778C57.912 28.8552 57.8215 28.8002 57.755 28.7212C57.6885 28.6423 57.6497 28.5437 57.6446 28.4406C57.639 28.3899 57.6433 28.3385 57.6573 28.2895L57.9419 27.0948L55.7158 26.708ZM58.7284 28.0429L60.3678 28.4712C60.5901 28.1933 60.8023 27.9065 61.0059 27.6164L58.9165 27.2589L58.7284 28.0429ZM61.4879 28.6502C60.8239 29.5637 60.0419 30.3852 59.1622 31.0934L61.7163 31.2076L61.4879 28.6502ZM62.7981 32.2432L62.9876 34.3622L65.1927 32.3503L62.7981 32.2432ZM69.6055 31.9661L66.7715 32.2979L69.0606 35.3266L69.6055 31.9661ZM70.555 37.0491L72.4455 39.0083C72.7055 38.2682 72.9552 37.5219 73.2067 36.7796L70.555 37.0491ZM72.0125 42.8992C72.4354 43.6255 72.8417 44.3594 73.2153 45.1107C73.3031 45.2733 73.3815 45.4408 73.4501 45.6124L74.9946 45.7015L75.7071 41.2753L72.0125 42.8992ZM79.5029 52.3823L75.7633 47.6056L75.6082 51.2676L77.4463 53.1657L79.5029 52.3823ZM77.1916 54.3208L74.4798 55.3531L77.161 59.5371L79.7394 56.9498L77.1916 54.3208ZM76.0903 62.0059L79.7355 62.5866L78.4445 59.6487L76.0903 62.0059ZM79.336 63.5223L75.7634 62.9522L76.9224 66.1426L79.336 63.5223ZM76.202 67.4054L72.1544 66.7148L73.1356 69.6001L77.7256 70.5378L76.202 67.4054ZM72.304 74.8744L70.6977 76.9604L73.1383 78.398L72.304 74.8744ZM69.0994 82.7014L69.6738 77.6179C69.6497 77.6088 69.626 77.5978 69.6032 77.5867L67.7162 76.17L65.9637 80.1166L69.0994 82.7014ZM64.9926 81.0296L61.6152 82.9153L65.123 85.3492L64.9926 81.0296ZM58.764 88.4498L60.8196 86.5667L60.2942 83.86L56.9306 86.3129L58.764 88.4498ZM53.3247 87.2714C53.3638 87.3294 53.3862 87.3971 53.3894 87.467L53.913 89.0305L55.7359 86.1843C55.3288 85.2675 54.9211 84.3509 54.5129 83.4343L52.4992 84.8069L53.3247 87.2714ZM54.3858 82.3274L55.5386 77.8373L52.4842 78.1599L52.2697 78.1353L52.0872 78.0215L51.9699 77.8403L50.9096 74.9688L47.8114 78.7819L50.3729 79.9573C50.4391 79.9914 50.4971 80.0396 50.5428 80.0985C50.5885 80.1574 50.6207 80.2255 50.6373 80.2982C50.6539 80.3708 50.6544 80.4462 50.6387 80.5191C50.6231 80.5919 50.5917 80.6605 50.5468 80.7199L48.8329 82.7845L51.8612 84.0535L54.3858 82.3274ZM51.5184 84.9773L48.033 83.5169L45.4411 84.6869L45.3807 86.2561L48.0686 85.4083C48.1691 85.369 48.2811 85.371 48.3801 85.4139L52.0963 86.7188L51.5184 84.9773ZM51.4646 87.5387L48.2096 86.3944L45.3425 87.2985L45.2474 89.8917L51.4646 87.5387ZM41.1291 89.4609L43.9785 87.1186L41.8034 86.0412L41.7227 86.1027L39.364 87.1964L41.1291 89.4609ZM37.8594 86.7997L36.7449 85.2321L35.9262 87.6919L37.8594 86.7997ZM36.2084 83.7207L37.2599 80.5572L36.4278 79.394L33.6238 82.3072L32.3576 85.3507L36.2084 83.7207ZM28.3959 79.823L30.6734 80.6558L28.8408 76.9388L27.0107 76.9815L28.3959 79.823ZM21.7957 75.0673L23.4507 72.9434L23.037 68.8847L21.1393 71.6096L21.7957 75.0673ZM20.0718 65.8285C20.1273 65.7573 20.1909 65.6754 20.2421 65.6044C20.5308 65.2089 20.8073 64.8032 21.0764 64.3922L19.8167 60.0772L16.9317 62.4648L20.0718 65.8285Z" fill="#FFE395"/>
<path fill-rule="evenodd" clip-rule="evenodd" d="M41.7819 25.653C41.5665 25.9012 44.0478 26.3905 45.856 26.1112C47.4561 25.8635 48.7821 25.0447 48.8146 24.7538C48.8236 24.664 48.2428 24.1554 47.9838 23.691C47.2766 22.4241 46.6708 20.8216 46.4863 19.3675C46.2789 17.7305 45.9785 16.0825 45.8391 14.4405C45.702 12.8374 45.5814 11.2881 45.2266 9.71284C45.0311 8.84238 44.408 6.52725 44.3684 6.46491C44.3146 6.37971 43.8181 6.08649 43.0522 6.21042C41.9248 6.39422 41.9907 6.66055 41.9127 6.68983C41.8171 6.72599 42.2235 8.11532 42.423 8.8455C42.9662 10.8398 43.2782 13.3806 43.3134 15.4885C43.3334 16.7404 43.3496 18.1325 43.3762 19.3022C43.3913 19.9838 43.207 22.6362 43.1745 22.8324C42.9985 23.8011 42.8176 24.2618 42.5927 24.6455C42.4898 24.8184 41.9575 25.4539 41.784 25.6543L41.7819 25.653Z" fill="#926E57"/>
<path d="M66.1067 60.786C64.5992 60.3396 63.7391 58.7558 64.1854 57.2484C64.6317 55.741 66.2155 54.8808 67.7229 55.3271C69.2303 55.7734 70.0905 57.3572 69.6442 58.8647C69.1979 60.3721 67.6141 61.2323 66.1067 60.786Z" fill="#242424"/>
<path d="M66.2442 69.7039C64.032 70.008 62.0071 68.5697 61.7214 66.4915C61.4358 64.4133 62.9976 62.4821 65.2098 62.178C67.422 61.8739 69.4469 63.3122 69.7326 65.3904C70.0182 67.4686 68.4564 69.3999 66.2442 69.7039Z" fill="#DD6057"/>
<path d="M35.8611 73.8309C33.6773 74.2406 31.5949 72.9097 31.21 70.8582C30.825 68.8066 32.2833 66.8113 34.4671 66.4016C36.6509 65.9918 38.7333 67.3228 39.1182 69.3743C39.5032 71.4259 38.0449 73.4211 35.8611 73.8309Z" fill="#DD6057"/>
<path d="M33.5327 65.4476C32.0253 65.0013 31.1651 63.4175 31.6114 61.91C32.0578 60.4026 33.6416 59.5424 35.149 59.9887C36.6564 60.4351 37.5166 62.0189 37.0703 63.5263C36.6239 65.0337 35.0401 65.8939 33.5327 65.4476Z" fill="#242424"/>
<path d="M45.4876 63.2047C45.7392 64.6137 46.2297 66.0503 47.2137 67.1235C47.9794 67.96 49.001 68.5188 50.1183 68.7124C51.2662 68.9154 52.5637 68.794 53.5971 68.2376C54.6835 67.6544 55.4379 66.6455 55.8121 65.4845C56.2179 64.1886 56.253 62.8051 55.9135 61.4903C55.8674 61.2989 55.7133 61.1502 55.5031 61.1798C55.325 61.2043 55.1431 61.3988 55.1927 61.5902C55.7043 63.5878 55.4003 66.1218 53.6259 67.371C53.1535 67.6919 52.6162 67.9047 52.0522 67.9944C51.7864 68.0381 51.5178 68.0635 51.2485 68.0704C51.0238 68.0747 50.799 68.065 50.5755 68.0414C50.1056 68.0002 49.6456 67.8818 49.2143 67.6909C48.7678 67.4981 48.3584 67.229 48.0044 66.8955C47.5617 66.468 47.1976 65.9659 46.9287 65.4123C46.5799 64.6811 46.337 63.9039 46.2074 63.1041C46.1265 62.6443 45.4051 62.7417 45.4868 63.2049L45.4876 63.2047Z" fill="#242424"/>
<path d="M34.912 62.4824C34.5502 62.3221 34.3868 61.8989 34.5471 61.5371C34.7074 61.1753 35.1306 61.0119 35.4924 61.1722C35.8542 61.3325 36.0176 61.7557 35.8573 62.1175C35.6971 62.4793 35.2738 62.6427 34.912 62.4824Z" fill="white"/>
<path d="M67.2599 57.4148C67.1233 57.0434 67.3137 56.6316 67.6851 56.495C68.0566 56.3584 68.4684 56.5488 68.6049 56.9203C68.7415 57.2917 68.5511 57.7035 68.1797 57.84C67.8083 57.9766 67.3965 57.7862 67.2599 57.4148Z" fill="white"/>
<path d="M79.7769 14.5517C77.7483 13.3994 76.3654 11.8794 75.2482 9.68444C74.3234 7.8764 73.8117 6.65054 73.2049 3.36112C73.1922 3.28752 73.1606 3.21842 73.1131 3.16046C73.0655 3.1025 73.0036 3.05766 72.9334 3.03027C72.8632 3.00288 72.7871 2.99386 72.7124 3.0041C72.6376 3.01434 72.5668 3.04348 72.5068 3.0887C72.3994 3.18427 72.3313 3.31555 72.3155 3.45755C72.1936 4.13135 71.593 8.20546 69.3438 10.8271C68.3094 12.0325 66.7572 13.1764 65.2427 13.9394C65.1558 13.9829 65.086 14.0537 65.0441 14.1407C64.9988 14.2319 64.988 14.3363 65.0137 14.4348C65.0495 14.5465 65.1142 14.647 65.2013 14.7265C65.7057 15.2375 68.6895 17.7483 70.1333 20.8461C71.2969 23.3388 71.7648 25.2951 71.9329 25.6759C71.9622 25.7566 72.0118 25.8285 72.077 25.8848C72.1423 25.9411 72.221 25.98 72.3057 25.9978C72.4201 26.0086 72.5348 25.9799 72.6302 25.9166C72.7257 25.8533 72.7962 25.7594 72.8296 25.6506C72.9868 25.2324 73.5607 23.029 74.2527 21.6862C75.8549 18.5523 76.8491 17.9749 79.8573 15.2484C79.9082 15.202 79.9474 15.1445 79.9717 15.0804C79.9961 15.0164 80.0049 14.9476 79.9974 14.8795C79.9896 14.8115 79.9655 14.7463 79.9272 14.6893C79.8888 14.6323 79.8373 14.5851 79.7769 14.5517Z" fill="#FFD79B"/>
<path d="M98.7022 44.2417C97.6722 43.7724 96.6193 43.1021 95.9371 42.4212C94.4791 40.9701 94.1667 38.8348 94.1052 38.4814C94.0948 38.4012 94.0679 38.3242 94.0265 38.2555C93.985 38.1868 93.9298 38.128 93.8647 38.0829C93.8026 38.041 93.7321 38.0141 93.6585 38.0042C93.5849 37.9944 93.5101 38.0018 93.4397 38.026C93.3592 38.0489 93.2859 38.0933 93.2274 38.1548C93.1689 38.2163 93.1272 38.2927 93.1065 38.3762C92.6118 40.0657 92.2327 40.6811 91.5558 41.5866C90.7351 42.6811 89.753 43.4125 88.3387 43.9227C88.2523 43.9543 88.1757 44.0094 88.1171 44.0822C88.0585 44.155 88.0201 44.2429 88.006 44.3364C87.9919 44.4298 88.0026 44.5255 88.037 44.6133C88.0714 44.701 88.1282 44.7775 88.2013 44.8346C90.2206 46.4092 90.9017 46.7519 91.9359 48.4801C92.3796 49.2223 92.7232 50.4134 92.8222 50.6443C92.8559 50.7412 92.9158 50.826 92.9949 50.8887C93.0739 50.9514 93.1688 50.9894 93.2682 50.9981C93.3676 51.0068 93.4673 50.9859 93.5555 50.9378C93.6437 50.8898 93.7167 50.8166 93.7657 50.727C93.8938 50.5294 94.2719 49.4983 95.155 48.2105C96.2308 46.6391 98.3616 45.4533 98.723 45.203C98.8308 45.1388 98.9145 45.0391 98.9606 44.9198C99.0067 44.8006 99.0125 44.6688 98.9771 44.5457C98.9552 44.4776 98.9193 44.4152 98.8718 44.3627C98.8244 44.3103 98.7665 44.269 98.7022 44.2417Z" fill="#FFD79B"/>
<path d="M14.5939 80.0822C13.1881 79.3239 11.7539 78.2412 10.8238 77.1411C8.83574 74.7986 8.40973 71.3474 8.32453 70.7765C8.31125 70.6468 8.27504 70.5222 8.21839 70.4113C8.16175 70.3005 8.08603 70.206 7.9965 70.1345C7.91226 70.0664 7.8164 70.0227 7.71624 70.0068C7.61608 69.9908 7.51426 70.0031 7.41856 70.0425C7.30857 70.0789 7.20844 70.1503 7.12837 70.2494C7.0483 70.3484 6.99114 70.4716 6.96273 70.6065C6.28822 73.3359 5.77133 74.3301 4.84832 75.7929C3.72934 77.561 2.39168 78.7426 0.461874 79.5668C0.343942 79.6178 0.239502 79.7068 0.159633 79.8245C0.0797641 79.9421 0.0274451 80.084 0.00822698 80.235C-0.0109911 80.3861 0.00360823 80.5406 0.0504759 80.6823C0.0973436 80.8241 0.174732 80.9476 0.274431 81.04C3.02927 83.5837 3.95655 84.1372 5.36805 86.9308C5.97297 88.1281 6.44158 90.0541 6.57648 90.4254C6.62241 90.5818 6.70415 90.7189 6.81196 90.8202C6.91978 90.9215 7.04913 90.9828 7.18465 90.9969C7.32017 91.011 7.45614 90.9772 7.5764 90.8996C7.69666 90.8219 7.79614 90.7037 7.86302 90.559C8.03768 90.2398 8.55315 88.574 9.75733 86.4936C11.2242 83.955 14.1282 82.0394 14.6223 81.6351C14.7693 81.5314 14.8834 81.3702 14.9463 81.1776C15.0091 80.9849 15.0171 80.772 14.9688 80.5732C14.9383 80.4636 14.8891 80.3632 14.8244 80.2786C14.7598 80.1939 14.6813 80.127 14.5939 80.0822Z" fill="#FFD79B"/>
</svg>
