<svg width="100" height="100" viewBox="0 0 100 100" fill="none" xmlns="http://www.w3.org/2000/svg">
<path d="M64.3601 49.6681C59.7223 35.3497 39.8082 23.309 39.8082 23.309C39.8082 23.309 30.7324 44.7339 35.3702 59.0523C40.008 73.3706 50.2588 82.8772 58.263 80.2843C66.2673 77.6915 68.9979 63.9813 64.3601 49.6681Z" fill="#FDE1CC"/>
<path d="M58.2269 80.9477C68.4553 79.8812 76.232 74.0771 74.4489 56.9781C72.6658 39.8791 59.9566 18.1716 51.7749 19.0244L58.2269 80.9477Z" fill="#656565"/>
<path d="M27.1455 27.0027C20.0182 31.1099 22.4491 56.1459 31.0304 71.0431C39.6118 85.9403 49.3164 86.0816 58.2269 80.9476L27.1455 27.0027Z" fill="#656565"/>
<path d="M26.384 35.4118C25.6707 41.5278 26.2444 47.7765 28.2464 53.6082C28.3911 54.0337 28.7253 54.5574 29.1594 54.0992C29.5936 53.6409 29.504 52.6555 29.3472 52.1386C27.711 46.9905 27.1578 41.5594 27.7226 36.187C27.776 35.6909 27.7554 34.5831 27.2058 34.3315C26.6562 34.08 26.4322 35.062 26.3909 35.4118H26.384Z" fill="#878787"/>
<path d="M37.0603 73.4293C37.3859 73.8755 37.715 74.3183 38.0371 74.7696C38.094 74.8529 38.1794 74.9123 38.2772 74.9368C38.375 74.9612 38.4784 74.9489 38.5678 74.9023C38.7797 74.7834 38.9123 74.4388 38.9606 74.2252C39.1036 73.5981 39.0829 72.7711 38.666 72.2422C38.3318 71.8184 38.0044 71.3808 37.6754 70.9587C37.2826 70.4419 36.8587 71.1155 36.7726 71.4911C36.6262 72.1234 36.6658 72.89 37.0603 73.4293Z" fill="#878787"/>
<path d="M31.0132 48.8068C33.3117 57.9452 37.72 66.4177 43.8844 73.5447C44.3358 74.0616 44.7355 73.3983 44.8492 72.9762C45.0215 72.3543 44.9767 71.4257 44.5425 70.9088C38.75 63.991 34.5488 55.8845 32.2364 47.1632C32.1055 46.667 31.6868 46.1192 31.2217 46.6153C30.7565 47.1115 30.8616 48.2107 31.0132 48.8085V48.8068Z" fill="#878787"/>
<path d="M50.1503 78.3824L50.8067 79.037C50.9565 79.1869 51.1288 79.2868 51.3356 79.1697C51.5423 79.0525 51.6801 78.7097 51.7249 78.4961C51.8127 78.1309 51.8267 77.752 51.7663 77.3814C51.7146 77.0954 51.6457 76.7371 51.432 76.52L50.7774 75.8636C50.6275 75.7154 50.4552 75.6155 50.2485 75.7309C50.0417 75.8464 49.9039 76.1927 49.8591 76.4063C49.7695 76.7712 49.7554 77.1505 49.8178 77.521C49.8694 77.8052 49.9384 78.1653 50.1503 78.3824Z" fill="#878787"/>
<path d="M55.6995 38.1838C57.3074 45.823 58.1729 53.5999 58.2837 61.4057C58.2923 61.8347 58.4319 62.9769 59.059 62.9562C59.6861 62.9356 59.7585 61.7606 59.7567 61.3643C59.6982 53.1878 58.6455 45.0286 56.828 37.0605C56.7401 36.6729 56.4196 36.1871 56.013 36.5023C55.6065 36.8176 55.591 37.7479 55.684 38.1786L55.6995 38.1838Z" fill="#878787"/>
<path d="M57.0778 27.6506C61.5793 33.9493 64.9743 40.9692 67.1166 48.4088C67.2631 48.9102 67.6972 49.52 68.1848 48.9825C68.6723 48.445 68.5845 47.3165 68.4053 46.6894C66.1481 38.8572 62.5327 31.4823 57.7238 24.9009C57.2966 24.3135 56.8624 25.1094 56.7711 25.4919C56.5988 26.1672 56.6591 27.0683 57.0778 27.6506Z" fill="#878787"/>
<path d="M67.9832 56.2286C68.569 61.7675 69.1323 67.6923 66.3896 72.7815C66.0451 73.4086 66.1088 74.4612 66.4465 75.0763C66.7841 75.6913 67.2269 75.6241 67.5353 75.0487C70.7604 69.0292 70.0713 61.9243 69.3081 55.3965C69.2615 54.9916 68.9876 54.113 68.426 54.3628C67.8643 54.6126 67.9367 55.7686 67.9832 56.2217V56.2286Z" fill="#878787"/>
<path d="M61.5743 69.9302V72.2251C61.5743 72.6334 61.7225 73.7084 62.31 73.6929C62.8974 73.6774 62.975 72.5679 62.9732 72.1906V69.8958C62.9732 69.4927 62.8285 68.4296 62.2445 68.4434C61.6605 68.4572 61.5898 69.5564 61.5881 69.9302H61.5743Z" fill="#878787"/>
<path d="M61.0803 36.3756C62.2431 33.9839 61.247 31.1023 58.8553 29.9394C56.4637 28.7765 53.5821 29.7727 52.4192 32.1644C51.2563 34.556 52.2525 37.4376 54.6442 38.6005C57.0358 39.7634 59.9174 38.7672 61.0803 36.3756Z" fill="#242424"/>
<path d="M36.2549 44.1835C38.542 42.8538 39.3181 39.9218 37.9884 37.6347C36.6587 35.3476 33.7267 34.5715 31.4396 35.9012C29.1525 37.2309 28.3764 40.1629 29.7061 42.45C31.0358 44.7371 33.9678 45.5132 36.2549 44.1835Z" fill="#242424"/>
<path d="M56.5961 34.0798C56.9194 33.3478 56.5881 32.4923 55.8562 32.169C55.1242 31.8457 54.2687 32.177 53.9454 32.909C53.6221 33.641 53.9534 34.4965 54.6854 34.8198C55.4174 35.1431 56.2728 34.8118 56.5961 34.0798Z" fill="white"/>
<path d="M32.5798 40.6765C33.38 40.6765 34.0287 40.0278 34.0287 39.2276C34.0287 38.4274 33.38 37.7787 32.5798 37.7787C31.7796 37.7787 31.131 38.4274 31.131 39.2276C31.131 40.0278 31.7796 40.6765 32.5798 40.6765Z" fill="white"/>
<path d="M52.5467 41.0007C52.433 40.5579 52.0661 40.2168 51.582 40.2908C51.165 40.3546 50.7584 40.8077 50.8722 41.2556C50.9704 41.6416 51.0169 41.9999 50.8601 42.2893C50.6403 42.625 50.3219 42.8844 49.9487 43.0318C49.1269 43.3919 48.0536 43.3178 47.5368 42.515C47.1267 41.8689 46.1258 42.2841 46.0379 42.9457C45.9294 43.7468 45.5331 44.5342 44.7596 44.8667C43.986 45.1992 43.2728 44.9132 42.8524 44.2378C42.6112 43.8502 41.991 43.8485 41.662 44.1103C41.2709 44.4273 41.2933 44.9115 41.5362 45.3025C42.3321 46.5843 43.9481 46.9702 45.3264 46.462C46.2138 46.1117 46.9262 45.4241 47.3076 44.5497C48.3172 45.0665 49.6248 45.0355 50.6413 44.5876C52.0816 43.9432 52.943 42.5702 52.5467 41.0007Z" fill="#242424"/>
<path d="M78.7769 18.5517C76.7483 17.3994 75.3654 15.8794 74.2482 13.6844C73.3234 11.8764 72.8117 10.6505 72.2049 7.36112C72.1922 7.28752 72.1606 7.21842 72.1131 7.16046C72.0655 7.1025 72.0036 7.05766 71.9334 7.03027C71.8632 7.00288 71.7871 6.99386 71.7124 7.0041C71.6376 7.01434 71.5668 7.04348 71.5068 7.0887C71.3994 7.18427 71.3313 7.31555 71.3155 7.45755C71.1936 8.13135 70.593 12.2055 68.3438 14.8271C67.3094 16.0325 65.7572 17.1764 64.2427 17.9394C64.1558 17.9829 64.086 18.0537 64.0441 18.1407C63.9988 18.2319 63.988 18.3363 64.0137 18.4348C64.0495 18.5465 64.1142 18.647 64.2013 18.7265C64.7057 19.2375 67.6895 21.7483 69.1333 24.8461C70.2969 27.3388 70.7648 29.2951 70.9329 29.6759C70.9622 29.7566 71.0118 29.8285 71.077 29.8848C71.1423 29.9411 71.221 29.98 71.3057 29.9978C71.4201 30.0086 71.5348 29.9799 71.6302 29.9166C71.7257 29.8533 71.7962 29.7594 71.8296 29.6506C71.9868 29.2324 72.5607 27.029 73.2527 25.6862C74.8549 22.5523 75.8491 21.9749 78.8573 19.2484C78.9082 19.202 78.9474 19.1445 78.9717 19.0804C78.9961 19.0164 79.0049 18.9476 78.9974 18.8795C78.9896 18.8115 78.9655 18.7463 78.9272 18.6893C78.8888 18.6323 78.8373 18.5851 78.7769 18.5517Z" fill="#FFD79B"/>
<path d="M19.648 54.202C18.4308 53.6604 17.1864 52.8871 16.3803 52.1013C14.6571 50.427 14.2879 47.9632 14.2153 47.5555C14.2029 47.463 14.1712 47.3741 14.1222 47.2948C14.0732 47.2156 14.008 47.1477 13.931 47.0957C13.8576 47.0473 13.7743 47.0163 13.6874 47.0049C13.6004 46.9935 13.512 47.0021 13.4288 47.03C13.3336 47.0564 13.247 47.1077 13.1779 47.1787C13.1087 47.2496 13.0594 47.3377 13.0349 47.434C12.4503 49.3835 12.0023 50.0936 11.2023 51.1384C10.2324 52.4013 9.07176 53.2452 7.40033 53.8339C7.29811 53.8703 7.20759 53.9339 7.13836 54.0179C7.06913 54.102 7.02379 54.2033 7.00713 54.3112C6.99047 54.4191 7.00313 54.5295 7.04375 54.6307C7.08437 54.7319 7.15145 54.8202 7.23786 54.8861C9.62439 56.703 10.4293 57.0983 11.6515 59.0924C12.1758 59.9488 12.582 61.3232 12.6989 61.5896C12.7387 61.7013 12.8096 61.7992 12.903 61.8716C12.9965 61.9439 13.1086 61.9877 13.2261 61.9978C13.3435 62.0078 13.4614 61.9837 13.5656 61.9283C13.6698 61.8728 13.7561 61.7884 13.814 61.685C13.9654 61.457 14.4122 60.2673 15.4559 58.7813C16.7273 56.9682 19.2456 55.6 19.6726 55.3112C19.8 55.2371 19.899 55.122 19.9534 54.9844C20.0079 54.8468 20.0148 54.6947 19.973 54.5527C19.9471 54.4742 19.9046 54.4021 19.8485 54.3416C19.7925 54.2811 19.7241 54.2335 19.648 54.202Z" fill="#FFD79B"/>
<path d="M34.6481 82.2015C33.4297 81.6599 32.1867 80.8865 31.3806 80.1008C29.6576 78.4276 29.2884 75.9624 29.2146 75.5546C29.2031 75.462 29.1717 75.373 29.1226 75.2938C29.0735 75.2146 29.0079 75.1472 28.9303 75.0961C28.8573 75.0474 28.7742 75.0162 28.6874 75.0048C28.6006 74.9935 28.5124 75.0022 28.4294 75.0304C28.3341 75.0564 28.2473 75.1074 28.1779 75.1781C28.1085 75.2489 28.059 75.3369 28.0344 75.4332C27.4498 77.3828 27.0018 78.0929 26.2019 79.1378C25.2321 80.4007 24.0728 81.2447 22.4003 81.8334C22.2981 81.8699 22.2076 81.9334 22.1383 82.0175C22.0691 82.1015 22.0238 82.2028 22.0071 82.3107C21.9905 82.4186 22.0031 82.529 22.0437 82.6302C22.0844 82.7315 22.1514 82.8197 22.2378 82.8857C24.6254 84.7026 25.429 85.098 26.6523 87.0934C27.1766 87.9486 27.5827 89.3244 27.6996 89.5896C27.7394 89.7013 27.8103 89.7992 27.9037 89.8715C27.9971 89.9439 28.1093 89.9877 28.2267 89.9978C28.3441 90.0078 28.462 89.9837 28.5662 89.9283C28.6704 89.8728 28.7567 89.7884 28.8146 89.685C28.966 89.457 29.4127 88.2672 30.4564 86.7811C31.7276 84.9679 34.2444 83.5996 34.6727 83.3108C34.8001 83.2367 34.899 83.1216 34.9534 82.984C35.0079 82.8464 35.0148 82.6943 34.973 82.5523C34.9465 82.474 34.9039 82.4023 34.8479 82.3418C34.7918 82.2814 34.7238 82.2336 34.6481 82.2015Z" fill="#FFD79B"/>
</svg>
