<svg width="100" height="100" viewBox="0 0 100 100" fill="none" xmlns="http://www.w3.org/2000/svg">
<path fill-rule="evenodd" clip-rule="evenodd" d="M72.3702 83.1331C76.6633 74.5744 78.056 59.2753 67.9383 54.1306C59.4686 49.8244 55.955 53.3223 49.5972 53.4297C44.3569 53.5175 44.256 50.1546 38.1995 50.8751C28.0215 52.0908 23.5777 64.7383 25.7393 73.6023C28.1446 83.4672 33.4884 92.9377 43.7856 95.9745C55.4283 99.4095 66.767 93.9635 72.2327 83.3977L72.3702 83.1331Z" fill="#DD6057"/>
<path fill-rule="evenodd" clip-rule="evenodd" d="M49.4321 54.7032C48.346 54.7674 46.5119 54.7333 45.739 55.6595C44.3975 57.2657 46.3246 58.6924 47.8062 58.9767C49.8238 59.3697 52.0981 59.1077 53.8549 58.0596C54.7287 57.5356 57.7079 55.1316 55.6288 54.1294C55.1047 53.8792 53.8877 54.4045 53.3309 54.4687C52.0444 54.6206 50.7199 54.6272 49.4321 54.7032Z" fill="#CE504D"/>
<path d="M62.8185 77.5063C65.4182 77.5063 67.5256 75.3173 67.5256 72.6171C67.5256 69.9169 65.4182 67.7279 62.8185 67.7279C60.2188 67.7279 58.1114 69.9169 58.1114 72.6171C58.1114 75.3173 60.2188 77.5063 62.8185 77.5063Z" fill="#242424"/>
<path fill-rule="evenodd" clip-rule="evenodd" d="M44.4827 71.4604C44.7106 74.1499 42.7967 76.5225 40.2066 76.7596C37.6166 76.9967 35.3318 75.0081 35.1039 72.3185C34.8759 69.6289 36.79 67.2563 39.38 67.0192C41.97 66.7821 44.2534 68.7708 44.4827 71.4604Z" fill="#242424"/>
<path d="M43.6661 82.7949C43.7594 80.9203 41.9329 79.3061 39.5865 79.1892C37.2401 79.0724 35.2623 80.4973 35.169 82.3719C35.0757 84.2464 36.9021 85.8607 39.2486 85.9775C41.595 86.0943 43.5728 84.6694 43.6661 82.7949Z" fill="#F7877E"/>
<path d="M67.0357 83.578C67.0475 81.7012 65.1526 80.1678 62.8034 80.1531C60.4541 80.1383 58.5401 81.6478 58.5283 83.5246C58.5165 85.4014 60.4114 86.9348 62.7607 86.9496C65.1099 86.9643 67.0239 85.4549 67.0357 83.578Z" fill="#F7877E"/>
<path fill-rule="evenodd" clip-rule="evenodd" d="M63.133 71.5141C63.1107 71.7017 63.0512 71.8831 62.9582 72.0476C62.8652 72.2121 62.7404 72.3565 62.591 72.4723C62.4417 72.5881 62.2708 72.6731 62.0883 72.7222C61.9058 72.7714 61.7154 72.7838 61.5281 72.7586C61.1495 72.6934 60.8117 72.4821 60.5875 72.1701C60.3632 71.8581 60.2705 71.4706 60.3294 71.0909C60.352 70.9033 60.4117 70.722 60.5049 70.5576C60.5981 70.3931 60.723 70.2489 60.8724 70.1331C61.0219 70.0173 61.1928 69.9324 61.3752 69.8831C61.5577 69.8339 61.7482 69.8214 61.9355 69.8463C62.3141 69.9116 62.6517 70.123 62.8758 70.435C63.0998 70.747 63.1922 71.1346 63.133 71.5141Z" fill="white"/>
<path fill-rule="evenodd" clip-rule="evenodd" d="M39.6537 70.9271C39.6924 71.3088 39.579 71.6904 39.3382 71.9891C39.0973 72.2878 38.7485 72.4795 38.3673 72.5227C38.1785 72.5366 37.9889 72.513 37.8093 72.4533C37.6298 72.3935 37.4639 72.2987 37.3211 72.1745C37.1784 72.0503 37.0616 71.899 36.9777 71.7294C36.8937 71.5598 36.8441 71.3753 36.8318 71.1865C36.7928 70.8048 36.9061 70.4232 37.1471 70.1246C37.388 69.826 37.737 69.6347 38.1183 69.5921C38.3069 69.578 38.4965 69.6015 38.6761 69.6611C38.8556 69.7207 39.0216 69.8153 39.1644 69.9395C39.3071 70.0636 39.4239 70.2148 39.5079 70.3843C39.5919 70.5538 39.6414 70.7383 39.6537 70.9271Z" fill="white"/>
<path d="M47.8614 77.3058C48.9153 78.2386 50.2742 78.7535 51.6816 78.7535C53.089 78.7535 54.4478 78.2386 55.5018 77.3058C56.3127 76.5918 55.2699 75.2569 54.4537 75.9735C52.7886 77.4369 50.4553 77.3648 48.8361 75.9119C48.4981 75.608 47.9282 75.7469 47.6793 76.1006C47.3989 76.5015 47.5221 76.9967 47.8614 77.3019V77.3058Z" fill="#242424"/>
<path d="M27.7018 8.41036C33.6181 12.4519 38.6004 17.7826 42.3537 23.881C43.1869 25.237 44.0948 26.906 44.8429 28.444C45.2307 29.2432 45.5996 30.0519 45.9499 30.8703C46.1175 31.2633 46.2813 31.6563 46.4411 32.0494C46.5263 32.2629 46.6115 32.4778 46.694 32.6926L46.8001 32.9677C46.6875 32.6717 46.8407 33.0765 46.8604 33.1302C47.4814 34.8272 48.0181 36.5512 48.4705 38.3024C48.5766 38.7163 48.6787 39.1303 48.7744 39.5469C48.7953 39.6334 48.9133 40.1522 48.8635 39.9321C48.8072 39.6779 48.8779 39.9976 48.8845 40.029C48.9172 40.1902 48.9513 40.3513 48.984 40.5111C49.1587 41.3801 49.3115 42.2535 49.4425 43.1313C49.5932 44.1374 49.7046 45.1462 49.8054 46.1589C49.8329 46.4432 49.7936 46.0279 49.7923 46.0069C49.8028 46.1707 49.8186 46.3344 49.829 46.4982C49.8461 46.7275 49.8605 46.9567 49.8736 47.186C49.9041 47.71 49.9264 48.2341 49.9403 48.7581C49.9652 49.742 49.9718 50.7232 49.9469 51.711L49.9351 52.104C49.9351 51.8983 49.9482 51.7962 49.9351 52.0634C49.922 52.3307 49.9089 52.5874 49.8932 52.8495C49.8618 53.3735 49.8225 53.9005 49.7753 54.4307C49.7032 55.2456 49.7295 56.8321 50.5993 57.2749C51.4692 57.7177 51.8334 56.1312 51.8884 55.6176C52.7308 47.731 51.7391 39.6347 49.2067 32.1306C46.7595 24.8701 42.9079 18.0669 37.7802 12.3602C34.922 9.17336 31.6833 6.34955 28.1368 3.95217C27.3403 3.41635 26.9577 5.14827 26.9223 5.58977C26.8542 6.45049 26.8896 7.8444 27.7084 8.39987L27.7018 8.41036Z" fill="#926E57"/>
<path d="M68.7769 28.5517C66.7483 27.3994 65.3654 25.8794 64.2481 23.6844C63.3234 21.8764 62.8116 20.6505 62.2049 17.3611C62.1922 17.2875 62.1606 17.2184 62.113 17.1605C62.0655 17.1025 62.0036 17.0577 61.9334 17.0303C61.8632 17.0029 61.7871 16.9939 61.7123 17.0041C61.6376 17.0143 61.5668 17.0435 61.5067 17.0887C61.3994 17.1843 61.3313 17.3155 61.3155 17.4575C61.1936 18.1313 60.5929 22.2055 58.3438 24.8271C57.3094 26.0325 55.7571 27.1764 54.2427 27.9394C54.1558 27.9829 54.0859 28.0537 54.0441 28.1407C53.9987 28.2319 53.9879 28.3363 54.0136 28.4348C54.0495 28.5465 54.1142 28.647 54.2013 28.7265C54.7057 29.2375 57.6895 31.7483 59.1333 34.8461C60.2969 37.3388 60.7647 39.2951 60.9329 39.6759C60.9621 39.7566 61.0118 39.8285 61.077 39.8848C61.1423 39.9411 61.221 39.98 61.3057 39.9978C61.4201 40.0086 61.5347 39.9799 61.6302 39.9166C61.7257 39.8533 61.7961 39.7594 61.8296 39.6506C61.9868 39.2324 62.5606 37.029 63.2527 35.6862C64.8549 32.5523 65.8491 31.9749 68.8573 29.2484C68.9082 29.202 68.9474 29.1445 68.9717 29.0804C68.996 29.0164 69.0048 28.9476 68.9974 28.8795C68.9896 28.8115 68.9655 28.7463 68.9272 28.6893C68.8888 28.6323 68.8373 28.5851 68.7769 28.5517Z" fill="#FFD79B"/>
<path d="M31.648 39.202C30.4307 38.6604 29.1864 37.8871 28.3802 37.1013C26.6571 35.427 26.2879 32.9632 26.2152 32.5555C26.2029 32.463 26.1712 32.3741 26.1221 32.2948C26.0731 32.2156 26.008 32.1477 25.9309 32.0957C25.8576 32.0473 25.7743 32.0163 25.6873 32.0049C25.6004 31.9935 25.512 32.0021 25.4288 32.03C25.3336 32.0564 25.247 32.1077 25.1778 32.1787C25.1087 32.2496 25.0594 32.3377 25.0349 32.434C24.4503 34.3835 24.0023 35.0936 23.2022 36.1384C22.2324 37.4013 21.0717 38.2452 19.4003 38.8339C19.2981 38.8703 19.2076 38.9339 19.1383 39.0179C19.0691 39.102 19.0238 39.2033 19.0071 39.3112C18.9904 39.4191 19.0031 39.5295 19.0437 39.6307C19.0843 39.7319 19.1514 39.8202 19.2378 39.8861C21.6244 41.703 22.4293 42.0983 23.6515 44.0924C24.1758 44.9488 24.582 46.3232 24.6989 46.5896C24.7387 46.7013 24.8096 46.7992 24.903 46.8716C24.9964 46.9439 25.1086 46.9877 25.226 46.9978C25.3435 47.0078 25.4613 46.9837 25.5656 46.9283C25.6698 46.8728 25.756 46.7884 25.814 46.685C25.9654 46.457 26.4122 45.2673 27.4559 43.7813C28.7273 41.9682 31.2455 40.6 31.6726 40.3112C31.8 40.2371 31.8989 40.122 31.9534 39.9844C32.0079 39.8468 32.0148 39.6947 31.9729 39.5527C31.947 39.4742 31.9046 39.4021 31.8485 39.3416C31.7924 39.2811 31.724 39.2335 31.648 39.202Z" fill="#FFD79B"/>
<path d="M87.648 55.2015C86.4297 54.6599 85.1867 53.8865 84.3806 53.1008C82.6576 51.4276 82.2884 48.9624 82.2146 48.5546C82.2031 48.462 82.1717 48.373 82.1226 48.2938C82.0735 48.2146 82.0079 48.1472 81.9303 48.0961C81.8573 48.0474 81.7742 48.0162 81.6874 48.0048C81.6006 47.9935 81.5123 48.0022 81.4294 48.0304C81.3341 48.0564 81.2473 48.1074 81.1779 48.1781C81.1085 48.2489 81.059 48.3369 81.0343 48.4332C80.4498 50.3828 80.0018 51.0929 79.2018 52.1378C78.2321 53.4007 77.0728 54.2447 75.4003 54.8334C75.2981 54.8699 75.2075 54.9334 75.1383 55.0175C75.0691 55.1015 75.0238 55.2028 75.0071 55.3107C74.9904 55.4186 75.0031 55.529 75.0437 55.6302C75.0843 55.7315 75.1514 55.8197 75.2378 55.8857C77.6253 57.7026 78.429 58.098 79.6523 60.0934C80.1765 60.9486 80.5827 62.3244 80.6996 62.5896C80.7394 62.7013 80.8102 62.7992 80.9037 62.8715C80.9971 62.9439 81.1092 62.9877 81.2267 62.9978C81.3441 63.0078 81.462 62.9837 81.5662 62.9283C81.6704 62.8728 81.7566 62.7884 81.8146 62.685C81.966 62.457 82.4127 61.2672 83.4563 59.7811C84.7276 57.9679 87.2444 56.5996 87.6726 56.3108C87.8 56.2367 87.8989 56.1216 87.9534 55.984C88.0079 55.8464 88.0148 55.6943 87.9729 55.5523C87.9465 55.474 87.9038 55.4023 87.8478 55.3418C87.7918 55.2814 87.7237 55.2336 87.648 55.2015Z" fill="#FFD79B"/>
</svg>
