<svg width="100" height="100" viewBox="0 0 100 100" fill="none" xmlns="http://www.w3.org/2000/svg">
<path fill-rule="evenodd" clip-rule="evenodd" d="M47.4569 1.04724C47.003 1.28773 46.5761 1.7069 46.234 2.3962C44.3101 6.26609 44.8216 11.1073 43.3837 13.5672C42.9061 14.3835 41.9839 16.266 42.8223 17.2212C42.8223 17.2212 44.5574 15.4928 45.5566 15.072C46.2831 14.7663 49.5713 14.436 49.6873 14.4335C50.944 14.4013 52.0736 14.5182 52.4326 14.6579C53.4734 15.0644 55.537 16.0907 55.6022 15.8019C55.764 15.0754 55.0662 11.8448 54.3041 10.6051C54.05 10.1978 54.4802 4.77232 53.8688 2.59181C53.6783 1.91437 52.6748 0.3427 50.7001 1.24963C50.6086 1.2437 50.3157 1.10652 49.9126 0.979496C49.5083 1.09853 49.0906 1.16624 48.6695 1.18104C48.2621 1.17165 47.8564 1.12688 47.4569 1.04724Z" fill="#A5C499"/>
<path fill-rule="evenodd" clip-rule="evenodd" d="M47.4568 1.04723C47.8564 1.12687 48.2621 1.17163 48.6695 1.18102C49.0906 1.16623 49.5083 1.09852 49.9126 0.979483C49.2572 0.777097 48.3104 0.593341 47.4568 1.04723Z" fill="#3CBFB8"/>
<path fill-rule="evenodd" clip-rule="evenodd" d="M60.7093 56.5044C60.9295 58.4088 61.4816 60.221 61.9295 62.1246C63.2243 67.6203 63.6231 73.3075 63.9619 78.9319C64.464 87.422 60.0344 102.454 49.1225 99.5194C47.6643 99.1273 45.9047 98.7573 44.7437 97.6971C43.2262 96.3117 42.2134 95.3421 41.0067 93.6138C38.3816 89.8582 37.81 84.785 37.097 80.413C35.898 73.0517 36.7541 64.8733 38.1488 57.6077C38.6873 54.8057 39.0329 53.096 39.3453 49.6986C39.6053 46.8728 40.524 38.3845 40.3047 35.5333C40.0905 32.7388 40.2963 23.4968 41.0398 20.9361C41.265 20.1596 41.453 19.4661 41.6918 18.8454C41.9518 18.1679 44.5591 13.9847 49.2284 14.2574L50.0938 14.3226C55.6259 14.5351 55.9198 16.1136 56.3009 16.7131C56.5384 17.0972 56.7462 17.4989 56.9224 17.9147C57.6142 19.5592 58.2417 21.3146 58.5601 23.0684C59.3561 27.4497 58.9522 33.9676 59.3027 39.4117C59.6609 44.9845 60.2723 52.7217 60.711 56.5078L60.7093 56.5044Z" fill="#D5EDC8"/>
<path fill-rule="evenodd" clip-rule="evenodd" d="M48.495 1.17936C48.5542 1.19325 48.6096 1.22033 48.6569 1.25857C48.7043 1.29682 48.7424 1.34525 48.7685 1.40026C48.7945 1.45528 48.8078 1.51545 48.8074 1.57632C48.8069 1.63718 48.7928 1.69716 48.766 1.7518C47.7329 3.63678 47.2824 5.8554 47.1274 8.0283L47.0224 9.54577C46.9877 9.85231 46.5676 10.0301 46.3449 9.78203C46.3063 9.74508 46.2769 9.69949 46.2593 9.64901C46.2416 9.59852 46.2361 9.54457 46.2433 9.49158C46.4296 6.80213 46.6422 4.07204 47.9742 1.57397C48.0894 1.35804 48.2282 1.14041 48.4975 1.17936H48.495Z" fill="#70975F"/>
<path fill-rule="evenodd" clip-rule="evenodd" d="M46.6897 10.5636C46.7335 10.5687 46.776 10.5819 46.815 10.6025C47.0775 10.7355 47.0445 11.1165 47.0224 11.4874C46.9665 12.4248 46.7997 13.3758 46.4068 14.2235C46.2756 14.5071 45.8361 14.5825 45.6819 14.281C45.5558 14.0363 45.7616 13.7611 45.8683 13.4114C46.1104 12.6179 46.2764 11.7957 46.2468 10.9658C46.2468 10.9658 46.3061 10.5238 46.6897 10.5636Z" fill="#70975F"/>
<path fill-rule="evenodd" clip-rule="evenodd" d="M50.4503 1.689C50.4958 1.69426 50.5397 1.70928 50.579 1.73303C50.7577 1.83126 50.8246 2.01248 50.734 2.28346C50.2343 3.79669 50.2843 5.42933 50.1835 7.01116C50.1624 7.34988 49.7008 7.57089 49.4747 7.2652C49.4369 7.21348 49.4122 7.15332 49.4028 7.08991C49.3664 6.84264 49.4265 6.54372 49.4384 6.25581C49.4943 4.86536 49.523 3.47745 49.9625 2.1251C50.0514 1.8482 50.1768 1.68392 50.3961 1.68731C50.4142 1.68745 50.4323 1.68887 50.4503 1.69154V1.689Z" fill="#70975F"/>
<path fill-rule="evenodd" clip-rule="evenodd" d="M49.7533 8.59226C49.7981 8.59568 49.8416 8.60836 49.8812 8.62952C49.9119 8.64594 49.9403 8.66614 49.9659 8.68964C50.1996 8.8988 50.0692 9.28833 50.0506 9.71681C50.026 10.3985 50.0963 11.0768 50.0565 11.7534C50.0209 12.3741 49.9396 12.9914 49.8981 13.6121C49.8981 13.6121 49.8245 13.9203 49.5874 13.9695C49.5282 13.9822 49.4669 13.9811 49.4082 13.966C49.3496 13.951 49.2953 13.9225 49.2496 13.8828C49.2039 13.8431 49.1681 13.7933 49.145 13.7373C49.1219 13.6814 49.1121 13.6208 49.1165 13.5605C49.1834 12.5536 49.324 11.5535 49.2707 10.517C49.2555 10.0396 49.2687 9.56176 49.3105 9.08594C49.3223 8.90304 49.2664 9.04869 49.3291 8.85815C49.3531 8.77516 49.4051 8.70306 49.4763 8.65411C49.5474 8.60516 49.6334 8.58241 49.7195 8.58972H49.7466L49.7533 8.59226Z" fill="#70975F"/>
<path fill-rule="evenodd" clip-rule="evenodd" d="M52.221 1.40894C52.6274 1.46652 52.6596 2.12702 52.729 2.6893C52.8926 4.1447 52.9272 5.61171 52.8324 7.0732C52.8205 7.27728 52.7528 7.48813 52.5631 7.55503C52.5021 7.57636 52.4367 7.58228 52.3729 7.57228C52.3091 7.56227 52.2487 7.53665 52.1972 7.49768C52.1456 7.45871 52.1045 7.4076 52.0775 7.34891C52.0505 7.29022 52.0384 7.22576 52.0423 7.16127C52.1394 5.74274 52.1136 4.31847 51.9652 2.90439C51.9306 2.56277 51.876 2.22347 51.8018 1.88822C51.8018 1.88822 51.7916 1.38014 52.2252 1.41063L52.221 1.40894Z" fill="#70975F"/>
<path fill-rule="evenodd" clip-rule="evenodd" d="M52.4563 8.40771C52.5139 8.41266 52.5692 8.43283 52.6164 8.46614C52.884 8.6355 52.8002 9.07415 52.8171 9.46283C52.8789 10.9464 53.1033 12.5113 53.8079 13.7561C53.8424 13.8151 53.8809 13.8717 53.923 13.9255C54.1127 14.1668 54.0306 14.2803 53.9442 14.4039C53.8019 14.6063 53.4708 14.6131 53.2913 14.3929C52.7409 13.7155 52.5292 12.7654 52.3598 11.9152C52.1517 10.9151 52.0355 9.89809 52.0126 8.87684C52.0137 8.81764 52.0182 8.75854 52.0262 8.69986C52.0685 8.55591 51.95 8.6499 52.182 8.47631C52.2681 8.43508 52.3618 8.4123 52.4572 8.40941L52.4563 8.40771ZM52.7781 8.91664L52.757 8.96745C52.757 8.96745 52.7866 8.88277 52.7781 8.91664ZM52.7866 8.88277C52.7866 8.86668 52.7866 8.87854 52.7866 8.88277V8.88277Z" fill="#70975F"/>
<path fill-rule="evenodd" clip-rule="evenodd" d="M46.5863 15.6147L46.6913 15.7265L46.7447 15.8696C46.7354 16.0123 46.7138 16.154 46.6803 16.293C46.0122 19.5109 45.9859 22.8422 45.9554 26.1227C45.8978 32.3653 46.2366 38.6266 45.8462 44.8108L45.8411 44.8887L45.8022 45.036L45.709 45.158L45.5769 45.2342L45.4253 45.2545L45.278 45.2147L45.156 45.1216L45.0798 44.9895L45.0595 44.8379C45.5236 37.6655 44.9884 30.4482 45.2289 23.2249C45.3136 20.7582 45.4186 18.272 45.9673 15.8781L45.9758 15.8434C46.0083 15.7465 46.0691 15.6616 46.1502 15.5995L46.2933 15.5461L46.4457 15.5512L46.5846 15.6139L46.5863 15.6147Z" fill="#A5C499"/>
<path fill-rule="evenodd" clip-rule="evenodd" d="M45.7539 48.2972C45.8274 48.3443 45.8843 48.4133 45.9165 48.4945C45.969 48.6537 45.9546 48.8273 45.9572 49.0025C46.0418 54.3264 46.0833 59.6265 46.0207 64.7742C45.9843 67.9354 46.0825 71.1092 45.9809 74.2059C45.8056 79.5289 45.2696 84.8409 45.925 90.136C46.2366 92.6527 46.3772 95.2837 47.8032 97.4422C48.1089 97.9054 48.4722 98.2949 48.9718 98.5693C49.0437 98.6084 49.1043 98.6654 49.1476 98.7349C49.1909 98.8043 49.2155 98.8838 49.219 98.9656L49.1869 99.118L49.1022 99.2442C49.0217 99.3071 48.9246 99.345 48.8228 99.3534L48.6737 99.3204L48.545 99.229C47.6525 98.7852 46.6956 97.3736 46.1562 95.8519C45.5109 94.0313 45.372 92.0413 45.14 90.1521C44.3643 83.7113 45.3034 77.157 45.2492 70.7942C45.2069 65.914 45.3822 61.0144 45.2247 56.1284C45.1468 53.7074 45.2357 51.2965 45.173 48.8357C45.173 48.7815 45.173 48.7214 45.173 48.7214L45.1671 48.5749L45.2196 48.431L45.3238 48.3192C45.4118 48.2675 45.5132 48.2431 45.6151 48.2489L45.759 48.3014L45.7539 48.2972ZM48.4798 99.129C48.4895 99.1477 48.5011 99.1653 48.5145 99.1815C48.5145 99.1815 48.4612 99.0918 48.4798 99.129ZM48.4358 98.9664C48.4382 99.0078 48.4468 99.0486 48.4612 99.0875C48.4612 99.0875 48.4366 98.9055 48.4358 98.9664ZM45.1713 48.7316C45.1835 48.78 45.205 48.8256 45.2348 48.8657C45.2646 48.9058 45.302 48.9397 45.3449 48.9653L45.2323 48.862C45.2143 48.8175 45.194 48.7739 45.1713 48.7316Z" fill="#A5C499"/>
<path fill-rule="evenodd" clip-rule="evenodd" d="M52.2311 15.0195C52.3497 15.1338 52.4064 15.2914 52.4614 15.5276C52.7434 16.7055 53.083 17.8512 53.2896 19.0893C53.9213 22.8753 54.0204 26.7418 54.0873 30.5516C54.1593 34.5316 54.2465 38.4675 54.426 42.4915C54.4971 44.2258 54.4599 45.9922 54.5767 47.7468C54.7639 50.6614 54.8621 53.6075 54.9078 56.5052C54.9104 56.638 54.8723 56.7683 54.7986 56.8787L54.6725 56.9634L54.5234 56.9947L54.3727 56.9676C54.2819 56.9206 54.2071 56.8479 54.1576 56.7584L54.1254 56.6094C54.0797 53.5245 53.9899 50.4277 53.7613 47.32C53.6241 45.3723 53.6766 43.4128 53.5987 41.5041C53.4014 36.7104 53.3447 31.9649 53.2456 27.0966C53.1943 24.1875 52.9051 21.2874 52.381 18.4254C52.1972 17.4431 51.8797 16.4955 51.6595 15.5225L51.64 15.4328V15.2803C51.6678 15.1816 51.724 15.0932 51.8018 15.0263L51.9423 14.9653H52.0947L52.237 15.0212L52.2311 15.0195Z" fill="#A5C499"/>
<path fill-rule="evenodd" clip-rule="evenodd" d="M55.2288 60.1218C55.4667 60.1938 55.4955 60.2387 55.5302 60.4699C56.0036 66.0147 56.4964 71.5274 57.2442 77.0435L57.2594 77.1544L57.2789 77.3153C57.2628 77.6151 56.8961 77.831 56.6404 77.6244C56.466 77.483 56.471 77.1739 56.438 76.925C55.8596 72.6122 55.4676 68.2283 55.0636 63.974C54.9629 62.907 54.863 61.84 54.7698 60.7722C54.7698 60.7722 54.7046 60.4673 54.8045 60.3014C54.8485 60.232 54.9126 60.1777 54.9883 60.1456C55.0639 60.1136 55.1475 60.1053 55.2279 60.1218H55.2288Z" fill="#A5C499"/>
<path fill-rule="evenodd" clip-rule="evenodd" d="M57.0342 78.6049C57.4745 78.7099 57.422 79.4162 57.4627 79.9454C57.5473 81.0115 57.6219 82.0777 57.6549 83.1362C57.7582 86.3591 57.7844 89.5973 57.3492 92.7186C57.0875 94.59 56.8962 96.5699 55.8461 98.0949C55.6395 98.399 55.3931 98.6741 55.1136 98.913C55.1136 98.913 54.9248 99.0671 54.73 99.0137C54.4184 98.929 54.3913 98.5056 54.6852 98.2465C55.7166 97.315 56.0206 95.7772 56.2678 94.4554C56.8326 91.4475 56.8885 88.3821 56.8961 85.282C56.9134 83.3046 56.8227 81.3278 56.6243 79.3603C56.604 79.1748 56.5778 79.0063 56.5778 79.0063C56.5879 78.6676 56.7471 78.5761 57.0342 78.6041V78.6049Z" fill="#A5C499"/>
<path fill-rule="evenodd" clip-rule="evenodd" d="M42.6732 74.2236C42.5826 75.1297 41.7477 75.7868 40.8103 75.6928C39.8729 75.5988 39.1844 74.7884 39.275 73.8832C39.3656 72.9779 40.2006 72.32 41.138 72.414C42.0754 72.508 42.7639 73.3184 42.6732 74.2236Z" fill="#DA6057"/>
<path fill-rule="evenodd" clip-rule="evenodd" d="M59.1876 74.4354C59.0961 75.3406 58.262 75.9986 57.3246 75.9037C56.3872 75.8089 55.6979 74.9993 55.7885 74.0941C55.8791 73.1889 56.714 72.5309 57.6515 72.6249C58.5889 72.7189 59.2782 73.5301 59.1876 74.4354Z" fill="#DA6057"/>
<path d="M47.152 72.0991C48.3469 73.0602 50.1048 72.984 51.2344 71.9585C51.6578 71.5758 51.0744 70.9085 50.651 71.2929C50.2436 71.6656 49.7152 71.8782 49.1633 71.8916C48.6113 71.905 48.0732 71.7182 47.6482 71.3658C47.4619 71.2159 47.1596 71.298 47.0335 71.4843C46.8904 71.696 46.9657 71.9484 47.152 72.0991Z" fill="#242424"/>
<path fill-rule="evenodd" clip-rule="evenodd" d="M43.9756 68.7441C43.915 68.2831 43.7384 67.8449 43.4626 67.4706C43.1867 67.0962 42.8205 66.7979 42.3981 66.6034C42.4158 66.1749 42.437 65.7473 42.4591 65.3197C42.4734 65.0656 42.509 64.8116 42.3498 64.6515C42.2909 64.5956 42.2172 64.5576 42.1375 64.542C42.0578 64.5263 41.9752 64.5336 41.8995 64.5631C41.8238 64.5926 41.758 64.643 41.7098 64.7084C41.6617 64.7738 41.6331 64.8516 41.6275 64.9327L41.6216 65.0385C41.5967 65.4823 41.575 65.9257 41.5563 66.3689C41.3314 66.341 41.1039 66.341 40.8789 66.3689C40.8103 66.3782 40.7426 66.3926 40.6757 66.4061C40.5628 66.0719 40.4538 65.7366 40.3488 65.4001C40.2717 65.1588 40.2158 64.9081 40.0101 64.8141C39.9351 64.7828 39.8528 64.7735 39.7726 64.7871C39.6925 64.8008 39.6179 64.8369 39.5576 64.8913C39.4972 64.9456 39.4534 65.016 39.4314 65.0943C39.4095 65.1725 39.4102 65.2553 39.4334 65.3332L39.4656 65.4348C39.6005 65.8599 39.7377 66.2833 39.8771 66.705C39.6463 66.8368 39.4358 67.0014 39.2522 67.1936C39.0066 66.8871 38.763 66.58 38.5214 66.2723C38.3648 66.0733 38.225 65.8582 37.9989 65.8413C37.9177 65.8382 37.8374 65.8582 37.7671 65.899C37.6969 65.9397 37.6396 65.9996 37.602 66.0716C37.5644 66.1436 37.548 66.2248 37.5547 66.3057C37.5614 66.3867 37.591 66.4641 37.6399 66.5289L37.7059 66.6136C38.0339 67.0336 38.3647 67.4516 38.6984 67.8677C38.7149 67.8862 38.7327 67.9035 38.7517 67.9194C38.5675 68.3068 38.4762 68.7319 38.4851 69.1609C38.494 69.5898 38.6029 70.0107 38.8032 70.3902C39.0034 70.7697 39.2894 71.0971 39.6384 71.3466C39.9875 71.5961 40.3899 71.7607 40.8138 71.8273C41.2376 71.8939 41.6712 71.8606 42.0799 71.7302C42.4886 71.5997 42.8613 71.3757 43.1682 71.076C43.4751 70.7762 43.7079 70.4089 43.8479 70.0034C43.9879 69.5978 44.0314 69.1652 43.9748 68.7399L43.9756 68.7441Z" fill="#242424"/>
<path fill-rule="evenodd" clip-rule="evenodd" d="M60.8897 66.1019C60.876 66.0219 60.84 65.9475 60.7858 65.8871C60.7315 65.8268 60.6613 65.783 60.5832 65.761C60.5051 65.7389 60.4224 65.7394 60.3446 65.7624C60.2668 65.7855 60.1971 65.8301 60.1436 65.8911L60.075 65.9758C59.7854 66.3145 59.4992 66.6617 59.2138 67.0063C59.0052 66.7979 58.7645 66.6244 58.5008 66.4923C58.6135 66.1621 58.7278 65.831 58.8396 65.5015C58.9242 65.2636 59.0301 65.0299 58.9242 64.83C58.8834 64.7598 58.8234 64.7026 58.7512 64.6652C58.6791 64.6277 58.5978 64.6116 58.5169 64.6186C58.4359 64.6256 58.3586 64.6555 58.294 64.7048C58.2294 64.7541 58.1801 64.8207 58.152 64.8969L58.1164 64.9969C57.9707 65.4073 57.8279 65.8188 57.6879 66.2315C57.4217 66.1888 57.1507 66.1854 56.8834 66.2213C56.8727 65.847 56.8637 65.4725 56.8564 65.0976C56.8521 64.8436 56.8699 64.5895 56.6997 64.4388C56.6368 64.3873 56.5605 64.3548 56.4798 64.3449C56.3991 64.3351 56.3172 64.3484 56.2438 64.3833C56.1703 64.4181 56.1083 64.4731 56.0648 64.5419C56.0214 64.6106 55.9984 64.6903 55.9985 64.7716V64.8775C56.007 65.4109 56.0191 65.9439 56.0349 66.4762C56.0349 66.4762 56.0349 66.4762 56.0349 66.4813C55.5447 66.7225 55.1371 67.1038 54.8638 67.5769C54.5905 68.0499 54.4639 68.5935 54.4999 69.1387C54.5359 69.6838 54.7329 70.206 55.0661 70.6391C55.3992 71.0721 55.8534 71.3965 56.3711 71.5711C56.8888 71.7457 57.4467 71.7626 57.9741 71.6198C58.5014 71.4769 58.9745 71.1807 59.3333 70.7687C59.6921 70.3567 59.9205 69.8474 59.9895 69.3054C60.0586 68.7635 59.9651 68.2132 59.7211 67.7244C60.0033 67.3823 60.2856 67.0436 60.5679 66.7082C60.7372 66.5076 60.9202 66.3263 60.8897 66.1019Z" fill="#242424"/>
<path fill-rule="evenodd" clip-rule="evenodd" d="M57.4711 68.3375C57.4392 68.4985 57.3603 68.6464 57.2443 68.7625C57.1283 68.8786 56.9805 68.9577 56.8196 68.9899C56.6586 69.022 56.4918 69.0057 56.3401 68.943C56.1884 68.8803 56.0588 68.774 55.9675 68.6376C55.8762 68.5012 55.8274 68.3408 55.8273 68.1767C55.8271 68.0126 55.8757 67.8521 55.9667 67.7156C56.0578 67.5791 56.1873 67.4726 56.3389 67.4096C56.4904 67.3467 56.6573 67.3301 56.8183 67.362C56.9252 67.3831 57.0269 67.4252 57.1176 67.4857C57.2083 67.5461 57.2862 67.6239 57.3468 67.7145C57.4074 67.8051 57.4496 67.9067 57.4709 68.0136C57.4923 68.1205 57.4923 68.2306 57.4711 68.3375Z" fill="white"/>
<path fill-rule="evenodd" clip-rule="evenodd" d="M41.1346 68.5678C41.1559 68.7303 41.1286 68.8955 41.0561 69.0425C40.9836 69.1894 40.8691 69.3116 40.7272 69.3936C40.5853 69.4756 40.4222 69.5136 40.2587 69.503C40.0951 69.4923 39.9384 69.4334 39.8083 69.3337C39.6783 69.234 39.5806 69.098 39.5278 68.9428C39.475 68.7877 39.4694 68.6204 39.5116 68.462C39.5538 68.3037 39.6421 68.1614 39.7651 68.0531C39.8882 67.9449 40.0406 67.8756 40.2031 67.8539C40.3111 67.8395 40.421 67.8466 40.5263 67.8747C40.6316 67.9028 40.7303 67.9514 40.8169 68.0177C40.9034 68.084 40.976 68.1667 41.0305 68.2611C41.085 68.3555 41.1204 68.4597 41.1346 68.5678Z" fill="white"/>
<path d="M84.7769 27.5517C82.7483 26.3994 81.3654 24.8794 80.2482 22.6844C79.3234 20.8764 78.8117 19.6505 78.2049 16.3611C78.1922 16.2875 78.1606 16.2184 78.1131 16.1605C78.0655 16.1025 78.0036 16.0577 77.9334 16.0303C77.8632 16.0029 77.7871 15.9939 77.7124 16.0041C77.6376 16.0143 77.5668 16.0435 77.5068 16.0887C77.3994 16.1843 77.3313 16.3155 77.3155 16.4575C77.1936 17.1313 76.593 21.2055 74.3438 23.8271C73.3094 25.0325 71.7572 26.1764 70.2427 26.9394C70.1558 26.9829 70.086 27.0537 70.0441 27.1407C69.9988 27.2319 69.988 27.3363 70.0137 27.4348C70.0495 27.5465 70.1142 27.647 70.2013 27.7265C70.7057 28.2375 73.6895 30.7483 75.1333 33.8461C76.2969 36.3388 76.7648 38.2951 76.9329 38.6759C76.9622 38.7566 77.0118 38.8285 77.077 38.8848C77.1423 38.9411 77.221 38.98 77.3057 38.9978C77.4201 39.0086 77.5348 38.9799 77.6302 38.9166C77.7257 38.8533 77.7962 38.7594 77.8296 38.6506C77.9868 38.2324 78.5607 36.029 79.2527 34.6862C80.8549 31.5523 81.8491 30.9749 84.8573 28.2484C84.9082 28.202 84.9474 28.1445 84.9717 28.0804C84.9961 28.0164 85.0049 27.9476 84.9974 27.8795C84.9896 27.8115 84.9655 27.7463 84.9272 27.6893C84.8888 27.6323 84.8373 27.5851 84.7769 27.5517Z" fill="#FFD79B"/>
<path d="M24.7022 45.2417C23.6722 44.7724 22.6193 44.1021 21.9371 43.4212C20.4791 41.9701 20.1667 39.8348 20.1052 39.4814C20.0948 39.4012 20.0679 39.3242 20.0265 39.2555C19.985 39.1868 19.9298 39.128 19.8647 39.0829C19.8026 39.041 19.7321 39.0141 19.6585 39.0042C19.5849 38.9944 19.5101 39.0018 19.4397 39.026C19.3592 39.0489 19.2859 39.0933 19.2274 39.1548C19.1689 39.2163 19.1272 39.2927 19.1065 39.3762C18.6118 41.0657 18.2327 41.6811 17.5558 42.5866C16.7351 43.6811 15.753 44.4125 14.3387 44.9227C14.2523 44.9543 14.1757 45.0094 14.1171 45.0822C14.0585 45.155 14.0201 45.2429 14.006 45.3364C13.9919 45.4298 14.0026 45.5255 14.037 45.6133C14.0714 45.701 14.1282 45.7775 14.2013 45.8346C16.2206 47.4092 16.9017 47.7519 17.9359 49.4801C18.3796 50.2223 18.7232 51.4134 18.8222 51.6443C18.8559 51.7412 18.9158 51.826 18.9949 51.8887C19.0739 51.9514 19.1688 51.9894 19.2682 51.9981C19.3676 52.0068 19.4673 51.9859 19.5555 51.9378C19.6437 51.8898 19.7167 51.8166 19.7657 51.727C19.8938 51.5294 20.2719 50.4983 21.155 49.2105C22.2308 47.6391 24.3616 46.4533 24.723 46.203C24.8308 46.1388 24.9145 46.0391 24.9606 45.9198C25.0067 45.8006 25.0125 45.6688 24.9771 45.5457C24.9552 45.4776 24.9193 45.4152 24.8718 45.3627C24.8244 45.3103 24.7665 45.269 24.7022 45.2417Z" fill="#FFD79B"/>
<path d="M38.5939 84.0822C37.1881 83.3239 35.7539 82.2412 34.8238 81.1411C32.8357 78.7986 32.4097 75.3474 32.3245 74.7765C32.3113 74.6468 32.275 74.5222 32.2184 74.4113C32.1617 74.3005 32.086 74.206 31.9965 74.1345C31.9123 74.0664 31.8164 74.0227 31.7162 74.0068C31.6161 73.9908 31.5143 74.0031 31.4186 74.0425C31.3086 74.0789 31.2084 74.1503 31.1284 74.2494C31.0483 74.3484 30.9911 74.4716 30.9627 74.6065C30.2882 77.3359 29.7713 78.3301 28.8483 79.7929C27.7293 81.561 26.3917 82.7426 24.4619 83.5668C24.3439 83.6178 24.2395 83.7068 24.1596 83.8245C24.0798 83.9421 24.0274 84.084 24.0082 84.235C23.989 84.3861 24.0036 84.5406 24.0505 84.6823C24.0973 84.8241 24.1747 84.9476 24.2744 85.04C27.0293 87.5837 27.9565 88.1372 29.368 90.9308C29.973 92.1281 30.4416 94.0541 30.5765 94.4254C30.6224 94.5818 30.7041 94.7189 30.812 94.8202C30.9198 94.9215 31.0491 94.9828 31.1847 94.9969C31.3202 95.011 31.4561 94.9772 31.5764 94.8996C31.6967 94.8219 31.7961 94.7037 31.863 94.559C32.0377 94.2398 32.5532 92.574 33.7573 90.4936C35.2242 87.955 38.1282 86.0394 38.6223 85.6351C38.7693 85.5314 38.8834 85.3702 38.9463 85.1776C39.0091 84.9849 39.0171 84.772 38.9688 84.5732C38.9383 84.4636 38.8891 84.3632 38.8244 84.2786C38.7598 84.1939 38.6813 84.127 38.5939 84.0822Z" fill="#FFD79B"/>
</svg>
