<svg width="100" height="100" viewBox="0 0 100 100" fill="none" xmlns="http://www.w3.org/2000/svg">
<path fill-rule="evenodd" clip-rule="evenodd" d="M50.7522 7C50.0718 7 49.0579 7.39208 48.7717 7.49273C47.0098 8.11187 44.9011 9.56082 43.842 11.1619C40.3904 16.3842 40.1909 22.8576 39.6531 28.8933C38.5346 41.4528 38.9728 54.0438 40.0627 66.5495C40.3987 70.4118 40.635 74.2811 41.3688 78.0883C42.2379 82.6318 43.5867 92.7639 49.7489 92.9956C51.9383 93.0775 53.0995 91.9902 53.6457 91.3477C56.2887 88.2427 57.8773 83.43 58.7096 79.4425C59.8482 73.985 60.1201 67.6848 60.4977 62.0915C61.2006 51.6621 61.1958 40.465 60.2923 30.0918C59.8554 25.0743 60.1926 18.7952 58.7274 14.0341C56.6888 7.41316 53.2325 7.0117 50.7569 7H50.7522Z" fill="#FDE1CC"/>
<path d="M39.7136 30.6468C39.25 30.4698 38.7621 30.3648 38.2668 30.3353C37.6931 30.2804 37.1142 30.3186 36.5526 30.4484C35.4506 30.7439 34.7159 31.5291 34.29 32.1374C33.9613 32.6099 33.4156 33.5376 33.4475 34.448C33.4483 34.6016 33.5077 34.7491 33.6136 34.8604C33.7194 34.9717 33.8637 35.0384 34.0171 35.0469C34.1003 35.0487 34.1829 35.0336 34.26 35.0025C34.3372 34.9714 34.4071 34.9249 34.4657 34.8658C34.5201 34.8134 34.5631 34.7503 34.5919 34.6804C34.6208 34.6106 34.6349 34.5355 34.6334 34.4599C34.6307 34.4183 34.6307 34.3765 34.6334 34.3348C34.6334 34.3109 34.6334 34.2869 34.6414 34.2629V34.2297C34.642 34.2212 34.642 34.2128 34.6414 34.2044C34.642 34.1964 34.642 34.1884 34.6414 34.1804L34.6653 34.0793C34.6826 34.0087 34.7012 33.9462 34.7239 33.8716C34.8139 33.5804 34.9415 33.3021 35.1032 33.0438C35.3893 32.5686 35.8844 31.9431 36.6205 31.6636C37.0216 31.535 37.443 31.4813 37.8636 31.5052C38.2739 31.5044 38.682 31.5645 39.0747 31.6836C39.6344 31.8492 40.1232 32.1961 40.4643 32.6698L40.4895 32.7084C40.5108 32.7385 40.5308 32.7691 40.5494 32.8002C40.5867 32.8614 40.6226 32.924 40.6572 32.9866C40.7251 33.113 40.7824 33.2527 40.8303 33.3619V33.3738C40.8295 33.3769 40.8295 33.3801 40.8303 33.3832L40.8622 33.4763C40.8822 33.5336 40.8994 33.5921 40.9154 33.6507C40.9474 33.7585 40.9727 33.869 40.9953 33.9808C41.0124 34.0781 41.0554 34.169 41.1198 34.244C41.1842 34.3189 41.2676 34.3752 41.3613 34.4067C41.4662 34.4392 41.5776 34.444 41.6849 34.4207C41.7922 34.3974 41.8916 34.3467 41.9735 34.2736C42.0506 34.206 42.1081 34.119 42.14 34.0216C42.1718 33.9242 42.1768 33.8199 42.1545 33.7199C41.8843 32.2732 40.9873 31.1512 39.7136 30.6468Z" fill="#242424"/>
<path d="M64.01 31.6263C63.533 31.4475 63.0328 31.3386 62.5247 31.3029C61.9337 31.2417 61.3367 31.2709 60.7545 31.3894C59.8428 31.5957 58.991 32.188 58.3442 33.0544C58.0601 33.4387 57.8299 33.8601 57.66 34.3068C57.5136 34.6543 57.4384 35.0277 57.4391 35.4049C57.4412 35.558 57.5011 35.7046 57.6067 35.8155C57.7123 35.9263 57.8559 35.993 58.0088 36.0024C58.0922 36.0041 58.1751 35.9888 58.2524 35.9574C58.3297 35.9261 58.3999 35.8793 58.4586 35.8201C58.5123 35.7685 58.5548 35.7065 58.5834 35.6378C58.612 35.5691 58.6262 35.4952 58.625 35.4208C58.625 35.3795 58.625 35.3396 58.625 35.2983L58.633 35.2198L58.6436 35.1573C58.6683 35.0457 58.699 34.9355 58.7355 34.8272C58.8331 34.5305 58.9705 34.2484 59.144 33.9887C59.5739 33.3166 60.1422 32.8334 60.7412 32.6285C61.1914 32.4966 61.6613 32.4448 62.1294 32.4754C62.5479 32.4811 62.9636 32.5451 63.3645 32.6658C63.6842 32.7571 63.9853 32.9045 64.2535 33.101C64.3591 33.171 64.4564 33.2527 64.5437 33.3446C64.6481 33.448 64.745 33.5588 64.8338 33.6759L64.8564 33.7065C64.8764 33.7332 64.8951 33.7611 64.9124 33.7891C64.9536 33.8516 64.9922 33.9142 65.0281 33.9794C65.0948 34.0989 65.154 34.2225 65.2052 34.3494L65.2464 34.4545C65.2677 34.5144 65.2877 34.5743 65.305 34.6342C65.3369 34.742 65.3649 34.8498 65.3875 34.9603C65.406 35.0581 65.4505 35.1491 65.5163 35.2238C65.5821 35.2985 65.6668 35.3542 65.7615 35.3849C65.8662 35.4175 65.9774 35.4223 66.0845 35.3989C66.1916 35.3756 66.2908 35.3249 66.3724 35.2518C66.4485 35.184 66.5048 35.0968 66.5353 34.9995C66.5658 34.9023 66.5693 34.7985 66.5455 34.6994C66.242 33.2487 65.3156 32.1307 64.01 31.6263Z" fill="#242424"/>
<path d="M53.5528 35.3316C53.2653 35.2584 52.878 35.442 52.8301 35.7615C52.7888 36.0383 52.7223 36.2832 52.5426 36.4269C52.3087 36.5838 52.0323 36.6651 51.7507 36.6599C51.1198 36.6692 50.4464 36.3285 50.3332 35.663C50.2427 35.1306 49.4827 35.1306 49.2445 35.5299C48.957 36.0184 48.4859 36.4203 47.8949 36.4243C47.304 36.4283 46.9207 36.0503 46.8302 35.4926C46.7796 35.1759 46.375 35.0055 46.0942 35.0867C45.7548 35.1852 45.6377 35.5046 45.6883 35.8227C45.8546 36.8701 46.7969 37.5529 47.8178 37.6048C48.4876 37.6205 49.1362 37.3697 49.6212 36.9075C49.8919 37.2069 50.2234 37.4449 50.5937 37.6056C50.964 37.7663 51.3644 37.8459 51.768 37.8391C52.8727 37.8205 53.807 37.1736 53.9747 36.0436C54.0306 35.7362 53.8869 35.4154 53.5528 35.3316Z" fill="#242424"/>
<path d="M43.2983 39.5319C43.3554 38.0916 41.1195 36.8336 38.3043 36.722C35.489 36.6104 33.1605 37.6875 33.1034 39.1278C33.0463 40.5681 35.2822 41.8262 38.0975 41.9378C40.9128 42.0494 43.2412 40.9723 43.2983 39.5319Z" fill="#DA6057"/>
<path d="M66.9842 40.5381C67.0413 39.0978 64.8054 37.8397 61.9901 37.7281C59.1748 37.6165 56.8463 38.6936 56.7892 40.134C56.7321 41.5743 58.9681 42.8323 61.7833 42.9439C64.5986 43.0555 66.9271 41.9784 66.9842 40.5381Z" fill="#DA6057"/>
<path d="M44.0037 73.1667C44.2586 75.9228 44.7193 78.6572 45.3822 81.3486C45.8171 83.1475 46.2637 85.0304 47.0857 86.7078C47.2891 87.1221 47.6586 87.0778 47.8515 86.6886C48.0854 86.213 48.0211 85.5536 47.8106 85.0871C47.7849 85.0303 47.7592 84.9736 47.7358 84.9146C47.6995 84.8249 47.7802 85.0281 47.7159 84.8658C47.6516 84.7035 47.599 84.5514 47.5452 84.3925C47.4166 84.0282 47.2915 83.6616 47.1757 83.2928C46.867 82.3133 46.5981 81.3225 46.3573 80.326C45.76 77.9639 45.3435 75.5623 45.1109 73.1406C45.0817 72.816 45.0186 72.0057 44.5263 72C44.0703 72 43.9791 72.8932 44.0037 73.1667Z" fill="#DBBCA7"/>
<path d="M55.5567 57.3056C56.551 64.6159 56.0609 72.0874 54.1241 79.1501C53.5626 81.1495 52.8992 83.1103 52.1373 85.0224C51.948 85.5066 51.9491 86.2187 52.1739 86.6899C52.3736 87.1088 52.6769 87.1041 52.861 86.6709C55.8841 79.5382 57.2121 71.399 56.9726 63.5102C56.9018 61.2383 56.6921 58.9748 56.3452 56.7359C56.3044 56.4701 56.1685 55.8529 55.8224 56.0321C55.4992 56.1995 55.5212 57.0065 55.562 57.3056H55.5567Z" fill="#DBBCA7"/>
<path d="M42.1438 47.7688C41.9613 50.6807 41.9669 53.6022 42.0802 56.5153C42.1935 59.4283 42.3912 62.3799 42.9537 65.2689C43.0049 65.5361 43.1873 66.1452 43.6324 65.9683C44.047 65.801 44.0249 65.0053 43.971 64.7043C43.4858 61.9911 43.3021 59.2321 43.1887 56.4924C43.0754 53.7527 43.0408 51.0249 43.2025 48.2984C43.2232 47.953 43.2412 47.2078 42.7878 47.0297C42.3345 46.8515 42.1576 47.5232 42.1424 47.7688H42.1438Z" fill="#DBBCA7"/>
<path d="M42.9849 28.9736C43.1206 24.7599 44.1468 20.6169 45.8605 16.7221C46.047 16.2984 46.0583 15.6816 45.8224 15.2709C45.622 14.9178 45.3062 14.8966 45.1286 15.2862C43.1497 19.6293 42.1426 24.2891 42.0005 28.9959C41.9916 29.262 42.1032 30.0093 42.5193 29.9999C42.9353 29.9905 42.9772 29.2184 42.9849 28.9736Z" fill="#DBBCA7"/>
<path d="M52.2883 11.8993C54.4594 14.3497 55.3598 17.55 55.923 20.5841C56.6216 24.3428 56.817 28.1645 56.9447 31.968C56.955 32.2432 57.043 33.008 57.5002 32.9999C57.9575 32.9919 58.0112 32.1973 57.9984 31.9451C57.8477 27.8378 57.6331 23.6995 56.8273 19.6461C56.1657 16.3208 55.1376 12.8098 52.7404 10.1289C52.4198 9.77115 52.1388 10.2436 52.0648 10.5107C51.9486 10.9247 51.9703 11.5507 52.2832 11.9039L52.2883 11.8993Z" fill="#DBBCA7"/>
<path d="M48.093 49.6824C47.9366 50.7268 48.0232 51.8233 48.0423 52.8739C48.0536 53.4754 48.0671 54.0779 48.0671 54.6805C48.0671 55.2256 48.0885 55.353 48.0165 55.8293C47.9703 56.1332 48.0018 56.8193 48.3665 56.9728C48.7547 57.1357 48.8786 56.5227 48.9112 56.3065C49.0654 55.2622 48.9765 54.1625 48.9551 53.112C48.9416 52.5094 48.927 51.9068 48.9258 51.3053C48.9258 50.7654 48.9033 50.6254 48.9731 50.1513C49.0181 49.8537 48.9889 49.178 48.6299 49.0266C48.2461 48.8668 48.1245 49.4705 48.093 49.6824Z" fill="#DBBCA7"/>
<path d="M50 62.0365V65.9808C50 66.256 50.1002 67.0103 50.5269 66.9999C50.9535 66.9895 51 66.2111 51 65.9577V62.0135C51 61.7394 50.8997 60.9897 50.4755 61.0001C50.0513 61.0105 50.0049 61.7855 50.0049 62.0365H50Z" fill="#DBBCA7"/>
<path d="M82.7769 24.5517C80.7483 23.3994 79.3654 21.8794 78.2482 19.6844C77.3234 17.8764 76.8117 16.6505 76.2049 13.3611C76.1922 13.2875 76.1606 13.2184 76.1131 13.1605C76.0655 13.1025 76.0036 13.0577 75.9334 13.0303C75.8632 13.0029 75.7871 12.9939 75.7124 13.0041C75.6376 13.0143 75.5668 13.0435 75.5068 13.0887C75.3994 13.1843 75.3313 13.3155 75.3155 13.4575C75.1936 14.1313 74.593 18.2055 72.3438 20.8271C71.3094 22.0325 69.7572 23.1764 68.2427 23.9394C68.1558 23.9829 68.086 24.0537 68.0441 24.1407C67.9988 24.2319 67.988 24.3363 68.0137 24.4348C68.0495 24.5465 68.1142 24.647 68.2013 24.7265C68.7057 25.2375 71.6895 27.7483 73.1333 30.8461C74.2969 33.3388 74.7648 35.2951 74.9329 35.6759C74.9622 35.7566 75.0118 35.8285 75.077 35.8848C75.1423 35.9411 75.221 35.98 75.3057 35.9978C75.4201 36.0086 75.5348 35.9799 75.6302 35.9166C75.7257 35.8533 75.7962 35.7594 75.8296 35.6506C75.9868 35.2324 76.5607 33.029 77.2527 31.6862C78.8549 28.5523 79.8491 27.9749 82.8573 25.2484C82.9082 25.202 82.9474 25.1445 82.9717 25.0804C82.9961 25.0164 83.0049 24.9476 82.9974 24.8795C82.9896 24.8115 82.9655 24.7463 82.9272 24.6893C82.8888 24.6323 82.8373 24.5851 82.7769 24.5517Z" fill="#FFD79B"/>
<path d="M29.648 45.202C28.4308 44.6604 27.1864 43.8871 26.3803 43.1013C24.6571 41.427 24.2879 38.9632 24.2153 38.5555C24.2029 38.463 24.1712 38.3741 24.1222 38.2948C24.0732 38.2156 24.008 38.1477 23.931 38.0957C23.8576 38.0473 23.7743 38.0163 23.6874 38.0049C23.6004 37.9935 23.512 38.0021 23.4288 38.03C23.3336 38.0564 23.247 38.1077 23.1779 38.1787C23.1087 38.2496 23.0594 38.3377 23.0349 38.434C22.4503 40.3835 22.0023 41.0936 21.2023 42.1384C20.2324 43.4013 19.0718 44.2452 17.4003 44.8339C17.2981 44.8703 17.2076 44.9339 17.1384 45.0179C17.0691 45.102 17.0238 45.2033 17.0071 45.3112C16.9905 45.4191 17.0031 45.5295 17.0438 45.6307C17.0844 45.7319 17.1515 45.8202 17.2379 45.8861C19.6244 47.703 20.4293 48.0983 21.6515 50.0924C22.1758 50.9488 22.582 52.3232 22.6989 52.5896C22.7387 52.7013 22.8096 52.7992 22.903 52.8716C22.9965 52.9439 23.1086 52.9877 23.2261 52.9978C23.3435 53.0078 23.4614 52.9837 23.5656 52.9283C23.6698 52.8728 23.7561 52.7884 23.814 52.685C23.9654 52.457 24.4122 51.2673 25.4559 49.7813C26.7273 47.9682 29.2456 46.6 29.6726 46.3112C29.8 46.2371 29.899 46.122 29.9534 45.9844C30.0079 45.8468 30.0148 45.6947 29.973 45.5527C29.9471 45.4742 29.9046 45.4021 29.8485 45.3416C29.7925 45.2811 29.7241 45.2335 29.648 45.202Z" fill="#FFD79B"/>
<path d="M42.6481 79.2015C41.4297 78.6599 40.1867 77.8865 39.3806 77.1008C37.6576 75.4276 37.2884 72.9624 37.2146 72.5546C37.2031 72.462 37.1717 72.373 37.1226 72.2938C37.0735 72.2146 37.0079 72.1472 36.9303 72.0961C36.8573 72.0474 36.7742 72.0162 36.6874 72.0048C36.6006 71.9935 36.5124 72.0022 36.4294 72.0304C36.3341 72.0564 36.2473 72.1074 36.1779 72.1781C36.1085 72.2489 36.059 72.3369 36.0344 72.4332C35.4498 74.3828 35.0018 75.0929 34.2019 76.1378C33.2321 77.4007 32.0728 78.2447 30.4003 78.8334C30.2981 78.8699 30.2076 78.9334 30.1383 79.0175C30.0691 79.1015 30.0238 79.2028 30.0071 79.3107C29.9905 79.4186 30.0031 79.529 30.0437 79.6302C30.0844 79.7315 30.1514 79.8197 30.2378 79.8857C32.6254 81.7026 33.429 82.098 34.6523 84.0934C35.1766 84.9486 35.5827 86.3244 35.6996 86.5896C35.7394 86.7013 35.8103 86.7992 35.9037 86.8715C35.9971 86.9439 36.1093 86.9877 36.2267 86.9978C36.3441 87.0078 36.462 86.9837 36.5662 86.9283C36.6704 86.8728 36.7567 86.7884 36.8146 86.685C36.966 86.457 37.4127 85.2672 38.4564 83.7811C39.7276 81.9679 42.2444 80.5996 42.6727 80.3108C42.8001 80.2367 42.899 80.1216 42.9534 79.984C43.0079 79.8464 43.0148 79.6943 42.973 79.5523C42.9465 79.474 42.9039 79.4023 42.8479 79.3418C42.7918 79.2814 42.7238 79.2336 42.6481 79.2015Z" fill="#FFD79B"/>
</svg>
