<svg width="100" height="100" viewBox="0 0 100 100" fill="none" xmlns="http://www.w3.org/2000/svg">
<path d="M24.8202 58.7111C24.8393 58.716 24.853 58.7417 24.8707 58.7591L24.9389 58.7157L24.8202 58.7111Z" fill="#FF9E5E"/>
<path d="M22.8475 49.3071C23.2136 51.0643 23.1674 51.9505 22.7695 53.6096C22.5783 54.4051 22.1213 55.3727 21.7244 56.1561L21.8661 56.209C23.7652 56.9679 25.8632 56.8648 27.9123 56.6864C28.828 56.5388 29.7742 56.3657 30.6015 55.9792L30.6858 55.9602C33.5728 52.4503 37.602 49.5237 41.6888 46.9703C50.1134 41.7136 59.2008 37.4825 68.8334 35.0157C69.0826 34.9521 69.3309 34.892 69.5796 34.8375C72.8 34.091 76.1123 33.7931 79.411 33.44C80.8218 33.2832 82.2429 33.2411 83.6605 33.3141L84.1213 33.4194C84.3302 33.5515 84.4953 33.7424 84.596 33.9681L84.6419 34.3365C84.6013 34.5829 84.4873 34.8113 84.3149 34.9918L83.9925 35.1752C82.4213 35.3709 80.3733 35.2502 78.5042 35.4545C74.3409 35.9074 70.2679 36.498 66.0978 37.7771C57.245 40.4957 48.8276 44.5863 41.0847 49.6206C36.4585 52.627 32.1441 56.2622 29.6067 61.2255C28.6373 63.1243 28.316 65.2484 27.9443 67.3817C27.8879 67.7212 27.8689 68.0658 27.8876 68.4094L27.8346 68.7747L27.645 69.0957L27.348 69.317C27.1148 69.401 26.862 69.4139 26.6214 69.3542L26.3009 69.163L26.0795 68.8659L25.9867 68.5076C25.8735 66.2979 26.553 64.0236 27.2443 61.963C27.4802 61.2649 27.763 60.5836 28.0908 59.9237C26.583 61.0542 24.8039 62.37 23.5484 63.2805L20.9629 65.053C20.1996 64.7222 18.1435 62.7884 18.3972 62.6354C19.3044 62.0883 20.8591 61.3229 21.7388 60.8186C22.2241 60.5402 22.708 60.2245 23.1911 59.8975C22.1478 59.1809 21.0693 58.4939 19.9999 57.7853L19.5953 57.9217C18.563 58.3077 17.4616 58.4746 16.3613 58.4116C14.3352 58.2485 12.2609 57.2433 10.5445 55.9307C10.8714 58.3948 11.6791 61.1966 13.1455 64.4853C14.5198 67.5637 18.4472 75.3497 25.0935 79.6974C34.519 85.8613 43.7383 87.8586 54.7473 85.3864C59.0709 84.4166 65.611 82.1839 69.5718 80.561C72.7165 79.274 75.7271 77.5515 78.5127 75.6474C87.7063 69.3886 98.0448 58.6667 94.6188 46.9455C93.1433 41.8915 91.5201 39.4663 88.4392 36.7872C86.9183 35.4619 86.041 34.9338 85.608 34.187C84.6328 32.5065 85.1746 30.3798 84.6888 28.7583C81.6628 18.7049 72.0715 17.0483 67.8941 16.8859C58.8397 16.5368 42.5463 20.6767 34.5639 24.2599C31.2343 25.7564 27.9905 27.2712 25.0723 29.5053C22.0258 31.8358 18.3156 35.3488 16.1568 38.6925C17.7721 40.0725 19.2021 41.6556 20.4113 43.4023C21.438 44.9039 22.4752 47.517 22.8475 49.3071ZM43.2525 61.7657C42.7248 62.0466 42.2528 62.4215 41.8599 62.872C41.1772 63.754 41.0365 64.8784 41.043 65.66C41.0377 66.0922 41.0886 66.5234 41.1945 66.9425C41.2173 67.0408 41.2441 67.1382 41.2748 67.2348L41.3221 67.3744C41.3267 67.3856 41.3305 67.3971 41.3336 67.4088L41.3478 67.4402L41.3661 67.4837L41.4107 67.5764C41.4381 67.6288 41.4682 67.6798 41.501 67.7289C41.5592 67.8189 41.5979 67.9201 41.6147 68.0259C41.6315 68.1317 41.6259 68.2399 41.5983 68.3434C41.5712 68.4585 41.5207 68.5667 41.45 68.6614C41.3793 68.7561 41.2899 68.8353 41.1873 68.894C40.9957 68.9964 40.7724 69.0218 40.5627 68.9653C40.353 68.9088 40.1727 68.7744 40.0586 68.5897C39.3484 67.5112 39.3257 65.9863 39.3754 65.173C39.4387 64.1266 39.7479 62.6333 40.8643 61.4653C41.4474 60.8934 42.1193 60.4198 42.854 60.063C43.4759 59.736 44.1434 59.5042 44.8341 59.3753C46.746 59.0471 48.6581 59.7409 50.0844 61.2766C50.1857 61.3811 50.2567 61.5111 50.29 61.6527C50.3233 61.7943 50.3176 61.9423 50.2735 62.081C50.2311 62.2166 50.157 62.3401 50.0573 62.4413C49.9401 62.563 49.7899 62.6478 49.6251 62.6853C49.4887 62.7161 49.3465 62.7096 49.2135 62.6664C49.0805 62.6232 48.9617 62.5448 48.8695 62.4397C48.7612 62.3214 48.6482 62.2073 48.5299 62.0994C48.4673 62.0408 48.4025 61.9835 48.3373 61.928L48.2306 61.8396L48.2011 61.8321C48.0593 61.7292 47.889 61.6079 47.7143 61.5039C47.6274 61.4533 47.5383 61.4046 47.4469 61.3577L47.3114 61.2804L47.2517 61.254C46.4902 60.9323 45.6433 60.873 44.8444 61.0855C44.2821 61.2322 43.7445 61.4611 43.2491 61.7648L43.2525 61.7657ZM51.2192 74.2285C47.7314 76.1687 44.0994 76.294 43.1083 74.5095C42.1172 72.7251 44.1372 69.7062 47.625 67.7661C51.1128 65.826 54.7422 65.7111 55.7355 67.4868C56.7288 69.2626 54.7031 72.2893 51.2158 74.2276L51.2192 74.2285ZM64.7362 59.1993C63.8035 59.7879 62.5214 60.0097 61.4547 59.6511C61.208 60.567 60.609 61.348 59.7885 61.8238C58.5129 62.5241 56.8636 62.3837 55.8907 61.2415C55.5954 60.8941 55.5011 60.419 55.8394 60.0512C56.1191 59.7533 56.734 59.6542 57.0297 59.9999C57.5422 60.6026 58.2979 60.7688 58.9966 60.3363C59.6952 59.9038 59.983 59.0629 59.9706 58.2613C59.9569 57.5944 60.8824 57.0409 61.3821 57.6144C62.0116 58.3303 63.0671 58.25 63.8302 57.7749C64.1757 57.5752 64.4508 57.2732 64.6174 56.9106C64.7291 56.6047 64.6292 56.2594 64.4756 55.8929C64.2975 55.4776 64.6307 54.9643 65.0317 54.8417C65.4976 54.697 65.9079 54.9778 66.085 55.3965C66.7067 56.8847 66.0564 58.3608 64.7327 59.1984L64.7362 59.1993ZM73.2992 45.054C72.71 45.3613 72.1797 45.7701 71.7327 46.2618C71.1545 46.9524 70.8231 47.9559 70.7993 49.0863C70.7808 49.5279 70.8222 49.9699 70.9223 50.4004C70.9575 50.5585 71.0021 50.7143 71.0558 50.8671L71.0878 50.9511C71.1046 50.9868 71.12 51.0203 71.1376 51.0525C71.1635 51.1038 71.1928 51.1533 71.2252 51.2007C71.2836 51.2903 71.3226 51.3912 71.3398 51.4968C71.3569 51.6024 71.3518 51.7104 71.3248 51.8139C71.2971 51.9287 71.2463 52.0367 71.1757 52.1313C71.105 52.2259 71.0159 52.3053 70.9138 52.3645C70.7223 52.4667 70.4991 52.4923 70.2895 52.4361C70.0798 52.3799 69.8994 52.2461 69.7846 52.0619C69.5056 51.6068 69.3213 51.1 69.2428 50.572C69.1181 49.9068 69.0859 49.2275 69.1471 48.5534C69.288 47.0243 69.8837 45.6821 70.835 44.7619C71.4522 44.1894 72.153 43.7142 72.9132 43.3528C73.5525 43.0224 74.2357 42.7851 74.9421 42.648C76.8975 42.3014 78.8397 42.9715 80.2736 44.4851C80.3744 44.587 80.4461 44.7141 80.4813 44.8531C80.5165 44.9921 80.5138 45.138 80.4736 45.2756C80.4318 45.4145 80.3568 45.5411 80.2552 45.6446C80.1375 45.7646 79.9878 45.8481 79.8239 45.8851C79.6867 45.9182 79.5432 45.9134 79.4085 45.8714C79.2738 45.8294 79.1531 45.7516 79.0591 45.6464C78.9499 45.5315 78.836 45.421 78.719 45.3152C78.6516 45.2536 78.5846 45.1976 78.5164 45.1394L78.3881 45.0418C78.2315 44.9293 78.0686 44.8259 77.9002 44.7319C77.8081 44.6805 77.7155 44.6309 77.6198 44.586L77.4908 44.5271L77.4405 44.5142C77.2466 44.4382 77.0477 44.3761 76.8451 44.3282C76.6708 44.2817 76.4922 44.2539 76.312 44.245C75.8424 44.2062 75.3695 44.25 74.915 44.3745C74.3461 44.5237 73.801 44.7522 73.2957 45.0531L73.2992 45.054ZM85.1285 51.2487C86.1213 53.0336 84.0995 56.052 80.6117 57.9922C77.1239 59.9323 73.4945 60.0472 72.4991 58.2727C71.5036 56.4983 73.5249 53.4668 77.014 51.5289C80.5031 49.5909 84.1339 49.4634 85.125 51.2478L85.1285 51.2487Z" fill="#FF9E5E"/>
<path d="M24.8203 58.7113L24.9392 58.7159C25.2029 58.5452 25.467 58.3801 25.7293 58.2293C26.165 57.9715 28.0098 57.761 29.408 57.6632C29.8037 57.0809 30.2286 56.5123 30.6827 55.9574L30.5984 55.9764C29.7711 56.3629 28.8248 56.536 27.9091 56.6836C25.8597 56.8638 23.7621 56.9651 21.8629 56.2062L21.7213 56.1533C21.6602 56.2762 21.5987 56.3935 21.5424 56.5047C22.5971 57.1911 23.6584 57.8736 24.6868 58.6049C24.7333 58.6378 24.7779 58.6733 24.8203 58.7113Z" fill="#FB731D"/>
<path d="M29.4086 57.6627C28.0104 57.7605 26.1678 57.9771 25.7299 58.2288C25.4677 58.3796 25.2035 58.5447 24.9398 58.7154L24.8714 58.7589C24.9762 58.8518 25.0613 58.9647 25.1219 59.091C25.1825 59.2173 25.2173 59.3544 25.2242 59.4943C25.2039 60.2505 24.2548 60.615 23.5272 60.1013L23.2142 59.8805C22.7316 60.2058 22.2478 60.5215 21.762 60.8016C20.8801 61.3145 19.3277 62.0713 18.4204 62.6184C18.1668 62.7714 20.2228 64.7052 20.9862 65.036L23.5716 63.2635C24.8272 62.353 26.6062 61.0371 28.114 59.9067C28.4943 59.1303 28.9268 58.3806 29.4086 57.6627Z" fill="#70995F"/>
<path d="M16.3653 58.3989C17.4657 58.4619 18.5671 58.2951 19.5994 57.9091L20.004 57.7726C17.1461 55.903 14.3379 53.9259 12.3995 50.9356C11.2151 49.1133 10.2597 47.152 9.55473 45.0961C8.53464 42.0273 8.36896 38.747 6.6577 35.815C6.6577 35.815 6.32518 34.8926 6.92415 34.4955C7.4294 34.1613 8.06374 34.4404 8.44385 35.1127C10.3356 38.4791 10.4426 42.6221 11.9055 45.9172C12.8262 47.9903 13.8585 50.0533 15.4052 51.7252C17.1636 53.6233 19.3311 55.0719 21.5326 56.5034C21.5889 56.3922 21.6504 56.2749 21.7115 56.152C22.1084 55.3686 22.5654 54.401 22.7565 53.6055C23.1544 51.9464 23.1989 51.0671 22.8346 49.303C22.4703 47.539 21.4285 44.9007 20.4044 43.3961C19.1978 41.6507 17.7707 40.0684 16.1586 38.6885C13.9981 36.8092 11.5669 35.2209 9.09333 33.7695C8.33542 33.3237 5.98448 31.9777 5.32836 32.4895C4.67224 33.0012 5.33304 35.9649 5.16354 36.8418C4.94391 37.9645 4.75973 39.4677 4.58169 41.8762C4.27767 45.9932 5.88192 51.2152 8.72081 54.2682C9.28353 54.8676 9.89482 55.4194 10.5485 55.918C12.2649 57.2306 14.3392 58.2358 16.3653 58.3989Z" fill="#A7C69B"/>
<path d="M23.5217 60.1003C24.2493 60.6141 25.1984 60.2496 25.2187 59.4934C25.2121 59.3539 25.1778 59.2171 25.1178 59.091C25.0579 58.9649 24.9734 58.852 24.8694 58.7588C24.8517 58.7413 24.8357 58.7243 24.8189 58.7107C24.777 58.671 24.7329 58.6338 24.6867 58.5992C23.6566 57.8748 22.5953 57.1923 21.5424 56.499C19.3408 55.0675 17.1733 53.6188 15.4149 51.7207C13.8631 50.0475 12.8307 47.9845 11.9152 45.9127C10.4523 42.6176 10.3454 38.4746 8.45357 35.1083C8.07173 34.4356 7.43917 34.1569 6.93392 34.4911C6.33406 34.8916 6.66747 35.8106 6.66747 35.8106C8.37873 38.7426 8.54485 42.0211 9.5645 45.0916C10.2694 47.1476 11.2249 49.1089 12.4093 50.9312C14.3546 53.9232 17.1558 55.8985 20.0137 57.7682C21.0853 58.4681 22.1639 59.1551 23.2049 59.8804L23.5217 60.1003Z" fill="#70995F"/>
<path d="M28.1003 59.9013C27.7725 60.5612 27.4897 61.2425 27.2538 61.9406C26.5625 64.0012 25.883 66.2755 25.9962 68.4852L26.0891 68.8435L26.3104 69.1405L26.631 69.3318C26.8715 69.3915 27.1243 69.3786 27.3575 69.2946L27.6545 69.0733L27.8441 68.7523L27.8971 68.387C27.8785 68.0434 27.8975 67.6988 27.9538 67.3593C28.3255 65.2259 28.6468 63.1018 29.6162 61.2031C32.1518 56.2393 36.4645 52.611 41.0942 49.5982C48.8532 44.5662 57.255 40.4715 66.1073 37.7547C70.2775 36.4756 74.3487 35.8846 78.5138 35.4321C80.3828 35.2278 82.4309 35.3485 84.002 35.1528L84.3244 34.9694C84.4969 34.7889 84.6109 34.5605 84.6514 34.3141L84.6055 33.9457C84.5049 33.72 84.3397 33.5291 84.1309 33.397L83.67 33.2917C82.2524 33.2187 80.8313 33.2608 79.4206 33.4176C76.1218 33.7707 72.8095 34.0686 69.5891 34.8151C69.3395 34.873 69.0913 34.9332 68.843 34.9933C59.2116 37.4696 50.1207 41.6998 41.6961 46.9565C37.6093 49.5099 33.5766 52.4505 30.6931 55.9464C30.237 56.4996 29.8121 57.0682 29.4183 57.6522C28.9283 58.3711 28.488 59.1225 28.1003 59.9013Z" fill="#FB731D"/>
<path d="M47.2496 61.2637L47.3094 61.2901L47.4492 61.3574C47.5407 61.4043 47.6298 61.453 47.7166 61.5036C47.8931 61.608 48.0617 61.7289 48.2035 61.8318L48.2329 61.8394L48.3396 61.9277C48.4048 61.9833 48.4696 62.0405 48.5322 62.0991C48.6505 62.207 48.7636 62.3211 48.8718 62.4394C48.964 62.5445 49.0829 62.6229 49.2159 62.6661C49.3489 62.7093 49.4911 62.7159 49.6275 62.685C49.7922 62.6475 49.9425 62.5627 50.0597 62.441C50.1593 62.3398 50.2334 62.2163 50.2759 62.0807C50.3199 61.942 50.3256 61.794 50.2923 61.6524C50.259 61.5108 50.188 61.3808 50.0868 61.2763C48.6618 59.7354 46.7497 59.0416 44.8364 59.375C44.1457 59.5039 43.4782 59.7357 42.8563 60.0627C42.1217 60.4196 41.4497 60.8931 40.8666 61.465C39.7502 62.633 39.4445 64.1272 39.3777 65.1727C39.328 65.986 39.3508 67.5109 40.0609 68.5894C40.1751 68.7742 40.3554 68.9085 40.565 68.965C40.7747 69.0216 40.9981 68.9961 41.1896 68.8937C41.2922 68.835 41.3816 68.7558 41.4523 68.6611C41.523 68.5664 41.5735 68.4582 41.6007 68.3431C41.6282 68.2396 41.6338 68.1314 41.617 68.0256C41.6003 67.9198 41.5615 67.8186 41.5033 67.7287C41.4705 67.6795 41.4404 67.6286 41.4131 67.5761L41.3685 67.4834L41.3501 67.4399L41.3359 67.4085C41.3328 67.3968 41.329 67.3853 41.3245 67.3741L41.2771 67.2345C41.2465 67.1379 41.2197 67.0405 41.1968 66.9422C41.0909 66.5231 41.04 66.0919 41.0454 65.6597C41.0398 64.8747 41.1795 63.7537 41.8622 62.8717C42.2552 62.4212 42.7271 62.0463 43.2549 61.7654C43.7508 61.463 44.2887 61.2355 44.8511 61.0901C45.6478 60.8812 46.4913 60.9422 47.2496 61.2637Z" fill="#242424"/>
<path d="M76.8582 44.3246C77.0608 44.3725 77.2597 44.4347 77.4536 44.5106L77.5038 44.5235L77.6328 44.5825C77.7285 44.6273 77.8211 44.677 77.9133 44.7283C78.0817 44.8223 78.2445 44.9258 78.4011 45.0383L78.5295 45.1359C78.5977 45.1941 78.6647 45.25 78.732 45.3117C78.849 45.4175 78.9629 45.528 79.0721 45.6428C79.1661 45.748 79.2869 45.8258 79.4215 45.8678C79.5562 45.9099 79.6998 45.9146 79.8369 45.8816C80.0008 45.8446 80.1506 45.7611 80.2682 45.6411C80.3699 45.5376 80.4448 45.411 80.4867 45.2721C80.5269 45.1345 80.5295 44.9886 80.4943 44.8496C80.4592 44.7106 80.3875 44.5835 80.2866 44.4816C78.8528 42.968 76.9105 42.2978 74.9551 42.6444C74.2487 42.7815 73.5656 43.0188 72.9263 43.3492C72.166 43.7107 71.4652 44.1858 70.848 44.7583C69.8985 45.679 69.3011 47.0208 69.1602 48.5499C69.099 49.2239 69.1312 49.9032 69.2559 50.5685C69.3343 51.0965 69.5186 51.6033 69.7977 52.0584C69.9124 52.2426 70.0928 52.3763 70.3025 52.4325C70.5121 52.4887 70.7353 52.4631 70.9268 52.3609C71.0289 52.3017 71.1181 52.2224 71.1887 52.1278C71.2594 52.0331 71.3101 51.9251 71.3379 51.8104C71.3649 51.7068 71.37 51.5988 71.3529 51.4932C71.3357 51.3876 71.2967 51.2868 71.2383 51.1971C71.2058 51.1497 71.1765 51.1003 71.1506 51.049C71.133 51.0167 71.1176 50.9832 71.1009 50.9475L71.0689 50.8635C71.0151 50.7108 70.9705 50.5549 70.9354 50.3969C70.8352 49.9664 70.7938 49.5243 70.8123 49.0828C70.8362 47.9524 71.1727 46.9576 71.7458 46.2582C72.1928 45.7666 72.7231 45.3577 73.3122 45.0504C73.8218 44.7444 74.3723 44.5123 74.9472 44.3611C75.4017 44.2366 75.8746 44.1927 76.3442 44.2316C76.5183 44.245 76.6905 44.2762 76.8582 44.3246Z" fill="#242424"/>
<path d="M65.0264 54.844C64.6253 54.9666 64.2935 55.4747 64.4702 55.8952C64.6239 56.2617 64.7238 56.607 64.6121 56.9128C64.4455 57.2755 64.1704 57.5775 63.8248 57.7772C63.0704 58.2545 62.0044 58.3395 61.3767 57.6167C60.8771 57.0432 59.955 57.5976 59.9652 58.2636C59.9776 59.0652 59.7046 59.8988 58.9912 60.3386C58.2778 60.7783 57.5369 60.6049 57.0244 60.0022C56.7287 59.6565 56.1155 59.7487 55.834 60.0535C55.4957 60.4213 55.5901 60.8964 55.8853 61.2438C56.8582 62.386 58.5128 62.5277 59.7831 61.8261C60.6037 61.3503 61.2027 60.5692 61.4493 59.6534C62.5169 60.0086 63.799 59.7868 64.7308 59.2016C66.0545 58.364 66.7048 56.8879 66.0753 55.4014C65.9025 54.9801 65.4922 54.6993 65.0264 54.844Z" fill="#242424"/>
<path d="M47.6208 67.7643C44.1329 69.7044 42.1112 72.7228 43.104 74.5077C44.0969 76.2925 47.7272 76.1668 51.215 74.2267C54.7028 72.2866 56.7245 69.2681 55.7313 67.485C54.738 65.7019 51.1081 65.8259 47.6208 67.7643Z" fill="#DD6057"/>
<path d="M80.6058 57.9778C84.0929 56.0384 86.1153 53.0199 85.123 51.2357C84.1307 49.4516 80.4995 49.5775 77.0124 51.5169C73.5254 53.4563 71.503 56.4748 72.4953 58.2589C73.4876 60.0431 77.1188 59.9172 80.6058 57.9778Z" fill="#DD6057"/>
<path d="M81.7769 16.5517C79.7483 15.3994 78.3654 13.8794 77.2482 11.6844C76.3234 9.8764 75.8117 8.65054 75.2049 5.36112C75.1922 5.28752 75.1606 5.21842 75.1131 5.16046C75.0655 5.1025 75.0036 5.05766 74.9334 5.03027C74.8632 5.00288 74.7871 4.99386 74.7124 5.0041C74.6376 5.01434 74.5668 5.04348 74.5068 5.0887C74.3994 5.18427 74.3313 5.31555 74.3155 5.45755C74.1936 6.13135 73.593 10.2055 71.3438 12.8271C70.3094 14.0325 68.7572 15.1764 67.2427 15.9394C67.1558 15.9829 67.086 16.0537 67.0441 16.1407C66.9988 16.2319 66.988 16.3363 67.0137 16.4348C67.0495 16.5465 67.1142 16.647 67.2013 16.7265C67.7057 17.2375 70.6895 19.7483 72.1333 22.8461C73.2969 25.3388 73.7648 27.2951 73.9329 27.6759C73.9622 27.7566 74.0118 27.8285 74.077 27.8848C74.1423 27.9411 74.221 27.98 74.3057 27.9978C74.4201 28.0086 74.5348 27.9799 74.6302 27.9166C74.7257 27.8533 74.7962 27.7594 74.8296 27.6506C74.9868 27.2324 75.5607 25.029 76.2527 23.6862C77.8549 20.5523 78.8491 19.9749 81.8573 17.2484C81.9082 17.202 81.9474 17.1445 81.9717 17.0804C81.9961 17.0164 82.0049 16.9476 81.9974 16.8795C81.9896 16.8115 81.9655 16.7463 81.9272 16.6893C81.8888 16.6323 81.8373 16.5851 81.7769 16.5517Z" fill="#FFD79B"/>
<path d="M28.648 37.202C27.4308 36.6604 26.1864 35.8871 25.3803 35.1013C23.6571 33.427 23.2879 30.9632 23.2153 30.5555C23.2029 30.463 23.1712 30.3741 23.1222 30.2948C23.0732 30.2156 23.008 30.1477 22.931 30.0957C22.8576 30.0473 22.7743 30.0163 22.6874 30.0049C22.6004 29.9935 22.512 30.0021 22.4288 30.03C22.3336 30.0564 22.247 30.1077 22.1779 30.1787C22.1087 30.2496 22.0594 30.3377 22.0349 30.434C21.4503 32.3835 21.0023 33.0936 20.2023 34.1384C19.2324 35.4013 18.0718 36.2452 16.4003 36.8339C16.2981 36.8703 16.2076 36.9339 16.1384 37.0179C16.0691 37.102 16.0238 37.2033 16.0071 37.3112C15.9905 37.4191 16.0031 37.5295 16.0438 37.6307C16.0844 37.7319 16.1515 37.8202 16.2379 37.8861C18.6244 39.703 19.4293 40.0983 20.6515 42.0924C21.1758 42.9488 21.582 44.3232 21.6989 44.5896C21.7387 44.7013 21.8096 44.7992 21.903 44.8716C21.9965 44.9439 22.1086 44.9877 22.2261 44.9978C22.3435 45.0078 22.4614 44.9837 22.5656 44.9283C22.6698 44.8728 22.7561 44.7884 22.814 44.685C22.9654 44.457 23.4122 43.2673 24.4559 41.7813C25.7273 39.9682 28.2456 38.6 28.6726 38.3112C28.8 38.2371 28.899 38.122 28.9534 37.9844C29.0079 37.8468 29.0148 37.6947 28.973 37.5527C28.9471 37.4742 28.9046 37.4021 28.8485 37.3416C28.7925 37.2811 28.7241 37.2335 28.648 37.202Z" fill="#FFD79B"/>
<path d="M41.6481 71.2015C40.4297 70.6599 39.1867 69.8865 38.3806 69.1008C36.6576 67.4276 36.2884 64.9624 36.2146 64.5546C36.2031 64.462 36.1717 64.373 36.1226 64.2938C36.0735 64.2146 36.0079 64.1472 35.9303 64.0961C35.8573 64.0474 35.7742 64.0162 35.6874 64.0048C35.6006 63.9935 35.5124 64.0022 35.4294 64.0304C35.3341 64.0564 35.2473 64.1074 35.1779 64.1781C35.1085 64.2489 35.059 64.3369 35.0344 64.4332C34.4498 66.3828 34.0018 67.0929 33.2019 68.1378C32.2321 69.4007 31.0728 70.2447 29.4003 70.8334C29.2981 70.8699 29.2076 70.9334 29.1383 71.0175C29.0691 71.1015 29.0238 71.2028 29.0071 71.3107C28.9905 71.4186 29.0031 71.529 29.0437 71.6302C29.0844 71.7315 29.1514 71.8197 29.2378 71.8857C31.6254 73.7026 32.429 74.098 33.6523 76.0934C34.1766 76.9486 34.5827 78.3244 34.6996 78.5896C34.7394 78.7013 34.8103 78.7992 34.9037 78.8715C34.9971 78.9439 35.1093 78.9877 35.2267 78.9978C35.3441 79.0078 35.462 78.9837 35.5662 78.9283C35.6704 78.8728 35.7567 78.7884 35.8146 78.685C35.966 78.457 36.4127 77.2672 37.4564 75.7811C38.7276 73.9679 41.2444 72.5996 41.6727 72.3108C41.8001 72.2367 41.899 72.1216 41.9534 71.984C42.0079 71.8464 42.0148 71.6943 41.973 71.5523C41.9465 71.474 41.9039 71.4023 41.8479 71.3418C41.7918 71.2814 41.7238 71.2336 41.6481 71.2015Z" fill="#FFD79B"/>
</svg>
