<svg width="100" height="100" viewBox="0 0 100 100" fill="none" xmlns="http://www.w3.org/2000/svg">
<path fill-rule="evenodd" clip-rule="evenodd" d="M4.56032 60.9829C4.69415 61.8536 4.99082 63.2547 4.82475 63.2934C4.39264 63.3934 3.59776 63.5223 3.20435 63.2934C2.23695 62.7468 1.94028 61.0716 1.99188 60.0204C2.01928 59.4802 2.01446 58.8692 2.56749 58.6273C4.25076 57.8889 4.20078 58.6547 4.56032 60.9765V60.9829Z" fill="#70995F"/>
<path fill-rule="evenodd" clip-rule="evenodd" d="M92.1517 52.5327C92.3791 51.9523 94.0172 50.7672 94.2591 50.5479C97.4563 47.657 99.404 44.0986 98.7445 39.6438C97.8803 33.8152 90.8167 36.1708 87.8001 33.2557C69.1857 15.2653 40.0284 22.1564 36.6892 22.9658C31.5024 24.2218 23.9163 27.9769 20.5079 30.31C15.2501 33.9119 12.4462 39.6309 9.45858 44.929C7.49638 48.4068 2.6481 51.4412 3.44782 57.5487C3.80575 60.2735 4.70865 65.9328 6.97075 67.1904C9.3441 68.5044 12.2705 68.5641 14.5777 69.7443C15.4565 70.1942 16.0288 72.0822 17.5154 73.4221C21.177 76.729 27.2877 79.7875 32.2021 80.9484C49.3541 84.997 61.7367 83.0606 75.9333 75.0763C79.4917 73.0754 83.6531 70.0781 86.8633 64.651C88.4982 61.8842 91.7229 53.6485 92.1582 52.5327H92.1517Z" fill="#FDC175"/>
<path fill-rule="evenodd" clip-rule="evenodd" d="M90.8716 51.4652C90.7779 51.4587 90.6867 51.4323 90.6039 51.3878C89.988 51.0863 90.1445 50.0674 90.1928 49.1628C90.325 46.6734 90.4459 44.0824 89.377 41.7042C89.229 41.4092 89.0541 41.1285 88.8546 40.8658C88.5869 40.4949 88.6595 40.3208 88.7256 40.1225C88.9029 39.5791 89.693 39.3824 90.1444 39.9032C91.5004 41.4881 91.7568 43.8841 91.8809 46.0865C91.968 47.6214 91.7632 49.1499 91.76 50.6687C91.76 50.6687 91.5617 51.5152 90.8716 51.4652Z" fill="#EDA24F"/>
<path fill-rule="evenodd" clip-rule="evenodd" d="M14.3681 68.8157C14.1467 68.7595 13.9469 68.6389 13.7941 68.469C11.8368 66.0247 10.2712 63.1886 9.86166 59.8721C9.86166 59.8721 9.84714 59.2642 10.2744 59.0353C10.771 58.766 11.3724 59.0756 11.4724 59.8028C11.8174 62.2212 12.859 64.522 14.302 66.539C14.6116 66.9695 15.0776 67.3146 15.2307 67.795C15.2307 67.795 15.2888 68.2578 15.0695 68.5319C15.0695 68.5319 14.7132 68.8447 14.3617 68.8157H14.3681ZM13.7361 68.369L13.6909 68.2546C13.6909 68.2546 13.77 68.4335 13.7361 68.369Z" fill="#EDA24F"/>
<path fill-rule="evenodd" clip-rule="evenodd" d="M9.77781 55.7896C9.0055 55.6542 8.92167 54.4611 8.76044 53.4469C8.37348 51.0139 8.34283 48.4616 9.20865 46.1092C9.33764 45.7593 9.56981 45.4256 9.93259 45.3724C10.5662 45.2821 10.9548 46.0076 10.7017 46.7042C9.75362 49.35 10.0293 52.3344 10.6662 54.7916C10.7043 54.9809 10.6835 55.1772 10.6065 55.3543C10.5401 55.5004 10.4292 55.6216 10.2895 55.7007C10.1499 55.7798 9.98884 55.8126 9.82941 55.7945H9.77781V55.7896Z" fill="#EDA24F"/>
<path d="M69.839 41.6343C71.5989 39.8744 71.5989 37.0211 69.839 35.2612C68.0791 33.5013 65.2258 33.5013 63.4659 35.2612C61.706 37.0211 61.706 39.8744 63.4659 41.6343C65.2258 43.3942 68.0792 43.3942 69.839 41.6343Z" fill="#242424"/>
<path d="M34.0526 43.7979C34.7782 41.4171 33.4364 38.8989 31.0557 38.1734C28.6749 37.4478 26.1568 38.7895 25.4312 41.1702C24.7056 43.551 26.0473 46.0692 28.4281 46.7948C30.8088 47.5203 33.327 46.1786 34.0526 43.7979Z" fill="#242424"/>
<path d="M28.7587 54.8332C32.0952 54.7213 34.7535 53.2462 34.6963 51.5383C34.639 49.8305 31.8879 48.5367 28.5514 48.6486C25.2149 48.7604 22.5566 50.2355 22.6138 51.9434C22.6711 53.6512 25.4222 54.945 28.7587 54.8332Z" fill="#F9897D"/>
<path d="M67.7753 51.0463C71.0906 50.655 73.6159 48.9621 73.4157 47.2651C73.2154 45.5681 70.3654 44.5095 67.0501 44.9008C63.7347 45.292 61.2095 46.9848 61.4097 48.6819C61.61 50.3789 64.4599 51.4375 67.7753 51.0463Z" fill="#F9897D"/>
<path fill-rule="evenodd" clip-rule="evenodd" d="M66.7672 37.3946C66.776 37.6626 66.7051 37.9273 66.5635 38.1551C66.4219 38.3828 66.2159 38.5635 65.9716 38.6741C65.7273 38.7848 65.4557 38.8206 65.1911 38.7769C64.9265 38.7332 64.6807 38.612 64.485 38.4287C64.2893 38.2453 64.1523 38.0081 64.0914 37.7469C64.0305 37.4857 64.0485 37.2123 64.1429 36.9613C64.2374 36.7103 64.4042 36.493 64.6222 36.3368C64.8402 36.1806 65.0996 36.0925 65.3677 36.0838C65.5457 36.0778 65.7232 36.1069 65.8899 36.1696C66.0566 36.2322 66.2094 36.3271 66.3394 36.4489C66.4694 36.5706 66.5741 36.7168 66.6475 36.8791C66.7209 37.0414 66.7616 37.2166 66.7672 37.3946Z" fill="white"/>
<path fill-rule="evenodd" clip-rule="evenodd" d="M29.6482 41.5836C29.657 41.8516 29.5861 42.1163 29.4445 42.344C29.3028 42.5718 29.0969 42.7524 28.8526 42.8631C28.6083 42.9738 28.3367 43.0095 28.0721 42.9658C27.8075 42.9222 27.5617 42.801 27.366 42.6177C27.1703 42.4343 27.0333 42.197 26.9724 41.9359C26.9115 41.6747 26.9294 41.4013 27.0239 41.1503C27.1184 40.8993 27.2852 40.6819 27.5032 40.5257C27.7212 40.3695 27.9806 40.2815 28.2487 40.2727C28.4267 40.2667 28.6042 40.2959 28.7709 40.3585C28.9376 40.4212 29.0904 40.5161 29.2204 40.6378C29.3504 40.7596 29.455 40.9058 29.5285 41.0681C29.6019 41.2304 29.6426 41.4056 29.6482 41.5836Z" fill="white"/>
<path d="M56.1839 42.5604C56.0953 42.5138 55.998 42.4859 55.8982 42.4784C55.7984 42.4709 55.6981 42.4839 55.6034 42.5167C55.5088 42.5495 55.422 42.6013 55.3482 42.669C55.2745 42.7367 55.2153 42.8189 55.1746 42.9103C55.0504 43.1731 54.9263 43.4069 54.7973 43.6294C54.7119 43.7745 54.6215 43.9196 54.5264 44.0615L54.4168 44.2227L54.4023 44.2437C54.3491 44.3131 54.2975 44.3824 54.241 44.4501C53.6771 45.1807 52.972 45.7905 52.1676 46.243C49.9958 47.4893 46.8872 47.7118 44.056 46.8266C42.4385 46.3291 40.9812 45.413 39.8317 44.1711C39.7629 44.0974 39.6794 44.0388 39.5867 43.9991C39.494 43.9594 39.394 43.9395 39.2932 43.9406C39.1351 43.9367 38.9796 43.9802 38.8466 44.0656C38.7136 44.151 38.6093 44.2744 38.5471 44.4197C38.485 44.565 38.4678 44.7257 38.4979 44.8808C38.528 45.036 38.6039 45.1786 38.7159 45.2901C40.9022 47.6796 44.3462 49.0388 47.9288 48.9259C50.9358 48.8308 53.5123 47.7134 55.1843 45.7819C55.742 45.1314 56.21 44.4091 56.5757 43.6343C56.6221 43.5383 56.6488 43.434 56.6541 43.3275C56.6595 43.2211 56.6434 43.1146 56.6069 43.0145C56.5704 42.9143 56.5141 42.8226 56.4415 42.7446C56.3688 42.6666 56.2812 42.604 56.1839 42.5604Z" fill="#242424"/>
<path d="M89.7769 70.5517C87.7483 69.3994 86.3654 67.8794 85.2482 65.6844C84.3234 63.8764 83.8117 62.6505 83.2049 59.3611C83.1922 59.2875 83.1606 59.2184 83.1131 59.1605C83.0655 59.1025 83.0036 59.0577 82.9334 59.0303C82.8632 59.0029 82.7871 58.9939 82.7124 59.0041C82.6376 59.0143 82.5668 59.0435 82.5068 59.0887C82.3994 59.1843 82.3313 59.3155 82.3155 59.4575C82.1936 60.1313 81.593 64.2055 79.3438 66.8271C78.3094 68.0325 76.7572 69.1764 75.2427 69.9394C75.1558 69.9829 75.086 70.0537 75.0441 70.1407C74.9988 70.2319 74.988 70.3363 75.0137 70.4348C75.0495 70.5465 75.1142 70.647 75.2013 70.7265C75.7057 71.2375 78.6895 73.7483 80.1333 76.8461C81.2969 79.3388 81.7648 81.2951 81.9329 81.6759C81.9622 81.7566 82.0118 81.8285 82.077 81.8848C82.1423 81.9411 82.221 81.98 82.3057 81.9978C82.4201 82.0086 82.5348 81.9799 82.6302 81.9166C82.7257 81.8533 82.7962 81.7594 82.8296 81.6506C82.9868 81.2324 83.5607 79.029 84.2527 77.6862C85.8549 74.5523 86.8491 73.9749 89.8573 71.2484C89.9082 71.202 89.9474 71.1445 89.9717 71.0804C89.9961 71.0164 90.0049 70.9476 89.9974 70.8795C89.9896 70.8115 89.9655 70.7463 89.9272 70.6893C89.8888 70.6323 89.8373 70.5851 89.7769 70.5517Z" fill="#FFD79B"/>
<path d="M26.7022 18.2417C25.6722 17.7724 24.6193 17.1021 23.9371 16.4212C22.4791 14.9701 22.1667 12.8348 22.1052 12.4814C22.0948 12.4012 22.0679 12.3242 22.0265 12.2555C21.985 12.1868 21.9298 12.128 21.8647 12.0829C21.8026 12.041 21.7321 12.0141 21.6585 12.0042C21.5849 11.9944 21.5101 12.0018 21.4397 12.026C21.3592 12.0489 21.2859 12.0933 21.2274 12.1548C21.1689 12.2163 21.1272 12.2927 21.1065 12.3762C20.6118 14.0657 20.2327 14.6811 19.5558 15.5866C18.7351 16.6811 17.753 17.4125 16.3387 17.9227C16.2523 17.9543 16.1757 18.0094 16.1171 18.0822C16.0585 18.155 16.0201 18.2429 16.006 18.3364C15.9919 18.4298 16.0026 18.5255 16.037 18.6133C16.0714 18.701 16.1282 18.7775 16.2013 18.8346C18.2206 20.4092 18.9017 20.7519 19.9359 22.4801C20.3796 23.2223 20.7232 24.4134 20.8222 24.6443C20.8559 24.7412 20.9158 24.826 20.9949 24.8887C21.0739 24.9514 21.1688 24.9894 21.2682 24.9981C21.3676 25.0068 21.4673 24.9859 21.5555 24.9378C21.6437 24.8898 21.7167 24.8166 21.7657 24.727C21.8938 24.5294 22.2719 23.4983 23.155 22.2105C24.2308 20.6391 26.3616 19.4533 26.723 19.203C26.8308 19.1388 26.9145 19.0391 26.9606 18.9198C27.0067 18.8006 27.0125 18.6688 26.9771 18.5457C26.9552 18.4776 26.9193 18.4152 26.8718 18.3627C26.8244 18.3103 26.7665 18.269 26.7022 18.2417Z" fill="#FFD79B"/>
<path d="M40.5939 83.0822C39.1881 82.3239 37.7539 81.2412 36.8238 80.1411C34.8357 77.7986 34.4097 74.3474 34.3245 73.7765C34.3113 73.6468 34.275 73.5222 34.2184 73.4113C34.1617 73.3005 34.086 73.206 33.9965 73.1345C33.9123 73.0664 33.8164 73.0227 33.7162 73.0068C33.6161 72.9908 33.5143 73.0031 33.4186 73.0425C33.3086 73.0789 33.2084 73.1503 33.1284 73.2494C33.0483 73.3484 32.9911 73.4716 32.9627 73.6065C32.2882 76.3359 31.7713 77.3301 30.8483 78.7929C29.7293 80.561 28.3917 81.7426 26.4619 82.5668C26.3439 82.6178 26.2395 82.7068 26.1596 82.8245C26.0798 82.9421 26.0274 83.084 26.0082 83.235C25.989 83.3861 26.0036 83.5406 26.0505 83.6823C26.0973 83.8241 26.1747 83.9476 26.2744 84.04C29.0293 86.5837 29.9565 87.1372 31.368 89.9308C31.973 91.1281 32.4416 93.0541 32.5765 93.4254C32.6224 93.5818 32.7041 93.7189 32.812 93.8202C32.9198 93.9215 33.0491 93.9828 33.1847 93.9969C33.3202 94.011 33.4561 93.9772 33.5764 93.8996C33.6967 93.8219 33.7961 93.7037 33.863 93.559C34.0377 93.2398 34.5532 91.574 35.7573 89.4936C37.2242 86.955 40.1282 85.0394 40.6223 84.6351C40.7693 84.5314 40.8834 84.3702 40.9463 84.1776C41.0091 83.9849 41.0171 83.772 40.9688 83.5732C40.9383 83.4636 40.8891 83.3632 40.8244 83.2786C40.7598 83.1939 40.6813 83.127 40.5939 83.0822Z" fill="#FFD79B"/>
</svg>
