<svg width="100" height="100" viewBox="0 0 100 100" fill="none" xmlns="http://www.w3.org/2000/svg">
<path fill-rule="evenodd" clip-rule="evenodd" d="M31.7006 54.9806C30.1638 52.2163 19.8498 32.5264 34.1955 18.0323C49.6291 2.42786 70.4965 14.5631 75.6435 33.467C79.2237 46.6127 76.876 60.0291 75.2854 66.2751C74.6967 68.5816 70.0461 81.0025 67.1296 85.2763C62.0475 92.7361 55.8826 93.9923 53.7906 94.0721C48.9093 94.2605 43.05 91.6271 40.6923 87.1587C34.2742 74.9698 37.2343 65.7025 31.6981 54.9831L31.7006 54.9806Z" fill="#FDC175"/>
<path fill-rule="evenodd" clip-rule="evenodd" d="M34.5012 37.5212C34.1868 43.1011 37.9728 45.7656 37.0697 46.3781C36.446 46.8073 34.2192 45.4226 33.5207 45.0858C31.6869 44.1988 29.8432 42.8104 28.3088 41.4682C24.2808 37.9541 23.0695 33.235 22.8724 28.1641C22.3921 16.1161 26.5611 12.5197 30.1738 9.90507C31.2466 9.12791 36.9312 6.43591 38.3695 6.70286C40.5725 7.11203 35.1598 8.89214 37.7171 17.8451C39.0631 22.5592 38.3309 24.67 37.8793 26.5536C36.9686 30.3546 34.717 33.6766 34.5012 37.5175V37.5212Z" fill="#A7C69B"/>
<path fill-rule="evenodd" clip-rule="evenodd" d="M26.4713 22.4856C27.5678 15.7606 31.3514 9.13789 37.4901 6.62427C40.2981 5.47287 43.7635 5.86082 45.8904 8.23473C46.2098 8.5915 46.5142 9.05931 46.1574 9.43354C45.8505 9.75414 45.3865 9.60568 45.0509 9.2065C43.4704 7.34779 40.6486 6.79392 38.3146 7.6634C33.2837 9.54331 29.8482 14.5419 28.3188 19.9845C26.4289 26.7045 27.6315 34.2292 31.8316 39.935C32.0113 40.1845 32.1946 40.4203 32.393 40.6486C32.393 40.6486 32.6599 41.0902 32.4579 41.412C32.2408 41.7551 31.7094 41.81 31.39 41.432C30.1426 39.9637 29.182 38.2697 28.3812 36.5145C26.4203 32.214 25.7403 27.4395 26.4227 22.7626C26.4364 22.6703 26.4514 22.578 26.4663 22.4856H26.4713Z" fill="#70995F"/>
<path fill-rule="evenodd" clip-rule="evenodd" d="M43.3881 12.0144C43.0425 12.1317 43.2321 9.3199 45.0896 8.66C47.6494 7.7506 49.4669 10.8755 48.8444 10.9154C46.9845 11.035 45.1492 11.4047 43.3881 12.0144Z" fill="#926E57"/>
<path d="M39.1379 52.6559C37.4856 51.667 36.9478 49.5259 37.9367 47.8736C38.9256 46.2213 41.0667 45.6835 42.719 46.6724C44.3713 47.6612 44.9091 49.8023 43.9202 51.4546C42.9313 53.1069 40.7902 53.6448 39.1379 52.6559Z" fill="#242424"/>
<path d="M67.3948 52.2159C65.9303 50.9656 65.7567 48.7648 67.007 47.3003C68.2574 45.8358 70.4582 45.6623 71.9226 46.9126C73.3871 48.1629 73.5607 50.3637 72.3104 51.8282C71.06 53.2926 68.8593 53.4662 67.3948 52.2159Z" fill="#242424"/>
<path d="M66.6213 56.954C66.5174 55.636 68.5204 54.4029 71.0953 54.1998C73.6702 53.9967 75.8418 54.9005 75.9458 56.2185C76.0497 57.5365 74.0467 58.7696 71.4718 58.9727C68.8969 59.1758 66.7253 58.272 66.6213 56.954Z" fill="#F9897D"/>
<path d="M41.1908 59.4791C38.6079 59.466 36.5196 58.3837 36.5263 57.0616C36.5329 55.7395 38.6322 54.6783 41.215 54.6914C43.7979 54.7045 45.8862 55.7868 45.8795 57.1089C45.8729 58.431 43.7736 59.4922 41.1908 59.4791Z" fill="#F9897D"/>
<path fill-rule="evenodd" clip-rule="evenodd" d="M40.7484 48.8655C40.7637 49.0727 40.8401 49.2707 40.968 49.4345C41.0959 49.5982 41.2695 49.7203 41.4669 49.7852C41.6642 49.8501 41.8764 49.855 42.0766 49.7991C42.2767 49.7433 42.4557 49.6293 42.591 49.4716C42.7263 49.3139 42.8117 49.1196 42.8364 48.9134C42.8611 48.7071 42.824 48.4981 42.7298 48.3129C42.6355 48.1277 42.4885 47.9747 42.3072 47.8732C42.1259 47.7717 41.9186 47.7263 41.7115 47.7428C41.4351 47.7645 41.1785 47.8948 40.998 48.1052C40.8175 48.3157 40.7278 48.5891 40.7484 48.8655Z" fill="white"/>
<path fill-rule="evenodd" clip-rule="evenodd" d="M69.6494 48.8694C69.6647 49.0766 69.7411 49.2747 69.869 49.4384C69.9969 49.6021 70.1705 49.7242 70.3679 49.7891C70.5653 49.854 70.7775 49.8589 70.9776 49.8031C71.1777 49.7472 71.3568 49.6333 71.492 49.4756C71.6273 49.3179 71.7127 49.1236 71.7374 48.9173C71.7621 48.711 71.725 48.502 71.6308 48.3168C71.5366 48.1316 71.3895 47.9786 71.2082 47.8771C71.0269 47.7756 70.8196 47.7302 70.6125 47.7467C70.3361 47.7684 70.0796 47.8987 69.899 48.1092C69.7185 48.3196 69.6288 48.593 69.6494 48.8694Z" fill="white"/>
<path d="M49.3334 51.9205C49.3975 51.8769 49.4698 51.847 49.5459 51.8325C49.622 51.8181 49.7003 51.8194 49.7759 51.8365C49.8515 51.8536 49.9227 51.886 49.9852 51.9318C50.0478 51.9776 50.1002 52.0357 50.1393 52.1026C50.264 52.2935 50.3725 52.4631 50.491 52.6216C50.5696 52.7264 50.652 52.8299 50.7405 52.9297L50.8378 53.042L50.8516 53.0569C50.8977 53.1068 50.9439 53.1555 50.9913 53.2029C51.4878 53.7148 52.0816 54.1223 52.7377 54.4017C54.5166 55.1714 56.9254 55.0728 59.0261 54.1522C60.2268 53.63 61.2679 52.7994 62.0437 51.7446C62.0901 51.6821 62.149 51.63 62.2167 51.5916C62.2843 51.5531 62.3593 51.5292 62.4367 51.5213C62.5578 51.5043 62.6813 51.5241 62.7911 51.578C62.9009 51.6319 62.992 51.7176 63.0526 51.8239C63.1132 51.9302 63.1405 52.0522 63.131 52.1742C63.1215 52.2961 63.0756 52.4124 62.9993 52.5081C61.5248 54.5352 58.9949 55.8762 56.2306 56.102C53.9103 56.2891 51.8321 55.6541 50.3788 54.3131C49.894 53.8612 49.472 53.3464 49.1238 52.7825C49.0793 52.7126 49.0494 52.6345 49.0359 52.5527C49.0223 52.471 49.0254 52.3874 49.045 52.3068C49.0646 52.2263 49.1002 52.1506 49.1498 52.0842C49.1993 52.0178 49.2618 51.9622 49.3334 51.9205Z" fill="#242424"/>
<path d="M85.7769 17.5517C83.7483 16.3994 82.3654 14.8794 81.2481 12.6844C80.3234 10.8764 79.8116 9.65054 79.2049 6.36112C79.1922 6.28752 79.1606 6.21842 79.113 6.16046C79.0655 6.1025 79.0036 6.05766 78.9334 6.03027C78.8632 6.00288 78.7871 5.99386 78.7123 6.0041C78.6376 6.01434 78.5668 6.04348 78.5067 6.0887C78.3994 6.18427 78.3313 6.31555 78.3155 6.45755C78.1936 7.13135 77.5929 11.2055 75.3438 13.8271C74.3094 15.0325 72.7571 16.1764 71.2427 16.9394C71.1558 16.9829 71.0859 17.0537 71.0441 17.1407C70.9987 17.2319 70.9879 17.3363 71.0136 17.4348C71.0495 17.5465 71.1142 17.647 71.2013 17.7265C71.7057 18.2375 74.6895 20.7483 76.1333 23.8461C77.2969 26.3388 77.7647 28.2951 77.9329 28.6759C77.9621 28.7566 78.0118 28.8285 78.077 28.8848C78.1423 28.9411 78.221 28.98 78.3057 28.9978C78.4201 29.0086 78.5347 28.9799 78.6302 28.9166C78.7257 28.8533 78.7961 28.7594 78.8296 28.6506C78.9868 28.2324 79.5606 26.029 80.2527 24.6862C81.8549 21.5523 82.8491 20.9749 85.8573 18.2484C85.9082 18.202 85.9474 18.1445 85.9717 18.0804C85.996 18.0164 86.0048 17.9476 85.9974 17.8795C85.9896 17.8115 85.9655 17.7463 85.9272 17.6893C85.8888 17.6323 85.8373 17.5851 85.7769 17.5517Z" fill="#FFD79B"/>
<path d="M16.7022 52.2417C15.6722 51.7724 14.6193 51.1021 13.9371 50.4212C12.4791 48.9701 12.1667 46.8348 12.1052 46.4814C12.0948 46.4012 12.0679 46.3242 12.0265 46.2555C11.985 46.1868 11.9298 46.128 11.8647 46.0829C11.8026 46.041 11.7321 46.0141 11.6585 46.0042C11.5849 45.9944 11.5101 46.0018 11.4397 46.026C11.3592 46.0489 11.2859 46.0933 11.2274 46.1548C11.1689 46.2163 11.1272 46.2927 11.1065 46.3762C10.6118 48.0657 10.2327 48.6811 9.55577 49.5866C8.73511 50.6811 7.75303 51.4125 6.33874 51.9227C6.25225 51.9543 6.17565 52.0094 6.11707 52.0822C6.0585 52.155 6.02013 52.2429 6.00603 52.3364C5.99194 52.4298 6.00265 52.5255 6.03702 52.6133C6.07139 52.701 6.12815 52.7775 6.20127 52.8346C8.22064 54.4092 8.90174 54.7519 9.9359 56.4801C10.3796 57.2223 10.7232 58.4134 10.8222 58.6443C10.8559 58.7412 10.9158 58.826 10.9949 58.8887C11.0739 58.9514 11.1688 58.9894 11.2682 58.9981C11.3676 59.0068 11.4673 58.9859 11.5555 58.9378C11.6437 58.8898 11.7167 58.8166 11.7657 58.727C11.8938 58.5294 12.2719 57.4983 13.155 56.2105C14.2308 54.6391 16.3616 53.4533 16.723 53.203C16.8308 53.1388 16.9145 53.0391 16.9606 52.9198C17.0067 52.8006 17.0125 52.6688 16.9771 52.5457C16.9552 52.4776 16.9193 52.4152 16.8718 52.3627C16.8244 52.3103 16.7665 52.269 16.7022 52.2417Z" fill="#FFD79B"/>
<path d="M28.5939 80.0822C27.1881 79.3239 25.7539 78.2412 24.8238 77.1411C22.8357 74.7986 22.4097 71.3474 22.3245 70.7765C22.3113 70.6468 22.275 70.5222 22.2184 70.4113C22.1617 70.3005 22.086 70.206 21.9965 70.1345C21.9123 70.0664 21.8164 70.0227 21.7162 70.0068C21.6161 69.9908 21.5143 70.0031 21.4186 70.0425C21.3086 70.0789 21.2084 70.1503 21.1284 70.2494C21.0483 70.3484 20.9911 70.4716 20.9627 70.6065C20.2882 73.3359 19.7713 74.3301 18.8483 75.7929C17.7293 77.561 16.3917 78.7426 14.4619 79.5668C14.3439 79.6178 14.2395 79.7068 14.1596 79.8245C14.0798 79.9421 14.0274 80.084 14.0082 80.235C13.989 80.3861 14.0036 80.5406 14.0505 80.6823C14.0973 80.8241 14.1747 80.9476 14.2744 81.04C17.0293 83.5837 17.9565 84.1372 19.368 86.9308C19.973 88.1281 20.4416 90.0541 20.5765 90.4254C20.6224 90.5818 20.7041 90.7189 20.812 90.8202C20.9198 90.9215 21.0491 90.9828 21.1847 90.9969C21.3202 91.011 21.4561 90.9772 21.5764 90.8996C21.6967 90.8219 21.7961 90.7037 21.863 90.559C22.0377 90.2398 22.5532 88.574 23.7573 86.4936C25.2242 83.955 28.1282 82.0394 28.6223 81.6351C28.7693 81.5314 28.8834 81.3702 28.9463 81.1776C29.0091 80.9849 29.0171 80.772 28.9688 80.5732C28.9383 80.4636 28.8891 80.3632 28.8244 80.2786C28.7598 80.1939 28.6813 80.127 28.5939 80.0822Z" fill="#FFD79B"/>
</svg>
