<svg width="103" height="100" viewBox="0 0 103 100" fill="none" xmlns="http://www.w3.org/2000/svg">
<path d="M12.8225 52.635C13.3639 41.0115 15.9413 29.1847 24.0196 20.681C31.6446 12.6573 42.5214 10.431 53.0649 13.1512C64.8332 16.1877 74.7182 24.4455 81.9982 34.1748C86.9566 40.8082 90.9401 48.339 92.4108 56.4877C93.8815 64.6363 92.6657 73.4632 88.0097 80.3138C85.8568 83.4822 83.0365 86.1587 79.9424 88.4158C67.3362 97.6136 50.2911 99.604 35.2434 95.4567C20.6895 91.4513 13.473 79.2814 12.8552 64.7583C12.6936 60.8481 12.6301 56.7544 12.8225 52.635Z" fill="#FDC175"/>
<path d="M43.5398 14.8241C41.6467 14.5266 39.6375 14.237 37.8694 14.9767C36.1012 15.7165 34.7952 17.9032 35.6877 19.597C36.7722 20.0955 37.9607 20.3256 39.1529 20.2679C40.3451 20.2103 41.5058 19.8665 42.5372 19.2658C43.4605 18.7164 44.3093 17.8695 44.4343 16.8035C44.5592 15.7374 43.641 14.5494 42.5799 14.7447" fill="#FF9E5E"/>
<path d="M66.2374 25.4171C66.3524 24.3888 64.968 24.1428 64.7201 25.2327C64.3978 26.6528 66.6926 26.5794 66.2374 25.4171Z" fill="#FF9E5E"/>
<path d="M75.5443 65.5654C76.1919 64.9704 76.6252 62.9543 74.986 63.5522C73.673 64.0312 74.0588 65.7974 75.5443 65.5654Z" fill="#FF9E5E"/>
<path d="M70.5413 54.3307C71.2662 55.8986 73.556 54.9257 73.3676 53.5493C73.0423 51.1613 70.0108 51.9903 70.5413 54.3307Z" fill="#FF9E5E"/>
<path d="M19.426 66.5005C18.3441 67.0846 20.1569 68.8687 21.0415 68.1725C22.2979 67.1848 20.619 65.8569 19.426 66.5005Z" fill="#FF9E5E"/>
<path d="M40.053 41.6074C37.9229 42.5356 40.8613 44.2849 42.2684 43.7891C43.5715 43.3339 43.4436 42.4484 42.1544 41.8226C42.5174 41.9992 41.361 41.662 41.5524 41.6808C41.0288 41.6322 40.6073 41.5737 40.053 41.6074Z" fill="#FF9E5E"/>
<path d="M22.6867 50.7665C23.9699 51.3328 24.8575 47.129 22.5042 47.7915C21.2567 48.1485 21.5582 50.6654 22.6867 50.7665Z" fill="#FF9E5E"/>
<path d="M56.1649 28.7561C56.6171 28.2206 56.0816 27.0971 55.2922 27.6603C54.6298 28.1314 55.4826 29.124 56.1649 28.7561Z" fill="#FF9E5E"/>
<path d="M41.125 29.0328C41.243 29.6575 42.7563 29.8817 43.0796 29.255C43.6498 28.1542 41.241 28.0857 41.125 29.0328Z" fill="#FF9E5E"/>
<path d="M28.252 38.3913C28.5842 39.4434 29.8239 39.0358 29.3578 38.177C28.9452 37.4164 28.3254 37.7774 28.252 38.3913Z" fill="#FF9E5E"/>
<path d="M31.3699 76.7009C30.8651 76.9608 30.3376 77.7164 30.9484 78.2331C32.1196 79.2237 32.8683 76.6424 31.3699 76.7009Z" fill="#FF9E5E"/>
<path d="M40.4338 90.6946C40.5875 92.191 43.4525 90.9772 43.0796 89.6513C42.552 87.7681 40.2633 89.0434 40.4338 90.6946Z" fill="#FF9E5E"/>
<path d="M49.1328 53.3875C49.1844 56.2296 52.5393 53.7276 52.6424 51.9059C52.7416 50.22 51.6765 49.9493 50.3615 51.1125C50.7314 50.7843 49.8072 51.9337 49.9193 51.7264C49.6188 52.2956 49.355 52.7439 49.1328 53.3875Z" fill="#FF9E5E"/>
<path d="M55.2505 82.1106C55.9705 83.7161 57.7297 81.6425 56.4653 81.1923C55.9368 81.0039 55.3983 81.6673 55.2505 82.1106Z" fill="#FF9E5E"/>
<path d="M51.1975 76.3411C52.4391 75.156 48.1025 72.183 47.7534 75.156C47.564 76.7328 50.5549 77.5698 51.1975 76.3411Z" fill="#FF9E5E"/>
<path d="M48.6708 68.6189C48.2741 67.8573 46.7568 67.9356 47.0236 69.0929C47.2467 70.0628 48.768 69.563 48.6708 68.6189Z" fill="#FF9E5E"/>
<path d="M36.3629 52.6408C37.1245 52.7985 38.0865 51.1929 37.5301 50.5344C36.5484 49.3722 35.3425 52.0636 36.3629 52.6408Z" fill="#FF9E5E"/>
<path d="M33.857 67.3683C35.2017 67.4843 35.3217 65.8927 34.1327 66.0167C33.0855 66.1277 33.1975 66.9974 33.857 67.3683Z" fill="#FF9E5E"/>
<path d="M83.5511 46.5855C82.846 46.7472 83.0443 47.6833 83.8416 47.6238C84.7262 47.5554 84.3712 46.3951 83.5511 46.5855Z" fill="#FF9E5E"/>
<path d="M79.4029 40.5464C79.5547 41.5163 81.1691 41.8872 81.5182 40.7953C82.0745 39.0569 80.0247 39.5974 79.4029 40.5464Z" fill="#FF9E5E"/>
<path d="M86.5589 57.3027C85.7517 57.2085 85.0496 58.3331 85.832 58.1248C85.6951 59.5102 88.1634 57.863 86.5589 57.3027Z" fill="#FF9E5E"/>
<path d="M65.5244 86.2906C65.8734 87.1513 67.8221 88.1648 67.8886 86.3897C67.9352 85.1313 65.3478 84.574 65.5244 86.2906Z" fill="#FF9E5E"/>
<path d="M80.4283 81.4224C82.0586 81.9182 83.7306 80.4724 81.8315 79.082C80.1586 77.8583 78.7583 80.0172 80.4283 81.4224Z" fill="#FF9E5E"/>
<path d="M59.6407 70.3949C59.4533 68.9589 56.7291 70.2025 57.1219 71.4689C57.6792 73.2618 59.848 71.9776 59.6407 70.3949Z" fill="#FF9E5E"/>
<path d="M29.7038 24.1202C29.5799 21.3861 26.4184 23.8821 26.3678 25.6374C26.3202 27.2618 27.3486 27.4938 28.5793 26.3395C28.2322 26.6648 29.09 25.5333 28.9888 25.7366C29.2665 25.1822 29.5075 24.7439 29.7038 24.1202Z" fill="#FF9E5E"/>
<path d="M68.3378 37.1388C67.1745 38.312 71.4249 41.0569 71.6817 38.188C71.8186 36.6687 68.9228 35.9399 68.3378 37.1388Z" fill="#FF9E5E"/>
<path d="M30.4238 6.08343C32.6283 7.13163 34.4956 8.7094 35.997 10.6243C36.7613 11.5901 37.4193 12.6354 37.9596 13.7422C38.0977 14.0198 38.23 14.3008 38.3562 14.5851C38.4296 14.7517 38.501 14.9193 38.5705 15.0879C38.5903 15.1384 38.7688 15.6026 38.6835 15.3676C38.9483 16.0726 39.1099 16.8273 39.4213 17.5125C39.6256 17.9638 40.0788 18.2315 40.4358 17.7744C40.8583 17.2319 40.8592 16.3364 40.767 15.6918C40.5449 14.1518 39.8477 12.5859 39.1625 11.1995C38.5205 9.89591 37.7473 8.66115 36.8548 7.51439C35.2354 5.44277 33.1648 3.66965 30.7729 2.55599C29.6711 2.0423 29.4113 5.59651 30.4258 6.07946L30.4238 6.08343Z" fill="#70995F"/>
<path d="M43.9761 17.2477C46.1729 20.3178 49.3391 22.5593 52.9647 23.6113C57.3727 24.8747 62.7932 24.6119 65.5838 28.2494C66.631 26.7618 64.9958 22.8348 64.3214 21.4008C62.8607 18.2959 61.0171 15.2365 58.2047 13.269C55.2079 11.1756 46.255 6.43436 42.9715 10.0629C41.2579 11.959 42.7137 15.4716 43.9761 17.2477Z" fill="#A7C69B"/>
<path d="M35.2295 9.72281C39.704 9.22003 44.1467 10.5628 48.1124 12.5531C52.0781 14.5434 55.674 17.214 59.137 19.9907C61.1005 21.5645 62.9282 23.4417 63.9823 25.7563C64.0755 25.9606 64.2263 25.913 64.3195 25.7484C64.4355 25.5451 64.3899 25.2139 64.3016 25.0096C63.3942 22.9102 61.8671 21.1916 60.1802 19.6773C58.5167 18.1909 56.7737 16.7958 54.959 15.4984C51.2352 12.8208 47.1733 10.4348 42.7266 9.20615C40.2732 8.52883 37.7335 8.26309 35.2017 8.59133C34.8398 8.63893 34.8963 9.75655 35.2295 9.71985V9.72281Z" fill="#70995F"/>
<path d="M68.5456 38.9811C69.6535 37.0683 69.001 34.6195 67.0882 33.5116C65.1754 32.4037 62.7267 33.0562 61.6188 34.969C60.5109 36.8818 61.1633 39.3305 63.0761 40.4384C64.9889 41.5463 67.4376 40.8939 68.5456 38.9811Z" fill="#242424"/>
<path d="M37.6679 49.3049C38.4773 47.2479 37.466 44.9243 35.409 44.1149C33.3521 43.3055 31.0284 44.3168 30.219 46.3737C29.4096 48.4307 30.4209 50.7543 32.4778 51.5637C34.5348 52.3732 36.8584 51.3618 37.6679 49.3049Z" fill="#242424"/>
<path d="M38.6174 59.324C41.4941 58.5529 43.5063 56.7344 43.1117 55.2623C42.7171 53.7902 40.0652 53.2219 37.1884 53.993C34.3117 54.7641 32.2995 56.5825 32.694 58.0547C33.0886 59.5268 35.7406 60.0951 38.6174 59.324Z" fill="#F7877E"/>
<path d="M69.0502 45.7185C71.838 44.7102 73.6797 42.7363 73.1637 41.3097C72.6477 39.8831 69.9694 39.544 67.1816 40.5524C64.3938 41.5607 62.5522 43.5347 63.0682 44.9612C63.5842 46.3878 66.2624 46.7269 69.0502 45.7185Z" fill="#F7877E"/>
<path fill-rule="evenodd" clip-rule="evenodd" d="M64.9581 35.9924C65.0192 36.2225 65.0108 36.4655 64.9339 36.6907C64.857 36.916 64.715 37.1134 64.5259 37.258C64.3368 37.4025 64.1091 37.4878 63.8716 37.503C63.634 37.5182 63.3973 37.4627 63.1913 37.3435C62.9854 37.2242 62.8193 37.0465 62.7143 36.833C62.6092 36.6194 62.5699 36.3794 62.6011 36.1435C62.6324 35.9075 62.7329 35.6861 62.89 35.5073C63.047 35.3284 63.2535 35.2001 63.4835 35.1386C63.6364 35.0978 63.7958 35.0876 63.9526 35.1084C64.1095 35.1293 64.2607 35.1808 64.3976 35.2601C64.5346 35.3394 64.6546 35.4448 64.7507 35.5705C64.8469 35.6961 64.9174 35.8396 64.9581 35.9924Z" fill="white"/>
<path fill-rule="evenodd" clip-rule="evenodd" d="M33.6686 47.0359C33.7302 47.2662 33.7221 47.5096 33.6454 47.7353C33.5687 47.961 33.4268 48.1588 33.2376 48.3038C33.0483 48.4488 32.8203 48.5344 32.5825 48.5498C32.3446 48.5652 32.1074 48.5097 31.9011 48.3903C31.6948 48.2709 31.5285 48.093 31.4234 47.879C31.3182 47.6651 31.2789 47.4248 31.3103 47.1885C31.3418 46.9522 31.4426 46.7305 31.6001 46.5515C31.7575 46.3726 31.9646 46.2443 32.1949 46.1831C32.3477 46.1423 32.507 46.132 32.6637 46.1528C32.8204 46.1736 32.9716 46.2251 33.1084 46.3043C33.2453 46.3834 33.3651 46.4888 33.4613 46.6143C33.5574 46.7399 33.6278 46.8831 33.6686 47.0359Z" fill="white"/>
<path d="M56.8303 42.5793C56.7443 42.5565 56.6545 42.5516 56.5665 42.565C56.4785 42.5784 56.3942 42.6097 56.3189 42.657C56.2435 42.7044 56.1788 42.7667 56.1285 42.8402C56.0783 42.9137 56.0438 42.9967 56.027 43.0841C55.9715 43.3359 55.911 43.564 55.8436 43.7782C55.7993 43.923 55.7497 44.0658 55.6948 44.2066L55.6323 44.3643C55.6323 44.3723 55.6264 44.3792 55.6244 44.3861V44.3921C55.5936 44.4635 55.5619 44.5329 55.5252 44.6033C55.182 45.3477 54.6935 46.016 54.0883 46.5688C52.458 48.0812 49.8112 48.8953 47.1832 48.695C45.6843 48.5872 44.2404 48.0857 42.9973 47.2412C42.9232 47.191 42.8393 47.1569 42.7512 47.141C42.6631 47.1251 42.5726 47.1279 42.4856 47.149C42.3478 47.1767 42.2215 47.2452 42.1231 47.3456C42.0248 47.446 41.9589 47.5737 41.934 47.712C41.909 47.8504 41.9263 47.993 41.9834 48.1214C42.0406 48.2499 42.1351 48.3581 42.2546 48.4322C44.6247 50.0625 47.8774 50.5514 50.9556 49.7382H50.9605C53.5448 49.055 55.552 47.5734 56.6131 45.5672C56.9658 44.8929 57.226 44.1741 57.3866 43.4302C57.4077 43.3377 57.41 43.2418 57.3933 43.1484C57.3765 43.055 57.3412 42.966 57.2892 42.8865C57.2373 42.8071 57.1699 42.739 57.091 42.6862C57.0122 42.6334 56.9235 42.5971 56.8303 42.5793Z" fill="#242424"/>
<path d="M88.7769 17.5512C86.7483 16.3989 85.3654 14.8789 84.2481 12.684C83.3234 10.8759 82.8116 9.65005 82.2049 6.36063C82.1922 6.28704 82.1606 6.21793 82.113 6.15997C82.0655 6.10202 82.0036 6.05717 81.9334 6.02979C81.8632 6.0024 81.7871 5.99337 81.7123 6.00361C81.6376 6.01385 81.5668 6.04299 81.5067 6.08821C81.3994 6.18378 81.3313 6.31506 81.3155 6.45706C81.1936 7.13086 80.5929 11.205 78.3438 13.8266C77.3094 15.032 75.7571 16.1759 74.2427 16.9389C74.1558 16.9824 74.0859 17.0532 74.0441 17.1402C73.9987 17.2315 73.9879 17.3358 74.0136 17.4343C74.0495 17.546 74.1142 17.6465 74.2013 17.726C74.7057 18.237 77.6895 20.7478 79.1333 23.8456C80.2969 26.3383 80.7647 28.2946 80.9329 28.6755C80.9621 28.7561 81.0118 28.828 81.077 28.8843C81.1423 28.9406 81.221 28.9795 81.3057 28.9973C81.4201 29.0081 81.5347 28.9794 81.6302 28.9161C81.7257 28.8529 81.7961 28.7589 81.8296 28.6502C81.9868 28.2319 82.5606 26.0285 83.2527 24.6857C84.8549 21.5518 85.8491 20.9744 88.8573 18.2479C88.9082 18.2015 88.9474 18.144 88.9717 18.08C88.996 18.0159 89.0048 17.9471 88.9974 17.8791C88.9896 17.811 88.9655 17.7458 88.9272 17.6888C88.8888 17.6318 88.8373 17.5846 88.7769 17.5512Z" fill="#FFD79B"/>
<path d="M10.7022 52.2412C9.67219 51.7719 8.61929 51.1016 7.93714 50.4207C6.47911 48.9696 6.16668 46.8343 6.10523 46.4809C6.09478 46.4007 6.06793 46.3237 6.02645 46.255C5.98498 46.1863 5.92983 46.1275 5.86466 46.0825C5.80259 46.0405 5.73212 46.0136 5.65854 46.0037C5.58495 45.9939 5.51015 46.0013 5.43975 46.0255C5.3592 46.0484 5.28595 46.0929 5.22742 46.1543C5.1689 46.2158 5.12717 46.2922 5.10649 46.3757C4.6118 48.0652 4.23271 48.6807 3.55577 49.5861C2.73511 50.6806 1.75303 51.4121 0.338741 51.9222C0.25225 51.9538 0.175651 52.0089 0.117075 52.0817C0.0584987 52.1545 0.0201278 52.2424 0.00603322 52.3359C-0.00806141 52.4294 0.0026482 52.525 0.0370211 52.6128C0.071394 52.7005 0.12815 52.777 0.20127 52.8341C2.22064 54.4087 2.90174 54.7514 3.9359 56.4796C4.37955 57.2218 4.72323 58.4129 4.82217 58.6438C4.85586 58.7407 4.9158 58.8255 4.99487 58.8882C5.07394 58.9509 5.16881 58.9889 5.2682 58.9976C5.36759 59.0063 5.46732 58.9854 5.55552 58.9373C5.64371 58.8893 5.71667 58.8161 5.76572 58.7265C5.89382 58.5289 6.27186 57.4978 7.15501 56.21C8.23083 54.6386 10.3616 53.4528 10.723 53.2025C10.8308 53.1384 10.9145 53.0386 10.9606 52.9193C11.0067 52.8001 11.0125 52.6683 10.9771 52.5452C10.9552 52.4771 10.9193 52.4147 10.8718 52.3622C10.8244 52.3098 10.7665 52.2685 10.7022 52.2412Z" fill="#FFD79B"/>
<path d="M24.5939 81.0822C23.1881 80.3239 21.7539 79.2412 20.8238 78.1411C18.8357 75.7986 18.4097 72.3474 18.3245 71.7765C18.3113 71.6468 18.275 71.5222 18.2184 71.4113C18.1617 71.3005 18.086 71.206 17.9965 71.1345C17.9123 71.0664 17.8164 71.0227 17.7162 71.0068C17.6161 70.9908 17.5143 71.0031 17.4186 71.0425C17.3086 71.0789 17.2084 71.1503 17.1284 71.2494C17.0483 71.3484 16.9911 71.4716 16.9627 71.6065C16.2882 74.3359 15.7713 75.3301 14.8483 76.7929C13.7293 78.561 12.3917 79.7426 10.4619 80.5668C10.3439 80.6178 10.2395 80.7068 10.1596 80.8245C10.0798 80.9421 10.0274 81.084 10.0082 81.235C9.98901 81.3861 10.0036 81.5406 10.0505 81.6823C10.0973 81.8241 10.1747 81.9476 10.2744 82.04C13.0293 84.5837 13.9565 85.1372 15.368 87.9308C15.973 89.1281 16.4416 91.0541 16.5765 91.4254C16.6224 91.5818 16.7041 91.7189 16.812 91.8202C16.9198 91.9215 17.0491 91.9828 17.1847 91.9969C17.3202 92.011 17.4561 91.9772 17.5764 91.8996C17.6967 91.8219 17.7961 91.7037 17.863 91.559C18.0377 91.2398 18.5532 89.574 19.7573 87.4936C21.2242 84.955 24.1282 83.0394 24.6223 82.6351C24.7693 82.5314 24.8834 82.3702 24.9463 82.1776C25.0091 81.9849 25.0171 81.772 24.9688 81.5732C24.9383 81.4636 24.8891 81.3632 24.8244 81.2786C24.7598 81.1939 24.6813 81.127 24.5939 81.0822Z" fill="#FFD79B"/>
</svg>
