<svg width="100" height="100" viewBox="0 0 100 100" fill="none" xmlns="http://www.w3.org/2000/svg">
<path fill-rule="evenodd" clip-rule="evenodd" d="M74.5356 79.0883C74.5139 78.653 77.7383 74.7874 78.4717 73.1147C81.5299 66.1456 82.4927 58.4938 80.596 50.9847C76.9633 36.6113 69.2754 19.8481 54.4161 14.2158C51.0725 12.9513 47.3513 13.2169 43.9391 12.4311C38.417 11.1666 36.6214 9.02243 33.6716 8.18066C31.1065 7.45811 27.6239 9.02426 25.5122 10.7277C22.118 13.468 23.993 14.9239 23.0212 18.4084C22.2004 21.3848 21.2163 24.3138 20.0732 27.182C16.0793 37.1171 18.7202 46.998 22.1776 56.9638C26.7225 70.0673 34.0094 83.3044 50.415 86.2543C53.5202 86.8124 58.6575 85.6473 61.7482 86.5072C62.7092 86.7745 63.0398 87.5476 63.5167 88.2503C67.4474 94.0452 76.8532 87.0906 75.6483 82.2495C75.3304 80.9724 74.6006 80.2173 74.5446 79.0883H74.5356Z" fill="#A7C69B"/>
<path fill-rule="evenodd" clip-rule="evenodd" d="M68.4788 83.6241C67.1295 84.3756 65.7151 84.9952 64.3043 85.6112C64.3043 85.6112 63.5456 85.781 63.2096 85.3095C63.1324 85.201 63.0801 85.0768 63.0565 84.9458C63.0329 84.8147 63.0385 84.6801 63.0731 84.5515C63.1076 84.4229 63.1701 84.3035 63.2562 84.2019C63.3422 84.1003 63.4497 84.019 63.5709 83.9637C66.6255 82.6198 69.6078 81.1458 72.1169 78.6422L72.5017 78.3026C72.6913 78.2122 72.5432 78.2429 72.8214 78.2086L73.2712 78.2809C73.6866 78.4814 73.7282 78.6205 73.795 78.951L73.786 79.3123C73.769 79.4212 73.7242 79.5239 73.6559 79.6104C73.3127 80.1216 72.7708 80.5136 72.2759 80.929C71.097 81.9469 69.8223 82.8482 68.4698 83.6205L68.4788 83.6241Z" fill="#70995F"/>
<path fill-rule="evenodd" clip-rule="evenodd" d="M24.1936 22.5342C23.471 22.863 22.5281 21.9923 23.0772 21.1812C24.833 18.5602 27.4975 16.6653 30.1456 15.6555C30.6586 15.4586 31.1734 15.2689 31.6864 15.0684C31.6864 15.0684 32.1543 14.9402 32.4795 15.1389C33.0214 15.4658 33.0394 16.4196 32.3927 16.7213C30.6369 17.5414 28.612 18.0598 26.9591 19.6115C26.0921 20.4316 25.1943 21.2372 24.5422 22.2271C24.4419 22.3462 24.3244 22.4498 24.1936 22.5342Z" fill="#70995F"/>
<path fill-rule="evenodd" clip-rule="evenodd" d="M42.7288 14.2302C42.4055 14.3856 42.6096 14.3422 42.1129 14.3205C39.891 14.2374 37.6637 14.8065 35.5015 15.4983C35.2322 15.5609 34.9491 15.5183 34.7103 15.3791C34.125 14.9672 34.237 14.0098 35.1727 13.7154C37.4632 13.0091 39.8603 12.4293 42.1869 12.5232C42.9907 12.5557 43.632 13.6377 42.8137 14.1815C42.7866 14.1995 42.7577 14.214 42.7288 14.2302Z" fill="#70995F"/>
<path d="M69.716 47.7753C71.3711 45.5312 70.8936 42.3703 68.6495 40.7153C66.4054 39.0602 63.2446 39.5377 61.5895 41.7817C59.9344 44.0258 60.4119 47.1867 62.656 48.8417C64.9 50.4968 68.0609 50.0194 69.716 47.7753Z" fill="#242424"/>
<path d="M41.3244 57.3724C42.4188 54.8077 41.227 51.8415 38.6624 50.747C36.0977 49.6526 33.1314 50.8444 32.037 53.4091C30.9426 55.9737 32.1344 58.94 34.6991 60.0344C37.2637 61.1288 40.2299 59.937 41.3244 57.3724Z" fill="#242424"/>
<path d="M40.2831 67.9537C42.6214 67.0142 43.9315 64.7952 43.2092 62.9975C42.4868 61.1998 40.0057 60.5041 37.6674 61.4436C35.329 62.3831 34.019 64.6021 34.7413 66.3999C35.4636 68.1976 37.9447 68.8933 40.2831 67.9537Z" fill="#F9ADA7"/>
<path d="M69.2182 57.2914C71.6628 56.6796 73.2633 54.66 72.793 52.7806C72.3226 50.9011 69.9596 49.8735 67.5149 50.4853C65.0703 51.0971 63.4698 53.1166 63.9401 54.9961C64.4105 56.8755 66.7735 57.9032 69.2182 57.2914Z" fill="#F9ADA7"/>
<path fill-rule="evenodd" clip-rule="evenodd" d="M65.6482 43.5985C65.693 43.8956 65.6488 44.1993 65.5211 44.4713C65.3933 44.7432 65.1877 44.9712 64.9304 45.1263C64.6731 45.2815 64.3755 45.3568 64.0754 45.3429C63.7752 45.3289 63.486 45.2262 63.2442 45.0478C63.0024 44.8694 62.8189 44.6234 62.717 44.3407C62.615 44.0581 62.5992 43.7515 62.6715 43.4599C62.7438 43.1682 62.9009 42.9046 63.1231 42.7022C63.3452 42.4999 63.6224 42.368 63.9195 42.3232C64.1168 42.2932 64.318 42.3024 64.5117 42.3503C64.7054 42.3981 64.8878 42.4838 65.0483 42.6022C65.2089 42.7207 65.3446 42.8697 65.4475 43.0406C65.5504 43.2116 65.6186 43.4011 65.6482 43.5985Z" fill="white"/>
<path d="M36.2361 55.6496C36.5654 54.8779 36.2068 53.9854 35.4351 53.6561C34.6634 53.3268 33.7709 53.6854 33.4416 54.4571C33.1122 55.2288 33.4709 56.1213 34.2425 56.4506C35.0142 56.78 35.9068 56.4213 36.2361 55.6496Z" fill="white"/>
<path d="M58.5545 53.165C58.4154 52.7044 58.0126 52.3648 57.5123 52.4641C57.0787 52.549 56.6723 53.044 56.8114 53.5046C56.9324 53.9056 56.992 54.2795 56.8457 54.5884C56.6303 54.9501 56.3086 55.2365 55.9245 55.4085C55.0791 55.8222 53.9537 55.7933 53.3738 54.9642C52.915 54.3084 51.8872 54.7835 51.8222 55.4844C51.7463 56.3262 51.3651 57.1698 50.5703 57.5527C49.7755 57.9357 49.015 57.6683 48.5454 56.9801C48.2744 56.5827 47.6187 56.6188 47.2918 56.9006C46.8962 57.2492 46.9413 57.755 47.2123 58.1542C48.1046 59.4602 49.8171 59.7926 51.2333 59.2001C52.1456 58.7914 52.8597 58.039 53.2203 57.1065C54.3041 57.6015 55.6715 57.513 56.7156 56.9981C58.1969 56.2666 59.044 54.7908 58.5545 53.165Z" fill="#242424"/>
<path d="M85.7769 17.5517C83.7483 16.3994 82.3654 14.8794 81.2481 12.6844C80.3234 10.8764 79.8116 9.65054 79.2049 6.36112C79.1922 6.28752 79.1606 6.21842 79.113 6.16046C79.0655 6.1025 79.0036 6.05766 78.9334 6.03027C78.8632 6.00288 78.7871 5.99386 78.7123 6.0041C78.6376 6.01434 78.5668 6.04348 78.5067 6.0887C78.3994 6.18427 78.3313 6.31555 78.3155 6.45755C78.1936 7.13135 77.5929 11.2055 75.3438 13.8271C74.3094 15.0325 72.7571 16.1764 71.2427 16.9394C71.1558 16.9829 71.0859 17.0537 71.0441 17.1407C70.9987 17.2319 70.9879 17.3363 71.0136 17.4348C71.0495 17.5465 71.1142 17.647 71.2013 17.7265C71.7057 18.2375 74.6895 20.7483 76.1333 23.8461C77.2969 26.3388 77.7647 28.2951 77.9329 28.6759C77.9621 28.7566 78.0118 28.8285 78.077 28.8848C78.1423 28.9411 78.221 28.98 78.3057 28.9978C78.4201 29.0086 78.5347 28.9799 78.6302 28.9166C78.7257 28.8533 78.7961 28.7594 78.8296 28.6506C78.9868 28.2324 79.5606 26.029 80.2527 24.6862C81.8549 21.5523 82.8491 20.9749 85.8573 18.2484C85.9082 18.202 85.9474 18.1445 85.9717 18.0804C85.996 18.0164 86.0048 17.9476 85.9974 17.8795C85.9896 17.8115 85.9655 17.7463 85.9272 17.6893C85.8888 17.6323 85.8373 17.5851 85.7769 17.5517Z" fill="#FFD79B"/>
<path d="M16.7022 52.2417C15.6722 51.7724 14.6193 51.1021 13.9371 50.4212C12.4791 48.9701 12.1667 46.8348 12.1052 46.4814C12.0948 46.4012 12.0679 46.3242 12.0265 46.2555C11.985 46.1868 11.9298 46.128 11.8647 46.0829C11.8026 46.041 11.7321 46.0141 11.6585 46.0042C11.5849 45.9944 11.5101 46.0018 11.4397 46.026C11.3592 46.0489 11.2859 46.0933 11.2274 46.1548C11.1689 46.2163 11.1272 46.2927 11.1065 46.3762C10.6118 48.0657 10.2327 48.6811 9.55577 49.5866C8.73511 50.6811 7.75303 51.4125 6.33874 51.9227C6.25225 51.9543 6.17565 52.0094 6.11707 52.0822C6.0585 52.155 6.02013 52.2429 6.00603 52.3364C5.99194 52.4298 6.00265 52.5255 6.03702 52.6133C6.07139 52.701 6.12815 52.7775 6.20127 52.8346C8.22064 54.4092 8.90174 54.7519 9.9359 56.4801C10.3796 57.2223 10.7232 58.4134 10.8222 58.6443C10.8559 58.7412 10.9158 58.826 10.9949 58.8887C11.0739 58.9514 11.1688 58.9894 11.2682 58.9981C11.3676 59.0068 11.4673 58.9859 11.5555 58.9378C11.6437 58.8898 11.7167 58.8166 11.7657 58.727C11.8938 58.5294 12.2719 57.4983 13.155 56.2105C14.2308 54.6391 16.3616 53.4533 16.723 53.203C16.8308 53.1388 16.9145 53.0391 16.9606 52.9198C17.0067 52.8006 17.0125 52.6688 16.9771 52.5457C16.9552 52.4776 16.9193 52.4152 16.8718 52.3627C16.8244 52.3103 16.7665 52.269 16.7022 52.2417Z" fill="#FFD79B"/>
<path d="M28.5939 80.0822C27.1881 79.3239 25.7539 78.2412 24.8238 77.1411C22.8357 74.7986 22.4097 71.3474 22.3245 70.7765C22.3113 70.6468 22.275 70.5222 22.2184 70.4113C22.1617 70.3005 22.086 70.206 21.9965 70.1345C21.9123 70.0664 21.8164 70.0227 21.7162 70.0068C21.6161 69.9908 21.5143 70.0031 21.4186 70.0425C21.3086 70.0789 21.2084 70.1503 21.1284 70.2494C21.0483 70.3484 20.9911 70.4716 20.9627 70.6065C20.2882 73.3359 19.7713 74.3301 18.8483 75.7929C17.7293 77.561 16.3917 78.7426 14.4619 79.5668C14.3439 79.6178 14.2395 79.7068 14.1596 79.8245C14.0798 79.9421 14.0274 80.084 14.0082 80.235C13.989 80.3861 14.0036 80.5406 14.0505 80.6823C14.0973 80.8241 14.1747 80.9476 14.2744 81.04C17.0293 83.5837 17.9565 84.1372 19.368 86.9308C19.973 88.1281 20.4416 90.0541 20.5765 90.4254C20.6224 90.5818 20.7041 90.7189 20.812 90.8202C20.9198 90.9215 21.0491 90.9828 21.1847 90.9969C21.3202 91.011 21.4561 90.9772 21.5764 90.8996C21.6967 90.8219 21.7961 90.7037 21.863 90.559C22.0377 90.2398 22.5532 88.574 23.7573 86.4936C25.2242 83.955 28.1282 82.0394 28.6223 81.6351C28.7693 81.5314 28.8834 81.3702 28.9463 81.1776C29.0091 80.9849 29.0171 80.772 28.9688 80.5732C28.9383 80.4636 28.8891 80.3632 28.8244 80.2786C28.7598 80.1939 28.6813 80.127 28.5939 80.0822Z" fill="#FFD79B"/>
</svg>
