<svg width="100" height="100" viewBox="0 0 100 100" fill="none" xmlns="http://www.w3.org/2000/svg">
<path fill-rule="evenodd" clip-rule="evenodd" d="M88.1661 53.4919C88.1661 53.4919 84.2661 35.2284 72.7194 28.2011C61.1728 21.1738 56.1552 24.4056 52.1326 22.6018C46.9859 20.2964 45.8389 10.7562 46.0954 5.93628C46.0954 5.93628 41.3033 12.9129 42.2264 19.8602C42.2264 19.8602 33.4557 7.45416 28.4169 6.53755C28.4169 6.53755 27.8516 20.1919 30.3988 25.399C30.3988 25.399 20.8912 20.8601 17.4323 22.427C17.4323 22.427 28.8449 29.0279 26.0919 33.6763C23.3388 38.3246 8.22053 48.9301 17.8947 72.5821C27.5689 96.2342 53.2093 96.5838 61.998 92.8961C70.7866 89.2085 91.8718 79.7712 88.1727 53.4984L88.1661 53.4919Z" fill="#FFE3CE"/>
<path fill-rule="evenodd" clip-rule="evenodd" d="M54.7926 23.6587C54.7926 23.6587 44.3946 24.1113 38.6989 26.7631C32.1323 29.8103 25.672 35.3018 25.6279 35.323C24.7309 35.8262 30.6586 29.9639 20.2181 24.2649L17.6611 22.0608C17.6611 22.0608 20.919 21.2292 29.9331 24.5574C29.9331 24.5574 27.3859 9.7708 28.6865 6.46873C28.6865 6.46873 36.0144 10.707 41.4128 18.7228C41.4128 18.7228 44.2394 7.71538 45.7442 6.38867C45.7442 6.38867 46.0105 20.824 54.786 23.6637L54.7926 23.6587Z" fill="#F9897D"/>
<path fill-rule="evenodd" clip-rule="evenodd" d="M28.0019 5.74667L27.8108 5.98033L27.7356 6.27443C27.533 11.4309 27.6212 16.6937 28.6016 21.6329C28.7453 22.3567 28.9185 23.0772 29.1342 23.7847C29.1342 23.7847 28.8254 23.6834 28.4806 23.5461C25.6524 22.3926 22.7131 21.293 19.7247 21.164C18.8506 21.1264 17.9618 21.1885 17.1628 21.5463L16.9144 21.7309L16.769 22.0038L16.7527 22.3126L16.8687 22.6001L17.0941 22.8109L17.2167 22.8828C20.4844 24.8434 23.9989 27.1439 25.4743 30.4346C25.8681 31.312 25.9645 32.3429 25.3877 33.2547C24.0251 35.3787 22.12 37.158 20.5465 39.2265C16.8932 44.0317 14.426 49.7519 14.0568 55.7874C13.6679 62.14 15.3083 68.5317 17.9993 74.3418C21.2573 81.3756 26.7405 87.3229 33.6715 90.8815C40.8034 94.5151 48.8819 95.8627 56.8072 94.7407C60.1566 94.2506 63.3427 92.9435 66.3833 91.5089C74.159 87.818 81.4036 82.4834 85.5552 74.8041C89.0109 68.4157 89.8883 60.7659 88.9553 53.6356C88.9227 53.3906 88.872 53.067 88.8704 53.0605L88.8214 52.8448C87.3509 46.5332 84.7939 40.4274 81.0653 35.1205C78.7028 31.7613 75.7422 28.8775 72.164 26.8074C68.0956 24.4513 63.6237 22.7537 58.8675 22.4449C56.4167 22.2815 53.8303 22.6851 51.7569 21.3551C49.5299 19.9271 48.4515 17.2966 47.7342 14.5745C46.9801 11.6977 46.6742 8.72169 46.8274 5.75158L46.7768 5.44932L46.6134 5.19606L46.3504 5.03267L46.0464 5L45.7573 5.09803C45.4455 5.43108 45.181 5.8055 44.9714 6.21071C42.9666 9.60591 41.5582 13.4226 41.4324 17.3211C38.6548 13.6775 35.7318 10.0471 32.085 7.35442C31.0164 6.56363 29.8466 5.84144 28.577 5.60616H28.2732L28.0019 5.74179V5.74667ZM29.1309 7.24822C31.0377 8.03084 32.5931 9.50623 34.1012 10.9963C36.8788 13.7461 39.3672 16.8048 41.6497 20.0006L41.9079 20.2441L42.2068 20.3339L42.514 20.2866L42.7722 20.1117L42.9356 19.8438L42.9633 19.5317C42.4732 15.7444 43.6528 11.8525 45.3929 8.40011L45.4125 8.36415C45.589 12.3688 46.2637 16.4927 48.4156 19.8569C49.5772 21.6737 51.3565 23.1377 53.6048 23.5429C55.9085 23.9579 58.2858 23.7259 60.6304 24.033C65.0975 24.6376 69.4125 26.5639 73.0937 29.0229C80.6193 34.052 84.838 43.4484 87.1156 51.8433C87.2512 52.3449 87.3819 52.8497 87.4963 53.3562V53.3807C88.5404 60.8884 87.5747 68.7604 83.6387 75.2959C78.9511 83.0765 70.7001 88.2036 62.382 91.7279C58.7678 93.2621 54.7583 93.7408 50.7978 93.6591C40.024 93.4336 29.3368 88.6643 22.8814 79.8398C19.893 75.7551 17.8441 71.0168 16.5729 66.0956C14.8835 59.5601 15.0175 52.5344 17.898 46.275C19.6839 42.4011 22.4843 39.0565 25.1802 35.8525C26.27 34.5454 27.4186 33.2383 27.2356 31.4541C27.0314 29.4444 25.6263 27.7975 24.244 26.4218C22.789 25.0101 21.2023 23.7409 19.5057 22.6312C19.5057 22.6312 19.2656 22.5626 19.5057 22.5675C21.0857 22.6099 22.6412 23.0151 24.1623 23.4824C26.1903 24.1113 28.1721 24.8805 30.0933 25.7845L30.4021 25.8662L30.688 25.8156L30.9314 25.6522L31.0948 25.4088L31.1422 25.1212L31.0703 24.8402C29.7109 22.0446 29.5116 18.7573 29.2976 15.5647C29.1113 12.7969 29.0721 10.0095 29.1342 7.23188L29.1309 7.24822Z" fill="#DD6057"/>
<path fill-rule="evenodd" clip-rule="evenodd" d="M49.4253 32.2171C49.4253 32.2171 54.9298 28.3595 60.6549 31.1551C66.38 33.9507 65.7199 32.0766 68.1217 32.7204C71.9891 33.7546 71.9744 35.6238 75.332 38.8082C78.1488 41.478 77.4561 44.1395 79.2779 46.9776C81.6568 50.6947 79.92 50.3548 81.4166 53.8775C83.41 58.5667 84.3576 63.7232 80.7631 68.0268C77.6342 71.7749 77.9642 73.3239 76.5542 76.2224C75.0837 79.2532 71.4401 80.8511 68.3488 81.4066C66.1186 81.8069 65.5598 79.727 62.9031 78.4575C60.2465 77.188 61.2464 74.9398 60.9507 71.7586C60.6549 68.5774 60.0961 68.5971 58.2793 66.3145C56.4624 64.032 56.3791 62.1056 56.0833 59.4228C55.7876 56.74 55.0474 55.7107 53.0394 52.8873C51.0314 50.064 50.5085 49.1441 50.7618 45.8616C51.015 42.5792 51.4153 42.3733 49.1982 40.0271C46.981 37.6808 48.0545 33.4115 49.4318 32.2024L49.4253 32.2171Z" fill="#DD6057"/>
<path fill-rule="evenodd" clip-rule="evenodd" d="M38.944 36.0732C38.944 36.0732 43.2051 36.2807 42.7803 40.6987C42.4535 44.1544 44.0874 45.6265 45.4288 47.5349C47.2261 50.1082 44.0188 54.4298 48.1884 58.0211C53.7109 62.7773 52.0297 66.2036 52.9365 69.4909C53.8776 72.9008 56.3676 72.6901 57.1846 76.68C58.0538 80.8676 59.9442 80.8627 60.1876 82.7123C60.7807 87.1989 54.4348 88.6694 46.4402 87.6547C40.9275 86.9554 37.7676 87.06 35.5847 84.7138C32.7418 81.6486 32.7728 79.8677 28.7927 77.3074C25.9318 75.4677 22.6509 69.7818 22.584 65.8245C22.517 61.8673 23.4417 58.3299 21.5203 54.7697C18.6153 49.3779 21.7654 44.5253 25.4857 43.4959C29.5704 42.3522 32.5359 41.2706 33.5129 38.7757C34.49 36.2807 38.9342 36.0928 38.9342 36.0928L38.944 36.0732Z" fill="#DD6057"/>
<path fill-rule="evenodd" clip-rule="evenodd" d="M67.7803 40.2215C68.1888 40.4078 69.3864 38.9553 69.5645 38.2887C69.9305 36.9309 68.1463 35.7055 67.1137 37.1809C66.4438 38.1449 67.367 40.0369 67.7673 40.2215H67.7803Z" fill="#F9897D"/>
<path fill-rule="evenodd" clip-rule="evenodd" d="M28.2012 56.2221C28.0378 56.6387 26.1671 56.4296 25.5756 56.075C24.3665 55.3529 24.7979 53.2321 26.5559 53.5785C27.6997 53.8023 28.3532 55.8071 28.1898 56.2221H28.2012Z" fill="#F9897D"/>
<path fill-rule="evenodd" clip-rule="evenodd" d="M72.3192 59.5144C72.726 59.6991 73.9237 58.2466 74.1034 57.5799C74.4694 56.2222 72.6836 54.9968 71.6526 56.4722C70.9811 57.4361 71.9058 59.3298 72.3143 59.5144H72.3192Z" fill="#F9897D"/>
<path fill-rule="evenodd" clip-rule="evenodd" d="M37.5715 72.177C37.4081 72.5936 35.5373 72.3845 34.9442 72.0299C33.7368 71.3078 34.1665 69.187 35.9246 69.5317C37.0683 69.7572 37.7218 71.7604 37.5584 72.177H37.5715Z" fill="#F9897D"/>
<path fill-rule="evenodd" clip-rule="evenodd" d="M75.6474 49.4789C76.0493 49.675 77.2813 48.2568 77.4855 47.5951C77.8891 46.2471 76.1392 44.9809 75.0707 46.4203C74.373 47.3647 75.2455 49.2829 75.6474 49.4789Z" fill="#F9897D"/>
<path fill-rule="evenodd" clip-rule="evenodd" d="M29.9511 68.3666C29.7992 68.7881 27.9235 68.6296 27.3222 68.2914C26.0952 67.6036 26.4661 65.4714 28.2388 65.7687C29.3972 65.9615 30.1047 67.9467 29.9511 68.3666Z" fill="#F9897D"/>
<path fill-rule="evenodd" clip-rule="evenodd" d="M63.5257 67.888C63.9489 67.7442 63.8296 65.8652 63.5044 65.2574C62.8411 64.0173 60.7007 64.3457 60.9621 66.125C61.1255 67.2851 63.1025 68.0334 63.5257 67.888Z" fill="#F9897D"/>
<path fill-rule="evenodd" clip-rule="evenodd" d="M50.5037 73.1327C50.0985 73.3238 48.8796 71.8909 48.6901 71.2276C48.3028 69.8747 50.0674 68.6232 51.118 70.0838C51.8042 71.0364 50.9089 72.9448 50.5037 73.1343V73.1327Z" fill="#F9897D"/>
<path fill-rule="evenodd" clip-rule="evenodd" d="M60.1468 40.7477C60.3347 40.7657 61.0667 39.2772 61.0977 38.8345C61.2121 37.1859 60.2547 36.931 59.0619 37.2316C57.3186 37.6728 59.1273 40.6481 60.1468 40.7477Z" fill="#F9897D"/>
<path fill-rule="evenodd" clip-rule="evenodd" d="M34.0522 51.2843C33.9296 51.4297 32.3725 50.8742 32.036 50.5719C30.8073 49.4674 31.3187 48.6113 32.384 48.0051C33.9443 47.1081 34.7139 50.5049 34.0522 51.2843Z" fill="#F9897D"/>
<path fill-rule="evenodd" clip-rule="evenodd" d="M70.4288 76.2418C70.6184 76.2598 71.3487 74.7713 71.3797 74.3286C71.4941 72.6783 70.5367 72.4251 69.3456 72.7257C67.6006 73.1652 69.4109 76.1422 70.4288 76.2418Z" fill="#F9897D"/>
<path fill-rule="evenodd" clip-rule="evenodd" d="M51.3549 83.9359C51.2323 84.0813 49.6753 83.5258 49.3403 83.2235C48.1117 82.119 48.6214 81.2629 49.6883 80.6567C51.2471 79.7597 52.0166 83.1565 51.3549 83.9359Z" fill="#F9897D"/>
<path fill-rule="evenodd" clip-rule="evenodd" d="M66.0092 49.4545C66.1971 49.479 66.9699 48.0184 67.014 47.569C67.1774 45.9237 66.2232 45.6427 65.0223 45.9107C63.2675 46.3012 64.9945 49.3271 66.0026 49.4545H66.0092Z" fill="#F9897D"/>
<path fill-rule="evenodd" clip-rule="evenodd" d="M35.2923 60.766C35.173 60.9147 33.6029 60.4017 33.2581 60.1125C31.9984 59.0423 32.4853 58.1796 33.5342 57.5358C35.0685 56.5964 35.9311 59.9703 35.2923 60.7693V60.766Z" fill="#F9897D"/>
<path fill-rule="evenodd" clip-rule="evenodd" d="M70.6951 67.3993C70.883 67.4222 71.6558 65.9615 71.6999 65.5122C71.8633 63.8668 70.9091 63.5858 69.7082 63.8538C67.9535 64.2459 69.6805 67.2702 70.6886 67.3993H70.6951Z" fill="#F9897D"/>
<path fill-rule="evenodd" clip-rule="evenodd" d="M45.0139 77.768C44.8946 77.9167 43.3244 77.4036 42.9797 77.1144C41.7216 76.0442 42.2085 75.1815 43.2558 74.5378C44.79 73.5983 45.6543 76.9723 45.0139 77.7713V77.768Z" fill="#F9897D"/>
<path fill-rule="evenodd" clip-rule="evenodd" d="M52.8418 37.4848C53.211 37.5894 53.314 36.0143 53.1767 35.5242C52.9055 34.5193 51.9219 34.0047 50.9595 34.9033C49.3469 36.4114 52.4725 37.3884 52.8418 37.4914V37.4848Z" fill="#F9897D"/>
<path fill-rule="evenodd" clip-rule="evenodd" d="M37.0372 43.8603C36.8428 44.1871 35.6795 43.1365 35.4262 42.6806C34.923 41.7689 35.271 40.72 36.5879 40.6906C38.7953 40.653 37.23 43.5286 37.0372 43.8603Z" fill="#F9897D"/>
<path fill-rule="evenodd" clip-rule="evenodd" d="M78.0966 64.2283C78.2273 64.5877 79.5589 63.7544 79.8939 63.3492C80.5474 62.5421 80.3938 61.4425 79.0998 61.1876C76.9349 60.7595 77.9692 63.8672 78.1015 64.2283H78.0966Z" fill="#F9897D"/>
<path fill-rule="evenodd" clip-rule="evenodd" d="M37.4866 80.6355C37.6418 80.9868 36.1059 81.312 35.588 81.2515C34.5537 81.1273 33.9018 80.2287 34.6534 79.1471C35.9115 77.3335 37.3297 80.2908 37.4866 80.6355Z" fill="#F9897D"/>
<path fill-rule="evenodd" clip-rule="evenodd" d="M56.781 51.3205C57.1487 51.4332 57.2941 49.8696 57.1715 49.3598C56.9281 48.3468 55.9592 47.8044 54.9723 48.6769C53.3172 50.1392 56.415 51.2028 56.781 51.3172V51.3205Z" fill="#F9897D"/>
<path fill-rule="evenodd" clip-rule="evenodd" d="M42.8865 56.2841C42.7019 56.6207 41.5092 55.5979 41.2445 55.1404C40.7151 54.2434 41.0337 53.1797 42.3506 53.1209C44.5564 53.0212 43.0712 55.9393 42.8865 56.2759V56.2841Z" fill="#F9897D"/>
<path fill-rule="evenodd" clip-rule="evenodd" d="M63.8737 58.7873C64.2396 58.9016 64.385 57.338 64.2625 56.8266C64.019 55.8136 63.0502 55.2712 62.0633 56.1437C60.4098 57.6141 63.506 58.6696 63.8737 58.7824V58.7873Z" fill="#F9897D"/>
<path fill-rule="evenodd" clip-rule="evenodd" d="M43.924 66.8423C43.7394 67.1789 42.5467 66.156 42.282 65.6986C41.7526 64.8016 42.0712 63.7379 43.3881 63.6791C45.5939 63.5778 44.1086 66.4975 43.924 66.8341V66.8423Z" fill="#F9897D"/>
<path d="M31.7763 68.2935C29.4486 67.3226 28.3486 64.6486 29.3194 62.3208C30.2903 59.993 32.9644 58.8931 35.2921 59.8639C37.6199 60.8348 38.7199 63.5088 37.749 65.8366C36.7781 68.1644 34.1041 69.2644 31.7763 68.2935Z" fill="#242424"/>
<path d="M64.8354 53.5199C64.2445 51.068 65.7531 48.6013 68.205 48.0104C70.6569 47.4195 73.1236 48.9281 73.7145 51.38C74.3055 53.8319 72.7968 56.2986 70.3449 56.8895C67.893 57.4804 65.4263 55.9718 64.8354 53.5199Z" fill="#242424"/>
<path d="M68.4934 62.8507C67.8346 61.2492 69.8368 58.9077 72.9654 57.6208C76.094 56.3338 79.1643 56.5887 79.8231 58.1902C80.4818 59.7916 78.4796 62.1331 75.351 63.4201C72.2224 64.7071 69.1521 64.4521 68.4934 62.8507Z" fill="#F9ADA7"/>
<path d="M30.9596 75.0906C30.4372 73.4397 32.6283 71.2739 35.8536 70.2533C39.0789 69.2326 42.1171 69.7435 42.6395 71.3945C43.162 73.0454 40.9709 75.2112 37.7455 76.2319C34.5202 77.2525 31.482 76.7416 30.9596 75.0906Z" fill="#F9ADA7"/>
<path fill-rule="evenodd" clip-rule="evenodd" d="M32.9869 63.1595C33.0908 63.4103 33.2667 63.6248 33.4924 63.7758C33.7182 63.9268 33.9836 64.0075 34.2551 64.0077C34.5267 64.008 34.7922 63.9277 35.0182 63.7772C35.2442 63.6266 35.4205 63.4125 35.5249 63.1618C35.6293 62.9111 35.657 62.6351 35.6047 62.3686C35.5523 62.1022 35.4222 61.8572 35.2307 61.6647C35.0392 61.4721 34.7949 61.3406 34.5288 61.2868C34.2626 61.233 33.9865 61.2592 33.7352 61.3622C33.5678 61.4308 33.4157 61.5318 33.2874 61.6593C33.1592 61.7868 33.0574 61.9385 32.9878 62.1055C32.9183 62.2724 32.8825 62.4515 32.8823 62.6324C32.8821 62.8132 32.9177 62.9923 32.9869 63.1595Z" fill="white"/>
<path fill-rule="evenodd" clip-rule="evenodd" d="M69.0204 51.5606C69.1243 51.8115 69.3003 52.0259 69.526 52.1769C69.7517 52.3279 70.0171 52.4086 70.2887 52.4088C70.5602 52.4091 70.8258 52.3288 71.0518 52.1783C71.2778 52.0277 71.4541 51.8136 71.5584 51.5629C71.6628 51.3122 71.6906 51.0362 71.6382 50.7697C71.5858 50.5033 71.4557 50.2583 71.2642 50.0658C71.0727 49.8732 70.8285 49.7418 70.5623 49.6879C70.2961 49.6341 70.02 49.6603 69.7687 49.7633C69.6014 49.8319 69.4492 49.9329 69.3209 50.0604C69.1927 50.188 69.0909 50.3396 69.0214 50.5066C68.9519 50.6736 68.916 50.8526 68.9158 51.0335C68.9157 51.2143 68.9512 51.3935 69.0204 51.5606Z" fill="white"/>
<path d="M44.9174 63.5207C44.9799 63.4407 45.0582 63.3745 45.1474 63.326C45.2365 63.2775 45.3346 63.2478 45.4357 63.2388C45.5368 63.2298 45.6387 63.2415 45.735 63.2735C45.8314 63.3054 45.9201 63.3567 45.9958 63.4243C46.2197 63.6138 46.4321 63.7788 46.6494 63.9292C46.7899 64.0288 46.9336 64.1252 47.0791 64.2167L47.2424 64.3164L47.2653 64.3295C47.3421 64.3736 47.4189 64.4144 47.4973 64.4553C48.3227 64.8946 49.2277 65.164 50.1589 65.2477C52.6849 65.4928 55.6504 64.403 57.897 62.4047C59.1833 61.2715 60.1472 59.8184 60.6909 58.1926C60.7237 58.0957 60.7764 58.0066 60.8456 57.9312C60.9148 57.8558 60.999 57.7957 61.0928 57.7547C61.2371 57.6852 61.3988 57.6605 61.5572 57.6838C61.7156 57.7072 61.8634 57.7775 61.9814 57.8857C62.0995 57.9939 62.1824 58.135 62.2194 58.2908C62.2564 58.4465 62.2459 58.6098 62.1892 58.7596C61.1647 61.8786 58.5505 64.5696 55.1945 65.9584C52.3777 67.1234 49.5315 67.1675 47.1885 66.0793C46.4025 65.7104 45.6695 65.2378 45.0089 64.6742C44.9257 64.6055 44.8572 64.5207 44.8073 64.425C44.7575 64.3292 44.7274 64.2244 44.7189 64.1168C44.7104 64.0092 44.7235 63.901 44.7576 63.7986C44.7917 63.6962 44.8461 63.6017 44.9174 63.5207Z" fill="#242424"/>
<path d="M92.7769 26.5517C90.7483 25.3994 89.3654 23.8794 88.2482 21.6844C87.3234 19.8764 86.8117 18.6505 86.2049 15.3611C86.1922 15.2875 86.1606 15.2184 86.1131 15.1605C86.0655 15.1025 86.0036 15.0577 85.9334 15.0303C85.8632 15.0029 85.7871 14.9939 85.7124 15.0041C85.6376 15.0143 85.5668 15.0435 85.5068 15.0887C85.3994 15.1843 85.3313 15.3155 85.3155 15.4575C85.1936 16.1313 84.593 20.2055 82.3438 22.8271C81.3094 24.0325 79.7572 25.1764 78.2427 25.9394C78.1558 25.9829 78.086 26.0537 78.0441 26.1407C77.9988 26.2319 77.988 26.3363 78.0137 26.4348C78.0495 26.5465 78.1142 26.647 78.2013 26.7265C78.7057 27.2375 81.6895 29.7483 83.1333 32.8461C84.2969 35.3388 84.7648 37.2951 84.9329 37.6759C84.9622 37.7566 85.0118 37.8285 85.077 37.8848C85.1423 37.9411 85.221 37.98 85.3057 37.9978C85.4201 38.0086 85.5348 37.9799 85.6302 37.9166C85.7257 37.8533 85.7962 37.7594 85.8296 37.6506C85.9868 37.2324 86.5607 35.029 87.2527 33.6862C88.8549 30.5523 89.8491 29.9749 92.8573 27.2484C92.9082 27.202 92.9474 27.1445 92.9717 27.0804C92.9961 27.0164 93.0049 26.9476 92.9974 26.8795C92.9896 26.8115 92.9655 26.7463 92.9272 26.6893C92.8888 26.6323 92.8373 26.5851 92.7769 26.5517Z" fill="#FFD79B"/>
<path d="M15.7022 42.2417C14.6722 41.7724 13.6193 41.1021 12.9371 40.4212C11.4791 38.9701 11.1667 36.8348 11.1052 36.4814C11.0948 36.4012 11.0679 36.3242 11.0265 36.2555C10.985 36.1868 10.9298 36.128 10.8647 36.0829C10.8026 36.041 10.7321 36.0141 10.6585 36.0042C10.5849 35.9944 10.5101 36.0018 10.4397 36.026C10.3592 36.0489 10.2859 36.0933 10.2274 36.1548C10.1689 36.2163 10.1272 36.2927 10.1065 36.3762C9.6118 38.0657 9.23271 38.6811 8.55577 39.5866C7.73511 40.6811 6.75303 41.4125 5.33874 41.9227C5.25225 41.9543 5.17565 42.0094 5.11707 42.0822C5.0585 42.155 5.02013 42.2429 5.00603 42.3364C4.99194 42.4298 5.00265 42.5255 5.03702 42.6133C5.07139 42.701 5.12815 42.7775 5.20127 42.8346C7.22064 44.4092 7.90174 44.7519 8.9359 46.4801C9.37955 47.2223 9.72323 48.4134 9.82217 48.6443C9.85586 48.7412 9.9158 48.826 9.99487 48.8887C10.0739 48.9514 10.1688 48.9894 10.2682 48.9981C10.3676 49.0068 10.4673 48.9859 10.5555 48.9378C10.6437 48.8898 10.7167 48.8166 10.7657 48.727C10.8938 48.5294 11.2719 47.4983 12.155 46.2105C13.2308 44.6391 15.3616 43.4533 15.723 43.203C15.8308 43.1388 15.9145 43.0391 15.9606 42.9198C16.0067 42.8006 16.0125 42.6688 15.9771 42.5457C15.9552 42.4776 15.9193 42.4152 15.8718 42.3627C15.8244 42.3103 15.7665 42.269 15.7022 42.2417Z" fill="#FFD79B"/>
<path d="M29.5939 86.0822C28.1881 85.3239 26.7539 84.2412 25.8238 83.1411C23.8357 80.7986 23.4097 77.3474 23.3245 76.7765C23.3113 76.6468 23.275 76.5222 23.2184 76.4113C23.1617 76.3005 23.086 76.206 22.9965 76.1345C22.9123 76.0664 22.8164 76.0227 22.7162 76.0068C22.6161 75.9908 22.5143 76.0031 22.4186 76.0425C22.3086 76.0789 22.2084 76.1503 22.1284 76.2494C22.0483 76.3484 21.9911 76.4716 21.9627 76.6065C21.2882 79.3359 20.7713 80.3301 19.8483 81.7929C18.7293 83.561 17.3917 84.7426 15.4619 85.5668C15.3439 85.6178 15.2395 85.7068 15.1596 85.8245C15.0798 85.9421 15.0274 86.084 15.0082 86.235C14.989 86.3861 15.0036 86.5406 15.0505 86.6823C15.0973 86.8241 15.1747 86.9476 15.2744 87.04C18.0293 89.5837 18.9565 90.1372 20.368 92.9308C20.973 94.1281 21.4416 96.0541 21.5765 96.4254C21.6224 96.5818 21.7041 96.7189 21.812 96.8202C21.9198 96.9215 22.0491 96.9828 22.1847 96.9969C22.3202 97.011 22.4561 96.9772 22.5764 96.8996C22.6967 96.8219 22.7961 96.7037 22.863 96.559C23.0377 96.2398 23.5532 94.574 24.7573 92.4936C26.2242 89.955 29.1282 88.0394 29.6223 87.6351C29.7693 87.5314 29.8834 87.3702 29.9463 87.1776C30.0091 86.9849 30.0171 86.772 29.9688 86.5732C29.9383 86.4636 29.8891 86.3632 29.8244 86.2786C29.7598 86.1939 29.6813 86.127 29.5939 86.0822Z" fill="#FFD79B"/>
</svg>
