<svg width="33" height="40" viewBox="0 0 33 40" fill="none" xmlns="http://www.w3.org/2000/svg">
<path fill-rule="evenodd" clip-rule="evenodd" d="M4.65151 19.8071C4.65152 19.8072 4.65153 19.8073 4.65153 19.8074L4.65158 19.8083L4.65203 19.8153C4.65247 19.8219 4.65318 19.8327 4.65422 19.8473C4.65628 19.8766 4.65961 19.9215 4.66448 19.9811C4.67423 20.1004 4.69013 20.2782 4.71444 20.5069C4.76307 20.9645 4.8452 21.6245 4.97856 22.4248C5.2458 24.0283 5.7163 26.18 6.52771 28.3889C8.16371 32.8426 11.0924 37.3018 16.321 38.2913C16.7702 38.3763 17.0681 38.8246 16.9866 39.2926C16.905 39.7605 16.4747 40.071 16.0256 39.986C9.93641 38.8336 6.69171 33.654 4.98381 29.0045C4.12327 26.6618 3.62919 24.3958 3.34982 22.7194C3.20989 21.8798 3.12321 21.1844 3.07136 20.6965C3.04543 20.4524 3.02818 20.2601 3.01733 20.1272C3.0119 20.0608 3.00807 20.0093 3.00555 19.9736C3.00429 19.9557 3.00336 19.9418 3.00272 19.932L3.00197 19.9204L3.00169 19.9158C3.00166 19.9153 3.00164 19.915 3.82659 19.8612L3.00164 19.915C2.97314 19.4403 3.31937 19.0314 3.77498 19.0017C4.23047 18.972 4.62284 19.3326 4.65151 19.8071Z" fill="#FF7976"/>
<path fill-rule="evenodd" clip-rule="evenodd" d="M4.25227 21.8623L4.26032 21.8567C4.26617 21.8527 4.27516 21.8465 4.28722 21.8382C4.31135 21.8216 4.34776 21.7967 4.3959 21.7639C4.49219 21.6984 4.63539 21.6017 4.82107 21.4783C5.19248 21.2314 5.73359 20.8776 6.40897 20.4527C7.76046 19.6023 9.64606 18.4691 11.783 17.3367C16.0993 15.0496 21.2908 12.8495 25.1788 12.8495C25.6323 12.8495 26 12.4355 26 11.9248C26 11.414 25.6323 11 25.1788 11C20.8891 11 15.4018 13.3751 11.0838 15.6632C8.90361 16.8184 6.98315 17.9728 5.60788 18.8381C4.91988 19.271 4.36743 19.6321 3.98612 19.8856C3.79545 20.0124 3.64751 20.1123 3.54674 20.1808C3.49636 20.2151 3.45776 20.2415 3.43151 20.2596C3.41839 20.2686 3.40835 20.2755 3.40147 20.2803L3.39069 20.2877C3.39049 20.2878 3.39035 20.2879 3.82131 21.0751L3.39035 20.2879C3.00429 20.556 2.88427 21.1257 3.12229 21.5604C3.36029 21.9952 3.86622 22.1303 4.25227 21.8623Z" fill="#FF7976"/>
<path fill-rule="evenodd" clip-rule="evenodd" d="M4.40685 5.79914L4.40648 5.79945L4.40607 5.79979L4.37898 5.82239L4.35258 5.84074C4.35073 5.84208 4.34653 5.84516 4.34012 5.84999C4.32628 5.86041 4.30217 5.879 4.26924 5.90598C4.20335 5.95997 4.10243 6.04733 3.97795 6.16994C3.72879 6.41534 3.38688 6.80025 3.04195 7.3398C2.35664 8.4118 1.64475 10.1161 1.64475 12.6013C1.64475 15.0944 2.3615 17.0886 3.0797 18.4617C3.43872 19.1481 3.79647 19.676 4.06096 20.0284C4.19306 20.2044 4.30143 20.3361 4.37441 20.4212C4.41088 20.4638 4.43846 20.4947 4.45567 20.5136C4.46427 20.5231 4.47028 20.5296 4.4735 20.533L4.47465 20.5343C4.4748 20.5344 4.47494 20.5346 4.47509 20.5347C4.47521 20.5349 4.47533 20.535 4.47546 20.5351C4.47563 20.5353 4.47581 20.5355 4.47599 20.5357C4.47602 20.5357 4.47596 20.5357 4.47599 20.5357C4.79588 20.8709 4.79574 21.4134 4.47521 21.7483C4.15421 22.0837 3.63351 22.0839 3.3122 21.7489L3.89342 21.1416C3.3122 21.7489 3.31195 21.7486 3.31169 21.7483L3.30974 21.7463L3.30616 21.7425C3.30341 21.7396 3.29992 21.7359 3.29573 21.7314C3.28733 21.7224 3.27609 21.7103 3.2622 21.695C3.23443 21.6644 3.19602 21.6213 3.14852 21.5658C3.05355 21.455 2.922 21.2948 2.76619 21.0871C2.45486 20.6723 2.04484 20.0659 1.6361 19.2844C0.818769 17.7218 0 15.4459 0 12.6013C0 9.74887 0.823632 7.71677 1.67385 6.38682C2.09668 5.72539 2.52253 5.24293 2.8492 4.9212C3.01262 4.76024 3.15164 4.6391 3.25369 4.55548C3.30474 4.51366 3.34661 4.48116 3.37775 4.4577C3.38799 4.44999 3.39707 4.44326 3.40494 4.43749C3.41698 4.42768 3.43321 4.41457 3.45356 4.39834C3.49779 4.36309 3.56151 4.31314 3.64396 4.25061C3.80882 4.12557 4.04882 3.95005 4.35792 3.74096C4.97573 3.32306 5.872 2.76945 6.99847 2.21664C9.24772 1.11283 12.4398 0 16.1776 0C16.6318 0 17 0.384332 17 0.858429C17 1.33253 16.6318 1.71686 16.1776 1.71686C12.7496 1.71686 9.79965 2.7391 7.69824 3.77036C6.64938 4.28508 5.81819 4.79901 5.25237 5.18175C4.96965 5.37299 4.75378 5.53107 4.61074 5.63956C4.53924 5.69379 4.48599 5.73558 4.45175 5.76288C4.43463 5.77652 4.42226 5.78654 4.41475 5.79267L4.40713 5.79892L4.40685 5.79914Z" fill="#FF7976"/>
<path fill-rule="evenodd" clip-rule="evenodd" d="M29.2356 21.0027C29.693 21.0397 30.034 21.4435 29.9973 21.9045C29.8317 23.9831 29.284 28.0082 27.4467 31.755C25.5992 35.5225 22.4076 39.0753 16.9674 39.9885C16.5148 40.0645 16.0868 39.7562 16.0114 39.3C15.936 38.8437 16.2419 38.4123 16.6945 38.3363C21.4499 37.538 24.2654 34.4627 25.9571 31.0128C27.6589 27.5422 28.1825 23.7606 28.341 21.7705C28.3777 21.3095 28.7782 20.9657 29.2356 21.0027Z" fill="#FF7976"/>
<path fill-rule="evenodd" clip-rule="evenodd" d="M14.0423 14.6034C14.1882 14.1443 14.6691 13.8935 15.1163 14.0434L14.852 14.8748C15.1163 14.0434 15.1164 14.0434 15.1166 14.0435L15.125 14.0463L15.1481 14.0541C15.1682 14.0609 15.1976 14.071 15.236 14.0841C15.3126 14.1104 15.4248 14.1493 15.5686 14.1999C15.8562 14.3012 16.2705 14.4497 16.7804 14.64C17.7995 15.0204 19.2035 15.5685 20.7427 16.2398C23.7888 17.5683 27.4799 19.4274 29.7149 21.4725C30.0661 21.7939 30.0971 22.3467 29.7841 22.7073C29.4711 23.0679 28.9327 23.0997 28.5815 22.7783C26.5753 20.9426 23.1184 19.1763 20.0767 17.8497C18.5719 17.1935 17.1971 16.6566 16.1984 16.2839C15.6993 16.0976 15.2949 15.9526 15.016 15.8544C14.8766 15.8054 14.7686 15.768 14.696 15.743C14.6596 15.7306 14.6321 15.7212 14.6139 15.715L14.5936 15.7082L14.5878 15.7062C14.5878 15.7062 14.5877 15.7062 14.5877 15.7062C14.1405 15.5563 13.8963 15.0626 14.0423 14.6034Z" fill="#FF7976"/>
<path fill-rule="evenodd" clip-rule="evenodd" d="M29 22C29 21.4477 29.2236 21 29.4995 21H29.5005C29.7764 21 30 21.4477 30 22C30 22.5523 29.7764 23 29.5005 23H29.4995C29.2236 23 29 22.5523 29 22Z" fill="#FF7976"/>
<path fill-rule="evenodd" clip-rule="evenodd" d="M16 0.841696C16 0.37684 16.3682 0 16.8224 0C20.5602 0 23.7523 1.09114 26.0015 2.17343C27.128 2.71546 28.0243 3.25828 28.6421 3.66804C28.9512 3.87305 29.1912 4.04515 29.356 4.16775C29.4385 4.22906 29.5022 4.27804 29.5464 4.3126C29.5668 4.32851 29.583 4.34137 29.5951 4.35099C29.6029 4.35664 29.612 4.36325 29.6223 4.37081C29.6534 4.39381 29.6953 4.42567 29.7463 4.46668C29.8484 4.54867 29.9874 4.66745 30.1508 4.82527C30.4775 5.14073 30.9033 5.61379 31.3262 6.26232C32.1764 7.56634 33 9.55884 33 12.3557C33 15.1353 32.1687 17.7082 31.3578 19.5633C30.9503 20.4956 30.5426 21.2586 30.2354 21.7907C30.0817 22.057 29.9527 22.2662 29.861 22.4106C29.8151 22.4828 29.7785 22.5389 29.7526 22.5779C29.7397 22.5973 29.7295 22.6126 29.7222 22.6234L29.7135 22.6363L29.7108 22.6403L29.7095 22.6422C29.7093 22.6424 29.7092 22.6426 29.0894 22.1962L29.7092 22.6426C29.4478 23.0228 28.9348 23.1141 28.5634 22.8466C28.1921 22.5792 28.1028 22.0546 28.3637 21.6744C28.3637 21.6744 28.3637 21.6745 28.3637 21.6744C28.3637 21.6744 28.3638 21.6743 28.3638 21.6742C28.3639 21.6741 28.364 21.674 28.364 21.6739L28.3643 21.6735L28.369 21.6665C28.3736 21.6598 28.381 21.6487 28.3911 21.6334C28.4113 21.6029 28.4422 21.5557 28.4822 21.4928C28.5622 21.3669 28.6786 21.1782 28.8194 20.9344C29.1011 20.4463 29.4787 19.74 29.8565 18.8758C30.6161 17.138 31.3553 14.8097 31.3553 12.3557C31.3553 9.91887 30.6434 8.24782 29.958 7.19672C29.6131 6.66769 29.2712 6.29028 29.0221 6.04967C28.8976 5.92945 28.7967 5.84379 28.7308 5.79085C28.6978 5.7644 28.6737 5.74618 28.6599 5.73595C28.6535 5.73121 28.6493 5.7282 28.6474 5.72688C28.6473 5.72678 28.6471 5.72669 28.647 5.72661C28.6462 5.72604 28.6461 5.72597 28.6467 5.7264L28.647 5.72661L28.621 5.70889L28.5939 5.68674L28.5938 5.6866L28.5931 5.68609L28.5929 5.68588L28.5853 5.67975C28.5777 5.67374 28.5654 5.66392 28.5483 5.65054C28.514 5.62377 28.4608 5.5828 28.3893 5.52962C28.2462 5.42325 28.0303 5.26825 27.7476 5.08074C27.1818 4.70546 26.3506 4.20155 25.3018 3.69686C23.2004 2.6857 20.2504 1.68339 16.8224 1.68339C16.3682 1.68339 16 1.30655 16 0.841696Z" fill="#FF7976"/>
<path fill-rule="evenodd" clip-rule="evenodd" d="M11 22.6911C9.72332 22.6911 8.68977 23.7256 8.68977 25C8.68977 26.2744 9.72332 27.3089 11 27.3089C12.2767 27.3089 13.3102 26.2744 13.3102 25C13.3102 23.7256 12.2767 22.6911 11 22.6911ZM7 25C7 22.7901 8.79163 21 11 21C13.2084 21 15 22.7901 15 25C15 27.2099 13.2084 29 11 29C8.79163 29 7 27.2099 7 25Z" fill="#FF7976"/>
<path fill-rule="evenodd" clip-rule="evenodd" d="M22 22.6911C20.7233 22.6911 19.6898 23.7256 19.6898 25C19.6898 26.2744 20.7233 27.3089 22 27.3089C23.2767 27.3089 24.3102 26.2744 24.3102 25C24.3102 23.7256 23.2767 22.6911 22 22.6911ZM18 25C18 22.7901 19.7916 21 22 21C24.2084 21 26 22.7901 26 25C26 27.2099 24.2084 29 22 29C19.7916 29 18 27.2099 18 25Z" fill="#FF7976"/>
</svg>
