<svg width="47" height="22" viewBox="0 0 47 22" fill="none" xmlns="http://www.w3.org/2000/svg">
<path d="M40.589 10.7344H34.8705C33.5042 10.7344 32.6609 9.52334 31.8462 8.35299C30.9489 7.06374 30.0207 5.73155 28.4386 5.73155H24.8648C24.6458 5.73155 24.4358 5.64455 24.2809 5.48969C24.1261 5.33484 24.0391 5.12482 24.0391 4.90582C24.0391 4.68682 24.1261 4.47678 24.2809 4.32193C24.4358 4.16707 24.6458 4.08008 24.8648 4.08008H28.4386C30.8839 4.08008 32.1688 5.92643 33.2015 7.40945C33.8004 8.27042 34.3663 9.08294 34.8705 9.08294H40.589C40.808 9.08294 41.0181 9.16994 41.173 9.32479C41.3278 9.47965 41.4148 9.68968 41.4148 9.90868C41.4148 10.1277 41.3278 10.3377 41.173 10.4926C41.0181 10.6474 40.808 10.7344 40.589 10.7344Z" fill="#FF7976"/>
<path d="M42.6014 13.5972H33.4412C31.6697 13.5972 30.7427 12.6701 29.9984 11.9259C29.3378 11.2653 28.8104 10.7379 27.7227 10.7379H23.3936C23.1746 10.7379 22.9646 10.6509 22.8097 10.496C22.6549 10.3412 22.5679 10.1312 22.5679 9.91216C22.5679 9.69316 22.6549 9.48313 22.8097 9.32827C22.9646 9.17342 23.1746 9.08643 23.3936 9.08643H27.7227C29.4952 9.08643 30.4212 10.0134 31.1666 10.7577C31.8272 11.4183 32.3534 11.9457 33.4412 11.9457H42.6014C42.8204 11.9457 43.0304 12.0327 43.1853 12.1875C43.3401 12.3424 43.4271 12.5524 43.4271 12.7714C43.4271 12.9904 43.3401 13.2005 43.1853 13.3553C43.0304 13.5102 42.8204 13.5972 42.6014 13.5972Z" fill="#FF7976"/>
<path d="M36.3003 7.87975C35.5714 7.87975 34.8589 7.66364 34.253 7.25873C33.647 6.85382 33.1747 6.2783 32.8958 5.60496C32.6168 4.93161 32.5439 4.19068 32.686 3.47586C32.8282 2.76104 33.1792 2.10443 33.6946 1.58908C34.2099 1.07372 34.8665 0.722759 35.5813 0.580573C36.2962 0.438386 37.0371 0.511365 37.7104 0.790273C38.3838 1.06918 38.9593 1.54149 39.3642 2.14749C39.7691 2.75348 39.9852 3.46594 39.9852 4.19476C39.9843 5.17182 39.5959 6.1086 38.905 6.79948C38.2141 7.49036 37.2773 7.87888 36.3003 7.87975ZM36.3003 2.16235C35.898 2.16235 35.5048 2.28164 35.1703 2.50513C34.8359 2.72863 34.5753 3.04629 34.4214 3.41793C34.2676 3.78957 34.2274 4.1985 34.3059 4.593C34.3845 4.98749 34.5782 5.34982 34.8627 5.63417C35.1472 5.91852 35.5097 6.11211 35.9042 6.19044C36.2987 6.26878 36.7077 6.22835 37.0792 6.07427C37.4508 5.92019 37.7683 5.65939 37.9916 5.32483C38.2149 4.99028 38.334 4.597 38.3337 4.19476C38.3332 3.65572 38.1187 3.13894 37.7374 2.75788C37.3562 2.37682 36.8393 2.16264 36.3003 2.16235Z" fill="#FF7976"/>
<path d="M45.795 21.3682C45.576 21.3682 45.366 21.2812 45.2111 21.1264C45.0562 20.9715 44.9692 20.7615 44.9692 20.5425V1.82574C44.9692 1.60674 45.0562 1.3967 45.2111 1.24185C45.366 1.08699 45.576 1 45.795 1C46.014 1 46.224 1.08699 46.3789 1.24185C46.5337 1.3967 46.6207 1.60674 46.6207 1.82574V20.5425C46.6207 20.7615 46.5337 20.9715 46.3789 21.1264C46.224 21.2812 46.014 21.3682 45.795 21.3682Z" fill="#FF7976"/>
<path d="M0.826227 21.3682C0.607227 21.3682 0.397206 21.2812 0.24235 21.1264C0.0874941 20.9715 0.000488281 20.7615 0.000488281 20.5425V1.82574C0.000488281 1.60674 0.0874941 1.3967 0.24235 1.24185C0.397206 1.08699 0.607227 1 0.826227 1C1.04523 1 1.25525 1.08699 1.4101 1.24185C1.56496 1.3967 1.65196 1.60674 1.65196 1.82574V20.5425C1.65196 20.7615 1.56496 20.9715 1.4101 21.1264C1.25525 21.2812 1.04523 21.3682 0.826227 21.3682Z" fill="#FF7976"/>
<path d="M6.22997 17.879C5.48564 17.8795 4.74254 17.8188 4.00819 17.6974C3.81529 17.6653 3.64002 17.5658 3.51361 17.4166C3.38719 17.2674 3.31783 17.0782 3.31787 16.8826V4.19488C3.31787 3.97588 3.40485 3.76586 3.55971 3.611C3.71456 3.45615 3.92461 3.36914 4.14361 3.36914H22.6809C22.8999 3.36914 23.1099 3.45615 23.2647 3.611C23.4196 3.76586 23.5066 3.97588 23.5066 4.19488V14.9008C23.506 15.0332 23.4735 15.1634 23.412 15.2805C23.3504 15.3977 23.2616 15.4983 23.153 15.5739C23.0444 15.6494 22.9192 15.6978 22.788 15.7148C22.6567 15.7318 22.5233 15.7169 22.399 15.6715C19.8106 14.7291 16.9756 14.8777 13.7321 16.1251C13.6099 16.1714 13.4722 16.2264 13.3203 16.2881C11.9386 16.843 9.34906 17.879 6.22997 17.879ZM4.96935 16.1615C8.32405 16.5116 11.2516 15.3413 12.7071 14.7588L13.1386 14.5882C16.3249 13.3628 19.1941 13.0963 21.8551 13.7812V5.02062H4.96604L4.96935 16.1615Z" fill="#FF7976"/>
</svg>
