<svg width="360" height="495" viewBox="0 0 360 495" fill="none" xmlns="http://www.w3.org/2000/svg">
<path d="M85.6523 408.861C46.3242 365.683 -51.5864 336.544 -95.6257 327.372C-241.57 289.274 -250.787 82.906 -120.206 5.65041C-5.63016 -62.1355 80.6458 -76.7213 274.612 -88.5379C500.441 -102.296 649.481 -15.3382 681.719 20.4667C756.995 104.072 749.314 242.709 669.429 327.372C589.544 412.036 482.006 474.475 359.106 491.408C236.205 508.341 134.812 462.834 85.6523 408.861Z" fill="white" fill-opacity="0.1"/>
<path d="M194.662 283C10.1592 283 -59.5417 236.971 -128.218 210.267C-220.469 128.048 -120.53 28.9625 -74.4045 -12.1473C-28.2788 -53.2572 194.662 -97.5293 414.527 -81.7178C634.393 -65.9063 717.419 78.5051 634.393 130.156C551.367 181.807 319.201 283 194.662 283Z" fill="white" fill-opacity="0.1"/>
</svg>
