<svg width="360" height="112" viewBox="0 0 360 112" fill="none" xmlns="http://www.w3.org/2000/svg">
<mask id="mask0_14_2" style="mask-type:alpha" maskUnits="userSpaceOnUse" x="16" y="16" width="328" height="72">
<rect x="16" y="16" width="328" height="72" rx="20" fill="#5A77B0"/>
</mask>
<g mask="url(#mask0_14_2)">
<g filter="url(#filter0_d_14_2)">
<rect x="16" y="16" width="328" height="72" rx="20" fill="#5A77B0"/>
</g>
<path d="M126.564 95.3972C110.767 78.052 71.4367 66.3469 53.7465 62.6624C-4.87794 47.3578 -8.58051 -35.542 43.873 -66.5763C89.897 -93.8066 124.553 -99.6658 202.468 -104.413C293.181 -109.939 353.049 -75.0076 365.999 -60.6245C396.237 -27.0394 393.151 28.6522 361.062 62.6624C328.973 96.6726 285.776 121.755 236.408 128.557C187.04 135.359 146.312 117.079 126.564 95.3972Z" fill="white" fill-opacity="0.1"/>
<path d="M170.785 41C96.7178 41 68.7368 22.4884 41.1674 11.7488C4.13383 -21.3178 44.2535 -61.1673 62.7703 -77.7006C81.2871 -94.2339 170.785 -112.039 259.048 -105.68C347.312 -99.321 380.642 -41.2425 347.312 -20.4699C313.981 0.302666 220.78 41 170.785 41Z" fill="white" fill-opacity="0.1"/>
<path d="M215.032 72.0315L214.535 72.3265C214.183 72.5383 213.718 72.7757 213.105 73.0977C212.491 73.4198 211.749 73.7639 210.891 74.1318C210.035 74.5267 209.045 74.8878 207.979 75.3183C206.89 75.6828 205.731 76.1354 204.47 76.4897L202.539 77.0643L200.505 77.5729C199.13 77.9509 197.674 78.1831 196.218 78.5018C194.748 78.751 193.253 78.9934 191.756 79.2002C190.251 79.351 188.754 79.5561 187.273 79.6578C185.791 79.7596 184.333 79.8528 182.921 79.8935L178.853 79.9325C177.561 79.9189 176.339 79.8409 175.214 79.8036C174.088 79.7663 173.057 79.7257 172.147 79.6223L169.788 79.4087L167.735 79.2188C167.559 79.1976 167.398 79.1096 167.285 78.9729C167.172 78.8363 167.115 78.6615 167.128 78.4847C167.14 78.3078 167.219 78.1424 167.35 78.0225C167.481 77.9027 167.652 77.8376 167.83 77.8407H167.865L169.899 77.9322L172.232 78.039C173.13 78.1017 174.147 78.0882 175.256 78.0797C176.365 78.0712 177.565 78.0882 178.831 78.0441L182.811 77.8237C184.188 77.7203 185.605 77.539 187.049 77.3983C188.493 77.2576 189.931 76.966 191.387 76.7541C192.829 76.4863 194.268 76.1846 195.674 75.8811C197.065 75.5065 198.457 75.2217 199.761 74.7979L201.688 74.2131L203.509 73.5791C204.695 73.1876 205.775 72.7062 206.79 72.3146C207.775 71.8637 208.697 71.4823 209.472 71.0755C210.264 70.6975 210.925 70.3279 211.472 70.0296C212.02 69.7312 212.437 69.4702 212.676 69.3108L213.088 69.0396L213.149 69.0006C213.345 68.8645 213.566 68.7691 213.799 68.7199C214.033 68.6708 214.274 68.669 214.508 68.7146C214.742 68.7602 214.965 68.8523 215.163 68.9855C215.361 69.1186 215.53 69.2902 215.661 69.4899C215.792 69.6896 215.881 69.9135 215.923 70.1482C215.966 70.383 215.961 70.624 215.909 70.8568C215.857 71.0897 215.758 71.3097 215.62 71.5039C215.481 71.6981 215.305 71.8625 215.101 71.9874C215.079 72.0044 215.052 72.0196 215.032 72.0315Z" fill="#F9CDD1"/>
<path d="M209.76 65.5088L209.293 65.8817C208.954 66.1564 208.515 66.4564 207.937 66.8615C207.347 67.2378 206.635 67.7006 205.79 68.1583C204.961 68.6533 203.978 69.1008 202.923 69.6229C201.842 70.0755 200.691 70.6196 199.419 71.0417C198.787 71.2587 198.151 71.5231 197.478 71.7197L195.422 72.3232C194.731 72.5453 194.005 72.6877 193.28 72.8555L191.076 73.3471C189.572 73.5674 188.06 73.8827 186.53 74.0251L184.238 74.2421L183.099 74.3506L181.963 74.3896L179.722 74.4557C178.983 74.4811 178.254 74.5082 177.537 74.4658L173.411 74.3217C172.108 74.1946 170.868 74.0743 169.736 73.9607L168.105 73.7912C167.597 73.7217 167.104 73.6335 166.646 73.5623L164.273 73.1775L162.21 72.8385C162.032 72.8091 161.872 72.7114 161.766 72.5662C161.659 72.421 161.613 72.2398 161.637 72.0612C161.662 71.8826 161.756 71.7207 161.898 71.6101C162.04 71.4994 162.22 71.4487 162.4 71.4689H162.444L164.49 71.7045L166.831 71.9944C167.283 72.0452 167.765 72.1096 168.272 72.1639L169.878 72.2486C170.996 72.3096 172.206 72.3724 173.487 72.4402L177.513 72.3978C178.21 72.4097 178.917 72.3486 179.631 72.2927L181.797 72.1232L182.892 72.0384L183.985 71.8842L186.189 71.574C187.654 71.3706 189.088 71.001 190.513 70.7264L192.59 70.1636C193.268 69.9704 193.946 69.8076 194.6 69.5652L196.516 68.9092C197.141 68.699 197.726 68.4227 198.309 68.1922C199.484 67.743 200.526 67.187 201.513 66.7242C202.46 66.197 203.354 65.7444 204.081 65.2613C204.834 64.8104 205.437 64.368 205.946 64.012C206.454 63.6561 206.834 63.334 207.034 63.1645C207.234 62.995 207.402 62.8441 207.402 62.8441L207.417 62.8271C207.587 62.6658 207.787 62.5394 208.006 62.4554C208.225 62.3714 208.458 62.3313 208.693 62.3374C208.927 62.3436 209.158 62.3958 209.372 62.4912C209.586 62.5866 209.78 62.7232 209.941 62.8933C210.102 63.0633 210.229 63.2635 210.313 63.4824C210.397 63.7013 210.437 63.9346 210.431 64.169C210.425 64.4033 210.372 64.6342 210.277 64.8484C210.182 65.0626 210.045 65.2559 209.875 65.4173C209.838 65.45 209.8 65.4806 209.76 65.5088V65.5088Z" fill="#F9CDD1"/>
<path d="M163.01 69.316C162.475 68.4684 162.009 67.5717 161.229 66.8886C160.52 66.2699 160.507 67.0462 160.659 67.5107C160.813 67.9401 161.019 68.3489 161.273 68.7278C161.527 69.1261 162.541 70.3602 161.781 70.7365C161.454 70.906 160.369 70.5263 160.005 70.4127C158.903 70.0737 157.92 69.4838 156.784 69.1872C156.196 69.0312 154.864 68.9719 155.642 69.7771C156.555 70.7229 158.33 70.6806 159.283 71.579C159.385 71.6739 158.478 71.7943 158.396 71.796C157.059 71.8163 155.901 71.7248 154.601 72.1112C154.431 72.1638 153.906 72.3028 153.947 72.5249C153.987 72.7469 154.508 72.7469 154.694 72.7757C155.4 72.8726 156.116 72.8857 156.825 72.8147C157.381 72.7706 158.164 72.6876 158.622 73.0249C159.252 73.4928 157.72 73.9199 157.386 74.0538C157.018 74.2064 155.315 74.6404 155.326 75.0506C155.326 75.3184 156.04 75.2625 156.255 75.2659C157.184 75.2659 158.066 74.9828 158.918 74.715C159.975 74.3827 161.049 74.1002 162.139 73.8674C163.085 73.6623 164.512 73.4063 165.009 72.6266C165.438 71.9621 164.278 70.9518 163.846 70.4771C163.533 70.1161 163.253 69.7275 163.01 69.316V69.316Z" fill="#F9CDD1"/>
<path d="M166.197 75.4811C165.66 74.6335 165.194 73.7385 164.412 73.0554C163.707 72.4367 163.692 73.213 163.844 73.6758C163.998 74.1052 164.204 74.5145 164.456 74.8946C164.714 75.2912 165.726 76.5253 164.965 76.9033C164.639 77.0728 163.553 76.6914 163.19 76.5778C162.088 76.2388 161.103 75.6506 159.981 75.3523C159.39 75.1963 158.057 75.1387 158.835 75.9422C159.749 76.888 161.524 76.8474 162.48 77.7441C162.576 77.839 161.673 77.9594 161.59 77.9611C160.252 77.9814 159.093 77.8916 157.794 78.2764C157.625 78.3289 157.098 78.4696 157.14 78.69C157.182 78.9103 157.699 78.912 157.886 78.9425C158.592 79.0397 159.308 79.0522 160.017 78.9798C160.576 78.9357 161.356 78.8527 161.814 79.19C162.446 79.6579 160.913 80.0833 160.578 80.2207C160.21 80.3715 158.51 80.8055 158.52 81.2157C158.52 81.4852 159.234 81.4293 159.449 81.431C160.376 81.4394 161.258 81.1479 162.112 80.8801C163.167 80.5478 164.241 80.2653 165.333 80.0325C166.278 79.8257 167.706 79.5697 168.202 78.7917C168.631 78.1238 167.474 77.1152 167.038 76.6423C166.723 76.2811 166.442 75.8925 166.197 75.4811V75.4811Z" fill="#F9CDD1"/>
<path d="M288.058 57.3417C287.935 57.9282 287.332 58.3825 286.905 58.7639C286.951 58.5706 286.937 58.3689 286.976 58.1723C286.381 58.8232 285.693 59.5284 285.184 60.2335C285.228 60.064 285.21 59.8504 285.24 59.6843C284.393 60.5098 283.582 61.7066 282.528 62.3304C282.51 62.0849 282.524 61.8381 282.57 61.5964C281.965 62.2541 280.999 63.0661 280.107 63.3034C280.12 63.2042 280.141 63.1062 280.168 63.0101C279.912 63.6882 278.487 64.4849 277.882 64.8968C277.882 64.6951 277.851 64.473 277.856 64.2713C277.178 64.868 276.414 65.7511 275.588 66.18C274.878 66.5496 273.554 67.1564 272.707 67.2513C272.905 66.9428 273.171 66.6224 273.283 66.2597C272.822 66.9784 271.606 67.7056 270.803 67.887C271.02 66.8259 269.145 68.004 268.82 68.1396C268.084 68.443 267.328 69.0075 266.535 69.0973C266.555 68.9905 266.497 68.8414 266.516 68.7346C265.797 68.6278 264.887 69.3651 264.233 69.616C263.771 69.8089 263.277 69.9141 262.777 69.9262C262.827 69.7754 262.777 69.6431 262.887 69.4957C262.366 69.8347 261.493 70.2839 260.866 70.3059C260.781 70.3059 260.403 70.1602 260.156 70.2025C259.781 70.2686 259.468 70.5144 259.083 70.4975C259.1 69.4804 255.891 71.0653 256.601 69.8194C257.003 69.1126 259.02 68.9397 259.707 68.7379C261.356 68.2565 263.041 67.7361 264.733 67.431C269.101 66.6428 272.784 63.9628 276.588 61.8371C278.311 60.8743 280.099 60.0538 281.748 58.9707C283.026 58.1333 284.354 57.3281 285.703 56.6144C286.332 56.2754 287.925 55.1973 288.617 55.6279C289.464 56.1534 288.666 57.7349 288.015 58.0282C287.993 57.7985 288.007 57.5668 288.058 57.3417V57.3417Z" fill="#F1F6FD"/>
<path d="M253.416 58.2707C252.518 57.7791 251.795 56.9247 250.99 56.3145C250.534 55.967 250.192 55.7602 249.599 55.7365C249.824 56.145 249.622 56.0229 249.86 56.2687C248.619 55.3415 247.568 54.0956 246.31 53.2446C246.354 53.4744 246.437 53.6947 246.557 53.8956C246.493 53.2175 245.649 52.5395 245.273 51.9835C244.986 51.5546 244.764 50.9155 244.442 50.607C244.364 51.0003 244.525 51.3783 244.739 51.7038C243.752 51.1952 242.921 49.7883 242.301 48.8475C242.333 49.039 242.332 49.1865 242.381 49.3764C241.653 48.0898 240.855 46.7337 240.114 45.5149C240.079 45.9573 240.284 46.3879 240.272 46.8456C239.38 44.9538 238.479 43.1705 237.051 41.628C237.02 42.0442 237.074 42.4625 237.211 42.8569C237.211 41.2313 235.541 39.7176 235.007 38.2326C235.027 38.5377 235.117 38.834 235.27 39.0989C235.229 38.0377 234.503 36.9274 234.053 35.9968C233.659 35.1814 233.215 33.9491 232.557 33.3643C232.491 33.9881 232.757 34.6373 232.952 35.195C233.205 33.9152 231.884 32.1048 231.373 30.9809C231.01 30.1791 230.669 28.3213 229.923 27.8433C229.961 28.3077 230.22 28.7535 230.342 29.2163C230.296 27.6246 229.906 25.5345 229.918 23.7919C229.805 24.2157 229.774 24.6734 229.64 25.0887C228.976 23.0545 228.962 20.183 227.379 18.5913C227.416 19.1965 227.548 19.7965 227.533 20.4254C227.594 18.3675 226.253 16.1215 225.407 14.2789C225.407 14.7705 225.407 15.2604 225.418 15.7503C224.812 13.4907 224.189 10.57 222.875 8.6562C222.829 9.06339 222.882 9.47571 223.029 9.85804C223.017 8.94606 222.321 7.7154 222.012 6.8492C221.692 5.95757 221.402 4.66927 220.754 3.98275C220.754 4.16413 220.717 4.36246 220.737 4.54723C220.709 3.96919 220.141 3.14028 219.646 2.88092C219.646 2.97585 219.636 3.09112 219.646 3.19113C219.536 2.78261 219.297 2.31306 218.895 2.20796C218.783 3.53016 219.308 4.89642 219.573 6.1898C219.89 7.81724 220.366 9.40975 220.993 10.9446C221.751 12.7364 222.702 14.5044 223.287 16.3588C223.965 18.515 224.675 20.5017 225.75 22.4969C227.843 26.3821 228.801 30.7707 230.611 34.8102C231.687 37.2077 233.058 39.4616 234.692 41.5195C236.204 43.4265 237.931 45.0419 239.509 46.871C240.842 48.4186 241.655 50.2816 242.925 51.8682C243.988 53.1972 245.288 54.3905 246.39 55.7042C247.327 56.8213 247.72 57.1773 249.102 57.3994C250.178 57.5689 251.231 58.213 252.311 58.1554C252.465 57.796 253.123 59.142 252.928 58.808L253.416 58.2707Z" fill="#EEF3F9"/>
<path d="M222.601 49.7627C221.478 48.4439 220.365 46.0928 216.559 43.7247C216.615 44.1994 217.019 44.6011 217.129 45.0707C216.15 44.6102 215.14 44.2188 214.106 43.8993C214.312 44.0784 214.475 44.3015 214.583 44.5519C213.786 44.5723 211.894 43.4823 211.701 42.8568C211.791 43.2247 212.04 43.5467 212.209 43.8739C211.27 43.3399 210.204 43.0094 209.255 42.472C209.353 42.628 209.345 42.8772 209.406 43.0229C208.143 43.1925 207.338 42.2228 206.221 41.9398C206.231 42.0194 206.258 42.0974 206.268 42.1737C204.998 42.2822 203.761 40.9871 202.461 40.9261C202.542 41.06 202.583 41.3499 202.7 41.4973C201.527 41.2007 200.101 40.3396 199.003 39.731C199.084 39.8587 199.153 39.9931 199.211 40.1328C198.564 40.2192 197.943 39.6429 197.347 39.5005C197.387 39.7649 197.32 40.0497 197.347 40.3091C196.914 40.2023 196.521 40.0005 196.101 39.9005C195.78 41.7855 198.801 43.545 200.144 44.3773C202.866 46.0606 205.948 47.2031 209.06 47.9371C211.264 48.4609 214.315 48.8711 216.556 48.5524C217.215 48.4592 219.002 47.7642 219.437 47.3658L222.601 49.7627Z" fill="#F1F6FD"/>
<path d="M255.923 76.0048C254.887 77.0219 254.048 78.3322 252.519 78.8865C252.698 78.4909 252.857 78.0863 252.994 77.6745C251.997 79.0933 250.007 79.7358 248.47 80.446C248.607 80.263 248.694 80.0477 248.826 79.8697C247.52 81.102 244.89 81.3122 243.215 81.8445C243.588 81.5055 244.062 81.0224 244.307 80.4986C243.142 81.5733 240.976 82.2717 239.421 82.3734C239.641 82.3254 239.848 82.2344 240.032 82.1054C240.216 81.9765 240.373 81.8124 240.493 81.6225C238.586 82.131 236.211 83.5261 234.171 83.2447C234.68 82.6514 235.463 82.1361 236.061 81.6326C234.961 81.4868 233.654 82.0089 232.539 82.1208C231.142 82.2581 229.745 82.2446 228.339 82.2446C228.593 82.2599 228.847 82.2115 229.079 82.1037C229.31 81.996 229.51 81.8323 229.662 81.6275C228.442 81.7106 225.579 82.2954 224.747 81.2529C225.15 81.0973 225.52 80.8673 225.838 80.5749C224.372 80.5952 220.844 80.9495 219.905 79.7171C220.548 79.5392 221.072 79.1323 221.651 78.8289C220.097 78.2339 217.108 78.7526 215.966 77.522C216.123 77.4389 216.339 77.2321 216.454 77.1677C214.969 77.144 212.074 77.0219 210.967 75.9947C211.333 75.6675 211.882 75.42 212.247 75.1284C210.691 75.0573 208.009 74.9691 207.143 73.4333C210.213 72.4773 203.797 70.4906 203.736 69.6396C204.149 69.6073 204.547 69.467 204.89 69.2328C203.566 68.3446 202.008 68.2158 201.057 66.7071C201.653 66.6235 202.24 66.4816 202.808 66.2833C202.783 65.8629 198.633 63.6067 200.91 63.3813C200.232 62.2727 197.381 61.5997 197.499 60.086C200.1 59.7046 194.829 56.6194 194.531 56.1075C197.413 54.7989 193.953 54.0445 193.777 52.2918C193.683 51.3815 194.573 51.4815 193.911 50.3831C193.265 49.3118 191.614 48.7693 191.38 47.4726C193.436 47.1556 189.412 43.6687 191.598 43.6094C191.719 42.5076 189.602 41.0023 191.234 40.4378C193.341 39.7089 195.838 43.9145 196.872 45.1842C200.523 49.6711 203.624 54.5463 207.26 59.0333C210.591 63.1473 216.007 67.4631 221.046 69.3735C228.674 72.245 237.67 74.5148 245.795 72.7739C248.7 72.1518 252.687 69.4667 255.732 69.8058C259.13 70.1855 256.95 74.9352 255.977 77.0185C255.949 76.6863 255.915 76.3405 255.923 76.0048Z" fill="#F1F6FD"/>
<path d="M302.7 46.1845C302.501 45.6624 302.588 45.0166 302.361 44.4521C302.076 43.7181 301.547 43.0807 301.354 42.3179C301.354 42.6061 301.364 42.8994 301.354 43.1858C300.827 42.8044 300.477 41.945 300.021 41.428C300.021 41.6501 300.021 41.8789 300.021 42.0976C299.245 41.9365 298.642 41.1229 298.004 40.7093C298.021 40.8008 298.004 40.9144 298.031 41.0161C297.309 40.8313 296.523 40.4211 295.85 40.0753C295.891 40.1715 295.924 40.2714 295.946 40.3736C295.172 40.7126 294.309 40.1278 293.539 40.2041C294.273 40.8974 291.214 40.772 290.912 40.8923C291.036 40.9448 291.164 40.99 291.293 41.0279C291.41 41.9297 289.429 41.5687 289.147 42.1789C289.003 42.484 289.396 42.4552 289.093 42.857C288.829 43.2146 288.01 43.6808 287.615 43.8927C287.784 44.2419 287.82 44.33 287.6 44.7064C287.313 45.1929 286.205 45.4454 286.062 45.9811C285.974 46.3099 286.327 46.5337 286.337 46.9185C286.355 47.583 285.61 47.9017 285.554 48.4543C285.518 48.7831 285.877 48.8645 285.813 49.3018C285.749 49.7392 285.281 49.8002 285.442 50.2697C285.54 50.5528 285.86 50.5393 285.95 50.9478C286.03 51.3122 285.891 51.7089 285.766 52.0327C286.252 52.3971 287.252 52.3581 287.851 52.3446C288.208 50.0867 288.935 47.6576 290.537 45.9794C291.409 45.0657 292.561 44.4436 293.611 43.7503C294.59 43.1062 295.645 42.6603 296.831 42.6027C298.652 42.5146 299.506 43.4503 300.738 44.564C301.005 44.8162 301.284 45.0539 301.576 45.2759C301.944 45.5336 302.176 45.8404 302.456 46.0438L302.7 46.1845Z" fill="#F1F6FD"/>
<path d="M188.575 33.0167C188.317 33.3185 188.512 33.8643 188.248 34.122C188.137 34.2304 187.683 34.2355 187.519 34.2745C187.217 34.3406 186.756 34.4118 186.561 34.6881C186.234 35.1492 186.785 35.7052 186.581 36.1883C186.307 36.8392 185.468 36.9511 185.127 37.5325C184.657 38.3326 185.69 38.8022 185.912 39.4701C186.108 40.065 185.693 40.521 186.234 41.0109C186.951 41.6568 187.917 41.8585 188.815 42.1602C189.718 42.4864 190.602 42.8628 191.463 43.2875C192.058 43.5638 192.902 44.1215 193.584 43.9265C194.708 43.6028 193.633 41.8161 194.23 40.9957C194.864 40.1261 195.645 40.9482 195.825 39.7853C195.96 38.8971 195.006 38.0818 194.45 37.5274C193.026 36.1052 191.66 34.6271 190.068 33.3846C189.761 33.1473 189.273 32.7269 188.846 32.8506C188.741 32.8774 188.646 32.9353 188.575 33.0167V33.0167Z" fill="#746B5C"/>
<path d="M260.612 61.688C247.18 56.0246 239.579 49.7526 233.28 36.0442C229.737 28.3399 227.177 20.2626 223.741 12.5261C221.707 7.96284 218.147 -3.31479 213.182 -5.04042C213.735 -4.84718 212.335 1.36205 212.191 2.02823C211.457 5.38965 210.543 8.7409 210.352 12.1989C210.247 14.0449 210.328 15.9858 211.03 17.7183C211.462 18.7811 212.745 20.5678 213.842 20.9746C213.205 22.1035 211.738 22.9545 210.647 23.5986C209.245 24.4275 207.884 25.5175 208.523 27.3482C209.031 28.7891 210.184 29.8824 211.404 30.7385C212.064 31.2097 214.757 32.1878 214.978 32.9218C215.305 34.0236 213.961 34.8813 213.349 35.634C212.621 36.5392 211.767 37.5562 211.604 38.7513C211.369 40.499 212.728 41.733 214.022 42.6348C214.361 42.8721 218.164 45.2741 218.336 45.1131C217.015 46.3624 214.912 46.5251 214.062 48.4304C213.415 49.8798 214.379 51.3037 215.318 52.358C218.168 55.5601 222.35 57.7977 226.209 59.5233C227.905 60.2827 229.729 61.0591 231.551 61.4829C240.991 63.678 252.713 62.9542 262.692 62.6322L260.612 61.688Z" fill="#EEF3F9"/>
<path d="M236.803 61.3218C234.982 60.8963 233.163 60.1233 231.461 59.3622C227.603 57.6366 223.42 55.399 220.572 52.1986C219.635 51.1409 218.668 49.7153 219.316 48.2694C220.163 46.3657 222.27 46.2013 223.588 44.952C223.418 45.113 219.618 42.7094 219.275 42.4737C217.98 41.5736 216.619 40.3379 216.86 38.5885C217.021 37.4019 217.877 36.3849 218.602 35.4729C219.214 34.7118 220.56 33.8574 220.23 32.7607C220.011 32.0267 217.319 31.0486 216.66 30.5774C215.444 29.7129 214.286 28.6212 213.778 27.1871C213.137 25.3564 214.498 24.2665 215.904 23.4375C216.995 22.7934 218.46 21.9424 219.095 20.8152C218.002 20.4067 216.722 18.6115 216.285 17.5589C215.578 15.8265 215.497 13.8839 215.607 12.0379C215.8 8.58491 216.712 5.23365 217.45 1.86715C217.499 1.64 217.699 0.750062 217.914 -0.324644C216.516 -2.60627 214.934 -4.41836 213.176 -5.0286C213.729 -4.83536 212.329 1.37387 212.184 2.04005C211.45 5.40147 210.537 8.75272 210.345 12.2108C210.24 14.0568 210.322 15.9977 211.023 17.7301C211.456 18.7929 212.739 20.5796 213.836 20.9864C213.198 22.1154 211.732 22.9663 210.64 23.6104C209.238 24.4394 207.877 25.5293 208.516 27.3601C209.025 28.8009 210.177 29.8943 211.398 30.7503C212.057 31.2215 214.751 32.1996 214.971 32.9336C215.298 34.0354 213.954 34.8932 213.342 35.6458C212.615 36.551 211.761 37.5681 211.598 38.7631C211.362 40.5108 212.722 41.7448 214.015 42.6466C214.354 42.884 218.158 45.2859 218.329 45.1249C217.009 46.3742 214.905 46.5369 214.056 48.4423C213.408 49.8916 214.373 51.3155 215.312 52.3698C218.161 55.5719 222.343 57.8095 226.203 59.5351C227.898 60.2945 229.722 61.0709 231.544 61.4947C239.876 63.4322 249.982 63.0949 259.099 62.7694C251.479 62.966 243.558 62.8932 236.803 61.3218Z" fill="#746B5C"/>
<path d="M296.367 50.5918C296.583 50.8138 296.717 51.1025 296.747 51.4106C296.866 53.0006 293.865 54.0177 292.799 54.6313C288.933 56.8722 285.375 59.7777 281.642 62.2441C273.997 67.2972 266.228 69.3636 257.305 70.8434C256.276 76.2678 247.16 78.3765 242.896 79.2309C235.853 80.6497 228.471 80.3598 221.792 77.5358C216.008 75.0897 208.302 70.3976 203.96 65.8903C199.44 61.1999 190.541 38.4005 190.541 38.4005C190.541 38.4005 220.375 46.7744 226.213 49.2696C239.198 54.8195 251.979 60.4235 266.545 59.9489C270.334 59.8268 274.039 59.059 277.624 57.8469C281.623 56.4993 284.681 53.8617 288.099 51.5072C289.746 50.3715 291.685 48.6882 293.845 49.3035C294.554 49.4985 295.757 49.9138 296.367 50.5918Z" fill="#F1F6FD"/>
<path d="M303.434 49.2678C303.434 50.9533 302.935 52.601 301.998 54.0026C301.062 55.4042 299.731 56.4967 298.174 57.1418C296.617 57.787 294.904 57.9559 293.25 57.6272C291.597 57.2984 290.079 56.4868 288.887 55.295C287.695 54.1031 286.884 52.5846 286.555 50.9315C286.226 49.2783 286.395 47.5648 287.04 46.0077C287.685 44.4505 288.778 43.1197 290.179 42.1835C291.581 41.2473 293.229 40.7477 294.914 40.7481C297.174 40.7485 299.34 41.6463 300.938 43.2439C302.536 44.8416 303.433 47.0083 303.434 49.2678V49.2678Z" fill="#F1F6FD"/>
<path d="M302.67 47.3709L334.965 49.5373L301.647 54.4904C302.039 53.3356 302.307 52.1422 302.446 50.9307C302.581 49.7487 302.656 48.5606 302.67 47.3709V47.3709Z" fill="#F8C7CE"/>
<path d="M299.475 47.6066C299.475 47.6066 300.424 46.6929 301.648 47.6066" stroke="#746B5C" stroke-width="3.01" stroke-linecap="round" stroke-linejoin="round"/>
<path d="M316.417 47.8388C317.304 50.3985 319.285 52.3089 321.024 54.2989C325.991 59.9759 330.458 67.6785 329.736 75.4879C329.147 81.8667 321.938 82.1616 316.963 82.087C312.971 82.0277 308.738 80.9276 306.653 77.2339C304.399 73.2317 304.948 68.1074 306.05 63.8424C306.613 61.6574 307.282 59.2656 308.281 57.2315C308.959 55.8415 309.698 54.4803 310.467 53.1361C310.84 52.4784 311.22 51.824 311.608 51.1731C311.805 50.8341 312.3 49.5509 312.654 49.4017L316.417 47.8388Z" fill="#F1F6FD"/>
<path d="M312.574 50.6426C312.519 50.5833 312.574 50.1985 312.574 50.1086C312.574 49.9476 312.564 49.7883 312.551 49.6289C312.536 49.3545 312.479 49.084 312.381 48.8271C312.137 48.2169 311.668 47.7321 311.212 47.2744C310.467 46.5269 309.589 45.6979 309.537 44.5622C309.532 44.1678 309.615 43.7772 309.777 43.418C309.833 43.2807 310.052 42.6128 310.242 42.6196C311.408 42.6654 312.446 43.6367 313.124 44.5114C313.909 45.5284 314.258 46.7879 314.524 48.0253C314.602 48.3813 314.671 48.7373 314.744 49.095C314.405 47.4999 314.066 45.8878 313.924 44.2605C313.836 43.4989 313.864 42.7284 314.009 41.9755C314.197 41.1381 314.744 40.5838 315.595 40.4499L316.08 40.3837C316.058 41.0533 316.239 41.7059 316.419 42.3433C316.608 42.9827 316.749 43.6355 316.841 44.2961C316.892 44.686 316.928 45.0758 316.948 45.4657C316.975 45.9742 316.98 46.4828 316.958 46.9913C316.951 47.4852 316.867 47.9749 316.707 48.4423C316.538 48.9153 316.251 49.3441 316.058 49.8103C315.875 50.3176 315.608 50.7908 315.27 51.2105C315.073 51.4293 314.821 51.5899 314.539 51.6749C313.595 51.9563 312.644 51.7156 312.727 50.7867L312.574 50.6426Z" fill="#F1F6FD"/>
<path d="M334.965 49.5288L302.67 47.3709C302.657 48.5606 302.582 49.7487 302.446 50.9307L334.965 49.5288Z" fill="#F9CDD1"/>
<path d="M251.845 61.0235C250.346 60.0589 249.532 58.2248 248.21 57.1247C248.271 57.3145 248.234 57.5688 248.331 57.7858C247.449 57.601 246.529 56.2025 246.064 55.4482C246.022 55.7708 246.056 56.0986 246.163 56.406C245.361 55.2092 243.825 54.4447 242.942 53.3022C242.929 53.5801 242.947 53.8587 242.994 54.1328C241.325 53.57 239.93 51.0375 238.606 49.9052C238.678 50.1826 238.784 50.4502 238.921 50.7019C238.243 49.1949 237.036 48.1694 236.039 46.8709C236.039 47.1964 236.049 47.5269 236.029 47.8473C235.69 47.7066 235.497 47.1353 235.217 46.8217C234.86 46.4217 234.4 46.1522 234.031 45.742C233.059 44.6605 232.478 43.5654 232.478 42.3229C232.478 42.689 232.478 43.0535 232.478 43.4196C231.766 41.3313 230.825 38.9479 229.776 37.0799C229.744 37.4867 229.755 37.9071 229.755 38.3207C229.771 36.7561 228.896 35.1695 228.247 33.8524C228.22 34.1762 228.228 34.5101 228.23 34.8389C227.891 33.5879 227.504 30.5825 226.46 29.7773C226.433 30.1587 226.44 30.552 226.45 30.9385C225.839 29.5055 225.326 28.0331 224.913 26.5312C224.563 25.2717 224.463 23.8359 223.911 22.6493C223.911 23.0273 224.002 23.3969 223.963 23.7732C223.234 21.5916 222.921 19.1489 222.022 17.052C222.022 17.347 222.022 17.6403 222.022 17.9335C221.966 16.9164 221.451 15.8112 221.175 14.8179C220.898 13.8245 220.682 12.7837 220.232 11.865C220.232 12.2498 220.246 12.643 220.22 13.0211C219.681 12.7041 219.3 11.1208 219.044 10.4631C218.634 9.41214 218.427 8.27133 217.874 7.29324C217.847 7.64244 217.874 8.08147 217.791 8.35608C217.815 7.49666 217.376 6.08971 216.856 5.41166C215.423 8.77817 216.425 13.3211 217.264 16.6825C218.054 19.8507 218.88 22.9545 219.919 26.0447C221.039 29.379 222.7 32.442 224.209 35.6034C226.086 39.5344 227.43 43.7112 229.935 47.3252C231.825 50.0476 234.048 53.075 236.795 54.9821C239.39 56.816 242.149 58.4049 245.037 59.7284C246.563 60.4064 248.202 61.0421 249.878 61.0285C250.275 61.0285 250.556 60.8879 250.982 61.0285L251.845 61.0235Z" fill="#F1F6FD"/>
<path d="M253.77 61.2201C240.525 55.1295 233.134 48.6135 227.269 34.7101C223.977 26.8973 221.689 18.7421 218.492 10.8988C216.608 6.2694 213.406 -5.11503 208.506 -7C209.055 -6.78981 207.453 -0.624654 207.288 0.0313572C206.441 3.36905 205.424 6.68979 205.122 10.1343C204.953 11.9786 204.976 13.9212 205.631 15.6739C206.029 16.7503 207.256 18.576 208.343 19.0184C207.665 20.1253 206.18 20.9305 205.07 21.539C203.639 22.3222 202.244 23.3681 202.824 25.2175C203.281 26.6736 204.402 27.8025 205.587 28.706C206.231 29.1976 208.892 30.2621 209.087 31.0029C209.382 32.1149 208.007 32.9286 207.373 33.6693C206.619 34.5491 205.729 35.534 205.529 36.7205C205.236 38.4614 206.556 39.7378 207.819 40.6803C208.158 40.9312 211.875 43.4536 212.057 43.2976C210.701 44.5045 208.59 44.5995 207.68 46.476C206.987 47.9015 207.904 49.3577 208.811 50.4442C211.553 53.7345 215.664 56.1042 219.465 57.9536C221.141 58.769 222.933 59.6013 224.74 60.0844C234.105 62.583 245.846 62.2355 255.825 62.2355L253.77 61.2201Z" fill="#F1F6FD"/>
<path d="M229.988 60.0844C228.179 59.6013 226.388 58.769 224.713 57.9536C220.911 56.1042 216.802 53.7345 214.059 50.4442C213.151 49.3577 212.235 47.9015 212.928 46.476C213.839 44.5995 215.947 44.5045 217.305 43.2976C217.136 43.4536 213.407 40.9244 213.067 40.6803C211.805 39.7378 210.486 38.4614 210.779 36.7205C210.979 35.534 211.867 34.544 212.623 33.6693C213.256 32.9286 214.63 32.1149 214.337 31.0029C214.14 30.2621 211.481 29.1976 210.837 28.706C209.65 27.8025 208.531 26.6719 208.074 25.2175C207.492 23.3681 208.886 22.3222 210.318 21.539C211.43 20.9305 212.923 20.1253 213.591 19.0184C212.513 18.576 211.286 16.7503 210.879 15.6739C210.23 13.9212 210.211 11.9786 210.371 10.1343C210.674 6.68979 211.693 3.36905 212.537 0.0313572C212.595 -0.194094 212.822 -1.07725 213.074 -2.14518C211.75 -4.47088 210.226 -6.33212 208.489 -7C209.038 -6.78981 207.436 -0.624654 207.272 0.0313572C206.424 3.36905 205.407 6.68979 205.106 10.1343C204.936 11.9786 204.96 13.9212 205.614 15.6739C206.012 16.7503 207.24 18.576 208.326 19.0184C207.648 20.1253 206.163 20.9305 205.053 21.539C203.622 22.3222 202.227 23.3681 202.807 25.2175C203.265 26.6736 204.385 27.8025 205.57 28.706C206.214 29.1976 208.875 30.2621 209.07 31.0029C209.365 32.1149 207.991 32.9286 207.357 33.6693C206.602 34.5491 205.712 35.534 205.512 36.7205C205.219 38.4614 206.54 39.7378 207.802 40.6803C208.141 40.9312 211.859 43.4536 212.04 43.2976C210.684 44.5045 208.574 44.5995 207.663 46.476C206.97 47.9015 207.887 49.3577 208.794 50.4442C211.537 53.7345 215.647 56.1042 219.448 57.9536C221.124 58.769 222.916 59.6013 224.723 60.0844C232.987 62.288 243.098 62.2779 252.223 62.2457C244.603 62.2067 236.689 61.8778 229.988 60.0844Z" fill="#746B5C"/>
<path d="M286.691 52.7241C285.359 53.4496 283.935 53.7412 282.454 53.8395C282.633 54.3599 283.569 54.3752 283.616 54.9193C282.977 55.0973 282.26 54.9905 281.599 55.0312C281.967 55.4923 283.049 55.3244 283.193 55.9398C281.509 56.2313 279.758 56.1195 278.034 56.2178C278.231 57.0653 279.536 56.9331 280.228 56.9874C278.84 57.818 276.282 57.1467 274.78 57.3908C275.139 57.5603 275.532 57.7434 275.878 57.8993C274.948 58.2383 273.39 58.1366 272.347 58.1655C272.434 58.3011 272.434 58.5265 272.581 58.6655C271.754 58.9842 270.523 58.7062 269.616 58.7638C269.937 58.9455 270.279 59.0878 270.633 59.1876C270.064 59.7233 268.599 59.0876 267.85 59.6962C266.869 60.4979 268.248 61.1116 269.086 61.2743C272.874 62.0083 276.078 60.6573 279.533 59.4402C281.604 58.7096 289.131 56.2517 287.113 52.6258L286.691 52.7241Z" fill="#F1F6FD"/>
<path d="M191.265 38.4004C191.239 38.1702 191.169 37.947 191.06 37.7427C191.548 37.7716 192.109 38.3818 192.624 38.4937C192.637 38.3445 192.628 38.1943 192.597 38.0479C192.936 38.4293 193.523 38.7174 193.953 38.9785C193.988 38.8527 194.004 38.7225 194.001 38.592C194.538 38.848 195.006 39.4158 195.599 39.6091C195.568 39.4586 195.559 39.3045 195.57 39.1514C195.969 39.1633 196.781 40.0566 197.132 40.3227C197.115 40.2651 197.108 40.1922 197.091 40.1363C197.372 40.5804 197.788 41.0482 197.981 41.5178C197.522 41.5449 197.318 41.4381 196.915 41.216C196.384 40.9245 195.835 40.8279 195.277 40.6363C194.56 40.3905 193.84 40.0684 193.133 39.7888C192.063 39.3768 190.444 39.1904 190.361 37.7631C190.475 37.8258 191.263 38.2767 191.265 38.4004Z" fill="#F1F6FD"/>
<path d="M193.138 44.1502C192.752 43.9196 192.38 43.6552 191.999 43.4179C191.731 43.2484 191.253 43.0687 191.102 42.7992C191.382 42.7907 191.648 42.928 191.95 42.9144C192.004 42.3533 190.95 41.9601 190.817 41.3888C190.987 41.3803 191.178 41.3888 191.358 41.377C191.382 40.9261 190.536 40.1988 190.194 39.9361C190.377 39.9361 190.544 39.9751 190.719 39.9751C190.739 39.492 190.133 39.2326 189.922 38.8851C190.02 38.8871 190.117 38.8973 190.212 38.9156C190.131 38.7546 189.955 38.5766 189.924 38.3749C190.37 38.3003 191.312 38.7139 191.662 39.0055C192.082 39.3445 192.189 40.0226 192.372 40.5226C192.711 41.4295 193.669 43.0127 193.318 43.9739L193.138 44.1502Z" fill="#F1F6FD"/>
<path d="M71.8067 37.5472C70.0485 36.4951 68.85 35.1073 67.8817 33.1032C67.0803 31.4524 66.6368 30.3331 66.1109 27.3297C66.0999 27.2625 66.0725 27.1994 66.0313 27.1465C65.9901 27.0936 65.9365 27.0526 65.8756 27.0276C65.8148 27.0026 65.7488 26.9944 65.684 27.0037C65.6193 27.0131 65.5579 27.0397 65.5059 27.081C65.4128 27.1682 65.3538 27.2881 65.3401 27.4178C65.2345 28.033 64.7139 31.7528 62.7646 34.1465C61.8682 35.2471 60.5229 36.2915 59.2104 36.9881C59.135 37.0278 59.0745 37.0925 59.0382 37.1719C58.9989 37.2552 58.9896 37.3505 59.0118 37.4404C59.0429 37.5424 59.099 37.6342 59.1745 37.7068C59.6116 38.1734 62.1976 40.4658 63.4489 43.2942C64.4573 45.5702 64.8628 47.3564 65.0085 47.7041C65.0339 47.7777 65.0769 47.8434 65.1334 47.8948C65.19 47.9462 65.2582 47.9818 65.3316 47.998C65.4308 48.0078 65.5301 47.9816 65.6129 47.9239C65.6956 47.8661 65.7567 47.7803 65.7857 47.681C65.9219 47.2991 66.4193 45.2873 67.019 44.0613C68.4076 41.1999 69.2692 40.6727 71.8763 38.1833C71.9204 38.141 71.9544 38.0885 71.9755 38.03C71.9966 37.9715 72.0042 37.9087 71.9978 37.8465C71.991 37.7844 71.9701 37.7249 71.9369 37.6728C71.9037 37.6208 71.859 37.5777 71.8067 37.5472V37.5472Z" fill="#FFD79B"/>
<path d="M82.7022 65.2417C81.6722 64.7724 80.6193 64.1021 79.9371 63.4212C78.4791 61.9701 78.1667 59.8348 78.1052 59.4814C78.0948 59.4012 78.0679 59.3242 78.0265 59.2555C77.985 59.1868 77.9298 59.128 77.8647 59.0829C77.8026 59.041 77.7321 59.0141 77.6585 59.0042C77.5849 58.9944 77.5101 59.0018 77.4397 59.026C77.3592 59.0489 77.2859 59.0933 77.2274 59.1548C77.1689 59.2163 77.1272 59.2927 77.1065 59.3762C76.6118 61.0657 76.2327 61.6811 75.5558 62.5866C74.7351 63.6811 73.753 64.4125 72.3387 64.9227C72.2523 64.9543 72.1757 65.0094 72.1171 65.0822C72.0585 65.155 72.0201 65.2429 72.006 65.3364C71.9919 65.4298 72.0026 65.5255 72.037 65.6133C72.0714 65.701 72.1282 65.7775 72.2013 65.8346C74.2206 67.4092 74.9017 67.7519 75.9359 69.4801C76.3796 70.2223 76.7232 71.4134 76.8222 71.6443C76.8559 71.7412 76.9158 71.826 76.9949 71.8887C77.0739 71.9514 77.1688 71.9894 77.2682 71.9981C77.3676 72.0068 77.4673 71.9859 77.5555 71.9378C77.6437 71.8898 77.7167 71.8166 77.7657 71.727C77.8938 71.5294 78.2719 70.4983 79.155 69.2105C80.2308 67.6391 82.3616 66.4533 82.723 66.203C82.8308 66.1388 82.9145 66.0391 82.9606 65.9198C83.0067 65.8006 83.0125 65.6688 82.9771 65.5457C82.9552 65.4776 82.9193 65.4152 82.8718 65.3627C82.8244 65.3103 82.7665 65.269 82.7022 65.2417V65.2417Z" fill="#FFD79B"/>
<path d="M50.5939 58.0822C49.1881 57.3239 47.7539 56.2412 46.8238 55.1411C44.8357 52.7986 44.4097 49.3474 44.3245 48.7765C44.3113 48.6468 44.275 48.5222 44.2184 48.4113C44.1617 48.3005 44.086 48.206 43.9965 48.1345C43.9123 48.0664 43.8164 48.0227 43.7162 48.0068C43.6161 47.9908 43.5143 48.0031 43.4186 48.0425C43.3086 48.0789 43.2084 48.1503 43.1284 48.2494C43.0483 48.3484 42.9911 48.4716 42.9627 48.6065C42.2882 51.3359 41.7713 52.3301 40.8483 53.7929C39.7293 55.561 38.3917 56.7426 36.4619 57.5668C36.3439 57.6178 36.2395 57.7068 36.1596 57.8245C36.0798 57.9421 36.0274 58.084 36.0082 58.235C35.989 58.3861 36.0036 58.5406 36.0505 58.6823C36.0973 58.8241 36.1747 58.9476 36.2744 59.04C39.0293 61.5837 39.9565 62.1372 41.368 64.9308C41.973 66.1281 42.4416 68.0541 42.5765 68.4254C42.6224 68.5818 42.7041 68.7189 42.812 68.8202C42.9198 68.9215 43.0491 68.9828 43.1847 68.9969C43.3202 69.011 43.4561 68.9772 43.5764 68.8996C43.6967 68.8219 43.7961 68.7037 43.863 68.559C44.0377 68.2398 44.5532 66.574 45.7573 64.4936C47.2242 61.955 50.1282 60.0394 50.6223 59.6351C50.7693 59.5314 50.8834 59.3702 50.9463 59.1776C51.0091 58.9849 51.0171 58.772 50.9688 58.5732C50.9383 58.4636 50.8891 58.3632 50.8244 58.2786C50.7598 58.1939 50.6813 58.127 50.5939 58.0822V58.0822Z" fill="#FFD79B"/>
</g>
<defs>
<filter id="filter0_d_14_2" x="-4" y="0" width="368" height="112" filterUnits="userSpaceOnUse" color-interpolation-filters="sRGB">
<feFlood flood-opacity="0" result="BackgroundImageFix"/>
<feColorMatrix in="SourceAlpha" type="matrix" values="0 0 0 0 0 0 0 0 0 0 0 0 0 0 0 0 0 0 127 0" result="hardAlpha"/>
<feOffset dy="4"/>
<feGaussianBlur stdDeviation="10"/>
<feComposite in2="hardAlpha" operator="out"/>
<feColorMatrix type="matrix" values="0 0 0 0 0.242083 0 0 0 0 0.265825 0 0 0 0 0.35 0 0 0 0.07 0"/>
<feBlend mode="normal" in2="BackgroundImageFix" result="effect1_dropShadow_14_2"/>
<feBlend mode="normal" in="SourceGraphic" in2="effect1_dropShadow_14_2" result="shape"/>
</filter>
</defs>
</svg>
