<svg width="36" height="32" viewBox="0 0 36 32" fill="none" xmlns="http://www.w3.org/2000/svg">
<path d="M11.1279 17.8899V19.0664C11.1279 19.2505 11.2011 19.427 11.3312 19.5572C11.4614 19.6873 11.6379 19.7605 11.822 19.7605C12.0061 19.7605 12.1826 19.6873 12.3128 19.5572C12.443 19.427 12.5161 19.2505 12.5161 19.0664V17.8899C12.5161 17.7058 12.443 17.5293 12.3128 17.3991C12.1826 17.2689 12.0061 17.1958 11.822 17.1958C11.6379 17.1958 11.4614 17.2689 11.3312 17.3991C11.2011 17.5293 11.1279 17.7058 11.1279 17.8899Z" fill="#FF7976"/>
<path d="M24.3367 19.7605C24.5207 19.7605 24.6973 19.6873 24.8275 19.5572C24.9576 19.427 25.0307 19.2505 25.0307 19.0664V17.8899C25.0307 17.7058 24.9576 17.5293 24.8275 17.3991C24.6973 17.2689 24.5207 17.1958 24.3367 17.1958C24.1526 17.1958 23.976 17.2689 23.8459 17.3991C23.7157 17.5293 23.6426 17.7058 23.6426 17.8899V19.0664C23.6426 19.2505 23.7157 19.427 23.8459 19.5572C23.976 19.6873 24.1526 19.7605 24.3367 19.7605Z" fill="#FF7976"/>
<path d="M4.7129 21.545C5.60672 24.3691 7.37688 26.8351 9.76669 28.5854C12.1565 30.3357 15.0417 31.2792 18.0039 31.2792C20.9661 31.2792 23.8513 30.3357 26.2411 28.5854C28.6309 26.8351 30.4011 24.3691 31.2949 21.545C32.3281 21.445 33.2878 20.9668 33.9898 20.2022C34.6918 19.4377 35.0866 18.4406 35.0982 17.4027C35.1098 16.3648 34.7374 15.3592 34.0527 14.5792C33.3679 13.7991 32.4191 13.2996 31.3884 13.1765H31.2925C30.4383 10.488 28.7951 8.11846 26.5766 6.37598C26.5053 6.31533 26.4225 6.26973 26.3332 6.2419C26.2438 6.21408 26.1498 6.20461 26.0567 6.21406C25.9636 6.22352 25.8734 6.2517 25.7914 6.29692C25.7095 6.34214 25.6376 6.40346 25.5799 6.47719C25.5223 6.55093 25.4802 6.63555 25.4561 6.72598C25.432 6.81641 25.4265 6.91077 25.4398 7.0034C25.4531 7.09603 25.485 7.18501 25.5336 7.26499C25.5822 7.34496 25.6465 7.41429 25.7225 7.46879C27.6346 8.97321 29.0728 10.9967 29.8649 13.2971C29.2073 13.462 28.5999 13.7848 28.0952 14.2374C28.0237 14.2972 27.965 14.3708 27.9226 14.4539C27.8802 14.5369 27.855 14.6276 27.8484 14.7206C27.8418 14.8136 27.854 14.907 27.8843 14.9952C27.9147 15.0834 27.9624 15.1645 28.0248 15.2338C28.0871 15.3032 28.1628 15.3592 28.2473 15.3986C28.3318 15.438 28.4234 15.46 28.5166 15.4633C28.6097 15.4665 28.7026 15.4509 28.7897 15.4175C28.8767 15.3841 28.9561 15.3334 29.0231 15.2686C29.513 14.8302 30.1408 14.5769 30.7977 14.5524C30.9411 14.5419 31.0851 14.5419 31.2285 14.5524C31.9464 14.632 32.6064 14.9841 33.0725 15.5359C33.5385 16.0878 33.7751 16.7974 33.7334 17.5185C33.6918 18.2397 33.3751 18.9173 32.8485 19.4118C32.322 19.9064 31.6259 20.18 30.9036 20.1765H30.8691C30.7025 20.1506 30.5321 20.1864 30.3899 20.277C30.2477 20.3675 30.1433 20.5068 30.0963 20.6687C29.3674 23.3196 27.7884 25.6578 25.6018 27.3243C23.4153 28.9908 20.7421 29.8934 17.9928 29.8934C15.2436 29.8934 12.5704 28.9908 10.3838 27.3243C8.19727 25.6578 6.61828 23.3196 5.8894 20.6687C5.84555 20.5111 5.74741 20.374 5.6123 20.2817C5.4772 20.1894 5.31382 20.1477 5.15101 20.1642H5.08702C4.69038 20.1632 4.29837 20.079 3.9363 19.917C3.57424 19.7551 3.25019 19.519 2.98507 19.224C2.64299 18.8382 2.41308 18.3661 2.3203 17.8589C2.22753 17.3517 2.27543 16.8288 2.4588 16.3469C2.64218 15.865 2.95402 15.4425 3.3605 15.1253C3.76698 14.8081 4.25258 14.6083 4.76459 14.5475C4.90879 14.537 5.05358 14.537 5.19778 14.5475C5.85578 14.5727 6.48432 14.8269 6.97484 15.2662C7.04255 15.3273 7.12163 15.3744 7.20757 15.405C7.29351 15.4355 7.38462 15.4488 7.4757 15.4441C7.56677 15.4394 7.65604 15.4168 7.7384 15.3776C7.82075 15.3385 7.89457 15.2834 7.95566 15.2157C8.01675 15.148 8.06391 15.0689 8.09443 14.983C8.12496 14.8971 8.13826 14.8059 8.13357 14.7149C8.12889 14.6238 8.1063 14.5345 8.06712 14.4522C8.02794 14.3698 7.97292 14.296 7.90521 14.2349C7.39797 13.78 6.78697 13.4563 6.12569 13.2922C6.74864 11.4818 7.77662 9.83749 9.13129 8.48453C10.486 7.13156 12.1316 6.10566 13.9428 5.48499C14.0809 6.29593 14.5013 7.03193 15.1296 7.56294C15.7579 8.09394 16.5537 8.38578 17.3763 8.38686C19.0007 8.38686 20.0837 7.2965 20.0837 5.67943C20.0831 5.02163 19.8215 4.39096 19.3563 3.92583C18.8912 3.46069 18.2605 3.19909 17.6027 3.19844C17.4186 3.19844 17.2421 3.27157 17.1119 3.40174C16.9818 3.5319 16.9086 3.70845 16.9086 3.89253C16.9086 4.07661 16.9818 4.25315 17.1119 4.38332C17.2421 4.51349 17.4186 4.58661 17.6027 4.58661C17.8925 4.58661 18.1705 4.70175 18.3755 4.90669C18.5804 5.11164 18.6955 5.3896 18.6955 5.67943C18.6955 6.53596 18.2254 7.00607 17.3689 7.00607C16.8127 7.00542 16.2794 6.78435 15.8859 6.3913C15.4924 5.99824 15.2707 5.46524 15.2694 4.90905C15.2777 4.81069 15.2916 4.71289 15.3112 4.61615C15.3764 3.92397 15.6982 3.28122 16.2134 2.81434C16.7285 2.34747 17.3997 2.09026 18.095 2.09332C19.0679 2.09462 20.0005 2.48168 20.6885 3.16962C21.3764 3.85755 21.7635 4.79023 21.7648 5.76312C21.7628 7.02669 21.2593 8.23781 20.3649 9.13037C19.4705 10.0229 18.2584 10.5239 16.9948 10.5233C16.9036 10.5233 16.8134 10.5412 16.7292 10.5761C16.645 10.611 16.5684 10.6621 16.504 10.7266C16.4395 10.791 16.3884 10.8675 16.3535 10.9517C16.3186 11.0359 16.3007 11.1262 16.3007 11.2174C16.3007 11.3085 16.3186 11.3988 16.3535 11.483C16.3884 11.5672 16.4395 11.6437 16.504 11.7081C16.5684 11.7726 16.645 11.8237 16.7292 11.8586C16.8134 11.8935 16.9036 11.9114 16.9948 11.9114C18.6267 11.9114 20.1918 11.2632 21.3458 10.1092C22.4997 8.95524 23.148 7.39013 23.148 5.75819C23.1467 4.41714 22.6134 3.13138 21.6651 2.18311C20.7169 1.23484 19.4311 0.701528 18.0901 0.700225C17.132 0.696611 16.2021 1.02342 15.4569 1.62555C14.7117 2.22768 14.197 3.06832 13.9994 4.00575C11.8252 4.6639 9.84442 5.84248 8.22875 7.43927C6.61309 9.03607 5.41132 11.0029 4.72767 13.1692H4.63168C3.59693 13.2863 2.64242 13.7831 1.95284 14.5634C1.26327 15.3437 0.887648 16.3521 0.898674 17.3934C0.909699 18.4347 1.30659 19.4348 2.01254 20.2004C2.71848 20.9659 3.6833 21.4424 4.72029 21.5376L4.7129 21.545Z" fill="#FF7976"/>
<path d="M20.8552 22.6745C20.5387 23.136 20.1145 23.5134 19.6194 23.7742C19.1244 24.0349 18.5732 24.1712 18.0136 24.1712C17.4541 24.1712 16.9029 24.0349 16.4078 23.7742C15.9127 23.5134 15.4886 23.136 15.1721 22.6745C15.0683 22.5224 14.9083 22.4178 14.7274 22.3836C14.5464 22.3495 14.3593 22.3886 14.2072 22.4924C14.0551 22.5962 13.9505 22.7561 13.9163 22.9371C13.8822 23.118 13.9213 23.3051 14.0251 23.4572C14.4679 24.107 15.0627 24.6387 15.7578 25.0062C16.453 25.3737 17.2273 25.5658 18.0136 25.5658C18.7999 25.5658 19.5743 25.3737 20.2694 25.0062C20.9646 24.6387 21.5594 24.107 22.0022 23.4572C22.0536 23.3819 22.0896 23.2972 22.1083 23.208C22.1269 23.1187 22.1278 23.0267 22.1109 22.9371C22.094 22.8475 22.0596 22.7621 22.0097 22.6858C21.9598 22.6095 21.8953 22.5438 21.82 22.4924C21.7447 22.441 21.66 22.4049 21.5708 22.3863C21.4815 22.3676 21.3895 22.3667 21.2999 22.3836C21.2103 22.4005 21.1249 22.4349 21.0486 22.4849C20.9723 22.5348 20.9066 22.5992 20.8552 22.6745Z" fill="#FF7976"/>
</svg>
