<svg width="32" height="32" viewBox="0 0 32 32" fill="none" xmlns="http://www.w3.org/2000/svg">
<path d="M6.69231 8.38477C6.24348 8.38477 5.81303 8.56306 5.49567 8.88043C5.1783 9.1978 5 9.62825 5 10.0771V25.3078C5 25.7567 5.1783 26.1871 5.49567 26.5045C5.81303 26.8218 6.24348 27.0001 6.69231 27.0001H25.3077C25.7565 27.0001 26.187 26.8218 26.5043 26.5045C26.8217 26.1871 27 25.7567 27 25.3078V10.0771C27 9.62825 26.8217 9.1978 26.5043 8.88043C26.187 8.56306 25.7565 8.38477 25.3077 8.38477H21.9231" stroke="#CED8DE" stroke-width="2" stroke-linecap="round" stroke-linejoin="round"/>
<path d="M5 15.1538H27" stroke="#CED8DE" stroke-width="2" stroke-linecap="round" stroke-linejoin="round"/>
<path d="M10.0762 5V11.7692" stroke="#CED8DE" stroke-width="2" stroke-linecap="round" stroke-linejoin="round"/>
<path d="M21.9233 5V11.7692" stroke="#CED8DE" stroke-width="2" stroke-linecap="round" stroke-linejoin="round"/>
<path d="M10.0762 8.38477H18.5377" stroke="#CED8DE" stroke-width="2" stroke-linecap="round" stroke-linejoin="round"/>
</svg>
