<svg width="28" height="28" viewBox="0 0 28 28" fill="none" xmlns="http://www.w3.org/2000/svg">
<path d="M10.9708 14.7838C10.9708 14.4878 10.7307 14.248 10.4345 14.248H8.56329C8.26744 14.248 8.02734 14.4878 8.02734 14.7838V16.6548C8.02734 16.9511 8.26744 17.191 8.56329 17.191H10.4345C10.7307 17.191 10.9708 16.9511 10.9708 16.6548V14.7838Z" fill="#CED8DE"/>
<path d="M15.6473 14.7838C15.6473 14.4878 15.4072 14.248 15.1115 14.248H13.24C12.9442 14.248 12.7041 14.4878 12.7041 14.7838V16.6548C12.7041 16.9511 12.9442 17.191 13.24 17.191H15.1115C15.4072 17.191 15.6473 16.9511 15.6473 16.6548V14.7838Z" fill="#CED8DE"/>
<path d="M20.3243 14.7838C20.3243 14.4878 20.0842 14.248 19.7884 14.248H17.9171C17.6209 14.248 17.3809 14.4878 17.3809 14.7838V16.6548C17.3809 16.9511 17.6209 17.191 17.9171 17.191H19.7884C20.0842 17.191 20.3243 16.9511 20.3243 16.6548V14.7838Z" fill="#CED8DE"/>
<path d="M10.9708 19.4608C10.9708 19.1644 10.7307 18.9248 10.4345 18.9248H8.56329C8.26744 18.9248 8.02734 19.1644 8.02734 19.4608V21.3315C8.02734 21.6276 8.26744 21.8674 8.56329 21.8674H10.4345C10.7307 21.8674 10.9708 21.6276 10.9708 21.3315V19.4608Z" fill="#CED8DE"/>
<path d="M15.6473 19.4608C15.6473 19.1644 15.4072 18.9248 15.1115 18.9248H13.24C12.9442 18.9248 12.7041 19.1644 12.7041 19.4608V21.3315C12.7041 21.6276 12.9442 21.8674 13.24 21.8674H15.1115C15.4072 21.8674 15.6473 21.6276 15.6473 21.3315V19.4608Z" fill="#CED8DE"/>
<path d="M20.3243 19.4608C20.3243 19.1644 20.0842 18.9248 19.7886 18.9248H17.9171C17.6209 18.9248 17.3809 19.1644 17.3809 19.4608V21.3315C17.3809 21.6276 17.6209 21.8674 17.9171 21.8674H19.7886C20.0842 21.8674 20.3243 21.6276 20.3243 21.3315V19.4608Z" fill="#CED8DE"/>
<path d="M23.67 4.38062V7.23845C23.67 8.53016 22.6221 9.57107 21.3306 9.57107H19.8548C18.5632 9.57107 17.5014 8.53016 17.5014 7.23845V4.37036H10.8498V7.23845C10.8498 8.53016 9.78805 9.57107 8.49663 9.57107H7.02058C5.72912 9.57107 4.68128 8.53016 4.68128 7.23845V4.38062C3.55252 4.41464 2.625 5.34865 2.625 6.49667V23.2449C2.625 24.4145 3.57299 25.3751 4.7426 25.3751H23.6086C24.7765 25.3751 25.7262 24.4125 25.7262 23.2449V6.49667C25.7262 5.34865 24.7987 4.41464 23.67 4.38062ZM22.9845 22.2019C22.9845 22.7074 22.5747 23.1175 22.0691 23.1175H6.24183C5.73618 23.1175 5.32636 22.7074 5.32636 22.2019V13.5509C5.32636 13.0452 5.73613 12.6352 6.24183 12.6352H22.069C22.5747 12.6352 22.9845 13.0452 22.9845 13.5509L22.9845 22.2019Z" fill="#CED8DE"/>
<path d="M7.01521 8.03891H8.47495C8.91802 8.03891 9.27727 7.68019 9.27727 7.23712V2.55208C9.27727 2.10896 8.91802 1.75 8.47495 1.75H7.01521C6.57209 1.75 6.21289 2.10896 6.21289 2.55208V7.23712C6.21289 7.68019 6.57209 8.03891 7.01521 8.03891Z" fill="#CED8DE"/>
<path d="M19.8365 8.03891H21.2962C21.739 8.03891 22.0982 7.68019 22.0982 7.23712V2.55208C22.0983 2.10896 21.739 1.75 21.2962 1.75H19.8365C19.3934 1.75 19.0342 2.10896 19.0342 2.55208V7.23712C19.0342 7.68019 19.3934 8.03891 19.8365 8.03891Z" fill="#CED8DE"/>
</svg>
