<svg width="28" height="28" viewBox="0 0 28 28" fill="none" xmlns="http://www.w3.org/2000/svg">
<path d="M5.13095 21.9823C5.18631 22.2698 5.33045 22.5278 5.53927 22.7133C5.7481 22.8987 6.00897 23.0004 6.27828 23.0013H21.718C21.9873 23.0004 22.2482 22.8987 22.457 22.7133C22.6658 22.5278 22.81 22.2698 22.8653 21.9823L24.9715 10.8091C25.0167 10.5737 24.9999 10.3292 24.9229 10.1037C24.846 9.87833 24.7121 9.68129 24.5368 9.5354C24.3614 9.38952 24.1518 9.30078 23.9322 9.27942C23.7125 9.25806 23.4918 9.30497 23.2956 9.41473L19.9765 11.2561C19.7018 11.4086 19.383 11.4369 19.0892 11.3349C18.7955 11.2328 18.5504 11.0086 18.4072 10.7108L15.0348 3.67171C14.9363 3.46456 14.7876 3.2909 14.6047 3.16969C14.4219 3.04848 14.2121 2.98437 13.9981 2.98438C13.7842 2.98437 13.5744 3.04848 13.3915 3.16969C13.2087 3.2909 13.06 3.46456 12.9615 3.67171L9.58914 10.7108C9.44589 11.0086 9.20084 11.2328 8.90708 11.3349C8.61331 11.4369 8.29451 11.4086 8.01975 11.2561L4.7007 9.41473C4.50447 9.30497 4.28377 9.25806 4.06412 9.27942C3.84447 9.30078 3.63485 9.38952 3.45952 9.5354C3.28419 9.68129 3.15031 9.87833 3.07338 10.1037C2.99644 10.3292 2.97959 10.5737 3.02478 10.8091L5.13095 21.9823Z" fill="#FFCB65"/>
</svg>
