<svg width="20" height="20" viewBox="0 0 20 20" fill="none" xmlns="http://www.w3.org/2000/svg">
<path d="M14.5391 3.907H5.82376C5.63327 3.90699 5.44465 3.94646 5.26869 4.02312C5.09273 4.09978 4.9329 4.21214 4.79833 4.35376C4.66376 4.49539 4.55711 4.6635 4.48447 4.84847C4.41183 5.03344 4.37463 5.23165 4.375 5.43174V5.94496H15.9821V5.4377C15.9836 5.03383 15.8325 4.64583 15.562 4.35885C15.2914 4.07187 14.9235 3.90936 14.5391 3.907ZM12.0051 2.8895L12.2182 4.49481H8.14462L8.36051 2.8895H11.9966H12.0051ZM12.1131 1.875H8.24404C8.04376 1.87872 7.85113 1.95643 7.69996 2.09448C7.54879 2.23253 7.44875 2.4221 7.4174 2.62991L7.13333 4.7544C7.11819 4.84873 7.12313 4.94541 7.1478 5.03749C7.17247 5.12957 7.21626 5.21476 7.27602 5.28694C7.33577 5.35913 7.41001 5.41651 7.4934 5.45496C7.57679 5.49341 7.66725 5.51197 7.75828 5.50932H12.5875C12.6785 5.51197 12.769 5.49341 12.8524 5.45496C12.9358 5.41651 13.01 5.35913 13.0698 5.28694C13.1295 5.21476 13.1733 5.12957 13.198 5.03749C13.2226 4.94541 13.2276 4.84873 13.2124 4.7544L12.9284 2.62991C12.8971 2.42259 12.7975 2.23341 12.6469 2.09542C12.4963 1.95743 12.3044 1.87941 12.1046 1.875H12.1131ZM14.772 6.94753H5.5823C5.45884 6.94545 5.33636 6.97103 5.22304 7.02256C5.10972 7.07409 5.00815 7.1504 4.9251 7.24638C4.84205 7.34237 4.77942 7.45584 4.74139 7.57924C4.70336 7.70264 4.69079 7.83314 4.70452 7.96204L5.49424 17.1135C5.52321 17.3882 5.64647 17.6424 5.84097 17.8286C6.03547 18.0148 6.28788 18.1202 6.55098 18.125H13.8061C14.0688 18.1194 14.3205 18.0137 14.5144 17.8276C14.7083 17.6415 14.8312 17.3877 14.8601 17.1135L15.6526 7.96204C15.665 7.83345 15.6514 7.70354 15.6127 7.58086C15.5739 7.45819 15.5109 7.34552 15.4277 7.25026C15.3445 7.155 15.2431 7.07932 15.1301 7.02817C15.0171 6.97702 14.895 6.95157 14.772 6.9535V6.94753ZM8.24404 16.09H6.79244L6.301 8.98549H8.23552L8.24404 16.09ZM11.1444 16.09H9.20989V8.98549H11.1444V16.09ZM13.5618 16.09H12.1131V8.98549H14.0476L13.5618 16.09Z" fill="#CED8DE"/>
</svg>
