<svg width="28" height="28" viewBox="0 0 28 28" fill="none" xmlns="http://www.w3.org/2000/svg">
<path d="M4.39736 22.8812C4.33894 23.0838 4.39736 23.3057 4.54523 23.4537C4.65431 23.5626 4.8063 23.625 4.95813 23.625C5.01259 23.625 5.06721 23.6172 5.11787 23.6016L10.5625 22.0479L5.95127 17.4375L4.39736 22.8812Z" fill="#CED8DE"/>
<path d="M4.97009 23.625C4.8119 23.625 4.66154 23.5632 4.54975 23.4513C4.39548 23.2969 4.33763 23.073 4.39925 22.8646L5.94966 17.4375L10.5625 22.054L5.13205 23.6018C5.07811 23.6173 5.02402 23.625 4.97009 23.625ZM5.96518 17.507L4.43405 22.8723C4.37996 23.0692 4.43405 23.2776 4.57672 23.4204C4.68083 23.5246 4.8235 23.5825 4.97009 23.5825C5.02026 23.5825 5.07419 23.5748 5.12436 23.5594L10.4854 22.027L5.96518 17.507Z" fill="#CED8DE"/>
<path d="M23.1053 7.44074L20.5672 4.90259C20.2235 4.56283 19.7759 4.375 19.2922 4.375C18.8125 4.375 18.3608 4.56283 18.0211 4.89868L16.75 6.16963L21.8303 11.25L23.1014 9.97889C23.4412 9.63914 23.6249 9.18744 23.6249 8.70779C23.629 8.22814 23.4412 7.78049 23.1053 7.44074Z" fill="#CED8DE"/>
<path d="M21.8259 11.25L16.75 6.17705L18.0248 4.90296C18.3665 4.56153 18.8192 4.375 19.2998 4.375C19.7844 4.375 20.2372 4.56153 20.5748 4.90296L23.0969 7.42354C23.4384 7.76482 23.625 8.21743 23.625 8.69763C23.625 9.18203 23.4384 9.63448 23.0969 9.97188L21.8259 11.25ZM16.8055 6.17705L21.8259 11.1945L23.073 9.948C23.4066 9.61463 23.5893 9.17396 23.5893 8.70166C23.5893 8.22937 23.4066 7.7887 23.073 7.45533L20.5509 4.93072C20.2174 4.59735 19.7724 4.41469 19.2998 4.41469C18.8273 4.41469 18.3863 4.59735 18.0528 4.93072L16.8055 6.17705Z" fill="#CED8DE"/>
<path d="M6.4375 16.8264L16.1388 7.125L20.875 11.8611L11.1737 21.5625L6.4375 16.8264Z" fill="#CED8DE"/>
<path d="M11.1844 21.5625L6.4375 16.8156L16.1318 7.125L20.875 11.8682L11.1844 21.5625ZM6.49317 16.8156L11.1844 21.5068L20.823 11.8682L16.1318 7.17705L6.49317 16.8156Z" fill="#CED8DE"/>
</svg>
