<svg width="35" height="40" viewBox="0 0 35 40" fill="none" xmlns="http://www.w3.org/2000/svg">
<path d="M17.7757 10.3121C16.7559 10.3121 15.759 10.0097 14.9111 9.44312C14.0632 8.87657 13.4024 8.07131 13.0121 7.12917C12.6219 6.18702 12.5198 5.15032 12.7187 4.15014C12.9176 3.14997 13.4087 2.23125 14.1298 1.51017C14.8509 0.789086 15.7696 0.298021 16.7698 0.0990742C17.77 -0.0998725 18.8067 0.00223363 19.7488 0.392482C20.6909 0.78273 21.4962 1.44359 22.0628 2.2915C22.6293 3.1394 22.9317 4.13627 22.9317 5.15604C22.9317 6.5235 22.3885 7.83496 21.4215 8.80191C20.4546 9.76885 19.1431 10.3121 17.7757 10.3121ZM17.7757 1.63908C17.0779 1.63908 16.3959 1.84598 15.8157 2.23362C15.2356 2.62126 14.7834 3.17223 14.5164 3.81685C14.2494 4.46148 14.1795 5.17081 14.3157 5.85513C14.4518 6.53946 14.7878 7.16806 15.2811 7.66144C15.7745 8.15481 16.4031 8.4908 17.0874 8.62692C17.7718 8.76304 18.4811 8.69318 19.1257 8.42617C19.7703 8.15916 20.3213 7.70699 20.7089 7.12684C21.0966 6.54669 21.3035 5.86463 21.3035 5.16689C21.3035 4.23126 20.9318 3.33394 20.2702 2.67235C19.6086 2.01076 18.7113 1.63908 17.7757 1.63908Z" fill="#FF7976"/>
<path d="M3.52919 28.3869C2.67981 28.3869 1.80464 28.0978 0.951177 27.5239C0.771247 27.4041 0.646293 27.2177 0.603798 27.0057C0.561303 26.7937 0.604743 26.5736 0.724576 26.3936C0.84441 26.2137 1.03082 26.0888 1.24279 26.0463C1.45475 26.0038 1.67491 26.0472 1.85484 26.167C2.76394 26.7736 3.61874 26.9106 4.39079 26.5741C5.77071 25.9771 6.84805 23.9187 7.34602 20.9269C8.02444 16.8903 9.04344 14.5822 10.7734 13.2118C12.5034 11.8414 14.7327 11.5728 17.787 11.5728C18.0029 11.5728 18.21 11.6585 18.3627 11.8112C18.5153 11.9639 18.6011 12.1709 18.6011 12.3869C18.6011 12.6028 18.5153 12.8098 18.3627 12.9625C18.21 13.1152 18.0029 13.201 17.787 13.201C12.4559 13.201 10.1642 13.9242 8.95253 21.1942C8.3528 24.7939 6.96203 27.2349 5.03801 28.068C4.56271 28.278 4.04883 28.3866 3.52919 28.3869Z" fill="#FF7976"/>
<path d="M32.0309 28.3866C31.5138 28.3863 31.0023 28.2786 30.5289 28.0704C28.6049 27.2373 27.2141 24.7964 26.6144 21.1966C25.4027 13.9266 23.111 13.2034 17.7799 13.2034C17.564 13.2034 17.3569 13.1176 17.2043 12.965C17.0516 12.8123 16.9658 12.6052 16.9658 12.3893C16.9658 12.1734 17.0516 11.9663 17.2043 11.8136C17.3569 11.661 17.564 11.5752 17.7799 11.5752C20.8342 11.5752 23.0716 11.8466 24.7935 13.2143C26.5153 14.582 27.5452 16.8927 28.2236 20.9293C28.7216 23.9144 29.7989 25.9795 31.1788 26.5765C31.9522 26.9117 32.8071 26.7746 33.7148 26.1695C33.8947 26.0497 34.1149 26.0062 34.3268 26.0487C34.5388 26.0912 34.7252 26.2162 34.8451 26.3961C34.9649 26.576 35.0083 26.7962 34.9658 27.0081C34.9233 27.2201 34.7984 27.4065 34.6185 27.5263C33.7541 28.0976 32.8803 28.3866 32.0309 28.3866Z" fill="#FF7976"/>
<path d="M7.62558 39.623C6.27687 39.623 5.18325 39.3353 4.35693 38.7628C3.13576 37.9147 2.51025 36.4995 2.51025 34.5565C2.51025 31.5307 5.50889 29.8889 8.15475 28.4412C10.2077 27.3177 12.1466 26.2566 12.1466 24.9134V19.1359C12.1466 18.92 12.2324 18.7129 12.3851 18.5602C12.5377 18.4075 12.7448 18.3218 12.9607 18.3218C13.1766 18.3218 13.3837 18.4075 13.5364 18.5602C13.6891 18.7129 13.7748 18.92 13.7748 19.1359V24.9188C13.7748 27.2254 11.3149 28.5674 8.9363 29.8699C6.55774 31.1725 4.13848 32.4955 4.13848 34.5565C4.13848 35.9527 4.51298 36.8903 5.28367 37.4235C6.28638 38.1182 8.56589 38.5375 13.7274 36.5959C13.8274 36.5582 13.9339 36.5406 14.0407 36.544C14.1476 36.5475 14.2527 36.572 14.3501 36.6161C14.4475 36.6602 14.5353 36.723 14.6084 36.801C14.6815 36.8791 14.7385 36.9707 14.7762 37.0708C14.8139 37.1708 14.8315 37.2773 14.828 37.3842C14.8246 37.491 14.8001 37.5961 14.756 37.6935C14.7119 37.7909 14.649 37.8787 14.571 37.9518C14.493 38.0249 14.4013 38.0819 14.3013 38.1196C11.6392 39.121 9.40848 39.623 7.62558 39.623Z" fill="#FF7976"/>
<path d="M27.9282 39.6271C25.3502 39.6271 21.8373 38.5755 17.4302 36.4765C17.2352 36.3836 17.085 36.2171 17.0128 36.0135C16.9405 35.81 16.952 35.586 17.0449 35.391C17.1377 35.1959 17.3043 35.0458 17.5078 34.9735C17.7114 34.9012 17.9353 34.9128 18.1304 35.0056C24.0042 37.8035 28.2878 38.6827 30.1914 37.4805C31.0205 36.9568 31.4221 36.0002 31.4221 34.5565C31.4221 32.7831 29.6921 31.7858 27.0544 30.4656C24.5836 29.2309 21.7844 27.832 21.7844 24.9188V19.1359C21.7844 18.92 21.8701 18.7129 22.0228 18.5602C22.1755 18.4075 22.3826 18.3218 22.5985 18.3218C22.8144 18.3218 23.0215 18.4075 23.1741 18.5602C23.3268 18.7129 23.4126 18.92 23.4126 19.1359V24.9188C23.4126 26.6922 25.1426 27.6895 27.7817 29.0097C30.2511 30.2444 33.0503 31.6434 33.0503 34.5565C33.0503 36.5769 32.3814 38.0233 31.0612 38.8577C30.2471 39.3706 29.2027 39.6271 27.9282 39.6271Z" fill="#FF7976"/>
<path d="M17.7757 36.5548C17.6546 36.5546 17.5351 36.5278 17.4256 36.4761C14.1692 34.9211 11.6699 33.3852 11.5654 33.3214C11.4744 33.2652 11.3954 33.1916 11.3329 33.1049C11.2704 33.0181 11.2256 32.9199 11.201 32.8158C11.1764 32.7118 11.1726 32.6039 11.1897 32.4983C11.2068 32.3928 11.2446 32.2916 11.3008 32.2006C11.357 32.1097 11.4306 32.0307 11.5174 31.9682C11.6041 31.9056 11.7023 31.8608 11.8064 31.8362C11.9105 31.8117 12.0184 31.8078 12.1239 31.825C12.2295 31.8421 12.3306 31.8798 12.4216 31.9361C12.446 31.951 14.9467 33.491 18.1204 35.0053C18.2874 35.0846 18.4224 35.2184 18.5033 35.3846C18.5841 35.5509 18.606 35.7397 18.5652 35.9201C18.5245 36.1004 18.4236 36.2615 18.2791 36.3769C18.1346 36.4922 17.9552 36.555 17.7703 36.5548H17.7757Z" fill="#FF7976"/>
</svg>
