<svg width="39" height="40" viewBox="0 0 39 40" fill="none" xmlns="http://www.w3.org/2000/svg">
<path d="M15.1519 10.2258H9.41202C9.19772 10.2258 8.99218 10.1407 8.84064 9.98912C8.6891 9.83758 8.60397 9.63205 8.60397 9.41775C8.60397 9.20344 8.6891 8.99791 8.84064 8.84637C8.99218 8.69483 9.19772 8.60969 9.41202 8.60969H15.1519C15.445 8.60934 15.726 8.49273 15.9333 8.28545C16.1406 8.07817 16.2572 7.79715 16.2576 7.50401C16.2568 7.21111 16.1401 6.93043 15.9329 6.72344C15.7256 6.51645 15.4448 6.40003 15.1519 6.39967H5.58994C5.29704 6.40003 5.01621 6.51645 4.80897 6.72344C4.60173 6.93043 4.48498 7.21111 4.48427 7.50401C4.48462 7.79715 4.60123 8.07817 4.80851 8.28545C5.01579 8.49273 5.29681 8.60934 5.58994 8.60969C5.80425 8.60969 6.00979 8.69483 6.16133 8.84637C6.31287 8.99791 6.39799 9.20344 6.39799 9.41775C6.39799 9.63205 6.31287 9.83758 6.16133 9.98912C6.00979 10.1407 5.80425 10.2258 5.58994 10.2258C4.86807 10.2251 4.17598 9.93791 3.66566 9.42734C3.15534 8.91677 2.86852 8.22454 2.86816 7.50266C2.86923 6.78125 3.15637 6.08972 3.66661 5.57973C4.17685 5.06974 4.86853 4.78294 5.58994 4.78223H15.1519C15.874 4.78187 16.5667 5.0682 17.0778 5.5783C17.5889 6.08841 17.8766 6.78055 17.8777 7.50266C17.8775 7.86045 17.8069 8.21469 17.6698 8.54518C17.5327 8.87566 17.3319 9.1759 17.0788 9.42877C16.8257 9.68163 16.5252 9.88217 16.1946 10.0189C15.864 10.1557 15.5097 10.226 15.1519 10.2258Z" fill="#FF7976"/>
<path d="M14.1996 6.39977C14.1462 6.39964 14.093 6.39423 14.0406 6.38361C13.9366 6.36284 13.8376 6.32178 13.7494 6.26275C13.6611 6.20373 13.5854 6.12791 13.5265 6.03961C13.4676 5.95131 13.4267 5.85228 13.406 5.74816C13.3854 5.64404 13.3855 5.53688 13.4063 5.4328L13.906 2.93862C13.9381 2.77833 13.9342 2.61291 13.8946 2.45431C13.855 2.29571 13.7807 2.14788 13.677 2.02148C13.5734 1.89493 13.4428 1.79303 13.2949 1.72315C13.147 1.65327 12.9854 1.61717 12.8218 1.61745H7.92369C7.76011 1.61717 7.59851 1.65327 7.4506 1.72315C7.30269 1.79303 7.17217 1.89493 7.06851 2.02148C6.96484 2.14788 6.89053 2.29571 6.85094 2.45431C6.81135 2.61291 6.80747 2.77833 6.83957 2.93862L7.33921 5.4328C7.36001 5.53688 7.36011 5.64404 7.33949 5.74816C7.31886 5.85228 7.27792 5.95131 7.21901 6.03961C7.16011 6.12791 7.08439 6.20373 6.99617 6.26275C6.90796 6.32178 6.80898 6.36284 6.70489 6.38361C6.49488 6.42565 6.27676 6.3826 6.09847 6.26391C5.92019 6.14522 5.79631 5.96061 5.75408 5.75063L5.25444 3.2551C5.17505 2.86036 5.1845 2.4529 5.28211 2.06227C5.37971 1.67163 5.563 1.30761 5.81872 0.9966C6.07362 0.684661 6.39477 0.433383 6.75886 0.261003C7.12296 0.088624 7.52085 -0.000533001 7.92369 2.39712e-06H12.8218C13.2247 -0.000533001 13.6226 0.088624 13.9867 0.261003C14.3508 0.433383 14.6719 0.684661 14.9268 0.9966C15.1826 1.30754 15.3659 1.6716 15.4633 2.06229C15.5607 2.45298 15.5697 2.86047 15.4897 3.2551L14.9915 5.75063C14.9547 5.93365 14.8558 6.09831 14.7115 6.21664C14.5671 6.33497 14.3862 6.39968 14.1996 6.39977Z" fill="#FF7976"/>
<path d="M16.1122 26.4917C14.4867 26.4917 13.3796 25.9382 12.4032 25.4494C11.4686 24.982 10.6606 24.578 9.41615 24.578C6.79403 24.578 5.01092 25.4426 4.99341 25.4507C4.89844 25.4981 4.79507 25.5263 4.68919 25.5338C4.58331 25.5412 4.477 25.5277 4.37633 25.4941C4.27565 25.4605 4.18259 25.4073 4.10245 25.3377C4.02232 25.2681 3.95668 25.1834 3.90929 25.0884C3.81356 24.8966 3.79795 24.6747 3.86588 24.4713C3.93382 24.268 4.07975 24.1 4.27155 24.0043C4.35775 23.9626 6.39 22.9619 9.41615 22.9619C11.0417 22.9619 12.1487 23.5154 13.1264 24.0043C14.0611 24.4716 14.8678 24.8756 16.1122 24.8756C16.6684 24.8765 17.2229 24.8164 17.766 24.6965C17.8722 24.6655 17.9836 24.6566 18.0934 24.6703C18.2032 24.6841 18.309 24.7203 18.4042 24.7766C18.4994 24.8329 18.5821 24.9082 18.647 24.9978C18.712 25.0873 18.7578 25.1893 18.7817 25.2973C18.8057 25.4053 18.8072 25.5171 18.7862 25.6257C18.7651 25.7343 18.722 25.8375 18.6595 25.9288C18.5969 26.02 18.5163 26.0975 18.4227 26.1563C18.329 26.2152 18.2242 26.2542 18.1148 26.2709C17.4573 26.4171 16.7858 26.4912 16.1122 26.4917Z" fill="#FF7976"/>
<path d="M16.6844 39.8801H4.06132C2.98439 39.879 1.95187 39.4507 1.19036 38.6892C0.42886 37.9277 0.000581339 36.8952 -0.000488281 35.8183V18.0277C-0.000488281 16.3793 0.672887 14.743 1.88496 13.4218C2.76035 12.471 3.79735 11.8205 4.78048 11.5808V9.41791C4.78048 9.20361 4.86561 8.99807 5.01715 8.84654C5.16869 8.695 5.37422 8.60986 5.58853 8.60986C5.80284 8.60986 6.00837 8.695 6.15991 8.84654C6.31145 8.99807 6.39658 9.20361 6.39658 9.41791V12.2878C6.39658 12.5021 6.31145 12.7077 6.15991 12.8592C6.00837 13.0108 5.80284 13.0959 5.58853 13.0959C4.22831 13.0959 1.61427 15.178 1.61427 18.0277V35.8183C1.61498 36.4667 1.87288 37.0884 2.33139 37.5469C2.78989 38.0054 3.41155 38.2633 4.05997 38.264H16.6831C17.3315 38.2633 17.9531 38.0054 18.4117 37.5469C18.8702 37.0884 19.1281 36.4667 19.1288 35.8183V32.3652C19.1288 32.1509 19.2139 31.9454 19.3654 31.7938C19.517 31.6423 19.7225 31.5572 19.9368 31.5572C20.1511 31.5572 20.3567 31.6423 20.5082 31.7938C20.6597 31.9454 20.7449 32.1509 20.7449 32.3652V35.8183C20.7438 36.895 20.3157 37.9273 19.5545 38.6888C18.7933 39.4502 17.7611 39.8787 16.6844 39.8801Z" fill="#FF7976"/>
<path d="M19.9379 28.3395C19.7236 28.3395 19.5181 28.2544 19.3666 28.1028C19.215 27.9513 19.1299 27.7458 19.1299 27.5315V26.2426C19.1299 26.0283 19.215 25.8228 19.3666 25.6712C19.5181 25.5197 19.7236 25.4346 19.9379 25.4346C20.1522 25.4346 20.3578 25.5197 20.5093 25.6712C20.6608 25.8228 20.746 26.0283 20.746 26.2426V27.5315C20.746 27.7458 20.6608 27.9513 20.5093 28.1028C20.3578 28.2544 20.1522 28.3395 19.9379 28.3395Z" fill="#FF7976"/>
<path d="M19.9181 18.4654C19.7132 18.4659 19.5158 18.3886 19.3658 18.2491C19.2158 18.1095 19.1244 17.9183 19.11 17.7139C18.9296 15.1645 16.5862 13.0959 15.1533 13.0959C14.939 13.0959 14.7334 13.0108 14.5819 12.8592C14.4303 12.7077 14.3452 12.5022 14.3452 12.2878V9.41791C14.3452 9.20361 14.4303 8.99807 14.5819 8.84654C14.7334 8.695 14.939 8.60986 15.1533 8.60986C15.3676 8.60986 15.5731 8.695 15.7246 8.84654C15.8762 8.99807 15.9613 9.20361 15.9613 9.41791V11.5808C18.1161 12.1047 20.5093 14.5921 20.7221 17.6008C20.7296 17.7067 20.7161 17.8131 20.6825 17.9139C20.6488 18.0146 20.5957 18.1078 20.526 18.1879C20.4563 18.2681 20.3715 18.3338 20.2765 18.3812C20.1814 18.4285 20.0779 18.4567 19.9719 18.464L19.9181 18.4654Z" fill="#FF7976"/>
<path d="M22.8836 19.2731C22.7018 19.2729 22.5254 19.2113 22.383 19.0984C22.2405 18.9855 22.1403 18.8279 22.0985 18.6509C21.9275 17.9634 21.8371 17.2584 21.8291 16.55C21.8291 13.5171 23.8358 11.4795 26.8229 11.4795C29.81 11.4795 31.8166 13.5171 31.8166 16.55C31.8118 17.0597 31.7627 17.568 31.6698 18.0691C31.6512 18.1741 31.6119 18.2743 31.5544 18.3641C31.4968 18.4538 31.4221 18.5313 31.3344 18.592C31.2468 18.6527 31.148 18.6955 31.0438 18.7178C30.9395 18.7402 30.8319 18.7417 30.7271 18.7223C30.622 18.7038 30.5216 18.6647 30.4317 18.6072C30.3419 18.5497 30.2643 18.475 30.2034 18.3873C30.1426 18.2997 30.0997 18.2009 30.0772 18.0966C30.0547 17.9922 30.0532 17.8845 30.0726 17.7796C30.1493 17.3723 30.1903 16.9591 30.1951 16.5446C30.1951 14.3817 28.9319 13.0902 26.8175 13.0902C24.7031 13.0902 23.4398 14.3817 23.4398 16.5446C23.4507 17.1288 23.528 17.7098 23.6701 18.2765C23.7195 18.485 23.6841 18.7044 23.5717 18.8868C23.4593 19.0691 23.2792 19.1993 23.0708 19.2489C23.0096 19.2643 22.9468 19.2724 22.8836 19.2731Z" fill="#FF7976"/>
<path d="M22.8834 19.2731C22.7478 19.273 22.6144 19.2387 22.4955 19.1735C22.1417 18.974 21.7702 18.8077 21.3858 18.6765C20.9255 18.5192 20.4403 18.4475 19.9542 18.4651C19.8482 18.4698 19.7423 18.4536 19.6425 18.4173C19.5427 18.3811 19.4511 18.3256 19.3728 18.2539C19.2945 18.1822 19.2311 18.0958 19.1862 17.9997C19.1413 17.9035 19.1158 17.7994 19.1111 17.6934C19.1064 17.5874 19.1227 17.4815 19.1589 17.3817C19.1951 17.2819 19.2507 17.1903 19.3223 17.112C19.394 17.0337 19.4804 16.9703 19.5766 16.9254C19.6727 16.8805 19.7768 16.855 19.8828 16.8503C20.5652 16.8241 21.2466 16.9227 21.8935 17.1412C22.3705 17.3047 22.832 17.5102 23.2726 17.7554C23.3658 17.8063 23.448 17.8752 23.5145 17.9579C23.581 18.0407 23.6306 18.1358 23.6604 18.2377C23.6901 18.3397 23.6995 18.4465 23.688 18.552C23.6765 18.6576 23.6442 18.7599 23.5931 18.853C23.5235 18.9803 23.4208 19.0865 23.2959 19.1604C23.171 19.2344 23.0285 19.2733 22.8834 19.2731Z" fill="#FF7976"/>
<path d="M17.9381 26.2898C17.786 26.2897 17.6371 26.2468 17.5084 26.1659C15.5812 24.9538 14.8473 22.7451 15.5961 20.4004C16.2775 18.2658 17.8855 16.9393 19.8828 16.8504C19.9888 16.8457 20.0947 16.8619 20.1945 16.8982C20.2942 16.9344 20.3859 16.9899 20.4642 17.0616C20.5425 17.1333 20.6059 17.2196 20.6508 17.3158C20.6957 17.412 20.7212 17.5161 20.7258 17.6221C20.7305 17.7281 20.7143 17.834 20.6781 17.9338C20.6418 18.0336 20.5863 18.1252 20.5146 18.2035C20.443 18.2818 20.3566 18.3452 20.2604 18.3901C20.1643 18.435 20.0602 18.4605 19.9541 18.4652C18.6357 18.5231 17.6094 19.4079 17.1354 20.8893C16.6061 22.5472 17.0559 23.9707 18.3677 24.7949C18.5161 24.8881 18.6301 25.0271 18.6926 25.1908C18.7551 25.3546 18.7627 25.5342 18.7142 25.7026C18.6657 25.871 18.5638 26.0191 18.4238 26.1245C18.2838 26.23 18.1133 26.287 17.9381 26.2871V26.2898Z" fill="#FF7976"/>
<path d="M20.9174 27.1803H20.8528C20.4961 27.1535 20.141 27.1086 19.7889 27.0456C19.6845 27.0259 19.5851 26.9858 19.4962 26.9277C19.4074 26.8695 19.3308 26.7944 19.271 26.7067C19.1501 26.5295 19.1046 26.3116 19.1444 26.1009C19.1843 25.8901 19.3062 25.7038 19.4833 25.583C19.6605 25.4621 19.8785 25.4166 20.0892 25.4565C20.3836 25.5116 20.6808 25.5507 20.9794 25.5736C21.1937 25.5818 21.396 25.6748 21.5417 25.8322C21.6874 25.9895 21.7647 26.1983 21.7565 26.4126C21.7483 26.627 21.6552 26.8292 21.4979 26.9749C21.3405 27.1207 21.1318 27.1979 20.9174 27.1897V27.1803Z" fill="#FF7976"/>
<path d="M19.9393 27.0506C19.8887 27.0508 19.8382 27.0463 19.7884 27.0372C19.4533 26.9747 19.1226 26.8901 18.7986 26.784C18.3447 26.6319 17.9113 26.4243 17.5084 26.1658C17.332 26.0496 17.2082 25.8689 17.1634 25.6625C17.1186 25.4561 17.1564 25.2403 17.2688 25.0614C17.3811 24.8826 17.559 24.7548 17.7644 24.7055C17.9698 24.6561 18.1863 24.6892 18.3676 24.7975C18.6621 24.9865 18.9787 25.1385 19.3103 25.25C19.5664 25.3336 19.8278 25.3998 20.0928 25.448C20.2912 25.4847 20.4687 25.5943 20.5904 25.7552C20.7121 25.9161 20.7692 26.1168 20.7505 26.3176C20.7317 26.5185 20.6385 26.7052 20.4891 26.8408C20.3398 26.9764 20.1451 27.0513 19.9433 27.0506H19.9393Z" fill="#FF7976"/>
<path d="M23.5393 35.0963C22.4929 35.0963 21.4208 34.7219 20.4579 34.0095C20.0191 33.6812 19.6283 33.2932 19.297 32.8566C19.1666 32.6864 19.1092 32.4714 19.1374 32.2589C19.1655 32.0464 19.277 31.8537 19.4472 31.7234C19.6174 31.593 19.8324 31.5356 20.0449 31.5637C20.2574 31.5919 20.4501 31.7033 20.5805 31.8735C20.8194 32.1904 21.1018 32.472 21.4195 32.7098C22.237 33.3159 23.1379 33.5772 23.9541 33.4479C24.7702 33.3186 25.5096 32.8122 26.1264 31.9476C26.4568 31.471 26.7307 30.9576 26.9425 30.4177C26.9819 30.3187 27.0406 30.2285 27.115 30.1523C27.1894 30.076 27.2782 30.0153 27.3762 29.9735C27.4741 29.9317 27.5794 29.9097 27.686 29.9087C27.7925 29.9078 27.8982 29.9279 27.9969 29.9679C28.0956 30.008 28.1854 30.0671 28.2612 30.142C28.337 30.2169 28.3972 30.3061 28.4384 30.4043C28.4796 30.5026 28.5009 30.608 28.5012 30.7145C28.5015 30.821 28.4808 30.9266 28.4401 31.0251C28.1812 31.6823 27.8463 32.3069 27.4422 32.8863C26.5762 34.0983 25.4584 34.8458 24.21 35.0411C23.9882 35.0771 23.7639 35.0956 23.5393 35.0963Z" fill="#FF7976"/>
<path d="M19.9394 33.1734C19.8152 33.1735 19.6927 33.1451 19.5812 33.0902C19.4698 33.0353 19.3726 32.9554 19.297 32.8569C17.988 31.1478 17.9785 28.9877 19.2687 27.0793C19.3273 26.9895 19.4032 26.9123 19.492 26.8521C19.5807 26.792 19.6805 26.75 19.7856 26.7288C19.8907 26.7076 19.999 26.7076 20.1041 26.7286C20.2093 26.7497 20.3092 26.7915 20.398 26.8515C20.4868 26.9116 20.5628 26.9887 20.6215 27.0784C20.6802 27.1681 20.7205 27.2686 20.74 27.3741C20.7595 27.4795 20.7578 27.5877 20.735 27.6925C20.7123 27.7973 20.6689 27.8965 20.6074 27.9843C19.6983 29.3311 19.6889 30.7101 20.5805 31.8737C20.7106 32.0439 20.7679 32.2589 20.7396 32.4713C20.7113 32.6837 20.5998 32.8762 20.4296 33.0064C20.2893 33.1148 20.1168 33.1736 19.9394 33.1734Z" fill="#FF7976"/>
<path d="M19.9384 28.3399C19.7937 28.3388 19.652 28.299 19.528 28.2244C19.404 28.1499 19.3022 28.0434 19.2334 27.9161C19.1646 27.7888 19.1313 27.6454 19.1368 27.5008C19.1424 27.3562 19.1867 27.2158 19.2651 27.0941C19.2934 27.0395 19.3253 26.9869 19.3607 26.9366C19.6582 26.5262 19.9922 26.1435 20.3586 25.7932C20.5149 25.6607 20.7157 25.5926 20.9203 25.6025C21.1249 25.6125 21.3181 25.6998 21.4608 25.8467C21.6035 25.9937 21.6851 26.1894 21.689 26.3943C21.6929 26.5991 21.6188 26.7977 21.4818 26.95C21.1911 27.2284 20.9248 27.5312 20.6859 27.8551C20.6589 27.9049 20.636 27.9439 20.6091 27.9897C20.5344 28.0984 20.4342 28.1871 20.3173 28.2482C20.2004 28.3092 20.0703 28.3407 19.9384 28.3399Z" fill="#FF7976"/>
<path d="M31.6241 34.5954C31.3986 34.5957 31.1734 34.5782 30.9507 34.5429C29.7009 34.3449 28.5817 33.6002 27.7185 32.3881C27.4275 31.9715 27.1733 31.5304 26.9589 31.0696C26.8673 30.8759 26.8564 30.6536 26.9286 30.4518C27.0009 30.25 27.1503 30.0852 27.3441 29.9936C27.5378 29.902 27.7601 29.8911 27.9619 29.9633C28.1637 30.0356 28.3285 30.185 28.4201 30.3788C28.5931 30.7551 28.7986 31.1156 29.0342 31.4562C29.651 32.3208 30.381 32.8258 31.2065 32.9564C32.0321 33.0871 32.9237 32.8218 33.7411 32.2184C35.7613 30.7195 35.4569 28.7371 34.4899 27.3822C34.1492 26.9179 33.755 26.4953 33.3156 26.123C33.2354 26.0535 33.1696 25.9689 33.1221 25.874C33.0746 25.7791 33.0463 25.6758 33.0387 25.5699C33.0311 25.464 33.0445 25.3577 33.078 25.257C33.1115 25.1563 33.1646 25.0632 33.2341 24.983C33.3036 24.9028 33.3882 24.8371 33.4831 24.7896C33.578 24.7421 33.6814 24.7137 33.7872 24.7062C33.8931 24.6986 33.9994 24.712 34.1001 24.7455C34.2008 24.779 34.2939 24.832 34.3741 24.9015C34.9101 25.3582 35.3906 25.8762 35.8057 26.4449C37.5565 28.8946 37.1094 31.7363 34.7027 33.518C33.7371 34.221 32.6691 34.5954 31.6241 34.5954Z" fill="#FF7976"/>
<path d="M33.8449 26.31C33.6409 26.3088 33.4448 26.2304 33.2962 26.0907C33.1476 25.951 33.0573 25.7602 33.0435 25.5566C33.0296 25.3531 33.0934 25.1518 33.2218 24.9933C33.3502 24.8348 33.5338 24.7307 33.7358 24.702C34.1375 24.6503 34.5337 24.5624 34.9196 24.4393C36.9397 23.766 37.7477 22.1499 37.0905 20.0812C36.7727 19.0833 36.1828 18.3305 35.4313 17.9399C34.6798 17.5494 33.8233 17.5359 32.8402 17.8658C32.3008 18.0541 31.7851 18.3045 31.3035 18.6119C31.122 18.7253 30.903 18.762 30.6944 18.714C30.4859 18.666 30.3049 18.5373 30.1911 18.3561C30.1348 18.2661 30.0967 18.166 30.0791 18.0613C30.0615 17.9567 30.0646 17.8496 30.0884 17.7462C30.1122 17.6428 30.156 17.545 30.2176 17.4586C30.2791 17.3721 30.3571 17.2986 30.447 17.2423C31.037 16.8645 31.67 16.5585 32.3325 16.3305C33.721 15.8713 35.0462 15.9265 36.1653 16.5002C37.3047 17.0807 38.1855 18.1783 38.6299 19.5897C39.5497 22.4704 38.2622 25.0359 35.4273 25.9733C34.9481 26.1276 34.4558 26.2381 33.9566 26.3032C33.9196 26.3081 33.8822 26.3104 33.8449 26.31Z" fill="#FF7976"/>
<path d="M27.592 27.4443C26.8646 27.4443 26.1535 27.2286 25.5487 26.8245C24.9438 26.4203 24.4724 25.8459 24.194 25.1739C23.9157 24.5018 23.8428 23.7623 23.9847 23.0488C24.1267 22.3354 24.477 21.68 24.9913 21.1656C25.5057 20.6513 26.1611 20.301 26.8745 20.1591C27.588 20.0171 28.3275 20.09 28.9995 20.3683C29.6716 20.6467 30.246 21.1181 30.6502 21.723C31.0543 22.3278 31.27 23.0389 31.27 23.7664C31.269 24.7415 30.8811 25.6764 30.1916 26.3659C29.5021 27.0554 28.5672 27.4433 27.592 27.4443ZM27.592 21.7058C27.1842 21.7058 26.7855 21.8268 26.4464 22.0534C26.1073 22.28 25.843 22.6021 25.687 22.979C25.531 23.3558 25.4902 23.7705 25.5699 24.1705C25.6495 24.5705 25.8461 24.9378 26.1346 25.2261C26.4231 25.5145 26.7906 25.7107 27.1906 25.7901C27.5907 25.8695 28.0053 25.8285 28.382 25.6722C28.7588 25.516 29.0807 25.2515 29.3071 24.9122C29.5335 24.573 29.6542 24.1742 29.6539 23.7664C29.6532 23.2199 29.4357 22.696 29.0491 22.3097C28.6626 21.9233 28.1385 21.7062 27.592 21.7058Z" fill="#FF7976"/>
</svg>
