<svg width="52" height="38" viewBox="0 0 52 38" fill="none" xmlns="http://www.w3.org/2000/svg">
<path d="M15.2935 20.3706C15.5176 19.1544 15.9938 17.9428 16.4607 16.8048C17.3058 14.7469 19.0951 12.9261 18.3154 10.5157C17.4505 7.83113 13.7142 6.47364 11.1603 6.43046C8.82585 6.38493 6.62563 7.22884 5.15376 9.08823C3.19399 11.5662 2.75745 14.4575 2.8018 17.5471C2.82164 18.9233 2.90919 20.2959 2.98972 21.6686C3.08894 23.3996 3.20916 25.1224 3.4893 26.8359C3.9877 29.8789 4.7534 33.3152 6.96646 35.6064C9.7468 38.479 15.5246 37.9677 17.4447 34.3015C18.6492 32.0032 17.112 29.6116 16.177 27.5316C15.1612 25.29 14.8529 22.7919 15.2935 20.3706Z" fill="white"/>
<path d="M23.403 6.17085C22.2147 8.54382 19.8301 9.7554 18.0793 8.87648C16.3284 7.99756 15.872 5.3643 17.0626 2.9925C18.2532 0.620693 20.6355 -0.592056 22.3875 0.285698C24.1395 1.16345 24.5924 3.79905 23.403 6.17085Z" fill="white"/>
<path d="M16.1559 3.60291C15.8057 5.02342 14.67 5.96187 13.6218 5.70392C12.5736 5.44596 12.011 4.08264 12.3624 2.66913C12.7137 1.25562 13.8494 0.308998 14.8964 0.568122C15.9434 0.827246 16.5084 2.18356 16.1559 3.60291Z" fill="white"/>
<path d="M11.693 2.88324C11.7572 4.34344 10.9332 5.56786 9.85466 5.61222C8.77614 5.65657 7.85287 4.51386 7.78867 3.05249C7.72447 1.59112 8.54737 0.367869 9.62589 0.323514C10.7044 0.27916 11.63 1.42187 11.693 2.88324Z" fill="white"/>
<path d="M7.3498 3.82323C7.91591 5.17137 7.56807 6.60356 6.5736 7.02143C5.57912 7.43929 4.31151 6.69227 3.74541 5.33945C3.1793 3.98664 3.52597 2.55912 4.52161 2.14126C5.51726 1.72339 6.78136 2.47625 7.3498 3.82323Z" fill="white"/>
<path d="M3.77911 6.34801C4.68955 7.49306 4.74207 8.96493 3.89583 9.63726C3.04959 10.3096 1.62908 9.92556 0.718643 8.78285C-0.191794 7.64013 -0.244319 6.16593 0.60192 5.4936C1.44816 4.82128 2.86984 5.20413 3.77911 6.34801Z" fill="white"/>
<path d="M36.0192 20.3706C35.7951 19.1544 35.3188 17.9428 34.852 16.8048C34.0092 14.7516 32.2234 12.9261 32.9996 10.5157C33.8633 7.83113 37.6019 6.47364 40.1558 6.43046C42.4903 6.38493 44.6882 7.22884 46.1612 9.08823C48.121 11.5662 48.5575 14.4575 48.5143 17.5471C48.4933 18.9233 48.4046 20.2959 48.3264 21.6686C48.2249 23.3996 48.1058 25.1224 47.8245 26.8359C47.3284 29.8789 46.5627 33.3152 44.3485 35.6064C41.5635 38.4755 35.7857 37.9642 33.8645 34.298C32.6611 31.9997 34.1971 29.6081 35.1333 27.5281C36.1481 25.2875 36.4571 22.7911 36.0192 20.3706Z" fill="white"/>
<path d="M27.9045 6.17085C29.0962 8.54382 31.4785 9.7554 33.2294 8.87648C34.9802 7.99756 35.4354 5.3643 34.2472 2.9925C33.059 0.620693 30.6731 -0.592056 28.9223 0.285698C27.1715 1.16345 26.7151 3.79905 27.9045 6.17085Z" fill="white"/>
<path d="M35.1508 3.60291C35.5009 5.02342 36.639 5.96187 37.6848 5.70392C38.7306 5.44596 39.2967 4.08264 38.9454 2.66913C38.5941 1.25562 37.4584 0.308998 36.4114 0.568122C35.3644 0.827246 34.8006 2.18356 35.1508 3.60291Z" fill="white"/>
<path d="M39.6168 2.88324C39.5526 4.34344 40.3755 5.56786 41.4528 5.61222C42.5302 5.65657 43.457 4.51386 43.52 3.05249C43.583 1.59112 42.7613 0.367869 41.684 0.323514C40.6066 0.27916 39.6798 1.42187 39.6168 2.88324Z" fill="white"/>
<path d="M43.9566 3.82323C43.3893 5.17137 43.7383 6.60356 44.7328 7.02143C45.7273 7.43929 46.9914 6.69227 47.5622 5.33945C48.1329 3.98664 47.7828 2.55912 46.7883 2.14126C45.7938 1.72339 44.5262 2.47625 43.9566 3.82323Z" fill="white"/>
<path d="M47.5296 6.34801C46.6192 7.49306 46.5655 8.96493 47.4129 9.63726C48.2603 10.3096 49.682 9.92556 50.5913 8.78285C51.5005 7.64013 51.5542 6.16593 50.708 5.4936C49.8618 4.82128 48.4401 5.20413 47.5296 6.34801Z" fill="white"/>
</svg>
