<svg width="100" height="100" viewBox="0 0 100 100" fill="none" xmlns="http://www.w3.org/2000/svg">
<path d="M24.82 58.7112C24.839 58.716 24.8527 58.7417 24.8704 58.7591L24.9387 58.7158L24.82 58.7112Z" fill="#FF9E5E"/>
<path d="M22.8475 49.3072C23.2136 51.0643 23.1673 51.9506 22.7694 53.6096C22.5783 54.4052 22.1212 55.3727 21.7244 56.1561L21.866 56.2091C23.7652 56.9679 25.8632 56.8649 27.9122 56.6864C28.8279 56.5388 29.7742 56.3657 30.6014 55.9792L30.6858 55.9602C33.5728 52.4504 37.602 49.5237 41.6888 46.9703C50.1134 41.7136 59.2007 37.4825 68.8334 35.0157C69.0826 34.9521 69.3309 34.892 69.5795 34.8375C72.7999 34.091 76.1122 33.7931 79.411 33.44C80.8217 33.2832 82.2429 33.2411 83.6605 33.3142L84.1213 33.4194C84.3302 33.5515 84.4953 33.7424 84.596 33.9681L84.6419 34.3365C84.6013 34.5829 84.4873 34.8113 84.3148 34.9919L83.9924 35.1753C82.4213 35.371 80.3732 35.2503 78.5042 35.4546C74.3409 35.9075 70.2679 36.4981 66.0977 37.7771C57.245 40.4957 48.8276 44.5863 41.0847 49.6206C36.4585 52.627 32.144 56.2622 29.6067 61.2256C28.6373 63.1243 28.316 65.2484 27.9442 67.3817C27.8879 67.7212 27.8689 68.0659 27.8876 68.4095L27.8345 68.7747L27.645 69.0957L27.348 69.317C27.1148 69.401 26.8619 69.414 26.6214 69.3542L26.3009 69.163L26.0795 68.866L25.9866 68.5076C25.8734 66.2979 26.553 64.0236 27.2443 61.963C27.4802 61.265 27.763 60.5837 28.0908 59.9238C26.583 61.0542 24.8039 62.37 23.5484 63.2806L20.9629 65.053C20.1995 64.7223 18.1435 62.7885 18.3971 62.6355C19.3044 62.0883 20.8591 61.3229 21.7387 60.8186C22.2241 60.5403 22.708 60.2246 23.191 59.8976C22.1478 59.1809 21.0692 58.4939 19.9999 57.7853L19.5953 57.9218C18.563 58.3078 17.4616 58.4746 16.3613 58.4116C14.3352 58.2485 12.2609 57.2433 10.5444 55.9307C10.8714 58.3948 11.6791 61.1966 13.1455 64.4853C14.5198 67.5637 18.4471 75.3497 25.0935 79.6974C34.519 85.8613 43.7383 87.8587 54.7472 85.3864C59.0709 84.4166 65.6109 82.1839 69.5718 80.5611C72.7165 79.274 75.7271 77.5515 78.5126 75.6475C87.7062 69.3886 98.0448 58.6667 94.6187 46.9455C93.1432 41.8915 91.52 39.4663 88.4392 36.7873C86.9182 35.462 86.041 34.9339 85.6079 34.187C84.6327 32.5065 85.1746 30.3798 84.6887 28.7583C81.6628 18.705 72.0715 17.0484 67.8941 16.8859C58.8397 16.5368 42.5462 20.6768 34.5639 24.2599C31.2342 25.7564 27.9905 27.2713 25.0722 29.5053C22.0257 31.8358 18.3155 35.3489 16.1568 38.6925C17.772 40.0725 19.2021 41.6556 20.4113 43.4024C21.4379 44.9039 22.4751 47.517 22.8475 49.3072ZM43.2525 61.7657C42.7248 62.0466 42.2528 62.4215 41.8599 62.8721C41.1771 63.754 41.0365 64.8785 41.043 65.66C41.0376 66.0923 41.0886 66.5234 41.1945 66.9426C41.2173 67.0408 41.2441 67.1382 41.2748 67.2348L41.3221 67.3745C41.3266 67.3857 41.3304 67.3972 41.3336 67.4088L41.3477 67.4402L41.3661 67.4837L41.4107 67.5765C41.438 67.6289 41.4682 67.6798 41.5009 67.729C41.5591 67.8189 41.5979 67.9201 41.6147 68.0259C41.6314 68.1318 41.6258 68.2399 41.5983 68.3435C41.5712 68.4585 41.5207 68.5667 41.45 68.6614C41.3792 68.7562 41.2898 68.8353 41.1873 68.8941C40.9957 68.9964 40.7724 69.0219 40.5627 68.9653C40.353 68.9088 40.1727 68.7745 40.0586 68.5897C39.3484 67.5113 39.3256 65.9864 39.3754 65.173C39.4387 64.1267 39.7479 62.6333 40.8643 61.4653C41.4474 60.8935 42.1193 60.4199 42.854 60.0631C43.4759 59.7361 44.1433 59.5042 44.8341 59.3754C46.7459 59.0472 48.6581 59.741 50.0844 61.2767C50.1856 61.3812 50.2566 61.5111 50.2899 61.6527C50.3232 61.7944 50.3176 61.9424 50.2735 62.081C50.2311 62.2166 50.1569 62.3401 50.0573 62.4413C49.9401 62.5631 49.7899 62.6479 49.6251 62.6853C49.4887 62.7162 49.3465 62.7097 49.2135 62.6664C49.0805 62.6232 48.9616 62.5449 48.8694 62.4397C48.7612 62.3214 48.6481 62.2074 48.5298 62.0994C48.4672 62.0408 48.4025 61.9836 48.3372 61.928L48.2306 61.8397L48.2011 61.8321C48.0593 61.7292 47.889 61.6079 47.7142 61.5039C47.6274 61.4533 47.5383 61.4046 47.4468 61.3577L47.3114 61.2805L47.2516 61.2541C46.4901 60.9324 45.6433 60.8731 44.8444 61.0856C44.2821 61.2323 43.7445 61.4611 43.249 61.7648L43.2525 61.7657ZM51.2192 74.2286C47.7314 76.1687 44.0993 76.294 43.1082 74.5096C42.1172 72.7252 44.1372 69.7063 47.625 67.7661C51.1128 65.826 54.7422 65.7111 55.7355 67.4869C56.7288 69.2626 54.7031 72.2893 51.2157 74.2277L51.2192 74.2286ZM64.7362 59.1993C63.8034 59.788 62.5213 60.0098 61.4546 59.6511C61.208 60.567 60.609 61.3481 59.7884 61.8238C58.5129 62.5241 56.8635 62.3837 55.8907 61.2416C55.5954 60.8942 55.501 60.419 55.8393 60.0512C56.119 59.7534 56.734 59.6543 57.0297 59.9999C57.5422 60.6026 58.2979 60.7688 58.9965 60.3363C59.6951 59.9038 59.983 59.0629 59.9705 58.2614C59.9568 57.5944 60.8824 57.0409 61.382 57.6145C62.0115 58.3303 63.067 58.25 63.8302 57.7749C64.1757 57.5752 64.4508 57.2732 64.6174 56.9106C64.7291 56.6048 64.6292 56.2594 64.4756 55.8929C64.2975 55.4776 64.6306 54.9643 65.0317 54.8417C65.4976 54.697 65.9078 54.9778 66.085 55.3966C66.7067 56.8848 66.0564 58.3608 64.7327 59.1984L64.7362 59.1993ZM73.2992 45.054C72.71 45.3613 72.1797 45.7702 71.7327 46.2618C71.1545 46.9525 70.8231 47.9559 70.7992 49.0863C70.7807 49.5279 70.8221 49.97 70.9223 50.4004C70.9574 50.5585 71.002 50.7143 71.0558 50.8671L71.0878 50.9511C71.1045 50.9868 71.1199 51.0203 71.1375 51.0526C71.1635 51.1038 71.1927 51.1533 71.2252 51.2007C71.2836 51.2904 71.3226 51.3912 71.3398 51.4968C71.3569 51.6024 71.3518 51.7104 71.3248 51.8139C71.297 51.9287 71.2463 52.0367 71.1756 52.1313C71.105 52.226 71.0159 52.3053 70.9137 52.3645C70.7222 52.4667 70.4991 52.4923 70.2894 52.4361C70.0798 52.3799 69.8993 52.2462 69.7846 52.0619C69.5055 51.6068 69.3213 51.1001 69.2428 50.572C69.1181 49.9068 69.0859 49.2275 69.1471 48.5535C69.288 47.0244 69.8837 45.6821 70.8349 44.7619C71.4522 44.1894 72.1529 43.7143 72.9132 43.3528C73.5525 43.0224 74.2356 42.7851 74.942 42.648C76.8974 42.3014 78.8397 42.9715 80.2735 44.4851C80.3744 44.5871 80.4461 44.7141 80.4813 44.8531C80.5165 44.9921 80.5138 45.138 80.4736 45.2757C80.4318 45.4145 80.3568 45.5412 80.2551 45.6447C80.1375 45.7646 79.9877 45.8481 79.8238 45.8851C79.6867 45.9182 79.5431 45.9135 79.4084 45.8714C79.2738 45.8294 79.153 45.7516 79.059 45.6464C78.9499 45.5316 78.8359 45.421 78.7189 45.3153C78.6516 45.2536 78.5846 45.1976 78.5164 45.1395L78.3881 45.0419C78.2315 44.9294 78.0686 44.8259 77.9002 44.7319C77.8081 44.6806 77.7155 44.6309 77.6198 44.5861L77.4908 44.5271L77.4405 44.5142C77.2466 44.4383 77.0477 44.3761 76.8451 44.3282C76.6708 44.2818 76.4921 44.2539 76.312 44.245C75.8423 44.2062 75.3695 44.25 74.9149 44.3745C74.3461 44.5238 73.801 44.7522 73.2957 45.0531L73.2992 45.054ZM85.1284 51.2488C86.1213 53.0336 84.0995 56.0521 80.6117 57.9922C77.1239 59.9323 73.4945 60.0472 72.499 58.2728C71.5035 56.4983 73.5249 53.4668 77.014 51.5289C80.5031 49.591 84.1339 49.4635 85.125 51.2479L85.1284 51.2488Z" fill="#FF9E5E"/>
<path d="M24.82 58.7113L24.9389 58.7159C25.2026 58.5452 25.4667 58.3801 25.729 58.2293C26.1648 57.9715 28.0095 57.761 29.4077 57.6632C29.8035 57.081 30.2283 56.5123 30.6824 55.9574L30.5981 55.9764C29.7708 56.3629 28.8246 56.536 27.9089 56.6836C25.8594 56.8638 23.7618 56.9651 21.8627 56.2063L21.721 56.1533C21.6599 56.2762 21.5984 56.3935 21.5422 56.5047C22.5969 57.1911 23.6581 57.8736 24.6865 58.605C24.733 58.6378 24.7776 58.6733 24.82 58.7113Z" fill="#FB731D"/>
<path d="M29.4086 57.6627C28.0105 57.7605 26.1679 57.9771 25.73 58.2289C25.4677 58.3796 25.2036 58.5447 24.9398 58.7155L24.8714 58.7589C24.9762 58.8519 25.0614 58.9648 25.1219 59.0911C25.1825 59.2174 25.2173 59.3545 25.2242 59.4944C25.204 60.2506 24.2548 60.6151 23.5273 60.1013L23.2143 59.8806C22.7317 60.2058 22.2478 60.5216 21.762 60.8016C20.8801 61.3146 19.3277 62.0714 18.4204 62.6185C18.1668 62.7715 20.2228 64.7053 20.9862 65.036L23.5717 63.2636C24.8272 62.3531 26.6062 61.0372 28.1141 59.9068C28.4943 59.1303 28.9269 58.3806 29.4086 57.6627Z" fill="#70995F"/>
<path d="M16.3652 58.3989C17.4656 58.4619 18.567 58.295 19.5993 57.9091L20.0039 57.7726C17.146 55.9029 14.3378 53.9259 12.3994 50.9356C11.215 49.1133 10.2596 47.152 9.55464 45.0961C8.53455 42.0272 8.36886 38.747 6.65761 35.815C6.65761 35.815 6.32509 34.8926 6.92406 34.4955C7.42931 34.1613 8.06365 34.4404 8.44375 35.1127C10.3356 38.479 10.4425 42.622 11.9054 45.9172C12.8261 47.9903 13.8584 50.0533 15.4051 51.7252C17.1635 53.6233 19.331 55.0719 21.5325 56.5034C21.5888 56.3922 21.6503 56.2749 21.7114 56.152C22.1083 55.3686 22.5653 54.401 22.7564 53.6055C23.1543 51.9464 23.1988 51.0671 22.8345 49.303C22.4702 47.539 21.4284 44.9007 20.4044 43.3961C19.1977 41.6506 17.7706 40.0683 16.1585 38.6885C13.998 36.8092 11.5669 35.2209 9.09324 33.7695C8.33533 33.3237 5.98439 31.9777 5.32827 32.4894C4.67215 33.0012 5.33295 35.9649 5.16345 36.8418C4.94382 37.9644 4.75963 39.4677 4.5816 41.8762C4.27758 45.9932 5.88183 51.2151 8.72072 54.2682C9.28344 54.8676 9.89473 55.4194 10.5484 55.918C12.2648 57.2306 14.3392 58.2358 16.3652 58.3989Z" fill="#A7C69B"/>
<path d="M23.5218 60.1004C24.2494 60.6141 25.1985 60.2496 25.2188 59.4935C25.2122 59.354 25.1779 59.2172 25.118 59.0911C25.058 58.9649 24.9735 58.852 24.8695 58.7589C24.8518 58.7414 24.8358 58.7244 24.819 58.7108C24.7772 58.6711 24.7331 58.6338 24.6868 58.5993C23.6567 57.8749 22.5954 57.1924 21.5425 56.499C19.341 55.0676 17.1734 53.6189 15.415 51.7208C13.8632 50.0476 12.8308 47.9846 11.9153 45.9128C10.4525 42.6177 10.3455 38.4747 8.45369 35.1083C8.07186 34.4356 7.43929 34.1569 6.93404 34.4912C6.33418 34.8917 6.6676 35.8107 6.6676 35.8107C8.37885 38.7426 8.54498 42.0212 9.56463 45.0917C10.2696 47.1476 11.225 49.1089 12.4094 50.9313C14.3547 53.9233 17.1559 55.8986 20.0138 57.7683C21.0854 58.4682 22.164 59.1552 23.205 59.8805L23.5218 60.1004Z" fill="#70995F"/>
<path d="M28.1004 59.9013C27.7726 60.5612 27.4898 61.2425 27.2539 61.9406C26.5626 64.0012 25.8831 66.2755 25.9963 68.4852L26.0892 68.8435L26.3105 69.1406L26.6311 69.3318C26.8716 69.3915 27.1245 69.3786 27.3576 69.2946L27.6547 69.0733L27.8442 68.7523L27.8973 68.387C27.8786 68.0434 27.8976 67.6988 27.9539 67.3593C28.3256 65.226 28.6469 63.1018 29.6163 61.2031C32.1519 56.2393 36.4646 52.611 41.0943 49.5982C48.8533 44.5662 57.2552 40.4716 66.1074 37.7547C70.2776 36.4756 74.3489 35.8846 78.5139 35.4321C80.3829 35.2278 82.431 35.3485 84.0021 35.1528L84.3245 34.9694C84.497 34.7889 84.611 34.5605 84.6516 34.3141L84.6057 33.9457C84.505 33.72 84.3399 33.5291 84.131 33.397L83.6701 33.2917C82.2526 33.2187 80.8314 33.2608 79.4207 33.4176C76.1219 33.7707 72.8096 34.0686 69.5892 34.8151C69.3397 34.873 69.0914 34.9332 68.8431 34.9933C59.2117 37.4696 50.1209 41.6998 41.6962 46.9565C37.6094 49.5099 33.5767 52.4505 30.6932 55.9464C30.2371 56.4996 29.8122 57.0682 29.4185 57.6522C28.9285 58.3711 28.4881 59.1225 28.1004 59.9013Z" fill="#FB731D"/>
<path d="M47.2495 61.2637L47.3093 61.2901L47.4491 61.3574C47.5406 61.4043 47.6297 61.453 47.7165 61.5036C47.893 61.608 48.0616 61.7289 48.2033 61.8318L48.2328 61.8393L48.3395 61.9277C48.4047 61.9832 48.4695 62.0405 48.5321 62.0991C48.6504 62.207 48.7634 62.321 48.8717 62.4394C48.9639 62.5445 49.0828 62.6229 49.2158 62.6661C49.3488 62.7093 49.4909 62.7158 49.6273 62.685C49.7921 62.6475 49.9423 62.5627 50.0595 62.441C50.1592 62.3398 50.2333 62.2163 50.2758 62.0807C50.3198 61.942 50.3255 61.794 50.2922 61.6524C50.2589 61.5108 50.1879 61.3808 50.0867 61.2763C48.6617 59.7354 46.7495 59.0416 44.8363 59.375C44.1456 59.5039 43.4781 59.7357 42.8562 60.0627C42.1216 60.4195 41.4496 60.8931 40.8665 61.465C39.7501 62.633 39.4444 64.1272 39.3776 65.1727C39.3279 65.986 39.3506 67.5109 40.0608 68.5894C40.175 68.7741 40.3552 68.9085 40.5649 68.965C40.7746 69.0215 40.9979 68.9961 41.1895 68.8937C41.2921 68.835 41.3815 68.7558 41.4522 68.6611C41.5229 68.5664 41.5734 68.4582 41.6006 68.3431C41.6281 68.2396 41.6337 68.1314 41.6169 68.0256C41.6001 67.9198 41.5614 67.8186 41.5032 67.7286C41.4704 67.6795 41.4403 67.6285 41.413 67.5761L41.3684 67.4834L41.35 67.4398L41.3358 67.4085C41.3327 67.3968 41.3289 67.3853 41.3243 67.3741L41.277 67.2345C41.2463 67.1379 41.2196 67.0405 41.1967 66.9422C41.0908 66.5231 41.0399 66.0919 41.0452 65.6597C41.0397 64.8747 41.1794 63.7536 41.8621 62.8717C42.2551 62.4212 42.727 62.0463 43.2547 61.7654C43.7507 61.463 44.2886 61.2354 44.8509 61.0901C45.6477 60.8812 46.4911 60.9422 47.2495 61.2637Z" fill="#242424"/>
<path d="M76.858 44.3247C77.0606 44.3726 77.2595 44.4348 77.4534 44.5107L77.5037 44.5236L77.6326 44.5826C77.7283 44.6274 77.821 44.6771 77.9131 44.7284C78.0815 44.8224 78.2443 44.9259 78.4009 45.0384L78.5293 45.136C78.5975 45.1941 78.6645 45.2501 78.7318 45.3118C78.8488 45.4175 78.9628 45.5281 79.0719 45.6429C79.1659 45.7481 79.2867 45.8259 79.4214 45.8679C79.556 45.91 79.6996 45.9147 79.8368 45.8817C80.0007 45.8447 80.1504 45.7611 80.2681 45.6412C80.3697 45.5377 80.4447 45.4111 80.4865 45.2722C80.5267 45.1345 80.5293 44.9887 80.4942 44.8497C80.459 44.7106 80.3873 44.5836 80.2865 44.4816C78.8526 42.968 76.9104 42.2979 74.9549 42.6445C74.2486 42.7816 73.5654 43.0189 72.9261 43.3493C72.1658 43.7108 71.465 44.1859 70.8478 44.7584C69.8983 45.6791 69.3009 47.0209 69.16 48.55C69.0988 49.224 69.131 49.9033 69.2557 50.5686C69.3342 51.0966 69.5184 51.6034 69.7975 52.0584C69.9122 52.2427 70.0927 52.3764 70.3023 52.4326C70.5119 52.4888 70.7351 52.4632 70.9266 52.361C71.0288 52.3018 71.1179 52.2225 71.1885 52.1279C71.2592 52.0332 71.3099 51.9252 71.3377 51.8104C71.3647 51.7069 71.3698 51.5989 71.3527 51.4933C71.3355 51.3877 71.2965 51.2869 71.2381 51.1972C71.2056 51.1498 71.1764 51.1003 71.1504 51.0491C71.1328 51.0168 71.1174 50.9833 71.1007 50.9476L71.0687 50.8636C71.0149 50.7109 70.9703 50.555 70.9352 50.3969C70.835 49.9665 70.7936 49.5244 70.8121 49.0829C70.836 47.9525 71.1726 46.9577 71.7456 46.2583C72.1926 45.7667 72.7229 45.3578 73.312 45.0505C73.8217 44.7445 74.3722 44.5124 74.947 44.3612C75.4016 44.2367 75.8744 44.1928 76.344 44.2317C76.5181 44.2451 76.6903 44.2763 76.858 44.3247Z" fill="#242424"/>
<path d="M65.0265 54.844C64.6255 54.9666 64.2937 55.4747 64.4704 55.8952C64.624 56.2617 64.7239 56.607 64.6122 56.9129C64.4456 57.2755 64.1705 57.5775 63.825 57.7772C63.0705 58.2545 62.0046 58.3396 61.3769 57.6168C60.8772 57.0432 59.9551 57.5976 59.9654 58.2637C59.9778 59.0652 59.7048 59.8988 58.9914 60.3386C58.2779 60.7784 57.537 60.6049 57.0245 60.0022C56.7288 59.6565 56.1156 59.7487 55.8342 60.0535C55.4959 60.4213 55.5902 60.8965 55.8855 61.2439C56.8584 62.386 58.5129 62.5277 59.7833 61.8261C60.6038 61.3504 61.2028 60.5693 61.4495 59.6534C62.517 60.0086 63.7992 59.7868 64.731 59.2016C66.0547 58.364 66.705 56.888 66.0755 55.4014C65.9027 54.9801 65.4924 54.6993 65.0265 54.844Z" fill="#242424"/>
<path d="M47.6209 67.7642C44.1331 69.7044 42.1114 72.7228 43.1042 74.5077C44.097 76.2925 47.7274 76.1668 51.2152 74.2267C54.703 72.2866 56.7247 69.2681 55.7314 67.485C54.7382 65.7019 51.1083 65.8259 47.6209 67.7642Z" fill="#DD6057"/>
<path d="M80.6055 57.9779C84.0926 56.0385 86.115 53.0199 85.1227 51.2358C84.1304 49.4517 80.4992 49.5776 77.0121 51.517C73.5251 53.4564 71.5027 56.4749 72.495 58.259C73.4873 60.0431 77.1185 59.9173 80.6055 57.9779Z" fill="#DD6057"/>
<path d="M81.7769 16.5517C79.7483 15.3994 78.3654 13.8794 77.2482 11.6844C76.3234 9.8764 75.8117 8.65054 75.2049 5.36112C75.1922 5.28752 75.1606 5.21842 75.1131 5.16046C75.0655 5.1025 75.0036 5.05766 74.9334 5.03027C74.8632 5.00288 74.7871 4.99386 74.7124 5.0041C74.6376 5.01434 74.5668 5.04348 74.5068 5.0887C74.3994 5.18427 74.3313 5.31555 74.3155 5.45755C74.1936 6.13135 73.593 10.2055 71.3438 12.8271C70.3094 14.0325 68.7572 15.1764 67.2427 15.9394C67.1558 15.9829 67.086 16.0537 67.0441 16.1407C66.9988 16.2319 66.988 16.3363 67.0137 16.4348C67.0495 16.5465 67.1142 16.647 67.2013 16.7265C67.7057 17.2375 70.6895 19.7483 72.1333 22.8461C73.2969 25.3388 73.7648 27.2951 73.9329 27.6759C73.9622 27.7566 74.0118 27.8285 74.077 27.8848C74.1423 27.9411 74.221 27.98 74.3057 27.9978C74.4201 28.0086 74.5348 27.9799 74.6302 27.9166C74.7257 27.8533 74.7962 27.7594 74.8296 27.6506C74.9868 27.2324 75.5607 25.029 76.2527 23.6862C77.8549 20.5523 78.8491 19.9749 81.8573 17.2484C81.9082 17.202 81.9474 17.1445 81.9717 17.0804C81.9961 17.0164 82.0049 16.9476 81.9974 16.8795C81.9896 16.8115 81.9655 16.7463 81.9272 16.6893C81.8888 16.6323 81.8373 16.5851 81.7769 16.5517Z" fill="#FFD79B"/>
<path d="M28.648 37.202C27.4308 36.6604 26.1864 35.8871 25.3803 35.1013C23.6571 33.427 23.2879 30.9632 23.2153 30.5555C23.2029 30.463 23.1712 30.3741 23.1222 30.2948C23.0732 30.2156 23.008 30.1477 22.931 30.0957C22.8576 30.0473 22.7743 30.0163 22.6874 30.0049C22.6004 29.9935 22.512 30.0021 22.4288 30.03C22.3336 30.0564 22.247 30.1077 22.1779 30.1787C22.1087 30.2496 22.0594 30.3377 22.0349 30.434C21.4503 32.3835 21.0023 33.0936 20.2023 34.1384C19.2324 35.4013 18.0718 36.2452 16.4003 36.8339C16.2981 36.8703 16.2076 36.9339 16.1384 37.0179C16.0691 37.102 16.0238 37.2033 16.0071 37.3112C15.9905 37.4191 16.0031 37.5295 16.0438 37.6307C16.0844 37.7319 16.1515 37.8202 16.2379 37.8861C18.6244 39.703 19.4293 40.0983 20.6515 42.0924C21.1758 42.9488 21.582 44.3232 21.6989 44.5896C21.7387 44.7013 21.8096 44.7992 21.903 44.8716C21.9965 44.9439 22.1086 44.9877 22.2261 44.9978C22.3435 45.0078 22.4614 44.9837 22.5656 44.9283C22.6698 44.8728 22.7561 44.7884 22.814 44.685C22.9654 44.457 23.4122 43.2673 24.4559 41.7813C25.7273 39.9682 28.2456 38.6 28.6726 38.3112C28.8 38.2371 28.899 38.122 28.9534 37.9844C29.0079 37.8468 29.0148 37.6947 28.973 37.5527C28.9471 37.4742 28.9046 37.4021 28.8485 37.3416C28.7925 37.2811 28.7241 37.2335 28.648 37.202Z" fill="#FFD79B"/>
<path d="M41.6481 71.2015C40.4297 70.6599 39.1867 69.8865 38.3806 69.1008C36.6576 67.4276 36.2884 64.9624 36.2146 64.5546C36.2031 64.462 36.1717 64.373 36.1226 64.2938C36.0735 64.2146 36.0079 64.1472 35.9303 64.0961C35.8573 64.0474 35.7742 64.0162 35.6874 64.0048C35.6006 63.9935 35.5124 64.0022 35.4294 64.0304C35.3341 64.0564 35.2473 64.1074 35.1779 64.1781C35.1085 64.2489 35.059 64.3369 35.0344 64.4332C34.4498 66.3828 34.0018 67.0929 33.2019 68.1378C32.2321 69.4007 31.0728 70.2447 29.4003 70.8334C29.2981 70.8699 29.2076 70.9334 29.1383 71.0175C29.0691 71.1015 29.0238 71.2028 29.0071 71.3107C28.9905 71.4186 29.0031 71.529 29.0437 71.6302C29.0844 71.7315 29.1514 71.8197 29.2378 71.8857C31.6254 73.7026 32.429 74.098 33.6523 76.0934C34.1766 76.9486 34.5827 78.3244 34.6996 78.5896C34.7394 78.7013 34.8103 78.7992 34.9037 78.8715C34.9971 78.9439 35.1093 78.9877 35.2267 78.9978C35.3441 79.0078 35.462 78.9837 35.5662 78.9283C35.6704 78.8728 35.7567 78.7884 35.8146 78.685C35.966 78.457 36.4127 77.2672 37.4564 75.7811C38.7276 73.9679 41.2444 72.5996 41.6727 72.3108C41.8001 72.2367 41.899 72.1216 41.9534 71.984C42.0079 71.8464 42.0148 71.6943 41.973 71.5523C41.9465 71.474 41.9039 71.4023 41.8479 71.3418C41.7918 71.2814 41.7238 71.2336 41.6481 71.2015Z" fill="#FFD79B"/>
</svg>
