<svg width="36" height="33" viewBox="0 0 36 33" fill="none" xmlns="http://www.w3.org/2000/svg">
<path d="M11.1282 19.2351V20.4079C11.1226 20.5022 11.1363 20.5967 11.1685 20.6856C11.2008 20.7744 11.2508 20.8558 11.3156 20.9246C11.3805 20.9934 11.4587 21.0482 11.5455 21.0857C11.6322 21.1231 11.7258 21.1425 11.8203 21.1425C11.9148 21.1425 12.0083 21.1231 12.0951 21.0857C12.1819 21.0482 12.2601 20.9934 12.3249 20.9246C12.3897 20.8558 12.4398 20.7744 12.472 20.6856C12.5043 20.5967 12.518 20.5022 12.5124 20.4079V19.2351C12.518 19.1407 12.5043 19.0462 12.472 18.9574C12.4398 18.8685 12.3897 18.7872 12.3249 18.7184C12.2601 18.6496 12.1819 18.5948 12.0951 18.5573C12.0083 18.5198 11.9148 18.5005 11.8203 18.5005C11.7258 18.5005 11.6322 18.5198 11.5455 18.5573C11.4587 18.5948 11.3805 18.6496 11.3156 18.7184C11.2508 18.7872 11.2008 18.8685 11.1685 18.9574C11.1363 19.0462 11.1226 19.1407 11.1282 19.2351Z" fill="#FF7976"/>
<path d="M23.6377 19.2348V20.4076C23.6377 20.5915 23.7107 20.7678 23.8408 20.8979C23.9708 21.0279 24.1471 21.1009 24.331 21.1009C24.5149 21.1009 24.6913 21.0279 24.8213 20.8979C24.9513 20.7678 25.0244 20.5915 25.0244 20.4076V19.2348C25.0244 19.051 24.9513 18.8746 24.8213 18.7446C24.6913 18.6146 24.5149 18.5415 24.331 18.5415C24.1471 18.5415 23.9708 18.6146 23.8408 18.7446C23.7107 18.8746 23.6377 19.051 23.6377 19.2348Z" fill="#FF7976"/>
<path d="M4.72487 22.8857C5.61639 25.708 7.38412 28.1728 9.77149 29.9223C12.1589 31.6719 15.0416 32.6151 18.0014 32.6151C20.9612 32.6151 23.844 31.6719 26.2314 29.9223C28.6188 28.1728 30.3865 25.708 31.278 22.8857C32.314 22.7912 33.2781 22.3159 33.9838 21.5516C34.6895 20.7873 35.0865 19.7884 35.0982 18.7482C35.1098 17.708 34.7351 16.7004 34.0467 15.9206C33.3583 15.1407 32.4051 14.6439 31.3714 14.5263H31.2731C30.6871 12.6744 29.7235 10.9641 28.4432 9.50336C28.3833 9.43393 28.3103 9.37708 28.2283 9.33607C28.1463 9.29507 28.0569 9.27074 27.9655 9.26449C27.874 9.25825 27.7822 9.2702 27.6954 9.29967C27.6085 9.32914 27.5284 9.37554 27.4597 9.43618C27.3909 9.49682 27.3348 9.5705 27.2947 9.65295C27.2546 9.7354 27.2313 9.82499 27.226 9.91653C27.2208 10.0081 27.2337 10.0997 27.2642 10.1862C27.2946 10.2727 27.3418 10.3523 27.4032 10.4204C28.4906 11.6554 29.3258 13.0912 29.8619 14.6468C29.2036 14.8129 28.5953 15.136 28.0892 15.5885C28.021 15.6496 27.9657 15.7236 27.9263 15.8062C27.8869 15.8889 27.8643 15.9785 27.8597 16.0699C27.8551 16.1614 27.8687 16.2528 27.8997 16.339C27.9306 16.4251 27.9783 16.5043 28.04 16.5719C28.1045 16.6443 28.1837 16.7021 28.2723 16.7415C28.3609 16.781 28.4569 16.8011 28.5539 16.8006C28.7252 16.8003 28.8905 16.7374 29.0185 16.6235C29.508 16.1838 30.1362 15.9297 30.7937 15.9056C30.9372 15.898 31.0811 15.9021 31.2239 15.9179C31.9365 16.0025 32.59 16.3558 33.051 16.9057C33.512 17.4557 33.7458 18.1608 33.7047 18.8772C33.6636 19.5936 33.3507 20.2673 32.8299 20.761C32.309 21.2546 31.6194 21.5308 30.9018 21.5334H30.865C30.6985 21.5071 30.528 21.5425 30.3859 21.6331C30.2437 21.7237 30.1395 21.8631 30.093 22.0251C29.3641 24.6721 27.7867 27.0067 25.6028 28.6705C23.4189 30.3343 20.7494 31.2353 18.0039 31.2353C15.2584 31.2353 12.5889 30.3343 10.405 28.6705C8.22114 27.0067 6.64369 24.6721 5.91484 22.0251C5.86951 21.8694 5.77067 21.7347 5.63573 21.6448C5.50079 21.5548 5.33842 21.5154 5.17726 21.5334C5.15596 21.5322 5.13462 21.5322 5.11333 21.5334C4.39574 21.5308 3.70618 21.2546 3.18532 20.761C2.66447 20.2673 2.35157 19.5936 2.31048 18.8772C2.26939 18.1608 2.5032 17.4557 2.9642 16.9057C3.4252 16.3558 4.07866 16.0025 4.79125 15.9179C4.9341 15.9021 5.078 15.898 5.22151 15.9056C5.87987 15.9292 6.50903 16.1833 6.9991 16.6235C7.1269 16.7378 7.29237 16.8008 7.46378 16.8006C7.56075 16.8011 7.65672 16.781 7.74531 16.7415C7.83391 16.7021 7.9131 16.6443 7.97763 16.5719C8.03919 16.5041 8.08671 16.4248 8.11745 16.3386C8.1482 16.2523 8.16156 16.1609 8.15675 16.0694C8.15195 15.978 8.12909 15.8884 8.08949 15.8059C8.04988 15.7233 7.99432 15.6494 7.926 15.5885C7.41993 15.134 6.81059 14.8099 6.15087 14.6443C6.96292 12.2875 8.45815 10.2256 10.4461 8.72152L10.51 8.78544C10.969 9.20017 11.5076 9.51709 12.093 9.71688C12.6784 9.91667 13.2984 9.99514 13.9152 9.94753C14.5319 9.89991 15.1325 9.72719 15.6803 9.4399C16.2282 9.15261 16.7117 8.75677 17.1016 8.27651C17.6909 8.46999 18.3267 8.46999 18.9161 8.27651C19.3431 8.79871 19.8816 9.21875 20.492 9.50582C21.028 10.2631 21.2616 11.1679 21.2616 12.4955C21.2616 13.3432 20.9248 14.1562 20.3254 14.7556C19.726 15.355 18.9131 15.6917 18.0654 15.6917C16.8656 15.6917 15.651 14.9541 15.651 13.5306C15.651 13.055 15.8398 12.5989 16.1758 12.2623C16.5119 11.9258 16.9678 11.7364 17.4433 11.7358C18.1563 11.7358 18.5497 12.1292 18.5497 12.8422C18.5497 13.0261 18.6228 13.2024 18.7528 13.3324C18.8828 13.4625 19.0592 13.5355 19.2431 13.5355C19.4269 13.5355 19.6033 13.4625 19.7333 13.3324C19.8633 13.2024 19.9364 13.0261 19.9364 12.8422C19.9364 11.3522 18.9357 10.3491 17.4433 10.3491C16.605 10.3575 15.8035 10.6949 15.2117 11.2886C14.6198 11.8824 14.2848 12.6849 14.2791 13.5232C14.2791 15.5467 15.9141 17.071 18.0801 17.071C19.2905 17.0645 20.4491 16.5795 21.3031 15.7218C22.1571 14.8641 22.6371 13.7034 22.6384 12.4931C22.6585 11.6266 22.5287 10.7633 22.2549 9.941C22.3188 9.941 22.3803 9.941 22.4442 9.941C23.6564 9.941 24.8189 9.45946 25.6761 8.6023C26.5332 7.74515 27.0148 6.58261 27.0148 5.37041C27.0148 4.15822 26.5332 2.99567 25.6761 2.13852C24.8189 1.28137 23.6564 0.799828 22.4442 0.799828C21.7654 0.797655 21.0948 0.948102 20.4819 1.24004C19.8691 1.53199 19.3298 1.95795 18.9038 2.48645C18.3143 2.30454 17.6837 2.30454 17.0942 2.48645C16.6682 1.95795 16.1289 1.53199 15.516 1.24004C14.9032 0.948102 14.2326 0.797655 13.5538 0.799828C12.342 0.80113 11.1802 1.28309 10.3233 2.13996C9.46647 2.99683 8.98451 4.15862 8.98321 5.37041C8.98207 6.15732 9.18812 6.93066 9.58065 7.61268C7.28857 9.35108 5.58996 11.7556 4.71749 14.4968H4.62653C3.59292 14.6141 2.63955 15.1106 1.95093 15.8903C1.2623 16.67 0.887367 17.6774 0.898687 18.7176C0.910006 19.7577 1.30677 20.7567 2.0122 21.5212C2.71763 22.2857 3.68158 22.7614 4.71749 22.8562L4.72487 22.8857ZM22.4516 2.19633C22.9298 2.1871 23.404 2.28533 23.8392 2.48376C24.2744 2.6822 24.6595 2.97579 24.9662 3.34288C25.2728 3.70997 25.4932 4.14121 25.611 4.60479C25.7288 5.06838 25.741 5.55249 25.6468 6.02144C25.5526 6.49039 25.3544 6.93221 25.0667 7.31434C24.779 7.69647 24.4092 8.00916 23.9846 8.22935C23.5599 8.44954 23.0913 8.57162 22.6132 8.58659C22.1352 8.60156 21.6598 8.50904 21.2222 8.31585C20.8054 8.13925 20.4308 7.87611 20.1232 7.54384C20.4126 7.26268 20.6426 6.92633 20.7997 6.5547C20.9568 6.18307 21.0377 5.78371 21.0377 5.38025C21.0377 4.97679 20.9568 4.57742 20.7997 4.20579C20.6426 3.83416 20.4126 3.49782 20.1232 3.21666C20.4193 2.89437 20.7792 2.63723 21.1801 2.46157C21.5809 2.28591 22.0139 2.19558 22.4516 2.19633ZM18.8152 3.94687C19.0697 4.08894 19.2816 4.29634 19.4291 4.54767C19.5767 4.79899 19.6544 5.08514 19.6544 5.37656C19.6544 5.66798 19.5767 5.95413 19.4291 6.20545C19.2816 6.45678 19.0697 6.66418 18.8152 6.80625H18.8005L18.7587 6.83084C18.5179 6.95282 18.2507 7.0133 17.9808 7.00686C17.711 7.00043 17.4469 6.92728 17.2122 6.79396C16.9585 6.65066 16.7475 6.44256 16.6006 6.19093C16.4537 5.93929 16.3763 5.65316 16.3763 5.36181C16.3763 5.07045 16.4537 4.78432 16.6006 4.53269C16.7475 4.28106 16.9585 4.07295 17.2122 3.92966C17.4592 3.79713 17.7357 3.72921 18.016 3.73222C18.2962 3.73522 18.5712 3.80907 18.8152 3.94687ZM13.5612 2.19633C13.998 2.19626 14.43 2.28692 14.83 2.46256C15.2299 2.6382 15.589 2.89499 15.8846 3.21666C15.5965 3.4983 15.3676 3.83467 15.2113 4.206C15.0551 4.57733 14.9746 4.97614 14.9746 5.37902C14.9746 5.78189 15.0551 6.18071 15.2113 6.55204C15.3676 6.92337 15.5965 7.25974 15.8846 7.54138C15.5895 7.86386 15.2306 8.12134 14.8306 8.29744C14.4305 8.47353 13.9982 8.56437 13.5612 8.56417C12.7758 8.56183 12.0187 8.27039 11.4345 7.74545C11.3053 7.62505 11.1853 7.4952 11.0755 7.35698C10.6253 6.80016 10.3789 6.10616 10.3772 5.39008C10.3779 4.54494 10.7132 3.73446 11.3099 3.13594C11.9066 2.53742 12.716 2.19958 13.5612 2.19633Z" fill="#FF7976"/>
<path d="M20.8474 24.0145C20.5312 24.4754 20.1076 24.8524 19.613 25.1129C19.1185 25.3734 18.5679 25.5095 18.0089 25.5095C17.45 25.5095 16.8994 25.3734 16.4049 25.1129C15.9103 24.8524 15.4866 24.4754 15.1705 24.0145C15.0641 23.8701 14.9058 23.7725 14.729 23.7423C14.5522 23.7121 14.3706 23.7516 14.2223 23.8525C14.074 23.9534 13.9706 24.1078 13.9337 24.2833C13.8969 24.4589 13.9295 24.6419 14.0247 24.7939C14.4663 25.4439 15.0602 25.9761 15.7547 26.3439C16.4492 26.7117 17.2231 26.904 18.0089 26.904C18.7948 26.904 19.5687 26.7117 20.2632 26.3439C20.9576 25.9761 21.5516 25.4439 21.9931 24.7939C22.0884 24.6419 22.121 24.4589 22.0841 24.2833C22.0473 24.1078 21.9439 23.9534 21.7956 23.8525C21.6473 23.7516 21.4656 23.7121 21.2888 23.7423C21.112 23.7725 20.9538 23.8701 20.8474 24.0145Z" fill="#FF7976"/>
</svg>
