<svg width="360" height="318" viewBox="0 0 360 318" fill="none" xmlns="http://www.w3.org/2000/svg">
<rect x="-1" y="-15" width="361" height="333" fill="#FFD3C5"/>
<path d="M61.8201 231.025C36.2111 202.979 -27.5446 184.053 -56.2214 178.095C-151.255 153.349 -157.257 19.3074 -72.2269 -30.8723C2.38037 -74.9012 58.56 -84.3751 184.863 -92.0504C331.915 -100.986 428.964 -44.505 449.957 -21.2487C498.974 33.0554 493.972 123.104 441.954 178.095C389.935 233.087 319.911 273.643 239.883 284.641C159.855 295.64 93.8313 266.082 61.8201 231.025Z" fill="white" fill-opacity="0.26"/>
<path d="M132.95 143.244C12.7576 143.244 -32.6486 113.295 -77.387 95.9207C-137.483 42.4253 -72.379 -22.0436 -42.3308 -48.7913C-12.2826 -75.5391 132.95 -104.344 276.18 -94.0567C419.41 -83.7691 473.497 10.1908 419.41 43.797C365.323 77.4031 214.08 143.244 132.95 143.244Z" fill="white" fill-opacity="0.28"/>
<circle cx="306.5" cy="81.5" r="16.5" fill="white" fill-opacity="0.31"/>
<circle cx="313.5" cy="224.5" r="21.5" fill="white" fill-opacity="0.31"/>
<circle cx="54.5" cy="86.5" r="25.5" fill="white" fill-opacity="0.31"/>
<circle cx="116" cy="256" r="29" fill="white" fill-opacity="0.31"/>
</svg>
