<svg width="93" height="69" viewBox="0 0 93 69" fill="none" xmlns="http://www.w3.org/2000/svg">
<path d="M43.8874 48.6756C53.5022 53.7972 64.428 55.9291 75.2629 54.7977C65.7817 39.3732 67.4812 19.1088 76.5748 3.51545C64.8574 -0.936954 50.3871 3.07817 42.8339 12.8675C35.2807 22.6568 32.8657 42.7523 43.8874 48.6756Z" fill="#5A77B0"/>
<path d="M55.4375 29.5442C54.8511 36.0439 56.1233 42.9014 60.0589 48.0992C63.9945 53.297 70.8719 56.4773 77.2225 54.9965C81.8439 53.9231 85.7199 50.5739 88.1548 46.519C90.4858 42.3664 91.9244 37.773 92.3786 33.0326C93.1339 27.1292 93.0047 20.9574 90.7884 15.4317C88.5722 9.9059 84.0204 5.05597 78.2462 3.70434C62.9907 0.0171924 56.4711 17.9759 55.4375 29.5442Z" fill="#8EA4DB"/>
<path d="M43.9685 2.87976C37.0117 5.583 32.281 14.3785 30.492 21.5838C28.7031 28.7892 28.077 36.3623 24.9762 43.1204C22.7168 47.8755 19.3337 52.009 15.1191 55.1639C10.9045 58.3187 5.9852 60.4001 0.786133 61.2282C2.89439 61.8127 4.96259 62.533 6.97776 63.3848C13.3454 65.6462 19.8437 67.5214 26.4372 69C36.0377 67.5391 43.7101 57.9485 48.0334 48.7157C51.0944 42.1663 52.1081 34.9013 53.6386 27.845C55.1691 20.7888 57.3755 13.5735 62.3447 8.28622C66.9561 3.31702 74.5888 2.02504 80.8301 4.57922C69.4009 -0.608635 55.5965 -1.68198 43.9685 2.87976Z" fill="#8EA4DB"/>
<path d="M64.1831 6.93437C63.07 7.66981 62.3445 9.19038 63.4178 8.41518C79.3193 -3.02393 87.429 15.869 87.1011 32.3568C86.9719 38.5385 84.4078 45.6544 78.3851 48.5266C71.9351 51.6075 64.839 47.0458 62.255 40.9933C59.5518 34.7023 61.619 26.8907 65.0279 21.2755C66.5882 18.7014 69.8877 14.3186 73.4258 14.9447C77.3415 15.6603 79.0112 19.1089 79.9156 22.5476C80.6965 25.3555 80.9725 28.2797 80.7306 31.1841C80.6557 33.4141 79.968 35.5805 78.7429 37.4453C77.3614 39.2342 74.3302 40.7945 72.0742 39.8206C67.105 37.6639 67.592 28.7591 69.3511 24.7142C69.6627 23.8987 70.1554 23.1647 70.7921 22.5675C71.1106 22.2701 71.4983 22.057 71.9201 21.9477C72.3419 21.8383 72.7843 21.8362 73.2072 21.9414C74.4197 22.319 74.9961 23.7005 75.2545 24.9229C75.577 26.523 75.6274 28.1659 75.4036 29.7828C75.3946 29.964 75.3361 30.1393 75.2346 30.2896C74.8371 30.8064 74.0221 30.2897 73.7538 29.6834C73.4855 29.0772 73.2469 28.3318 72.6109 28.2324C72.3796 28.2124 72.1486 28.274 71.958 28.4065C71.7674 28.5391 71.6292 28.7341 71.5673 28.9579C71.4335 29.3985 71.4335 29.8689 71.5673 30.3095C71.7484 31.1818 72.1842 31.9808 72.8196 32.6053C73.1395 32.9133 73.5339 33.1329 73.9643 33.2427C74.3946 33.3524 74.846 33.3485 75.2744 33.2314C76.6558 32.7742 77.1428 31.0847 77.2621 29.6337C77.6012 27.4617 77.2538 25.2381 76.2682 23.2731C75.175 21.3749 72.8792 20.0531 70.7822 20.6593C69.043 21.1662 67.8802 22.806 67.1547 24.4657C66.2989 26.461 65.8718 28.6138 65.9009 30.7846C65.93 32.9555 66.4147 35.096 67.3236 37.0676C68.2222 39.2517 69.9268 41.0062 72.0841 41.9673C77.7291 44.0842 81.0287 38.5087 82.1418 33.8277C83.4914 28.3342 82.7844 22.5368 80.1541 17.5287C78.6236 14.7857 76.1787 12.7881 72.8593 12.8875C65.2664 13.126 60.8836 23.1042 59.5021 29.3256C57.6933 37.4055 60.2773 46.4097 68.1585 50.1963C75.2346 53.6151 82.6189 49.9677 86.1768 43.3785C94.3164 28.5504 84.5668 -6.60175 64.1831 6.93437Z" fill="#5A77B0"/>
<path d="M6.97776 63.3844C13.3454 65.6459 19.8437 67.5211 26.4372 68.9997C28.7534 68.6261 30.9806 67.8276 33.0065 66.6442C29.8696 65.4768 26.6713 64.4814 23.4258 63.6627C24.6781 63.0266 24.7973 61.1185 23.9128 60.0253C23.4244 59.5201 22.8343 59.1242 22.1816 58.8638C21.5289 58.6034 20.8284 58.4844 20.1263 58.5146C17.8792 58.6161 15.7148 59.3919 13.9148 60.7408C12.1324 60.2195 10.3805 59.599 8.6673 58.8823C6.15206 59.9935 3.50266 60.7719 0.786133 61.198C2.8951 61.7922 4.96331 62.5226 6.97776 63.3844Z" fill="#C2D3F5"/>
<path d="M26.8266 38.1409C26.6974 38.5782 26.5583 39.0254 26.4092 39.4627C33.8846 42.044 41.5202 44.1354 49.2675 45.7239C49.4265 45.2866 49.5756 44.8592 49.7247 44.422C41.9628 42.8315 34.3136 40.7333 26.8266 38.1409Z" fill="#5A77B0"/>
<path d="M30.1544 22.9651C30.055 23.4123 29.9557 23.8596 29.8662 24.3068C37.638 26.1752 45.4397 27.9376 53.2712 29.594C53.3705 29.1468 53.46 28.6996 53.5494 28.2523C45.7246 26.6026 37.9263 24.8401 30.1544 22.9651Z" fill="#5A77B0"/>
<path d="M42.0006 58.5942C42.3087 58.2066 42.6068 57.809 42.905 57.4115C35.1861 55.5626 27.5886 53.2393 20.156 50.4546C19.828 50.8322 19.4901 51.2 19.1621 51.5577C26.6238 54.3682 34.251 56.7181 42.0006 58.5942Z" fill="#5A77B0"/>
<path d="M49.7226 1.12036C48.2019 1.46941 46.7021 1.90408 45.2305 2.42229C52.724 2.47198 60.1977 2.85958 67.4031 4.71806C68.1464 4.39083 68.9139 4.12169 69.6988 3.91305C63.1887 2.1231 56.474 1.18439 49.7226 1.12036Z" fill="#5A77B0"/>
<path d="M47.0981 12.7184C43.2916 11.9134 39.366 10.8798 35.4304 10.353C35.1521 10.7804 34.8738 11.2077 34.6055 11.655C38.1734 12.0922 41.7313 12.9966 45.2197 13.7221C49.195 14.5503 53.1704 15.4084 57.1458 16.2962C57.3346 15.8689 57.5334 15.4415 57.7421 15.0241C54.1841 14.2423 50.6361 13.4737 47.0981 12.7184Z" fill="#5A77B0"/>
<path d="M23.7031 54.7379C21.795 54.0754 19.8934 53.4128 17.9985 52.7502L17.4121 53.277L23.4646 55.3939C23.882 55.533 24.1205 54.8771 23.7031 54.7379Z" fill="#5A77B0"/>
<path d="M29.2214 28.0238C31.8253 28.6863 34.4358 29.3058 37.0529 29.8822C37.5001 29.9916 37.7387 29.3257 37.3014 29.2164C34.6876 28.6101 32.0738 27.984 29.46 27.3579C29.3892 27.3329 29.3121 27.3329 29.2413 27.3579L29.1221 27.9641L29.2214 28.0238Z" fill="#5A77B0"/>
<path d="M28.3747 50.8126C26.1684 50.0572 23.972 49.282 21.7756 48.5068L21.3682 49.0237C21.4029 49.0814 21.4551 49.1267 21.5172 49.1529L28.1462 51.4685C28.2316 51.4931 28.3232 51.484 28.4022 51.4431C28.4812 51.4022 28.5415 51.3326 28.5708 51.2487C28.6 51.1647 28.596 51.0727 28.5595 50.9916C28.5231 50.9105 28.457 50.8464 28.3747 50.8126Z" fill="#5A77B0"/>
<path d="M43.0254 3.30689C45.2417 3.83362 47.4679 4.3703 49.6941 4.88709C50.1313 4.98648 50.3798 4.32059 49.9326 4.22121L44.0888 2.82983L43.9696 2.87954C43.646 3.00162 43.3306 3.14436 43.0254 3.30689Z" fill="#5A77B0"/>
<path d="M38.7312 21.7028C36.1373 21.0966 33.5533 20.4904 30.9693 19.8643C30.8997 20.0928 30.8301 20.3115 30.7705 20.5401C33.3446 21.1562 35.9087 21.7724 38.4927 22.3687C38.9299 22.478 39.1784 21.8022 38.7312 21.7028Z" fill="#5A77B0"/>
<path d="M20.7015 56.7853C18.9325 56.1758 17.1667 55.5596 15.4043 54.9368L14.7285 55.4337L20.463 57.4214C20.5414 57.4325 20.6213 57.4166 20.6894 57.3762C20.7576 57.3358 20.8099 57.2733 20.8377 57.1991C20.8655 57.125 20.8672 57.0435 20.8424 56.9683C20.8176 56.893 20.7679 56.8285 20.7015 56.7853Z" fill="#5A77B0"/>
<path d="M17.1251 59.4689C17.2106 59.4935 17.3022 59.4844 17.3812 59.4435C17.4602 59.4026 17.5205 59.333 17.5497 59.2491C17.579 59.1651 17.575 59.0731 17.5385 58.992C17.5021 58.9109 17.4359 58.8468 17.3537 58.813L12.2851 57.0439L11.5 57.5011L17.1251 59.4689Z" fill="#5A77B0"/>
<path d="M40.043 18.234C37.4391 17.6277 34.8253 17.0016 32.2215 16.3755L31.9531 17.0314C34.5669 17.6575 37.1807 18.2837 39.7945 18.8899C40.2418 18.9992 40.4803 18.3334 40.043 18.234Z" fill="#5A77B0"/>
<path d="M47.3777 6.41757L40.5699 4.79761L39.8643 5.35416L47.1292 7.08343C47.5765 7.18281 47.8249 6.51696 47.3777 6.41757Z" fill="#5A77B0"/>
<path d="M44.5443 9.95562C44.9816 10.0649 45.2301 9.39905 44.7828 9.28973C42.3778 8.73318 39.9826 8.15675 37.5775 7.58032L37.0508 8.18658C39.5453 8.78289 42.0399 9.37919 44.5443 9.95562Z" fill="#5A77B0"/>
<path d="M33.6428 13.8417C36.2566 14.4678 38.8704 15.0939 41.4842 15.7001C41.9214 15.7995 42.1699 15.1336 41.7227 15.0343C39.1089 14.428 36.4951 13.8019 33.8912 13.1758H33.7421C33.6428 13.3547 33.5533 13.5435 33.4639 13.7224C33.4829 13.7544 33.5088 13.7817 33.5397 13.8024C33.5707 13.823 33.6059 13.8365 33.6428 13.8417Z" fill="#5A77B0"/>
<path d="M23.4453 45.9922H23.5149C25.8272 46.8204 28.1462 47.6354 30.4718 48.4371C30.5587 48.4687 30.6547 48.4645 30.7386 48.4254C30.8225 48.3862 30.8874 48.3154 30.919 48.2284C30.9506 48.1414 30.9464 48.0454 30.9073 47.9615C30.8681 47.8777 30.7973 47.8128 30.7103 47.7812C28.3913 46.9861 26.0724 46.1778 23.7534 45.3562L23.4453 45.9922Z" fill="#5A77B0"/>
<path d="M36.0676 33.5891C36.5049 33.6885 36.7534 33.0226 36.3061 32.9232L28.5542 31.0747C28.5542 31.3033 28.4647 31.5319 28.415 31.7605C30.9526 32.3899 33.5035 32.9994 36.0676 33.5891Z" fill="#5A77B0"/>
<path d="M35.1729 37.3658C35.6102 37.4652 35.8587 36.7993 35.4114 36.6999C32.8374 36.0937 30.2633 35.4874 27.6992 34.8613C27.6396 35.0899 27.5899 35.3185 27.5303 35.5471C30.0745 36.1831 32.6221 36.7894 35.1729 37.3658Z" fill="#5A77B0"/>
<path d="M25.2427 42.9013C27.5616 43.7229 29.8806 44.5345 32.1995 45.3362C32.617 45.4853 32.8555 44.8293 32.4381 44.6902L25.4812 42.2553C25.4418 42.2473 25.4013 42.2473 25.3619 42.2553C25.2725 42.4441 25.193 42.6429 25.1035 42.8317C25.1439 42.8654 25.1915 42.8892 25.2427 42.9013Z" fill="#5A77B0"/>
</svg>
