<svg width="38" height="36" viewBox="0 0 38 36" fill="none" xmlns="http://www.w3.org/2000/svg">
<path d="M15.4286 35.9999H0.857143C0.629814 35.9999 0.411799 35.9096 0.251053 35.7489C0.0903078 35.5881 0 35.3701 0 35.1428C0 34.9155 0.0903078 34.6974 0.251053 34.5367C0.411799 34.376 0.629814 34.2856 0.857143 34.2856H15.4286C15.6559 34.2856 15.8739 34.376 16.0347 34.5367C16.1954 34.6974 16.2857 34.9155 16.2857 35.1428C16.2857 35.3701 16.1954 35.5881 16.0347 35.7489C15.8739 35.9096 15.6559 35.9999 15.4286 35.9999Z" fill="#FF7976"/>
<path d="M5.14279 35.9999C4.91546 35.9999 4.69744 35.9096 4.5367 35.7489C4.37595 35.5881 4.28564 35.3701 4.28564 35.1428V29.1428C4.28564 28.9155 4.37595 28.6974 4.5367 28.5367C4.69744 28.376 4.91546 28.2856 5.14279 28.2856C5.37012 28.2856 5.58813 28.376 5.74888 28.5367C5.90962 28.6974 5.99993 28.9155 5.99993 29.1428V35.1428C5.99993 35.3701 5.90962 35.5881 5.74888 35.7489C5.58813 35.9096 5.37012 35.9999 5.14279 35.9999Z" fill="#FF7976"/>
<path d="M32.572 35.9999C32.3447 35.9999 32.1266 35.9096 31.9659 35.7489C31.8052 35.5881 31.7148 35.3701 31.7148 35.1428V29.1428C31.7148 28.9155 31.8052 28.6974 31.9659 28.5367C32.1266 28.376 32.3447 28.2856 32.572 28.2856C32.7993 28.2856 33.0173 28.376 33.1781 28.5367C33.3388 28.6974 33.4291 28.9155 33.4291 29.1428V35.1428C33.4291 35.3701 33.3388 35.5881 33.1781 35.7489C33.0173 35.9096 32.7993 35.9999 32.572 35.9999Z" fill="#FF7976"/>
<path d="M32.5718 29.9999H23.1433C22.9159 29.9999 22.6979 29.9096 22.5372 29.7489C22.3764 29.5881 22.2861 29.3701 22.2861 29.1428C22.2861 28.9155 22.3764 28.6974 22.5372 28.5367C22.6979 28.376 22.9159 28.2856 23.1433 28.2856H31.7147V23.1428C31.7147 22.9155 31.805 22.6974 31.9658 22.5367C32.1265 22.376 32.3445 22.2856 32.5718 22.2856C32.7992 22.2856 33.0172 22.376 33.1779 22.5367C33.3387 22.6974 33.429 22.9155 33.429 23.1428V29.1428C33.429 29.3701 33.3387 29.5881 33.1779 29.7489C33.0172 29.9096 32.7992 29.9999 32.5718 29.9999Z" fill="#FF7976"/>
<path d="M14.5714 29.9999H5.14279C4.91546 29.9999 4.69744 29.9096 4.5367 29.7489C4.37595 29.5881 4.28564 29.3701 4.28564 29.1428V23.1428C4.28564 22.9155 4.37595 22.6974 4.5367 22.5367C4.69744 22.376 4.91546 22.2856 5.14279 22.2856C5.37012 22.2856 5.58813 22.376 5.74888 22.5367C5.90962 22.6974 5.99993 22.9155 5.99993 23.1428V28.2856H14.5714C14.7987 28.2856 15.0167 28.376 15.1774 28.5367C15.3382 28.6974 15.4285 28.9155 15.4285 29.1428C15.4285 29.3701 15.3382 29.5881 15.1774 29.7489C15.0167 29.9096 14.7987 29.9999 14.5714 29.9999Z" fill="#FF7976"/>
<path d="M32.5703 23.9999H22.2846C22.0573 23.9999 21.8393 23.9096 21.6785 23.7489C21.5178 23.5881 21.4275 23.3701 21.4275 23.1428C21.4275 22.9155 21.5178 22.6974 21.6785 22.5367C21.8393 22.376 22.0573 22.2856 22.2846 22.2856H31.7132V17.9999H15.4275C15.2001 17.9999 14.9821 17.9096 14.8214 17.7489C14.6606 17.5881 14.5703 17.3701 14.5703 17.1428C14.5703 16.9155 14.6606 16.6974 14.8214 16.5367C14.9821 16.376 15.2001 16.2856 15.4275 16.2856H32.5703C32.7976 16.2856 33.0157 16.376 33.1764 16.5367C33.3371 16.6974 33.4275 16.9155 33.4275 17.1428V23.1428C33.4275 23.3701 33.3371 23.5881 33.1764 23.7489C33.0157 23.9096 32.7976 23.9999 32.5703 23.9999Z" fill="#FF7976"/>
<path d="M15.4285 23.9999H5.14279C4.91546 23.9999 4.69744 23.9096 4.5367 23.7489C4.37595 23.5881 4.28564 23.3701 4.28564 23.1428V17.1428C4.28564 16.9155 4.37595 16.6974 4.5367 16.5367C4.69744 16.376 4.91546 16.2856 5.14279 16.2856H15.4285C15.6558 16.2856 15.8738 16.376 16.0346 16.5367C16.1953 16.6974 16.2856 16.9155 16.2856 17.1428C16.2856 17.3701 16.1953 17.5881 16.0346 17.7489C15.8738 17.9096 15.6558 17.9999 15.4285 17.9999H5.99993V22.2856H15.4285C15.6558 22.2856 15.8738 22.376 16.0346 22.5367C16.1953 22.6974 16.2856 22.9155 16.2856 23.1428C16.2856 23.3701 16.1953 23.5881 16.0346 23.7489C15.8738 23.9096 15.6558 23.9999 15.4285 23.9999Z" fill="#FF7976"/>
<path d="M35.1424 15.4287C34.9403 15.4284 34.7448 15.3568 34.5904 15.2264L18.8567 1.97838L3.12294 15.2264C2.9481 15.3623 2.72744 15.4253 2.5072 15.4021C2.28697 15.3789 2.08425 15.2714 1.94152 15.1021C1.79879 14.9328 1.72714 14.7148 1.74157 14.4938C1.756 14.2728 1.85541 14.066 2.01895 13.9167L18.3047 0.202382C18.4592 0.0723049 18.6547 0.000976562 18.8567 0.000976562C19.0586 0.000976562 19.2541 0.0723049 19.4086 0.202382L35.6944 13.9167C35.8285 14.03 35.9246 14.1817 35.9697 14.3514C36.0148 14.5211 36.0067 14.7005 35.9465 14.8655C35.8863 15.0304 35.7769 15.1729 35.633 15.2736C35.4892 15.3743 35.3179 15.4285 35.1424 15.4287Z" fill="#FF7976"/>
<path d="M32.5713 12.8571C32.344 12.8571 32.126 12.7668 31.9652 12.6061C31.8045 12.4453 31.7142 12.2273 31.7142 12V1.71429H28.3525V4.28571C28.3525 4.51304 28.2622 4.73106 28.1014 4.89181C27.9407 5.05255 27.7227 5.14286 27.4953 5.14286C27.268 5.14286 27.05 5.05255 26.8892 4.89181C26.7285 4.73106 26.6382 4.51304 26.6382 4.28571V0.857143C26.6382 0.629814 26.7285 0.411796 26.8892 0.251051C27.05 0.0903052 27.268 0 27.4953 0H32.5713C32.7987 0 33.0167 0.0903052 33.1774 0.251051C33.3382 0.411796 33.4285 0.629814 33.4285 0.857143V12C33.4285 12.2273 33.3382 12.4453 33.1774 12.6061C33.0167 12.7668 32.7987 12.8571 32.5713 12.8571Z" fill="#FF7976"/>
<path d="M32.572 18C32.3447 18 32.1266 17.9097 31.9659 17.7489C31.8052 17.5882 31.7148 17.3702 31.7148 17.1429V12.8571C31.7148 12.6298 31.8052 12.4118 31.9659 12.2511C32.1266 12.0903 32.3447 12 32.572 12C32.7993 12 33.0173 12.0903 33.1781 12.2511C33.3388 12.4118 33.4291 12.6298 33.4291 12.8571V17.1429C33.4291 17.3702 33.3388 17.5882 33.1781 17.7489C33.0173 17.9097 32.7993 18 32.572 18Z" fill="#FF7976"/>
<path d="M18.856 14.5714C18.0084 14.5714 17.1798 14.3201 16.475 13.8492C15.7702 13.3782 15.2209 12.7089 14.8965 11.9258C14.5722 11.1427 14.4873 10.281 14.6527 9.44961C14.818 8.61827 15.2262 7.85463 15.8256 7.25526C16.425 6.65589 17.1886 6.24772 18.0199 6.08235C18.8513 5.91699 19.713 6.00186 20.4961 6.32623C21.2792 6.65061 21.9486 7.19992 22.4195 7.9047C22.8904 8.60948 23.1417 9.43808 23.1417 10.2857C23.1417 11.4224 22.6902 12.5124 21.8865 13.3162C21.0828 14.1199 19.9927 14.5714 18.856 14.5714ZM18.856 7.71429C18.3475 7.71429 17.8503 7.8651 17.4274 8.14765C17.0046 8.4302 16.675 8.8318 16.4803 9.30167C16.2857 9.77154 16.2348 10.2886 16.334 10.7874C16.4332 11.2862 16.6781 11.7444 17.0378 12.104C17.3974 12.4636 17.8556 12.7085 18.3544 12.8077C18.8532 12.907 19.3702 12.856 19.8401 12.6614C20.3099 12.4668 20.7115 12.1372 20.9941 11.7143C21.2766 11.2915 21.4275 10.7943 21.4275 10.2857C21.4275 9.60373 21.1565 8.94968 20.6743 8.46744C20.1921 7.98521 19.538 7.71429 18.856 7.71429Z" fill="#FF7976"/>
<path d="M23.1434 35.9999H14.572C14.3447 35.9999 14.1266 35.9096 13.9659 35.7489C13.8052 35.5881 13.7148 35.3701 13.7148 35.1428V23.1428C13.7148 22.9155 13.8052 22.6974 13.9659 22.5367C14.1266 22.376 14.3447 22.2856 14.572 22.2856H23.1434C23.3707 22.2856 23.5888 22.376 23.7495 22.5367C23.9102 22.6974 24.0006 22.9155 24.0006 23.1428V35.1428C24.0006 35.3701 23.9102 35.5881 23.7495 35.7489C23.5888 35.9096 23.3707 35.9999 23.1434 35.9999ZM15.4291 34.2856H22.2863V23.9999H15.4291V34.2856Z" fill="#FF7976"/>
<path d="M36.8568 35.9999H22.2854C22.058 35.9999 21.84 35.9096 21.6793 35.7489C21.5185 35.5881 21.4282 35.3701 21.4282 35.1428C21.4282 34.9155 21.5185 34.6974 21.6793 34.5367C21.84 34.376 22.058 34.2856 22.2854 34.2856H36.8568C37.0841 34.2856 37.3021 34.376 37.4629 34.5367C37.6236 34.6974 37.7139 34.9155 37.7139 35.1428C37.7139 35.3701 37.6236 35.5881 37.4629 35.7489C37.3021 35.9096 37.0841 35.9999 36.8568 35.9999Z" fill="#FF7976"/>
</svg>
