<svg width="21" height="17" viewBox="0 0 21 17" fill="none" xmlns="http://www.w3.org/2000/svg">
<path d="M10.5 17L7.48917 15.0659C6.4545 14.3907 5.45609 13.6622 4.49803 12.8833C2.40453 11.1703 0 8.78421 0 5.51374C0.000485538 4.2734 0.421785 3.06946 1.1958 2.09655C1.96981 1.12363 3.05131 0.438588 4.26546 0.152156C5.47962 -0.134276 6.75547 -0.00535905 7.88679 0.518069C9.01812 1.0415 9.9388 1.92884 10.5 3.03668C11.0606 1.92799 11.9811 1.03976 13.1127 0.515704C14.2443 -0.00834936 15.5207 -0.137559 16.7353 0.148985C17.9499 0.43553 19.0317 1.12106 19.8057 2.09465C20.5797 3.06823 21.0004 4.27291 21 5.51374C21 8.78421 18.5955 11.1703 16.502 12.8833C15.5439 13.6622 14.5455 14.3907 13.5108 15.0659L10.5 17Z" fill="#FFB2B0"/>
</svg>
