<svg width="308" height="207" viewBox="0 0 308 207" fill="none" xmlns="http://www.w3.org/2000/svg">
<path d="M115.392 131.04L114.82 131.38C114.414 131.624 113.879 131.897 113.172 132.268C112.465 132.639 111.61 133.036 110.622 133.46C109.636 133.915 108.495 134.331 107.267 134.826C106.014 135.246 104.678 135.768 103.225 136.176L101.001 136.838L98.6577 137.424C97.0741 137.859 95.3967 138.127 93.7194 138.494C92.0264 138.781 90.3041 139.06 88.5799 139.298C86.8459 139.472 85.1217 139.708 83.415 139.825C81.7084 139.943 80.0291 140.05 78.4025 140.097L73.716 140.142C72.2281 140.126 70.8202 140.036 69.5236 139.993C68.227 139.95 67.0397 139.903 65.9912 139.784L63.273 139.538L60.9083 139.32C60.7056 139.295 60.5199 139.194 60.3898 139.036C60.2596 138.879 60.1949 138.678 60.2089 138.474C60.2229 138.27 60.3147 138.08 60.4652 137.942C60.6157 137.804 60.8135 137.729 61.0177 137.732H61.0587L63.4019 137.838L66.0888 137.961C67.1237 138.033 68.2953 138.017 69.5724 138.007C70.8494 137.998 72.232 138.017 73.6906 137.966L78.2755 137.713C79.8611 137.593 81.4936 137.385 83.1573 137.222C84.821 137.06 86.4768 136.725 88.1542 136.48C89.8159 136.172 91.4738 135.824 93.0926 135.475C94.6957 135.043 96.2989 134.715 97.8005 134.227L100.021 133.553L102.118 132.823C103.485 132.372 104.729 131.817 105.898 131.366C107.033 130.847 108.095 130.408 108.987 129.939C109.899 129.503 110.661 129.078 111.292 128.734C111.922 128.39 112.403 128.09 112.678 127.906L113.153 127.594L113.223 127.549C113.449 127.392 113.704 127.282 113.973 127.225C114.241 127.169 114.519 127.167 114.789 127.219C115.059 127.272 115.315 127.378 115.543 127.531C115.771 127.685 115.966 127.882 116.117 128.112C116.267 128.342 116.37 128.6 116.419 128.871C116.468 129.141 116.462 129.419 116.402 129.687C116.342 129.955 116.229 130.209 116.069 130.432C115.91 130.656 115.707 130.846 115.472 130.989C115.447 131.009 115.416 131.027 115.392 131.04Z" fill="#F9CDD1"/>
<path d="M109.319 123.527L108.782 123.956C108.391 124.272 107.886 124.618 107.22 125.085C106.54 125.518 105.72 126.051 104.746 126.579C103.791 127.149 102.658 127.664 101.444 128.266C100.198 128.787 98.8719 129.414 97.4074 129.9C96.679 130.15 95.9468 130.455 95.1715 130.681L92.8029 131.376C92.0062 131.632 91.1705 131.796 90.3347 131.989L87.7962 132.556C86.0642 132.81 84.3224 133.173 82.5591 133.337L79.919 133.587L78.6068 133.712L77.2985 133.757L74.7171 133.833C73.8657 133.862 73.0261 133.893 72.2001 133.845L67.4472 133.679C65.9456 133.532 64.5182 133.393 63.2138 133.263L61.3353 133.067C60.7495 132.987 60.1812 132.886 59.654 132.804L56.9203 132.36L54.5438 131.97C54.3389 131.936 54.1553 131.824 54.0321 131.656C53.9089 131.489 53.856 131.28 53.8845 131.075C53.913 130.869 54.0208 130.682 54.1848 130.555C54.3488 130.427 54.5561 130.369 54.7625 130.392H54.8133L57.1702 130.664L59.8669 130.998C60.3882 131.056 60.9428 131.13 61.5267 131.193L63.3778 131.29C64.6646 131.361 66.0589 131.433 67.5351 131.511L72.1727 131.462C72.9753 131.476 73.7896 131.406 74.6116 131.341L77.1072 131.146L78.3686 131.048L79.6281 130.871L82.1666 130.513C83.8537 130.279 85.5057 129.853 87.1479 129.537L89.54 128.889C90.321 128.666 91.1021 128.479 91.8558 128.199L94.0624 127.444C94.7829 127.201 95.4566 126.883 96.1283 126.618C97.4816 126.1 98.6825 125.46 99.8189 124.927C100.91 124.319 101.94 123.798 102.777 123.241C103.644 122.722 104.339 122.212 104.925 121.802C105.511 121.392 105.948 121.021 106.179 120.826C106.409 120.631 106.603 120.457 106.603 120.457L106.62 120.437C106.816 120.251 107.047 120.106 107.299 120.009C107.551 119.912 107.82 119.866 108.09 119.873C108.36 119.88 108.626 119.941 108.872 120.05C109.119 120.16 109.342 120.318 109.528 120.514C109.714 120.709 109.859 120.94 109.956 121.192C110.053 121.444 110.099 121.713 110.092 121.983C110.085 122.253 110.025 122.519 109.915 122.766C109.805 123.012 109.647 123.235 109.452 123.421C109.409 123.459 109.365 123.494 109.319 123.527Z" fill="#F9CDD1"/>
<path d="M55.4661 127.912C54.849 126.936 54.312 125.903 53.4138 125.116C52.5976 124.403 52.582 125.297 52.7577 125.832C52.9348 126.327 53.1722 126.798 53.4646 127.234C53.7575 127.693 54.9252 129.115 54.0504 129.548C53.6735 129.744 52.4238 129.306 52.004 129.175C50.7347 128.785 49.6021 128.105 48.2938 127.764C47.6163 127.584 46.0814 127.516 46.9777 128.443C48.0302 129.533 50.0747 129.484 51.1721 130.519C51.2893 130.628 50.2446 130.767 50.1509 130.769C48.6102 130.792 47.2765 130.687 45.7788 131.132C45.5835 131.192 44.9782 131.353 45.025 131.608C45.0719 131.864 45.6714 131.864 45.8862 131.897C46.6997 132.009 47.5236 132.024 48.3407 131.942C48.9812 131.892 49.8833 131.796 50.4106 132.184C51.137 132.723 49.3717 133.215 48.9871 133.37C48.5633 133.545 46.6009 134.045 46.6145 134.518C46.6145 134.826 47.4366 134.762 47.6846 134.766C48.7547 134.766 49.7701 134.44 50.7523 134.131C51.9695 133.749 53.2062 133.423 54.4624 133.155C55.552 132.919 57.1962 132.624 57.7683 131.726C58.2623 130.96 56.9267 129.796 56.4288 129.25C56.0682 128.834 55.746 128.386 55.4661 127.912Z" fill="#F9CDD1"/>
<path d="M59.1377 135.014C58.5187 134.038 57.9817 133.007 57.0815 132.22C56.2692 131.507 56.2516 132.401 56.4273 132.934C56.6049 133.429 56.8416 133.901 57.1323 134.338C57.4291 134.795 58.5948 136.217 57.7181 136.652C57.3431 136.848 56.0915 136.408 55.6736 136.277C54.4043 135.887 53.2698 135.209 51.9772 134.866C51.2957 134.686 49.7608 134.62 50.6571 135.545C51.7096 136.635 53.7541 136.588 54.8554 137.621C54.9667 137.73 53.9259 137.869 53.8303 137.871C52.2896 137.894 50.9539 137.791 49.4582 138.234C49.2629 138.295 48.6556 138.457 48.7044 138.711C48.7533 138.964 49.3488 138.966 49.5636 139.001C50.3772 139.113 51.2012 139.128 52.0182 139.044C52.6625 138.994 53.5608 138.898 54.088 139.287C54.8164 139.825 53.0511 140.316 52.6645 140.474C52.2408 140.648 50.2822 141.147 50.2939 141.62C50.2939 141.93 51.116 141.866 51.364 141.868C52.4321 141.878 53.4475 141.542 54.4317 141.233C55.6476 140.851 56.8843 140.525 58.1418 140.257C59.2314 140.019 60.8756 139.724 61.4477 138.828C61.9417 138.058 60.608 136.896 60.1062 136.352C59.744 135.936 59.4199 135.488 59.1377 135.014Z" fill="#F9CDD1"/>
<path d="M199.514 114.118C199.373 114.794 198.678 115.317 198.186 115.757C198.239 115.534 198.223 115.302 198.268 115.075C197.583 115.825 196.79 116.637 196.204 117.45C196.255 117.254 196.234 117.008 196.269 116.817C195.292 117.768 194.359 119.146 193.144 119.865C193.123 119.582 193.139 119.298 193.193 119.019C192.496 119.777 191.383 120.712 190.356 120.986C190.371 120.872 190.394 120.759 190.426 120.648C190.131 121.429 188.489 122.347 187.792 122.821C187.792 122.589 187.757 122.333 187.763 122.101C186.982 122.788 186.101 123.806 185.15 124.3C184.332 124.725 182.807 125.424 181.83 125.534C182.059 125.178 182.365 124.809 182.494 124.391C181.963 125.219 180.563 126.057 179.638 126.266C179.888 125.044 177.728 126.401 177.353 126.557C176.505 126.906 175.635 127.557 174.721 127.66C174.744 127.537 174.678 127.365 174.699 127.242C173.871 127.119 172.823 127.969 172.069 128.258C171.537 128.48 170.968 128.601 170.392 128.615C170.45 128.441 170.392 128.289 170.519 128.119C169.919 128.51 168.913 129.027 168.191 129.052C168.093 129.052 167.658 128.884 167.373 128.933C166.941 129.009 166.58 129.293 166.137 129.273C166.156 128.101 162.46 129.927 163.278 128.492C163.741 127.678 166.064 127.479 166.855 127.246C168.755 126.692 170.696 126.092 172.645 125.741C177.677 124.833 181.92 121.745 186.302 119.297C188.286 118.188 190.346 117.243 192.246 115.995C193.718 115.03 195.247 114.103 196.802 113.281C197.526 112.89 199.362 111.648 200.158 112.144C201.135 112.749 200.215 114.571 199.465 114.909C199.439 114.645 199.456 114.378 199.514 114.118Z" fill="#F1F6FD"/>
<path d="M159.609 115.189C158.574 114.622 157.742 113.638 156.814 112.935C156.289 112.535 155.895 112.297 155.211 112.269C155.471 112.74 155.238 112.599 155.512 112.882C154.082 111.814 152.872 110.379 151.423 109.399C151.473 109.664 151.57 109.917 151.708 110.149C151.634 109.368 150.661 108.586 150.228 107.946C149.898 107.452 149.642 106.716 149.271 106.36C149.181 106.813 149.367 107.249 149.613 107.624C148.476 107.038 147.519 105.417 146.805 104.334C146.842 104.554 146.84 104.724 146.896 104.943C146.059 103.461 145.139 101.899 144.286 100.495C144.245 101.004 144.481 101.5 144.467 102.027C143.44 99.8482 142.401 97.794 140.757 96.017C140.721 96.4965 140.783 96.9783 140.941 97.4327C140.941 95.5601 139.017 93.8163 138.402 92.1058C138.426 92.4572 138.529 92.7985 138.705 93.1036C138.658 91.8812 137.822 90.6022 137.303 89.5302C136.85 88.5909 136.338 87.1713 135.581 86.4976C135.504 87.2162 135.811 87.9641 136.036 88.6066C136.327 87.1323 134.805 85.0468 134.216 83.7522C133.798 82.8285 133.405 80.6884 132.546 80.1377C132.589 80.6728 132.888 81.1863 133.028 81.7194C132.976 79.8858 132.527 77.4782 132.54 75.4708C132.409 75.959 132.374 76.4862 132.22 76.9646C131.455 74.6214 131.439 71.3135 129.615 69.4799C129.658 70.177 129.81 70.8683 129.793 71.5928C129.863 69.2222 128.319 66.6349 127.344 64.5123C127.344 65.0786 127.344 65.6429 127.356 66.2072C126.659 63.6043 125.94 60.2398 124.427 58.0352C124.374 58.5043 124.435 58.9792 124.605 59.4197C124.591 58.3691 123.788 56.9515 123.433 55.9536C123.064 54.9265 122.73 53.4425 121.984 52.6516C121.984 52.8606 121.941 53.089 121.965 53.3019C121.931 52.636 121.277 51.6812 120.707 51.3824C120.707 51.4917 120.695 51.6245 120.707 51.7397C120.58 51.2691 120.305 50.7282 119.842 50.6072C119.713 52.1303 120.318 53.7041 120.623 55.194C120.989 57.0688 121.537 58.9033 122.259 60.6713C123.132 62.7353 124.228 64.772 124.901 66.9082C125.682 69.3921 126.501 71.6806 127.739 73.9789C130.15 78.4545 131.253 83.51 133.339 88.1633C134.578 90.9251 136.157 93.5214 138.039 95.892C139.781 98.0888 141.771 99.9497 143.589 102.057C145.123 103.839 146.061 105.986 147.523 107.813C148.748 109.344 150.245 110.719 151.515 112.232C152.594 113.519 153.047 113.929 154.639 114.185C155.879 114.38 157.092 115.122 158.335 115.056C158.513 114.642 159.271 116.192 159.046 115.808L159.609 115.189Z" fill="#EEF3F9"/>
<path d="M124.111 105.388C122.819 103.869 121.536 101.16 117.152 98.4323C117.216 98.979 117.681 99.4418 117.808 99.9827C116.68 99.4523 115.517 99.0014 114.326 98.6334C114.563 98.8397 114.751 99.0967 114.875 99.3852C113.957 99.4086 111.778 98.153 111.555 97.4325C111.659 97.8562 111.946 98.2272 112.141 98.6041C111.059 97.989 109.831 97.6082 108.738 96.9892C108.851 97.1689 108.841 97.4559 108.912 97.6239C107.457 97.8191 106.529 96.7022 105.242 96.3761C105.254 96.4679 105.285 96.5577 105.297 96.6456C103.835 96.7705 102.409 95.2787 100.911 95.2084C101.005 95.3626 101.052 95.6965 101.187 95.8664C99.8354 95.5247 98.1932 94.5327 96.9278 93.8317C97.021 93.9788 97.1014 94.1336 97.168 94.2945C96.4221 94.3941 95.7074 93.7302 95.0201 93.5662C95.0669 93.8708 94.9888 94.1988 95.0201 94.4976C94.5221 94.3746 94.0691 94.1422 93.5848 94.027C93.2158 96.1984 96.6955 98.2253 98.242 99.1841C101.378 101.123 104.928 102.439 108.513 103.285C111.052 103.888 114.566 104.361 117.148 103.994C117.908 103.886 119.966 103.086 120.468 102.627L124.111 105.388Z" fill="#F1F6FD"/>
<path d="M162.497 135.617C161.304 136.789 160.337 138.298 158.576 138.937C158.782 138.481 158.964 138.015 159.123 137.541C157.974 139.175 155.682 139.915 153.911 140.733C154.069 140.522 154.169 140.274 154.321 140.069C152.817 141.489 149.787 141.731 147.858 142.344C148.287 141.954 148.834 141.397 149.115 140.794C147.774 142.032 145.278 142.836 143.487 142.954C143.74 142.898 143.979 142.793 144.191 142.645C144.403 142.496 144.583 142.307 144.722 142.088C142.525 142.674 139.789 144.281 137.44 143.957C138.026 143.274 138.928 142.68 139.617 142.1C138.35 141.932 136.844 142.534 135.559 142.663C133.95 142.821 132.341 142.805 130.721 142.805C131.014 142.823 131.307 142.767 131.573 142.643C131.84 142.519 132.071 142.33 132.246 142.094C130.84 142.19 127.542 142.864 126.583 141.663C127.047 141.484 127.474 141.219 127.84 140.882C126.151 140.905 122.088 141.313 121.006 139.894C121.746 139.689 122.35 139.22 123.017 138.87C121.227 138.185 117.784 138.783 116.468 137.365C116.65 137.269 116.898 137.031 117.03 136.957C115.32 136.929 111.985 136.789 110.71 135.606C111.131 135.229 111.764 134.944 112.184 134.608C110.391 134.526 107.302 134.424 106.304 132.655C109.841 131.554 102.45 129.265 102.379 128.285C102.856 128.248 103.314 128.086 103.709 127.816C102.184 126.793 100.39 126.645 99.2941 124.907C99.9809 124.81 100.656 124.647 101.311 124.419C101.282 123.934 96.5018 121.335 99.1242 121.076C98.3431 119.798 95.0587 119.023 95.1954 117.28C98.1908 116.84 92.1199 113.286 91.7762 112.697C95.0958 111.189 91.1104 110.32 90.9073 108.301C90.7999 107.252 91.8251 107.368 91.0616 106.102C90.3176 104.868 88.4156 104.243 88.1462 102.75C90.5148 102.384 85.8791 98.3677 88.3981 98.2994C88.5367 97.0301 86.0978 95.2961 87.9782 94.6459C90.4054 93.8062 93.2818 98.6508 94.4729 100.113C98.679 105.282 102.25 110.898 106.439 116.067C110.276 120.806 116.515 125.778 122.32 127.978C131.107 131.286 141.47 133.901 150.83 131.895C154.176 131.179 158.769 128.086 162.276 128.476C166.191 128.914 163.68 134.385 162.559 136.785C162.526 136.402 162.487 136.004 162.497 135.617Z" fill="#F1F6FD"/>
<path d="M216.382 101.266C216.153 100.664 216.253 99.9204 215.991 99.2701C215.663 98.4246 215.054 97.6904 214.831 96.8117C214.831 97.1436 214.843 97.4815 214.831 97.8115C214.224 97.3721 213.822 96.3821 213.297 95.7865C213.297 96.0423 213.297 96.3059 213.297 96.5578C212.402 96.3723 211.707 95.435 210.973 94.9586C210.992 95.064 210.973 95.1949 211.004 95.312C210.172 95.0992 209.266 94.6266 208.491 94.2283C208.539 94.3391 208.576 94.4542 208.602 94.5719C207.71 94.9625 206.716 94.2888 205.83 94.3767C206.675 95.1753 203.15 95.0308 202.803 95.1695C202.946 95.2299 203.093 95.282 203.242 95.3257C203.377 96.3645 201.094 95.9486 200.77 96.6516C200.604 97.003 201.057 96.9699 200.708 97.4326C200.403 97.8447 199.46 98.3816 199.005 98.6257C199.2 99.028 199.241 99.1295 198.987 99.563C198.657 100.123 197.38 100.414 197.216 101.031C197.115 101.41 197.521 101.668 197.533 102.111C197.554 102.877 196.695 103.244 196.63 103.88C196.589 104.259 197.003 104.353 196.929 104.857C196.855 105.361 196.316 105.431 196.502 105.972C196.615 106.298 196.984 106.282 197.087 106.753C197.179 107.173 197.019 107.63 196.874 108.003C197.435 108.422 198.587 108.377 199.276 108.362C199.688 105.761 200.526 102.963 202.371 101.029C203.375 99.977 204.703 99.2604 205.912 98.4617C207.04 97.7197 208.255 97.2061 209.622 97.1397C211.719 97.0382 212.703 98.1161 214.123 99.399C214.429 99.6896 214.751 99.9634 215.087 100.219C215.511 100.516 215.778 100.869 216.101 101.104L216.382 101.266Z" fill="#F1F6FD"/>
<path d="M84.9154 86.0972C84.6186 86.4448 84.8432 87.0735 84.5386 87.3704C84.4116 87.4953 83.8883 87.5012 83.6989 87.5461C83.3513 87.6223 82.8202 87.7043 82.5956 88.0226C82.2188 88.5537 82.8534 89.1942 82.6191 89.7507C82.3027 90.5005 81.3362 90.6294 80.9437 91.2992C80.4028 92.2208 81.592 92.7617 81.8478 93.5311C82.0743 94.2165 81.5958 94.7418 82.2188 95.3061C83.0447 96.0501 84.1578 96.2824 85.1927 96.63C86.2328 97.0058 87.2511 97.4393 88.2428 97.9286C88.9282 98.2469 89.9006 98.8893 90.6856 98.6647C91.9803 98.2918 90.7423 96.2336 91.4296 95.2885C92.1599 94.2868 93.0601 95.2338 93.2671 93.8943C93.4233 92.8711 92.324 91.9318 91.6835 91.2933C90.0432 89.655 88.4693 87.9523 86.6357 86.5209C86.2823 86.2476 85.7199 85.7633 85.2279 85.9058C85.1068 85.9368 84.998 86.0034 84.9154 86.0972Z" fill="#746B5C"/>
<path d="M167.898 119.125C152.425 112.601 143.669 105.376 136.413 89.5847C132.332 80.7097 129.383 71.4052 125.425 62.4931C123.082 57.2364 118.981 44.2452 113.262 42.2573C113.898 42.4799 112.286 49.6326 112.12 50.4C111.274 54.2722 110.222 58.1327 110.001 62.1162C109.88 64.2427 109.974 66.4785 110.782 68.4742C111.28 69.6985 112.758 71.7566 114.021 72.2253C113.287 73.5258 111.598 74.506 110.341 75.2481C108.726 76.2029 107.158 77.4585 107.894 79.5674C108.48 81.2272 109.808 82.4867 111.213 83.4728C111.973 84.0156 115.076 85.1423 115.33 85.9879C115.707 87.2571 114.158 88.2452 113.453 89.1122C112.616 90.1549 111.631 91.3265 111.444 92.7032C111.172 94.7164 112.739 96.1379 114.228 97.1768C114.619 97.4501 119.001 100.217 119.198 100.032C117.677 101.471 115.254 101.658 114.275 103.853C113.529 105.523 114.64 107.163 115.722 108.377C119.005 112.066 123.822 114.644 128.268 116.631C130.221 117.506 132.322 118.401 134.421 118.889C145.296 121.417 158.799 120.584 170.294 120.213L167.898 119.125Z" fill="#EEF3F9"/>
<path d="M140.471 118.703C138.374 118.213 136.279 117.323 134.318 116.446C129.874 114.458 125.055 111.881 121.774 108.194C120.694 106.975 119.581 105.333 120.327 103.668C121.304 101.475 123.731 101.285 125.248 99.8461C125.053 100.032 120.675 97.2627 120.28 96.9913C118.788 95.9544 117.22 94.5309 117.498 92.5157C117.683 91.1488 118.669 89.9772 119.505 88.9266C120.21 88.0499 121.76 87.0657 121.38 85.8023C121.128 84.9568 118.027 83.8301 117.267 83.2873C115.867 82.2914 114.534 81.0339 113.948 79.3819C113.21 77.273 114.778 76.0174 116.396 75.0625C117.654 74.3205 119.341 73.3403 120.073 72.0417C118.814 71.5711 117.34 69.5032 116.836 68.2906C116.022 66.295 115.928 64.0572 116.055 61.9307C116.277 57.9531 117.328 54.0926 118.177 50.2145C118.234 49.9529 118.464 48.9277 118.712 47.6897C117.101 45.0614 115.279 42.974 113.255 42.271C113.891 42.4936 112.278 49.6463 112.112 50.4137C111.267 54.2859 110.214 58.1464 109.994 62.1299C109.872 64.2563 109.966 66.4922 110.775 68.4878C111.273 69.7122 112.751 71.7703 114.014 72.2389C113.28 73.5394 111.591 74.5197 110.333 75.2617C108.718 76.2166 107.15 77.4722 107.887 79.5811C108.472 81.2409 109.8 82.5003 111.206 83.4865C111.966 84.0293 115.069 85.156 115.322 86.0015C115.699 87.2708 114.151 88.2588 113.446 89.1258C112.608 90.1686 111.624 91.3402 111.437 92.7168C111.165 94.73 112.731 96.1516 114.221 97.1904C114.612 97.4638 118.994 100.231 119.191 100.045C117.67 101.484 115.246 101.672 114.268 103.867C113.522 105.536 114.633 107.176 115.715 108.391C118.997 112.08 123.815 114.657 128.261 116.645C130.214 117.52 132.315 118.414 134.414 118.902C144.011 121.134 155.653 120.746 166.155 120.371C157.378 120.597 148.253 120.513 140.471 118.703Z" fill="#746B5C"/>
<path d="M209.087 106.343C209.336 106.599 209.49 106.931 209.525 107.286C209.661 109.118 206.205 110.289 204.977 110.996C200.523 113.578 196.424 116.924 192.124 119.766C183.318 125.587 174.368 127.967 164.089 129.672C162.904 135.92 152.403 138.349 147.491 139.334C139.378 140.968 130.874 140.634 123.18 137.381C116.518 134.563 107.641 129.158 102.638 123.966C97.4323 118.563 87.1807 92.2991 87.1807 92.2991C87.1807 92.2991 121.548 101.945 128.273 104.82C143.231 111.213 157.954 117.668 174.733 117.122C179.098 116.981 183.366 116.097 187.496 114.7C192.103 113.148 195.625 110.11 199.562 107.397C201.46 106.089 203.694 104.15 206.182 104.859C206.998 105.083 208.384 105.562 209.087 106.343Z" fill="#F1F6FD"/>
<path d="M217.227 104.818C217.227 106.759 216.652 108.657 215.574 110.272C214.495 111.887 212.962 113.145 211.168 113.888C209.375 114.631 207.401 114.826 205.496 114.447C203.592 114.069 201.843 113.134 200.47 111.761C199.097 110.388 198.162 108.638 197.783 106.734C197.405 104.83 197.599 102.856 198.342 101.062C199.086 99.2685 200.344 97.7354 201.959 96.6569C203.573 95.5785 205.471 95.003 207.413 95.0034C210.016 95.0039 212.512 96.0381 214.352 97.8785C216.192 99.7189 217.227 102.215 217.227 104.818Z" fill="#F1F6FD"/>
<path d="M216.346 102.633L253.549 105.128L215.169 110.834C215.62 109.504 215.929 108.129 216.089 106.733C216.245 105.372 216.331 104.003 216.346 102.633Z" fill="#F8C7CE"/>
<path d="M212.666 102.904C212.666 102.904 213.76 101.852 215.169 102.904" stroke="#746B5C" stroke-width="3.01" stroke-linecap="round" stroke-linejoin="round"/>
<path d="M232.183 103.171C233.204 106.12 235.487 108.321 237.491 110.613C243.212 117.153 248.357 126.026 247.526 135.022C246.848 142.37 238.543 142.709 232.812 142.624C228.213 142.555 223.338 141.288 220.936 137.033C218.339 132.423 218.971 126.52 220.241 121.607C220.889 119.09 221.66 116.334 222.81 113.991C223.591 112.39 224.443 110.822 225.329 109.274C225.759 108.516 226.197 107.762 226.643 107.012C226.87 106.622 227.44 105.144 227.848 104.972L232.183 103.171Z" fill="#F1F6FD"/>
<path d="M227.757 106.401C227.692 106.333 227.757 105.89 227.757 105.786C227.757 105.601 227.745 105.417 227.729 105.233C227.712 104.917 227.646 104.606 227.534 104.31C227.253 103.607 226.712 103.048 226.187 102.521C225.33 101.66 224.318 100.705 224.258 99.3969C224.253 98.9425 224.347 98.4926 224.535 98.0788C224.599 97.9206 224.851 97.1513 225.07 97.1591C226.413 97.2118 227.608 98.3307 228.389 99.3383C229.294 100.51 229.696 101.961 230.002 103.386C230.092 103.796 230.172 104.206 230.256 104.618C229.866 102.781 229.475 100.924 229.311 99.0493C229.21 98.172 229.243 97.2844 229.409 96.4171C229.625 95.4524 230.256 94.8139 231.236 94.6597L231.795 94.5835C231.77 95.3548 231.978 96.1066 232.185 96.8408C232.404 97.5774 232.566 98.3294 232.672 99.0903C232.73 99.5394 232.771 99.9885 232.795 100.438C232.826 101.023 232.832 101.609 232.806 102.195C232.799 102.764 232.701 103.328 232.517 103.867C232.322 104.411 231.992 104.905 231.77 105.442C231.559 106.027 231.252 106.572 230.862 107.055C230.635 107.307 230.344 107.492 230.02 107.59C228.932 107.915 227.837 107.637 227.932 106.567L227.757 106.401Z" fill="#F1F6FD"/>
<path d="M253.55 105.118L216.347 102.633C216.332 104.003 216.246 105.372 216.089 106.733L253.55 105.118Z" fill="#F9CDD1"/>
<path d="M157.799 118.36C156.073 117.248 155.136 115.136 153.613 113.868C153.683 114.087 153.64 114.38 153.751 114.63C152.736 114.417 151.676 112.806 151.14 111.937C151.092 112.309 151.131 112.686 151.254 113.04C150.33 111.662 148.561 110.781 147.544 109.465C147.529 109.785 147.549 110.106 147.604 110.422C145.681 109.774 144.074 106.856 142.549 105.552C142.632 105.871 142.754 106.18 142.912 106.47C142.131 104.734 140.74 103.552 139.592 102.057C139.592 102.431 139.604 102.812 139.581 103.181C139.19 103.019 138.967 102.361 138.645 102C138.233 101.539 137.704 101.229 137.278 100.756C136.159 99.5102 135.49 98.2488 135.49 96.8175C135.49 97.2392 135.49 97.6591 135.49 98.0809C134.67 95.6751 133.586 92.9297 132.377 90.7778C132.34 91.2464 132.354 91.7307 132.354 92.2072C132.371 90.4048 131.364 88.5771 130.616 87.0599C130.584 87.4328 130.594 87.8175 130.596 88.1963C130.206 86.7552 129.76 83.2931 128.558 82.3656C128.526 82.8049 128.534 83.258 128.546 83.7032C127.842 82.0525 127.251 80.3563 126.775 78.6262C126.373 77.1753 126.257 75.5214 125.621 74.1545C125.621 74.59 125.726 75.0157 125.681 75.4492C124.842 72.9361 124.48 70.1222 123.445 67.7067C123.445 68.0465 123.445 68.3843 123.445 68.7221C123.381 67.5505 122.787 66.2774 122.469 65.1331C122.151 63.9888 121.901 62.7899 121.383 61.7315C121.383 62.1748 121.399 62.6278 121.37 63.0632C120.749 62.6981 120.309 60.8743 120.015 60.1166C119.542 58.906 119.304 57.5918 118.667 56.4651C118.636 56.8674 118.667 57.3731 118.572 57.6894C118.599 56.6994 118.093 55.0787 117.494 54.2976C115.844 58.1757 116.998 63.4089 117.964 67.2811C118.874 70.9306 119.825 74.506 121.022 78.0658C122.313 81.9067 124.227 85.4352 125.964 89.077C128.126 93.6053 129.675 98.4167 132.561 102.58C134.738 105.716 137.298 109.203 140.463 111.4C143.452 113.513 146.63 115.343 149.957 116.868C151.715 117.649 153.603 118.381 155.534 118.365C155.991 118.365 156.315 118.203 156.805 118.365L157.799 118.36Z" fill="#F1F6FD"/>
<path d="M160.017 118.586C144.759 111.57 136.245 104.064 129.489 88.0479C125.697 79.048 123.061 69.6536 119.378 60.6185C117.209 55.2857 113.52 42.1714 107.875 40C108.507 40.2421 106.662 47.3441 106.473 48.0998C105.496 51.9446 104.325 55.7699 103.977 59.7378C103.782 61.8623 103.809 64.1001 104.563 66.1192C105.022 67.3592 106.436 69.4622 107.687 69.9719C106.906 71.247 105.196 72.1745 103.917 72.8755C102.269 73.7777 100.661 74.9825 101.329 77.1129C101.857 78.7902 103.147 80.0907 104.512 81.1315C105.254 81.6978 108.32 82.9241 108.545 83.7774C108.884 85.0584 107.301 85.9957 106.57 86.849C105.701 87.8624 104.676 88.9969 104.446 90.3638C104.108 92.3692 105.629 93.8396 107.084 94.9253C107.474 95.2143 111.757 98.1199 111.966 97.9403C110.403 99.3306 107.972 99.4399 106.924 101.602C106.125 103.244 107.182 104.921 108.226 106.173C111.386 109.963 116.121 112.693 120.499 114.823C122.43 115.762 124.494 116.721 126.576 117.278C137.364 120.156 150.889 119.756 162.384 119.756L160.017 118.586Z" fill="#F1F6FD"/>
<path d="M132.621 117.278C130.538 116.721 128.474 115.762 126.544 114.823C122.165 112.693 117.431 109.963 114.272 106.173C113.225 104.921 112.171 103.244 112.969 101.602C114.018 99.4399 116.447 99.3306 118.011 97.9403C117.816 98.1199 113.52 95.2065 113.129 94.9253C111.675 93.8396 110.155 92.3692 110.493 90.3638C110.724 88.9969 111.747 87.8566 112.618 86.849C113.346 85.9957 114.93 85.0584 114.592 83.7774C114.365 82.9241 111.302 81.6978 110.56 81.1315C109.193 80.0907 107.904 78.7883 107.377 77.1129C106.707 74.9825 108.312 73.7777 109.962 72.8755C111.243 72.1745 112.963 71.247 113.733 69.9719C112.491 69.4622 111.077 67.3592 110.608 66.1192C109.861 64.1001 109.839 61.8623 110.023 59.7378C110.372 55.7699 111.546 51.9446 112.518 48.0998C112.585 47.8401 112.846 46.8227 113.137 45.5925C111.612 42.9134 109.857 40.7694 107.855 40C108.488 40.2421 106.643 47.3441 106.453 48.0998C105.477 51.9446 104.305 55.7699 103.958 59.7378C103.762 61.8623 103.79 64.1001 104.543 66.1192C105.002 67.3592 106.416 69.4622 107.668 69.9719C106.887 71.247 105.176 72.1745 103.897 72.8755C102.249 73.7777 100.642 74.9825 101.31 77.1129C101.837 78.7902 103.128 80.0907 104.493 81.1315C105.235 81.6978 108.3 82.9241 108.525 83.7774C108.865 85.0584 107.281 85.9957 106.551 86.849C105.682 87.8624 104.657 88.9969 104.426 90.3638C104.088 92.3692 105.61 93.8396 107.064 94.9253C107.455 95.2143 111.737 98.1199 111.946 97.9403C110.384 99.3306 107.953 99.4399 106.904 101.602C106.106 103.244 107.162 104.921 108.207 106.173C111.366 109.963 116.101 112.693 120.479 114.823C122.411 115.762 124.475 116.721 126.556 117.278C136.076 119.816 147.723 119.805 158.235 119.767C149.457 119.723 140.34 119.344 132.621 117.278Z" fill="#746B5C"/>
<path d="M197.941 108.799C196.406 109.635 194.766 109.971 193.059 110.084C193.266 110.683 194.344 110.701 194.399 111.328C193.662 111.533 192.836 111.41 192.075 111.457C192.499 111.988 193.744 111.794 193.91 112.503C191.971 112.839 189.954 112.71 187.968 112.824C188.195 113.8 189.698 113.648 190.495 113.71C188.896 114.667 185.949 113.894 184.219 114.175C184.633 114.37 185.086 114.581 185.485 114.761C184.412 115.151 182.618 115.034 181.417 115.067C181.517 115.223 181.517 115.483 181.687 115.643C180.734 116.01 179.316 115.69 178.271 115.756C178.641 115.966 179.034 116.13 179.443 116.245C178.787 116.862 177.1 116.129 176.237 116.83C175.106 117.754 176.695 118.461 177.66 118.648C182.024 119.494 185.715 117.938 189.695 116.536C192.081 115.694 200.751 112.863 198.427 108.686L197.941 108.799Z" fill="#F1F6FD"/>
<path d="M88.0144 92.2989C87.9844 92.0336 87.9043 91.7765 87.7781 91.5413C88.3405 91.5745 88.9869 92.2774 89.5805 92.4063C89.5953 92.2345 89.5848 92.0615 89.5492 91.8927C89.9398 92.3321 90.6154 92.6641 91.1114 92.9648C91.1515 92.8199 91.1699 92.6698 91.1661 92.5196C91.7851 92.8144 92.324 93.4686 93.0074 93.6912C92.9718 93.5178 92.9606 93.3404 92.9742 93.1639C93.4331 93.1776 94.3685 94.2067 94.7727 94.5133C94.7531 94.4469 94.7453 94.3629 94.7258 94.2985C95.05 94.8101 95.5284 95.349 95.751 95.8899C95.2218 95.9211 94.9875 95.7981 94.5227 95.5423C93.9115 95.2065 93.2789 95.0952 92.6364 94.8745C91.8104 94.5914 90.9806 94.2203 90.1663 93.8982C88.9341 93.4236 87.0693 93.2089 86.9736 91.5647C87.1045 91.6369 88.0125 92.1564 88.0144 92.2989Z" fill="#F1F6FD"/>
<path d="M90.172 98.9223C89.7268 98.6567 89.2992 98.3521 88.8598 98.0787C88.5513 97.8834 88.0007 97.6765 87.8269 97.366C88.1491 97.3562 88.4556 97.5144 88.8032 97.4988C88.8657 96.8524 87.6511 96.3994 87.4988 95.7413C87.6941 95.7316 87.9147 95.7414 88.1217 95.7277C88.149 95.2083 87.1746 94.3706 86.7802 94.0679C86.9911 94.0679 87.1844 94.1128 87.3856 94.1128C87.409 93.5563 86.7099 93.2575 86.4678 92.8572C86.5799 92.8595 86.6916 92.8712 86.8017 92.8924C86.708 92.7069 86.5049 92.5018 86.4697 92.2695C86.9833 92.1835 88.069 92.66 88.4712 92.9959C88.9555 93.3864 89.0785 94.1675 89.2894 94.7435C89.68 95.7882 90.7832 97.612 90.379 98.7192L90.172 98.9223Z" fill="#F1F6FD"/>
<path d="M34.762 193.561C32.5982 192.208 31.1231 190.424 29.9314 187.847C28.945 185.724 28.3991 184.285 27.7519 180.424C27.7384 180.338 27.7047 180.256 27.6539 180.188C27.6032 180.12 27.5372 180.068 27.4623 180.036C27.3875 180.003 27.3062 179.993 27.2265 180.005C27.1468 180.017 27.0713 180.051 27.0072 180.104C26.8927 180.216 26.8201 180.37 26.8032 180.537C26.6732 181.328 26.0325 186.111 23.6334 189.188C22.53 190.603 20.8743 191.946 19.2589 192.842C19.1662 192.893 19.0917 192.976 19.0471 193.078C18.9987 193.185 18.9872 193.308 19.0146 193.423C19.0528 193.555 19.1218 193.673 19.2147 193.766C19.7528 194.366 22.9355 197.313 24.4756 200.95C25.7167 203.876 26.2158 206.172 26.3951 206.62C26.4263 206.714 26.4792 206.799 26.5488 206.865C26.6184 206.931 26.7024 206.977 26.7928 206.997C26.9148 207.01 27.0371 206.976 27.1389 206.902C27.2408 206.828 27.3159 206.718 27.3516 206.59C27.5193 206.099 28.1314 203.512 28.8696 201.936C30.5786 198.257 31.6391 197.579 34.8478 194.379C34.9021 194.324 34.9439 194.257 34.9698 194.181C34.9958 194.106 35.0052 194.025 34.9973 193.946C34.9889 193.866 34.9632 193.789 34.9223 193.722C34.8814 193.655 34.8265 193.6 34.762 193.561Z" fill="#FFD79B"/>
<path d="M13.621 159.162C12.3101 158.548 10.97 157.672 10.1018 156.782C8.24614 154.884 7.8485 152.092 7.7703 151.63C7.75699 151.525 7.72282 151.424 7.67003 151.334C7.61725 151.244 7.54706 151.167 7.46411 151.108C7.38512 151.054 7.29543 151.018 7.20177 151.006C7.10811 150.993 7.01291 151.002 6.92332 151.034C6.8208 151.064 6.72757 151.122 6.65308 151.202C6.57859 151.283 6.52549 151.383 6.49916 151.492C5.86956 153.701 5.38709 154.506 4.52553 155.69C3.48105 157.121 2.23112 158.078 0.431125 158.745C0.321046 158.786 0.223555 158.858 0.149004 158.954C0.0744529 159.049 0.0256173 159.164 0.00767864 159.286C-0.01026 159.408 0.00337043 159.533 0.0471178 159.648C0.0908651 159.763 0.1631 159.863 0.256161 159.938C2.82626 161.997 3.69312 162.445 5.00932 164.705C5.57398 165.675 6.01139 167.233 6.13731 167.535C6.18018 167.662 6.25647 167.772 6.35711 167.854C6.45775 167.936 6.57849 167.986 6.70498 167.997C6.83148 168.009 6.9584 167.982 7.07066 167.919C7.18291 167.856 7.27577 167.76 7.33819 167.643C7.50122 167.385 7.98237 166.036 9.10638 164.352C10.4756 162.297 13.1875 160.747 13.6475 160.419C13.7847 160.335 13.8912 160.205 13.9499 160.049C14.0085 159.893 14.0159 159.721 13.9709 159.56C13.943 159.471 13.8973 159.389 13.8369 159.32C13.7765 159.252 13.7028 159.198 13.621 159.162Z" fill="#FFD79B"/>
<path d="M280.594 63.0822C279.188 62.3239 277.754 61.2412 276.824 60.1411C274.836 57.7986 274.41 54.3474 274.325 53.7765C274.311 53.6468 274.275 53.5222 274.218 53.4113C274.162 53.3005 274.086 53.206 273.997 53.1345C273.912 53.0664 273.816 53.0227 273.716 53.0068C273.616 52.9908 273.514 53.0031 273.419 53.0425C273.309 53.0789 273.208 53.1503 273.128 53.2494C273.048 53.3484 272.991 53.4716 272.963 53.6065C272.288 56.3359 271.771 57.3301 270.848 58.7929C269.729 60.561 268.392 61.7426 266.462 62.5668C266.344 62.6178 266.24 62.7068 266.16 62.8245C266.08 62.9421 266.027 63.084 266.008 63.235C265.989 63.3861 266.004 63.5406 266.05 63.6823C266.097 63.8241 266.175 63.9476 266.274 64.04C269.029 66.5837 269.957 67.1372 271.368 69.9308C271.973 71.1281 272.442 73.0541 272.576 73.4254C272.622 73.5818 272.704 73.7189 272.812 73.8202C272.92 73.9215 273.049 73.9828 273.185 73.9969C273.32 74.011 273.456 73.9772 273.576 73.8996C273.697 73.8219 273.796 73.7037 273.863 73.559C274.038 73.2398 274.553 71.574 275.757 69.4936C277.224 66.955 280.128 65.0394 280.622 64.6351C280.769 64.5314 280.883 64.3702 280.946 64.1776C281.009 63.9849 281.017 63.772 280.969 63.5732C280.938 63.4636 280.889 63.3632 280.824 63.2786C280.76 63.1939 280.681 63.127 280.594 63.0822Z" fill="#FFD79B"/>
<path d="M265.762 13.5607C263.598 12.2079 262.123 10.4236 260.931 7.84696C259.945 5.72447 259.399 4.28542 258.752 0.423918C258.738 0.337529 258.705 0.256406 258.654 0.188369C258.603 0.120331 258.537 0.0676915 258.462 0.0355388C258.387 0.00338609 258.306 -0.00720728 258.227 0.00481048C258.147 0.0168282 258.071 0.0510378 258.007 0.104129C257.893 0.216312 257.82 0.370426 257.803 0.537124C257.673 1.3281 257.033 6.11076 254.633 9.18836C253.53 10.6033 251.874 11.9462 250.259 12.8419C250.166 12.8929 250.092 12.976 250.047 13.0782C249.999 13.1853 249.987 13.3078 250.015 13.4234C250.053 13.5545 250.122 13.6726 250.215 13.7658C250.753 14.3658 253.936 17.3132 255.476 20.9497C256.717 23.8759 257.216 26.1725 257.395 26.6196C257.426 26.7142 257.479 26.7986 257.549 26.8648C257.618 26.9309 257.702 26.9765 257.793 26.9974C257.915 27.01 258.037 26.9764 258.139 26.9021C258.241 26.8278 258.316 26.7175 258.352 26.5899C258.519 26.0989 259.131 23.5123 259.87 21.936C261.579 18.257 262.639 17.5792 265.848 14.3785C265.902 14.3241 265.944 14.2566 265.97 14.1814C265.996 14.1062 266.005 14.0254 265.997 13.9455C265.989 13.8657 265.963 13.7891 265.922 13.7222C265.881 13.6553 265.826 13.5999 265.762 13.5607Z" fill="#FFD79B"/>
<path d="M307.621 40.1623C306.31 39.5485 304.97 38.672 304.102 37.7815C302.246 35.8839 301.849 33.0917 301.77 32.6296C301.757 32.5247 301.723 32.424 301.67 32.3342C301.617 32.2443 301.547 32.1674 301.464 32.1085C301.385 32.0536 301.295 32.0184 301.202 32.0055C301.108 31.9926 301.013 32.0024 300.923 32.034C300.821 32.0639 300.728 32.1221 300.653 32.2025C300.579 32.2829 300.525 32.3827 300.499 32.4919C299.87 34.7013 299.387 35.5061 298.526 36.6902C297.481 38.1214 296.231 39.0779 294.431 39.7451C294.321 39.7864 294.224 39.8584 294.149 39.9537C294.074 40.0489 294.026 40.1637 294.008 40.286C293.99 40.4083 294.003 40.5334 294.047 40.6481C294.091 40.7628 294.163 40.8629 294.256 40.9376C296.826 42.9967 297.693 43.4447 299.009 45.7047C299.574 46.6753 300.011 48.2329 300.137 48.5349C300.18 48.6615 300.256 48.7724 300.357 48.8544C300.458 48.9364 300.578 48.9861 300.705 48.9975C300.831 49.0089 300.958 48.9815 301.071 48.9187C301.183 48.8559 301.276 48.7602 301.338 48.643C301.501 48.3846 301.982 47.0362 303.106 45.3521C304.476 43.2973 307.188 41.7466 307.647 41.4194C307.785 41.3354 307.891 41.2049 307.95 41.049C308.009 40.893 308.016 40.7207 307.971 40.5598C307.943 40.4707 307.897 40.3891 307.837 40.3205C307.777 40.2519 307.703 40.1979 307.621 40.1623Z" fill="#FFD79B"/>
</svg>
