<svg width="313" height="200" viewBox="0 0 313 200" fill="none" xmlns="http://www.w3.org/2000/svg">
<path d="M229.523 118.408C230.043 116.596 230.454 114.896 232.085 113.776C234.735 111.957 236.832 110.95 237.461 107.51C237.884 105.191 237.919 102.343 239.754 100.604C240.525 99.8726 241.736 99.4138 242.911 99.3744C243.755 99.3159 244.593 99.556 245.278 100.053C246.253 100.708 247.033 101.738 247.306 102.769C247.939 105.214 246.462 107.65 245.594 109.841C244.305 113.092 245.55 115.053 246.835 118.004C247.625 119.817 247.074 121.477 246.555 123.29L229.523 118.408Z" fill="#FEF4A2"/>
<path d="M249.225 124.935L247.839 129.771C247.711 130.219 247.201 130.468 246.7 130.325L225.683 124.301C225.183 124.158 224.882 123.676 225.011 123.228L226.397 118.392C226.526 117.943 227.035 117.695 227.536 117.839L248.548 123.861C249.053 124.006 249.354 124.486 249.225 124.935Z" fill="#F7C1CB"/>
<path d="M247.812 135.531C248.48 138.26 247.38 144.848 246.64 148.167C245.56 153.06 244.412 157.81 243.02 162.665C240.918 170.001 238.638 182.065 229.672 182.731C227.512 182.891 225.302 182.498 223.108 181.935L223.028 181.912C222.257 181.712 221.489 181.493 220.726 181.269C219.962 181.044 219.194 180.83 218.432 180.595L218.352 180.572C216.191 179.887 214.108 179.049 212.362 177.77C205.111 172.455 209.567 161.015 211.669 153.679C213.061 148.824 214.605 144.188 216.282 139.465C217.418 136.261 219.97 130.087 221.979 128.126L247.812 135.531Z" fill="#B2DEF1"/>
<path d="M229.512 180.466C227.539 180.612 225.52 180.25 223.515 179.735L223.439 179.713C222.735 179.531 222.032 179.332 221.337 179.126C220.641 178.919 219.937 178.724 219.241 178.51L219.169 178.489C217.196 177.864 215.291 177.102 213.697 175.933C207.075 171.076 211.156 160.63 213.075 153.931C213.806 151.381 214.587 148.895 215.408 146.424L215.411 146.413C215.683 145.894 222.102 147.255 229.846 149.474C237.653 151.712 243.855 153.975 243.712 154.54C243.097 157.076 242.438 159.596 241.705 162.152C239.782 168.835 237.702 179.855 229.512 180.466Z" fill="#F1F6FD"/>
<path d="M250.703 128.37L248.851 134.833C248.81 134.976 248.741 135.109 248.649 135.225C248.556 135.342 248.442 135.439 248.312 135.511C248.182 135.583 248.039 135.628 247.891 135.645C247.744 135.662 247.594 135.649 247.452 135.608L222.244 128.383C221.956 128.3 221.712 128.106 221.567 127.844C221.421 127.582 221.386 127.273 221.468 126.984L223.32 120.522C223.403 120.234 223.597 119.99 223.859 119.845C224.122 119.7 224.431 119.664 224.719 119.747L249.927 126.972C250.07 127.012 250.203 127.081 250.32 127.173C250.436 127.266 250.533 127.38 250.605 127.51C250.677 127.64 250.723 127.783 250.74 127.93C250.756 128.078 250.744 128.228 250.703 128.37Z" fill="#F9CDD1"/>
<path d="M243.709 154.523C243.549 155.083 237.078 153.716 229.264 151.476C221.499 149.251 215.32 146.998 215.4 146.421C215.4 146.417 215.401 146.413 215.404 146.41C215.404 146.404 215.405 146.399 215.408 146.394C215.68 145.875 222.099 147.236 229.843 149.456C237.648 151.7 243.852 153.957 243.709 154.523Z" fill="#E4EFF9"/>
<path d="M82.8335 89.0527L82.2739 89.3851C81.8766 89.6238 81.3532 89.8912 80.6618 90.2542C79.9703 90.6171 79.1338 91.0048 78.1673 91.4193C77.2027 91.8643 76.0872 92.2712 74.8858 92.7563C73.6595 93.167 72.353 93.677 70.9319 94.0762L68.7564 94.7237L66.4643 95.2967C64.9152 95.7227 63.2745 95.9843 61.6338 96.3434C59.9777 96.6242 58.2931 96.8974 56.6065 97.1304C54.9103 97.3004 53.2237 97.5315 51.5544 97.6461C49.885 97.7607 48.2423 97.8657 46.6512 97.9116L42.0671 97.9555C40.6116 97.9402 39.2345 97.8524 37.9662 97.8104C36.6979 97.7683 35.5366 97.7225 34.5109 97.606L31.8521 97.3653L29.539 97.1514C29.3407 97.1275 29.1591 97.0283 29.0318 96.8743C28.9045 96.7204 28.8411 96.5234 28.8549 96.3241C28.8686 96.1248 28.9583 95.9384 29.1056 95.8034C29.2528 95.6684 29.4462 95.595 29.646 95.5985H29.6861L31.9781 95.7016L34.6064 95.822C35.6187 95.8927 36.7647 95.8774 38.0139 95.8678C39.2631 95.8583 40.6154 95.8774 42.0423 95.8277L46.5271 95.5794C48.0781 95.4629 49.6749 95.2585 51.3022 95.1C52.9296 94.9414 54.5493 94.6129 56.1901 94.3742C57.8155 94.0724 59.4372 93.7324 61.0206 93.3905C62.5888 92.9684 64.157 92.6475 65.6258 92.1699L67.7975 91.511L69.8489 90.7966C71.186 90.3554 72.4027 89.8129 73.5468 89.3717C74.6566 88.8636 75.6956 88.4339 76.5685 87.9755C77.4605 87.5495 78.2054 87.1331 78.8224 86.7969C79.4393 86.4608 79.9092 86.1666 80.1785 85.9871L80.6427 85.6815L80.7115 85.6375C80.9323 85.4841 81.1816 85.3766 81.4447 85.3212C81.7079 85.2659 81.9794 85.2638 82.2433 85.3152C82.5072 85.3666 82.7582 85.4704 82.9813 85.6205C83.2044 85.7705 83.3952 85.9638 83.5423 86.1888C83.6894 86.4139 83.7899 86.6661 83.8379 86.9307C83.8859 87.1952 83.8803 87.4667 83.8215 87.7291C83.7627 87.9915 83.652 88.2394 83.4957 88.4582C83.3395 88.677 83.1409 88.8623 82.9118 89.0031C82.887 89.0222 82.8564 89.0394 82.8335 89.0527Z" fill="#F9CDD1"/>
<path d="M76.8926 81.703L76.3673 82.1232C75.9853 82.4326 75.4906 82.7707 74.8393 83.2272C74.1746 83.6512 73.3723 84.1727 72.4192 84.6884C71.4852 85.2461 70.3774 85.7504 69.1893 86.3387C67.9707 86.8487 66.6738 87.4618 65.2412 87.9374C64.5288 88.1819 63.8125 88.4799 63.0542 88.7014L60.7373 89.3814C59.958 89.6316 59.1405 89.7921 58.323 89.9812L55.8399 90.5351C54.1457 90.7834 52.4419 91.1387 50.7171 91.2991L48.1347 91.5436L46.8511 91.6659L45.5714 91.7098L43.0463 91.7843C42.2135 91.8129 41.3922 91.8435 40.5842 91.7957L35.9351 91.6334C34.4663 91.4901 33.0701 91.3545 31.7941 91.2265L29.9567 91.0355C29.3836 90.9572 28.8278 90.8579 28.3121 90.7777L25.638 90.3441L23.3135 89.9621C23.113 89.929 22.9334 89.8189 22.8129 89.6553C22.6924 89.4916 22.6406 89.2875 22.6685 89.0862C22.6964 88.8849 22.8018 88.7025 22.9622 88.5778C23.1227 88.4532 23.3255 88.3961 23.5274 88.4187H23.577L25.8825 88.6842L28.5203 89.0109C29.0303 89.0682 29.5727 89.1408 30.1438 89.2019L31.9546 89.2974C33.2133 89.3661 34.5771 89.4368 36.0211 89.5132L40.5575 89.4655C41.3425 89.4788 42.139 89.4101 42.9432 89.347L45.3842 89.156L46.6181 89.0605L47.8501 88.8867L50.3332 88.5372C51.9835 88.308 53.5994 87.8916 55.2057 87.5822L57.5456 86.948C58.3096 86.7303 59.0736 86.5469 59.8109 86.2738L61.9693 85.5346C62.6741 85.2977 63.333 84.9864 63.9901 84.7266C65.3138 84.2204 66.4885 83.5939 67.6001 83.0725C68.6679 82.4785 69.6745 81.9685 70.4939 81.4241C71.3419 80.916 72.0219 80.4175 72.595 80.0164C73.168 79.6153 73.5958 79.2524 73.8212 79.0614C74.0466 78.8704 74.2357 78.7004 74.2357 78.7004L74.2529 78.6813C74.4445 78.4994 74.6701 78.3571 74.9167 78.2624C75.1634 78.1677 75.4263 78.1226 75.6904 78.1295C75.9545 78.1364 76.2146 78.1953 76.4559 78.3027C76.6973 78.4102 76.9151 78.5641 77.097 78.7558C77.2788 78.9474 77.4212 79.173 77.5158 79.4196C77.6105 79.6663 77.6557 79.9291 77.6488 80.1932C77.6418 80.4573 77.583 80.7175 77.4755 80.9588C77.3681 81.2002 77.2141 81.418 77.0225 81.5998C76.9812 81.6367 76.9379 81.6712 76.8926 81.703Z" fill="#F9CDD1"/>
<path d="M24.2156 85.9929C23.612 85.0379 23.0868 84.0274 22.2081 83.2577C21.4097 82.5605 21.3945 83.4353 21.5664 83.9587C21.7396 84.4425 21.9718 84.9031 22.2578 85.3301C22.5443 85.779 23.6865 87.1695 22.8308 87.5935C22.4622 87.7845 21.2397 87.3567 20.8291 87.2287C19.5875 86.8467 18.4797 86.182 17.2 85.8477C16.5372 85.672 15.0359 85.6051 15.9126 86.5124C16.9421 87.5782 18.9419 87.5305 20.0154 88.5428C20.13 88.6498 19.1081 88.7854 19.0164 88.7873C17.5094 88.8102 16.2048 88.7071 14.7398 89.1426C14.5488 89.2018 13.9567 89.3584 14.0025 89.6086C14.0484 89.8589 14.6348 89.8589 14.8449 89.8913C15.6407 90.0005 16.4465 90.0152 17.2458 89.9352C17.8723 89.8856 18.7548 89.792 19.2705 90.1721C19.981 90.6993 18.2543 91.1806 17.878 91.3315C17.4636 91.5034 15.5439 91.9924 15.5573 92.4546C15.5573 92.7564 16.3614 92.6934 16.604 92.6972C17.6507 92.6972 18.644 92.3782 19.6047 92.0764C20.7953 91.7021 22.005 91.3837 23.2339 91.1214C24.2997 90.8903 25.9079 90.6019 26.4676 89.7232C26.9508 88.9745 25.6444 87.8361 25.1573 87.3013C24.8046 86.8944 24.4894 86.4565 24.2156 85.9929Z" fill="#F9CDD1"/>
<path d="M27.8063 92.9397C27.2008 91.9847 26.6756 90.9762 25.795 90.2064C25.0004 89.5093 24.9833 90.3841 25.1552 90.9055C25.3288 91.3894 25.5603 91.8505 25.8447 92.2789C26.135 92.7258 27.2753 94.1163 26.4177 94.5423C26.051 94.7333 24.8266 94.3035 24.4179 94.1755C23.1763 93.7935 22.0666 93.1307 20.8021 92.7946C20.1355 92.6189 18.6342 92.5539 19.5109 93.4593C20.5405 94.5251 22.5403 94.4792 23.6176 95.4897C23.7264 95.5966 22.7084 95.7323 22.6148 95.7342C21.1077 95.7571 19.8013 95.6558 18.3381 96.0894C18.1471 96.1486 17.5531 96.3072 17.6009 96.5555C17.6486 96.8038 18.2312 96.8057 18.4413 96.8401C19.2371 96.9495 20.0431 96.9636 20.8422 96.8821C21.4726 96.8324 22.3512 96.7389 22.8669 97.119C23.5794 97.6461 21.8527 98.1256 21.4745 98.2803C21.06 98.4503 19.1442 98.9392 19.1556 99.4015C19.1556 99.7052 19.9598 99.6421 20.2024 99.6441C21.2472 99.6536 22.2404 99.3251 23.2031 99.0233C24.3924 98.6489 25.6021 98.3306 26.8322 98.0683C27.898 97.8352 29.5063 97.5468 30.0659 96.6701C30.5492 95.9175 29.2446 94.781 28.7537 94.2481C28.3994 93.8412 28.0824 93.4033 27.8063 92.9397Z" fill="#F9CDD1"/>
<path d="M165.119 72.5002C164.981 73.1611 164.301 73.673 163.82 74.1027C163.872 73.885 163.856 73.6577 163.9 73.4361C163.23 74.1696 162.454 74.9642 161.881 75.7588C161.931 75.5678 161.91 75.3271 161.944 75.1399C160.989 76.0701 160.076 77.4186 158.888 78.1215C158.867 77.8449 158.883 77.5668 158.936 77.2945C158.254 78.0356 157.165 78.9505 156.161 79.2179C156.175 79.1062 156.198 78.9957 156.229 78.8875C155.941 79.6515 154.335 80.5492 153.653 81.0134C153.653 80.7861 153.618 80.5358 153.624 80.3085C152.86 80.9809 151.999 81.976 151.068 82.4593C150.268 82.8757 148.776 83.5595 147.821 83.6664C148.045 83.3188 148.345 82.9578 148.471 82.549C147.951 83.3589 146.582 84.1783 145.676 84.3827C145.921 83.187 143.808 84.5145 143.442 84.6673C142.613 85.0092 141.761 85.6452 140.867 85.7465C140.89 85.6261 140.825 85.4581 140.846 85.3377C140.036 85.2174 139.01 86.0483 138.273 86.331C137.752 86.5483 137.196 86.6668 136.632 86.6805C136.689 86.5105 136.632 86.3615 136.756 86.1954C136.17 86.5774 135.186 87.0835 134.479 87.1084C134.384 87.1084 133.958 86.9441 133.679 86.9918C133.257 87.0663 132.904 87.3433 132.47 87.3242C132.489 86.1782 128.873 87.9641 129.674 86.5602C130.126 85.7637 132.399 85.5688 133.173 85.3415C135.032 84.7991 136.93 84.2127 138.836 83.8689C143.759 82.9807 147.909 79.9609 152.195 77.5657C154.136 76.4808 156.151 75.5563 158.01 74.3358C159.45 73.3922 160.945 72.4849 162.466 71.6808C163.174 71.2988 164.97 70.084 165.749 70.5691C166.704 71.1613 165.805 72.9433 165.071 73.2738C165.046 73.015 165.062 72.7539 165.119 72.5002Z" fill="#F1F6FD"/>
<path d="M126.085 73.547C125.072 72.9931 124.259 72.0304 123.351 71.3428C122.838 70.9512 122.452 70.7182 121.783 70.6915C122.037 71.1518 121.81 71.0143 122.077 71.2912C120.679 70.2464 119.495 68.8425 118.078 67.8837C118.127 68.1426 118.221 68.3909 118.357 68.6171C118.284 67.8531 117.333 67.0891 116.909 66.4626C116.586 65.9793 116.336 65.2593 115.973 64.9116C115.885 65.3548 116.066 65.7807 116.307 66.1474C115.195 65.5744 114.26 63.9891 113.56 62.929C113.597 63.1448 113.595 63.311 113.65 63.5249C112.831 62.0752 111.931 60.5471 111.096 59.1738C111.056 59.6723 111.287 60.1575 111.274 60.6732C110.269 58.5416 109.253 56.5322 107.645 54.794C107.609 55.2631 107.671 55.7344 107.825 56.1788C107.825 54.3471 105.943 52.6414 105.341 50.9682C105.364 51.3119 105.465 51.6458 105.637 51.9442C105.592 50.7485 104.774 49.4974 104.266 48.4488C103.823 47.5301 103.322 46.1414 102.581 45.4825C102.507 46.1854 102.807 46.9169 103.026 47.5453C103.311 46.1033 101.823 44.0633 101.246 42.7969C100.838 41.8935 100.454 39.8 99.6131 39.2614C99.6552 39.7848 99.9474 40.2871 100.085 40.8086C100.033 39.015 99.5941 36.6599 99.6074 34.6964C99.4795 35.1739 99.4451 35.6896 99.2942 36.1576C98.5454 33.8655 98.5301 30.6298 96.7461 28.8363C96.7882 29.5182 96.9372 30.1943 96.92 30.903C96.9887 28.5842 95.4779 26.0533 94.5248 23.9771C94.5248 24.531 94.5248 25.083 94.5362 25.635C93.8543 23.0889 93.1514 19.7979 91.6711 17.6414C91.6191 18.1002 91.6787 18.5648 91.8449 18.9957C91.8316 17.968 91.0465 16.5813 90.6989 15.6053C90.3379 14.6006 90.0113 13.149 89.2816 12.3754C89.2816 12.5798 89.2396 12.8032 89.2625 13.0114C89.2301 12.3601 88.5902 11.4261 88.0324 11.1338C88.0324 11.2408 88.021 11.3707 88.0324 11.4834C87.9083 11.0231 87.639 10.494 87.1863 10.3755C87.0602 11.8654 87.6524 13.4049 87.9503 14.8623C88.308 16.6961 88.8441 18.4905 89.551 20.22C90.4048 22.2389 91.4763 24.2311 92.1353 26.3207C92.8993 28.7503 93.6996 30.9889 94.9106 33.2371C97.2695 37.6149 98.3487 42.5601 100.389 47.1118C101.601 49.8133 103.145 52.3529 104.986 54.6718C106.69 56.8206 108.636 58.6409 110.415 60.7018C111.916 62.4457 112.833 64.5449 114.263 66.3327C115.461 67.8302 116.926 69.1749 118.167 70.6552C119.224 71.9139 119.667 72.315 121.224 72.5652C122.436 72.7562 123.623 73.4821 124.839 73.4171C125.013 73.0122 125.754 74.5288 125.535 74.1525L126.085 73.547Z" fill="#EEF3F9"/>
<path d="M91.3617 63.9603C90.0972 62.4742 88.8423 59.825 84.5542 57.1566C84.6173 57.6914 85.0719 58.1441 85.196 58.6732C84.093 58.1544 82.955 57.7134 81.7904 57.3534C82.0221 57.5552 82.2055 57.8065 82.3271 58.0887C81.4294 58.1117 79.2977 56.8835 79.08 56.1787C79.1812 56.5932 79.462 56.9561 79.653 57.3247C78.5948 56.723 77.3934 56.3506 76.3238 55.7451C76.4346 55.9208 76.425 56.2016 76.4938 56.3659C75.0708 56.5569 74.1635 55.4643 72.9048 55.1453C72.9162 55.2351 72.9468 55.323 72.9583 55.4089C71.5276 55.5312 70.1333 54.0719 68.6683 54.0031C68.7599 54.154 68.8058 54.4806 68.9376 54.6468C67.6158 54.3126 66.0095 53.3422 64.7717 52.6565C64.8629 52.8004 64.9415 52.9518 65.0067 53.1092C64.277 53.2066 63.578 52.5572 62.9056 52.3968C62.9515 52.6947 62.875 53.0156 62.9056 53.3079C62.4185 53.1875 61.9754 52.9602 61.5017 52.8475C61.1407 54.9715 64.5444 56.9542 66.0572 57.892C69.1248 59.7887 72.5973 61.0761 76.1041 61.9031C78.5872 62.4933 82.0253 62.9556 84.5504 62.5965C85.2934 62.4914 87.3066 61.7083 87.7975 61.2594L91.3617 63.9603Z" fill="#F1F6FD"/>
<path d="M128.91 93.5299C127.743 94.6759 126.798 96.1524 125.075 96.777C125.276 96.3311 125.455 95.8753 125.61 95.4113C124.486 97.01 122.244 97.7339 120.512 98.5342C120.666 98.3279 120.764 98.0854 120.913 97.8848C119.442 99.2734 116.477 99.5103 114.59 100.11C115.011 99.728 115.545 99.1837 115.82 98.5934C114.508 99.8044 112.067 100.591 110.316 100.706C110.563 100.652 110.797 100.549 111.004 100.404C111.211 100.259 111.388 100.074 111.523 99.8598C109.374 100.433 106.698 102.005 104.4 101.688C104.973 101.019 105.856 100.439 106.53 99.8713C105.29 99.707 103.818 100.295 102.561 100.421C100.987 100.576 99.413 100.561 97.8276 100.561C98.1145 100.578 98.4011 100.523 98.6616 100.402C98.9221 100.281 99.1481 100.096 99.3194 99.8656C97.9442 99.9591 94.7181 100.618 93.7802 99.4434C94.2345 99.2681 94.6518 99.0089 95.0103 98.6794C93.3581 98.7023 89.3833 99.1015 88.3251 97.7129C89.049 97.5124 89.6392 97.0539 90.2925 96.712C88.5409 96.0416 85.1735 96.6261 83.8861 95.2394C84.0637 95.1458 84.3063 94.9128 84.4362 94.8402C82.763 94.8134 79.5006 94.6759 78.2533 93.5184C78.6659 93.1498 79.2848 92.8709 79.6954 92.5424C77.942 92.4621 74.9203 92.3628 73.9442 90.6323C77.4034 89.555 70.1738 87.3164 70.105 86.3576C70.5712 86.3211 71.0197 86.1631 71.4058 85.8992C69.914 84.8983 68.1587 84.7531 67.0871 83.0532C67.7589 82.959 68.4197 82.7991 69.0602 82.5757C69.0316 82.102 64.3557 79.5597 66.9209 79.3056C66.1569 78.0565 62.9442 77.2982 63.0779 75.5925C66.0079 75.1627 60.0696 71.6864 59.7334 71.1096C62.9805 69.635 59.082 68.785 58.8834 66.81C58.7783 65.7843 59.7811 65.897 59.0343 64.6593C58.3066 63.4521 56.4461 62.8409 56.1826 61.3797C58.4995 61.0225 53.965 57.0935 56.429 57.0267C56.5646 55.7851 54.1789 54.089 56.0183 53.453C58.3925 52.6316 61.206 57.3705 62.3712 58.8011C66.4854 63.8571 69.9789 69.3504 74.076 74.4063C77.8293 79.0421 83.9319 83.9051 89.6106 86.0577C98.2058 89.2934 108.343 91.8509 117.497 89.8893C120.771 89.1883 125.264 86.1628 128.694 86.5448C132.524 86.9726 130.068 92.3246 128.971 94.6721C128.939 94.2977 128.901 93.9081 128.91 93.5299Z" fill="#F1F6FD"/>
<path d="M181.618 59.9283C181.394 59.34 181.492 58.6123 181.236 57.9762C180.915 57.1492 180.319 56.431 180.101 55.5714C180.101 55.8962 180.113 56.2266 180.101 56.5494C179.507 56.1196 179.114 55.1512 178.6 54.5687C178.6 54.8189 178.6 55.0767 178.6 55.3231C177.725 55.1417 177.045 54.2249 176.327 53.7588C176.346 53.8619 176.327 53.9899 176.358 54.1045C175.544 53.8963 174.658 53.4341 173.899 53.0444C173.946 53.1529 173.982 53.2654 174.008 53.3806C173.135 53.7626 172.163 53.1036 171.296 53.1896C172.123 53.9708 168.675 53.8295 168.335 53.9651C168.476 54.0242 168.619 54.0752 168.765 54.1179C168.897 55.134 166.664 54.7272 166.347 55.4148C166.185 55.7586 166.628 55.7262 166.286 56.1788C165.988 56.5819 165.065 57.1071 164.62 57.3459C164.811 57.7394 164.851 57.8387 164.603 58.2627C164.28 58.8109 163.031 59.0955 162.871 59.6991C162.771 60.0696 163.169 60.3218 163.18 60.7554C163.201 61.5041 162.361 61.8632 162.298 62.4859C162.258 62.8564 162.662 62.9481 162.59 63.4409C162.517 63.9337 161.99 64.0025 162.172 64.5315C162.282 64.8505 162.643 64.8352 162.745 65.2956C162.834 65.7062 162.678 66.1532 162.536 66.518C163.085 66.9287 164.212 66.8847 164.886 66.8695C165.289 64.3253 166.108 61.5881 167.913 59.6972C168.895 58.6677 170.194 57.9667 171.376 57.1855C172.48 56.4596 173.668 55.9573 175.005 55.8923C177.057 55.793 178.019 56.8474 179.408 58.1023C179.708 58.3865 180.023 58.6543 180.352 58.9045C180.766 59.1948 181.028 59.5406 181.343 59.7698L181.618 59.9283Z" fill="#F1F6FD"/>
<path d="M53.0215 45.0909C52.7311 45.4309 52.9508 46.0459 52.6528 46.3362C52.5287 46.4585 52.0168 46.4642 51.8315 46.5081C51.4915 46.5826 50.972 46.6629 50.7523 46.9742C50.3837 47.4937 51.0045 48.1202 50.7752 48.6646C50.4658 49.3981 49.5203 49.5241 49.1364 50.1793C48.6073 51.0808 49.7706 51.6099 50.0208 52.3625C50.2423 53.0329 49.7744 53.5467 50.3837 54.0987C51.1916 54.8265 52.2804 55.0538 53.2927 55.3938C54.3101 55.7613 55.3061 56.1854 56.2762 56.6639C56.9467 56.9753 57.8979 57.6037 58.6657 57.384C59.9321 57.0192 58.7211 55.006 59.3934 54.0815C60.1078 53.1017 60.9883 54.0281 61.1908 52.7178C61.3436 51.7169 60.2683 50.7981 59.6418 50.1735C58.0373 48.571 56.4978 46.9054 54.7042 45.5054C54.3585 45.2379 53.8084 44.7643 53.3271 44.9037C53.2087 44.9339 53.1022 44.9992 53.0215 45.0909Z" fill="#746B5C"/>
<path d="M134.194 77.3976C119.058 71.0161 110.493 63.9489 103.396 48.5022C99.4036 39.821 96.5194 30.7196 92.6478 22.002C90.3557 16.8602 86.3445 4.15251 80.75 2.20807C81.3727 2.42582 79.7949 9.42237 79.6326 10.173C78.8055 13.9607 77.776 17.7369 77.5602 21.6334C77.4418 23.7135 77.5334 25.9005 78.3242 27.8526C78.8113 29.0502 80.2572 31.0634 81.493 31.5218C80.7748 32.7939 79.1226 33.7527 77.8925 34.4786C76.3129 35.4126 74.7791 36.6408 75.4992 38.7036C76.0722 40.3272 77.3711 41.5592 78.7463 42.5237C79.4893 43.0547 82.5244 44.1568 82.7727 44.9839C83.1414 46.2254 81.6267 47.1919 80.9372 48.04C80.1178 49.06 79.1551 50.206 78.9717 51.5526C78.7062 53.5219 80.2381 54.9124 81.6955 55.9286C82.0775 56.196 86.3636 58.9025 86.5566 58.7211C85.0686 60.1288 82.6982 60.3121 81.7413 62.4591C81.0117 64.0922 82.0985 65.6966 83.1567 66.8847C86.3675 70.4928 91.0796 73.0141 95.4288 74.9585C97.3389 75.8142 99.3941 76.689 101.447 77.1665C112.085 79.6401 125.293 78.8245 136.537 78.4616L134.194 77.3976Z" fill="#EEF3F9"/>
<path d="M107.365 76.985C105.314 76.5056 103.264 75.6346 101.346 74.777C96.9992 72.8325 92.2852 70.3113 89.0763 66.7051C88.02 65.5132 86.9312 63.9068 87.6609 62.2775C88.6159 60.1325 90.9901 59.9473 92.4742 58.5395C92.2832 58.721 88.0009 56.0125 87.615 55.747C86.1558 54.7328 84.622 53.3404 84.8932 51.3692C85.0747 50.0321 86.0393 48.8861 86.8568 47.8585C87.5463 47.0009 89.0629 46.0382 88.6904 44.8024C88.444 43.9753 85.4108 42.8732 84.6678 42.3422C83.2983 41.3681 81.9937 40.138 81.4207 38.5221C80.6987 36.4592 82.2325 35.2311 83.8159 34.297C85.046 33.5712 86.6963 32.6124 87.4126 31.3422C86.1806 30.8818 84.7385 28.8591 84.2457 27.6729C83.4492 25.7209 83.3575 23.5319 83.4817 21.4519C83.6994 17.5611 84.727 13.7849 85.5579 9.99151C85.6133 9.73556 85.8387 8.73278 86.0813 7.5218C84.5055 4.95085 82.7234 2.909 80.7427 2.22137C81.3653 2.43912 79.7876 9.43568 79.6253 10.1863C78.7982 13.974 77.7687 17.7502 77.5528 21.6467C77.4344 23.7268 77.5261 25.9138 78.3169 27.8659C78.8039 29.0635 80.2499 31.0767 81.4857 31.5351C80.7675 32.8072 79.1153 33.766 77.8852 34.4919C76.3056 35.4259 74.7718 36.6541 75.4919 38.7169C76.0649 40.3405 77.3638 41.5725 78.739 42.537C79.482 43.068 82.5171 44.1701 82.7654 44.9972C83.134 46.2387 81.6194 47.2052 80.9298 48.0533C80.1104 49.0733 79.1477 50.2193 78.9644 51.5659C78.6989 53.5352 80.2307 54.9257 81.6881 55.9419C82.0701 56.2093 86.3563 58.9158 86.5492 58.7344C85.0613 60.1421 82.6909 60.3255 81.734 62.4724C81.0043 64.1055 82.0911 65.7099 83.1493 66.898C86.3601 70.5061 91.0723 73.0274 95.4215 74.9718C97.3315 75.8275 99.3868 76.7023 101.44 77.1798C110.828 79.363 122.216 78.9829 132.488 78.6162C123.902 78.8378 114.977 78.7556 107.365 76.985Z" fill="#746B5C"/>
<path d="M174.482 64.8945C174.726 65.1446 174.876 65.4699 174.91 65.817C175.044 67.6087 171.663 68.7547 170.462 69.4462C166.105 71.9713 162.096 75.2451 157.89 78.0242C149.275 83.7181 140.522 86.0465 130.467 87.714C129.308 93.8262 119.035 96.2023 114.231 97.165C106.295 98.7637 97.9768 98.4371 90.4512 95.2549C83.9341 92.4987 75.2509 87.2116 70.3574 82.1328C65.2651 76.8476 55.2373 51.1573 55.2373 51.1573C55.2373 51.1573 88.8544 60.593 95.4326 63.4046C110.064 69.6582 124.466 75.9728 140.879 75.438C145.148 75.3005 149.323 74.4352 153.363 73.0695C157.869 71.551 161.314 68.579 165.165 65.9259C167.022 64.6462 169.207 62.7495 171.64 63.4428C172.439 63.6625 173.795 64.1305 174.482 64.8945Z" fill="#F1F6FD"/>
<path d="M182.445 63.4025C182.445 65.3018 181.882 67.1584 180.828 68.7378C179.773 70.3171 178.273 71.5481 176.518 72.275C174.764 73.002 172.833 73.1923 170.97 72.8219C169.108 72.4515 167.397 71.5369 166.054 70.194C164.711 68.851 163.796 67.14 163.426 65.2772C163.055 63.4144 163.245 61.4837 163.972 59.7291C164.699 57.9745 165.93 56.4749 167.51 55.42C169.089 54.365 170.946 53.8022 172.845 53.8026C175.391 53.8031 177.832 54.8146 179.633 56.6149C181.433 58.4151 182.444 60.8566 182.445 63.4025Z" fill="#F1F6FD"/>
<path d="M181.583 61.2652L217.974 63.7063L180.432 69.2875C180.873 67.9861 181.175 66.6415 181.331 65.2763C181.484 63.9445 181.568 62.6057 181.583 61.2652Z" fill="#F8C7CE"/>
<path d="M177.984 61.5307C177.984 61.5307 179.054 60.5012 180.433 61.5307" stroke="#746B5C" stroke-width="3.01" stroke-linecap="round" stroke-linejoin="round"/>
<path d="M197.074 61.7924C198.073 64.6766 200.306 66.8292 202.266 69.0717C207.862 75.4685 212.895 84.1478 212.082 92.9474C211.419 100.135 203.295 100.467 197.689 100.383C193.191 100.316 188.422 99.0768 186.072 94.9148C183.532 90.4051 184.151 84.631 185.392 79.8253C186.026 77.3632 186.781 74.6681 187.906 72.3761C188.67 70.8098 189.503 69.276 190.37 67.7614C190.79 67.0203 191.219 66.283 191.655 65.5495C191.877 65.1675 192.435 63.7216 192.834 63.5535L197.074 61.7924Z" fill="#F1F6FD"/>
<path d="M192.744 64.9517C192.681 64.8848 192.744 64.4513 192.744 64.35C192.744 64.1686 192.733 63.989 192.718 63.8095C192.701 63.5003 192.636 63.1955 192.527 62.906C192.252 62.2184 191.722 61.6721 191.209 61.1564C190.37 60.3141 189.381 59.38 189.321 58.1003C189.317 57.6559 189.409 57.2158 189.593 56.811C189.656 56.6563 189.902 55.9037 190.116 55.9114C191.43 55.9629 192.599 57.0574 193.363 58.043C194.248 59.189 194.641 60.6082 194.941 62.0026C195.029 62.4037 195.107 62.8048 195.189 63.2078C194.807 61.4104 194.425 59.594 194.265 57.7603C194.165 56.9022 194.198 56.034 194.36 55.1855C194.572 54.242 195.189 53.6174 196.148 53.4665L196.694 53.392C196.669 54.1465 196.874 54.8818 197.076 55.6C197.29 56.3206 197.449 57.0561 197.552 57.8004C197.609 58.2397 197.649 58.6791 197.672 59.1184C197.703 59.6914 197.709 60.2644 197.684 60.8374C197.676 61.3939 197.581 61.9457 197.401 62.4724C197.21 63.0053 196.887 63.4886 196.669 64.0139C196.463 64.5854 196.163 65.1186 195.781 65.5916C195.56 65.8381 195.275 66.0192 194.958 66.1149C193.894 66.432 192.823 66.1608 192.916 65.114L192.744 64.9517Z" fill="#F1F6FD"/>
<path d="M217.975 63.6967L181.584 61.2652C181.569 62.6057 181.485 63.9445 181.332 65.2763L217.975 63.6967Z" fill="#F9CDD1"/>
<path d="M124.314 76.6489C122.626 75.562 121.709 73.4954 120.219 72.2557C120.288 72.4697 120.246 72.7562 120.355 73.0006C119.361 72.7924 118.324 71.2166 117.801 70.3667C117.754 70.7301 117.792 71.0996 117.912 71.4459C117.008 70.0973 115.278 69.2359 114.283 67.9485C114.268 68.2617 114.288 68.5756 114.342 68.8845C112.46 68.2503 110.888 65.3967 109.397 64.1208C109.478 64.4334 109.597 64.7349 109.752 65.0185C108.988 63.3204 107.628 62.1649 106.505 60.7018C106.505 61.0685 106.516 61.441 106.493 61.802C106.111 61.6434 105.894 60.9997 105.578 60.6464C105.175 60.1956 104.658 59.8919 104.241 59.4297C103.147 58.211 102.492 56.9771 102.492 55.5771C102.492 55.9896 102.492 56.4003 102.492 56.8129C101.689 54.4597 100.629 51.7741 99.4471 49.6692C99.4108 50.1277 99.4241 50.6013 99.4241 51.0674C99.4413 49.3044 98.4558 47.5166 97.7242 46.0325C97.6936 46.3973 97.7032 46.7736 97.7051 47.1441C97.3231 45.7345 96.8876 42.348 95.711 41.4407C95.6804 41.8705 95.6881 42.3136 95.6995 42.7491C95.0114 41.1344 94.4326 39.4753 93.9671 37.7829C93.5736 36.3638 93.4609 34.7459 92.8382 33.4089C92.8382 33.8348 92.9414 34.2512 92.8975 34.6753C92.0761 32.217 91.7228 29.4646 90.7104 27.1019C90.7104 27.4342 90.7104 27.7647 90.7104 28.0951C90.6474 26.9491 90.0667 25.7037 89.7554 24.5844C89.4441 23.4651 89.1996 22.2923 88.6934 21.2571C88.6934 21.6907 88.7087 22.1338 88.68 22.5597C88.0726 22.2026 87.6429 20.4186 87.3545 19.6775C86.8922 18.4932 86.6592 17.2077 86.0365 16.1056C86.006 16.4991 86.0365 16.9938 85.9429 17.3032C85.9697 16.3348 85.475 14.7495 84.8886 13.9855C83.2746 17.7789 84.4034 22.8978 85.3489 26.6855C86.239 30.2554 87.1692 33.7527 88.3401 37.2347C89.6026 40.9918 91.4745 44.4433 93.1744 48.0056C95.2889 52.435 96.8035 57.1414 99.6266 61.2137C101.756 64.2812 104.26 67.6926 107.357 69.8414C110.28 71.9079 113.389 73.6983 116.643 75.1896C118.362 75.9536 120.209 76.6699 122.098 76.6546C122.545 76.6546 122.863 76.4961 123.342 76.6546L124.314 76.6489Z" fill="#F1F6FD"/>
<path d="M126.484 76.8704C111.559 70.0076 103.231 62.6653 96.6219 46.999C92.9126 38.1955 90.334 29.0062 86.7316 20.1683C84.6095 14.952 81.0014 2.12399 75.4794 0C76.0983 0.236848 74.2933 7.18374 74.108 7.92294C73.153 11.6838 72.007 15.4257 71.667 19.3069C71.476 21.3851 71.5027 23.574 72.24 25.549C72.6888 26.7619 74.0717 28.819 75.2961 29.3175C74.5321 30.5648 72.8588 31.4721 71.6077 32.1578C69.9956 33.0402 68.4237 34.2188 69.0769 36.3026C69.5926 37.9434 70.8552 39.2155 72.1903 40.2335C72.9161 40.7875 75.9149 41.987 76.1346 42.8217C76.4669 44.0747 74.9179 44.9915 74.2035 45.8262C73.3536 46.8175 72.3508 47.9273 72.1254 49.2643C71.7949 51.2259 73.2829 52.6642 74.7059 53.7262C75.0879 54.0089 79.2767 56.8511 79.481 56.6754C77.953 58.0353 75.5749 58.1423 74.5492 60.2567C73.768 61.8631 74.8014 63.5038 75.8233 64.7282C78.9137 68.4356 83.5456 71.1059 87.828 73.1897C89.717 74.1085 91.736 75.0463 93.7721 75.5907C104.325 78.4061 117.554 78.0146 128.799 78.0146L126.484 76.8704Z" fill="#F1F6FD"/>
<path d="M99.6862 75.5907C97.6481 75.0463 95.6292 74.1085 93.7421 73.1897C89.4578 71.1059 84.8278 68.4356 81.7373 64.7282C80.7135 63.5038 79.6821 61.8631 80.4633 60.2567C81.489 58.1423 83.8652 58.0353 85.3951 56.6753C85.2041 56.8511 81.002 54.0013 80.62 53.7262C79.197 52.6642 77.7109 51.2259 78.0414 49.2643C78.2668 47.9273 79.2676 46.8118 80.1195 45.8262C80.832 44.9915 82.381 44.0747 82.0506 42.8217C81.829 41.987 78.8321 40.7875 78.1063 40.2335C76.7693 39.2155 75.5086 37.9415 74.9929 36.3026C74.3378 34.2188 75.9078 33.0402 77.5218 32.1578C78.7748 31.4721 80.4576 30.5648 81.2102 29.3175C79.9954 28.819 78.6125 26.7619 78.1541 25.549C77.4225 23.574 77.4015 21.385 77.581 19.3069C77.9229 15.4257 79.0709 11.6838 80.0221 7.92293C80.087 7.6689 80.343 6.67375 80.6276 5.47042C79.1358 2.84981 77.4187 0.752564 75.4609 0C76.0797 0.236848 74.2747 7.18374 74.0894 7.92293C73.1344 11.6838 71.9884 15.4257 71.6484 19.3069C71.4574 21.385 71.4841 23.574 72.2214 25.549C72.6703 26.7619 74.0532 28.819 75.2775 29.3175C74.5135 30.5648 72.8403 31.4721 71.5892 32.1578C69.9771 33.0402 68.4051 34.2188 69.0584 36.3026C69.5741 37.9434 70.8366 39.2155 72.1718 40.2335C72.8976 40.7875 75.8964 41.987 76.116 42.8217C76.4484 44.0747 74.8993 44.9915 74.1849 45.8262C73.335 46.8175 72.3322 47.9273 72.1068 49.2643C71.7764 51.2259 73.2643 52.6642 74.6873 53.7262C75.0693 54.0089 79.2581 56.8511 79.4624 56.6753C77.9344 58.0353 75.5564 58.1423 74.5307 60.2567C73.7495 61.8631 74.7828 63.5038 75.8047 64.7282C78.8952 68.4356 83.5271 71.1059 87.8094 73.1897C89.6985 74.1085 91.7174 75.0463 93.7535 75.5907C103.065 78.0738 114.459 78.0623 124.74 78.026C116.155 77.9821 107.237 77.6115 99.6862 75.5907Z" fill="#746B5C"/>
<path d="M163.579 67.2971C162.078 68.1146 160.474 68.4432 158.804 68.5539C159.007 69.1403 160.061 69.1575 160.115 69.7707C159.395 69.9712 158.587 69.8509 157.842 69.8967C158.256 70.4163 159.475 70.2272 159.637 70.9205C157.74 71.249 155.767 71.123 153.825 71.2338C154.046 72.1888 155.517 72.0398 156.296 72.1009C154.732 73.0369 151.85 72.2805 150.157 72.5555C150.562 72.7465 151.006 72.9528 151.395 73.1285C150.347 73.5106 148.591 73.3959 147.417 73.4284C147.514 73.5812 147.514 73.8353 147.68 73.9919C146.748 74.351 145.361 74.0377 144.339 74.1027C144.701 74.3074 145.086 74.4677 145.485 74.5802C144.844 75.1838 143.193 74.4675 142.349 75.1532C141.243 76.0567 142.798 76.7481 143.742 76.9315C148.011 77.7585 151.621 76.2362 155.513 74.8648C157.847 74.0416 166.328 71.272 164.055 67.1863L163.579 67.2971Z" fill="#F1F6FD"/>
<path d="M56.0527 51.1572C56.0234 50.8978 55.945 50.6463 55.8216 50.4161C56.3717 50.4486 57.0039 51.1362 57.5846 51.2623C57.5991 51.0943 57.5888 50.925 57.554 50.7599C57.936 51.1897 58.5969 51.5144 59.0821 51.8086C59.1213 51.6668 59.1394 51.5201 59.1356 51.3731C59.7411 51.6615 60.2682 52.3014 60.9367 52.5191C60.9019 52.3496 60.891 52.176 60.9043 52.0034C61.3531 52.0168 62.2681 53.0234 62.6634 53.3233C62.6443 53.2583 62.6367 53.1762 62.6176 53.1131C62.9347 53.6136 63.4026 54.1408 63.6204 54.6698C63.1028 54.7004 62.8735 54.5801 62.4189 54.3299C61.8211 54.0013 61.2023 53.8924 60.5738 53.6766C59.7659 53.3996 58.9541 53.0367 58.1576 52.7216C56.9524 52.2574 55.1283 52.0473 55.0347 50.4391C55.1626 50.5097 56.0508 51.0178 56.0527 51.1572Z" fill="#F1F6FD"/>
<path d="M58.1634 57.636C57.7279 57.3762 57.3096 57.0783 56.8799 56.8109C56.5781 56.6199 56.0395 56.4174 55.8695 56.1137C56.1846 56.1041 56.4845 56.2589 56.8245 56.2436C56.8856 55.6113 55.6975 55.1682 55.5486 54.5245C55.7396 54.515 55.9554 54.5245 56.1579 54.5112C56.1846 54.0031 55.2315 53.1837 54.8456 52.8876C55.0519 52.8876 55.241 52.9315 55.4378 52.9315C55.4607 52.3872 54.7769 52.0949 54.54 51.7034C54.6497 51.7056 54.759 51.7171 54.8667 51.7377C54.775 51.5563 54.5763 51.3557 54.542 51.1284C55.0443 51.0444 56.1063 51.5104 56.4998 51.839C56.9735 52.221 57.0938 52.985 57.3001 53.5485C57.6821 54.5704 58.7613 56.3544 58.3659 57.4374L58.1634 57.636Z" fill="#F1F6FD"/>
<path d="M34.762 160.561C32.5982 159.208 31.1231 157.424 29.9314 154.847C28.945 152.724 28.3991 151.285 27.7519 147.424C27.7384 147.338 27.7047 147.256 27.6539 147.188C27.6032 147.12 27.5372 147.068 27.4623 147.036C27.3875 147.003 27.3062 146.993 27.2265 147.005C27.1468 147.017 27.0713 147.051 27.0072 147.104C26.8927 147.216 26.8201 147.37 26.8032 147.537C26.6732 148.328 26.0325 153.111 23.6334 156.188C22.53 157.603 20.8743 158.946 19.2589 159.842C19.1662 159.893 19.0917 159.976 19.0471 160.078C18.9987 160.185 18.9872 160.308 19.0146 160.423C19.0528 160.555 19.1218 160.673 19.2147 160.766C19.7528 161.366 22.9355 164.313 24.4756 167.95C25.7167 170.876 26.2158 173.172 26.3951 173.62C26.4263 173.714 26.4792 173.799 26.5488 173.865C26.6184 173.931 26.7024 173.977 26.7928 173.997C26.9148 174.01 27.0371 173.976 27.1389 173.902C27.2408 173.828 27.3159 173.718 27.3516 173.59C27.5193 173.099 28.1314 170.512 28.8696 168.936C30.5786 165.257 31.6391 164.579 34.8478 161.379C34.9021 161.324 34.9439 161.257 34.9698 161.181C34.9958 161.106 35.0052 161.025 34.9973 160.946C34.9889 160.866 34.9632 160.789 34.9223 160.722C34.8814 160.655 34.8265 160.6 34.762 160.561Z" fill="#FFD79B"/>
<path d="M13.621 126.162C12.3101 125.548 10.97 124.672 10.1018 123.782C8.24614 121.884 7.8485 119.092 7.7703 118.63C7.75699 118.525 7.72282 118.424 7.67003 118.334C7.61725 118.244 7.54706 118.167 7.46411 118.108C7.38512 118.054 7.29543 118.018 7.20177 118.006C7.10811 117.993 7.01291 118.002 6.92332 118.034C6.8208 118.064 6.72757 118.122 6.65308 118.202C6.57859 118.283 6.52549 118.383 6.49916 118.492C5.86956 120.701 5.38709 121.506 4.52553 122.69C3.48105 124.121 2.23112 125.078 0.431125 125.745C0.321046 125.786 0.223555 125.858 0.149004 125.954C0.0744529 126.049 0.0256173 126.164 0.00767864 126.286C-0.01026 126.408 0.00337043 126.533 0.0471178 126.648C0.0908651 126.763 0.1631 126.863 0.256161 126.938C2.82626 128.997 3.69312 129.445 5.00932 131.705C5.57398 132.675 6.01139 134.233 6.13731 134.535C6.18018 134.662 6.25647 134.772 6.35711 134.854C6.45775 134.936 6.57849 134.986 6.70498 134.997C6.83148 135.009 6.9584 134.982 7.07066 134.919C7.18291 134.856 7.27577 134.76 7.33819 134.643C7.50122 134.385 7.98237 133.036 9.10638 131.352C10.4756 129.297 13.1875 127.747 13.6475 127.419C13.7847 127.335 13.8912 127.205 13.9499 127.049C14.0085 126.893 14.0159 126.721 13.9709 126.56C13.943 126.471 13.8973 126.389 13.8369 126.32C13.7765 126.252 13.7028 126.198 13.621 126.162Z" fill="#FFD79B"/>
<path d="M285.594 97.0822C284.188 96.3239 282.754 95.2412 281.824 94.1411C279.836 91.7986 279.41 88.3474 279.325 87.7765C279.311 87.6468 279.275 87.5222 279.218 87.4113C279.162 87.3005 279.086 87.206 278.997 87.1345C278.912 87.0664 278.816 87.0227 278.716 87.0068C278.616 86.9908 278.514 87.0031 278.419 87.0425C278.309 87.0789 278.208 87.1503 278.128 87.2494C278.048 87.3484 277.991 87.4716 277.963 87.6065C277.288 90.3359 276.771 91.3301 275.848 92.7929C274.729 94.561 273.392 95.7426 271.462 96.5668C271.344 96.6178 271.24 96.7068 271.16 96.8245C271.08 96.9421 271.027 97.084 271.008 97.235C270.989 97.3861 271.004 97.5406 271.05 97.6823C271.097 97.8241 271.175 97.9476 271.274 98.04C274.029 100.584 274.957 101.137 276.368 103.931C276.973 105.128 277.442 107.054 277.576 107.425C277.622 107.582 277.704 107.719 277.812 107.82C277.92 107.921 278.049 107.983 278.185 107.997C278.32 108.011 278.456 107.977 278.576 107.9C278.697 107.822 278.796 107.704 278.863 107.559C279.038 107.24 279.553 105.574 280.757 103.494C282.224 100.955 285.128 99.0394 285.622 98.6351C285.769 98.5314 285.883 98.3702 285.946 98.1776C286.009 97.9849 286.017 97.772 285.969 97.5732C285.938 97.4636 285.889 97.3632 285.824 97.2786C285.76 97.1939 285.681 97.127 285.594 97.0822Z" fill="#FFD79B"/>
<path d="M270.762 47.5607C268.598 46.2079 267.123 44.4236 265.931 41.847C264.945 39.7245 264.399 38.2854 263.752 34.4239C263.738 34.3375 263.705 34.2564 263.654 34.1884C263.603 34.1203 263.537 34.0677 263.462 34.0355C263.387 34.0034 263.306 33.9928 263.227 34.0048C263.147 34.0168 263.071 34.051 263.007 34.1041C262.893 34.2163 262.82 34.3704 262.803 34.5371C262.673 35.3281 262.033 40.1108 259.633 43.1884C258.53 44.6033 256.874 45.9462 255.259 46.8419C255.166 46.8929 255.092 46.976 255.047 47.0782C254.999 47.1853 254.987 47.3078 255.015 47.4234C255.053 47.5545 255.122 47.6726 255.215 47.7658C255.753 48.3658 258.936 51.3132 260.476 54.9497C261.717 57.8759 262.216 60.1725 262.395 60.6196C262.426 60.7142 262.479 60.7986 262.549 60.8648C262.618 60.9309 262.702 60.9765 262.793 60.9974C262.915 61.01 263.037 60.9764 263.139 60.9021C263.241 60.8278 263.316 60.7175 263.352 60.5899C263.519 60.0989 264.131 57.5123 264.87 55.936C266.579 52.257 267.639 51.5792 270.848 48.3785C270.902 48.3241 270.944 48.2566 270.97 48.1814C270.996 48.1062 271.005 48.0254 270.997 47.9455C270.989 47.8657 270.963 47.7891 270.922 47.7222C270.881 47.6553 270.826 47.5999 270.762 47.5607Z" fill="#FFD79B"/>
<path d="M312.621 74.1623C311.31 73.5485 309.97 72.672 309.102 71.7815C307.246 69.8839 306.849 67.0917 306.77 66.6296C306.757 66.5247 306.723 66.424 306.67 66.3342C306.617 66.2443 306.547 66.1674 306.464 66.1085C306.385 66.0536 306.295 66.0184 306.202 66.0055C306.108 65.9926 306.013 66.0024 305.923 66.034C305.821 66.0639 305.728 66.1221 305.653 66.2025C305.579 66.2829 305.525 66.3827 305.499 66.4919C304.87 68.7013 304.387 69.5061 303.526 70.6902C302.481 72.1214 301.231 73.0779 299.431 73.7451C299.321 73.7864 299.224 73.8584 299.149 73.9537C299.074 74.0489 299.026 74.1637 299.008 74.286C298.99 74.4083 299.003 74.5334 299.047 74.6481C299.091 74.7628 299.163 74.8629 299.256 74.9376C301.826 76.9967 302.693 77.4447 304.009 79.7047C304.574 80.6753 305.011 82.2329 305.137 82.5349C305.18 82.6615 305.256 82.7724 305.357 82.8544C305.458 82.9364 305.578 82.9861 305.705 82.9975C305.831 83.0089 305.958 82.9815 306.071 82.9187C306.183 82.8559 306.276 82.7602 306.338 82.643C306.501 82.3846 306.982 81.0362 308.106 79.3521C309.476 77.2973 312.188 75.7466 312.647 75.4194C312.785 75.3354 312.891 75.2049 312.95 75.049C313.009 74.893 313.016 74.7207 312.971 74.5598C312.943 74.4707 312.897 74.3891 312.837 74.3205C312.777 74.2519 312.703 74.1979 312.621 74.1623Z" fill="#FFD79B"/>
<path d="M131.293 139.652C112.033 122.792 78.1945 145.405 106.872 168.906C115.961 176.371 126.702 176.652 136.558 180.395C136.739 180.481 136.945 180.556 137.156 180.635C139.55 181.699 143.516 184.118 147.706 186.682C149.444 181.793 151.085 176.98 152.41 174.188C152.613 173.738 152.828 173.327 153.011 172.988C158.344 163.867 166.515 156.891 168.887 145.372C176.539 108.315 134.112 112.948 131.293 139.652Z" fill="#F1F6FD"/>
<path fill-rule="evenodd" clip-rule="evenodd" d="M143.507 157.748C143.952 157.981 144.123 158.53 143.891 158.975C142.308 161.999 139.887 162.88 137.878 162.96C136.896 162.999 136.023 162.849 135.4 162.693C135.087 162.614 134.831 162.532 134.651 162.469C134.561 162.437 134.489 162.41 134.438 162.39C134.412 162.38 134.391 162.371 134.376 162.365C134.369 162.362 134.362 162.359 134.357 162.357L134.351 162.354L134.349 162.353L134.348 162.353C134.347 162.353 134.347 162.353 134.708 161.518L134.347 162.353C133.886 162.153 133.674 161.618 133.874 161.157C134.073 160.697 134.607 160.485 135.067 160.683L135.072 160.685C135.078 160.688 135.089 160.692 135.105 160.698C135.136 160.711 135.187 160.73 135.254 160.754C135.389 160.801 135.591 160.866 135.843 160.929C136.351 161.057 137.045 161.174 137.806 161.144C139.282 161.085 141.049 160.484 142.28 158.132C142.513 157.687 143.062 157.515 143.507 157.748Z" fill="#746B5C"/>
<path fill-rule="evenodd" clip-rule="evenodd" d="M128.549 149.674C128.937 149.936 129.038 150.463 128.776 150.85C127.134 153.276 125.063 154.035 123.383 154.148C122.559 154.203 121.844 154.104 121.335 153.991C121.079 153.934 120.872 153.873 120.725 153.825C120.651 153.801 120.593 153.78 120.55 153.764C120.529 153.756 120.511 153.749 120.498 153.744C120.492 153.741 120.486 153.739 120.482 153.737L120.476 153.735L120.474 153.734L120.473 153.734C120.472 153.733 120.472 153.733 120.798 152.951L120.472 153.733C120.04 153.554 119.835 153.057 120.015 152.625C120.194 152.194 120.688 151.99 121.12 152.167C121.12 152.167 121.121 152.167 121.122 152.168C121.125 152.169 121.132 152.172 121.143 152.176C121.166 152.184 121.202 152.198 121.253 152.214C121.353 152.247 121.507 152.293 121.702 152.336C122.095 152.423 122.644 152.499 123.27 152.457C124.488 152.375 126.056 151.846 127.372 149.9C127.635 149.513 128.162 149.411 128.549 149.674Z" fill="#746B5C"/>
<path fill-rule="evenodd" clip-rule="evenodd" d="M148.976 142.444C149.364 142.706 149.465 143.233 149.203 143.621C147.561 146.047 145.489 146.806 143.809 146.919C142.985 146.974 142.27 146.875 141.76 146.762C141.504 146.705 141.297 146.644 141.15 146.596C141.076 146.572 141.018 146.551 140.975 146.535C140.954 146.527 140.937 146.52 140.923 146.515C140.917 146.513 140.911 146.51 140.907 146.509L140.901 146.506L140.899 146.505L140.898 146.505C140.897 146.505 140.897 146.505 141.222 145.722L140.897 146.505C140.465 146.325 140.26 145.829 140.44 145.397C140.619 144.966 141.113 144.761 141.544 144.938C141.545 144.938 141.545 144.938 141.546 144.939C141.55 144.94 141.557 144.943 141.568 144.947C141.59 144.955 141.627 144.969 141.677 144.985C141.778 145.018 141.932 145.064 142.127 145.107C142.52 145.194 143.069 145.27 143.695 145.228C144.915 145.146 146.483 144.617 147.799 142.671C148.062 142.283 148.589 142.182 148.976 142.444ZM141.544 144.938L141.544 144.938C141.544 144.938 141.544 144.938 141.544 144.938Z" fill="#746B5C"/>
<path d="M151.564 149.856C151.773 150.446 151.802 151.085 151.648 151.692C151.494 152.299 151.163 152.847 150.697 153.266C150.232 153.685 149.653 153.956 149.033 154.046C148.413 154.136 147.78 154.04 147.215 153.77C146.65 153.5 146.177 153.069 145.857 152.531C145.537 151.992 145.384 151.371 145.417 150.746C145.449 150.12 145.667 149.519 146.042 149.017C146.417 148.515 146.932 148.136 147.522 147.927C148.314 147.647 149.185 147.692 149.943 148.054C150.701 148.416 151.284 149.064 151.564 149.856Z" fill="#F9CDD1"/>
<path d="M128.619 157.976C128.828 158.567 128.857 159.206 128.703 159.813C128.548 160.42 128.218 160.968 127.752 161.387C127.287 161.806 126.707 162.077 126.087 162.167C125.468 162.257 124.835 162.161 124.27 161.891C123.705 161.621 123.232 161.19 122.912 160.652C122.592 160.113 122.438 159.492 122.471 158.867C122.504 158.241 122.722 157.64 123.097 157.138C123.471 156.636 123.987 156.257 124.577 156.048C124.969 155.909 125.385 155.848 125.8 155.87C126.215 155.892 126.622 155.995 126.998 156.174C127.373 156.353 127.71 156.605 127.988 156.914C128.266 157.223 128.48 157.584 128.619 157.976Z" fill="#F9CDD1"/>
</svg>
