<svg width="336" height="185" viewBox="0 0 336 185" fill="none" xmlns="http://www.w3.org/2000/svg">
<path d="M42.7903 71.59L42.353 71.8497C42.0425 72.0363 41.6336 72.2453 41.0932 72.5289C40.5529 72.8125 39.8992 73.1155 39.1439 73.4394C38.3901 73.7871 37.5184 74.1051 36.5796 74.4842C35.6213 74.8051 34.6004 75.2036 33.4899 75.5156L31.7898 76.0216L29.9987 76.4694C28.7881 76.8022 27.506 77.0067 26.2238 77.2873C24.9297 77.5067 23.6133 77.7202 22.2953 77.9023C20.9698 78.0351 19.6519 78.2157 18.3473 78.3053C17.0428 78.3948 15.7591 78.4769 14.5158 78.5128L10.9335 78.5471C9.79614 78.5352 8.71996 78.4665 7.72886 78.4337C6.73777 78.4008 5.83026 78.365 5.02873 78.2739L2.95102 78.0859L1.14347 77.9187C0.988483 77.9 0.846594 77.8225 0.747109 77.7022C0.647624 77.5819 0.598135 77.428 0.608862 77.2723C0.61959 77.1165 0.689719 76.9708 0.804759 76.8653C0.919799 76.7598 1.07097 76.7025 1.22705 76.7052H1.25839L3.04953 76.7858L5.10336 76.8798C5.89445 76.9351 6.79001 76.9231 7.76618 76.9157C8.74235 76.9082 9.79913 76.9231 10.9141 76.8843L14.4188 76.6903C15.6308 76.5992 16.8786 76.4395 18.1503 76.3156C19.422 76.1917 20.6877 75.935 21.9699 75.7484C23.2401 75.5126 24.5073 75.2469 25.7447 74.9797C26.9701 74.6499 28.1956 74.3991 29.3434 74.026L31.0405 73.511L32.6436 72.9528C33.6884 72.608 34.6392 72.1841 35.5332 71.8393C36.4005 71.4423 37.2124 71.1064 37.8946 70.7482C38.5916 70.4153 39.1737 70.0899 39.6558 69.8272C40.138 69.5645 40.5051 69.3347 40.7156 69.1944L41.0783 68.9556L41.132 68.9212C41.3046 68.8014 41.4995 68.7173 41.7051 68.6741C41.9107 68.6308 42.1229 68.6292 42.3291 68.6694C42.5353 68.7095 42.7314 68.7906 42.9058 68.9079C43.0801 69.0251 43.2292 69.1762 43.3442 69.352C43.4592 69.5279 43.5377 69.725 43.5752 69.9317C43.6127 70.1385 43.6083 70.3506 43.5624 70.5557C43.5164 70.7607 43.4299 70.9545 43.3078 71.1254C43.1857 71.2964 43.0305 71.4412 42.8515 71.5512C42.8321 71.5661 42.8082 71.5796 42.7903 71.59Z" fill="#F9CDD1"/>
<path d="M38.1476 65.8465L37.7371 66.1749C37.4386 66.4167 37.052 66.6809 36.543 67.0376C36.0236 67.369 35.3967 67.7765 34.6519 68.1795C33.922 68.6153 33.0563 69.0094 32.1279 69.4691C31.1756 69.8676 30.1621 70.3467 29.0426 70.7184C28.4859 70.9095 27.9262 71.1423 27.3336 71.3154L25.5231 71.8468C24.9141 72.0423 24.2752 72.1677 23.6364 72.3155L21.696 72.7483C20.3721 72.9424 19.0406 73.22 17.6928 73.3454L15.6748 73.5365L14.6718 73.632L13.6717 73.6663L11.6985 73.7245C11.0477 73.7469 10.4059 73.7708 9.77452 73.7335L6.14148 73.6066C4.99367 73.4947 3.90258 73.3887 2.90551 73.2887L1.46962 73.1394C1.02183 73.0782 0.587478 73.0006 0.184472 72.9379L-1.90518 72.5991L-3.72169 72.3006C-3.87835 72.2747 -4.0187 72.1887 -4.11285 72.0608C-4.20699 71.9329 -4.24748 71.7734 -4.22568 71.6161C-4.20388 71.4588 -4.12152 71.3163 -3.99614 71.2189C-3.87077 71.1214 -3.71231 71.0768 -3.55452 71.0945H-3.51571L-1.71413 71.302L0.347171 71.5572C0.745698 71.602 1.1696 71.6587 1.61589 71.7065L3.03088 71.7811C4.01452 71.8349 5.08025 71.8901 6.20866 71.9498L9.75362 71.9125C10.3671 71.9229 10.9895 71.8692 11.6179 71.8199L13.5254 71.6707L14.4897 71.5961L15.4524 71.4602L17.3928 71.1871C18.6824 71.008 19.9452 70.6826 21.2004 70.4408L23.0289 69.9452C23.6259 69.7751 24.223 69.6318 24.7991 69.4183L26.4858 68.8407C27.0366 68.6556 27.5515 68.4123 28.065 68.2093C29.0994 67.8138 30.0173 67.3242 30.886 66.9167C31.7204 66.4525 32.507 66.054 33.1473 65.6286C33.81 65.2315 34.3414 64.842 34.7892 64.5285C35.237 64.2151 35.5713 63.9315 35.7475 63.7822C35.9236 63.633 36.0714 63.5001 36.0714 63.5001L36.0848 63.4852C36.2346 63.3431 36.4108 63.2319 36.6035 63.1579C36.7963 63.0839 37.0017 63.0486 37.2081 63.054C37.4145 63.0594 37.6178 63.1054 37.8064 63.1894C37.995 63.2734 38.1652 63.3937 38.3073 63.5434C38.4494 63.6932 38.5606 63.8694 38.6346 64.0622C38.7086 64.2549 38.7439 64.4603 38.7385 64.6667C38.7331 64.8731 38.6871 65.0764 38.6031 65.265C38.5191 65.4536 38.3988 65.6238 38.2491 65.7659C38.2169 65.7947 38.183 65.8217 38.1476 65.8465Z" fill="#F9CDD1"/>
<path d="M-0.211323 74.6276C-0.684481 73.8813 -1.09495 73.0932 -1.78305 72.4916C-2.40398 71.9468 -2.41741 72.6304 -2.28307 73.0379C-2.14736 73.4161 -1.96644 73.7764 -1.74424 74.1111C-1.51736 74.4604 -0.626272 75.547 -1.29646 75.8799C-1.58304 76.0291 -2.5398 75.6933 -2.85922 75.5933C-3.82941 75.2947 -4.69662 74.7768 -5.68473 74.5141C-6.20565 74.3768 -7.37885 74.326 -6.69374 75.0335C-5.88922 75.8664 -4.32645 75.8306 -3.48462 76.6202C-3.39954 76.7038 -4.1951 76.8098 -4.26824 76.8112C-5.44591 76.8292 -6.46686 76.7501 -7.6102 77.0889C-7.75947 77.1351 -8.22367 77.259 -8.18635 77.4531C-8.14903 77.6471 -7.69379 77.6486 -7.52961 77.6755C-6.90773 77.761 -6.27788 77.772 -5.65339 77.7083C-5.16083 77.6695 -4.47422 77.5964 -4.07122 77.8934C-3.51447 78.3054 -4.8638 78.68 -5.15934 78.8009C-5.48323 78.9337 -6.98033 79.3158 -6.97137 79.6771C-6.97137 79.9144 -6.34297 79.8651 -6.15341 79.8666C-5.33695 79.8741 -4.5608 79.6174 -3.80852 79.3815C-2.87912 79.089 -1.9338 78.8402 -0.972561 78.6352C-0.139683 78.4531 1.1171 78.2277 1.55444 77.5426C1.93207 76.9545 0.912608 76.0664 0.529007 75.65C0.252143 75.332 0.00437737 74.9898 -0.211323 74.6276Z" fill="#F9CDD1"/>
<path d="M107.092 58.655C106.984 59.1714 106.453 59.5714 106.077 59.9073C106.117 59.7371 106.105 59.5595 106.139 59.3864C105.615 59.9595 105.009 60.5804 104.562 61.2014C104.6 61.0521 104.584 60.864 104.611 60.7178C103.865 61.4447 103.151 62.4985 102.223 63.0477C102.206 62.8316 102.219 62.6143 102.26 62.4014C101.727 62.9806 100.876 63.6955 100.091 63.9045C100.103 63.8172 100.12 63.7309 100.145 63.6463C99.9195 64.2433 98.6642 64.9448 98.1314 65.3075C98.1314 65.1299 98.1045 64.9344 98.109 64.7568C97.5119 65.2822 96.8388 66.0598 96.1119 66.4375C95.4865 66.7628 94.3207 67.2972 93.5744 67.3808C93.7491 67.1091 93.9834 66.827 94.0819 66.5076C93.6759 67.1405 92.6057 67.7808 91.8982 67.9405C92.0893 67.0061 90.4385 68.0435 90.1519 68.1629C89.5041 68.4301 88.8384 68.9271 88.1398 69.0062C88.1578 68.9122 88.107 68.7809 88.1234 68.6868C87.4905 68.5928 86.689 69.2421 86.1129 69.463C85.7061 69.6328 85.2713 69.7254 84.8307 69.7361C84.8755 69.6033 84.8307 69.4869 84.9277 69.357C84.4695 69.6555 83.7008 70.0511 83.1485 70.0705C83.0739 70.0705 82.7411 69.9421 82.5231 69.9794C82.1933 70.0376 81.9171 70.2541 81.5783 70.2391C81.5932 69.3436 78.7677 70.7392 79.3931 69.6421C79.7469 69.0197 81.5231 68.8674 82.1276 68.6898C83.5799 68.2659 85.0636 67.8077 86.5532 67.539C90.3997 66.8449 93.6431 64.4851 96.9925 62.6134C98.509 61.7656 100.084 61.0432 101.536 60.0894C102.661 59.352 103.83 58.643 105.018 58.0146C105.572 57.7161 106.975 56.7668 107.584 57.1459C108.33 57.6087 107.627 59.0013 107.054 59.2595C107.034 59.0573 107.047 58.8532 107.092 58.655Z" fill="#F1F6FD"/>
<path d="M76.5884 59.4733C75.7973 59.0405 75.1614 58.2882 74.4524 57.7508C74.0509 57.4449 73.7494 57.2628 73.227 57.2419C73.4255 57.6016 73.2479 57.4941 73.4569 57.7105C72.3643 56.8941 71.4388 55.797 70.3313 55.0477C70.3699 55.2501 70.4436 55.4441 70.5492 55.6209C70.4925 55.0238 69.7492 54.4268 69.4178 53.9372C69.1656 53.5596 68.97 52.9969 68.6865 52.7252C68.6178 53.0715 68.7596 53.4044 68.9477 53.6909C68.079 53.2432 67.3476 52.0043 66.8013 51.1759C66.8296 51.3446 66.8281 51.4744 66.8714 51.6416C66.2311 50.5087 65.5281 49.3146 64.8758 48.2414C64.8445 48.631 65.0251 49.0101 65.0146 49.4131C64.2295 47.7474 63.4354 46.1771 62.1787 44.8189C62.1509 45.1854 62.1987 45.5537 62.319 45.901C62.319 44.4696 60.8487 43.1367 60.3786 41.8292C60.3963 42.0977 60.4755 42.3587 60.6099 42.5919C60.5741 41.6575 59.9353 40.6798 59.5382 39.8604C59.192 39.1424 58.8009 38.0573 58.2217 37.5424C58.1635 38.0916 58.3979 38.6633 58.5695 39.1544C58.7919 38.0275 57.6292 36.4334 57.1784 35.4438C56.859 34.7377 56.559 33.1018 55.9022 32.6809C55.9351 33.0899 56.1634 33.4825 56.2709 33.8899C56.2306 32.4884 55.8873 30.648 55.8978 29.1136C55.7978 29.4867 55.7709 29.8897 55.653 30.2554C55.0679 28.4643 55.0559 25.9358 53.6618 24.5343C53.6946 25.0671 53.8111 25.5955 53.7976 26.1493C53.8514 24.3372 52.6707 22.3595 51.9259 20.737C51.9259 21.1699 51.9259 21.6013 51.9349 22.0326C51.402 20.043 50.8527 17.4712 49.6959 15.7861C49.6553 16.1446 49.7019 16.5077 49.8318 16.8443C49.8213 16.0413 49.2079 14.9577 48.9362 14.1949C48.6541 13.4098 48.3989 12.2754 47.8287 11.6709C47.8287 11.8306 47.7959 12.0053 47.8138 12.168C47.7884 11.659 47.2884 10.9291 46.8525 10.7007C46.8525 10.7843 46.8436 10.8858 46.8525 10.9739C46.7555 10.6141 46.545 10.2007 46.1913 10.1082C46.0928 11.2724 46.5555 12.4754 46.7883 13.6143C47.0678 15.0473 47.4868 16.4496 48.0391 17.8011C48.7063 19.3788 49.5437 20.9356 50.0587 22.5685C50.6557 24.4671 51.2811 26.2164 52.2274 27.9732C54.0708 31.3943 54.9141 35.2587 56.5082 38.8156C57.4553 40.9266 58.6622 42.9113 60.1009 44.7233C61.4324 46.4025 62.9533 47.825 64.343 49.4355C65.5161 50.7983 66.2326 52.4386 67.3506 53.8357C68.2864 55.0059 69.4313 56.0567 70.4015 57.2135C71.2269 58.1971 71.5732 58.5106 72.7896 58.7061C73.7375 58.8554 74.6644 59.4226 75.6152 59.3718C75.751 59.0554 76.3301 60.2405 76.1585 59.9465L76.5884 59.4733Z" fill="#EEF3F9"/>
<path d="M49.4544 51.9816C48.4663 50.8203 47.4857 48.7501 44.1347 46.6649C44.184 47.0828 44.5392 47.4366 44.6363 47.85C43.7743 47.4446 42.885 47.1 41.9749 46.8186C42.156 46.9764 42.2994 47.1727 42.3944 47.3933C41.6928 47.4112 40.0271 46.4515 39.8569 45.9007C39.936 46.2246 40.1554 46.5082 40.3047 46.7963C39.4778 46.3261 38.5389 46.035 37.7031 45.5619C37.7897 45.6992 37.7822 45.9186 37.8359 46.047C36.7239 46.1962 36.0149 45.3424 35.0313 45.0932C35.0403 45.1633 35.0641 45.232 35.0731 45.2992C33.9551 45.3947 32.8655 44.2543 31.7207 44.2006C31.7923 44.3185 31.8282 44.5738 31.9311 44.7036C30.8983 44.4424 29.643 43.6842 28.6758 43.1483C28.747 43.2607 28.8084 43.3791 28.8594 43.5021C28.2892 43.5782 27.7429 43.0707 27.2175 42.9453C27.2533 43.1782 27.1936 43.4289 27.2175 43.6573C26.8369 43.5633 26.4906 43.3856 26.1204 43.2976C25.8383 44.9574 28.4981 46.5067 29.6803 47.2396C32.0774 48.7217 34.791 49.7277 37.5314 50.374C39.4718 50.8353 42.1585 51.1965 44.1318 50.9159C44.7124 50.8338 46.2856 50.2218 46.6692 49.871L49.4544 51.9816Z" fill="#F1F6FD"/>
<path d="M78.7958 75.0887C77.8838 75.9843 77.1449 77.1381 75.7986 77.6261C75.9559 77.2777 76.0954 76.9215 76.2165 76.5589C75.3389 77.8083 73.5865 78.3739 72.2327 78.9994C72.3536 78.8382 72.4298 78.6486 72.5462 78.4919C71.3969 79.577 69.0803 79.7621 67.6056 80.2308C67.934 79.9322 68.352 79.5068 68.5669 79.0456C67.5415 79.9919 65.6339 80.6069 64.2652 80.6965C64.4584 80.6542 64.6413 80.574 64.8032 80.4605C64.9651 80.347 65.1029 80.2024 65.2085 80.0352C63.5293 80.483 61.4382 81.7114 59.6426 81.4637C60.0903 80.9412 60.7799 80.4875 61.3068 80.0442C60.3381 79.9158 59.1873 80.3755 58.2052 80.4741C56.9753 80.595 55.7453 80.583 54.5065 80.583C54.7306 80.5965 54.9546 80.5539 55.1582 80.459C55.3617 80.3641 55.5384 80.22 55.6722 80.0397C54.5975 80.1128 52.0765 80.6278 51.3436 79.7098C51.6986 79.5729 52.0247 79.3703 52.3049 79.1128C51.0138 79.1307 47.9076 79.4427 47.0807 78.3575C47.6464 78.2008 48.1076 77.8426 48.6181 77.5754C47.2494 77.0515 44.6179 77.5082 43.6119 76.4246C43.7507 76.3515 43.9403 76.1694 44.0418 76.1126C42.7342 76.0917 40.1849 75.9843 39.2102 75.0798C39.5326 74.7917 40.0162 74.5738 40.3371 74.317C38.9669 74.2543 36.6056 74.1767 35.8429 72.8244C38.546 71.9826 32.8964 70.2332 32.8427 69.4839C33.207 69.4555 33.5575 69.3319 33.8592 69.1257C32.6934 68.3436 31.3217 68.2302 30.4844 66.9017C31.0093 66.8281 31.5257 66.7032 32.0262 66.5286C32.0038 66.1584 28.3499 64.1717 30.3545 63.9732C29.7575 62.9971 27.2469 62.4045 27.3514 61.0716C29.641 60.7357 25.0005 58.0192 24.7378 57.5684C27.2753 56.4161 24.2288 55.7519 24.0736 54.2086C23.9915 53.407 24.7751 53.4951 24.1915 52.5279C23.6228 51.5845 22.169 51.1069 21.963 49.9651C23.7736 49.6859 20.2301 46.6156 22.1556 46.5634C22.2616 45.5932 20.3973 44.2678 21.8347 43.7707C23.69 43.1289 25.8886 46.8321 26.7991 47.95C30.0142 51.901 32.7442 56.1937 35.9458 60.1447C38.8788 63.7672 43.6477 67.5674 48.0852 69.2496C54.802 71.7781 62.7233 73.7767 69.8774 72.2438C72.4357 71.696 75.9464 69.3317 78.6271 69.6302C81.6198 69.9646 79.7003 74.1469 78.8435 75.9813C78.8182 75.6887 78.7883 75.3842 78.7958 75.0887Z" fill="#F1F6FD"/>
<path d="M119.985 48.8308C119.81 48.3711 119.886 47.8024 119.686 47.3053C119.435 46.659 118.97 46.0978 118.799 45.4261C118.799 45.6799 118.808 45.9381 118.799 46.1904C118.335 45.8545 118.028 45.0978 117.626 44.6425C117.626 44.8381 117.626 45.0396 117.626 45.2321C116.943 45.0903 116.411 44.3739 115.85 44.0097C115.865 44.0903 115.85 44.1903 115.874 44.2798C115.238 44.1171 114.546 43.7559 113.953 43.4514C113.989 43.5361 114.018 43.6241 114.038 43.7141C113.356 44.0126 112.596 43.4977 111.919 43.5649C112.565 44.1753 109.871 44.0649 109.605 44.1709C109.715 44.217 109.827 44.2569 109.941 44.2903C110.044 45.0843 108.299 44.7664 108.051 45.3037C107.924 45.5724 108.271 45.547 108.003 45.9008C107.771 46.2157 107.05 46.6262 106.702 46.8128C106.851 47.1203 106.882 47.1979 106.688 47.5292C106.436 47.9576 105.46 48.18 105.335 48.6517C105.257 48.9412 105.567 49.1383 105.576 49.4771C105.593 50.0622 104.936 50.3428 104.887 50.8294C104.855 51.119 105.172 51.1906 105.115 51.5757C105.058 51.9608 104.647 52.0145 104.788 52.428C104.875 52.6773 105.157 52.6653 105.236 53.025C105.306 53.3459 105.184 53.6952 105.073 53.9803C105.502 54.3012 106.382 54.2669 106.909 54.2549C107.224 52.2668 107.865 50.1279 109.275 48.6502C110.042 47.8457 111.057 47.2979 111.981 46.6874C112.844 46.1202 113.772 45.7277 114.817 45.6769C116.42 45.5993 117.173 46.4232 118.258 47.4039C118.492 47.626 118.738 47.8353 118.995 48.0308C119.319 48.2576 119.523 48.5278 119.77 48.7069L119.985 48.8308Z" fill="#F1F6FD"/>
<path d="M19.4941 37.2362C19.2673 37.5019 19.4389 37.9825 19.2061 38.2094C19.109 38.305 18.709 38.3094 18.5642 38.3438C18.2986 38.402 17.8926 38.4647 17.7209 38.708C17.4328 39.1139 17.9179 39.6035 17.7388 40.0289C17.497 40.6021 16.7582 40.7006 16.4582 41.2126C16.0447 41.9171 16.9537 42.3305 17.1492 42.9186C17.3224 43.4425 16.9567 43.844 17.4328 44.2754C18.0642 44.8441 18.915 45.0217 19.7061 45.2874C20.5011 45.5746 21.2795 45.906 22.0376 46.28C22.5615 46.5233 23.3048 47.0143 23.9048 46.8427C24.8944 46.5576 23.9481 44.9844 24.4735 44.262C25.0317 43.4963 25.7198 44.2202 25.878 43.1962C25.9975 42.4141 25.1571 41.6962 24.6675 41.2081C23.4137 39.9558 22.2107 38.6542 20.8091 37.5601C20.539 37.3512 20.1091 36.981 19.733 37.09C19.6404 37.1136 19.5572 37.1646 19.4941 37.2362Z" fill="#746B5C"/>
<path d="M82.9244 62.4823C71.0969 57.4955 64.4041 51.9728 58.8575 39.902C55.7379 33.1181 53.4841 26.0058 50.4586 19.1935C48.6674 15.1754 45.5329 5.24507 41.1611 3.72559C41.6477 3.89574 40.4148 9.36318 40.2879 9.94978C39.6416 12.9096 38.8371 15.8605 38.6684 18.9055C38.5759 20.5309 38.6475 22.24 39.2655 23.7654C39.6461 24.7013 40.776 26.2745 41.7417 26.6327C41.1805 27.6268 39.8894 28.3761 38.9281 28.9433C37.6938 29.6732 36.4952 30.6329 37.0579 32.2449C37.5057 33.5137 38.5207 34.4764 39.5953 35.2302C40.176 35.6451 42.5477 36.5063 42.7418 37.1526C43.0298 38.1228 41.8462 38.8781 41.3074 39.5408C40.667 40.3379 39.9148 41.2334 39.7715 42.2857C39.564 43.8246 40.7611 44.9112 41.8999 45.7053C42.1985 45.9143 45.5479 48.0293 45.6986 47.8875C44.5359 48.9876 42.6836 49.1309 41.9358 50.8086C41.3656 52.0847 42.2149 53.3385 43.0418 54.2669C45.5509 57.0865 49.2331 59.0567 52.6318 60.5762C54.1244 61.2449 55.7305 61.9285 57.3351 62.3017C65.6474 64.2346 75.9688 63.5973 84.7558 63.3137L82.9244 62.4823Z" fill="#EEF3F9"/>
<path d="M61.9593 62.1597C60.3562 61.785 58.7546 61.1044 57.256 60.4342C53.8589 58.9147 50.1751 56.9445 47.6675 54.1264C46.8421 53.195 45.9913 51.9398 46.5615 50.6666C47.3078 48.9904 49.1631 48.8456 50.3228 47.7455C50.1736 47.8873 46.8272 45.7708 46.5256 45.5633C45.3853 44.7707 44.1867 43.6826 44.3987 42.1423C44.5405 41.0974 45.2942 40.2019 45.9331 39.3988C46.4719 38.7286 47.657 37.9764 47.366 37.0107C47.1734 36.3643 44.8032 35.5031 44.2225 35.0882C43.1523 34.3269 42.1329 33.3657 41.6851 32.1029C41.1209 30.4909 42.3195 29.5312 43.5568 28.8013C44.5181 28.2341 45.8077 27.4848 46.3674 26.4922C45.4047 26.1325 44.2778 24.5518 43.8927 23.6249C43.2703 22.0995 43.1986 20.3889 43.2956 18.7635C43.4658 15.723 44.2688 12.7721 44.9181 9.80779C44.9614 9.60778 45.1375 8.82416 45.3271 7.87784C44.0957 5.86878 42.7031 4.27318 41.1552 3.73584C41.6418 3.906 40.4089 9.37344 40.2821 9.96003C39.6358 12.9199 38.8312 15.8708 38.6626 18.9157C38.57 20.5412 38.6417 22.2502 39.2596 23.7757C39.6402 24.7115 40.7701 26.2847 41.7359 26.643C41.1746 27.637 39.8835 28.3863 38.9223 28.9535C37.6879 29.6834 36.4893 30.6432 37.052 32.2552C37.4998 33.5239 38.5148 34.4866 39.5895 35.2404C40.1701 35.6554 42.5419 36.5166 42.7359 37.1629C43.024 38.1331 41.8403 38.8884 41.3015 39.5511C40.6612 40.3481 39.9089 41.2437 39.7656 42.296C39.5581 43.8349 40.7552 44.9215 41.8941 45.7156C42.1926 45.9245 45.542 48.0396 45.6928 47.8978C44.53 48.9978 42.6777 49.1411 41.9299 50.8188C41.3597 52.095 42.209 53.3488 43.0359 54.2772C45.545 57.0967 49.2273 59.067 52.6259 60.5865C54.1186 61.2552 55.7246 61.9388 57.3292 62.3119C64.6654 64.018 73.5643 63.721 81.5916 63.4344C74.8823 63.6075 67.9073 63.5433 61.9593 62.1597Z" fill="#746B5C"/>
<path d="M114.409 52.7117C114.599 52.9071 114.717 53.1613 114.744 53.4326C114.848 54.8327 112.206 55.7282 111.267 56.2686C107.863 58.2418 104.73 60.8001 101.443 62.9719C94.7114 67.4214 87.8707 69.2409 80.0136 70.5439C79.1076 75.3203 71.0803 77.1771 67.3264 77.9294C61.1246 79.1787 54.6243 78.9234 48.7434 76.4368C43.6506 74.2829 36.8652 70.1514 33.0411 66.1825C29.0618 62.0524 21.2256 41.9768 21.2256 41.9768C21.2256 41.9768 47.4956 49.3503 52.6361 51.5474C64.0695 56.4343 75.3238 61.3688 88.1498 60.9509C91.4858 60.8434 94.7487 60.1673 97.9056 59.1001C101.427 57.9134 104.119 55.5909 107.128 53.5177C108.579 52.5176 110.287 51.0355 112.188 51.5773C112.812 51.7489 113.872 52.1146 114.409 52.7117Z" fill="#F1F6FD"/>
<path d="M120.631 51.5456C120.631 53.0297 120.191 54.4806 119.367 55.7148C118.542 56.9489 117.371 57.9109 116 58.479C114.628 59.0471 113.12 59.1958 111.664 58.9063C110.208 58.6169 108.871 57.9022 107.822 56.8527C106.772 55.8033 106.058 54.4662 105.768 53.0105C105.479 51.5549 105.627 50.0461 106.195 48.675C106.764 47.3038 107.726 46.132 108.96 45.3076C110.194 44.4833 111.645 44.0434 113.129 44.0437C115.118 44.0441 117.026 44.8346 118.433 46.2414C119.84 47.6482 120.63 49.5561 120.631 51.5456Z" fill="#F1F6FD"/>
<path d="M119.959 49.8755L148.396 51.783L119.059 56.1445C119.404 55.1276 119.639 54.0768 119.762 53.01C119.881 51.9692 119.947 50.923 119.959 49.8755Z" fill="#F8C7CE"/>
<path d="M117.145 50.0829C117.145 50.0829 117.98 49.2784 119.058 50.0829" stroke="#746B5C" stroke-width="3.01" stroke-linecap="round" stroke-linejoin="round"/>
<path d="M132.064 50.2874C132.845 52.5412 134.59 54.2234 136.121 55.9757C140.495 60.9745 144.428 67.7569 143.792 74.6333C143.274 80.25 136.926 80.5098 132.545 80.4441C129.03 80.3918 125.303 79.4231 123.467 76.1707C121.482 72.6467 121.965 68.1345 122.935 64.3791C123.431 62.4551 124.021 60.3491 124.9 58.5579C125.497 57.334 126.148 56.1354 126.825 54.9518C127.154 54.3726 127.488 53.7965 127.83 53.2233C128.003 52.9248 128.439 51.7949 128.751 51.6635L132.064 50.2874Z" fill="#F1F6FD"/>
<path d="M128.68 52.7562C128.631 52.7039 128.68 52.3651 128.68 52.286C128.68 52.1442 128.671 52.0039 128.659 51.8636C128.646 51.622 128.596 51.3838 128.51 51.1576C128.295 50.6203 127.881 50.1934 127.48 49.7904C126.824 49.1321 126.051 48.4022 126.005 47.4022C126.001 47.0549 126.074 46.711 126.217 46.3947C126.266 46.2738 126.459 45.6857 126.626 45.6917C127.653 45.732 128.566 46.5872 129.163 47.3574C129.854 48.253 130.162 49.362 130.396 50.4516C130.465 50.765 130.526 51.0785 130.59 51.3934C130.292 49.9889 129.993 48.5694 129.868 47.1365C129.79 46.4659 129.816 45.7875 129.943 45.1245C130.108 44.3871 130.59 43.899 131.34 43.7811L131.767 43.7229C131.747 44.3125 131.907 44.8871 132.065 45.4484C132.232 46.0114 132.356 46.5862 132.437 47.1678C132.481 47.5111 132.513 47.8545 132.531 48.1978C132.555 48.6455 132.559 49.0933 132.54 49.5411C132.534 49.976 132.459 50.4072 132.319 50.8188C132.17 51.2352 131.917 51.6129 131.747 52.0233C131.586 52.47 131.351 52.8867 131.053 53.2562C130.88 53.4489 130.658 53.5904 130.41 53.6652C129.578 53.913 128.741 53.701 128.814 52.8831L128.68 52.7562Z" fill="#F1F6FD"/>
<path d="M148.396 51.7756L119.959 49.8755C119.947 50.923 119.881 51.9692 119.762 53.01L148.396 51.7756Z" fill="#F9CDD1"/>
<path d="M75.2044 61.8971C73.8849 61.0478 73.1685 59.4328 72.0042 58.4641C72.058 58.6313 72.0251 58.8552 72.1102 59.0462C71.3341 58.8835 70.5236 57.6521 70.1146 56.9879C70.0777 57.2719 70.1073 57.5606 70.2012 57.8312C69.4951 56.7774 68.1428 56.1043 67.3652 55.0982C67.3541 55.343 67.3696 55.5882 67.4115 55.8296C65.9412 55.3341 64.7128 53.1041 63.5471 52.1071C63.6106 52.3514 63.7038 52.587 63.8247 52.8086C63.2277 51.4816 62.1649 50.5786 61.2873 49.4353C61.2873 49.7219 61.2962 50.0129 61.2783 50.295C60.9798 50.1711 60.8096 49.6681 60.5634 49.392C60.2484 49.0397 59.8439 48.8024 59.5185 48.4412C58.6633 47.4889 58.1513 46.5247 58.1513 45.4306C58.1513 45.753 58.1513 46.0739 58.1513 46.3963C57.5244 44.5574 56.696 42.4588 55.7721 40.8139C55.7437 41.1722 55.7542 41.5423 55.7542 41.9065C55.7676 40.5289 54.9974 39.1318 54.4257 37.972C54.4019 38.2571 54.4093 38.5511 54.4108 38.8407C54.1123 37.7392 53.772 35.0928 52.8525 34.3838C52.8286 34.7196 52.8346 35.0659 52.8436 35.4062C52.3058 34.1444 51.8535 32.8479 51.4898 31.5254C51.1823 30.4164 51.0942 29.1522 50.6076 28.1073C50.6076 28.4402 50.6882 28.7656 50.6539 29.0969C50.0121 27.1759 49.7359 25.0251 48.9449 23.1787C48.9449 23.4384 48.9449 23.6967 48.9449 23.9549C48.8956 23.0593 48.4418 22.0861 48.1986 21.2115C47.9553 20.3368 47.7642 19.4203 47.3687 18.6113C47.3687 18.9502 47.3806 19.2964 47.3582 19.6293C46.8836 19.3502 46.5477 17.9561 46.3223 17.3769C45.9611 16.4515 45.779 15.447 45.2924 14.5858C45.2686 14.8932 45.2924 15.2798 45.2193 15.5216C45.2402 14.7649 44.8536 13.526 44.3954 12.929C43.1341 15.8933 44.0163 19.8935 44.7551 22.8533C45.4507 25.643 46.1776 28.376 47.0925 31.097C48.0792 34.033 49.5419 36.7302 50.8703 39.5139C52.5227 42.9752 53.7063 46.653 55.9124 49.8353C57.5766 52.2324 59.5335 54.8982 61.953 56.5774C64.2374 58.1923 66.6668 59.5914 69.2101 60.7567C70.5534 61.3538 71.9968 61.9135 73.473 61.9016C73.8222 61.9016 74.07 61.7777 74.4447 61.9016L75.2044 61.8971Z" fill="#F1F6FD"/>
<path d="M76.9008 62.0702C65.2376 56.7072 58.7298 50.9696 53.5653 38.7272C50.6667 31.8478 48.6516 24.6668 45.8366 17.7605C44.1783 13.6842 41.3587 3.65978 37.0436 2C37.5272 2.18508 36.1167 7.61371 35.9719 8.19136C35.2256 11.1303 34.33 14.0543 34.0643 17.0873C33.9151 18.7113 33.936 20.4218 34.5121 21.9652C34.8629 22.913 35.9435 24.5205 36.9003 24.9101C36.3033 25.8848 34.9957 26.5938 34.0181 27.1296C32.7583 27.8192 31.5299 28.7402 32.0404 30.3686C32.4434 31.6507 33.43 32.6448 34.4733 33.4404C35.0405 33.8732 37.3839 34.8106 37.5556 35.4629C37.8153 36.442 36.6048 37.1585 36.0465 37.8108C35.3823 38.5854 34.5987 39.4526 34.4226 40.4975C34.1644 42.0304 35.3271 43.1543 36.4391 43.9842C36.7376 44.2051 40.0109 46.4261 40.1706 46.2888C38.9765 47.3515 37.1182 47.4351 36.3167 49.0874C35.7062 50.3427 36.5137 51.6249 37.3123 52.5816C39.7273 55.4788 43.3469 57.5655 46.6933 59.1939C48.1695 59.9119 49.7472 60.6447 51.3383 61.0701C59.585 63.2702 69.9229 62.9643 78.7099 62.9643L76.9008 62.0702Z" fill="#F1F6FD"/>
<path d="M55.9588 61.0701C54.3661 60.6447 52.7885 59.9119 51.3138 59.1939C47.9658 57.5655 44.3477 55.4788 41.9327 52.5817C41.1326 51.6249 40.3266 50.3427 40.9371 49.0874C41.7386 47.4351 43.5955 47.3515 44.791 46.2888C44.6418 46.4261 41.358 44.1991 41.0595 43.9842C39.9475 43.1543 38.7863 42.0304 39.0445 40.4975C39.2206 39.4526 40.0027 38.5809 40.6685 37.8108C41.2252 37.1585 42.4357 36.442 42.1775 35.4629C42.0043 34.8106 39.6624 33.8732 39.0952 33.4404C38.0504 32.6448 37.0653 31.6493 36.6623 30.3686C36.1503 28.7402 37.3772 27.8192 38.6385 27.1296C39.6177 26.5938 40.9326 25.8848 41.5207 24.9101C40.5714 24.5205 39.4908 22.913 39.1325 21.9652C38.5609 20.4218 38.5445 18.7113 38.6848 17.0873C38.9519 14.0543 39.849 11.1303 40.5923 8.19136C40.6431 7.99284 40.8431 7.21519 41.0655 6.27484C39.8998 4.22698 38.5579 2.58809 37.028 2C37.5116 2.18508 36.101 7.61372 35.9563 8.19136C35.21 11.1303 34.3144 14.0543 34.0487 17.0873C33.8995 18.7113 33.9204 20.4218 34.4965 21.9652C34.8473 22.913 35.9279 24.5205 36.8847 24.9101C36.2876 25.8848 34.9801 26.5938 34.0024 27.1296C32.7427 27.8192 31.5143 28.7402 32.0247 30.3686C32.4277 31.6507 33.4144 32.6448 34.4577 33.4404C35.0249 33.8732 37.3683 34.8106 37.5399 35.4629C37.7997 36.442 36.5891 37.1585 36.0309 37.8108C35.3667 38.5854 34.5831 39.4526 34.4069 40.4975C34.1487 42.0304 35.3115 43.1543 36.4235 43.9842C36.722 44.2051 39.9953 46.4261 40.155 46.2888C38.9609 47.3515 37.1026 47.4351 36.3011 49.0874C35.6906 50.3427 36.4981 51.6249 37.2966 52.5817C39.7117 55.4788 43.3313 57.5655 46.6777 59.1939C48.1539 59.9119 49.7316 60.6447 51.3227 61.0701C58.5992 63.0105 67.5026 63.0016 75.5374 62.9732C68.8281 62.9389 61.8591 62.6493 55.9588 61.0701Z" fill="#746B5C"/>
<path d="M105.889 54.5893C104.716 55.2281 103.462 55.4848 102.157 55.5714C102.315 56.0296 103.139 56.0431 103.181 56.5222C102.618 56.6789 101.987 56.5849 101.405 56.6207C101.729 57.0267 102.681 56.8789 102.808 57.4207C101.326 57.6775 99.784 57.579 98.266 57.6655C98.4392 58.4118 99.5885 58.2954 100.197 58.3432C98.975 59.0746 96.7226 58.4835 95.4002 58.6984C95.7166 58.8477 96.0629 59.0089 96.3674 59.1462C95.548 59.4447 94.1763 59.3552 93.2583 59.3805C93.3344 59.5 93.3344 59.6985 93.4643 59.8209C92.7359 60.1015 91.6522 59.8567 90.8537 59.9074C91.1361 60.0674 91.4368 60.1927 91.7493 60.2806C91.2477 60.7523 89.9581 60.1925 89.2984 60.7284C88.4342 61.4344 89.6492 61.9747 90.3865 62.118C93.7225 62.7643 96.5435 61.5747 99.5855 60.503C101.409 59.8597 108.037 57.6954 106.26 54.5027L105.889 54.5893Z" fill="#F1F6FD"/>
<path d="M21.862 41.9766C21.8391 41.7738 21.7778 41.5773 21.6814 41.3975C22.1112 41.4228 22.6053 41.9602 23.059 42.0587C23.0704 41.9274 23.0623 41.7951 23.0352 41.6661C23.3337 42.002 23.8501 42.2557 24.2292 42.4856C24.2599 42.3748 24.274 42.2601 24.271 42.1453C24.7442 42.3706 25.1561 42.8707 25.6786 43.0408C25.6513 42.9083 25.6428 42.7727 25.6532 42.6378C26.004 42.6483 26.7189 43.4349 27.0279 43.6692C27.013 43.6185 27.007 43.5543 26.9921 43.505C27.2398 43.8961 27.6055 44.3081 27.7757 44.7215C27.3712 44.7454 27.1921 44.6514 26.8368 44.4558C26.3696 44.1991 25.8861 44.114 25.395 43.9453C24.7636 43.7289 24.1292 43.4453 23.5068 43.199C22.565 42.8363 21.1395 42.6722 21.0664 41.4154C21.1664 41.4706 21.8605 41.8676 21.862 41.9766Z" fill="#F1F6FD"/>
<path d="M23.5121 47.0394C23.1718 46.8364 22.845 46.6036 22.5091 46.3946C22.2733 46.2453 21.8524 46.0871 21.7195 45.8498C21.9658 45.8423 22.2002 45.9632 22.4658 45.9513C22.5136 45.4572 21.5852 45.1109 21.4688 44.6079C21.618 44.6005 21.7867 44.6079 21.9449 44.5975C21.9658 44.2005 21.221 43.5601 20.9195 43.3288C21.0807 43.3288 21.2285 43.3631 21.3822 43.3631C21.4001 42.9377 20.8657 42.7093 20.6807 42.4034C20.7664 42.4051 20.8517 42.4141 20.9359 42.4302C20.8643 42.2884 20.709 42.1317 20.6822 41.9541C21.0747 41.8884 21.9046 42.2526 22.2121 42.5093C22.5823 42.8078 22.6763 43.4049 22.8375 43.8452C23.136 44.6438 23.9793 46.0379 23.6704 46.8842L23.5121 47.0394Z" fill="#F1F6FD"/>
<path d="M62.762 171.561C60.5982 170.208 59.1231 168.424 57.9314 165.847C56.945 163.724 56.3991 162.285 55.7519 158.424C55.7384 158.338 55.7047 158.256 55.6539 158.188C55.6032 158.12 55.5372 158.068 55.4623 158.036C55.3875 158.003 55.3062 157.993 55.2265 158.005C55.1468 158.017 55.0713 158.051 55.0072 158.104C54.8927 158.216 54.8201 158.37 54.8032 158.537C54.6732 159.328 54.0325 164.111 51.6334 167.188C50.53 168.603 48.8743 169.946 47.2589 170.842C47.1662 170.893 47.0917 170.976 47.0471 171.078C46.9987 171.185 46.9872 171.308 47.0146 171.423C47.0528 171.555 47.1218 171.673 47.2147 171.766C47.7528 172.366 50.9355 175.313 52.4756 178.95C53.7167 181.876 54.2158 184.172 54.3951 184.62C54.4263 184.714 54.4792 184.799 54.5488 184.865C54.6184 184.931 54.7024 184.977 54.7928 184.997C54.9148 185.01 55.0371 184.976 55.1389 184.902C55.2408 184.828 55.3159 184.718 55.3516 184.59C55.5193 184.099 56.1314 181.512 56.8696 179.936C58.5786 176.257 59.6391 175.579 62.8478 172.379C62.9021 172.324 62.9439 172.257 62.9698 172.181C62.9958 172.106 63.0052 172.025 62.9973 171.946C62.9889 171.866 62.9632 171.789 62.9223 171.722C62.8814 171.655 62.8265 171.6 62.762 171.561Z" fill="#FFD79B"/>
<path d="M41.621 137.162C40.3101 136.548 38.97 135.672 38.1018 134.782C36.2461 132.884 35.8485 130.092 35.7703 129.63C35.757 129.525 35.7228 129.424 35.67 129.334C35.6172 129.244 35.5471 129.167 35.4641 129.108C35.3851 129.054 35.2954 129.018 35.2018 129.006C35.1081 128.993 35.0129 129.002 34.9233 129.034C34.8208 129.064 34.7276 129.122 34.6531 129.202C34.5786 129.283 34.5255 129.383 34.4992 129.492C33.8696 131.701 33.3871 132.506 32.5255 133.69C31.481 135.121 30.2311 136.078 28.4311 136.745C28.321 136.786 28.2236 136.858 28.149 136.954C28.0745 137.049 28.0256 137.164 28.0077 137.286C27.9897 137.408 28.0034 137.533 28.0471 137.648C28.0909 137.763 28.1631 137.863 28.2562 137.938C30.8263 139.997 31.6931 140.445 33.0093 142.705C33.574 143.675 34.0114 145.233 34.1373 145.535C34.1802 145.662 34.2565 145.772 34.3571 145.854C34.4577 145.936 34.5785 145.986 34.705 145.997C34.8315 146.009 34.9584 145.982 35.0707 145.919C35.1829 145.856 35.2758 145.76 35.3382 145.643C35.5012 145.385 35.9824 144.036 37.1064 142.352C38.4756 140.297 41.1875 138.747 41.6475 138.419C41.7847 138.335 41.8912 138.205 41.9499 138.049C42.0085 137.893 42.0159 137.721 41.9709 137.56C41.943 137.471 41.8973 137.389 41.8369 137.32C41.7765 137.252 41.7028 137.198 41.621 137.162Z" fill="#FFD79B"/>
<path d="M308.594 63.0822C307.188 62.3239 305.754 61.2412 304.824 60.1411C302.836 57.7986 302.41 54.3474 302.325 53.7765C302.311 53.6468 302.275 53.5222 302.218 53.4113C302.162 53.3005 302.086 53.206 301.997 53.1345C301.912 53.0664 301.816 53.0227 301.716 53.0068C301.616 52.9908 301.514 53.0031 301.419 53.0425C301.309 53.0789 301.208 53.1503 301.128 53.2494C301.048 53.3484 300.991 53.4716 300.963 53.6065C300.288 56.3359 299.771 57.3301 298.848 58.7929C297.729 60.561 296.392 61.7426 294.462 62.5668C294.344 62.6178 294.24 62.7068 294.16 62.8245C294.08 62.9421 294.027 63.084 294.008 63.235C293.989 63.3861 294.004 63.5406 294.05 63.6823C294.097 63.8241 294.175 63.9476 294.274 64.04C297.029 66.5837 297.957 67.1372 299.368 69.9308C299.973 71.1281 300.442 73.0541 300.576 73.4254C300.622 73.5818 300.704 73.7189 300.812 73.8202C300.92 73.9215 301.049 73.9828 301.185 73.9969C301.32 74.011 301.456 73.9772 301.576 73.8996C301.697 73.8219 301.796 73.7037 301.863 73.559C302.038 73.2398 302.553 71.574 303.757 69.4936C305.224 66.955 308.128 65.0394 308.622 64.6351C308.769 64.5314 308.883 64.3702 308.946 64.1776C309.009 63.9849 309.017 63.772 308.969 63.5732C308.938 63.4636 308.889 63.3632 308.824 63.2786C308.76 63.1939 308.681 63.127 308.594 63.0822Z" fill="#FFD79B"/>
<path d="M293.762 13.5607C291.598 12.2079 290.123 10.4236 288.931 7.84696C287.945 5.72447 287.399 4.28542 286.752 0.423918C286.738 0.337529 286.705 0.256406 286.654 0.188369C286.603 0.120331 286.537 0.0676915 286.462 0.0355388C286.387 0.00338609 286.306 -0.00720728 286.227 0.00481048C286.147 0.0168282 286.071 0.0510378 286.007 0.104129C285.893 0.216312 285.82 0.370426 285.803 0.537124C285.673 1.3281 285.033 6.11076 282.633 9.18836C281.53 10.6033 279.874 11.9462 278.259 12.8419C278.166 12.8929 278.092 12.976 278.047 13.0782C277.999 13.1853 277.987 13.3078 278.015 13.4234C278.053 13.5545 278.122 13.6726 278.215 13.7658C278.753 14.3658 281.936 17.3132 283.476 20.9497C284.717 23.8759 285.216 26.1725 285.395 26.6196C285.426 26.7142 285.479 26.7986 285.549 26.8648C285.618 26.9309 285.702 26.9765 285.793 26.9974C285.915 27.01 286.037 26.9764 286.139 26.9021C286.241 26.8278 286.316 26.7175 286.352 26.5899C286.519 26.0989 287.131 23.5123 287.87 21.936C289.579 18.257 290.639 17.5792 293.848 14.3785C293.902 14.3241 293.944 14.2566 293.97 14.1814C293.996 14.1062 294.005 14.0254 293.997 13.9455C293.989 13.8657 293.963 13.7891 293.922 13.7222C293.881 13.6553 293.826 13.5999 293.762 13.5607Z" fill="#FFD79B"/>
<path d="M335.621 40.1623C334.31 39.5485 332.97 38.672 332.102 37.7815C330.246 35.8839 329.849 33.0917 329.77 32.6296C329.757 32.5247 329.723 32.424 329.67 32.3342C329.617 32.2443 329.547 32.1674 329.464 32.1085C329.385 32.0536 329.295 32.0184 329.202 32.0055C329.108 31.9926 329.013 32.0024 328.923 32.034C328.821 32.0639 328.728 32.1221 328.653 32.2025C328.579 32.2829 328.525 32.3827 328.499 32.4919C327.87 34.7013 327.387 35.5061 326.526 36.6902C325.481 38.1214 324.231 39.0779 322.431 39.7451C322.321 39.7864 322.224 39.8584 322.149 39.9537C322.074 40.0489 322.026 40.1637 322.008 40.286C321.99 40.4083 322.003 40.5334 322.047 40.6481C322.091 40.7628 322.163 40.8629 322.256 40.9376C324.826 42.9967 325.693 43.4447 327.009 45.7047C327.574 46.6753 328.011 48.2329 328.137 48.5349C328.18 48.6615 328.256 48.7724 328.357 48.8544C328.458 48.9364 328.578 48.9861 328.705 48.9975C328.831 49.0089 328.958 48.9815 329.071 48.9187C329.183 48.8559 329.276 48.7602 329.338 48.643C329.501 48.3846 329.982 47.0362 331.106 45.3521C332.476 43.2973 335.188 41.7466 335.647 41.4194C335.785 41.3354 335.891 41.2049 335.95 41.049C336.009 40.893 336.016 40.7207 335.971 40.5598C335.943 40.4707 335.897 40.3891 335.837 40.3205C335.777 40.2519 335.703 40.1979 335.621 40.1623Z" fill="#FFD79B"/>
</svg>
