<svg width="37" height="34" viewBox="0 0 37 34" fill="none" xmlns="http://www.w3.org/2000/svg">
<path d="M31.1856 15.6602L26.0525 15.3135V9.49238C26.6289 9.29368 27.1291 8.92025 27.4834 8.42404C27.8377 7.92783 28.0285 7.33352 28.0293 6.7238V3.15797C28.0286 2.38048 27.7194 1.63503 27.1696 1.08526C26.6198 0.535486 25.8744 0.226309 25.0969 0.225586H13.4192C12.6417 0.226309 11.8963 0.535486 11.3465 1.08526C10.7967 1.63503 10.4875 2.38048 10.4868 3.15797V4.31018C10.4868 4.51438 10.5679 4.71023 10.7123 4.85462C10.8567 4.99902 11.0526 5.08014 11.2568 5.08014C11.461 5.08014 11.6568 4.99902 11.8012 4.85462C11.9456 4.71023 12.0267 4.51438 12.0267 4.31018V3.15797C12.0275 2.78889 12.1744 2.43512 12.4354 2.17414C12.6964 1.91316 13.0501 1.76622 13.4192 1.7655H25.0969C25.2798 1.7655 25.4608 1.80151 25.6298 1.87149C25.7987 1.94147 25.9522 2.04404 26.0815 2.17335C26.2108 2.30265 26.3134 2.45615 26.3834 2.62509C26.4534 2.79404 26.4894 2.97511 26.4894 3.15797V6.7238C26.4894 7.09311 26.3427 7.4473 26.0815 7.70844C25.8204 7.96958 25.4662 8.11628 25.0969 8.11628H20.1823C19.9781 8.11628 19.7822 8.1974 19.6378 8.3418C19.4934 8.48619 19.4123 8.68203 19.4123 8.88624C19.4123 9.09045 19.4934 9.28628 19.6378 9.43068C19.7822 9.57507 19.9781 9.6562 20.1823 9.6562H24.5126V16.0343C24.5128 16.2293 24.5871 16.417 24.7204 16.5594C24.8537 16.7018 25.0361 16.7884 25.2307 16.8015L31.0818 17.1947C32.2442 17.2754 33.3328 17.7935 34.1287 18.6445C34.9245 19.4956 35.3685 20.6165 35.3712 21.7817C35.3715 22.4083 35.2437 23.0284 34.9956 23.6039C34.7474 24.1793 34.3842 24.6979 33.9282 25.1278C33.4723 25.5577 32.9332 25.8898 32.3441 26.1036C31.7551 26.3175 31.1285 26.4086 30.503 26.3714H28.4088C28.2046 26.3714 28.0088 26.4525 27.8644 26.5969C27.72 26.7413 27.6388 26.9371 27.6388 27.1413C27.6388 27.3455 27.72 27.5414 27.8644 27.6858C28.0088 27.8302 28.2046 27.9113 28.4088 27.9113H30.4374H30.7897C32.4151 27.9077 33.9728 27.2594 35.1209 26.1087C36.269 24.9581 36.9138 23.399 36.9138 21.7735C36.9078 20.2193 36.3138 18.7251 35.2512 17.591C34.1885 16.4569 32.736 15.7671 31.1856 15.6602Z" fill="#FF7976"/>
<path d="M15.9881 16.7361V14.945C16.5652 14.7463 17.066 14.3725 17.4208 13.8758C17.7756 13.3791 17.9667 12.7841 17.9676 12.1737V8.61061C17.9661 7.83286 17.6563 7.08742 17.1061 6.53773C16.5559 5.98803 15.8102 5.67894 15.0324 5.67822H3.35748C2.57974 5.67894 1.83401 5.98803 1.2838 6.53773C0.733596 7.08742 0.423809 7.83286 0.422363 8.61061V12.1737C0.42363 12.8173 0.636172 13.4426 1.02733 13.9536C1.4185 14.4646 1.96663 14.8331 2.58752 15.0023V25.2903C2.58896 27.1887 3.31469 29.015 4.61664 30.3966C5.91858 31.7782 7.69863 32.611 9.59359 32.725L11.2099 32.8206L20.3484 33.3666C20.4713 33.3666 20.5969 33.3666 20.7225 33.3666C22.348 33.363 23.9056 32.7148 25.0537 31.5641C26.2019 30.4134 26.8466 28.8543 26.8466 27.2288C26.8404 26.0728 26.5098 24.9417 25.8924 23.9642C25.275 22.9868 24.3957 22.2023 23.3545 21.6999C23.1272 20.2826 22.4545 18.9746 21.4339 17.9653C20.4133 16.956 19.0978 16.2978 17.6781 16.0863C17.4761 16.0562 17.2704 16.1077 17.1063 16.2293C16.9422 16.3509 16.8331 16.5327 16.8031 16.7348C16.773 16.9368 16.8244 17.1425 16.9461 17.3066C17.0677 17.4707 17.2495 17.5798 17.4515 17.6098C18.4134 17.7541 19.3159 18.1641 20.0573 18.7936C20.7988 19.4231 21.3497 20.2472 21.6481 21.1729C21.4733 21.1456 21.2986 21.1238 21.1211 21.1101L15.9881 20.7661V16.7361ZM4.12744 25.2903V23.6248C5.16827 23.0586 6.37033 22.8621 7.53726 23.0675C8.70418 23.2728 9.76699 23.8678 10.5521 24.7552C11.3371 25.6426 11.798 26.7701 11.8595 27.9533C11.921 29.1366 11.5794 30.3057 10.8905 31.2697L9.68369 31.1988C8.17873 31.1082 6.76525 30.4461 5.7324 29.3477C4.69956 28.2494 4.12542 26.798 4.12744 25.2903ZM21.0173 22.6473C21.4805 22.6782 21.9362 22.7794 22.3689 22.9476C23.2307 23.2859 23.9711 23.8751 24.4944 24.6388C25.0177 25.4026 25.2997 26.3058 25.304 27.2316C25.3036 27.858 25.1752 28.4777 24.9268 29.0528C24.6784 29.6279 24.3151 30.1462 23.8593 30.5759C23.4035 31.0056 22.8648 31.3377 22.2761 31.5519C21.6874 31.766 21.0612 31.8577 20.4358 31.8213L12.6188 31.3598C12.7686 31.0725 12.8982 30.7751 13.0065 30.4697C13.4334 29.2448 13.4999 27.923 13.198 26.6614C12.8962 25.3997 12.2387 24.2512 11.3036 23.352C10.3686 22.4529 9.19515 21.8409 7.92266 21.5887C6.65017 21.3365 5.33204 21.4547 4.12471 21.9292V14.328C4.12471 14.1237 4.04359 13.9279 3.89919 13.7835C3.7548 13.6391 3.55896 13.558 3.35475 13.558C3.17153 13.558 2.9901 13.5219 2.82083 13.4518C2.65156 13.3817 2.49775 13.2789 2.36819 13.1493C2.23864 13.0198 2.13587 12.866 2.06575 12.6967C1.99564 12.5274 1.95955 12.346 1.95955 12.1628V8.61061C1.95955 8.42752 1.99565 8.24622 2.0658 8.0771C2.13595 7.90798 2.23877 7.75436 2.36836 7.62502C2.49795 7.49568 2.65178 7.39316 2.82104 7.32335C2.9903 7.25353 3.17166 7.21777 3.35475 7.21813H15.0297C15.2128 7.21777 15.3942 7.25353 15.5634 7.32335C15.7327 7.39316 15.8865 7.49568 16.0161 7.62502C16.1457 7.75436 16.2485 7.90798 16.3187 8.0771C16.3888 8.24622 16.4249 8.42752 16.4249 8.61061V12.1737C16.4249 12.5437 16.2779 12.8986 16.0163 13.1603C15.7546 13.4219 15.3997 13.5689 15.0297 13.5689H6.2926C6.0884 13.5689 5.89255 13.65 5.74816 13.7944C5.60377 13.9388 5.52264 14.1347 5.52264 14.3389C5.52264 14.5431 5.60377 14.7389 5.74816 14.8833C5.89255 15.0277 6.0884 15.1088 6.2926 15.1088H14.44V21.4869C14.4402 21.682 14.5145 21.8697 14.6478 22.0121C14.781 22.1545 14.9634 22.241 15.158 22.2541L21.0173 22.6473Z" fill="#FF7976"/>
</svg>
