<svg width="38" height="43" viewBox="0 0 38 43" fill="none" xmlns="http://www.w3.org/2000/svg">
<path d="M10.4414 42.3661C9.39449 42.3714 8.36162 42.123 7.42962 41.6419C3.25203 39.4693 4.73228 34.1 6.30145 28.4169L6.52024 27.6168C7.28602 24.827 8.63639 22.9854 10.5337 22.1475C12.4311 21.3095 14.6566 21.5474 17.0565 22.7923C19.2137 23.9166 20.6871 25.5925 21.3196 27.6409C22.0033 29.8652 21.6375 32.4689 20.2598 35.1587C18.8821 37.8485 16.8001 40.0694 14.4481 41.3074C13.2161 41.9796 11.8419 42.3427 10.4414 42.3661ZM12.9131 23.3993C12.3258 23.3933 11.7437 23.5108 11.2038 23.7441C9.80213 24.3649 8.77656 25.8132 8.15437 28.0927L7.93557 28.8962C6.26727 34.9311 5.45364 38.7003 8.19881 40.128C9.7543 40.935 11.6824 40.8177 13.6379 39.7832C15.689 38.7107 17.4941 36.7898 18.7282 34.3759C19.9111 32.0619 20.229 29.9687 19.6718 28.1686C19.1795 26.5719 18.0001 25.2477 16.2531 24.3442C15.2276 23.7699 14.0847 23.4418 12.9131 23.3855V23.3993Z" fill="#FF7976"/>
<path d="M0.869094 40.4833C0.648867 40.4834 0.437228 40.4007 0.278983 40.2526C0.120739 40.1046 0.0283092 39.9029 0.0212337 39.6901C-0.0984353 36.369 0.288208 33.0489 1.16874 29.8365C1.34921 29.1783 1.55691 28.5201 1.75781 27.8981C2.3503 26.0222 2.90873 24.2482 2.95641 22.4085C2.95297 21.3136 2.85847 20.2207 2.6738 19.1405C2.64315 18.9298 2.61591 18.7192 2.58526 18.5086C1.78426 12.5863 1.92897 6.58024 3.01431 0.700412C3.03123 0.591667 3.0705 0.487301 3.12986 0.393488C3.18922 0.299675 3.26744 0.218316 3.35988 0.154218C3.45233 0.0901207 3.55717 0.0445876 3.66814 0.0203064C3.7791 -0.00397475 3.89399 -0.00650767 4.00598 0.0128541C4.11798 0.0322158 4.2248 0.0730829 4.32018 0.133036C4.41556 0.19299 4.49753 0.270814 4.56126 0.361911C4.62499 0.453008 4.6692 0.555526 4.69124 0.663411C4.71328 0.771296 4.7127 0.882359 4.68958 0.990031C3.63768 6.70389 3.49759 12.5398 4.27417 18.2946C4.30141 18.502 4.33205 18.7093 4.35929 18.9167C4.55609 20.0842 4.6563 21.2651 4.65894 22.448C4.60787 24.5148 3.97793 26.4763 3.38545 28.372C3.19136 28.9907 2.98703 29.6325 2.80997 30.2611C1.97571 33.314 1.60862 36.4685 1.72036 39.6243C1.72446 39.7323 1.70648 39.8401 1.66745 39.9415C1.62841 40.0428 1.56909 40.1357 1.49287 40.2149C1.41666 40.2941 1.32505 40.3579 1.22328 40.4029C1.1215 40.4478 1.01154 40.4729 0.899728 40.4767L0.869094 40.4833Z" fill="#FF7976"/>
<path d="M20.7448 40.4833C20.5802 40.4828 20.4198 40.4294 20.2856 40.3304C20.1513 40.2314 20.0498 40.0917 19.995 39.9303C19.9401 39.769 19.9345 39.594 19.9791 39.4292C20.0237 39.2645 20.1162 39.1181 20.2439 39.0102C22.3823 37.1964 23.8715 34.687 24.4717 31.8861C25.0719 29.0852 24.7481 26.1557 23.5524 23.5694C21.8933 19.8966 18.3136 16.7149 14.2138 15.275C14.058 15.2196 13.9225 15.1155 13.8259 14.9769C13.7293 14.8382 13.6763 14.6719 13.6742 14.5007C13.6721 14.3295 13.721 14.1618 13.8142 14.0207C13.9074 13.8795 14.0403 13.7718 14.1947 13.7124C15.5698 13.1815 17.7329 11.453 17.6659 9.06751C17.6497 8.60407 17.5382 8.14963 17.339 7.73473C17.1398 7.31983 16.8575 6.9541 16.511 6.66214C15.2029 5.47439 12.9791 4.92364 11.5848 5.07626C11.4006 5.09613 11.2155 5.04873 11.0612 4.94218C10.907 4.83564 10.7932 4.67659 10.7393 4.49233C10.5692 3.93905 10.3689 3.39628 10.1395 2.86664C9.94171 2.3922 9.71838 1.87132 9.45995 1.10824C9.42475 1.00563 9.40933 0.896814 9.41457 0.788013C9.41982 0.679212 9.44564 0.572551 9.49052 0.474119C9.5354 0.375687 9.59849 0.28741 9.67618 0.214333C9.75387 0.141255 9.84464 0.0848106 9.94331 0.0482124C10.042 0.0116142 10.1466 -0.00441301 10.2513 0.00104015C10.3559 0.00649332 10.4584 0.0333203 10.5531 0.0799946C10.6478 0.126669 10.7327 0.192268 10.8029 0.273057C10.8732 0.353847 10.9275 0.44824 10.9627 0.550846C11.202 1.24757 11.4062 1.73528 11.6008 2.20972C11.7603 2.59126 11.9198 2.95953 12.0666 3.39084C13.7831 3.39084 16.0451 4.03781 17.5574 5.41135C18.0697 5.85424 18.4861 6.40483 18.7792 7.02696C19.0723 7.6491 19.2355 8.32868 19.258 9.02106C19.325 11.4098 17.867 13.2578 16.3515 14.3593C20.1545 16.1509 23.3706 19.2895 24.9945 22.8561C26.3427 25.7787 26.7057 29.0881 26.0251 32.2514C25.3445 35.4146 23.6598 38.2476 21.2425 40.2941C21.1024 40.4148 20.9266 40.4816 20.7448 40.4833Z" fill="#FF7976"/>
<path d="M29.0469 20.7122C28.8561 20.7133 28.6711 20.6452 28.5255 20.5202C28.3799 20.3952 28.2833 20.2215 28.2532 20.0306C28.2231 19.8397 28.2614 19.6442 28.3613 19.4795C28.4611 19.3147 28.6159 19.1916 28.7976 19.1325C30.7758 18.485 32.7605 17.7599 34.7003 16.996C34.8968 16.9228 35.1139 16.9307 35.3047 17.018C35.4955 17.1052 35.6449 17.2649 35.7207 17.4626C35.7965 17.6602 35.7927 17.8802 35.7101 18.075C35.6274 18.2699 35.4725 18.4241 35.2788 18.5045C33.3133 19.2781 31.2999 20.0065 29.2962 20.6701C29.216 20.6982 29.1317 20.7124 29.0469 20.7122Z" fill="#FF7976"/>
<path d="M35.8228 41.4246C35.7122 41.4239 35.6027 41.4053 35.4994 41.3696C33.3184 40.6071 31.087 39.8897 28.8628 39.237C28.636 39.1702 28.448 39.025 28.3402 38.8336C28.2324 38.6421 28.2136 38.4199 28.2879 38.2159C28.3623 38.012 28.5236 37.8429 28.7365 37.746C28.9495 37.649 29.1965 37.6321 29.4233 37.6989C31.6763 38.3646 33.94 39.0916 36.1498 39.8606C36.3437 39.9305 36.5046 40.0586 36.6051 40.2233C36.7056 40.3879 36.7395 40.5788 36.7009 40.7634C36.6623 40.948 36.5537 41.1148 36.3935 41.2354C36.2334 41.356 36.0317 41.4228 35.8228 41.4246Z" fill="#FF7976"/>
<path d="M36.8361 30.1271L30.9115 30.0205C30.8068 30.0186 30.7035 29.9938 30.6074 29.9475C30.5113 29.9011 30.4244 29.8341 30.3515 29.7503C30.2787 29.6665 30.2214 29.5676 30.1829 29.4591C30.1444 29.3507 30.1254 29.2348 30.1271 29.1182C30.1287 29.0015 30.151 28.8864 30.1926 28.7794C30.2342 28.6723 30.2943 28.5755 30.3696 28.4943C30.4448 28.4132 30.5336 28.3493 30.6309 28.3064C30.7283 28.2635 30.8323 28.2424 30.937 28.2443L36.8616 28.3508C37.073 28.3508 37.2758 28.4444 37.4253 28.611C37.5748 28.7775 37.6587 29.0034 37.6587 29.239C37.6587 29.4745 37.5748 29.7004 37.4253 29.867C37.2758 30.0335 37.073 30.1271 36.8616 30.1271H36.8361Z" fill="#FF7976"/>
</svg>
