<svg width="33" height="42" viewBox="0 0 33 42" fill="none" xmlns="http://www.w3.org/2000/svg">
<path d="M20.9788 41.2814C19.5712 41.2814 18.1537 40.6968 16.8833 39.5929C16.7145 39.4444 16.4974 39.3624 16.2726 39.3624C16.0477 39.3624 15.8306 39.4444 15.6618 39.5929C14.3914 40.6968 12.974 41.2814 11.5663 41.2814C5.52438 41.2814 0.227051 33.3452 0.227051 24.2986C0.227051 16.4963 3.32971 12.022 8.74135 12.022C11.5076 12.022 13.6402 12.7503 15.0805 14.1905C15.4183 14.4611 15.8381 14.6086 16.2709 14.6086C16.7037 14.6086 17.1236 14.4611 17.4614 14.1905C18.9016 12.7503 21.0539 12.022 23.8038 12.022C27.9026 12.022 32.3181 15.8627 32.3181 24.2986C32.3181 33.3452 27.0175 41.2814 20.9788 41.2814ZM16.2726 37.3982C16.9714 37.3991 17.646 37.6545 18.1701 38.1168C18.8037 38.6654 19.803 39.3219 20.9788 39.3219C25.8777 39.3219 30.3585 32.1597 30.3585 24.2986C30.3585 17.2083 26.9587 13.9815 23.8038 13.9815C21.5765 13.9815 19.9075 14.5171 18.8494 15.5753C18.1432 16.2142 17.2249 16.568 16.2726 16.568C15.3203 16.568 14.4019 16.2142 13.6957 15.5753C12.6376 14.5171 10.9687 13.9815 8.74135 13.9815C3.32317 13.9815 2.18661 19.5924 2.18661 24.2986C2.18661 32.163 6.65766 39.3219 11.5663 39.3219C12.7388 39.3219 13.7415 38.6687 14.3751 38.1168C14.8992 37.6545 15.5737 37.3991 16.2726 37.3982Z" fill="#FF7976"/>
<path d="M16.2712 15.8597C16.0113 15.8597 15.7621 15.7564 15.5783 15.5727C15.3946 15.3889 15.2914 15.1397 15.2914 14.8799C15.2914 8.47212 14.3834 5.9051 10.8693 2.39096C10.7784 2.29982 10.7063 2.19167 10.6572 2.07267C10.608 1.95368 10.5829 1.82617 10.583 1.69743C10.5832 1.56869 10.6087 1.44124 10.6581 1.32236C10.7075 1.20348 10.7798 1.0955 10.8709 1.00458C10.9621 0.913653 11.0702 0.841569 11.1892 0.792443C11.3082 0.743317 11.4357 0.718111 11.5645 0.718262C11.6932 0.718414 11.8207 0.743922 11.9395 0.793328C12.0584 0.842734 12.1664 0.91507 12.2573 1.00621C16.1764 4.92532 17.2509 7.91038 17.2509 14.8799C17.2509 15.1397 17.1477 15.3889 16.964 15.5727C16.7802 15.7564 16.531 15.8597 16.2712 15.8597Z" fill="#FF7976"/>
<path d="M16.2728 12.094C16.2136 12.0951 16.1545 12.0896 16.0965 12.0777C15.841 12.0308 15.6146 11.8845 15.467 11.6707C15.3194 11.457 15.2627 11.1934 15.3094 10.9379C15.329 10.8268 17.5041 -0.345895 29.6142 1.67571C29.864 1.71682 30.0882 1.85301 30.2398 2.05576C30.3914 2.2585 30.4586 2.51205 30.4274 2.76327C29.5848 9.48781 23.8008 10.5721 20.8582 10.2031C20.7296 10.187 20.6053 10.1457 20.4926 10.0816C20.3799 10.0175 20.2809 9.93184 20.2013 9.82948C20.1217 9.72713 20.063 9.6101 20.0286 9.48507C19.9942 9.36004 19.9848 9.22947 20.0009 9.1008C20.017 8.97214 20.0583 8.8479 20.1224 8.73518C20.1865 8.62246 20.2721 8.52347 20.3745 8.44387C20.4768 8.36426 20.5939 8.30559 20.7189 8.27121C20.8439 8.23683 20.9745 8.22742 21.1032 8.2435C21.3514 8.27289 27.0341 8.89668 28.3111 3.45565C18.9509 2.47587 17.3049 10.902 17.2363 11.2743C17.1985 11.5027 17.081 11.7104 16.9046 11.8605C16.7282 12.0105 16.5044 12.0933 16.2728 12.094Z" fill="#FF7976"/>
</svg>
