<svg width="32" height="32" viewBox="0 0 32 32" fill="none" xmlns="http://www.w3.org/2000/svg">
<path d="M8.61523 16.0001C8.61523 17.9586 9.39325 19.8369 10.7781 21.2218C12.163 22.6067 14.0413 23.3847 15.9998 23.3847C17.9584 23.3847 19.8367 22.6067 21.2216 21.2218C22.6064 19.8369 23.3845 17.9586 23.3845 16.0001C23.3845 14.0416 22.6064 12.1633 21.2216 10.7784C19.8367 9.3935 17.9584 8.61548 15.9998 8.61548C14.0413 8.61548 12.163 9.3935 10.7781 10.7784C9.39325 12.1633 8.61523 14.0416 8.61523 16.0001V16.0001Z" stroke="#CED8DE" stroke-width="2" stroke-linecap="round" stroke-linejoin="round"/>
<path d="M16 13.2308V16.0001H18.7692" stroke="#CED8DE" stroke-width="2" stroke-linecap="round" stroke-linejoin="round"/>
<path d="M4 4H28V28H4V4Z" stroke="#CED8DE" stroke-width="2" stroke-linecap="round" stroke-linejoin="round"/>
</svg>
