<svg width="30" height="36" viewBox="0 0 30 36" fill="none" xmlns="http://www.w3.org/2000/svg">
<path d="M29.1608 35.474H0.949692C0.834826 35.4734 0.721351 35.4487 0.616619 35.4015C0.511886 35.3543 0.418197 35.2857 0.341621 35.2001C0.264194 35.1152 0.205426 35.0151 0.169099 34.9061C0.132773 34.7971 0.119724 34.6818 0.13075 34.5674L2.63686 9.1363C2.65666 8.93242 2.7519 8.74328 2.9039 8.60598C3.0559 8.46867 3.25371 8.39309 3.45854 8.39405H7.50945C7.72738 8.39405 7.93638 8.48062 8.09048 8.63471C8.24457 8.78881 8.33114 8.99781 8.33114 9.21574C8.33114 9.43366 8.24457 9.64265 8.09048 9.79674C7.93638 9.95084 7.72738 10.0374 7.50945 10.0374H4.20356L1.85901 33.8279H28.2597L25.9151 10.0374H12.278C12.06 10.0374 11.851 9.95084 11.6969 9.79674C11.5428 9.64265 11.4563 9.43366 11.4563 9.21574C11.4563 8.99781 11.5428 8.78881 11.6969 8.63471C11.851 8.48062 12.06 8.39405 12.278 8.39405H26.6602C26.865 8.39309 27.0628 8.46867 27.2148 8.60598C27.3668 8.74328 27.4621 8.93242 27.4819 9.1363L29.9853 34.5674C29.9966 34.6816 29.984 34.7968 29.9481 34.9058C29.9123 35.0148 29.854 35.115 29.7771 35.2001C29.6996 35.2868 29.6046 35.356 29.4983 35.4032C29.3921 35.4504 29.2771 35.4745 29.1608 35.474Z" fill="#FF7976"/>
<path d="M20.4164 13.4364C20.1984 13.4364 19.9894 13.3498 19.8353 13.1957C19.6812 13.0416 19.5947 12.8326 19.5947 12.6147V6.47945C19.5656 5.29401 19.0742 4.16691 18.2255 3.33878C17.3767 2.51065 16.2379 2.04711 15.0521 2.04711C13.8663 2.04711 12.7275 2.51065 11.8788 3.33878C11.0301 4.16691 10.5387 5.29401 10.5096 6.47945V12.6147C10.5096 12.8326 10.423 13.0416 10.2689 13.1957C10.1148 13.3498 9.90582 13.4364 9.68789 13.4364C9.46997 13.4364 9.261 13.3498 9.10691 13.1957C8.95281 13.0416 8.86621 12.8326 8.86621 12.6147V6.47945C8.90026 4.86139 9.56695 3.32108 10.7233 2.18879C11.8797 1.05649 13.4337 0.422363 15.0521 0.422363C16.6706 0.422363 18.2245 1.05649 19.3809 2.18879C20.5373 3.32108 21.204 4.86139 21.238 6.47945V12.6147C21.238 12.8326 21.1515 13.0416 20.9974 13.1957C20.8433 13.3498 20.6343 13.4364 20.4164 13.4364Z" fill="#FF7976"/>
<path d="M11.5032 13.4363H7.82754C7.60962 13.4363 7.40062 13.3498 7.24652 13.1957C7.09242 13.0416 7.00586 12.8326 7.00586 12.6147C7.00586 12.3967 7.09242 12.1877 7.24652 12.0336C7.40062 11.8795 7.60962 11.793 7.82754 11.793H11.5032C11.7211 11.793 11.9301 11.8795 12.0842 12.0336C12.2383 12.1877 12.3249 12.3967 12.3249 12.6147C12.3249 12.8326 12.2383 13.0416 12.0842 13.1957C11.9301 13.3498 11.7211 13.4363 11.5032 13.4363Z" fill="#FF7976"/>
<path d="M22.2781 13.4363H18.6024C18.3845 13.4363 18.1755 13.3498 18.0214 13.1957C17.8673 13.0416 17.7808 12.8326 17.7808 12.6147C17.7808 12.3967 17.8673 12.1877 18.0214 12.0336C18.1755 11.8795 18.3845 11.793 18.6024 11.793H22.2781C22.496 11.793 22.705 11.8795 22.8591 12.0336C23.0132 12.1877 23.0998 12.3967 23.0998 12.6147C23.0998 12.8326 23.0132 13.0416 22.8591 13.1957C22.705 13.3498 22.496 13.4363 22.2781 13.4363Z" fill="#FF7976"/>
</svg>
