<svg width="37" height="37" viewBox="0 0 37 37" fill="none" xmlns="http://www.w3.org/2000/svg">
<path d="M30.3525 36.5773H6.54756C4.92338 36.5758 3.36616 35.9299 2.21769 34.7814C1.06922 33.6328 0.423371 32.0755 0.421875 30.4511V6.64718C0.424118 5.0231 1.07021 3.46619 2.21852 2.31779C3.36682 1.1694 4.92361 0.523239 6.54756 0.520996H30.3525C31.9767 0.522492 33.5339 1.16841 34.6824 2.31697C35.8309 3.46553 36.4767 5.02287 36.4782 6.64718V30.454C36.476 32.0778 35.8298 33.6344 34.6814 34.7824C33.533 35.9303 31.9762 36.5758 30.3525 36.5773ZM6.54756 2.21643C5.37301 2.21793 4.247 2.68522 3.41646 3.51582C2.58592 4.34643 2.11868 5.47253 2.11718 6.64718V30.454C2.11868 31.6284 2.58602 32.7542 3.41663 33.5843C4.24725 34.4145 5.37327 34.8811 6.54756 34.8819H30.3525C31.5273 34.8811 32.6538 34.4141 33.4845 33.5833C34.3152 32.7526 34.7822 31.626 34.7829 30.4511V6.64718C34.7814 5.47253 34.3142 4.34643 33.4836 3.51582C32.6531 2.68522 31.527 2.21793 30.3525 2.21643H6.54756Z" fill="#FF7976"/>
<path d="M27.0309 16.9096C26.9349 16.9083 26.8397 16.8901 26.7499 16.8559C21.3817 14.8453 15.4757 14.8373 10.1022 16.8332C9.89272 16.9108 9.66129 16.9017 9.45854 16.8077C9.25564 16.714 9.09794 16.543 9.02006 16.3323L6.20938 8.62956C6.17077 8.52478 6.1531 8.41336 6.15736 8.30169C6.16163 8.19001 6.18777 8.08027 6.23425 7.97879C6.28073 7.8773 6.34665 7.78607 6.42824 7.7103C6.50983 7.63452 6.60547 7.5757 6.70969 7.53723C10.4538 6.14553 14.4138 5.43458 18.4049 5.43751H18.4527C22.4601 5.44004 26.4349 6.16261 30.1901 7.57121C30.2941 7.60996 30.3894 7.66897 30.4707 7.74486C30.552 7.82075 30.6177 7.91203 30.6639 8.01349C30.7101 8.11494 30.736 8.22457 30.74 8.33611C30.7441 8.44765 30.7263 8.55891 30.6876 8.66351L27.846 16.355C27.7849 16.5217 27.6734 16.6649 27.5271 16.7644C27.3809 16.8639 27.2074 16.9147 27.0309 16.9096ZM18.3881 13.644C21.159 13.6421 23.9118 14.0932 26.5391 14.9797L28.7876 8.87575C22.0731 6.56508 14.788 6.55512 8.06723 8.84744L10.3158 14.9599C12.8011 14.1285 15.3984 13.6856 18.0171 13.6468L18.3881 13.644Z" fill="#FF7976"/>
<path d="M18.4513 15.2713C18.234 15.2713 18.0255 15.1768 17.8718 15.0086C17.7182 14.8405 17.6318 14.6124 17.6318 14.3746V11.2512C17.6318 11.0134 17.7182 10.7853 17.8718 10.6171C18.0255 10.449 18.234 10.3545 18.4513 10.3545C18.6686 10.3545 18.877 10.449 19.0307 10.6171C19.1844 10.7853 19.2708 11.0134 19.2708 11.2512V14.3746C19.2708 14.6124 19.1844 14.8405 19.0307 15.0086C18.877 15.1768 18.6686 15.2713 18.4513 15.2713Z" fill="#FF7976"/>
<path d="M18.4513 8.71535C18.2339 8.71535 18.0255 8.61612 17.8718 8.43948C17.7182 8.26283 17.6318 8.02325 17.6318 7.77344V6.37941C17.6318 6.1296 17.7182 5.89003 17.8718 5.71338C18.0255 5.53674 18.2339 5.4375 18.4513 5.4375C18.6686 5.4375 18.877 5.53674 19.0307 5.71338C19.1844 5.89003 19.2707 6.1296 19.2707 6.37941V7.76401C19.2718 7.88849 19.2514 8.012 19.2107 8.12736C19.17 8.24273 19.1098 8.34768 19.0336 8.43614C18.9574 8.52461 18.8667 8.59484 18.7667 8.64276C18.6668 8.69068 18.5596 8.71536 18.4513 8.71535Z" fill="#FF7976"/>
<path d="M22.4591 8.71299C22.4171 8.71662 22.3748 8.71662 22.3327 8.71299C22.2381 8.69669 22.1476 8.66204 22.0665 8.61102C21.9855 8.56 21.9154 8.49364 21.8602 8.41571C21.8051 8.33778 21.766 8.24982 21.7453 8.15689C21.7245 8.06397 21.7225 7.96789 21.7393 7.87417L21.9241 6.82806C21.9637 6.64605 22.0726 6.48619 22.2281 6.38177C22.3836 6.27734 22.5738 6.2364 22.7591 6.26746C22.9443 6.29852 23.1103 6.3992 23.2225 6.54853C23.3347 6.69785 23.3845 6.88432 23.3614 7.0691L23.1766 8.11521C23.1469 8.2825 23.0587 8.43409 22.9275 8.54339C22.7964 8.65269 22.6305 8.71273 22.4591 8.71299Z" fill="#FF7976"/>
<path d="M26.5288 9.53501C26.4737 9.5356 26.4187 9.52918 26.3651 9.51589C26.2753 9.49399 26.1906 9.45425 26.1159 9.3989C26.0412 9.34356 25.978 9.2737 25.9297 9.19335C25.8815 9.11299 25.8492 9.0237 25.8348 8.9306C25.8204 8.8375 25.8241 8.7424 25.8457 8.65076L26.0796 7.6279C26.1228 7.44282 26.2361 7.28282 26.3947 7.1831C26.5533 7.08338 26.7442 7.05211 26.9254 7.09616C27.1066 7.14021 27.2633 7.25598 27.3609 7.418C27.4585 7.58002 27.4891 7.77502 27.446 7.9601L27.212 8.98534C27.1752 9.14207 27.0878 9.28155 26.9638 9.38128C26.8399 9.48101 26.6866 9.53516 26.5288 9.53501Z" fill="#FF7976"/>
<path d="M14.4538 8.706C14.2806 8.7086 14.1121 8.65003 13.9786 8.54079C13.8451 8.43155 13.7552 8.27879 13.7252 8.10993L13.5382 7.06679C13.5152 6.88253 13.5649 6.6966 13.677 6.5477C13.789 6.3988 13.9548 6.29841 14.1398 6.26743C14.3248 6.23646 14.5147 6.27728 14.67 6.38141C14.8253 6.48554 14.934 6.64495 14.9736 6.82644L15.1606 7.86957C15.1792 7.97417 15.1743 8.08154 15.1461 8.18401C15.1179 8.28649 15.0672 8.38154 14.9976 8.46236C14.928 8.54319 14.8412 8.60781 14.7434 8.65159C14.6456 8.69537 14.5393 8.71724 14.432 8.71563L14.4538 8.706Z" fill="#FF7976"/>
<path d="M10.3704 9.53496C10.213 9.53457 10.0603 9.48018 9.93684 9.38049C9.81337 9.28081 9.72627 9.14163 9.68955 8.98531L9.4556 7.96008C9.41248 7.77501 9.44312 7.58001 9.54074 7.418C9.63836 7.25598 9.79496 7.14021 9.97614 7.09616C10.1573 7.05211 10.3482 7.08338 10.5068 7.1831C10.6654 7.28282 10.7788 7.44282 10.8219 7.62789L11.0558 8.65073C11.0995 8.83548 11.0696 9.0304 10.9726 9.19262C10.8757 9.35484 10.7196 9.4711 10.5388 9.51584C10.4837 9.52945 10.4271 9.53588 10.3704 9.53496Z" fill="#FF7976"/>
</svg>
