<svg width="40" height="35" viewBox="0 0 40 35" fill="none" xmlns="http://www.w3.org/2000/svg">
<path d="M12.1377 19.7786V21.1034C12.1377 21.3107 12.22 21.5095 12.3666 21.6561C12.5132 21.8026 12.712 21.885 12.9193 21.885C13.1266 21.885 13.3253 21.8026 13.4719 21.6561C13.6185 21.5095 13.7008 21.3107 13.7008 21.1034V19.7786C13.7008 19.5714 13.6185 19.3726 13.4719 19.226C13.3253 19.0794 13.1266 18.9971 12.9193 18.9971C12.712 18.9971 12.5132 19.0794 12.3666 19.226C12.22 19.3726 12.1377 19.5714 12.1377 19.7786Z" fill="#FF7976"/>
<path d="M27.0116 21.885C27.2188 21.885 27.4176 21.8026 27.5642 21.6561C27.7108 21.5095 27.7931 21.3107 27.7931 21.1034V19.7786C27.7931 19.5714 27.7108 19.3726 27.5642 19.226C27.4176 19.0794 27.2188 18.9971 27.0116 18.9971C26.8043 18.9971 26.6055 19.0794 26.4589 19.226C26.3123 19.3726 26.23 19.5714 26.23 19.7786V21.1034C26.23 21.3107 26.3123 21.5095 26.4589 21.6561C26.6055 21.8026 26.8043 21.885 27.0116 21.885Z" fill="#FF7976"/>
<path d="M4.91438 23.8944C5.92086 27.0745 7.91413 29.8513 10.6051 31.8222C13.2962 33.7931 16.545 34.8556 19.8806 34.8556C23.2161 34.8556 26.465 33.7931 29.156 31.8222C31.847 29.8513 33.8403 27.0745 34.8468 23.8944C36.0101 23.7818 37.0909 23.2434 37.8814 22.3824C38.6719 21.5215 39.1163 20.3988 39.1294 19.2301C39.1425 18.0614 38.7232 16.929 37.9521 16.0506C37.1811 15.1722 36.1127 14.6098 34.9521 14.4712H34.844C33.8822 11.4438 32.0319 8.77563 29.5338 6.81352C29.4535 6.74523 29.3603 6.69388 29.2597 6.66255C29.1591 6.63122 29.0532 6.62055 28.9483 6.6312C28.8435 6.64184 28.7419 6.67358 28.6496 6.7245C28.5574 6.77542 28.4764 6.84446 28.4115 6.92749C28.3466 7.01052 28.2992 7.10581 28.272 7.20764C28.2449 7.30946 28.2387 7.41572 28.2537 7.52002C28.2687 7.62433 28.3046 7.72452 28.3593 7.81458C28.414 7.90464 28.4864 7.9827 28.5721 8.04407C30.7252 9.73811 32.3446 12.0166 33.2365 14.607C32.4961 14.7927 31.8121 15.1561 31.2438 15.6658C31.1633 15.7331 31.0972 15.8161 31.0494 15.9096C31.0017 16.0031 30.9733 16.1052 30.9659 16.2099C30.9585 16.3147 30.9722 16.4198 31.0063 16.5191C31.0405 16.6184 31.0943 16.7098 31.1645 16.7878C31.2347 16.8659 31.3199 16.929 31.4151 16.9734C31.5102 17.0177 31.6133 17.0425 31.7183 17.0462C31.8232 17.0498 31.9278 17.0323 32.0258 16.9946C32.1238 16.957 32.2132 16.9 32.2887 16.827C32.8403 16.3333 33.5472 16.048 34.2869 16.0205C34.4484 16.0087 34.6105 16.0087 34.772 16.0205C35.5804 16.1102 36.3236 16.5066 36.8484 17.128C37.3732 17.7494 37.6396 18.5485 37.5927 19.3605C37.5457 20.1725 37.1891 20.9356 36.5962 21.4924C36.0034 22.0493 35.2195 22.3574 34.4061 22.3534H34.3673C34.1797 22.3243 33.9879 22.3646 33.8277 22.4666C33.6676 22.5686 33.55 22.7254 33.4971 22.9077C32.6763 25.8927 30.8983 28.5257 28.4361 30.4022C25.974 32.2788 22.9639 33.2951 19.8681 33.2951C16.7724 33.2951 13.7622 32.2788 11.3001 30.4022C8.83791 28.5257 7.05991 25.8927 6.23917 22.9077C6.18979 22.7302 6.07927 22.5758 5.92714 22.4719C5.77501 22.3679 5.59104 22.3211 5.40771 22.3396H5.33565C4.88902 22.3385 4.4476 22.2437 4.0399 22.0613C3.6322 21.8789 3.2673 21.6131 2.96878 21.2809C2.58357 20.8464 2.32469 20.3148 2.22022 19.7437C2.11575 19.1726 2.16969 18.5838 2.37618 18.0412C2.58266 17.4985 2.93381 17.0228 3.39153 16.6656C3.84924 16.3084 4.39603 16.0834 4.97258 16.015C5.13496 16.0031 5.29799 16.0031 5.46037 16.015C6.2013 16.0433 6.90907 16.3296 7.46141 16.8242C7.53766 16.893 7.62671 16.9461 7.72348 16.9805C7.82025 17.0149 7.92284 17.0299 8.02539 17.0246C8.12795 17.0193 8.22847 16.9939 8.32121 16.9498C8.41394 16.9056 8.49706 16.8437 8.56585 16.7674C8.63464 16.6912 8.68774 16.6021 8.72211 16.5054C8.75649 16.4086 8.77147 16.306 8.76619 16.2034C8.76091 16.1009 8.73548 16.0004 8.69136 15.9076C8.64724 15.8149 8.58529 15.7318 8.50904 15.663C7.93787 15.1507 7.24986 14.7863 6.50523 14.6015C7.2067 12.5629 8.36424 10.7113 9.88966 9.18783C11.4151 7.66434 13.2681 6.50913 15.3076 5.81023C15.4632 6.72338 15.9365 7.55215 16.644 8.15008C17.3515 8.74802 18.2475 9.07663 19.1738 9.07785C21.003 9.07785 22.2225 7.85007 22.2225 6.02918C22.2218 5.28847 21.9272 4.57831 21.4035 4.05455C20.8797 3.53079 20.1695 3.23622 19.4288 3.23549C19.2215 3.23549 19.0227 3.31783 18.8762 3.4644C18.7296 3.61098 18.6473 3.80977 18.6473 4.01706C18.6473 4.22434 18.7296 4.42314 18.8762 4.56971C19.0227 4.71628 19.2215 4.79863 19.4288 4.79863C19.7552 4.79863 20.0682 4.92827 20.299 5.15905C20.5297 5.38982 20.6594 5.70282 20.6594 6.02918C20.6594 6.99367 20.13 7.52303 19.1655 7.52303C18.5392 7.5223 17.9388 7.27337 17.4956 6.83077C17.0525 6.38817 16.8029 5.78799 16.8014 5.1617C16.8107 5.05094 16.8265 4.94082 16.8485 4.83188C16.9219 4.05246 17.2843 3.3287 17.8644 2.80298C18.4445 2.27726 19.2003 1.98763 19.9831 1.99108C21.0786 1.99254 22.1289 2.42838 22.9035 3.20303C23.6782 3.97767 24.114 5.0279 24.1155 6.12341C24.1133 7.54625 23.5463 8.91002 22.5392 9.91507C21.532 10.9201 20.1671 11.4843 18.7443 11.4835C18.6416 11.4835 18.54 11.5037 18.4452 11.543C18.3503 11.5823 18.2642 11.6399 18.1916 11.7124C18.119 11.785 18.0615 11.8712 18.0222 11.966C17.9829 12.0608 17.9627 12.1625 17.9627 12.2651C17.9627 12.3677 17.9829 12.4694 18.0222 12.5642C18.0615 12.659 18.119 12.7452 18.1916 12.8178C18.2642 12.8903 18.3503 12.9479 18.4452 12.9872C18.54 13.0265 18.6416 13.0467 18.7443 13.0467C20.5819 13.0467 22.3443 12.3167 23.6437 11.0173C24.9431 9.71787 25.6731 7.9555 25.6731 6.11787C25.6716 4.60779 25.0711 3.15997 24.0033 2.09218C22.9355 1.02439 21.4877 0.423864 19.9776 0.422397C18.8988 0.418328 17.8516 0.786323 17.0125 1.46435C16.1735 2.14237 15.5938 3.08896 15.3713 4.14455C12.9231 4.88565 10.6927 6.21278 8.87337 8.01083C7.05406 9.80889 5.70083 12.0236 4.93101 14.4629H4.82292C3.65776 14.5948 2.58294 15.1542 1.80644 16.0329C1.02995 16.9115 0.606991 18.047 0.619406 19.2195C0.631821 20.3921 1.07874 21.5183 1.87366 22.3803C2.66858 23.2424 3.755 23.7789 4.92269 23.8861L4.91438 23.8944Z" fill="#FF7976"/>
<path d="M23.0877 25.1663C22.7313 25.6859 22.2537 26.1109 21.6962 26.4046C21.1387 26.6982 20.5181 26.8516 19.888 26.8516C19.2579 26.8516 18.6373 26.6982 18.0798 26.4046C17.5223 26.1109 17.0447 25.6859 16.6883 25.1663C16.5714 24.9951 16.3913 24.8772 16.1876 24.8388C15.9838 24.8003 15.7731 24.8444 15.6019 24.9612C15.4306 25.0781 15.3128 25.2582 15.2743 25.462C15.2359 25.6657 15.2799 25.8764 15.3968 26.0477C15.8954 26.7793 16.5652 27.3781 17.3479 27.7919C18.1306 28.2057 19.0026 28.422 19.888 28.422C20.7734 28.422 21.6454 28.2057 22.4281 27.7919C23.2109 27.3781 23.8807 26.7793 24.3793 26.0477C24.4371 25.9629 24.4777 25.8675 24.4987 25.767C24.5198 25.6665 24.5208 25.5629 24.5017 25.462C24.4827 25.3611 24.444 25.2649 24.3878 25.179C24.3315 25.0931 24.259 25.0191 24.1742 24.9612C24.0894 24.9034 23.994 24.8628 23.8935 24.8417C23.793 24.8207 23.6894 24.8197 23.5885 24.8388C23.4876 24.8578 23.3914 24.8965 23.3055 24.9527C23.2196 25.0089 23.1456 25.0815 23.0877 25.1663Z" fill="#FF7976"/>
</svg>
