<svg width="41" height="28" viewBox="0 0 41 28" fill="none" xmlns="http://www.w3.org/2000/svg">
<path d="M39.3401 16.9951V16.9819H31.1891V7.68052C31.1891 7.44158 31.1617 7.21547 31.1073 6.99889C30.287 3.539 24.058 0.929688 16.618 0.929688C16.1484 0.929688 15.6636 0.94004 15.1767 0.961159C6.41135 1.34545 0.521973 4.57759 0.521973 9.0036C0.521973 9.00609 0.522395 9.00899 0.522395 9.01189C0.522395 9.01354 0.521973 9.0152 0.521973 9.01644V18.3372C0.521973 18.6462 0.559525 18.9592 0.632942 19.2665C1.86626 24.4735 9.99148 27.9719 20.8517 27.9719H39.3401C39.8059 27.9719 40.184 27.6009 40.184 27.1437V17.8233C40.184 17.3657 39.8059 16.9951 39.3401 16.9951ZM20.8517 16.9819C17.2403 16.9819 13.8961 16.552 11.0632 15.7934V11.1392C12.3817 12.0552 14.3269 12.6672 16.4095 12.9613C17.3678 13.0975 18.3551 13.1658 19.3234 13.1658C19.6445 13.1658 19.9715 13.1575 20.2952 13.1443C24.3542 12.9654 27.6368 11.9993 29.5014 10.571V16.9819H20.8517ZM19.4298 6.2154C19.5175 6.22782 19.6066 6.24024 19.6918 6.25432C19.799 6.27254 19.9019 6.29242 20.004 6.31313C20.0458 6.32141 20.0893 6.32928 20.1306 6.33797C20.2593 6.3653 20.3833 6.39471 20.504 6.42494C20.5154 6.42783 20.5272 6.43032 20.5386 6.43363C21.8842 6.7819 22.7171 7.3277 22.8909 7.77204V11.2141C22.0192 11.3558 21.1192 11.4477 20.2087 11.4879C19.9108 11.4999 19.6082 11.5077 19.3108 11.5077C18.4644 11.5077 17.6576 11.4556 16.9032 11.3611C13.6336 10.9499 11.3488 9.74983 11.0771 8.59777C11.0683 8.56423 11.0636 8.52531 11.0636 8.47934C11.0636 7.61343 13.1758 6.26799 16.9986 6.10069C17.199 6.09116 17.399 6.08661 17.5931 6.08661C18.1775 6.08702 18.7218 6.12305 19.2222 6.18599C19.2926 6.19428 19.3606 6.20546 19.4298 6.2154ZM15.2513 2.61595C15.7129 2.59607 16.1728 2.58613 16.618 2.58613C22.2732 2.58613 28.7841 4.51009 29.4659 7.3836C29.49 7.47926 29.5014 7.57616 29.5014 7.68052C29.5014 8.84624 27.6904 10.1544 24.5786 10.9023V7.80103C24.5985 7.69336 24.5968 7.57989 24.5698 7.46642C24.1972 5.9015 22.1479 4.97555 19.8741 4.61072C19.1167 4.48814 18.3336 4.42809 17.5796 4.42727C17.3585 4.42727 17.1306 4.43306 16.9057 4.44342C12.464 4.63805 9.36195 6.29698 9.36195 8.47685C9.36195 8.55388 9.36828 8.62883 9.37588 8.70213V15.2807C5.48141 13.9518 2.84009 11.9351 2.27638 9.55603C2.23208 9.37092 2.20972 9.1854 2.20972 9.0036C2.20972 5.57932 7.57294 2.95262 15.2513 2.61595ZM38.4962 26.3155H34.5646V23.4167C34.5646 22.9595 34.1866 22.5885 33.7207 22.5885C33.2549 22.5885 32.8769 22.9595 32.8769 23.4167V26.3155H29.2959V23.4167C29.2959 22.9595 28.9178 22.5885 28.452 22.5885C27.9862 22.5885 27.6082 22.9595 27.6082 23.4167V26.3155H23.8517V23.4167C23.8517 22.9595 23.4736 22.5885 23.0078 22.5885C22.542 22.5885 22.1639 22.9595 22.1639 23.4167V26.3155H20.8517C20.0217 26.3155 19.207 26.2911 18.4078 26.2468V23.4594C18.4078 23.0022 18.0298 22.6312 17.564 22.6312C17.0981 22.6312 16.7201 23.0022 16.7201 23.4594V26.1196C15.4079 25.9933 14.1509 25.8086 12.9636 25.5697V22.7173C12.9636 22.2601 12.5855 21.8891 12.1197 21.8891C11.6539 21.8891 11.2759 22.2601 11.2759 22.7173V25.1821C9.89655 24.8239 8.63538 24.3882 7.51978 23.8863V20.865C7.51978 20.4078 7.14173 20.0368 6.67591 20.0368C6.21009 20.0368 5.83204 20.4078 5.83204 20.865V23.0088C3.91054 21.8522 2.646 20.4492 2.2768 18.8901C2.23208 18.705 2.20972 18.519 2.20972 18.3372V12.9004C2.26457 12.9633 2.32997 13.023 2.38735 13.0851C2.3882 13.0859 2.38904 13.0867 2.38988 13.088C2.64051 13.3592 2.91562 13.6218 3.21097 13.8764C3.21392 13.8789 3.21688 13.8814 3.21983 13.8839C6.65439 16.8373 13.0404 18.6511 20.8513 18.6511H38.4962V26.3155Z" fill="#FF7976"/>
</svg>
