<svg width="42" height="38" viewBox="0 0 42 38" fill="none" xmlns="http://www.w3.org/2000/svg">
<path d="M37.3193 7.3709C35.7611 6.20933 33.8935 5.53574 31.9526 5.43526C30.0117 5.33477 28.0846 5.8119 26.4147 6.80635C24.7449 7.8008 23.4073 9.26793 22.5711 11.0223C21.7348 12.7767 21.4374 14.7397 21.7164 16.6631C21.7481 16.8758 21.7941 17.0828 21.8372 17.2927C20.5578 17.4221 17.5764 17.9223 15.8829 19.8802C15.8513 19.9205 15.8226 19.9607 15.7909 19.9981C15.1585 18.1734 14.9319 16.2326 15.1268 14.3113C15.2317 13.3478 15.4399 12.3983 15.7478 11.4793C16.0662 10.5967 16.2409 9.66875 16.2653 8.73079C16.2251 3.39758 12.8325 1.07454 12.1511 0.663405C12.0601 0.600869 11.9572 0.557612 11.8488 0.536271C11.7404 0.514929 11.6288 0.515961 11.5208 0.539306C11.4129 0.562652 11.3108 0.607809 11.2209 0.672021C11.131 0.736234 11.0552 0.818137 10.9981 0.912708C10.941 1.00728 10.9038 1.11252 10.8889 1.22197C10.8739 1.33143 10.8815 1.44278 10.9111 1.54921C10.9408 1.65563 10.9918 1.75488 11.0612 1.84085C11.1305 1.92683 11.2168 1.99772 11.3145 2.04918C11.8636 2.38269 14.6122 4.2716 14.6438 8.7423C14.6168 9.51638 14.4663 10.2812 14.1982 11.0078C13.8559 12.034 13.6264 13.0945 13.5139 14.1704C13.365 15.6802 13.4445 17.2038 13.7497 18.69C12.8717 18.1451 11.8453 17.8887 10.8142 17.9568C8.43657 18.0718 6.50168 19.1902 5.47241 20.8319C5.24619 20.4748 4.93508 20.1792 4.56687 19.9715C4.19866 19.7638 3.78477 19.6505 3.36212 19.6416C1.87572 19.6416 0.331813 21.0993 0.320312 23.5287C0.320312 25.2911 0.320323 25.6044 0.42095 26.9155L0.452571 27.4157C0.514422 28.3415 0.925034 29.2094 1.60159 29.8443C2.27815 30.4793 3.1703 30.834 4.09813 30.837H4.32239H6.09054C6.30556 30.837 6.5118 30.7516 6.66384 30.5996C6.81589 30.4475 6.9013 30.2413 6.9013 30.0263C6.9013 29.8112 6.81589 29.605 6.66384 29.453C6.5118 29.3009 6.30556 29.2155 6.09054 29.2155H4.29651H4.239C3.97157 29.2339 3.70314 29.1992 3.44914 29.1135C3.19513 29.0278 2.96056 28.8928 2.75887 28.7163C2.55718 28.5397 2.39235 28.325 2.27385 28.0846C2.15535 27.8441 2.08551 27.5826 2.06835 27.3151L2.03385 26.8148C1.9476 25.5182 1.93034 25.2479 1.93897 23.543C1.93897 22.14 2.6836 21.2689 3.37649 21.2689C3.9515 21.2689 4.60126 22.0509 4.71052 23.7587V23.7874V24.9058C4.70976 25.0124 4.73009 25.1181 4.77036 25.2167C4.81062 25.3154 4.87 25.4052 4.9451 25.4808C5.02019 25.5564 5.10952 25.6164 5.20791 25.6574C5.30631 25.6984 5.41183 25.7195 5.5184 25.7195C5.73244 25.7195 5.93779 25.6348 6.08968 25.484C6.24156 25.3332 6.32765 25.1285 6.32917 24.9144V24.3595C6.34186 24.3 6.3486 24.2393 6.3493 24.1784C6.3493 24.0232 6.3493 23.8909 6.33205 23.7328C6.21992 21.1682 8.54583 19.7077 10.9062 19.5985C11.4158 19.5512 11.9292 19.6282 12.4025 19.823C12.8757 20.0178 13.2946 20.3245 13.6232 20.7169C14.2643 21.4845 14.6496 22.6345 14.7128 23.9599C14.7114 23.9762 14.7114 23.9925 14.7128 24.0088C14.8882 25.5843 15.5753 26.7602 16.7253 27.5048C17.7517 28.1632 19.0254 28.3674 20.2099 28.3674C21.5194 28.349 22.8196 28.1438 24.0711 27.7579C24.1723 27.7244 24.2659 27.6714 24.3466 27.6018C24.4273 27.5322 24.4935 27.4474 24.5414 27.3523C24.5893 27.2571 24.618 27.1534 24.6259 27.0471C24.6337 26.9409 24.6206 26.8341 24.5872 26.7329C24.5538 26.6317 24.5007 26.5381 24.4311 26.4574C24.3616 26.3767 24.2767 26.3105 24.1816 26.2626C24.0864 26.2147 23.9827 26.186 23.8764 26.1781C23.7702 26.1703 23.6634 26.1834 23.5622 26.2168C23.522 26.2168 19.678 27.4704 17.5994 26.1335C16.8605 25.662 16.4493 24.9087 16.3228 23.8334C16.3213 23.8124 16.3213 23.7912 16.3228 23.7702C16.2477 23.2758 16.2794 22.7711 16.4158 22.2901C16.5522 21.809 16.7901 21.3627 17.1135 20.9814C18.5826 19.288 21.5755 18.9688 22.3317 18.9228C22.7227 19.9071 23.2703 20.8216 23.9532 21.6311L21.9781 21.9186C21.8708 21.9317 21.7672 21.966 21.6734 22.0197C21.5796 22.0733 21.4975 22.1452 21.4319 22.231C21.3662 22.3168 21.3184 22.4149 21.2912 22.5195C21.264 22.6241 21.258 22.733 21.2735 22.84C21.2891 22.9469 21.3258 23.0496 21.3816 23.1422C21.4374 23.2347 21.5111 23.3151 21.5985 23.3788C21.6858 23.4424 21.785 23.4879 21.8901 23.5127C21.9953 23.5374 22.1044 23.5409 22.2109 23.5229L25.5029 23.0457C25.6376 23.0243 25.765 22.97 25.8737 22.8875C26.0045 22.8374 26.12 22.7542 26.2089 22.646C26.2978 22.5378 26.357 22.4083 26.3808 22.2703C26.4045 22.1323 26.392 21.9905 26.3445 21.8588C26.2969 21.7271 26.216 21.61 26.1095 21.519C24.6794 20.3057 23.7081 18.6391 23.3573 16.7967C23.0066 14.9543 23.2975 13.0474 24.1818 11.3935C25.066 9.73952 26.4902 8.43841 28.217 7.7068C29.9439 6.97518 31.8693 6.85721 33.6726 7.37255C35.4759 7.88788 37.0482 9.00541 38.1277 10.539C39.2072 12.0727 39.7288 13.9298 39.6056 15.8012C39.4824 17.6726 38.7218 19.4454 37.4505 20.8242C36.1792 22.203 34.4739 23.1047 32.6186 23.3792H32.5755L32.4662 23.4079L32.4231 23.4252C32.3882 23.4385 32.3545 23.4549 32.3225 23.474L32.2794 23.5057C32.2498 23.5232 32.2219 23.5434 32.196 23.566L32.1557 23.6092C32.1332 23.6308 32.112 23.6538 32.0925 23.6782C32.079 23.6976 32.0665 23.7178 32.0551 23.7385C32.0381 23.7614 32.0227 23.7854 32.0091 23.8104C31.9978 23.8356 31.9882 23.8616 31.9804 23.8881C31.9705 23.9096 31.9618 23.9317 31.9545 23.9542C31.9545 23.9858 31.9545 24.0174 31.9372 24.0491C31.92 24.0807 31.9372 24.0864 31.9372 24.1066C31.8941 24.6327 30.7326 36.9954 17.93 36.0322C14.086 35.7447 11.579 34.5947 10.4721 32.6483C8.84483 29.7733 10.7366 25.9322 10.7596 25.8948C10.8308 25.7078 10.8303 25.501 10.7582 25.3143C10.6861 25.1276 10.5475 24.9742 10.3691 24.8835C10.1907 24.7929 9.98502 24.7715 9.79172 24.8233C9.59843 24.8752 9.43115 24.9968 9.32209 25.1646C9.22721 25.3515 7.02207 29.802 9.0691 33.439C10.4577 35.8971 13.4018 37.3145 17.8207 37.648C18.3498 37.6883 18.8586 37.7084 19.3503 37.7084C30.7182 37.7084 33.07 27.4991 33.4869 24.8541C35.3373 24.4664 37.0364 23.5528 38.3801 22.2229C39.7239 20.893 40.6551 19.2035 41.062 17.3572C41.4688 15.511 41.3339 13.5865 40.6736 11.815C40.0133 10.0435 38.8555 8.50037 37.3394 7.3709H37.3193Z" fill="#FF7976"/>
<path d="M29.0678 13.9113C29.0531 13.8059 29.0175 13.7045 28.9633 13.6129C28.9091 13.5214 28.8373 13.4415 28.752 13.3778C28.6667 13.3142 28.5697 13.2681 28.4665 13.2422C28.3633 13.2163 28.2559 13.2112 28.1507 13.227C27.6504 13.296 27.2566 12.8073 27.2393 12.7843C27.1127 12.6104 26.9223 12.494 26.7098 12.4605C26.4974 12.4271 26.2804 12.4795 26.1065 12.606C25.9327 12.7326 25.8162 12.9231 25.7828 13.1355C25.7494 13.3479 25.8017 13.5649 25.9283 13.7388C26.1737 14.0726 26.4916 14.3465 26.8581 14.5397C27.2247 14.7329 27.6302 14.8405 28.0443 14.8543C28.1578 14.8549 28.2712 14.8473 28.3836 14.8313C28.5963 14.8001 28.7879 14.6856 28.9163 14.513C29.0446 14.3405 29.0991 14.124 29.0678 13.9113Z" fill="#FF7976"/>
</svg>
