<svg width="32" height="32" viewBox="0 0 32 32" fill="none" xmlns="http://www.w3.org/2000/svg">
<path d="M15.1111 32C23.4567 32 30.2222 25.2345 30.2222 16.8889C30.2222 8.54327 23.4567 1.7778 15.1111 1.7778C6.76547 1.7778 0 8.54327 0 16.8889C0 25.2345 6.76547 32 15.1111 32Z" fill="#FFCC4D"/>
<path d="M15.9995 25.3332C16.9813 25.3332 17.7772 24.3383 17.7772 23.111C17.7772 21.8837 16.9813 20.8888 15.9995 20.8888C15.0176 20.8888 14.2217 21.8837 14.2217 23.111C14.2217 24.3383 15.0176 25.3332 15.9995 25.3332Z" fill="#664500"/>
<path d="M7.20961 19.007C7.04783 19.007 6.88339 18.9626 6.73672 18.8701C6.32161 18.6088 6.19717 18.0603 6.4585 17.6443C7.27272 16.3528 9.74828 14.1439 13.2941 15.0114C13.7705 15.1279 14.0621 15.6097 13.9456 16.0861C13.8283 16.5626 13.3447 16.8523 12.8709 16.7377C9.66739 15.9537 7.98028 18.5652 7.96339 18.5919C7.79361 18.8603 7.50472 19.007 7.20961 19.007ZM17.8523 15.6808C17.5945 15.6808 17.3403 15.5697 17.1643 15.3554C16.8532 14.9759 16.9083 14.415 17.2887 14.1039C20.1118 11.7892 23.2994 12.7154 24.5909 13.5297C25.006 13.791 25.1305 14.3403 24.8683 14.7554C24.6078 15.1688 24.0612 15.295 23.6452 15.0354C23.5225 14.9608 20.9323 13.415 18.4149 15.479C18.2496 15.615 18.0505 15.6808 17.8523 15.6808Z" fill="#664500"/>
<path d="M11.8629 27.7983C11.8024 27.7983 11.7411 27.7903 11.6807 27.7734C11.3269 27.673 11.1207 27.3049 11.2211 26.9503C11.6096 25.5814 11.4504 24.2578 10.7856 23.3183C10.3438 22.6943 9.71444 22.313 9.05844 22.2712C8.69044 22.249 8.41133 21.9316 8.43444 21.5645C8.45755 21.1974 8.77311 20.897 9.14111 20.9414C10.2016 21.0072 11.1971 21.593 11.8727 22.5476C12.7713 23.8178 13.0016 25.5547 12.5029 27.3129C12.4202 27.6072 12.1527 27.7983 11.8629 27.7983ZM21.6735 25.0774C21.5473 25.0774 21.4202 25.0418 21.3073 24.9672C20.27 24.2827 19.6895 23.0854 19.7144 21.6827C19.7402 20.2294 20.4335 18.8801 21.478 18.2436C21.7918 18.0516 22.2015 18.1512 22.3935 18.4667C22.5855 18.7814 22.486 19.1903 22.1704 19.3823C21.5171 19.7805 21.0647 20.7147 21.0469 21.7058C21.0291 22.6436 21.3927 23.4267 22.0407 23.8543C22.3482 24.057 22.4327 24.4703 22.23 24.7778C22.102 24.9725 21.8904 25.0774 21.6735 25.0774Z" fill="#E2A62D"/>
<path d="M15.2706 2.41781C15.2324 2.37426 15.1729 2.35026 15.1026 2.33692C15.1026 2.33692 0.947989 -0.350188 0.335545 0.190256C-0.27601 0.731589 0.658212 15.1094 0.658212 15.1094C0.662656 15.1814 0.678656 15.2427 0.717767 15.2862C1.25466 15.8942 4.9471 13.5049 8.96576 9.95203C12.9853 6.39825 15.8075 3.02581 15.2706 2.41781Z" fill="#DD2E44"/>
<path d="M0.310145 0.240973C0.296812 0.26764 0.285256 0.304084 0.276367 0.350307C0.4177 1.56897 1.78303 11.5965 2.6337 14.7307C3.91014 14.017 5.20703 13.0472 6.73059 11.8392C5.43637 9.4703 1.02926 0.129862 0.310145 0.240973Z" fill="#EA596E"/>
<path d="M26.5791 25.9812L17.1809 24.823C16.1765 24.7323 14.4103 24.7234 14.5009 23.1323C14.5836 21.6897 16.3143 21.9119 17.5934 22.1012L27.0494 23.6781L26.5791 25.9812Z" fill="#3B88C3"/>
<path d="M27.0495 23.6792L23.2966 23.0357C22.8575 22.9566 22.4664 23.6108 22.4468 24.3032C22.4246 25.073 22.6486 25.4624 23.0922 25.553L26.7757 26.0081L27.0495 23.6792Z" fill="#88C9F9"/>
<path d="M31.0379 23.4142L28.7072 25.5573L24.541 21.0267L26.8717 18.8835C28.0815 17.7707 29.9819 17.8507 31.0948 19.0604L31.2148 19.1911C32.3268 20.4018 32.2477 22.3013 31.0379 23.4142Z" fill="#3B88C3"/>
<path d="M28.7058 25.5585C29.7068 24.6381 29.5858 22.8778 28.4354 21.6267C27.2851 20.3756 25.5411 20.1075 24.5401 21.0279C23.539 21.9483 23.6601 23.7086 24.8104 24.9597C25.9607 26.2108 27.7047 26.4789 28.7058 25.5585Z" fill="#88C9F9"/>
<path d="M27.8727 24.6524C28.3732 24.1922 28.2195 23.2107 27.5294 22.4601C26.8393 21.7095 25.8741 21.4741 25.3735 21.9343C24.873 22.3945 25.0267 23.3761 25.7169 24.1266C26.407 24.8772 27.3722 25.1126 27.8727 24.6524Z" fill="#226699"/>
<path d="M2.222 31.111C2.95838 31.111 3.55534 30.5141 3.55534 29.7777C3.55534 29.0413 2.95838 28.4444 2.222 28.4444C1.48563 28.4444 0.888672 29.0413 0.888672 29.7777C0.888672 30.5141 1.48563 31.111 2.222 31.111Z" fill="#55ACEE"/>
<path d="M25.7778 3.55555C26.7596 3.55555 27.5556 2.75962 27.5556 1.77778C27.5556 0.795938 26.7596 0 25.7778 0C24.7959 0 24 0.795938 24 1.77778C24 2.75962 24.7959 3.55555 25.7778 3.55555Z" fill="#55ACEE"/>
<path d="M4.32403 25.9965L2.24581 21.0045L0.366699 26.3778L4.32403 25.9965ZM23.1116 4.44447L19.556 5.33336L20.4449 1.7778L23.1116 4.44447Z" fill="#EA596E"/>
<path d="M28.4438 11.5556L32.0003 7.11029L29.3336 5.3334L28.4438 11.5556Z" fill="#77B255"/>
</svg>
