<svg width="32" height="32" viewBox="0 0 32 32" fill="none" xmlns="http://www.w3.org/2000/svg">
<path d="M32 16C32 24.8364 24.8364 32 16 32C7.16356 32 0 24.8364 0 16C0 7.16356 7.16356 0 16 0C24.8364 0 32 7.16356 32 16Z" fill="#FFCC4D"/>
<path d="M25.1663 13.8774C25.0108 13.7512 24.7877 13.7468 24.6241 13.865C24.6135 13.873 23.5032 14.6668 21.3335 14.6668C19.1646 14.6668 18.0535 13.873 18.0446 13.8668C17.8819 13.745 17.6579 13.7485 17.5015 13.8748C17.3432 14.001 17.2899 14.2179 17.3717 14.4028C17.425 14.5228 18.705 17.3334 21.3335 17.3334C23.9628 17.3334 25.2419 14.5228 25.2952 14.4028C25.377 14.2188 25.3237 14.0036 25.1663 13.8774ZM13.9575 13.865C13.9468 13.873 12.8375 14.6668 10.6668 14.6668C8.49701 14.6668 7.38679 13.873 7.3779 13.8668C7.21523 13.745 6.99212 13.7485 6.83479 13.8748C6.67656 14.001 6.62323 14.2179 6.70501 14.4028C6.75834 14.5228 8.03834 17.3334 10.6668 17.3334C13.2961 17.3334 14.5752 14.5228 14.6286 14.4028C14.7103 14.2188 14.657 14.0036 14.4997 13.8774C14.3432 13.7503 14.1192 13.7468 13.9575 13.865ZM25.7788 11.5556C25.5077 11.5556 25.2419 11.433 25.0668 11.2001C22.7628 8.12809 18.8792 8.86409 18.841 8.8712C18.3548 8.9672 17.8917 8.6552 17.7948 8.17431C17.6988 7.69342 18.0108 7.22498 18.4917 7.12809C18.697 7.08631 23.5201 6.1752 26.4881 10.1325C26.7832 10.5254 26.7032 11.0828 26.3103 11.377C26.1512 11.4979 25.9646 11.5556 25.7788 11.5556ZM6.22145 11.5556C6.03656 11.5556 5.84901 11.4979 5.68901 11.3779C5.29612 11.0836 5.21701 10.5263 5.51123 10.1334C8.47923 6.17431 13.3032 7.08809 13.5077 7.12898C13.9895 7.22498 14.3015 7.69342 14.2046 8.1752C14.1086 8.6552 13.641 8.9672 13.161 8.87298C12.9957 8.84186 9.2179 8.15475 6.93345 11.2001C6.75923 11.433 6.49167 11.5556 6.22145 11.5556ZM20.6703 20.9574C20.5032 20.8588 20.2863 20.881 20.1397 21.0108C20.1308 21.0179 19.2392 21.7779 16.0001 21.7779C12.7637 21.7779 11.8703 21.0188 11.8703 21.0188C11.729 20.8765 11.5112 20.8499 11.337 20.9459C11.1637 21.0445 11.0766 21.2472 11.1255 21.441C11.1343 21.4801 12.1423 25.3334 16.0001 25.3334C19.8579 25.3334 20.8659 21.4801 20.8757 21.441C20.9228 21.2516 20.8366 21.0579 20.6703 20.9574Z" fill="#664500"/>
</svg>
