<svg width="32" height="32" viewBox="0 0 32 32" fill="none" xmlns="http://www.w3.org/2000/svg">
<path d="M32 16C32 24.8364 24.8364 32 16 32C7.16444 32 0 24.8364 0 16C0 7.16444 7.16444 0 16 0C24.8356 0 32 7.16444 32 16Z" fill="#77B255"/>
<path d="M13.6658 23.2195L12.3191 21.1795C13.3449 20.5022 14.6356 20.1289 15.9538 20.1289C17.2782 20.1289 18.5271 20.4862 19.5645 21.1617L18.2293 23.2106C16.9627 22.3857 14.9218 22.3893 13.6658 23.2195ZM24.9227 11.5875C24.7058 11.3209 18.904 10.2524 18.8551 10.2524C18.7502 10.2524 18.632 10.3315 18.6107 10.4346C18.4169 11.3475 18.5645 12.2755 19.0249 13.0489C19.488 13.8275 20.2133 14.3555 21.0658 14.536C21.272 14.5795 21.4845 14.6017 21.6942 14.6017C23.2462 14.6017 24.624 13.4142 24.9707 11.7777C24.9831 11.7111 24.9653 11.6391 24.9227 11.5875ZM13.1253 10.2524C13.0756 10.2524 7.27379 11.3209 7.0569 11.5875C7.01424 11.64 6.99646 11.712 7.01068 11.7769C7.35646 13.4124 8.73424 14.6 10.2871 14.6C10.4969 14.6 10.7085 14.5777 10.9156 14.5342C12.6685 14.1635 13.7698 12.3244 13.3707 10.4337C13.3493 10.3315 13.2311 10.2524 13.1253 10.2524Z" fill="#292F33"/>
<path d="M10.3613 26.3528C9.96668 26.3528 9.59957 26.1039 9.46801 25.7093C9.30357 25.2159 9.57023 24.6826 10.0627 24.5191C10.1471 24.4897 12.2431 23.7395 12.2431 21.6471C12.2431 19.5546 10.1471 18.8044 10.0582 18.7742C9.56934 18.6044 9.30623 18.0711 9.47245 17.5813C9.63868 17.0906 10.1658 16.8239 10.6582 16.9902C10.7996 17.0373 14.1249 18.1848 14.1249 21.6471C14.1249 25.1093 10.7996 26.2577 10.6582 26.3039C10.5605 26.3368 10.46 26.3528 10.3613 26.3528ZM21.6547 26.3528C21.556 26.3528 21.4565 26.3368 21.3578 26.3039C21.2165 26.2568 17.8911 25.1093 17.8911 21.6471C17.8911 18.1848 21.2165 17.0364 21.3578 16.9902C21.8547 16.8239 22.3836 17.0924 22.548 17.5848C22.7125 18.0764 22.4476 18.6079 21.9578 18.7742C21.8689 18.8044 19.7729 19.5546 19.7729 21.6471C19.7729 23.7395 21.8689 24.4897 21.9578 24.5199C22.4476 24.6897 22.7107 25.2231 22.5445 25.7128C22.4111 26.1057 22.0458 26.3528 21.6547 26.3528Z" fill="#3E721D"/>
</svg>
