<svg width="32" height="32" viewBox="0 0 32 32" fill="none" xmlns="http://www.w3.org/2000/svg">
<path d="M32 16C32 24.8364 24.8364 32 16 32C7.16444 32 0 24.8364 0 16C0 7.16444 7.16444 0 16 0C24.8364 0 32 7.16444 32 16Z" fill="#FFCC4D"/>
<path d="M10.2222 18.2222C11.4495 18.2222 12.4444 16.8293 12.4444 15.1111C12.4444 13.3929 11.4495 12 10.2222 12C8.99492 12 8 13.3929 8 15.1111C8 16.8293 8.99492 18.2222 10.2222 18.2222Z" fill="#664500"/>
<path d="M21.7774 18.2222C23.0047 18.2222 23.9996 16.8293 23.9996 15.1111C23.9996 13.3929 23.0047 12 21.7774 12C20.5501 12 19.5552 13.3929 19.5552 15.1111C19.5552 16.8293 20.5501 18.2222 21.7774 18.2222Z" fill="#664500"/>
<path d="M5.33278 11.9999C5.14789 11.9999 4.96034 11.9422 4.80034 11.8222C4.40745 11.5279 4.32834 10.9706 4.62256 10.5777C7.52211 6.71104 11.3923 6.6666 11.5559 6.6666C12.0466 6.6666 12.4448 7.06482 12.4448 7.55548C12.4448 8.04526 12.0492 8.4426 11.5594 8.44437C11.4217 8.44615 8.38789 8.52082 6.04478 11.6444C5.87056 11.8773 5.603 11.9999 5.33278 11.9999ZM26.6679 11.9999C26.3968 11.9999 26.131 11.8773 25.9559 11.6444C23.6083 8.5146 20.5683 8.44526 20.4394 8.44437C19.9506 8.43904 19.5559 8.03904 19.5586 7.55104C19.5612 7.06126 19.9559 6.6666 20.4448 6.6666C20.6083 6.6666 24.4777 6.71104 27.3781 10.5777C27.6732 10.9706 27.5932 11.5279 27.2003 11.8222C27.0403 11.9422 26.8537 11.9999 26.6679 11.9999ZM20.8759 25.2257C20.8661 25.1866 19.8581 21.3333 16.0003 21.3333C12.1426 21.3333 11.1346 25.1866 11.1248 25.2257C11.0777 25.415 11.1639 25.6088 11.331 25.7093C11.4981 25.8088 11.7159 25.7857 11.8608 25.6559C11.8688 25.6488 12.7612 24.8888 16.0003 24.8888C19.1914 24.8888 20.1043 25.6266 20.139 25.6559C20.2234 25.7359 20.3337 25.7777 20.4448 25.7777C20.5194 25.7777 20.595 25.759 20.6634 25.7208C20.8377 25.6213 20.9248 25.4195 20.8759 25.2257Z" fill="#664500"/>
<path d="M14.2224 27.5555C14.2224 30.0106 12.2331 31.9999 9.77794 31.9999C7.32283 31.9999 5.3335 30.0106 5.3335 27.5555C5.3335 25.1004 8.88905 18.6666 9.77794 18.6666C10.6668 18.6666 14.2224 25.1004 14.2224 27.5555Z" fill="#5DADEC"/>
</svg>
