<svg width="32" height="32" viewBox="0 0 32 32" fill="none" xmlns="http://www.w3.org/2000/svg">
<path d="M32 16C32 24.8364 24.8364 32 16 32C7.16356 32 0 24.8364 0 16C0 7.16356 7.16356 0 16 0C24.8364 0 32 7.16356 32 16Z" fill="#FFCC4D"/>
<path d="M15.9999 19.4213C13.3634 19.4213 11.6132 19.1138 9.44965 18.6933C8.95454 18.5991 7.99365 18.6933 7.99365 20.1493C7.99365 23.0604 11.3385 26.6996 15.9999 26.6996C20.6612 26.6996 24.0061 23.0604 24.0061 20.1493C24.0061 18.6933 23.0443 18.5982 22.5501 18.6933C20.3865 19.1138 18.6372 19.4213 15.9999 19.4213Z" fill="#664500"/>
<path d="M14.8002 2.9165C14.0366 0.755607 11.6677 -0.378615 9.50595 0.383163C8.19395 0.845385 7.26506 1.90405 6.90329 3.14227C5.84462 2.40539 4.45795 2.1645 3.14773 2.62672C0.987731 3.38939 -0.148269 5.76005 0.615287 7.92094C0.723731 8.22672 0.867732 8.51027 1.03484 8.7725C2.76906 11.9565 7.77973 14.1947 10.8135 14.2223C13.1575 12.2961 15.6544 7.40894 15.0073 3.84272C14.9735 3.53339 14.9068 3.22227 14.8002 2.9165ZM17.2002 2.9165C17.9637 0.755607 20.3335 -0.378615 22.4944 0.383163C23.8064 0.845385 24.7353 1.90405 25.098 3.14227C26.1566 2.40539 27.5433 2.1645 28.8535 2.62672C31.0135 3.38939 32.1486 5.76005 31.3868 7.92094C31.2775 8.22672 31.1344 8.51027 30.9664 8.7725C29.2322 11.9565 24.2215 14.1947 21.1868 14.2223C18.8428 12.2961 16.3468 7.40894 16.994 3.84272C17.0268 3.53339 17.0935 3.22227 17.2002 2.9165Z" fill="#DD2E44"/>
</svg>
