<svg width="32" height="32" viewBox="0 0 32 32" fill="none" xmlns="http://www.w3.org/2000/svg">
<path d="M32 16C32 24.8364 24.8364 32 16 32C7.16444 32 0 24.8364 0 16C0 7.16444 7.16444 0 16 0C24.8364 0 32 7.16444 32 16Z" fill="#FFCC4D"/>
<path d="M10.2222 17.7778C11.4495 17.7778 12.4444 16.3849 12.4444 14.6667C12.4444 12.9485 11.4495 11.5556 10.2222 11.5556C8.99492 11.5556 8 12.9485 8 14.6667C8 16.3849 8.99492 17.7778 10.2222 17.7778Z" fill="#664500"/>
<path d="M21.7774 17.7778C23.0047 17.7778 23.9996 16.3849 23.9996 14.6667C23.9996 12.9485 23.0047 11.5556 21.7774 11.5556C20.5501 11.5556 19.5552 12.9485 19.5552 14.6667C19.5552 16.3849 20.5501 17.7778 21.7774 17.7778Z" fill="#664500"/>
<path d="M22.222 23.1112H9.77756C9.28689 23.1112 8.88867 22.7138 8.88867 22.2223C8.88867 21.7307 9.28689 21.3334 9.77756 21.3334H22.222C22.7136 21.3334 23.1109 21.7307 23.1109 22.2223C23.1109 22.7138 22.7136 23.1112 22.222 23.1112Z" fill="#664500"/>
</svg>
