<svg width="220" height="69" viewBox="0 0 220 69" fill="none" xmlns="http://www.w3.org/2000/svg">
<mask id="mask0_60_2215" style="mask-type:alpha" maskUnits="userSpaceOnUse" x="-54" y="0" width="328" height="180">
<rect x="-54" width="328" height="180" rx="20" fill="white"/>
</mask>
<g mask="url(#mask0_60_2215)">
<g filter="url(#filter0_i_60_2215)">
<path d="M109.889 61.6699C177.699 61.6699 232.669 6.69939 232.669 -61.1101C232.669 -128.92 177.699 -183.89 109.889 -183.89C42.0798 -183.89 -12.8906 -128.92 -12.8906 -61.1101C-12.8906 6.69939 42.0798 61.6699 109.889 61.6699Z" fill="#FFDED4"/>
</g>
<path d="M109.889 63.1699C178.527 63.1699 234.169 7.52782 234.169 -61.1101C234.169 -129.748 178.527 -185.39 109.889 -185.39C41.2514 -185.39 -14.3906 -129.748 -14.3906 -61.1101C-14.3906 7.52782 41.2514 63.1699 109.889 63.1699Z" stroke="#FF9493" stroke-width="3"/>
<path d="M110 52L110 71" stroke="#FF7976" stroke-width="3" stroke-miterlimit="10"/>
<path d="M27.7202 21.0698L22.9902 25.7898" stroke="#FF7976" stroke-miterlimit="10"/>
<path d="M196.79 25.7898L192.07 21.0698" stroke="#FF7976" stroke-miterlimit="10"/>
<path d="M168 39.54L171.34 45.3201" stroke="#FF7976" stroke-miterlimit="10"/>
<path d="M9.24996 -3L3.45996 0.339996" stroke="#FF7976" stroke-miterlimit="10"/>
<path d="M79.8098 51.1499L78.0898 57.5999" stroke="#FF7976" stroke-miterlimit="10"/>
<path d="M210.54 -3L216.32 0.339996" stroke="#FF7976" stroke-miterlimit="10"/>
<path d="M51.7902 39.54L48.4502 45.3201" stroke="#FF7976" stroke-miterlimit="10"/>
<path d="M139.971 51.1499L141.701 57.5999" stroke="#FF7976" stroke-miterlimit="10"/>
<path d="M64.2694 49.0303L62.8594 52.4303" stroke="#FF7976" stroke-miterlimit="10"/>
<path d="M156.92 52.4303L155.52 49.0303" stroke="#FF7976" stroke-miterlimit="10"/>
<path d="M125.45 57.0898L125.93 60.7399" stroke="#FF7976" stroke-miterlimit="10"/>
<path d="M37.3201 33.4697L35.0801 36.3897" stroke="#FF7976" stroke-miterlimit="10"/>
<path d="M207.391 13.7097L204.471 11.4697" stroke="#FF7976" stroke-miterlimit="10"/>
<path d="M182.471 33.4697L184.711 36.3897" stroke="#FF7976" stroke-miterlimit="10"/>
<path d="M15.3104 11.4697L12.4004 13.7097" stroke="#FF7976" stroke-miterlimit="10"/>
<path d="M94.3296 57.0898L93.8496 60.7399" stroke="#FF7976" stroke-miterlimit="10"/>
</g>
<defs>
<filter id="filter0_i_60_2215" x="-15.8906" y="-186.89" width="251.56" height="255.56" filterUnits="userSpaceOnUse" color-interpolation-filters="sRGB">
<feFlood flood-opacity="0" result="BackgroundImageFix"/>
<feBlend mode="normal" in="SourceGraphic" in2="BackgroundImageFix" result="shape"/>
<feColorMatrix in="SourceAlpha" type="matrix" values="0 0 0 0 0 0 0 0 0 0 0 0 0 0 0 0 0 0 127 0" result="hardAlpha"/>
<feOffset dy="4"/>
<feGaussianBlur stdDeviation="10"/>
<feComposite in2="hardAlpha" operator="arithmetic" k2="-1" k3="1"/>
<feColorMatrix type="matrix" values="0 0 0 0 1 0 0 0 0 0.47451 0 0 0 0 0.462745 0 0 0 1 0"/>
<feBlend mode="normal" in2="shape" result="effect1_innerShadow_60_2215"/>
</filter>
</defs>
</svg>
