<svg width="28" height="28" viewBox="0 0 28 28" fill="none" xmlns="http://www.w3.org/2000/svg">
<g clip-path="url(#clip0_228_2061)">
<path d="M14 12.992C10.0939 12.992 6.92773 16.1276 6.92773 19.9946C6.92773 23.8615 10.0939 26.9971 14 26.9971C17.906 26.9971 21.0715 23.8622 21.0715 19.9946C21.0715 16.1269 17.9054 12.992 14 12.992ZM14 24.2421C11.6326 24.2421 9.71315 22.3408 9.71315 19.9981C9.71315 17.6554 11.6326 15.7541 14 15.7541C16.3673 15.7541 18.2861 17.6554 18.2861 19.9981C18.2861 22.3408 16.3707 24.2421 14 24.2421Z" fill="#A4C7E3"/>
<path d="M16.7292 16.7401C16.7292 17.6257 15.5068 18.3436 13.9999 18.3436C12.4929 18.3436 11.2705 17.6257 11.2705 16.7401C11.2705 15.8546 12.4922 15.1359 13.9999 15.1359C15.5075 15.1359 16.7292 15.8539 16.7292 16.7401Z" fill="#FFC684"/>
<path d="M23.0002 14.6746C23.0002 16.2611 18.9702 17.547 14.0015 17.547C9.03293 17.547 5.00293 16.2611 5.00293 14.6746C5.00293 11.2914 9.03223 13.3377 14.0015 13.3377C18.9709 13.3377 23.0002 11.4576 23.0002 14.6746Z" fill="#A4C7E3"/>
<path d="M17.0915 8.56976C15.7763 10.9039 15.0411 12.3773 16.265 14.1768C14.3545 14.5934 12.5181 14.3182 11.7435 14.1647C12.9555 12.3695 12.219 10.9004 10.908 8.56976C9.98738 6.92735 9.83302 4.58468 10.7862 2.9168C11.1859 2.20117 11.7998 1.63542 12.5375 1.30267V1.29772C12.6254 1.25811 12.7195 1.22699 12.8143 1.19303C13.1572 1.07634 13.5149 1.01175 13.8762 1.00134C13.9177 1.00134 13.9592 1.00134 14.0015 1.00134C14.0437 1.00134 14.0845 1.00134 14.1261 1.00134C14.4873 1.01175 14.8451 1.07634 15.1879 1.19303C15.282 1.22486 15.3748 1.25811 15.4648 1.29772V1.30267C16.202 1.63567 16.8153 2.2014 17.2147 2.9168C18.1664 4.58468 18.0121 6.92735 17.0915 8.56976Z" fill="#FFC684"/>
</g>
<defs>
<clipPath id="clip0_228_2061">
<rect width="18" height="26" fill="white" transform="translate(5 1)"/>
</clipPath>
</defs>
</svg>
