<svg width="360" height="495" viewBox="0 0 360 495" fill="none" xmlns="http://www.w3.org/2000/svg">
<path d="M85.6523 408.861C46.3242 365.683 -51.5864 336.544 -95.6257 327.372C-241.57 289.274 -250.787 82.906 -120.206 5.65041C-5.63016 -62.1355 80.6458 -76.7213 274.612 -88.5379C500.441 -102.296 649.481 -15.3382 681.719 20.4667C756.995 104.072 749.314 242.709 669.429 327.372C589.544 412.036 482.006 474.475 359.106 491.408C236.205 508.341 134.812 462.834 85.6523 408.861Z" fill="white" fill-opacity="0.1"/>
<path d="M195.662 258C11.1592 258 -58.5417 211.971 -127.218 185.267C-219.469 103.048 -119.53 3.96246 -73.4045 -37.1473C-27.2788 -78.2572 195.662 -122.529 415.527 -106.718C635.393 -90.9063 718.419 53.5051 635.393 105.156C552.367 156.807 320.201 258 195.662 258Z" fill="white" fill-opacity="0.1"/>
</svg>
