<svg width="24" height="23" viewBox="0 0 24 23" fill="none" xmlns="http://www.w3.org/2000/svg">
<path d="M12.8362 1.51597L15.5159 6.93738C15.5827 7.07197 15.6812 7.18838 15.803 7.27665C15.9247 7.36492 16.0661 7.42242 16.215 7.44422L22.2108 8.31597C22.3817 8.3417 22.5419 8.41456 22.6735 8.52633C22.8051 8.6381 22.9029 8.78434 22.9556 8.94857C23.0084 9.11279 23.0142 9.28846 22.9723 9.45579C22.9305 9.62312 22.8426 9.77544 22.7186 9.89559L18.3784 14.1192C18.2706 14.2239 18.1901 14.3532 18.1438 14.496C18.0975 14.6388 18.0868 14.7907 18.1126 14.9386L19.1367 20.9057C19.1668 21.077 19.148 21.2533 19.0824 21.4144C19.0168 21.5755 18.907 21.7149 18.7657 21.8166C18.6244 21.9184 18.4572 21.9783 18.2833 21.9896C18.1094 22.0009 17.9358 21.9631 17.7825 21.8805L12.435 19.0743C12.3019 19.0045 12.1538 18.968 12.0034 18.968C11.853 18.968 11.7049 19.0045 11.5717 19.0743L6.21073 21.8889C6.05738 21.9715 5.88382 22.0093 5.70994 21.998C5.53605 21.9868 5.36887 21.9268 5.22754 21.8251C5.08621 21.7233 4.97645 21.5839 4.91083 21.4228C4.84521 21.2617 4.82639 21.0854 4.85652 20.9141L5.88064 14.947C5.90647 14.7992 5.89577 14.6473 5.84946 14.5045C5.80314 14.3617 5.72262 14.2323 5.61488 14.1276L1.28139 9.90066C1.15742 9.78051 1.06954 9.62819 1.02765 9.46086C0.985774 9.29353 0.991557 9.11786 1.04435 8.95363C1.09715 8.78941 1.19486 8.64317 1.32646 8.5314C1.45807 8.41963 1.61835 8.34677 1.78922 8.32104L7.79178 7.44422C7.94067 7.42242 8.08206 7.36492 8.20382 7.27665C8.32557 7.18838 8.42408 7.07197 8.49089 6.93738L11.1705 1.51597C11.2474 1.36105 11.3661 1.23065 11.5133 1.13948C11.6604 1.04831 11.8302 1 12.0034 1C12.1766 1 12.3464 1.04831 12.4935 1.13948C12.6407 1.23065 12.7594 1.36105 12.8362 1.51597Z" fill="#CED8DE" fill-opacity="0.31" stroke="#CED8DE" stroke-linecap="round" stroke-linejoin="round"/>
</svg>
