<svg width="32" height="32" viewBox="0 0 32 32" fill="none" xmlns="http://www.w3.org/2000/svg">
<path d="M12.3851 6.50254L13.2612 4.2702C13.408 3.89582 13.6642 3.57437 13.9964 3.34779C14.3286 3.1212 14.7214 3 15.1235 3H16.7478C17.1499 3 17.5427 3.1212 17.8749 3.34779C18.2071 3.57437 18.4633 3.89582 18.61 4.2702L19.4862 6.50254L22.3866 8.1788L24.757 7.81874C25.1548 7.75846 25.5616 7.81956 25.9242 7.99407C26.2867 8.16857 26.5882 8.44836 26.7893 8.79689L27.6014 10.1971C27.8027 10.5453 27.8943 10.9461 27.8644 11.3472C27.8344 11.7483 27.6842 12.131 27.4334 12.4455L25.9372 14.3277V17.6763L27.4334 19.5505C27.6851 19.8654 27.8357 20.2488 27.8657 20.6507C27.8957 21.0526 27.8036 21.4542 27.6014 21.8029L26.7893 23.2031C26.5882 23.5516 26.2867 23.8314 25.9242 24.0059C25.5616 24.1804 25.1548 24.2415 24.757 24.1813L22.3866 23.8212L19.4862 25.4975L18.61 27.7298C18.4633 28.1042 18.2071 28.4256 17.8749 28.6522C17.5427 28.8788 17.1499 29 16.7478 29H15.1235C14.7214 29 14.3286 28.8788 13.9964 28.6522C13.6642 28.4256 13.408 28.1042 13.2612 27.7298L12.3851 25.4975L9.48464 23.8212L7.11428 24.1813C6.71644 24.2415 6.30968 24.1804 5.94711 24.0059C5.58455 23.8314 5.28304 23.5516 5.08196 23.2031L4.26984 21.8029C4.06856 21.4547 3.97693 21.0539 4.00691 20.6528C4.03688 20.2517 4.18707 19.869 4.43786 19.5545L5.9341 17.6763V14.3277L4.43786 12.4535C4.18621 12.1387 4.03553 11.7552 4.00554 11.3533C3.97556 10.9514 4.06768 10.5498 4.26984 10.2011L5.08196 8.80089C5.28247 8.45162 5.58374 8.17101 5.94635 7.99577C6.30896 7.82054 6.71602 7.75883 7.11428 7.81874L9.48464 8.1788L12.3851 6.50254ZM11.935 16.002C11.935 16.7932 12.1697 17.5667 12.6092 18.2246C13.0488 18.8825 13.6736 19.3953 14.4047 19.6981C15.1357 20.0009 15.9401 20.0801 16.7161 19.9257C17.4922 19.7714 18.205 19.3904 18.7645 18.8309C19.324 18.2714 19.705 17.5585 19.8594 16.7825C20.0137 16.0064 19.9345 15.202 19.6317 14.471C19.3289 13.74 18.8162 13.1152 18.1583 12.6756C17.5004 12.236 16.7269 12.0014 15.9356 12.0014C14.8746 12.0014 13.857 12.4229 13.1068 13.1731C12.3565 13.9234 11.935 14.941 11.935 16.002V16.002Z" stroke="#CED8DE" stroke-width="2" stroke-linecap="round" stroke-linejoin="round"/>
</svg>
