<svg width="36" height="39" viewBox="0 0 36 39" fill="none" xmlns="http://www.w3.org/2000/svg">
<path d="M19.4437 26.7515C17.5467 26.7514 15.6892 26.2092 14.0898 25.189C12.4905 24.1687 11.2159 22.7128 10.4162 20.9925C9.61646 19.2723 9.32487 17.3593 9.57571 15.4789C9.82655 13.5986 10.6094 11.829 11.8321 10.3785C11.9034 10.2932 11.9909 10.2227 12.0895 10.1713C12.1881 10.1199 12.296 10.0884 12.4068 10.0788C12.5176 10.0691 12.6292 10.0815 12.7352 10.1151C12.8413 10.1487 12.9396 10.203 13.0246 10.2747C13.1096 10.3464 13.1796 10.4343 13.2305 10.5332C13.2815 10.632 13.3124 10.74 13.3215 10.8508C13.3306 10.9617 13.3177 11.0733 13.2836 11.1791C13.2494 11.285 13.1947 11.383 13.1225 11.4677C11.8572 12.9728 11.1717 14.8806 11.1897 16.8467C11.2076 18.8129 11.9279 20.7079 13.2205 22.1895C14.513 23.6712 16.2927 24.642 18.2383 24.9267C20.1838 25.2113 22.167 24.7911 23.8298 23.7418C25.4927 22.6925 26.7256 21.0833 27.3061 19.2047C27.8866 17.326 27.7764 15.3018 26.9953 13.4974C26.2142 11.6929 24.8138 10.2271 23.0469 9.36463C21.2799 8.50213 19.2628 8.29973 17.3597 8.79398C17.2523 8.8217 17.1405 8.82801 17.0307 8.81253C16.9209 8.79705 16.8152 8.7601 16.7197 8.70378C16.6242 8.64746 16.5407 8.57287 16.474 8.48428C16.4073 8.39569 16.3587 8.29485 16.331 8.18748C16.3032 8.08011 16.2969 7.96832 16.3124 7.85852C16.3279 7.74872 16.3649 7.64304 16.4212 7.54751C16.4775 7.45199 16.5521 7.36852 16.6407 7.30182C16.7293 7.23512 16.8301 7.18651 16.9375 7.15879C18.3057 6.80359 19.734 6.74382 21.1271 6.98348C22.5203 7.22313 23.8464 7.75672 25.0173 8.54873C26.1882 9.34074 27.177 10.373 27.918 11.5769C28.659 12.7808 29.135 14.1286 29.3146 15.5308C29.4942 16.9329 29.3731 18.3573 28.9594 19.709C28.5457 21.0607 27.8489 22.3088 26.9154 23.3704C25.9818 24.4319 24.833 25.2824 23.5452 25.8654C22.2573 26.4484 20.8602 26.7504 19.4466 26.7515H19.4437Z" fill="#FF7976"/>
<path d="M10.0154 26.7516C7.74858 26.7516 5.54964 25.978 3.78218 24.5587C2.01473 23.1393 0.784607 21.1592 0.295267 18.9459C-0.194072 16.7325 0.0866683 14.4184 1.09105 12.3862C2.09544 10.3541 3.7633 8.72555 5.81887 7.76998C7.87444 6.81442 10.1946 6.58904 12.3956 7.1311C14.5967 7.67316 16.5468 8.95019 17.9236 10.751C19.3003 12.5519 20.0212 14.7687 19.967 17.0349C19.9129 19.301 19.0868 21.4808 17.6256 23.2138C17.4808 23.3837 17.2746 23.4893 17.0522 23.5076C16.8297 23.5258 16.6091 23.4553 16.4385 23.3113C16.2679 23.1673 16.1613 22.9617 16.142 22.7393C16.1226 22.5169 16.1921 22.2959 16.3352 22.1247C17.603 20.6177 18.2901 18.7071 18.2726 16.7379C18.2551 14.7687 17.534 12.8707 16.2396 11.3866C14.9452 9.90243 13.1628 8.93005 11.2142 8.64501C9.26567 8.35997 7.27942 8.78106 5.61414 9.83223C3.94886 10.8834 2.71434 12.4954 2.13348 14.377C1.55262 16.2587 1.66373 18.2861 2.44674 20.093C3.22974 21.8999 4.63302 23.3673 6.40319 24.2302C8.17337 25.0931 10.1937 25.2946 12.0995 24.7984C12.3163 24.7424 12.5465 24.7748 12.7394 24.8886C12.9324 25.0023 13.0722 25.188 13.1281 25.4049C13.1841 25.6217 13.1517 25.8519 13.0379 26.0448C12.9242 26.2377 12.7385 26.3776 12.5216 26.4336C11.703 26.6448 10.8609 26.7516 10.0154 26.7516Z" fill="#FF7976"/>
<path d="M10.0152 38.9998C9.7913 38.9998 9.57653 38.9109 9.41819 38.7525C9.25985 38.5942 9.1709 38.3794 9.1709 38.1555V25.9127C9.1709 25.6888 9.25985 25.474 9.41819 25.3157C9.57653 25.1573 9.7913 25.0684 10.0152 25.0684C10.2392 25.0684 10.4539 25.1573 10.6123 25.3157C10.7706 25.474 10.8596 25.6888 10.8596 25.9127V38.1555C10.8596 38.3794 10.7706 38.5942 10.6123 38.7525C10.4539 38.9109 10.2392 38.9998 10.0152 38.9998Z" fill="#FF7976"/>
<path d="M14.4692 34.2424H5.56015C5.33622 34.2424 5.12146 34.1534 4.96311 33.9951C4.80477 33.8367 4.71582 33.622 4.71582 33.398C4.71582 33.1741 4.80477 32.9594 4.96311 32.801C5.12146 32.6427 5.33622 32.5537 5.56015 32.5537H14.4692C14.6932 32.5537 14.9079 32.6427 15.0663 32.801C15.2246 32.9594 15.3136 33.1741 15.3136 33.398C15.3136 33.622 15.2246 33.8367 15.0663 33.9951C14.9079 34.1534 14.6932 34.2424 14.4692 34.2424Z" fill="#FF7976"/>
<path d="M25.3372 10.6364C25.17 10.6365 25.0066 10.587 24.8675 10.4942C24.7285 10.4013 24.6202 10.2693 24.5563 10.1148C24.4924 9.96033 24.4758 9.79035 24.5086 9.62642C24.5414 9.4625 24.6221 9.31199 24.7405 9.19399L33.402 0.532578C33.4802 0.453175 33.5733 0.390034 33.6761 0.346816C33.7788 0.303598 33.8891 0.281154 34.0005 0.280767C34.112 0.28038 34.2224 0.302062 34.3254 0.344566C34.4285 0.38707 34.5221 0.449563 34.6008 0.528421C34.6796 0.607279 34.742 0.700941 34.7844 0.804024C34.8267 0.907107 34.8483 1.01756 34.8478 1.12901C34.8473 1.24047 34.8247 1.35072 34.7813 1.4534C34.738 1.55609 34.6748 1.64918 34.5953 1.7273L25.9338 10.3887C25.7757 10.5471 25.561 10.6362 25.3372 10.6364Z" fill="#FF7976"/>
<path d="M34.1376 8.13412H34.1193C34.0081 8.13175 33.8983 8.10741 33.7965 8.0625C33.6947 8.01759 33.6028 7.953 33.5261 7.87244C33.4493 7.79189 33.3892 7.69695 33.3492 7.5931C33.3093 7.48924 33.2903 7.3785 33.2933 7.26727L33.4143 1.70453L27.8572 1.82978C27.7463 1.83227 27.636 1.81291 27.5326 1.77278C27.4292 1.73266 27.3348 1.67256 27.2546 1.59592C27.1744 1.51928 27.1101 1.42761 27.0654 1.32612C27.0207 1.22464 26.9964 1.11533 26.9939 1.00445C26.9914 0.893568 27.0107 0.783281 27.0509 0.679887C27.091 0.576494 27.1511 0.482012 27.2277 0.401845C27.3044 0.321678 27.396 0.257401 27.4975 0.212664C27.599 0.167928 27.7083 0.143613 27.8192 0.141118L34.2586 0.000396577C34.3729 -0.00314215 34.4866 0.017033 34.5927 0.0596605C34.6988 0.102288 34.7949 0.166444 34.875 0.248068C34.9556 0.328558 35.0191 0.424531 35.0617 0.530216C35.1043 0.635901 35.125 0.749111 35.1226 0.863021L34.9819 7.30808C34.9771 7.52882 34.8861 7.73891 34.7282 7.89332C34.5704 8.04772 34.3584 8.13417 34.1376 8.13412Z" fill="#FF7976"/>
</svg>
