<svg width="20" height="20" viewBox="0 0 20 20" fill="none" xmlns="http://www.w3.org/2000/svg">
<path d="M12.1392 4.30349V0.713873C12.1393 0.31949 12.4591 -0.000125483 12.8535 3.69581e-08C13.0557 4.18769e-05 13.2484 0.0858974 13.3838 0.236145L19.8104 7.37684C20.0454 7.63859 20.0548 8.03247 19.8325 8.30514L13.4059 16.1599C13.1562 16.4651 12.7064 16.5101 12.4011 16.2604C12.2357 16.1251 12.1396 15.9229 12.1392 15.7093V12.1511C6.49803 12.3346 2.97771 14.746 1.39101 19.506C1.29369 19.7972 1.0211 19.9936 0.714081 19.9937C0.675589 19.9938 0.637096 19.9907 0.599106 19.9844C0.253675 19.9281 0 19.6297 0 19.2796C4.19617e-05 10.8708 5.06204 4.69335 12.1392 4.30349Z" fill="#A6B6BF"/>
</svg>
