<svg width="52" height="30" viewBox="0 0 52 30" fill="none" xmlns="http://www.w3.org/2000/svg">
<path d="M50.9627 11.61C50.8818 11.4772 50.7663 11.3691 50.6285 11.2971C50.4907 11.2252 50.3358 11.1923 50.1807 11.2018L40.2753 11.7678L40.3885 11.7026L38.1386 7.65196C38.0636 7.51867 37.9545 7.40774 37.8225 7.33058C37.6905 7.25342 37.5403 7.21282 37.3874 7.21294H34.1565L31.9854 3.2995C31.9111 3.16648 31.8026 3.05569 31.6712 2.97852C31.5397 2.90136 31.3901 2.86061 31.2377 2.86048H22.231V0.857465C22.2315 0.744735 22.2096 0.633029 22.1666 0.528793C22.1237 0.424556 22.0606 0.329853 21.9809 0.25014C21.9011 0.170427 21.8064 0.107283 21.7022 0.0643529C21.598 0.0214223 21.4863 -0.000446732 21.3735 6.91569e-06H14.826C14.7133 -0.000446732 14.6016 0.0214223 14.4973 0.0643529C14.3931 0.107283 14.2984 0.170427 14.2187 0.25014C14.139 0.329853 14.0758 0.424556 14.0329 0.528793C13.9899 0.633029 13.9681 0.744735 13.9685 0.857465V2.86048H11.8798C11.6884 2.86006 11.5025 2.92364 11.3514 3.04111C11.2004 3.15857 11.093 3.32317 11.0463 3.50872L8.52196 13.5821L6.3989 13.7056C6.18082 13.7179 5.97574 13.8133 5.82582 13.9721C5.6759 14.131 5.59254 14.3412 5.59289 14.5596V23.3331C5.01597 23.1667 4.48069 22.8804 4.02203 22.4928C3.2023 21.8926 2.27625 21.2101 0.475586 21.2101V22.925C1.71375 22.925 2.28311 23.3434 3.00337 23.8751C3.8231 24.4753 4.74915 25.1578 6.54981 25.1578C8.35047 25.1578 9.27653 24.4718 10.0963 23.8751C10.82 23.3434 11.3893 22.925 12.6275 22.925C13.8656 22.925 14.435 23.3434 15.1587 23.8751C15.975 24.4753 16.9045 25.1578 18.7017 25.1578C20.4989 25.1578 21.4456 24.4718 22.2481 23.8751C22.9718 23.3434 23.5412 22.925 24.7794 22.925C26.0175 22.925 26.5869 23.3434 27.3106 23.8751C28.1269 24.4753 29.0564 25.1578 30.8536 25.1578C32.6508 25.1578 33.5975 24.4718 34.4 23.8751C35.1237 23.3434 35.6931 22.925 36.9312 22.925C38.1694 22.925 38.7388 23.3434 39.459 23.8751C40.2788 24.4753 41.2048 25.1578 43.0055 25.1578C44.8061 25.1578 45.7493 24.4718 46.5519 23.8751C47.2756 23.3434 47.845 22.925 49.0831 22.925V21.2101C47.2825 21.2101 46.3393 21.896 45.5367 22.4928C45.286 22.6849 45.0237 22.8613 44.7513 23.021L50.9661 12.4949C51.046 12.361 51.088 12.2079 51.0874 12.052C51.0868 11.896 51.0437 11.7432 50.9627 11.61ZM12.5486 4.5754H14.826C15.0534 4.5754 15.2715 4.48506 15.4323 4.32426C15.5931 4.16345 15.6834 3.94535 15.6834 3.71794V1.72521H20.5161V3.72823C20.5161 3.95564 20.6064 4.17374 20.7672 4.33455C20.928 4.49535 21.1461 4.58569 21.3735 4.58569H30.7301L32.1947 7.22323H26.093V8.93814H36.8695L38.5056 11.8775L10.302 13.4895L12.5486 4.5754ZM42.5287 23.412C41.6095 23.3194 41.0985 22.9456 40.4708 22.4894C39.6511 21.8892 38.725 21.2066 36.9244 21.2066C35.1237 21.2066 34.1977 21.8926 33.3779 22.4894C32.6577 23.021 32.0849 23.4395 30.8467 23.4395C29.6086 23.4395 29.0392 23.021 28.3189 22.4894C27.4992 21.8892 26.5732 21.2066 24.7725 21.2066C22.9718 21.2066 22.0286 21.8926 21.2261 22.4894C20.5024 23.021 19.933 23.4395 18.6948 23.4395C17.4567 23.4395 16.8873 23.021 16.1671 22.4894C15.3473 21.8892 14.4213 21.2066 12.6206 21.2066C10.8199 21.2066 9.87675 21.8926 9.07417 22.4894C8.56557 22.9268 7.95622 23.2308 7.30095 23.3743V15.3691L48.6681 13.0059L42.5287 23.412Z" fill="#FF7976"/>
<path d="M36.9317 25.957C35.1311 25.957 34.205 26.643 33.3853 27.2398C32.665 27.7714 32.0922 28.1899 30.8541 28.1899C29.6159 28.1899 29.0466 27.7714 28.3263 27.2398C27.5066 26.6396 26.5805 25.957 24.7798 25.957C22.9792 25.957 22.036 26.643 21.2334 27.2398C20.5097 27.7714 19.9404 28.1899 18.7022 28.1899C17.464 28.1899 16.8947 27.7714 16.1744 27.2398C15.3547 26.6396 14.4286 25.957 12.628 25.957C10.8273 25.957 9.88408 26.643 9.0815 27.2398C8.35781 27.7714 7.78846 28.1899 6.55029 28.1899V29.9048C8.35095 29.9048 9.27701 29.2188 10.0967 28.622C10.8204 28.0904 11.3898 27.6719 12.628 27.6719C13.8661 27.6719 14.4355 28.0904 15.1592 28.622C15.9755 29.2222 16.905 29.9048 18.7022 29.9048C20.4994 29.9048 21.446 29.2188 22.2486 28.622C22.9723 28.0904 23.5417 27.6719 24.7798 27.6719C26.018 27.6719 26.5874 28.0904 27.3111 28.622C28.1274 29.2222 29.0568 29.9048 30.8541 29.9048C32.6513 29.9048 33.5979 29.2188 34.4005 28.622C35.1242 28.0904 35.6936 27.6719 36.9317 27.6719C38.1699 27.6719 38.7393 28.0904 39.4595 28.622C40.2792 29.2222 41.2053 29.9048 43.006 29.9048V28.1899C41.7678 28.1899 41.1984 27.7714 40.4782 27.2398C39.6585 26.6396 38.7324 25.957 36.9317 25.957Z" fill="#FF7976"/>
<path d="M18.0737 7.1582H14.8257V8.87312H18.0737V7.1582Z" fill="#FF7976"/>
<path d="M23.5557 7.1582H20.3076V8.87312H23.5557V7.1582Z" fill="#FF7976"/>
</svg>
