<svg width="313" height="136" viewBox="0 0 313 136" fill="none" xmlns="http://www.w3.org/2000/svg">
<path d="M215.205 46.225C215.161 43.4986 215.783 40.8033 217.016 38.3767C218.249 35.9502 220.055 33.8669 222.274 32.3107C224.494 30.7545 227.059 29.7731 229.743 29.4532C232.427 29.1333 235.148 29.4846 237.666 30.4762C239.128 27.3657 241.308 24.6537 244.022 22.5674C246.736 20.4811 249.907 19.0811 253.268 18.4847C253.995 13.3806 256.512 8.70874 260.362 5.31719C264.213 1.92565 269.141 0.039301 274.252 0.000607279C279.364 -0.0380864 284.32 1.77344 288.22 5.10631C292.12 8.43918 294.707 13.0724 295.51 18.1649C299.578 18.1881 303.555 19.3825 306.973 21.6078C310.391 23.8331 313.108 26.9966 314.805 30.7264C318.754 31.4717 322.491 33.0907 325.747 35.467C329.002 37.8433 331.695 40.9178 333.632 44.4694C335.569 48.021 336.702 51.9614 336.949 56.0073C337.196 60.0533 336.551 64.1041 335.06 67.8686C333.57 71.633 331.271 75.0175 328.329 77.7787C325.387 80.5398 321.875 82.609 318.046 83.8374C314.217 85.0659 310.165 85.423 306.183 84.8831C302.2 84.3433 298.386 82.9198 295.014 80.7152C292.104 83.4322 288.32 84.9985 284.358 85.1262C280.395 85.254 276.52 83.9345 273.445 81.4104C269 84.9847 263.495 86.9525 257.811 86.9992C252.127 87.0458 246.592 85.1685 242.09 81.6676C238.722 82.669 235.228 83.1747 231.716 83.1691C216.404 83.1691 204 73.9896 204 62.662C203.99 55.9224 208.414 49.958 215.205 46.225Z" fill="#DDE6F3"/>
<path d="M106.08 81.1646C106.021 77.4981 106.858 73.8734 108.518 70.6101C110.177 67.3468 112.607 64.5452 115.594 62.4523C118.582 60.3595 122.034 59.0397 125.647 58.6095C129.259 58.1792 132.921 58.6517 136.31 59.9852C138.278 55.8021 141.211 52.155 144.864 49.3493C148.517 46.5435 152.784 44.6608 157.308 43.8587C158.286 36.9946 161.674 30.7117 166.856 26.1507C172.038 21.5897 178.671 19.0529 185.55 19.0008C192.43 18.9488 199.099 21.385 204.349 25.8671C209.598 30.3492 213.079 36.5802 214.16 43.4287C219.635 43.4599 224.987 45.0662 229.587 48.0588C234.188 51.0514 237.845 55.3058 240.128 60.3218C245.444 61.3241 250.473 63.5013 254.855 66.697C259.236 69.8927 262.861 74.0273 265.467 78.8036C268.074 83.5799 269.599 88.8792 269.931 94.3202C270.263 99.7613 269.395 105.209 267.389 110.272C265.383 115.334 262.29 119.886 258.33 123.599C254.371 127.312 249.644 130.095 244.49 131.747C239.337 133.399 233.884 133.879 228.524 133.153C223.164 132.427 218.03 130.513 213.492 127.548C209.576 131.202 204.484 133.308 199.151 133.48C193.818 133.652 188.602 131.877 184.463 128.483C178.481 133.29 171.073 135.936 163.423 135.999C155.773 136.062 148.323 133.537 142.264 128.829C137.731 130.176 133.028 130.856 128.302 130.848C107.694 130.848 91 118.503 91 103.27C90.9861 94.206 96.9403 86.1849 106.08 81.1646Z" fill="#F1F6FD"/>
<g clip-path="url(#clip0_14_2)">
<path d="M28.5047 58.5017C28.5073 49.944 31.7525 41.7025 37.5915 35.4247C43.4305 29.1469 51.4331 25.2952 59.9998 24.6396C53.9825 21.0406 47.1139 19.0968 40.0956 19.0067C33.0772 18.9166 26.1606 20.6834 20.0522 24.1267C13.9437 27.5701 8.8622 32.5665 5.32667 38.6058C1.79113 44.6451 -0.0717773 51.5107 -0.0717773 58.5017C-0.0717773 65.4926 1.79113 72.3583 5.32667 78.3976C8.8622 84.4369 13.9437 89.4333 20.0522 92.8766C26.1606 96.32 33.0772 98.0868 40.0956 97.9967C47.1139 97.9066 53.9825 95.9628 59.9998 92.3638C51.4331 91.7082 43.4305 87.8565 37.5915 81.5787C31.7525 75.3008 28.5073 67.0594 28.5047 58.5017Z" fill="#FFD79B"/>
<path d="M11.9507 62.2729C11.9507 62.2729 15.0414 65.141 18.1355 62.2729" stroke="#746B5C" stroke-width="2" stroke-linecap="round" stroke-linejoin="round"/>
<path d="M4.81104 53.4585C4.81104 53.4585 7.23373 55.6302 10.186 53.4585" stroke="#746B5C" stroke-width="2" stroke-linecap="round" stroke-linejoin="round"/>
<path d="M19.9043 53.4585C19.9043 53.4585 22.327 55.6302 25.2758 53.4585" stroke="#746B5C" stroke-width="2" stroke-linecap="round" stroke-linejoin="round"/>
<path d="M25.7219 58.5533C25.7226 58.9886 25.5936 59.4143 25.3512 59.7765C25.1088 60.1387 24.764 60.4211 24.3604 60.588C23.9568 60.7549 23.5125 60.7988 23.0839 60.714C22.6552 60.6292 22.2614 60.4197 21.9524 60.1119C21.6434 59.8041 21.433 59.4119 21.3479 58.985C21.2628 58.558 21.3069 58.1155 21.4744 57.7135C21.642 57.3115 21.9255 56.968 22.2892 56.7266C22.6528 56.4852 23.0802 56.3567 23.5172 56.3574C24.102 56.3574 24.6627 56.5888 25.0762 57.0006C25.4896 57.4124 25.7219 57.9709 25.7219 58.5533Z" fill="#EFA6AD"/>
<path d="M8.77359 58.5533C8.77359 58.9878 8.64418 59.4124 8.40178 59.7736C8.15937 60.1348 7.81486 60.4163 7.41181 60.5824C7.00876 60.7485 6.5653 60.7917 6.13755 60.7067C5.70979 60.6217 5.31696 60.4122 5.00877 60.1048C4.70058 59.7974 4.49088 59.4058 4.4062 58.9796C4.32152 58.5534 4.36568 58.1118 4.53307 57.7106C4.70047 57.3094 4.98358 56.9667 5.34659 56.7258C5.7096 56.485 6.1362 56.3567 6.57239 56.3574C6.86175 56.3574 7.14826 56.4143 7.41555 56.5247C7.68284 56.635 7.92565 56.7968 8.1301 57.0008C8.33454 57.2047 8.4966 57.4469 8.60702 57.7133C8.71744 57.9796 8.77404 58.2651 8.77359 58.5533Z" fill="#EFA6AD"/>
</g>
<defs>
<clipPath id="clip0_14_2">
<rect width="60" height="79" fill="white" transform="translate(0 19)"/>
</clipPath>
</defs>
</svg>
