<svg width="288" height="343" viewBox="0 0 288 343" fill="none" xmlns="http://www.w3.org/2000/svg">
<path d="M34.762 329.561C32.5982 328.208 31.1231 326.424 29.9314 323.847C28.945 321.724 28.3991 320.285 27.7519 316.424C27.7384 316.338 27.7047 316.256 27.6539 316.188C27.6032 316.12 27.5372 316.068 27.4623 316.036C27.3875 316.003 27.3062 315.993 27.2265 316.005C27.1468 316.017 27.0713 316.051 27.0072 316.104C26.8927 316.216 26.8201 316.37 26.8032 316.537C26.6732 317.328 26.0325 322.111 23.6334 325.188C22.53 326.603 20.8743 327.946 19.2589 328.842C19.1662 328.893 19.0917 328.976 19.0471 329.078C18.9987 329.185 18.9872 329.308 19.0146 329.423C19.0528 329.555 19.1218 329.673 19.2147 329.766C19.7528 330.366 22.9355 333.313 24.4756 336.95C25.7167 339.876 26.2158 342.172 26.3951 342.62C26.4263 342.714 26.4792 342.799 26.5488 342.865C26.6184 342.931 26.7024 342.977 26.7928 342.997C26.9148 343.01 27.0371 342.976 27.1389 342.902C27.2408 342.828 27.3159 342.718 27.3516 342.59C27.5193 342.099 28.1314 339.512 28.8696 337.936C30.5786 334.257 31.6391 333.579 34.8478 330.379C34.9021 330.324 34.9439 330.257 34.9698 330.181C34.9958 330.106 35.0052 330.025 34.9973 329.946C34.9889 329.866 34.9632 329.789 34.9223 329.722C34.8814 329.655 34.8265 329.6 34.762 329.561Z" fill="#FFD79B"/>
<path d="M13.621 295.162C12.3101 294.548 10.97 293.672 10.1018 292.782C8.24614 290.884 7.8485 288.092 7.7703 287.63C7.75699 287.525 7.72282 287.424 7.67003 287.334C7.61725 287.244 7.54706 287.167 7.46411 287.108C7.38512 287.054 7.29543 287.018 7.20177 287.006C7.10811 286.993 7.01291 287.002 6.92332 287.034C6.8208 287.064 6.72757 287.122 6.65308 287.202C6.57859 287.283 6.52549 287.383 6.49916 287.492C5.86956 289.701 5.38709 290.506 4.52553 291.69C3.48105 293.121 2.23112 294.078 0.431125 294.745C0.321046 294.786 0.223555 294.858 0.149004 294.954C0.0744529 295.049 0.0256173 295.164 0.00767864 295.286C-0.01026 295.408 0.00337043 295.533 0.0471178 295.648C0.0908651 295.763 0.1631 295.863 0.256161 295.938C2.82626 297.997 3.69312 298.445 5.00932 300.705C5.57398 301.675 6.01139 303.233 6.13731 303.535C6.18018 303.662 6.25647 303.772 6.35711 303.854C6.45775 303.936 6.57849 303.986 6.70498 303.997C6.83148 304.009 6.9584 303.982 7.07066 303.919C7.18291 303.856 7.27577 303.76 7.33819 303.643C7.50122 303.385 7.98237 302.036 9.10638 300.352C10.4756 298.297 13.1875 296.747 13.6475 296.419C13.7847 296.335 13.8912 296.205 13.9499 296.049C14.0085 295.893 14.0159 295.721 13.9709 295.56C13.943 295.471 13.8973 295.389 13.8369 295.32C13.7765 295.252 13.7028 295.198 13.621 295.162Z" fill="#FFD79B"/>
<path d="M254.486 72.4827C252.705 71.5439 250.888 70.2033 249.71 68.8413C247.192 65.9411 246.652 61.6682 246.544 60.9614C246.528 60.8008 246.482 60.6465 246.41 60.5093C246.338 60.372 246.242 60.2551 246.129 60.1665C246.022 60.0822 245.901 60.0281 245.774 60.0084C245.647 59.9887 245.518 60.0038 245.397 60.0527C245.258 60.0977 245.131 60.1861 245.029 60.3087C244.928 60.4314 244.855 60.5839 244.819 60.7509C243.965 64.1301 243.31 65.3611 242.141 67.1721C240.724 69.3612 239.029 70.8242 236.585 71.8446C236.436 71.9077 236.303 72.018 236.202 72.1636C236.101 72.3093 236.035 72.4849 236.01 72.6719C235.986 72.8589 236.005 73.0503 236.064 73.2258C236.123 73.4012 236.221 73.5542 236.348 73.6685C239.837 76.8179 241.012 77.5032 242.8 80.962C243.566 82.4443 244.159 84.8289 244.33 85.2886C244.388 85.4823 244.492 85.6519 244.628 85.7774C244.765 85.9028 244.929 85.9787 245.101 85.9961C245.272 86.0136 245.444 85.9717 245.597 85.8756C245.749 85.7795 245.875 85.6332 245.96 85.454C246.181 85.0587 246.834 82.9964 248.359 80.4206C250.217 77.2777 253.896 74.906 254.522 74.4054C254.708 74.277 254.852 74.0774 254.932 73.8389C255.012 73.6004 255.022 73.3368 254.96 73.0906C254.922 72.955 254.859 72.8306 254.778 72.7258C254.696 72.621 254.596 72.5382 254.486 72.4827Z" fill="#FFD79B"/>
<path d="M245.762 13.5607C243.598 12.2079 242.123 10.4236 240.931 7.84696C239.945 5.72447 239.399 4.28542 238.752 0.423918C238.738 0.337529 238.705 0.256406 238.654 0.188369C238.603 0.120331 238.537 0.0676915 238.462 0.0355388C238.387 0.00338609 238.306 -0.00720728 238.227 0.00481048C238.147 0.0168282 238.071 0.0510378 238.007 0.104129C237.893 0.216312 237.82 0.370426 237.803 0.537124C237.673 1.3281 237.033 6.11076 234.633 9.18836C233.53 10.6033 231.874 11.9462 230.259 12.8419C230.166 12.8929 230.092 12.976 230.047 13.0782C229.999 13.1853 229.987 13.3078 230.015 13.4234C230.053 13.5545 230.122 13.6726 230.215 13.7658C230.753 14.3658 233.936 17.3132 235.476 20.9497C236.717 23.8759 237.216 26.1725 237.395 26.6196C237.426 26.7142 237.479 26.7986 237.549 26.8648C237.618 26.9309 237.702 26.9765 237.793 26.9974C237.915 27.01 238.037 26.9764 238.139 26.9021C238.241 26.8278 238.316 26.7175 238.352 26.5899C238.519 26.0989 239.131 23.5123 239.87 21.936C241.579 18.257 242.639 17.5792 245.848 14.3785C245.902 14.3241 245.944 14.2566 245.97 14.1814C245.996 14.1062 246.005 14.0254 245.997 13.9455C245.989 13.8657 245.963 13.7891 245.922 13.7222C245.881 13.6553 245.826 13.5999 245.762 13.5607Z" fill="#FFD79B"/>
<path d="M287.621 40.1623C286.31 39.5485 284.97 38.672 284.102 37.7815C282.246 35.8839 281.849 33.0917 281.77 32.6296C281.757 32.5247 281.723 32.424 281.67 32.3342C281.617 32.2443 281.547 32.1674 281.464 32.1085C281.385 32.0536 281.295 32.0184 281.202 32.0055C281.108 31.9926 281.013 32.0024 280.923 32.034C280.821 32.0639 280.728 32.1221 280.653 32.2025C280.579 32.2829 280.525 32.3827 280.499 32.4919C279.87 34.7013 279.387 35.5061 278.526 36.6902C277.481 38.1214 276.231 39.0779 274.431 39.7451C274.321 39.7864 274.224 39.8584 274.149 39.9537C274.074 40.0489 274.026 40.1637 274.008 40.286C273.99 40.4083 274.003 40.5334 274.047 40.6481C274.091 40.7628 274.163 40.8629 274.256 40.9376C276.826 42.9967 277.693 43.4447 279.009 45.7047C279.574 46.6753 280.011 48.2329 280.137 48.5349C280.18 48.6615 280.256 48.7724 280.357 48.8544C280.458 48.9364 280.578 48.9861 280.705 48.9975C280.831 49.0089 280.958 48.9815 281.071 48.9187C281.183 48.8559 281.276 48.7602 281.338 48.643C281.501 48.3846 281.982 47.0362 283.106 45.3521C284.476 43.2973 287.188 41.7466 287.647 41.4194C287.785 41.3354 287.891 41.2049 287.95 41.049C288.009 40.893 288.016 40.7207 287.971 40.5598C287.943 40.4707 287.897 40.3891 287.837 40.3205C287.777 40.2519 287.703 40.1979 287.621 40.1623Z" fill="#FFD79B"/>
<path d="M110.285 185.925L109.576 186.347C109.072 186.649 108.408 186.988 107.532 187.449C106.655 187.909 105.594 188.4 104.368 188.926C103.145 189.49 101.731 190.006 100.207 190.622C98.6521 191.142 96.9954 191.789 95.1934 192.295L92.4346 193.116L89.5281 193.843C87.5638 194.383 85.4832 194.715 83.4027 195.17C81.3027 195.526 79.1665 195.873 77.0277 196.168C74.8769 196.384 72.7382 196.677 70.6213 196.822C68.5044 196.967 66.4214 197.101 64.4038 197.159L58.5908 197.214C56.7452 197.195 54.9988 197.084 53.3906 197.03C51.7823 196.977 50.3097 196.919 49.009 196.771L45.6375 196.466L42.7043 196.195C42.4528 196.164 42.2226 196.039 42.0611 195.843C41.8997 195.648 41.8194 195.398 41.8368 195.146C41.8542 194.893 41.968 194.657 42.1547 194.485C42.3414 194.314 42.5867 194.221 42.84 194.226H42.8908L45.7973 194.356L49.1301 194.509C50.4138 194.599 51.8671 194.579 53.4511 194.567C55.0352 194.555 56.75 194.579 58.5593 194.516L64.2464 194.201C66.2131 194.054 68.238 193.794 70.3016 193.593C72.3652 193.392 74.4191 192.976 76.4997 192.673C78.5609 192.29 80.6173 191.859 82.6252 191.426C84.6137 190.89 86.6023 190.483 88.4648 189.878L91.2188 189.042L93.8201 188.136C95.5155 187.577 97.0584 186.889 98.5092 186.33C99.9165 185.685 101.234 185.14 102.341 184.559C103.472 184.019 104.417 183.491 105.199 183.065C105.981 182.638 106.577 182.265 106.919 182.038L107.507 181.65L107.594 181.594C107.875 181.4 108.191 181.264 108.524 181.193C108.858 181.123 109.202 181.121 109.537 181.186C109.872 181.251 110.19 181.382 110.473 181.573C110.756 181.763 110.998 182.008 111.184 182.293C111.371 182.579 111.498 182.899 111.559 183.234C111.62 183.57 111.613 183.914 111.538 184.247C111.464 184.579 111.323 184.894 111.125 185.171C110.927 185.449 110.675 185.684 110.385 185.862C110.353 185.886 110.314 185.908 110.285 185.925Z" fill="#F9CDD1"/>
<path d="M102.752 176.605L102.086 177.138C101.602 177.53 100.974 177.959 100.148 178.538C99.3055 179.076 98.2882 179.737 97.0796 180.391C95.8952 181.098 94.4904 181.737 92.9838 182.483C91.4385 183.13 89.7939 183.908 87.9774 184.511C87.0739 184.821 86.1656 185.199 85.2041 185.48L82.2661 186.342C81.2779 186.659 80.2412 186.863 79.2046 187.102L76.0558 187.805C73.9075 188.12 71.7469 188.57 69.5598 188.774L66.2851 189.084L64.6575 189.239L63.0347 189.294L59.8327 189.389C58.7767 189.425 57.7352 189.464 56.7106 189.403L50.8152 189.198C48.9527 189.016 47.1821 188.844 45.5642 188.682L43.2341 188.439C42.5075 188.34 41.8027 188.214 41.1487 188.112L37.7578 187.563L34.8101 187.078C34.5559 187.036 34.3281 186.897 34.1754 186.689C34.0226 186.482 33.9569 186.223 33.9923 185.968C34.0276 185.712 34.1613 185.481 34.3647 185.323C34.5682 185.165 34.8253 185.092 35.0814 185.121H35.1443L38.0678 185.458L41.4127 185.872C42.0594 185.945 42.7473 186.037 43.4715 186.114L45.7676 186.235C47.3638 186.322 49.0932 186.412 50.9243 186.509L56.6767 186.448C57.6722 186.465 58.6822 186.378 59.7019 186.298L62.7973 186.056L64.362 185.935L65.9242 185.715L69.0729 185.271C71.1656 184.981 73.2147 184.453 75.2517 184.06L78.2188 183.256C79.1876 182.98 80.1564 182.747 81.0913 182.401L83.8283 181.464C84.7221 181.163 85.5577 180.769 86.3909 180.439C88.0694 179.797 89.559 179.003 90.9686 178.342C92.3226 177.588 93.599 176.942 94.6381 176.251C95.7135 175.607 96.5758 174.975 97.3024 174.466C98.029 173.958 98.5716 173.498 98.8574 173.255C99.1432 173.013 99.383 172.798 99.383 172.798L99.4048 172.773C99.6478 172.543 99.9338 172.362 100.247 172.242C100.559 172.122 100.893 172.065 101.228 172.074C101.562 172.082 101.892 172.157 102.198 172.293C102.504 172.43 102.781 172.625 103.011 172.868C103.242 173.111 103.422 173.397 103.542 173.71C103.662 174.022 103.72 174.356 103.711 174.691C103.702 175.025 103.628 175.355 103.491 175.661C103.355 175.967 103.16 176.244 102.917 176.474C102.865 176.521 102.81 176.565 102.752 176.605Z" fill="#F9CDD1"/>
<path d="M35.9541 182.045C35.1887 180.834 34.5227 179.552 33.4085 178.576C32.3961 177.692 32.3767 178.802 32.5947 179.465C32.8143 180.079 33.1088 180.663 33.4715 181.204C33.8348 181.773 35.2832 183.537 34.1981 184.074C33.7306 184.317 32.1805 183.774 31.6597 183.612C30.0854 183.127 28.6806 182.285 27.0578 181.861C26.2173 181.638 24.3135 181.553 25.4253 182.704C26.7308 184.055 29.2667 183.995 30.6279 185.278C30.7733 185.414 29.4774 185.586 29.3612 185.588C27.4502 185.617 25.7959 185.487 23.9381 186.039C23.6959 186.114 22.9451 186.312 23.0032 186.63C23.0613 186.947 23.8049 186.947 24.0713 186.988C25.0805 187.127 26.1024 187.145 27.1159 187.044C27.9103 186.981 29.0294 186.862 29.6833 187.344C30.5843 188.013 28.3948 188.623 27.9176 188.814C27.392 189.032 24.9578 189.653 24.9748 190.239C24.9748 190.621 25.9945 190.541 26.3021 190.546C27.6294 190.546 28.8889 190.142 30.1072 189.759C31.617 189.284 33.1509 188.881 34.7092 188.548C36.0607 188.255 38.1001 187.889 38.8097 186.775C39.4225 185.826 37.7658 184.382 37.1482 183.704C36.7009 183.188 36.3013 182.633 35.9541 182.045Z" fill="#F9CDD1"/>
<path d="M40.5077 190.854C39.7399 189.643 39.0738 188.364 37.9572 187.388C36.9496 186.504 36.9278 187.613 37.1458 188.274C37.366 188.888 37.6596 189.473 38.0202 190.016C38.3883 190.583 39.8343 192.346 38.7468 192.886C38.2818 193.128 36.7292 192.583 36.2109 192.421C34.6365 191.937 33.2293 191.096 31.6259 190.67C30.7806 190.447 28.8768 190.365 29.9885 191.513C31.294 192.864 33.83 192.806 35.196 194.087C35.3341 194.223 34.0431 194.395 33.9244 194.397C32.0134 194.426 30.3567 194.298 28.5014 194.848C28.2592 194.923 27.5059 195.124 27.5664 195.439C27.627 195.754 28.3657 195.756 28.6321 195.8C29.6413 195.939 30.6634 195.956 31.6767 195.853C32.476 195.79 33.5902 195.671 34.2441 196.153C35.1476 196.822 32.958 197.43 32.4784 197.626C31.9528 197.842 29.5235 198.462 29.538 199.048C29.538 199.433 30.5577 199.353 30.8653 199.355C32.1902 199.368 33.4497 198.951 34.6704 198.568C36.1786 198.094 37.7126 197.69 39.2724 197.357C40.6239 197.062 42.6633 196.696 43.373 195.584C43.9858 194.63 42.3315 193.189 41.709 192.513C41.2597 191.997 40.8577 191.442 40.5077 190.854Z" fill="#F9CDD1"/>
<path d="M214.629 164.935C214.454 165.773 213.592 166.422 212.982 166.967C213.047 166.691 213.028 166.403 213.083 166.122C212.233 167.052 211.25 168.06 210.523 169.067C210.586 168.825 210.559 168.52 210.603 168.282C209.392 169.462 208.234 171.172 206.728 172.063C206.701 171.713 206.722 171.36 206.788 171.015C205.924 171.954 204.543 173.115 203.269 173.454C203.287 173.312 203.316 173.172 203.356 173.035C202.99 174.003 200.953 175.142 200.089 175.73C200.089 175.442 200.045 175.125 200.052 174.837C199.084 175.689 197.991 176.951 196.812 177.564C195.797 178.092 193.905 178.959 192.694 179.095C192.977 178.654 193.358 178.196 193.518 177.678C192.859 178.705 191.122 179.744 189.974 180.003C190.284 178.487 187.605 180.17 187.14 180.364C186.089 180.797 185.009 181.604 183.875 181.732C183.904 181.58 183.822 181.367 183.849 181.214C182.822 181.061 181.521 182.115 180.586 182.474C179.926 182.749 179.221 182.899 178.506 182.917C178.578 182.701 178.506 182.512 178.663 182.302C177.919 182.786 176.672 183.428 175.776 183.459C175.655 183.459 175.115 183.251 174.761 183.312C174.226 183.406 173.778 183.757 173.228 183.733C173.252 182.28 168.667 184.544 169.682 182.764C170.256 181.754 173.138 181.507 174.119 181.219C176.476 180.531 178.883 179.787 181.301 179.351C187.542 178.225 192.806 174.396 198.241 171.359C200.702 169.983 203.257 168.811 205.614 167.263C207.44 166.066 209.336 164.916 211.264 163.896C212.163 163.412 214.44 161.871 215.428 162.486C216.639 163.237 215.498 165.497 214.568 165.916C214.536 165.588 214.556 165.257 214.629 164.935Z" fill="#F1F6FD"/>
<path d="M165.131 166.263C163.847 165.56 162.815 164.34 161.665 163.468C161.013 162.971 160.524 162.676 159.676 162.642C159.998 163.225 159.71 163.051 160.049 163.402C158.276 162.077 156.774 160.297 154.977 159.081C155.04 159.41 155.159 159.724 155.331 160.011C155.239 159.042 154.033 158.074 153.495 157.279C153.086 156.666 152.768 155.753 152.308 155.312C152.197 155.874 152.427 156.414 152.732 156.88C151.322 156.153 150.135 154.143 149.249 152.798C149.295 153.072 149.292 153.283 149.363 153.554C148.324 151.716 147.183 149.778 146.124 148.036C146.074 148.669 146.367 149.284 146.35 149.938C145.076 147.235 143.787 144.687 141.748 142.483C141.703 143.077 141.78 143.675 141.975 144.239C141.975 141.916 139.59 139.753 138.827 137.631C138.855 138.067 138.984 138.49 139.202 138.869C139.144 137.353 138.107 135.766 137.463 134.436C136.901 133.271 136.267 131.511 135.327 130.675C135.232 131.566 135.613 132.494 135.891 133.291C136.252 131.462 134.365 128.875 133.634 127.27C133.115 126.124 132.629 123.469 131.563 122.786C131.616 123.45 131.987 124.087 132.161 124.748C132.096 122.474 131.539 119.487 131.556 116.997C131.393 117.603 131.35 118.257 131.158 118.85C130.209 115.944 130.189 111.841 127.927 109.566C127.981 110.431 128.169 111.289 128.148 112.187C128.235 109.247 126.319 106.037 125.11 103.405C125.11 104.107 125.11 104.807 125.125 105.507C124.26 102.278 123.369 98.1051 121.492 95.3706C121.426 95.9524 121.501 96.5416 121.712 97.0879C121.695 95.7848 120.7 94.0263 120.259 92.7887C119.801 91.5146 119.387 89.6739 118.462 88.6929C118.462 88.9521 118.408 89.2355 118.438 89.4995C118.396 88.6735 117.585 87.4891 116.878 87.1185C116.878 87.2542 116.863 87.4189 116.878 87.5618C116.72 86.9781 116.379 86.3072 115.805 86.157C115.645 88.0462 116.396 89.9984 116.774 91.8465C117.227 94.1719 117.907 96.4473 118.803 98.6404C119.886 101.201 121.245 103.727 122.08 106.377C123.049 109.457 124.064 112.296 125.6 115.147C128.591 120.698 129.959 126.969 132.546 132.741C134.083 136.167 136.041 139.387 138.376 142.328C140.537 145.052 143.005 147.361 145.26 149.974C147.163 152.186 148.326 154.847 150.14 157.114C151.659 159.013 153.517 160.719 155.091 162.596C156.43 164.192 156.992 164.7 158.966 165.018C160.504 165.26 162.008 166.18 163.551 166.098C163.772 165.585 164.712 167.508 164.433 167.031L165.131 166.263Z" fill="#EEF3F9"/>
<path d="M121.1 154.106C119.497 152.222 117.906 148.862 112.468 145.478C112.548 146.157 113.124 146.731 113.282 147.402C111.883 146.744 110.44 146.184 108.963 145.728C109.257 145.984 109.49 146.303 109.644 146.66C108.506 146.69 105.802 145.132 105.526 144.238C105.655 144.764 106.011 145.224 106.253 145.692C104.911 144.929 103.388 144.456 102.031 143.689C102.172 143.911 102.16 144.267 102.247 144.476C100.442 144.718 99.2919 143.332 97.6958 142.928C97.7103 143.042 97.7491 143.153 97.7636 143.262C95.9494 143.417 94.1813 141.567 92.3236 141.48C92.4398 141.671 92.498 142.085 92.6651 142.296C90.989 141.872 88.952 140.642 87.3825 139.772C87.4981 139.954 87.5978 140.147 87.6804 140.346C86.7552 140.47 85.8687 139.646 85.0161 139.443C85.0743 139.82 84.9774 140.227 85.0161 140.598C84.3985 140.445 83.8366 140.157 83.2359 140.014C82.7781 142.708 87.0943 145.222 89.0126 146.411C92.9025 148.816 97.3058 150.449 101.753 151.497C104.901 152.246 109.261 152.832 112.463 152.377C113.405 152.243 115.958 151.25 116.581 150.681L121.1 154.106Z" fill="#F1F6FD"/>
<path d="M168.714 191.602C167.234 193.056 166.035 194.928 163.85 195.72C164.106 195.154 164.332 194.576 164.528 193.988C163.104 196.015 160.261 196.933 158.064 197.948C158.26 197.687 158.384 197.379 158.572 197.125C156.707 198.885 152.948 199.186 150.555 199.946C151.088 199.462 151.766 198.772 152.115 198.023C150.451 199.559 147.356 200.557 145.135 200.702C145.448 200.634 145.745 200.503 146.008 200.319C146.271 200.135 146.494 199.9 146.665 199.629C143.941 200.356 140.547 202.349 137.633 201.947C138.36 201.099 139.479 200.363 140.334 199.644C138.762 199.435 136.895 200.181 135.301 200.341C133.305 200.537 131.309 200.518 129.299 200.518C129.663 200.54 130.026 200.471 130.357 200.317C130.687 200.163 130.974 199.929 131.191 199.636C129.447 199.755 125.356 200.591 124.167 199.101C124.743 198.879 125.272 198.55 125.726 198.132C123.631 198.161 118.591 198.667 117.249 196.907C118.167 196.652 118.916 196.071 119.744 195.637C117.523 194.787 113.253 195.528 111.62 193.77C111.846 193.651 112.153 193.356 112.318 193.264C110.196 193.23 106.059 193.056 104.478 191.588C105.001 191.12 105.785 190.767 106.306 190.35C104.083 190.248 100.251 190.122 99.0133 187.928C103.4 186.562 94.2321 183.723 94.1449 182.507C94.7361 182.461 95.3048 182.261 95.7943 181.926C93.9027 180.657 91.6768 180.473 90.318 178.317C91.1698 178.198 92.0078 177.995 92.82 177.712C92.7837 177.111 86.8544 173.887 90.1073 173.565C89.1384 171.981 85.0645 171.019 85.234 168.856C88.9495 168.311 81.4192 163.903 80.993 163.172C85.1105 161.302 80.167 160.224 79.9151 157.72C79.7819 156.419 81.0535 156.562 80.1065 154.992C79.1836 153.462 76.8245 152.687 76.4903 150.834C79.4283 150.381 73.6782 145.398 76.8027 145.314C76.9747 143.739 73.9495 141.589 76.282 140.782C79.2926 139.74 82.8604 145.75 84.3378 147.564C89.555 153.975 93.985 160.941 99.1804 167.352C103.94 173.231 111.678 179.397 118.879 182.127C129.779 186.23 142.633 189.473 154.242 186.986C158.393 186.097 164.09 182.26 168.44 182.745C173.296 183.287 170.182 190.074 168.791 193.051C168.75 192.576 168.702 192.082 168.714 191.602Z" fill="#F1F6FD"/>
<path d="M235.551 148.993C235.268 148.247 235.391 147.324 235.067 146.518C234.66 145.469 233.904 144.558 233.628 143.468C233.628 143.88 233.642 144.299 233.628 144.708C232.875 144.163 232.376 142.935 231.724 142.197C231.724 142.514 231.724 142.841 231.724 143.153C230.615 142.923 229.752 141.761 228.842 141.17C228.866 141.301 228.842 141.463 228.881 141.608C227.849 141.344 226.725 140.758 225.763 140.264C225.822 140.401 225.869 140.544 225.901 140.69C224.794 141.175 223.562 140.339 222.462 140.448C223.511 141.439 219.139 141.259 218.708 141.431C218.886 141.506 219.068 141.571 219.253 141.625C219.42 142.914 216.588 142.398 216.186 143.27C215.98 143.706 216.542 143.665 216.109 144.239C215.731 144.75 214.561 145.416 213.997 145.718C214.239 146.217 214.29 146.343 213.975 146.881C213.566 147.576 211.982 147.937 211.778 148.702C211.652 149.172 212.156 149.492 212.171 150.042C212.197 150.991 211.131 151.447 211.052 152.236C211.001 152.706 211.514 152.822 211.422 153.447C211.33 154.072 210.662 154.159 210.892 154.83C211.032 155.235 211.49 155.215 211.618 155.799C211.732 156.32 211.534 156.887 211.354 157.349C212.049 157.87 213.478 157.814 214.333 157.795C214.845 154.569 215.884 151.098 218.172 148.7C219.417 147.395 221.064 146.506 222.564 145.515C223.964 144.595 225.47 143.958 227.166 143.875C229.767 143.749 230.988 145.086 232.749 146.678C233.129 147.038 233.528 147.378 233.945 147.695C234.471 148.063 234.803 148.501 235.202 148.792L235.551 148.993Z" fill="#F1F6FD"/>
<path d="M72.4823 130.178C72.1142 130.61 72.3927 131.389 72.0148 131.758C71.8574 131.913 71.2083 131.92 70.9734 131.976C70.5422 132.07 69.8834 132.172 69.6049 132.567C69.1374 133.225 69.9246 134.02 69.6339 134.71C69.2416 135.64 68.0426 135.8 67.5558 136.631C66.8849 137.774 68.3599 138.445 68.6772 139.399C68.9582 140.249 68.3648 140.901 69.1374 141.601C70.1619 142.524 71.5425 142.812 72.8262 143.243C74.1163 143.709 75.3794 144.247 76.6096 144.854C77.4597 145.249 78.6659 146.046 79.6396 145.767C81.2454 145.304 79.7098 142.752 80.5624 141.579C81.4683 140.337 82.5849 141.511 82.8416 139.85C83.0354 138.581 81.6717 137.416 80.8773 136.624C78.8427 134.591 76.8905 132.479 74.6162 130.704C74.1778 130.365 73.4802 129.764 72.8699 129.941C72.7197 129.979 72.5847 130.062 72.4823 130.178Z" fill="#746B5C"/>
<path d="M175.413 171.146C156.22 163.053 145.359 154.092 136.359 134.504C131.297 123.496 127.639 111.955 122.73 100.9C119.823 94.3799 114.737 78.2657 107.643 75.8C108.432 76.0762 106.432 84.9483 106.226 85.9002C105.177 90.7032 103.871 95.4916 103.598 100.433C103.448 103.07 103.564 105.844 104.567 108.319C105.184 109.838 107.018 112.391 108.585 112.972C107.674 114.585 105.579 115.801 104.019 116.721C102.016 117.906 100.071 119.463 100.984 122.079C101.711 124.138 103.358 125.7 105.102 126.923C106.044 127.596 109.893 128.994 110.208 130.043C110.675 131.617 108.754 132.843 107.88 133.918C106.841 135.211 105.62 136.665 105.388 138.372C105.051 140.869 106.993 142.633 108.842 143.921C109.326 144.26 114.761 147.692 115.006 147.462C113.119 149.247 110.113 149.48 108.9 152.202C107.974 154.273 109.353 156.308 110.694 157.814C114.766 162.39 120.741 165.587 126.256 168.053C128.678 169.138 131.285 170.247 133.888 170.852C147.377 173.989 164.126 172.955 178.385 172.495L175.413 171.146Z" fill="#EEF3F9"/>
<path d="M141.393 170.622C138.792 170.014 136.193 168.91 133.761 167.822C128.249 165.357 122.271 162.16 118.202 157.587C116.862 156.075 115.482 154.038 116.407 151.972C117.618 149.252 120.629 149.017 122.511 147.232C122.269 147.462 116.838 144.028 116.349 143.691C114.498 142.405 112.554 140.639 112.897 138.14C113.128 136.444 114.351 134.991 115.387 133.688C116.262 132.6 118.185 131.38 117.713 129.813C117.4 128.764 113.554 127.366 112.612 126.693C110.875 125.458 109.221 123.898 108.494 121.849C107.579 119.233 109.523 117.675 111.531 116.491C113.091 115.571 115.184 114.355 116.092 112.744C114.53 112.16 112.701 109.595 112.076 108.091C111.066 105.616 110.95 102.84 111.108 100.202C111.384 95.2687 112.687 90.4802 113.74 85.67C113.811 85.3454 114.096 84.0738 114.404 82.5382C112.406 79.2781 110.146 76.6888 107.634 75.8169C108.424 76.093 106.423 84.9651 106.217 85.917C105.169 90.72 103.863 95.5085 103.589 100.45C103.439 103.087 103.555 105.86 104.558 108.336C105.176 109.855 107.009 112.407 108.576 112.989C107.666 114.602 105.571 115.818 104.011 116.738C102.008 117.922 100.063 119.48 100.976 122.096C101.703 124.155 103.35 125.717 105.094 126.94C106.036 127.613 109.884 129.011 110.199 130.06C110.667 131.634 108.746 132.859 107.872 133.935C106.833 135.228 105.612 136.682 105.379 138.389C105.043 140.886 106.985 142.65 108.833 143.938C109.318 144.277 114.753 147.709 114.997 147.479C113.111 149.264 110.105 149.497 108.891 152.219C107.966 154.29 109.344 156.325 110.686 157.831C114.758 162.407 120.733 165.604 126.248 168.069C128.67 169.154 131.276 170.264 133.88 170.869C145.785 173.638 160.225 173.156 173.251 172.691C162.364 172.972 151.045 172.868 141.393 170.622Z" fill="#746B5C"/>
<path d="M226.502 155.291C226.811 155.608 227.002 156.02 227.045 156.46C227.215 158.732 222.927 160.186 221.404 161.062C215.879 164.264 210.795 168.416 205.462 171.94C194.538 179.16 183.438 182.113 170.688 184.227C169.218 191.978 156.192 194.991 150.1 196.212C140.036 198.239 129.488 197.825 119.945 193.79C111.681 190.295 100.67 183.59 94.4648 177.15C88.0075 170.448 75.2915 137.871 75.2915 137.871C75.2915 137.871 117.92 149.836 126.262 153.401C144.815 161.331 163.078 169.339 183.891 168.66C189.304 168.486 194.599 167.389 199.721 165.657C205.435 163.731 209.805 159.963 214.688 156.598C217.042 154.976 219.813 152.571 222.898 153.45C223.911 153.728 225.631 154.322 226.502 155.291Z" fill="#F1F6FD"/>
<path d="M236.6 153.399C236.6 155.807 235.886 158.162 234.549 160.164C233.211 162.167 231.309 163.728 229.085 164.65C226.86 165.572 224.411 165.813 222.049 165.343C219.687 164.873 217.517 163.714 215.814 162.011C214.111 160.308 212.952 158.138 212.482 155.776C212.012 153.414 212.253 150.966 213.175 148.741C214.097 146.516 215.658 144.614 217.661 143.276C219.664 141.939 222.018 141.225 224.426 141.225C227.655 141.226 230.751 142.509 233.034 144.792C235.316 147.074 236.599 150.17 236.6 153.399Z" fill="#F1F6FD"/>
<path d="M235.507 150.688L281.653 153.784L234.047 160.861C234.607 159.211 234.989 157.506 235.188 155.775C235.381 154.086 235.488 152.388 235.507 150.688Z" fill="#F8C7CE"/>
<path d="M230.942 151.025C230.942 151.025 232.299 149.72 234.047 151.025" stroke="#746B5C" stroke-width="3.01" stroke-linecap="round" stroke-linejoin="round"/>
<path d="M255.151 151.357C256.417 155.014 259.249 157.744 261.734 160.588C268.831 168.699 275.213 179.705 274.181 190.864C273.34 199.978 263.039 200.399 255.931 200.293C250.227 200.208 244.179 198.636 241.199 193.358C237.978 187.64 238.763 180.318 240.337 174.224C241.141 171.102 242.098 167.684 243.525 164.778C244.493 162.792 245.549 160.847 246.649 158.926C247.182 157.986 247.725 157.051 248.279 156.121C248.56 155.637 249.267 153.803 249.774 153.59L255.151 151.357Z" fill="#F1F6FD"/>
<path d="M249.66 155.363C249.581 155.278 249.66 154.728 249.66 154.6C249.66 154.37 249.646 154.142 249.627 153.915C249.605 153.523 249.524 153.136 249.384 152.769C249.036 151.897 248.365 151.204 247.713 150.55C246.65 149.482 245.395 148.298 245.32 146.675C245.314 146.111 245.431 145.553 245.664 145.04C245.744 144.844 246.056 143.89 246.328 143.899C247.994 143.965 249.476 145.353 250.445 146.602C251.567 148.056 252.066 149.855 252.446 151.623C252.557 152.132 252.657 152.641 252.761 153.152C252.276 150.873 251.792 148.569 251.588 146.244C251.463 145.156 251.503 144.055 251.71 142.979C251.978 141.782 252.761 140.99 253.977 140.799L254.669 140.705C254.638 141.661 254.897 142.594 255.154 143.505C255.424 144.418 255.626 145.351 255.757 146.295C255.829 146.852 255.88 147.409 255.909 147.966C255.948 148.693 255.955 149.419 255.924 150.146C255.915 150.852 255.794 151.551 255.566 152.219C255.323 152.895 254.914 153.508 254.638 154.174C254.376 154.899 253.996 155.575 253.512 156.174C253.231 156.487 252.87 156.717 252.468 156.838C251.119 157.24 249.76 156.896 249.878 155.569L249.66 155.363Z" fill="#F1F6FD"/>
<path d="M281.654 153.772L235.508 150.688C235.489 152.388 235.382 154.086 235.188 155.775L281.654 153.772Z" fill="#F9CDD1"/>
<path d="M162.886 170.196C160.744 168.818 159.582 166.197 157.693 164.625C157.78 164.897 157.727 165.26 157.865 165.57C156.605 165.306 155.29 163.308 154.626 162.23C154.566 162.691 154.615 163.159 154.767 163.598C153.621 161.888 151.427 160.796 150.165 159.163C150.147 159.561 150.172 159.959 150.24 160.35C147.854 159.546 145.861 155.928 143.969 154.31C144.072 154.706 144.223 155.088 144.42 155.448C143.451 153.295 141.726 151.829 140.302 149.974C140.302 150.439 140.317 150.911 140.288 151.369C139.803 151.168 139.527 150.352 139.127 149.904C138.616 149.332 137.96 148.947 137.432 148.361C136.044 146.816 135.213 145.251 135.213 143.476C135.213 143.999 135.213 144.52 135.213 145.043C134.196 142.059 132.852 138.653 131.352 135.984C131.306 136.565 131.323 137.166 131.323 137.757C131.345 135.521 130.095 133.254 129.168 131.372C129.129 131.835 129.141 132.312 129.143 132.782C128.659 130.995 128.107 126.7 126.615 125.55C126.576 126.095 126.586 126.657 126.6 127.209C125.728 125.161 124.994 123.057 124.403 120.911C123.905 119.112 123.762 117.06 122.972 115.365C122.972 115.905 123.103 116.433 123.047 116.971C122.006 113.853 121.558 110.363 120.274 107.367C120.274 107.789 120.274 108.208 120.274 108.627C120.194 107.173 119.458 105.594 119.063 104.175C118.668 102.755 118.358 101.268 117.716 99.9555C117.716 100.505 117.735 101.067 117.699 101.607C116.929 101.154 116.384 98.8922 116.018 97.9524C115.432 96.4507 115.137 94.8207 114.347 93.4231C114.308 93.9221 114.347 94.5494 114.228 94.9418C114.262 93.7138 113.635 91.7035 112.891 90.7346C110.845 95.5449 112.276 102.036 113.475 106.839C114.604 111.366 115.783 115.801 117.268 120.216C118.869 124.981 121.243 129.357 123.398 133.874C126.08 139.491 128 145.459 131.58 150.623C134.281 154.513 137.456 158.839 141.382 161.564C145.089 164.184 149.032 166.455 153.159 168.346C155.338 169.314 157.681 170.223 160.076 170.203C160.643 170.203 161.045 170.002 161.653 170.203L162.886 170.196Z" fill="#F1F6FD"/>
<path d="M165.637 170.477C146.711 161.774 136.151 152.464 127.77 132.598C123.066 121.435 119.797 109.782 115.229 98.5748C112.538 91.9601 107.962 75.6934 100.96 73C101.745 73.3003 99.4559 82.1095 99.221 83.0468C98.0099 87.8159 96.5567 92.5608 96.1255 97.4825C95.8833 100.118 95.9172 102.893 96.8522 105.398C97.4214 106.936 99.175 109.544 100.728 110.177C99.7587 111.758 97.6369 112.909 96.0504 113.778C94.0062 114.897 92.0128 116.392 92.8412 119.034C93.4951 121.115 95.0962 122.728 96.7892 124.019C97.7096 124.721 101.512 126.242 101.791 127.301C102.212 128.89 100.248 130.052 99.3421 131.111C98.2643 132.368 96.9927 133.775 96.7069 135.471C96.2878 137.958 98.1746 139.782 99.9791 141.129C100.464 141.487 105.775 145.091 106.034 144.868C104.097 146.593 101.081 146.728 99.7805 149.41C98.7898 151.447 100.1 153.527 101.396 155.08C105.315 159.781 111.189 163.167 116.619 165.81C119.014 166.975 121.574 168.164 124.156 168.854C137.538 172.424 154.314 171.928 168.573 171.928L165.637 170.477Z" fill="#F1F6FD"/>
<path d="M131.656 168.854C129.072 168.164 126.511 166.975 124.118 165.81C118.686 163.167 112.815 159.781 108.896 155.08C107.597 153.527 106.289 151.447 107.28 149.41C108.581 146.728 111.594 146.593 113.534 144.868C113.292 145.091 107.963 141.477 107.479 141.129C105.674 139.782 103.79 137.958 104.209 135.471C104.495 133.775 105.764 132.361 106.844 131.111C107.748 130.052 109.712 128.89 109.293 127.301C109.012 126.242 105.212 124.721 104.291 124.019C102.596 122.728 100.997 121.112 100.343 119.034C99.5124 116.392 101.503 114.897 103.55 113.778C105.139 112.909 107.273 111.758 108.227 110.177C106.687 109.544 104.933 106.936 104.352 105.398C103.424 102.893 103.397 100.118 103.625 97.4825C104.059 92.5608 105.514 87.8159 106.721 83.0468C106.803 82.7247 107.127 81.4628 107.488 79.9369C105.597 76.6138 103.419 73.9543 100.937 73C101.721 73.3003 99.4325 82.1095 99.1975 83.0468C97.9865 87.8159 96.5332 92.5608 96.1021 97.4825C95.8599 100.118 95.8938 102.893 96.8287 105.398C97.3979 106.936 99.1515 109.544 100.704 110.177C99.7352 111.758 97.6135 112.909 96.027 113.778C93.9828 114.897 91.9894 116.392 92.8177 119.034C93.4717 121.115 95.0727 122.728 96.7658 124.019C97.6862 124.721 101.489 126.242 101.767 127.301C102.189 128.89 100.224 130.052 99.3186 131.111C98.2408 132.368 96.9692 133.775 96.6834 135.471C96.2644 137.958 98.1512 139.782 99.9556 141.129C100.44 141.487 105.752 145.091 106.011 144.868C104.073 146.593 101.058 146.728 99.757 149.41C98.7664 151.447 100.077 153.527 101.373 155.08C105.292 159.781 111.165 163.167 116.595 165.81C118.991 166.975 121.551 168.164 124.133 168.854C135.941 172.003 150.388 171.988 163.426 171.942C152.539 171.887 141.23 171.417 131.656 168.854Z" fill="#746B5C"/>
<path d="M212.677 158.337C210.773 159.374 208.738 159.791 206.622 159.931C206.878 160.675 208.215 160.696 208.283 161.474C207.37 161.728 206.345 161.576 205.401 161.634C205.926 162.293 207.472 162.053 207.678 162.932C205.272 163.349 202.77 163.189 200.307 163.329C200.588 164.54 202.453 164.351 203.441 164.429C201.458 165.616 197.803 164.656 195.657 165.005C196.17 165.247 196.732 165.509 197.226 165.732C195.897 166.216 193.671 166.071 192.181 166.112C192.305 166.306 192.305 166.628 192.515 166.827C191.333 167.282 189.575 166.885 188.279 166.967C188.737 167.227 189.225 167.43 189.732 167.573C188.918 168.338 186.826 167.43 185.755 168.299C184.353 169.445 186.324 170.322 187.521 170.554C192.934 171.603 197.512 169.673 202.448 167.934C205.408 166.89 216.162 163.378 213.28 158.197L212.677 158.337Z" fill="#F1F6FD"/>
<path d="M76.3261 137.871C76.289 137.542 76.1895 137.223 76.0331 136.931C76.7306 136.972 77.5323 137.844 78.2686 138.004C78.287 137.791 78.274 137.576 78.2299 137.367C78.7143 137.912 79.5523 138.324 80.1675 138.697C80.2173 138.517 80.2402 138.331 80.2354 138.144C81.0032 138.51 81.6717 139.322 82.5194 139.598C82.4752 139.383 82.4613 139.163 82.4782 138.944C83.0474 138.961 84.2076 140.237 84.709 140.617C84.6847 140.535 84.6751 140.431 84.6508 140.351C85.0529 140.985 85.6463 141.654 85.9224 142.325C85.266 142.364 84.9754 142.211 84.3989 141.894C83.6408 141.477 82.8561 141.339 82.0592 141.065C81.0347 140.714 80.0053 140.254 78.9953 139.854C77.4669 139.266 75.1538 138.999 75.0352 136.96C75.1974 137.05 76.3237 137.694 76.3261 137.871Z" fill="#F1F6FD"/>
<path d="M79.0024 146.086C78.4502 145.757 77.9197 145.379 77.3748 145.04C76.9921 144.798 76.3091 144.541 76.0935 144.156C76.4932 144.144 76.8734 144.34 77.3046 144.321C77.3821 143.519 75.8755 142.957 75.6866 142.141C75.9288 142.129 76.2025 142.141 76.4592 142.124C76.4931 141.479 75.2845 140.44 74.7952 140.065C75.0568 140.065 75.2966 140.121 75.5461 140.121C75.5752 139.43 74.7081 139.06 74.4077 138.563C74.5468 138.566 74.6853 138.581 74.8219 138.607C74.7057 138.377 74.4537 138.122 74.4101 137.834C75.0471 137.728 76.3938 138.319 76.8928 138.735C77.4935 139.22 77.6461 140.188 77.9077 140.903C78.3921 142.199 79.7605 144.461 79.2592 145.834L79.0024 146.086Z" fill="#F1F6FD"/>
</svg>
