<svg width="91" height="86" viewBox="0 0 91 86" fill="none" xmlns="http://www.w3.org/2000/svg">
<path d="M44.911 0L55.7702 32.7133L90.2387 32.4931L62.4823 52.9309L73.3416 85.6442L45.3243 65.5588L17.5714 86L28.0105 53.1511L0 33.0623L34.4684 32.8455L44.911 0Z" fill="#B2DEF1"/>
<path d="M41.2891 52.6192C41.2891 52.6192 45.1144 56.1768 48.9397 52.6192" stroke="#746B5C" stroke-width="2" stroke-linecap="round" stroke-linejoin="round"/>
<path d="M32.4795 41.6719C32.4795 41.6719 35.4713 44.3825 39.1204 41.6719" stroke="#746B5C" stroke-width="2" stroke-linecap="round" stroke-linejoin="round"/>
<path d="M51.1152 41.6719C51.1152 41.6719 54.1003 44.3825 57.7595 41.6719" stroke="#746B5C" stroke-width="2" stroke-linecap="round" stroke-linejoin="round"/>
<path d="M58.108 48.6956C58.1087 49.2833 57.9351 49.858 57.6091 50.3471C57.2832 50.8361 56.8195 51.2175 56.2768 51.443C55.7341 51.6685 55.1367 51.7281 54.5601 51.6141C53.9836 51.5001 53.4538 51.2177 53.0378 50.8026C52.6217 50.3875 52.3381 49.8583 52.2228 49.282C52.1075 48.7058 52.1657 48.1082 52.3899 47.565C52.6142 47.0218 52.9946 46.5573 53.4828 46.2302C53.9711 45.9031 54.5454 45.7282 55.1331 45.7275C55.5234 45.7271 55.9098 45.8035 56.2705 45.9524C56.6312 46.1014 56.959 46.3199 57.2353 46.5955C57.5115 46.8711 57.7308 47.1984 57.8805 47.5588C58.0303 47.9191 58.1076 48.3054 58.108 48.6956Z" fill="#FCE0E3"/>
<path d="M38.0699 48.6956C38.0706 49.2836 37.8968 49.8586 37.5705 50.3478C37.2443 50.8369 36.7802 51.2183 36.2371 51.4437C35.694 51.669 35.0963 51.7281 34.5195 51.6136C33.9428 51.499 33.413 51.2159 32.9973 50.8002C32.5815 50.3844 32.2984 49.8546 32.1839 49.2779C32.0693 48.7012 32.1285 48.1034 32.3538 47.5603C32.5791 47.0172 32.9605 46.5532 33.4497 46.2269C33.9388 45.9007 34.5138 45.7269 35.1018 45.7275C35.8887 45.7284 36.6431 46.0414 37.1996 46.5979C37.756 47.1543 38.069 47.9087 38.0699 48.6956Z" fill="#FCE0E3"/>
</svg>
