<svg width="302" height="111" viewBox="0 0 302 111" fill="none" xmlns="http://www.w3.org/2000/svg">
<path d="M34.762 97.5607C32.5982 96.2079 31.1231 94.4236 29.9314 91.847C28.945 89.7245 28.3991 88.2854 27.7519 84.4239C27.7384 84.3375 27.7047 84.2564 27.6539 84.1884C27.6032 84.1203 27.5372 84.0677 27.4623 84.0355C27.3875 84.0034 27.3062 83.9928 27.2265 84.0048C27.1468 84.0168 27.0713 84.051 27.0072 84.1041C26.8927 84.2163 26.8201 84.3704 26.8032 84.5371C26.6732 85.3281 26.0325 90.1108 23.6334 93.1884C22.53 94.6033 20.8743 95.9462 19.2589 96.8419C19.1662 96.8929 19.0917 96.976 19.0471 97.0782C18.9987 97.1853 18.9872 97.3078 19.0146 97.4234C19.0528 97.5545 19.1218 97.6726 19.2147 97.7658C19.7528 98.3658 22.9355 101.313 24.4756 104.95C25.7167 107.876 26.2158 110.172 26.3951 110.62C26.4263 110.714 26.4792 110.799 26.5488 110.865C26.6184 110.931 26.7024 110.977 26.7928 110.997C26.9148 111.01 27.0371 110.976 27.1389 110.902C27.2408 110.828 27.3159 110.718 27.3516 110.59C27.5193 110.099 28.1314 107.512 28.8696 105.936C30.5786 102.257 31.6391 101.579 34.8478 98.3785C34.9021 98.3241 34.9439 98.2566 34.9698 98.1814C34.9958 98.1062 35.0052 98.0254 34.9973 97.9455C34.9889 97.8657 34.9632 97.7891 34.9223 97.7222C34.8814 97.6553 34.8265 97.5999 34.762 97.5607Z" fill="#FFD79B"/>
<path d="M13.621 63.1623C12.3101 62.5485 10.97 61.672 10.1018 60.7815C8.24614 58.8839 7.8485 56.0917 7.7703 55.6296C7.75699 55.5247 7.72282 55.424 7.67003 55.3342C7.61725 55.2443 7.54706 55.1674 7.46411 55.1085C7.38512 55.0536 7.29543 55.0184 7.20177 55.0055C7.10811 54.9926 7.01291 55.0024 6.92332 55.034C6.8208 55.0639 6.72757 55.1221 6.65308 55.2025C6.57859 55.2829 6.52549 55.3827 6.49916 55.4919C5.86956 57.7013 5.38709 58.5061 4.52553 59.6902C3.48105 61.1214 2.23112 62.0779 0.431125 62.7451C0.321046 62.7864 0.223555 62.8584 0.149004 62.9537C0.0744529 63.0489 0.0256173 63.1637 0.00767864 63.286C-0.01026 63.4083 0.00337043 63.5334 0.0471178 63.6481C0.0908651 63.7628 0.1631 63.8629 0.256161 63.9376C2.82626 65.9967 3.69312 66.4447 5.00932 68.7047C5.57398 69.6753 6.01139 71.2329 6.13731 71.5349C6.18018 71.6615 6.25647 71.7724 6.35711 71.8544C6.45775 71.9364 6.57849 71.9861 6.70498 71.9975C6.83148 72.0089 6.9584 71.9815 7.07066 71.9187C7.18291 71.8559 7.27577 71.7602 7.33819 71.643C7.50122 71.3846 7.98237 70.0362 9.10638 68.3521C10.4756 66.2973 13.1875 64.7466 13.6475 64.4194C13.7847 64.3354 13.8912 64.2049 13.9499 64.049C14.0085 63.893 14.0159 63.7207 13.9709 63.5598C13.943 63.4707 13.8973 63.3891 13.8369 63.3205C13.7765 63.2519 13.7028 63.1979 13.621 63.1623Z" fill="#FFD79B"/>
<path d="M274.594 63.0822C273.188 62.3239 271.754 61.2412 270.824 60.1411C268.836 57.7986 268.41 54.3474 268.325 53.7765C268.311 53.6468 268.275 53.5222 268.218 53.4113C268.162 53.3005 268.086 53.206 267.997 53.1345C267.912 53.0664 267.816 53.0227 267.716 53.0068C267.616 52.9908 267.514 53.0031 267.419 53.0425C267.309 53.0789 267.208 53.1503 267.128 53.2494C267.048 53.3484 266.991 53.4716 266.963 53.6065C266.288 56.3359 265.771 57.3301 264.848 58.7929C263.729 60.561 262.392 61.7426 260.462 62.5668C260.344 62.6178 260.24 62.7068 260.16 62.8245C260.08 62.9421 260.027 63.084 260.008 63.235C259.989 63.3861 260.004 63.5406 260.05 63.6823C260.097 63.8241 260.175 63.9476 260.274 64.04C263.029 66.5837 263.957 67.1372 265.368 69.9308C265.973 71.1281 266.442 73.0541 266.576 73.4254C266.622 73.5818 266.704 73.7189 266.812 73.8202C266.92 73.9215 267.049 73.9828 267.185 73.9969C267.32 74.011 267.456 73.9772 267.576 73.8996C267.697 73.8219 267.796 73.7037 267.863 73.559C268.038 73.2398 268.553 71.574 269.757 69.4936C271.224 66.955 274.128 65.0394 274.622 64.6351C274.769 64.5314 274.883 64.3702 274.946 64.1776C275.009 63.9849 275.017 63.772 274.969 63.5732C274.938 63.4636 274.889 63.3632 274.824 63.2786C274.76 63.1939 274.681 63.127 274.594 63.0822Z" fill="#FFD79B"/>
<path d="M259.762 13.5607C257.598 12.2079 256.123 10.4236 254.931 7.84696C253.945 5.72447 253.399 4.28542 252.752 0.423918C252.738 0.337529 252.705 0.256406 252.654 0.188369C252.603 0.120331 252.537 0.0676915 252.462 0.0355388C252.387 0.00338609 252.306 -0.00720728 252.227 0.00481048C252.147 0.0168282 252.071 0.0510378 252.007 0.104129C251.893 0.216312 251.82 0.370426 251.803 0.537124C251.673 1.3281 251.033 6.11076 248.633 9.18836C247.53 10.6033 245.874 11.9462 244.259 12.8419C244.166 12.8929 244.092 12.976 244.047 13.0782C243.999 13.1853 243.987 13.3078 244.015 13.4234C244.053 13.5545 244.122 13.6726 244.215 13.7658C244.753 14.3658 247.936 17.3132 249.476 20.9497C250.717 23.8759 251.216 26.1725 251.395 26.6196C251.426 26.7142 251.479 26.7986 251.549 26.8648C251.618 26.9309 251.702 26.9765 251.793 26.9974C251.915 27.01 252.037 26.9764 252.139 26.9021C252.241 26.8278 252.316 26.7175 252.352 26.5899C252.519 26.0989 253.131 23.5123 253.87 21.936C255.579 18.257 256.639 17.5792 259.848 14.3785C259.902 14.3241 259.944 14.2566 259.97 14.1814C259.996 14.1062 260.005 14.0254 259.997 13.9455C259.989 13.8657 259.963 13.7891 259.922 13.7222C259.881 13.6553 259.826 13.5999 259.762 13.5607Z" fill="#FFD79B"/>
<path d="M301.621 40.1623C300.31 39.5485 298.97 38.672 298.102 37.7815C296.246 35.8839 295.849 33.0917 295.77 32.6296C295.757 32.5247 295.723 32.424 295.67 32.3342C295.617 32.2443 295.547 32.1674 295.464 32.1085C295.385 32.0536 295.295 32.0184 295.202 32.0055C295.108 31.9926 295.013 32.0024 294.923 32.034C294.821 32.0639 294.728 32.1221 294.653 32.2025C294.579 32.2829 294.525 32.3827 294.499 32.4919C293.87 34.7013 293.387 35.5061 292.526 36.6902C291.481 38.1214 290.231 39.0779 288.431 39.7451C288.321 39.7864 288.224 39.8584 288.149 39.9537C288.074 40.0489 288.026 40.1637 288.008 40.286C287.99 40.4083 288.003 40.5334 288.047 40.6481C288.091 40.7628 288.163 40.8629 288.256 40.9376C290.826 42.9967 291.693 43.4447 293.009 45.7047C293.574 46.6753 294.011 48.2329 294.137 48.5349C294.18 48.6615 294.256 48.7724 294.357 48.8544C294.458 48.9364 294.578 48.9861 294.705 48.9975C294.831 49.0089 294.958 48.9815 295.071 48.9187C295.183 48.8559 295.276 48.7602 295.338 48.643C295.501 48.3846 295.982 47.0362 297.106 45.3521C298.476 43.2973 301.188 41.7466 301.647 41.4194C301.785 41.3354 301.891 41.2049 301.95 41.049C302.009 40.893 302.016 40.7207 301.971 40.5598C301.943 40.4707 301.897 40.3891 301.837 40.3205C301.777 40.2519 301.703 40.1979 301.621 40.1623Z" fill="#FFD79B"/>
</svg>
