<svg width="22" height="21" viewBox="0 0 22 21" fill="none" xmlns="http://www.w3.org/2000/svg">
<path d="M11.8362 0.515969L14.5159 5.93738C14.5827 6.07197 14.6812 6.18838 14.803 6.27665C14.9247 6.36492 15.0661 6.42242 15.215 6.44422L21.2108 7.31597C21.3817 7.3417 21.5419 7.41456 21.6735 7.52633C21.8051 7.6381 21.9029 7.78434 21.9556 7.94857C22.0084 8.11279 22.0142 8.28846 21.9723 8.45579C21.9305 8.62312 21.8426 8.77544 21.7186 8.89559L17.3784 13.1192C17.2706 13.2239 17.1901 13.3532 17.1438 13.496C17.0975 13.6388 17.0868 13.7907 17.1126 13.9386L18.1367 19.9057C18.1668 20.077 18.148 20.2533 18.0824 20.4144C18.0168 20.5755 17.907 20.7149 17.7657 20.8166C17.6244 20.9184 17.4572 20.9783 17.2833 20.9896C17.1094 21.0009 16.9358 20.9631 16.7825 20.8805L11.435 18.0743C11.3019 18.0045 11.1538 17.968 11.0034 17.968C10.853 17.968 10.7049 18.0045 10.5717 18.0743L5.21073 20.8889C5.05738 20.9715 4.88382 21.0093 4.70994 20.998C4.53605 20.9868 4.36887 20.9268 4.22754 20.8251C4.08621 20.7233 3.97645 20.5839 3.91083 20.4228C3.84521 20.2617 3.82639 20.0854 3.85652 19.9141L4.88064 13.947C4.90647 13.7992 4.89577 13.6473 4.84946 13.5045C4.80314 13.3617 4.72262 13.2323 4.61488 13.1276L0.281388 8.90066C0.157416 8.78051 0.0695358 8.62819 0.0276549 8.46086C-0.0142259 8.29353 -0.00844253 8.11786 0.0443529 7.95363C0.0971483 7.78941 0.194857 7.64317 0.326464 7.5314C0.458072 7.41963 0.618345 7.34677 0.789219 7.32104L6.79178 6.44422C6.94067 6.42242 7.08206 6.36492 7.20382 6.27665C7.32557 6.18838 7.42408 6.07197 7.49089 5.93738L10.1705 0.515969C10.2474 0.36105 10.3661 0.230649 10.5133 0.13948C10.6604 0.0483102 10.8302 0 11.0034 0C11.1766 0 11.3464 0.0483102 11.4935 0.13948C11.6407 0.230649 11.7594 0.36105 11.8362 0.515969Z" fill="#8AB7D8"/>
</svg>
