<svg width="304" height="57" viewBox="0 0 304 57" fill="none" xmlns="http://www.w3.org/2000/svg">
<path d="M50.1628 24.8444V10.8461C50.1663 10.5006 50.1199 10.1561 50.0252 9.82172C48.6509 4.62442 38.4944 0.691406 26.3316 0.691406C25.562 0.691406 24.7652 0.691406 23.9681 0.691406C9.63393 1.26045 0 6.12936 0 12.7935V42.3332C0.00438358 42.8015 0.0641312 43.268 0.178501 43.7243C2.19876 51.5646 15.4882 56.8249 33.2582 56.8249H304V24.8321L50.1628 24.8444ZM47.4142 24.8444H33.2582C27.8602 24.8852 22.4791 24.2858 17.2475 23.0612V16.0562C19.9033 17.5571 22.889 18.4944 25.988 18.8001C27.5681 19.0023 29.1619 19.1034 30.7572 19.1033H32.3375C38.9755 18.8251 44.3491 17.3711 47.4551 15.2214L47.4142 24.8444ZM17.2609 12.047C17.2609 10.7825 20.7105 8.72179 26.9637 8.46888H27.9394C28.8308 8.46546 29.7221 8.51569 30.6062 8.62015C30.7161 8.61408 30.8259 8.61408 30.9357 8.62015L31.3752 8.68375L31.8839 8.77205H32.0899L32.6952 8.89863C34.9079 9.41709 36.2682 10.2388 36.5431 10.9091V16.0938C35.0917 16.3111 33.628 16.4506 32.159 16.5112H30.6881C29.3739 16.515 28.061 16.4388 26.7577 16.2834C21.4116 15.6638 17.6735 13.8684 17.22 12.1359C17.2274 12.106 17.2366 12.076 17.2475 12.047H17.2609ZM39.3601 15.7017V11.0356C39.4014 10.8692 39.4014 10.6964 39.3601 10.5299C38.7554 8.17788 35.4023 6.73642 31.6779 6.2306C30.4376 6.04378 29.1828 5.95047 27.926 5.95213H26.8268C19.5567 6.24297 14.4579 8.74653 14.4579 12.0217C14.4511 12.1354 14.4511 12.2494 14.4579 12.3632V22.2647C8.08105 20.2667 3.76541 17.2064 2.84461 13.653C2.77447 13.3794 2.73749 13.0999 2.73456 12.8189C2.73456 7.65949 11.5028 3.71397 24.0641 3.20815C24.82 3.20815 25.5757 3.20815 26.3041 3.20815C35.5533 3.20815 46.2043 6.10392 47.3175 10.4287C47.3386 10.5756 47.3386 10.7245 47.3175 10.8714C47.4 12.6038 44.4455 14.5763 39.3467 15.7017H39.3601Z" fill="#FFDED4"/>
<path d="M32.708 56.7112V46.0132" stroke="#FF7976" stroke-miterlimit="10"/>
<path d="M40.1162 56.711V53.499" stroke="#FF7976" stroke-miterlimit="10"/>
<path d="M47.5371 56.711V50.2871" stroke="#FF7976" stroke-miterlimit="10"/>
<path d="M54.959 56.711V53.499" stroke="#FF7976" stroke-miterlimit="10"/>
<path d="M62.3799 56.7112V46.0132" stroke="#FF7976" stroke-miterlimit="10"/>
<path d="M69.7881 56.711V53.499" stroke="#FF7976" stroke-miterlimit="10"/>
<path d="M77.209 56.711V50.2871" stroke="#FF7976" stroke-miterlimit="10"/>
<path d="M84.6309 56.711V53.499" stroke="#FF7976" stroke-miterlimit="10"/>
<path d="M92.0527 56.7112V46.0132" stroke="#FF7976" stroke-miterlimit="10"/>
<path d="M99.46 56.711V53.499" stroke="#FF7976" stroke-miterlimit="10"/>
<path d="M106.881 56.711V50.2871" stroke="#FF7976" stroke-miterlimit="10"/>
<path d="M114.303 56.711V53.499" stroke="#FF7976" stroke-miterlimit="10"/>
<path d="M121.725 56.7112V46.0132" stroke="#FF7976" stroke-miterlimit="10"/>
<path d="M129.146 56.711V53.499" stroke="#FF7976" stroke-miterlimit="10"/>
<path d="M136.567 56.711V50.2871" stroke="#FF7976" stroke-miterlimit="10"/>
<path d="M143.975 56.711V53.499" stroke="#FF7976" stroke-miterlimit="10"/>
<path d="M151.396 56.7112V46.0132" stroke="#FF7976" stroke-miterlimit="10"/>
<path d="M158.817 56.711V53.499" stroke="#FF7976" stroke-miterlimit="10"/>
<path d="M166.239 56.711V50.2871" stroke="#FF7976" stroke-miterlimit="10"/>
<path d="M173.646 56.711V53.499" stroke="#FF7976" stroke-miterlimit="10"/>
<path d="M181.068 56.7112V46.0132" stroke="#FF7976" stroke-miterlimit="10"/>
<path d="M188.49 56.711V53.499" stroke="#FF7976" stroke-miterlimit="10"/>
<path d="M195.911 56.711V50.2871" stroke="#FF7976" stroke-miterlimit="10"/>
<path d="M203.333 56.711V53.499" stroke="#FF7976" stroke-miterlimit="10"/>
<path d="M210.752 56.7112V46.0132" stroke="#FF7976" stroke-miterlimit="10"/>
<path d="M218.162 56.711V53.499" stroke="#FF7976" stroke-miterlimit="10"/>
<path d="M225.583 56.711V50.2871" stroke="#FF7976" stroke-miterlimit="10"/>
<path d="M233.005 56.711V53.499" stroke="#FF7976" stroke-miterlimit="10"/>
<path d="M240.427 56.7112V46.0132" stroke="#FF7976" stroke-miterlimit="10"/>
<path d="M247.834 56.711V53.499" stroke="#FF7976" stroke-miterlimit="10"/>
<path d="M255.256 56.711V50.2871" stroke="#FF7976" stroke-miterlimit="10"/>
<path d="M262.676 56.711V53.499" stroke="#FF7976" stroke-miterlimit="10"/>
<path d="M270.098 56.7112V46.0132" stroke="#FF7976" stroke-miterlimit="10"/>
<path d="M277.518 56.711V53.499" stroke="#FF7976" stroke-miterlimit="10"/>
<path d="M284.928 56.711V50.2871" stroke="#FF7976" stroke-miterlimit="10"/>
<path d="M292.348 56.711V53.499" stroke="#FF7976" stroke-miterlimit="10"/>
<path d="M299.77 56.7112V46.0132" stroke="#FF7976" stroke-miterlimit="10"/>
</svg>
