<svg width="75" height="80" viewBox="0 0 75 80" fill="none" xmlns="http://www.w3.org/2000/svg">
<path d="M63.0894 0H11.9106C5.33256 0 0 5.29072 0 11.8171V68.1829C0 74.7093 5.33256 80 11.9106 80H63.0894C69.6674 80 75 74.7093 75 68.1829V11.8171C75 5.29072 69.6674 0 63.0894 0Z" fill="#8EA4DB"/>
<path d="M56.1438 29.5315H18.8569C12.2789 29.5315 6.94629 34.8222 6.94629 41.3486V61.2915C6.94629 67.8179 12.2789 73.1086 18.8569 73.1086H56.1438C62.7219 73.1086 68.0544 67.8179 68.0544 61.2915V41.3486C68.0544 34.8222 62.7219 29.5315 56.1438 29.5315Z" fill="#5A77B0"/>
<path d="M37.5055 5.73706C35.2108 5.73706 32.9385 6.18551 30.8184 7.05678C28.6983 7.92805 26.772 9.20507 25.1493 10.815C23.5267 12.4249 22.2395 14.3361 21.3614 16.4396C20.4832 18.543 20.0313 20.7974 20.0312 23.0742H54.9682C54.9682 18.4781 53.1288 14.07 49.8542 10.819C46.5797 7.56801 42.138 5.74009 37.5055 5.73706Z" fill="white"/>
<path d="M38.2201 13.6458C38.2201 13.8337 38.1449 14.0139 38.011 14.1468C37.877 14.2797 37.6954 14.3544 37.506 14.3544C37.3155 14.3544 37.1326 14.2801 36.9968 14.1475C36.861 14.0149 36.7833 13.8347 36.7803 13.6458V6.84577C36.7833 6.6568 36.861 6.47659 36.9968 6.34403C37.1326 6.21146 37.3155 6.13718 37.506 6.13721C37.6954 6.13721 37.877 6.21184 38.011 6.34473C38.1449 6.47761 38.2201 6.65785 38.2201 6.84577V13.6458Z" fill="#F2C09E"/>
<path d="M42.9889 15.2913C42.9423 15.3727 42.8798 15.4441 42.8053 15.5014C42.7307 15.5587 42.6455 15.6007 42.5545 15.6252C42.4635 15.6496 42.3685 15.6559 42.275 15.6437C42.1815 15.6315 42.0913 15.6011 42.0097 15.5542C41.9277 15.508 41.8558 15.4461 41.798 15.3721C41.7403 15.2981 41.6979 15.2136 41.6732 15.1233C41.6486 15.0329 41.6422 14.9387 41.6545 14.8459C41.6668 14.7531 41.6975 14.6637 41.7448 14.5828L45.2005 8.69706C45.2471 8.61572 45.3094 8.54433 45.384 8.48703C45.4585 8.42973 45.5438 8.38765 45.6348 8.36321C45.7259 8.33878 45.8209 8.33248 45.9144 8.34466C46.0079 8.35684 46.098 8.38726 46.1796 8.43419C46.2616 8.48042 46.3335 8.54232 46.3913 8.61628C46.449 8.69025 46.4914 8.77482 46.5161 8.86513C46.5407 8.95545 46.547 9.04971 46.5348 9.14248C46.5225 9.23524 46.4919 9.32468 46.4446 9.40562L42.9889 15.2913Z" fill="#F2C09E"/>
<path d="M36.7454 23.0399H38.2199L34.6144 8.85709C34.5941 8.76657 34.5558 8.68102 34.5017 8.60538C34.4477 8.52974 34.3789 8.46555 34.2995 8.41659C34.2202 8.36763 34.1318 8.33489 34.0395 8.32026C33.9472 8.30563 33.8529 8.3094 33.7621 8.33138C33.6704 8.35285 33.5839 8.39212 33.5075 8.4469C33.4312 8.50167 33.3666 8.57087 33.3173 8.65055C33.268 8.73022 33.2352 8.81878 33.2206 8.91111C33.2059 9.00344 33.2099 9.09771 33.2322 9.18853L36.7454 23.0399Z" fill="#DA6057"/>
<path d="M46.283 19.0858C46.2014 19.1328 46.1113 19.1632 46.0178 19.1754C45.9243 19.1876 45.8293 19.1812 45.7382 19.1568C45.6472 19.1324 45.5619 19.0903 45.4874 19.033C45.4128 18.9757 45.3505 18.9043 45.3039 18.823C45.2545 18.7431 45.2219 18.6543 45.2079 18.5616C45.194 18.469 45.199 18.3745 45.2226 18.2839C45.2463 18.1932 45.2881 18.1082 45.3456 18.0339C45.4031 17.9596 45.4751 17.8976 45.5573 17.8516L51.4896 14.423C51.5712 14.3761 51.6613 14.3456 51.7548 14.3334C51.8483 14.3212 51.9433 14.3275 52.0343 14.352C52.1253 14.3764 52.2106 14.4185 52.2852 14.4758C52.3597 14.5331 52.4221 14.6045 52.4687 14.6858C52.5164 14.7661 52.5478 14.8549 52.5609 14.9472C52.574 15.0395 52.5687 15.1335 52.5451 15.2237C52.5216 15.314 52.4803 15.3987 52.4237 15.4731C52.3671 15.5475 52.2963 15.6101 52.2153 15.6573L46.283 19.0858Z" fill="#F2C09E"/>
<path d="M33.2668 14.5829C33.3141 14.6638 33.3447 14.7533 33.357 14.8461C33.3693 14.9388 33.363 15.0331 33.3383 15.1234C33.3137 15.2137 33.2713 15.2983 33.2135 15.3722C33.1558 15.4462 33.0838 15.5081 33.0018 15.5543C32.9203 15.6013 32.8301 15.6317 32.7366 15.6439C32.6431 15.6561 32.5481 15.6498 32.4571 15.6253C32.3661 15.6009 32.2808 15.5588 32.2063 15.5015C32.1317 15.4442 32.0693 15.3728 32.0228 15.2915L28.5671 9.40576C28.5198 9.32482 28.4891 9.23538 28.4768 9.14261C28.4645 9.04985 28.4709 8.95559 28.4955 8.86527C28.5201 8.77496 28.5625 8.69039 28.6203 8.61642C28.678 8.54246 28.75 8.48056 28.832 8.43433C28.9992 8.34201 29.1961 8.31782 29.3809 8.36688C29.5658 8.41593 29.7242 8.53439 29.8227 8.6972L33.2668 14.5829Z" fill="#F2C09E"/>
<path d="M29.4421 17.8515C29.5241 17.8978 29.596 17.9596 29.6538 18.0336C29.7115 18.1075 29.7539 18.1921 29.7786 18.2825C29.8032 18.3728 29.8096 18.467 29.7973 18.5598C29.785 18.6526 29.7543 18.742 29.707 18.8229C29.6086 18.9857 29.4502 19.1042 29.2653 19.1532C29.0805 19.2023 28.8836 19.1781 28.7164 19.0858L22.7956 15.6572C22.6292 15.5616 22.5079 15.4044 22.4582 15.2202C22.4086 15.0359 22.4346 14.8396 22.5307 14.6744C22.5773 14.593 22.6397 14.5216 22.7142 14.4643C22.7888 14.407 22.874 14.365 22.9651 14.3405C23.0561 14.3161 23.1511 14.3098 23.2446 14.3219C23.3381 14.3341 23.4282 14.3646 23.5098 14.4115L29.4421 17.8515Z" fill="#F2C09E"/>
</svg>
